<svg height="512" viewBox="0 0 128 128" width="512" xmlns="http://www.w3.org/2000/svg"><g id="Layer_1" data-name="Layer 1"><path d="m88.476 9.211h-1.327v-1.327a.58.58 0 1 0 -1.159 0v1.327h-1.328a.58.58 0 0 0 0 1.159h1.328v1.33a.58.58 0 0 0 1.159 0v-1.33h1.327a.58.58 0 1 0 0-1.159z" fill="#87d9ff"/><path d="m28.765 15.182h-2.325v-2.325a.58.58 0 1 0 -1.159 0v2.325h-2.325a.58.58 0 1 0 0 1.159h2.325v2.325a.58.58 0 1 0 1.159 0v-2.325h2.325a.58.58 0 1 0 0-1.159z" fill="#feca36"/><path d="m42.125 10.7h-1.765v-1.762a.58.58 0 1 0 -1.159 0v1.762h-1.765a.58.58 0 0 0 0 1.159h1.764v1.765a.58.58 0 0 0 1.159 0v-1.763h1.765a.58.58 0 1 0 0-1.159z" fill="#6cc282"/><path d="m95.225 25.9h-2.083v-2.089a.455.455 0 1 0 -.909 0v2.089h-2.084a.454.454 0 0 0 0 .908h2.084v2.084a.455.455 0 0 0 .909 0v-2.092h2.083a.454.454 0 1 0 0-.908z" fill="#ee6ba5"/><path d="m98.656 16.713a2.169 2.169 0 1 1 2.168-2.169 2.171 2.171 0 0 1 -2.168 2.169zm0-3.422a1.254 1.254 0 1 0 1.253 1.253 1.255 1.255 0 0 0 -1.253-1.253z" fill="#bc96c7"/><path d="m31.164 31.845a2.748 2.748 0 1 1 2.748-2.745 2.751 2.751 0 0 1 -2.748 2.745zm0-4.337a1.589 1.589 0 1 0 1.589 1.592 1.591 1.591 0 0 0 -1.589-1.592z" fill="#80d1ee"/><ellipse cx="75.43" cy="17.803" fill="#fbc78a" rx="3.783" ry="1.876" transform="matrix(.151 -.989 .989 .151 46.47 89.692)"/><ellipse cx="52.28" cy="17.803" fill="#fbc78a" rx="1.876" ry="3.783" transform="matrix(.989 -.151 .151 .989 -2.085 8.077)"/><path d="m80.3 40.617q-.186-2.955-.467-6a5.705 5.705 0 0 0 -4.058-5.463l-11.918-3.6-11.918 3.6a5.706 5.706 0 0 0 -4.058 5.463q-.252 3.054-.437 6z" fill="#6cc282"/><path d="m47.353 42.14c-.385 7.086-.359 13.514.526 18.57a9.387 9.387 0 0 0 9.387 9.39h13.179a9.387 9.387 0 0 0 9.386-9.387 93.223 93.223 0 0 0 .559-18.57z" fill="#5faf70"/><path d="m72.968 29.155-9.112-3.6-9.113 3.6c-1.843.727-3.1 2.946-3.1 5.463-.634 10.022-.91 19.3 0 26.092 0 5.184 3.213 9.387 7.177 9.387h10.074c3.964 0 7.177-4.2 7.177-9.387.877-7.608.68-16.549 0-26.092 0-2.518-1.26-4.736-3.103-5.463z" fill="#6cc282"/><path d="m80.6 52.067-.307 8.575c0 5.178-4.667 9.455-9.845 9.455h-13.182c-5.179 0-10.129-4.389-10.129-9.567v-8.463z" fill="#d0d2d3"/><path d="m76.657 52.067-.235 8.575c0 5.178-3.568 9.455-7.526 9.455h-10.076c-3.958 0-7.743-4.389-7.743-9.567v-8.463z" fill="#e6e7e8"/><path d="m66.557 76.808s2.377-16.551 10.234-17.721 6.483 5.634 4.746 9.671-7.922 14.994-10.764 15.032-5.673-.72-4.216-6.982z" fill="#edb480"/><path d="m61.154 76.808s-2.377-16.551-10.235-17.721-6.483 5.634-4.746 9.671 7.927 14.994 10.765 15.032 5.669-.72 4.216-6.982z" fill="#edb480"/><path d="m96.743 55.623s-1.008-3.108-3.292-3.963a30.063 30.063 0 0 0 -6.238-13.967 36.981 36.981 0 0 0 -9.874-7.816 4.587 4.587 0 0 0 -6.849 3.3 4.71 4.71 0 0 0 .829 3.137c2.9 4.406 10.825 8.441 10.825 8.441 1.02 4.111 4.847 7.972 6.236 9.266a2.518 2.518 0 0 0 .209 1.4s.271 3.927 1.273 4.138.751-1.87.751-1.87a2.234 2.234 0 0 1 .9 1.058c.418.839-.113 2.235.1 2.666a.813.813 0 0 0 1.432.065 5.509 5.509 0 0 0 .134-2.921 3.737 3.737 0 0 1 .46 1.675c.014.928-.121 1.182.073 1.571s.658.682 1.272.151.172-3-.395-4.06c0 0 .709.459 1.29 2.755a.682.682 0 0 0 1.3-.053c.482-1.01-1.271-3.549-1.271-3.549s1.137.631 1.405 1.394.873.784 1.226.51c.476-.372-.555-2.488-1.796-3.328z" fill="#fbc78a"/><path d="m76.922 29.644c-2.695-1.465-5.694.165-6.722 3.055l-2.516 7.074 13.486 4.991 4.46-10.054c-2.466-1.49-6.038-3.61-8.708-5.066z" fill="#6cc282"/><path d="m31.257 55.623s1.008-3.108 3.292-3.963a30.063 30.063 0 0 1 6.238-13.967 36.981 36.981 0 0 1 9.874-7.816 4.587 4.587 0 0 1 6.849 3.3 4.71 4.71 0 0 1 -.829 3.137c-2.9 4.406-10.825 8.441-10.825 8.441-1.02 4.111-4.847 7.972-6.236 9.266a2.518 2.518 0 0 1 -.209 1.4s-.271 3.927-1.273 4.138-.751-1.87-.751-1.87a2.234 2.234 0 0 0 -.9 1.058c-.418.839.113 2.235-.1 2.666a.813.813 0 0 1 -1.432.065 5.509 5.509 0 0 1 -.134-2.921 3.737 3.737 0 0 0 -.46 1.675c-.014.928.121 1.182-.073 1.571s-.658.682-1.272.151-.172-3 .395-4.06c0 0-.709.459-1.29 2.755a.682.682 0 0 1 -1.295-.053c-.482-1.01 1.271-3.549 1.271-3.549s-1.137.631-1.4 1.394-.873.784-1.226.51c-.486-.372.545-2.488 1.786-3.328z" fill="#fbc78a"/><path d="m51.078 29.644c2.7-1.465 5.694.165 6.722 3.055l2.516 7.074-13.486 4.991-4.46-10.054c2.466-1.49 6.038-3.61 8.708-5.066z" fill="#6cc282"/><path d="m63.855 3.788c-6.446 0-11.672 5.559-11.672 12.927s5.226 14.66 11.672 14.66 11.673-7.293 11.673-14.66-5.228-12.927-11.673-12.927z" fill="#fbc78a"/><path d="m68.926 3.245v-.063s-7.877-3.494-13.415 1.534c-3.946 3.583-3.958 9.239-3.639 12.2a.686.686 0 0 0 1.367-.048c.085-1.5.577-3.363 2.428-3.8 3.2-.751 6.786-1.875 6.786-1.875l-1.56 2.727a10.489 10.489 0 0 0 7.767-4.283 12.515 12.515 0 0 0 5.258 5.475l.508 2.013a.6.6 0 0 0 1.187-.093c.245-2.666.854-14.109-6.687-13.787z" fill="#58595b"/><path d="m75.878 73.239a.976.976 0 0 0 .079-.166.751.751 0 0 0 -.338-.994.677.677 0 0 0 -.745.261l-.117-.1a1.185 1.185 0 0 0 .251-.442.924.924 0 0 0 -.482-1.2.878.878 0 0 0 -1 .539c-.034-.031-.07-.061-.106-.093a1.351 1.351 0 0 0 .137-.409.937.937 0 1 0 -1.807-.344h-.107a1.7 1.7 0 0 0 .048-.307 1.088 1.088 0 1 0 -2.125-.106 1.567 1.567 0 0 0 .014.292l-.077-.016c-.006-.06-.006-.119-.017-.18a1.474 1.474 0 1 0 -2.837.508 2.091 2.091 0 0 0 .358.848 7.679 7.679 0 0 0 .983 3.767 6.119 6.119 0 0 0 .215.632 5.808 5.808 0 0 1 -1.01 3.353 3.858 3.858 0 0 0 -.321.5l-.008.011a2.959 2.959 0 0 0 -.424 1.546c.211 3.119 4.3 3.488 5.692 1.877a25.267 25.267 0 0 0 2.3-4.405 47.251 47.251 0 0 0 1.444-5.372z" fill="#fbc78a"/><path d="m51.936 73.239a.979.979 0 0 1 -.08-.166.752.752 0 0 1 .339-.994.676.676 0 0 1 .744.261l.117-.1a1.183 1.183 0 0 1 -.25-.442.924.924 0 0 1 .481-1.2.879.879 0 0 1 1 .539l.1-.093a1.379 1.379 0 0 1 -.137-.409 1.049 1.049 0 0 1 .722-1.276 1.038 1.038 0 0 1 1.085.932h.108a1.612 1.612 0 0 1 -.048-.307 1.088 1.088 0 1 1 2.125-.106 1.567 1.567 0 0 1 -.014.292l.076-.016c.006-.06.007-.119.018-.18a1.474 1.474 0 1 1 2.837.508 2.091 2.091 0 0 1 -.358.848 7.679 7.679 0 0 1 -.983 3.767 5.9 5.9 0 0 1 -.216.632 5.808 5.808 0 0 0 1.01 3.353 3.969 3.969 0 0 1 .322.5l.007.011a2.967 2.967 0 0 1 .423 1.546c-.211 3.119-4.3 3.488-5.691 1.877a25.267 25.267 0 0 1 -2.3-4.405 47.368 47.368 0 0 1 -1.437-5.372z" fill="#fbc78a"/><path d="m81.485 111.6-3.269 12.929 24.672-.991 1.489-13.389 9.465-37.449-4.824-37.821a.159.159 0 0 0 -.182-.133 9.205 9.205 0 0 0 -7.77 9.466l1.152 28.388-6.649 21.311-3.917-1.711 7.725-16.162a10.526 10.526 0 0 0 -2.94-10.515 1.9 1.9 0 0 0 -3.07.711l-13.308 27.066a8.133 8.133 0 0 0 -.732 4.883z" fill="#fac77c"/><path d="m104.699 126h-27.981l3.781-13.049 24.169 1.592z" fill="#bc96c7"/><path d="m46.515 111.6 3.269 12.929-24.672-.991-1.489-13.389-9.465-37.449 4.824-37.821a.159.159 0 0 1 .182-.133 9.205 9.205 0 0 1 7.77 9.466l-1.152 28.388 6.649 21.312 3.917-1.712-7.725-16.166a10.526 10.526 0 0 1 2.94-10.515 1.9 1.9 0 0 1 3.07.711l13.308 27.07a8.133 8.133 0 0 1 .732 4.883z" fill="#fac77c"/><path d="m23.301 126h27.981l-3.781-13.049-24.169 1.592z" fill="#bc96c7"/></g></svg>