<svg width="100" height="100" viewBox="0 0 100 100" fill="none" xmlns="http://www.w3.org/2000/svg">
<g opacity="0.5">
<path d="M77.8816 13.3211C87.7366 20.6401 97.7063 27.9591 99.636 37.2092C101.566 46.4832 95.4551 57.7359 89.9878 67.3674C84.5435 76.999 79.7424 85.0094 72.9197 90.8979C66.1201 96.7865 57.2989 100.553 48.9141 99.9335C40.5064 99.3375 32.5352 94.331 23.9208 89.0622C15.2834 83.7935 6.00273 78.2387 2.14346 69.8945C-1.69284 61.5742 -0.107777 50.4645 4.73928 42.1204C9.56337 33.7762 17.6035 28.1976 25.4369 20.1872C33.2703 12.1768 40.874 1.75848 49.5574 0.208854C58.2407 -1.34078 68.0037 6.00209 77.8816 13.3211Z" fill="#84B5CB"/>
</g>
<path d="M76.748 21.9111L79.1015 17.1511L82.1162 18.6417L79.7628 23.4017L76.748 21.9111Z" fill="#4A5160"/>
<path d="M76.7832 21.8926L73.0664 29.4082L76.082 30.8984L79.7988 23.3848L76.7832 21.8926Z" fill="#6D7486"/>
<path d="M58.9885 40.3214C58.8084 39.7169 58.3955 39.2087 57.8408 38.9086C57.286 38.6085 56.6348 38.541 56.0303 38.721L57.3879 43.2796C57.992 43.0989 58.4999 42.686 58.7999 42.1315C59.1 41.5769 59.1678 40.9259 58.9885 40.3214Z" fill="#5FA8ED"/>
<path d="M31.1934 4.5125L28.1737 4.03144C27.9769 4.0002 27.7755 4.03955 27.6049 4.14253C27.4344 4.2455 27.3058 4.40547 27.2418 4.59414C27.0779 5.08713 27.1122 5.62457 27.3375 6.09273C27.5628 6.56088 27.9613 6.92303 28.4489 7.10254L30.351 7.78925L30.9239 6.20195L30.8067 6.15976L30.9276 6.17929L31.1934 4.5125Z" fill="#D1C44B"/>
<path d="M42.8477 26.666L27.6699 21.5254C26.7121 21.2013 25.6649 21.2709 24.7584 21.7188C23.8519 22.1668 23.1604 22.9564 22.8359 23.914L45.2363 31.5C45.5601 30.5422 45.4904 29.495 45.0425 28.5886C44.5946 27.6822 43.8052 26.9907 42.8477 26.666Z" fill="#E1B7A3"/>
<path d="M88.0704 40.5C89.42 40.9766 90.1271 42.2969 89.9064 43.8692C89.5587 46.207 87.1759 48.6504 82.6017 48.8613C82.5553 48.8604 82.5093 48.8532 82.4649 48.8399C82.4213 48.8225 82.3805 48.7988 82.3439 48.7695C78.9142 45.7793 78.5841 42.3633 79.7911 40.2988C80.5997 38.9063 81.9786 38.3223 83.3302 38.7988C84.0899 39.0664 84.7911 39.6621 85.3888 40.5528C86.3907 40.2559 87.3224 40.2363 88.0704 40.5Z" fill="#EB7288"/>
<path d="M55.092 45.5684L26.7754 55.3416L55.0996 69.4842L83.4238 55.3416L55.092 45.5684Z" fill="#996B5C"/>
<path d="M82.8359 55.6094L55.0996 69.4844V97.8516L82.8613 84.4277V55.6562L82.8359 55.6094Z" fill="#C99783"/>
<path d="M70.1349 4.01369C71.4865 4.49025 72.1935 5.81056 71.9708 7.38087C71.6232 9.71876 69.2423 12.1641 64.6681 12.3731C64.6212 12.3736 64.5744 12.367 64.5294 12.3535C64.4866 12.3358 64.4465 12.3122 64.4103 12.2832C60.9786 9.29298 60.6505 5.87697 61.8556 3.81251C62.6662 2.41994 64.0431 1.83595 65.3947 2.31251C66.1544 2.58009 66.8556 3.17579 67.4533 4.06642C68.4552 3.76759 69.3888 3.75001 70.1349 4.01369Z" fill="#EB7288"/>
<path d="M66.8242 23.0469C66.9027 23.5975 66.9132 24.1558 66.8555 24.709C66.027 24.6407 65.1936 24.7505 64.4111 25.031C63.6287 25.3115 62.9153 25.7563 62.319 26.3354C61.7227 26.9145 61.2573 27.6145 60.954 28.3884C60.6507 29.1623 60.5165 29.9922 60.5605 30.8223C59.5813 30.8955 58.5978 30.7565 57.6772 30.4147C56.7566 30.0729 55.9207 29.5364 55.2266 28.8418L55.2285 28.8398L64.8926 19.1758C65.9414 20.221 66.6197 21.5804 66.8242 23.0469Z" fill="#87C4C2"/>
<path d="M62.3169 26.338C62.9128 25.7574 63.6264 25.3116 64.4095 25.0306C65.1926 24.7496 66.0268 24.6399 66.8559 24.7091C66.6994 26.2268 66.0394 27.6485 64.981 28.7476C63.9227 29.8467 62.5269 30.5599 61.0161 30.7735C60.8637 30.795 60.7134 30.8126 60.561 30.8224C60.5167 29.9929 60.6505 29.1635 60.9534 28.39C61.2562 27.6166 61.7211 26.9169 62.3169 26.338Z" fill="#EB7288"/>
<path d="M64.8927 19.1756L55.2286 28.8397L55.2267 28.8416C54.5329 28.1507 53.9964 27.3183 53.6536 26.4012C53.3108 25.484 53.1698 24.5037 53.2403 23.5272C54.1118 23.6424 54.9981 23.5586 55.8326 23.2822C56.6671 23.0059 57.4282 22.5441 58.0587 21.9315C58.6923 21.3242 59.1781 20.5797 59.4787 19.7552C59.7794 18.9307 59.887 18.0482 59.7931 17.1756C60.7351 17.1388 61.6746 17.2975 62.5523 17.6417C63.43 17.9859 64.2268 18.5082 64.8927 19.1756Z" fill="#A0EAEA"/>
<path d="M59.793 17.1758C59.8869 18.0484 59.7793 18.9308 59.4787 19.7553C59.178 20.5798 58.6922 21.3244 58.0586 21.9316C57.4281 22.5442 56.667 23.006 55.8325 23.2824C54.998 23.5588 54.1117 23.6425 53.2402 23.5273C53.3492 21.967 53.9903 20.4912 55.0564 19.3466C56.1224 18.202 57.5489 17.4578 59.0977 17.2383C59.3281 17.205 59.5602 17.1841 59.793 17.1758Z" fill="#EF95A8"/>
<path d="M27.3398 55.5957L27.3379 55.6016V84.4277L55.0996 97.8516V69.4844L27.3398 55.5957Z" fill="#E1B7A3"/>
<path d="M30.0104 7.41022C30.0035 6.84652 30.0927 6.28577 30.2741 5.75202C30.3476 5.53351 30.437 5.3207 30.5417 5.1153C30.8674 4.46609 31.3311 3.89587 31.9002 3.44451C32.4693 2.99316 33.1301 2.67156 33.8364 2.5022C34.5428 2.33284 35.2776 2.31982 35.9895 2.46404C36.7014 2.60826 37.3732 2.90624 37.9579 3.33714C38.5427 3.76805 39.0262 4.32148 39.3748 4.95874C39.7233 5.596 39.9285 6.3017 39.9759 7.02652C40.0233 7.75133 39.9118 8.47775 39.6493 9.15498C39.3867 9.83222 38.9793 10.4439 38.4557 10.9473C38.3611 11.0362 38.2912 11.1481 38.2527 11.272C38.2141 11.396 38.2084 11.5278 38.2359 11.6546C38.2634 11.7814 38.3233 11.899 38.4098 11.9958C38.4962 12.0926 38.6062 12.1654 38.7292 12.2071L49.2624 15.7755L48.4342 18.2208C48.0292 19.4334 47.3887 20.554 46.5495 21.5185C45.7102 22.4829 44.6888 23.2721 43.5438 23.8407C42.3987 24.4094 41.1527 24.7463 39.8771 24.8322C38.6016 24.9181 37.3216 24.7512 36.1107 24.3411C34.8998 23.931 33.7818 23.2859 32.8209 22.4426C31.86 21.5994 31.075 20.5747 30.5111 19.4273C29.9472 18.2799 29.6155 17.0325 29.5349 15.7566C29.4544 14.4807 29.6266 13.2014 30.0417 11.9923L30.735 9.94147C30.2717 9.17758 30.0215 8.30355 30.0104 7.41022Z" fill="#EADF53"/>
<path d="M38.8926 39.9805C39.8691 41.1382 40.3817 42.6169 40.3312 44.1307C40.2807 45.6444 39.6707 47.0857 38.6191 48.1758C38.4746 48.3242 38.3223 48.4687 38.1602 48.6055C37.998 48.7422 37.8301 48.8691 37.6602 48.9844C36.4083 49.8375 34.8845 50.196 33.3836 49.9903C31.8826 49.7846 30.5114 49.0295 29.5352 47.8711C29.1391 47.4041 28.817 46.8791 28.5801 46.3145C29.6644 46.418 30.7585 46.3041 31.7983 45.9794C32.838 45.6546 33.8025 45.1255 34.6351 44.4232C35.4677 43.7208 36.1517 42.8593 36.647 41.8892C37.1423 40.919 37.4389 39.8597 37.5195 38.7734C38.0347 39.1053 38.4975 39.5121 38.8926 39.9805Z" fill="#604AF3"/>
<path d="M37.5196 38.7736C37.4394 39.8601 37.1431 40.9196 36.6479 41.89C36.1527 42.8603 35.4687 43.722 34.636 44.4245C33.8033 45.1269 32.8387 45.6559 31.7988 45.9805C30.7588 46.3051 29.6645 46.4187 28.5801 46.3146C28.0698 45.1108 27.9584 43.7751 28.2623 42.5033C28.5662 41.2316 29.2694 40.0906 30.2689 39.2475C31.2683 38.4043 32.5115 37.9035 33.8163 37.8182C35.1211 37.7329 36.4189 38.0678 37.5196 38.7736Z" fill="#867AF4"/>
<path d="M19.8628 36.3514C21.271 38.2498 21.316 41.6619 18.2281 45.0447C18.1955 45.0783 18.158 45.1067 18.1167 45.1287C18.0736 45.1466 18.0283 45.1584 17.982 45.1639C13.441 45.4744 10.7945 43.2928 10.187 40.9803C9.77494 39.4236 10.3355 38.035 11.6285 37.4158C12.355 37.0682 13.271 36.9939 14.3238 37.201C14.8218 36.2811 15.4683 35.6092 16.1831 35.2674C17.4761 34.6502 18.9097 35.0838 19.8628 36.3514Z" fill="#EB7288"/>
<path d="M36.7852 15.3926L44.4512 17.9883C44.2454 18.5978 43.9215 19.1607 43.498 19.6449C43.0745 20.1291 42.5596 20.525 41.9829 20.81C41.4062 21.095 40.779 21.2635 40.1371 21.3058C39.4952 21.3481 38.8513 21.2634 38.2422 21.0566L35.2148 20.0312L36.7852 15.3926Z" fill="#EDB740"/>
<path d="M25.5959 24.8495C25.7931 24.3355 26.1816 23.9177 26.6799 23.6837C27.1782 23.4496 27.7478 23.4174 28.2693 23.5939C28.7908 23.7703 29.2238 24.1417 29.4776 24.6302C29.7315 25.1188 29.7865 25.6866 29.6311 26.2147C29.6233 26.2421 29.6154 26.2694 29.6057 26.2968C29.4244 26.8327 29.0376 27.2746 28.5305 27.5253C28.0234 27.776 27.4374 27.815 26.9016 27.6337C26.3657 27.4524 25.9238 27.0656 25.6731 26.5585C25.4224 26.0514 25.3834 25.4655 25.5647 24.9296C25.5744 24.9022 25.5842 24.8769 25.5959 24.8495Z" fill="#C79A83"/>
<path d="M42.4667 30.5625C42.4589 30.5899 42.4511 30.6172 42.4413 30.6445C42.2564 31.1761 41.8689 31.6131 41.3633 31.8602C40.8576 32.1074 40.2748 32.1447 39.7418 31.9641C39.2087 31.7835 38.7686 31.3996 38.5174 30.896C38.2661 30.3924 38.224 29.8099 38.4003 29.2754C38.4101 29.2481 38.4198 29.2227 38.4315 29.1953C38.6285 28.6806 39.0171 28.2621 39.5158 28.0277C40.0146 27.7933 40.5848 27.7611 41.1068 27.9379C41.6287 28.1148 42.0619 28.4869 42.3155 28.9763C42.569 29.4656 42.6232 30.0341 42.4667 30.5625Z" fill="#C79A83"/>
<path d="M57.6113 42.1602C57.8592 43.981 57.4466 45.8303 56.4484 47.3731C55.4502 48.9159 53.9324 50.0502 52.1699 50.5703L51.6484 47.3437L51.6602 47.3418C55.3008 46.1328 57.7656 43.5801 57.4629 41.373C57.5265 41.6326 57.576 41.8953 57.6113 42.1602Z" fill="#4CA987"/>
<path d="M57.4629 41.3732C57.7656 43.5802 55.3008 46.1329 51.6602 47.3419L51.6484 47.3439L51.3105 45.2443C51.0602 43.6851 50.6078 42.1651 49.9648 40.7228L49.0996 38.7794C52.8145 37.7931 56.2793 38.5822 57.2324 40.6017C57.2773 40.7267 57.3184 40.8536 57.3574 40.9825C57.3965 41.1115 57.4316 41.2423 57.4629 41.3732Z" fill="#5FCDA4"/>
<path d="M56.9238 39.8576C57.0402 40.0998 57.1432 40.3482 57.2324 40.6017C56.2793 38.5822 52.8145 37.7931 49.0996 38.7794L47.7695 35.7951C49.529 35.2641 51.4206 35.3821 53.1005 36.1276C54.7804 36.8731 56.137 38.1966 56.9238 39.8576Z" fill="#4CA987"/>
<path d="M51.311 45.2441C51.0607 43.6849 50.6083 42.165 49.9653 40.7227L47.77 35.7949L44.7426 36.6953C44.5818 36.7434 44.4339 36.8272 44.3101 36.9405C44.1862 37.0538 44.0896 37.1936 44.0274 37.3496C43.9653 37.5055 43.9391 37.6734 43.951 37.8408C43.9629 38.0083 44.0125 38.1709 44.0961 38.3164L46.1743 41.9297C46.944 43.2672 47.3908 44.766 47.479 46.3066L47.5961 48.3613L47.7153 50.4687C47.7249 50.6363 47.7722 50.7996 47.8538 50.9463C47.9354 51.093 48.0491 51.2194 48.1864 51.3159C48.3237 51.4125 48.4811 51.4767 48.6468 51.5039C48.8124 51.531 48.9821 51.5203 49.143 51.4727L52.1704 50.5703L51.311 45.2441Z" fill="#5FA8ED"/>
<path d="M78.123 31.6152L74.7383 29.9414L74.7285 29.9609L63.7676 52.207L65.1563 58.4707C65.4401 58.3598 65.6722 58.1466 65.8066 57.873L78.3945 32.418C78.4649 32.2755 78.4758 32.1109 78.4249 31.9604C78.374 31.8099 78.2654 31.6858 78.123 31.6152Z" fill="#EFC597"/>
<path d="M71.418 28.3009C71.3474 28.266 71.2707 28.2453 71.1922 28.2401C71.1137 28.2349 71.0349 28.2451 70.9603 28.2703C70.8858 28.2956 70.817 28.3352 70.7577 28.387C70.6985 28.4389 70.6501 28.5019 70.6152 28.5724L58.0273 54.0255C57.8935 54.2972 57.8643 54.6087 57.9453 54.9005L57.9707 54.8947L63.7676 52.2072L74.7285 29.9611L74.7383 29.9415L71.418 28.3009Z" fill="#FFD8B7"/>
<path d="M63.7676 52.207L65.1563 58.4707C64.997 58.5332 64.8265 58.5617 64.6556 58.5543C64.4847 58.5469 64.3173 58.5038 64.1641 58.4277L58.584 55.668C58.4295 55.5921 58.2928 55.4846 58.1828 55.3523C58.0727 55.22 57.9918 55.066 57.9453 54.9004L57.9707 54.8945L63.7676 52.207Z" fill="#D3AB84"/>
<path d="M83.4238 55.3418L55.0996 69.4844L60.998 81.2832L89.1816 66.2969L83.4238 55.3418Z" fill="#D19E88"/>
<path d="M27.3398 55.5957L27.3379 55.6016V84.4277L33.1973 87.2609L33.1988 58.5271L27.3398 55.5957Z" fill="#CCA596"/>
<path d="M26.7754 55.3418L21.0176 66.2969L49.2012 81.2832L55.0996 69.4844L26.7754 55.3418Z" fill="#C79A83"/>
<path d="M21.0176 66.2969L26.8809 69.4147L32.7756 58.3377L26.7754 55.3418L21.0176 66.2969Z" fill="#B58A78"/>
<path d="M48.0211 55.1929C47.8675 55.0107 47.6947 54.8456 47.5056 54.7007C45.5938 53.265 43.7835 51.6987 42.0879 50.0132L39.4531 47.3511C39.3433 47.2401 39.2124 47.1521 39.0681 47.0925C38.9239 47.0328 38.7691 47.0025 38.613 47.0034C38.4568 47.0044 38.3025 47.0365 38.1589 47.098C38.0154 47.1594 37.8856 47.2489 37.7771 47.3612C37.5411 47.6056 37.2808 47.8252 37.0002 48.0167C36.8711 48.1046 36.761 48.2175 36.6762 48.3486C36.5914 48.4797 36.5336 48.6265 36.5063 48.7802C36.479 48.934 36.4827 49.0916 36.5172 49.2439C36.5517 49.3962 36.6163 49.5401 36.7072 49.6671L38.7176 52.4759C40.1669 54.4599 41.4485 56.5612 42.5488 58.7581C42.6994 59.0651 42.8965 59.347 43.1332 59.5938C43.725 60.21 44.5332 60.5718 45.387 60.6028C46.2408 60.6339 47.0731 60.3316 47.7081 59.76C48.343 59.1884 48.7308 58.3923 48.7893 57.5399C48.8479 56.6876 48.5727 55.8459 48.0219 55.1929H48.0211Z" fill="#6D7486"/>
<path d="M34.2489 8.25957C33.9165 8.25926 33.5927 8.15348 33.3242 7.95744C33.0557 7.7614 32.8563 7.48523 32.7548 7.16866C32.6532 6.8521 32.6547 6.51147 32.7591 6.19582C32.8634 5.88017 33.0653 5.60577 33.3355 5.41213C33.6057 5.21848 33.9304 5.11557 34.2629 5.11821C34.5953 5.12086 34.9184 5.22892 35.1855 5.42684C35.4526 5.62476 35.65 5.90233 35.7494 6.2196C35.8487 6.53687 35.8448 6.87747 35.7382 7.19238V7.19336C35.6323 7.50427 35.4317 7.77425 35.1647 7.96546C34.8976 8.15666 34.5774 8.2595 34.2489 8.25957Z" fill="#EDB740"/>
</svg>
