<svg height="398pt" viewBox="0 0 398 398.05201" width="398pt" xmlns="http://www.w3.org/2000/svg"><path d="m54.921875 219.585938h288.207031v109.792968c0 22.738282-18.433594 41.171875-41.171875 41.171875h-205.863281c-22.738281 0-41.171875-18.433593-41.171875-41.171875zm0 0" fill="#f98c96"/><path d="m54.921875 260.757812v-27.449218h-54.8945312v96.070312h54.8945312v-27.449218h-27.449219v-41.171876zm0 0" fill="#e9686a"/><path d="m343.128906 260.757812v-27.449218h54.898438v96.070312h-54.898438v-27.449218h27.449219v-41.171876zm0 0" fill="#e9686a"/><path d="m130.40625 370.550781h137.238281v27.449219h-137.238281zm0 0" fill="#e9686a"/><path d="m308.820312 178.414062c-11.371093 0-20.585937 9.214844-20.585937 20.585938v-20.585938c0-15.160156-12.289063-27.449218-27.449219-27.449218s-27.449218 12.289062-27.449218 27.449218v-20.585937c0-26.527344-21.503907-48.035156-48.035157-48.035156-26.527343 0-48.035156 21.507812-48.035156 48.035156v27.449219c0-18.949219-15.359375-34.3125-34.308594-34.3125s-34.308593 15.363281-34.308593 34.3125v34.308594h260.757812v-20.585938c0-11.371094-9.21875-20.585938-20.585938-20.585938zm0 0" fill="#ffd782"/><g fill="#f98c96"><path d="m185.300781 185.277344h13.726563v13.722656h-13.726563zm0 0"/><path d="m157.851562 157.828125h13.726563v13.722656h-13.726563zm0 0"/><path d="m89.234375 185.277344h13.722656v13.722656h-13.722656zm0 0"/></g><path d="m77.09375 109.335938c.792969-.078126 1.566406-.1875 2.347656-.289063 2.097656-.265625 4.160156-.605469 6.1875-1.019531.691406-.140625 1.386719-.265625 2.066406-.425782 5.226563-1.199218 10.316407-2.933593 15.1875-5.179687.414063-.1875.8125-.394531 1.21875-.589844 2.128907-1.03125 4.175782-2.148437 6.140626-3.347656.226562-.136719.457031-.265625.679687-.40625 4.402344-2.746094 8.453125-6.019531 12.0625-9.75l.238281-.253906c1.722656-1.800781 3.320313-3.714844 4.789063-5.730469h242.566406c15.160156 0 27.449219-12.289062 27.449219-27.449219 0-15.15625-12.289063-27.445312-27.449219-27.445312h-242.566406c-1.464844-2.015625-3.066407-3.929688-4.785157-5.730469l-.238281-.253906c-3.609375-3.730469-7.660156-7.003906-12.0625-9.75-.222656-.140625-.457031-.269532-.679687-.40625-1.96875-1.203125-4.019532-2.320313-6.148438-3.351563-.402344-.195312-.800781-.394531-1.207031-.585937-4.875-2.246094-9.964844-3.980469-15.191406-5.183594-.683594-.15625-1.378907-.28125-2.070313-.421875-2.027344-.414063-4.089844-.753906-6.183594-1.019531-.785156-.101563-1.558593-.210938-2.351562-.289063-2.773438-.273437-5.582031-.457031-8.445312-.457031-37.898438 0-68.6210942 24.578125-68.6210942 54.898438 0 30.316406 30.7226562 54.894531 68.6210942 54.894531 2.863281 0 5.671874-.183594 8.445312-.457031zm0 0" fill="#cfdfe8"/><path d="m68.648438 89.207031c-26.035157 0-48.035157-15.714843-48.035157-34.308593.203125-7.453126 3.398438-14.511719 8.863281-19.582032 2.691407-2.671875 7.039063-2.65625 9.710938.03125 2.65625 2.675782 2.660156 6.992188.007812 9.671875-2.835937 2.539063-4.578124 6.078125-4.859374 9.878907 0 9.519531 14.992187 20.585937 34.3125 20.585937 1.695312-.011719 3.390624-.113281 5.078124-.304687l1.402344-.167969c1.230469-.160157 2.484375-.367188 3.578125-.582031l1.414063-.292969c2.855468-.65625 5.636718-1.601563 8.300781-2.824219l.636719-.320312c1.121094-.535157 2.214844-1.128907 3.277344-1.777344 2.222656-1.332032 4.253906-2.953125 6.050781-4.816406 2.625-2.738282 6.96875-2.828126 9.703125-.203126 2.730468 2.617188 2.828125 6.953126.214844 9.691407-2.484376 2.589843-5.277344 4.859375-8.324219 6.753906-.050781.035156-.535157.316406-.589844.351563-1.390625.84375-2.824219 1.621093-4.292969 2.324218l-.730468.367188c-3.628907 1.675781-7.421876 2.972656-11.320313 3.859375l-1.628906.34375c-1.445313.28125-3.007813.542969-4.589844.742187l-1.554687.191406c-2.199219.242188-4.414063.371094-6.625.386719zm0 0" fill="#5a6470"/></svg>