<svg width="512" height="512" viewBox="0 0 512 512" fill="none" xmlns="http://www.w3.org/2000/svg">
<g clip-path="url(#clip0_1211_671)">
<path d="M175.891 101.801C175.891 75.75 227.27 66.5586 227.27 46.6367C227.27 32.5273 225.734 18.418 236.273 8.12109C247.355 -2.70703 265.41 -2.70703 276.492 8.12109C287.031 18.418 285.496 32.5273 285.496 46.6367C285.496 66.5586 336.875 75.75 336.875 101.801L258.855 127.027" fill="#FFE785"/>
<path d="M256.379 0C253.789 0 251.195 2.70703 249.223 8.11719C245.473 18.4219 246.016 32.5273 246.016 46.6328C246.016 66.5586 227.73 75.7461 227.73 101.805H175.891C175.891 75.7461 227.27 66.5586 227.27 46.6328C227.27 32.5273 225.734 18.4219 236.277 8.11719C241.812 2.70703 249.098 0 256.379 0Z" fill="#F2A755"/>
<path d="M377.898 144.082V150.633H134.867V144.082C134.867 120.727 153.789 101.805 177.145 101.805H335.625C358.977 101.805 377.898 120.727 377.898 144.082Z" fill="#3598BA"/>
<path d="M377.895 144.082V150.633H180.797V144.082C180.797 120.727 199.73 101.805 223.086 101.805H335.621C358.973 101.805 377.895 120.727 377.895 144.082Z" fill="#61B4D8"/>
<path d="M405.777 196.68V460.027C405.777 488.73 382.508 512 353.805 512H158.973C130.27 512 107 488.73 107 460.027V196.68C107 167.969 130.27 144.699 158.973 144.699H353.805C382.508 144.699 405.777 167.969 405.777 196.68Z" fill="#93CAD8"/>
<path d="M405.777 196.68V460.027C405.777 488.73 382.508 512 353.805 512H220.246C191.543 512 168.273 488.73 168.273 460.027V196.68C168.273 167.969 191.543 144.699 220.246 144.699H353.805C382.508 144.699 405.777 167.969 405.777 196.68Z" fill="#C0E5F2"/>
<path d="M257.484 261.414C324.199 237.843 370.504 267.281 370.504 295.355L320.129 376.215L265.66 309.492L257.484 261.414Z" fill="#93CAD8"/>
<path d="M370.504 295.355V437.445C370.504 459.14 352.918 476.726 331.227 476.726H181.547C159.852 476.726 142.266 459.14 142.266 437.445V274.121C142.266 241.769 174.219 218.832 204.719 229.617C265.207 251.008 330.383 347.094 370.504 295.355Z" fill="white"/>
<path d="M228.52 420.672H184.086C179.758 420.672 176.25 417.164 176.25 412.836C176.25 408.508 179.758 405 184.086 405H228.52C232.848 405 236.355 408.508 236.355 412.836C236.355 417.164 232.848 420.672 228.52 420.672Z" fill="#93CAD8"/>
<path d="M228.52 322.023H184.086C179.758 322.023 176.25 318.516 176.25 314.188C176.25 309.859 179.758 306.348 184.086 306.348H228.52C232.848 306.348 236.355 309.859 236.355 314.188C236.355 318.516 232.848 322.023 228.52 322.023Z" fill="#93CAD8"/>
<path d="M228.52 223.375H184.086C179.758 223.375 176.25 219.863 176.25 215.535C176.25 211.207 179.758 207.699 184.086 207.699H228.52C232.848 207.699 236.355 211.207 236.355 215.535C236.355 219.863 232.848 223.375 228.52 223.375Z" fill="#93CAD8"/>
</g>
<defs>
<clipPath id="clip0_1211_671">
<rect width="512" height="512" fill="white"/>
</clipPath>
</defs>
</svg>
