<svg id="Layer_1" enable-background="new 0 0 497 497" height="512" viewBox="0 0 497 497" width="512" xmlns="http://www.w3.org/2000/svg"><g><path d="m195.789 0v42.066c0 15.627-12.686 28.295-28.334 28.295h-34.3l1.175 2.43-42.603 386.374 293.328-.697 67.745-116.47-64.253-271.637h-65.251c-15.649 0-28.334-12.668-28.334-28.295v-42.066" fill="#ffe5c9"/><g><path d="m217.794 133.645c-2.349 0-4.662-1.101-6.124-3.162l-6.25-8.812c-2.117-2.983-5.568-4.766-9.232-4.766h-24.844c-4.142 0-7.5-3.357-7.5-7.5s3.358-7.5 7.5-7.5h24.844c8.517 0 16.542 4.145 21.467 11.087l6.25 8.813c2.396 3.378 1.601 8.06-1.778 10.456-1.317.934-2.832 1.384-4.333 1.384z" fill="#ffbd75"/></g><g><path d="m412.393 349.826c-243.64 0-244.541-279.465-244.541-279.465h-34.698-28.285c-57.548 0-104.632 47.019-104.632 104.486v177.393c0 79.949 64.901 144.76 144.961 144.76h134.461c20.917 0 37.873-16.933 37.873-37.82 0-20.888-16.956-37.82-37.873-37.82h-128.225c-39.562 0-71.634-32.027-71.634-71.534v-158.822 159.528c0 39.004 31.663 70.623 70.721 70.623h266.659" fill="#ffbdf1"/><path d="m279.659 421.36h-128.225c-6.306 0-12.418-.821-18.244-2.349-30.678-7.719-53.39-35.447-53.39-68.478v-.706-105.469h-79.563v107.884c0 79.947 64.901 144.758 144.961 144.758h134.461c20.917 0 37.873-16.933 37.873-37.82 0-20.888-16.957-37.82-37.873-37.82z" fill="#ffe5c9"/><g><g><g><path d="m356.944 289.342c-4.367 4.14-8.568 8.082-12.634 11.847l-60.962 2.798c-5.361.729-9.925-3.879-9.138-9.224l8.359-51.682-33.581-5.922-15.325 83.577c-2.109 11.663 5.287 22.936 16.837 25.662l28.104 6.634c-23.657 13.749-46.924 20.473-78.801 24.187.914-4.101 41.791-115.794-32.24-119.979-46.21-2.612-99.173 102.87-99.173 102.87s-24.095-16.738-31.428-13.6 16.762 46.03 34.571 48.122 64.951-62.768 64.951-62.768-41.555 74.625 9.428 131.116c0 0 38.174 46.418 113.632 30.816 160.839-33.257 176.232-168.559 176.232-168.559z" fill="#8ce0ff"/><g fill="#73d9ff"><path d="m158.884 386.833c15.979-1.862 28.135-5.736 40.92-9.616 1.698-5.682 6.517-22.171 8.398-31.502 11.298-48.433-6.043-71.309-6.043-71.309-6.764-9.625-17.669-16.211-34.594-17.168-6.561-.371-13.258 1.442-19.921 4.818 45.615 22.149 12.056 121.117 11.24 124.777z"/><path d="m356.944 289.342c-4.367 4.14-8.568 8.082-12.634 11.847l-1.223.056 52.691 23.991s-15.393 135.302-176.232 168.559c-3.365.696-6.652 1.263-9.869 1.721 14.253 2.201 30.879 2.205 49.869-1.721 160.839-33.257 176.232-168.559 176.232-168.559z"/></g><path d="m248.989 237.158 3.625-18.643c1.765-8.502 9.736-14.254 18.373-13.259 9.914 1.142 16.65 10.614 14.464 20.338l-2.882 17.485z" fill="#ffd3a3"/></g></g><g><path d="m68.392 360.108s-24.095-16.738-31.428-13.6 16.681 46.89 34.571 48.122c5.696.392 10.477-3.96 18.081-9.281 7.262-5.082 22.889-23.389 22.889-23.389l-32.737-22.23c-2.707 4.011-11.376 20.378-11.376 20.378z" fill="#ffd3a3"/></g></g><path d="m412.393 232.008v117.817c0 39.507-32.072 71.534-71.634 71.534h-128.224c-20.917 0-37.873 16.933-37.873 37.82 0 20.887 16.956 37.82 37.873 37.82h134.461c80.06 0 144.961-64.811 144.961-144.759v-177.392c0-57.468-47.085-104.486-104.632-104.486h-42.079" fill="#ffe5c9"/><g><g><path d="m371.905 336.376-.084-.035c-41.703-17.443-61.35-65.408-43.865-107.094l11.483-27.377c17.46-41.628 65.343-61.24 106.988-43.822l.084.035c41.703 17.443 61.35 65.408 43.865 107.094l-11.483 27.377c-17.46 41.628-65.343 61.241-106.988 43.822z" fill="#ffd6ab"/><path d="m446.51 158.083-.083-.035c-15.275-6.389-31.385-7.778-46.53-4.944 5.562 1.045 11.099 2.672 16.53 4.944l.083.035c41.704 17.443 61.35 65.408 43.865 107.094l-11.483 27.377c-11.056 26.359-34.313 43.873-60.458 48.766 37.087 6.97 75.275-12.566 90.458-48.766l11.483-27.377c17.485-41.686-2.161-89.651-43.865-107.094z" fill="#ffcf9c"/><path d="m460.806 173.834c-4.691 11.184-16.754 14.809-27.903 10.146s-16.4-17.47-11.73-28.604c4.67-11.135 20.434-24.994 46.481-14.099 0 0-13.351 3.544-12.549 15.498.405 6.039 8.756 9.776 5.701 17.059z" fill="#fed23a"/></g><g><path d="m394.958 287.922c-9.183 0-17.968-5.281-21.969-14.176-1.699-3.777-.014-8.218 3.764-9.916 3.778-1.699 8.217-.015 9.917 3.764 2.043 4.543 7.409 6.577 11.961 4.535 2.203-.987 3.889-2.772 4.746-5.024.857-2.251.785-4.699-.203-6.896-2.042-4.542-7.409-6.578-11.961-4.535-3.779 1.693-8.217.004-9.912-3.774-1.695-3.779-.005-8.218 3.774-9.913 12.09-5.42 26.347-.007 31.779 12.07 2.633 5.855 2.825 12.385.541 18.384-2.283 5.998-6.767 10.748-12.627 13.376-3.186 1.428-6.524 2.105-9.81 2.105z" fill="#ffbd75"/></g></g></g><g><g><path d="m277.146 133.645c-1.5 0-3.016-.449-4.333-1.384-3.379-2.396-4.175-7.078-1.778-10.456l6.25-8.812c4.925-6.943 12.95-11.088 21.467-11.088h76.176c4.142 0 7.5 3.357 7.5 7.5s-3.358 7.5-7.5 7.5h-76.176c-3.664 0-7.115 1.782-9.232 4.767l-6.25 8.811c-1.462 2.061-3.775 3.162-6.124 3.162z" fill="#ffbd75"/></g></g></g></svg>