<svg width="512" height="512" viewBox="0 0 512 512" fill="none" xmlns="http://www.w3.org/2000/svg">
<path d="M409.468 218.179C406.016 218.179 403.219 215.381 403.219 211.93V196.291C403.219 192.84 406.016 190.042 409.468 190.042C412.92 190.042 415.717 192.84 415.717 196.291V211.93C415.717 215.381 412.92 218.179 409.468 218.179Z" fill="#FAA68E"/>
<path d="M404.476 328.99L404.162 365.622C403.977 387.227 386.144 404.491 364.585 403.084C345.104 401.814 329.725 385.476 329.894 365.714L331.728 151.746C331.961 124.489 310.513 101.539 283.262 100.91C255.568 100.272 232.715 122.494 232.478 150.102L232.322 168.3C232.322 168.322 232.341 168.34 232.363 168.341L244.779 168.448C244.801 168.448 244.819 168.43 244.82 168.407L244.97 150.937C245.155 129.332 262.987 112.069 284.547 113.475C304.027 114.746 319.407 131.084 319.237 150.846L317.404 364.814C317.17 392.07 338.619 415.021 365.868 415.649C393.564 416.287 416.417 394.067 416.653 366.458L416.973 329.097C416.973 329.075 416.955 329.056 416.933 329.055L404.517 328.949C404.495 328.949 404.477 328.966 404.476 328.99Z" fill="#B4AAAA"/>
<path d="M409.469 337.041C437.377 337.041 460.001 308.661 460.001 273.652C460.001 238.643 437.377 210.263 409.469 210.263C381.561 210.263 358.938 238.643 358.938 273.652C358.938 308.661 381.561 337.041 409.469 337.041Z" fill="#FFCDBE"/>
<path d="M409.469 210.263C405.154 210.263 400.968 210.945 396.971 212.221C418.834 219.199 435.005 244.055 435.005 273.652C435.005 303.249 418.833 328.105 396.971 335.083C400.968 336.359 405.154 337.041 409.469 337.041C437.377 337.041 460.001 308.661 460.001 273.652C460.001 238.643 437.377 210.263 409.469 210.263Z" fill="#EBAE9D"/>
<path d="M282.513 434.668L265.283 358.434C263.757 351.682 263.778 344.671 265.344 337.928L271.161 312.875C274.511 298.451 269.142 283.398 257.419 274.351C254.761 272.298 252.844 269.436 251.956 266.197L251.499 264.526H214.971H178.444L177.986 266.197C177.1 269.436 175.182 272.298 172.523 274.351C160.801 283.398 155.432 298.452 158.781 312.875L164.599 337.928C166.165 344.671 166.185 351.682 164.659 358.434L147.43 434.668C145.84 441.7 147.776 449.067 152.618 454.408C156.813 459.038 162.77 461.678 169.017 461.678H214.971H260.926C267.173 461.678 273.129 459.038 277.325 454.408C282.166 449.067 284.103 441.7 282.513 434.668Z" fill="#DDEBFD"/>
<path d="M282.514 434.668L265.284 358.434C263.758 351.682 263.779 344.671 265.345 337.928L271.163 312.875C274.512 298.451 269.143 283.398 257.421 274.351C254.762 272.298 252.845 269.436 251.957 266.197L251.5 264.526H226.504L226.961 266.197C227.848 269.436 229.766 272.298 232.425 274.351C244.147 283.398 249.516 298.452 246.167 312.875L240.349 337.928C238.784 344.671 238.763 351.682 240.288 358.434L257.518 434.668C259.108 441.7 257.171 449.067 252.33 454.408C248.135 459.038 242.178 461.678 235.931 461.678H260.927C267.174 461.678 273.131 459.038 277.326 454.408C282.167 449.067 284.104 441.7 282.514 434.668Z" fill="#BED9FD"/>
<path d="M242.181 224.676C241.577 218.411 236.314 213.63 230.02 213.63H214.971H199.921C193.628 213.63 188.364 218.411 187.76 224.676C187.422 228.184 185.585 231.375 182.723 233.43L174.055 239.65C171.675 241.358 170.264 244.108 170.264 247.038V255.433C170.264 260.455 174.335 264.526 179.356 264.526H214.971H250.587C255.608 264.526 259.679 260.455 259.679 255.433V247.038C259.679 244.108 258.268 241.358 255.888 239.65L247.22 233.43C244.356 231.376 242.52 228.185 242.181 224.676Z" fill="#736E6E"/>
<path d="M163.962 110.71C163.906 110.64 163.85 110.569 163.793 110.499C149.203 92.2631 137.032 72.1872 122.342 54.0318C121.178 52.5937 119.913 51.1056 118.171 50.479C105.928 46.0722 76.2131 135.673 72.7062 147.045C61.7429 182.599 54.7666 219.386 52.052 256.494C51.897 258.611 52.0003 261.206 53.8667 262.219C55.0357 262.854 56.4688 262.584 57.7644 262.279C80.7674 256.87 101.997 245.855 124.089 237.467C146.181 229.08 170.394 223.272 193.358 228.843C203.155 231.219 212.56 235.631 222.626 236.167C239.349 237.056 255.985 225.757 261.323 209.883C266.661 194.01 260.233 174.955 246.37 165.559C237.816 159.761 227.381 157.639 217.746 153.904C196.056 145.493 178.519 128.865 163.962 110.71Z" fill="#EBE1DC"/>
<path d="M246.369 165.559C237.816 159.762 227.38 157.639 217.745 153.904C196.055 145.493 178.519 128.865 163.962 110.711C163.906 110.641 163.85 110.57 163.793 110.5C149.203 92.264 137.032 72.1881 122.342 54.0327C121.178 52.5945 119.913 51.1065 118.172 50.4799C114.13 49.0251 108.182 57.8212 101.902 70.6625C114.62 87.2307 125.744 105.016 138.797 121.333C138.853 121.403 138.91 121.473 138.966 121.543C153.523 139.697 171.06 156.325 192.749 164.737C202.384 168.473 212.82 170.594 221.373 176.391C235.236 185.787 241.664 204.843 236.327 220.716C234.337 226.634 230.775 231.915 226.225 236.166C241.681 235.402 256.368 224.617 261.323 209.884C266.661 194.01 260.232 174.955 246.369 165.559Z" fill="#DCD2CD"/>
<path d="M222.874 326.404H203.009C199.558 326.404 196.76 323.606 196.76 320.155C196.76 316.704 199.558 313.906 203.009 313.906H222.874C226.325 313.906 229.123 316.704 229.123 320.155C229.123 323.606 226.325 326.404 222.874 326.404Z" fill="#80B6FC"/>
<path d="M222.874 355.947H203.009C199.558 355.947 196.76 353.149 196.76 349.698C196.76 346.247 199.558 343.449 203.009 343.449H222.874C226.325 343.449 229.123 346.247 229.123 349.698C229.123 353.149 226.325 355.947 222.874 355.947Z" fill="#80B6FC"/>
<path d="M222.874 385.489H203.009C199.558 385.489 196.76 382.691 196.76 379.24C196.76 375.789 199.558 372.991 203.009 372.991H222.874C226.325 372.991 229.123 375.789 229.123 379.24C229.123 382.691 226.325 385.489 222.874 385.489Z" fill="#80B6FC"/>
<path d="M222.874 415.032H203.009C199.558 415.032 196.76 412.234 196.76 408.783C196.76 405.332 199.558 402.534 203.009 402.534H222.874C226.325 402.534 229.123 405.332 229.123 408.783C229.123 412.234 226.325 415.032 222.874 415.032Z" fill="#80B6FC"/>
</svg>
