<svg width="512" height="512" viewBox="0 0 512 512" fill="none" xmlns="http://www.w3.org/2000/svg">
<path d="M441.742 101.061H418.605L412.333 108.215L406.236 101.061H340.045L256.001 117.318L171.958 101.061H105.766L98.9018 108.523L93.5733 101.061H62.1308C57.6411 101.061 54.002 104.7 54.002 109.189V132.015L71.3802 144.704L54.002 158.563V190.138L67.5698 202.902L54.002 216.688V249.127C54.002 253.369 57.2608 256.931 61.4917 257.229C72.7666 258.02 83.5522 260.584 93.5725 264.644C95.4875 265.419 99.1993 258.447 101.057 259.33C103.283 260.388 103.641 269.326 105.777 270.532C137.813 288.625 159.442 322.99 159.442 362.406C159.442 389.211 181.171 410.94 207.976 410.94H304.026C330.831 410.94 340.045 389.211 340.045 362.406C340.045 306.692 389.02 254.317 443.757 250.475C447.988 250.179 451.247 246.616 451.247 242.374L449.871 109.189C449.871 104.7 446.232 101.061 441.742 101.061Z" fill="#D8ECFE"/>
<path d="M449.873 101.061H425.487C429.976 101.061 433.616 104.7 433.616 109.189V233.683C433.616 237.924 430.357 241.487 426.126 241.784C371.388 245.626 328.176 301.298 328.176 362.407C328.176 389.212 306.447 410.941 279.643 410.941H304.028C330.833 410.941 352.562 389.212 352.562 362.407C352.562 322.991 374.191 288.625 406.227 270.532C408.314 269.353 410.162 259.597 412.335 258.561C414.207 257.667 416.393 265.473 418.324 264.688C428.375 260.603 439.197 258.023 450.513 257.23C454.743 256.933 458.002 253.37 458.002 249.128V216.688L449.091 203.019L458.002 190.138V158.176L447.166 144.858L458.002 132.015V109.189C458.002 104.7 454.362 101.061 449.873 101.061Z" fill="#B3DAFE"/>
<path d="M406.236 270.532C410.152 268.321 414.222 266.353 418.429 264.648V101.061H406.236V270.532Z" fill="#FE93BB"/>
<path d="M418.429 242.674C414.282 243.343 410.213 244.31 406.236 245.552V270.532C410.215 268.285 414.373 266.291 418.429 264.648V242.674Z" fill="#FE76A8"/>
<path d="M93.5723 264.648C97.7787 266.352 101.849 268.321 105.766 270.532V101.061H93.5723V264.648Z" fill="#FE93BB"/>
<path d="M331.915 183.337H180.086C175.596 183.337 171.957 179.698 171.957 175.208V101.061H340.045V175.209C340.044 179.698 336.405 183.337 331.915 183.337Z" fill="#B3DAFE"/>
<path d="M54.0039 132.015V158.563H116.96C119.205 158.563 121.024 156.744 121.024 154.499V136.079C121.024 133.834 119.205 132.015 116.96 132.015H54.0039Z" fill="#62DBFB"/>
<path d="M54.0039 190.138V216.687H116.96C119.205 216.687 121.024 214.867 121.024 212.622V194.203C121.024 191.958 119.205 190.138 116.96 190.138H54.0039Z" fill="#62DBFB"/>
<path d="M390.98 136.079V154.499C390.98 156.744 392.8 158.563 395.045 158.563H458.001V132.015H395.045C392.8 132.015 390.98 133.834 390.98 136.079Z" fill="#62DBFB"/>
<path d="M390.98 194.203V212.622C390.98 214.867 392.8 216.687 395.045 216.687H458.001V190.138H395.045C392.8 190.138 390.98 191.959 390.98 194.203Z" fill="#62DBFB"/>
<path d="M433.615 190.138H458.001V216.687H433.615V190.138Z" fill="#01C0FA"/>
<path d="M433.615 132.015H458.001V158.563H433.615V132.015Z" fill="#01C0FA"/>
</svg>
