<svg width="512" height="512" viewBox="0 0 512 512" fill="none" xmlns="http://www.w3.org/2000/svg">
<g clip-path="url(#clip0_1204_267)">
<path d="M441.95 83.145L425.809 83.3375L410.245 89.9509L405.872 100.439L401.022 114.466L396.218 115.811C396.218 115.811 392.952 113.698 384.497 112.737C376.042 111.776 369.317 110.046 365.858 111.968C364.146 112.919 357.074 118.526 350.166 124.135L400.382 174.418L404.03 173.904L405.879 172.407C415.249 164.828 419.027 152.307 415.454 140.797C414.67 138.271 413.928 135.578 413.294 132.786C411.796 126.18 416.233 119.557 422.968 118.825C429.481 118.115 435.784 115.041 440.487 109.6C445.296 104.036 447.433 96.9082 446.912 89.9509L441.95 83.145Z" fill="#FFEB7E"/>
<path d="M342.28 242.092C333.474 233.286 278.728 178.54 269.922 169.734C246.973 146.785 209.962 150.935 191.914 175.554L193.036 182.76L331.141 318.916L336.46 320.1C361.079 302.052 365.229 265.041 342.28 242.092Z" fill="#B5DCFF"/>
<path d="M342.279 242.092C334.207 234.02 287.541 187.354 273.034 172.846L257.866 169.76L240.188 173.516L215.337 185.434L205.943 195.485L331.14 318.915L336.459 320.099C361.078 302.052 365.228 265.041 342.279 242.092Z" fill="#B5DCFF"/>
<path d="M211.962 197.581C227.246 176.733 254.817 169.148 278.302 178.113C274.428 174.238 271.466 171.277 269.922 169.733C246.973 146.784 209.962 150.934 191.914 175.553L193.036 182.759L212.668 202.114L211.962 197.581Z" fill="#8BCAFF"/>
<path d="M384.538 117.853C387.065 118.637 389.758 119.379 392.552 120.013C399.196 121.52 405.759 117.013 406.521 110.242C407.181 104.38 409.758 98.693 414.254 94.197C423.108 85.3431 436.579 83.9323 446.911 89.9495C446.49 84.3307 444.337 78.8223 440.443 74.3375C430.063 62.3836 411.934 61.9061 400.934 72.905C396.438 77.4009 393.862 83.0877 393.201 88.9497C392.439 95.7198 385.875 100.228 379.232 98.7206C376.438 98.0871 373.745 97.344 371.218 96.5606C359.708 92.9876 347.187 96.7658 339.608 106.135L338.111 107.985V112.063L353.173 127.145C360.775 117.989 373.148 114.317 384.538 117.853Z" fill="#FFE02F"/>
<path d="M403.022 172.808L355.203 124.988L348.375 124.201L336.461 127.146L325.777 138.575L394.392 206.987L398.062 205.159L403.022 200.199C410.554 192.666 410.554 180.34 403.022 172.808Z" fill="#FFF1AF"/>
<path d="M329.255 137.23L334.735 131.75C340.703 125.782 349.393 124.095 356.902 126.687L339.207 108.992C331.674 101.46 319.348 101.46 311.815 108.992L306.855 113.952V119.708L329.255 142.042V137.23Z" fill="#FFEB7E"/>
<path d="M208.795 192.436L204.61 196.914L188.949 231.479L173.576 254.354L138.897 279.718L102.223 289.902L84.1613 304.506L74.3613 332.944L78.0418 341.862C78.4305 342.277 78.8282 342.688 79.2348 343.096C81.1776 345.039 166.976 430.837 168.919 432.78C194.932 458.793 239.305 447.479 249.687 412.187L255.196 393.462C263.304 365.899 283.488 343.508 310.064 332.592L325.401 326.291C329.45 324.628 333.139 322.535 336.459 320.1L208.795 192.436Z" fill="#DBEDFF"/>
<path d="M115.038 288.275L135.013 282.399C164.417 273.749 188.304 252.217 199.949 223.866L206.669 207.505C208.328 203.467 210.401 199.78 212.784 196.421L191.916 175.554C189.482 178.874 187.388 182.563 185.725 186.612L179.425 201.948C168.51 228.525 146.118 248.708 118.554 256.817L99.8303 262.325C65.09 272.545 53.5837 315.701 78.0444 341.86C76.3597 318.91 90.0707 295.62 115.038 288.275Z" fill="#B5DCFF"/>
<path d="M401.241 208.339L327.829 134.927L324.993 134.45L316.305 136.884L283.232 168.525L281.311 176.614V181.223L354.834 254.747C361.013 260.925 371.128 260.92 377.313 254.734L401.23 230.817C407.415 224.633 407.42 214.517 401.241 208.339Z" fill="#FF72C7"/>
<path d="M287.703 167.028L313.524 141.206C317.857 136.873 323.973 135.368 329.558 136.654L303.676 110.772C297.498 104.594 287.383 104.599 281.198 110.784L257.281 134.701C251.096 140.886 251.09 151.002 257.269 157.18L283.151 183.062C281.864 177.477 283.37 171.361 287.703 167.028Z" fill="#FF4FB9"/>
<path d="M283.88 157.519C282.405 157.519 280.929 156.955 279.804 155.83C277.552 153.579 277.552 149.929 279.804 147.678L294.224 133.257C296.475 131.006 300.125 131.006 302.376 133.257C304.628 135.508 304.628 139.158 302.376 141.41L287.957 155.83C286.831 156.956 285.355 157.519 283.88 157.519Z" fill="#FF94D5"/>
<path d="M302.976 176.614C301.501 176.614 300.025 176.051 298.9 174.926C296.648 172.675 296.648 169.025 298.9 166.773L313.32 152.353C315.571 150.102 319.221 150.102 321.473 152.353C323.725 154.604 323.725 158.254 321.473 160.505L307.052 174.926C305.926 176.051 304.451 176.614 302.976 176.614Z" fill="#FF94D5"/>
<path d="M322.069 195.709C320.594 195.709 319.119 195.147 317.993 194.021C315.742 191.769 315.742 188.12 317.993 185.868L332.414 171.449C334.666 169.197 338.316 169.197 340.567 171.449C342.818 173.7 342.818 177.349 340.567 179.601L326.146 194.021C325.02 195.146 323.544 195.709 322.069 195.709Z" fill="#FF94D5"/>
<path d="M341.165 214.804C339.69 214.804 338.214 214.24 337.089 213.115C334.837 210.864 334.837 207.214 337.089 204.963L351.51 190.542C353.761 188.291 357.411 188.291 359.662 190.542C361.914 192.793 361.914 196.443 359.662 198.695L345.242 213.115C344.115 214.241 342.64 214.804 341.165 214.804Z" fill="#FF94D5"/>
<path d="M360.261 233.899C358.786 233.899 357.31 233.336 356.185 232.211C353.933 229.96 353.933 226.31 356.185 224.058L370.605 209.638C372.856 207.387 376.505 207.387 378.757 209.638C381.009 211.889 381.009 215.539 378.757 217.79L364.337 232.211C363.212 233.336 361.737 233.899 360.261 233.899Z" fill="#FF94D5"/>
<path d="M147.072 335.255L132.652 320.835C130.4 318.584 130.4 314.934 132.652 312.682C134.903 310.431 138.553 310.431 140.804 312.682L155.225 327.103C157.476 329.354 157.476 333.004 155.225 335.255C152.973 337.507 149.324 337.506 147.072 335.255Z" fill="#8BCAFF"/>
<path d="M171.623 310.707L157.202 296.286C154.951 294.035 154.951 290.385 157.202 288.134C159.453 285.883 163.103 285.883 165.355 288.134L179.776 302.554C182.027 304.805 182.027 308.455 179.776 310.707C177.524 312.958 173.874 312.958 171.623 310.707Z" fill="#8BCAFF"/>
<path d="M196.17 286.157L181.749 271.737C179.498 269.486 179.498 265.836 181.749 263.584C184 261.333 187.65 261.333 189.902 263.584L204.322 278.005C206.574 280.256 206.574 283.906 204.322 286.157C202.071 288.409 198.421 288.408 196.17 286.157Z" fill="#8BCAFF"/>
<path d="M220.721 261.608L206.3 247.188C204.048 244.937 204.048 241.287 206.3 239.035C208.551 236.784 212.201 236.784 214.453 239.035L228.873 253.456C231.125 255.707 231.125 259.357 228.873 261.608C226.621 263.86 222.972 263.859 220.721 261.608Z" fill="#8BCAFF"/>
</g>
<defs>
<clipPath id="clip0_1204_267">
<rect width="382" height="382" fill="white" transform="translate(65 65)"/>
</clipPath>
</defs>
</svg>
