<svg id="Capa_1" enable-background="new 0 0 512 512" height="512" viewBox="0 0 512 512" width="512" xmlns="http://www.w3.org/2000/svg"><g><path d="m505.23 24.32-21.634.258-20.861 8.864-5.861 14.058-6.501 18.8-6.439 1.803s-4.378-2.833-15.71-4.121-20.346-3.606-24.982-1.03c-2.294 1.274-11.773 8.789-21.032 16.307l67.305 67.395 4.889-.689 2.479-2.006c12.558-10.158 17.623-26.94 12.833-42.367-1.05-3.386-2.045-6.995-2.894-10.738-2.009-8.854 3.939-17.73 12.965-18.712 8.73-.951 17.178-5.071 23.481-12.364 6.446-7.458 9.31-17.011 8.612-26.336z" fill="#ffeb7e"/><path d="m371.642 237.359c-11.803-11.803-85.18-85.18-96.983-96.983-30.759-30.759-80.365-25.196-104.555 7.801l1.504 9.658 185.104 182.492 7.129 1.587c32.997-24.19 38.56-73.796 7.801-104.555z" fill="#b5dcff"/><path d="m371.642 237.359c-10.819-10.819-73.367-73.366-92.811-92.811l-20.329-4.137-23.694 5.034-33.309 15.974-12.59 13.472 167.803 165.435 7.129 1.587c32.997-24.189 38.56-73.795 7.801-104.554z" fill="#b5dcff"/><path d="m196.975 177.7c20.485-27.943 57.439-38.109 88.916-26.093-5.193-5.193-9.162-9.162-11.232-11.232-30.759-30.759-80.365-25.196-104.555 7.801l1.504 9.658 26.313 25.942z" fill="#8bcaff"/><path d="m428.279 70.839c3.387 1.051 6.997 2.046 10.741 2.895 8.905 2.02 17.702-4.021 18.724-13.096.884-7.857 4.338-15.479 10.364-21.505 11.867-11.867 29.922-13.758 43.771-5.693-.564-7.531-3.45-14.914-8.669-20.925-13.913-16.022-38.212-16.662-52.955-1.92-6.026 6.026-9.479 13.648-10.364 21.505-1.022 9.074-9.819 15.116-18.724 13.096-3.744-.849-7.354-1.845-10.741-2.895-15.427-4.789-32.209.275-42.367 12.833l-2.006 2.479v5.466l20.188 20.215c10.189-12.272 26.772-17.194 42.038-12.455z" fill="#ffe02f"/><path d="m453.055 144.496-64.093-64.093-9.151-1.055-15.969 3.947-14.319 15.318 91.965 91.694 4.919-2.45 6.648-6.648c10.096-10.096 10.096-26.617 0-36.713z" fill="#fff1af"/><path d="m354.183 96.811 7.345-7.345c7.999-7.999 19.647-10.26 29.711-6.786l-23.717-23.717c-10.096-10.096-26.617-10.096-36.713 0l-6.648 6.648v7.715l30.022 29.934z" fill="#ffeb7e"/><path d="m192.73 170.803-5.609 6.003-20.991 46.327-20.604 30.66-46.481 33.996-49.154 13.65-24.209 19.573-13.135 38.117 4.933 11.952c.521.557 1.054 1.108 1.599 1.654 2.604 2.604 117.601 117.601 120.205 120.205 34.866 34.866 94.339 19.702 108.255-27.601l7.383-25.097c10.868-36.944 37.92-66.955 73.541-81.586l20.556-8.444c5.427-2.229 10.371-5.035 14.821-8.298z" fill="#dbedff"/><path d="m67.065 299.259 26.773-7.876c39.41-11.594 71.426-40.453 87.034-78.452l9.008-21.929c2.223-5.412 5.002-10.354 8.195-14.856l-27.969-27.969c-3.263 4.45-6.069 9.394-8.298 14.821l-8.444 20.556c-14.63 35.621-44.642 62.673-81.586 73.541l-25.096 7.383c-46.563 13.698-61.985 71.54-29.2 106.601-2.258-30.76 16.119-61.976 49.583-71.82z" fill="#b5dcff"/><path d="m450.668 192.119-98.395-98.395-3.802-.639-11.644 3.262-44.329 42.409-2.575 10.842v6.177l98.545 98.545c8.281 8.281 21.839 8.274 30.129-.017l32.056-32.056c8.289-8.289 8.296-21.847.015-30.128z" fill="#ff72c7"/><path d="m298.489 136.749 34.609-34.609c5.808-5.808 14.005-7.825 21.491-6.101l-34.69-34.69c-8.281-8.281-21.838-8.274-30.128.016l-32.056 32.056c-8.29 8.29-8.298 21.848-.017 30.129l34.69 34.69c-1.724-7.486.294-15.683 6.101-21.491z" fill="#ff4fb9"/><g><path d="m293.367 124.004c-1.977 0-3.955-.755-5.463-2.263-3.018-3.017-3.018-7.909 0-10.927l19.327-19.328c3.017-3.017 7.909-3.017 10.927 0s3.018 7.909 0 10.927l-19.327 19.328c-1.509 1.509-3.487 2.263-5.464 2.263z" fill="#ff94d5"/></g><g><path d="m318.96 149.598c-1.977 0-3.955-.755-5.463-2.263-3.018-3.017-3.018-7.909 0-10.927l19.328-19.328c3.017-3.017 7.909-3.017 10.927 0s3.018 7.909 0 10.927l-19.328 19.328c-1.509 1.508-3.487 2.263-5.464 2.263z" fill="#ff94d5"/></g><g><path d="m344.553 175.191c-1.977 0-3.955-.754-5.463-2.263-3.018-3.018-3.018-7.909 0-10.927l19.328-19.327c3.018-3.018 7.91-3.018 10.927 0 3.018 3.018 3.018 7.909 0 10.927l-19.328 19.327c-1.509 1.508-3.487 2.263-5.464 2.263z" fill="#ff94d5"/></g><g><path d="m370.147 200.784c-1.977 0-3.955-.755-5.463-2.263-3.018-3.017-3.018-7.909 0-10.927l19.328-19.328c3.017-3.017 7.909-3.017 10.927 0s3.018 7.909 0 10.927l-19.328 19.328c-1.51 1.509-3.487 2.263-5.464 2.263z" fill="#ff94d5"/></g><g><path d="m395.74 226.378c-1.977 0-3.955-.755-5.463-2.263-3.018-3.017-3.018-7.909 0-10.927l19.327-19.328c3.017-3.017 7.909-3.017 10.927 0s3.018 7.909 0 10.927l-19.327 19.328c-1.509 1.508-3.486 2.263-5.464 2.263z" fill="#ff94d5"/></g><g><path d="m110.002 362.227-19.328-19.328c-3.018-3.017-3.018-7.909 0-10.927 3.017-3.017 7.909-3.017 10.927 0l19.328 19.328c3.018 3.017 3.018 7.909 0 10.927s-7.909 3.017-10.927 0z" fill="#8bcaff"/></g><g><path d="m142.906 329.324-19.328-19.328c-3.018-3.017-3.018-7.909 0-10.927 3.017-3.017 7.909-3.017 10.927 0l19.328 19.328c3.018 3.017 3.018 7.909 0 10.927-3.018 3.017-7.91 3.017-10.927 0z" fill="#8bcaff"/></g><g><path d="m175.809 296.42-19.328-19.328c-3.018-3.017-3.018-7.909 0-10.927 3.017-3.017 7.909-3.017 10.927 0l19.328 19.328c3.018 3.017 3.018 7.909 0 10.927s-7.91 3.017-10.927 0z" fill="#8bcaff"/></g><g><path d="m208.712 263.517-19.328-19.328c-3.018-3.017-3.018-7.909 0-10.927 3.017-3.017 7.909-3.017 10.927 0l19.328 19.328c3.018 3.017 3.018 7.909 0 10.926-3.018 3.019-7.91 3.018-10.927.001z" fill="#8bcaff"/></g></g></svg>