<svg width="512" height="512" viewBox="0 0 512 512" fill="none" xmlns="http://www.w3.org/2000/svg">
<g clip-path="url(#clip0_1211_679)">
<path d="M487.759 323.367C455.437 355.689 403.032 355.689 370.71 323.367L287.289 239.026L302.004 136.692L404.338 121.977L487.759 206.318C520.081 238.64 520.081 291.044 487.759 323.367Z" fill="#D4CFC2"/>
<path d="M287.287 239.026L188.632 141.291C156.31 108.969 156.31 56.5645 188.632 24.2425C220.954 -8.07952 273.359 -8.07952 305.681 24.2425L404.336 121.977L287.287 239.026Z" fill="#F05467"/>
<path d="M350.432 175.882L251.777 78.147C251.212 77.582 250.641 77.027 250.064 76.482C214.284 42.676 261.921 -12.562 299.799 18.877C301.813 20.549 303.777 22.336 305.682 24.242L404.337 121.978L350.432 175.882Z" fill="#BD445A"/>
<path d="M487.763 206.318C520.085 238.64 520.085 291.045 487.763 323.367C478.04 333.09 466.493 339.866 454.23 343.739C463.233 315.233 456.458 282.821 433.859 260.223L350.438 175.882L404.342 121.977L487.763 206.318Z" fill="#B2AEA6"/>
<path d="M24.2415 487.759C-8.0805 455.437 -8.0805 403.032 24.2415 370.71L108.583 287.289L210.917 302.004L225.632 404.338L141.29 487.759C108.969 520.08 56.5645 520.08 24.2415 487.759Z" fill="#F1EBDE"/>
<path d="M108.578 287.288L206.313 188.633C238.635 156.311 291.04 156.311 323.362 188.633C355.684 220.955 355.684 273.36 323.362 305.682L225.627 404.337L108.578 287.288Z" fill="#FF6473"/>
<path d="M171.727 350.432L269.462 251.777C292.061 229.178 298.838 196.766 289.834 168.261C302.098 172.134 313.645 178.91 323.367 188.634C355.689 220.956 355.689 273.361 323.367 305.683L225.631 404.338L171.727 350.432Z" fill="#F05467"/>
<path d="M141.288 487.759C108.966 520.081 56.5612 520.081 24.2392 487.759C14.5162 478.036 7.74019 466.49 3.86719 454.227C32.3732 463.23 64.7852 456.454 87.3832 433.855L171.724 350.434L225.629 404.339L141.288 487.759Z" fill="#D4CFC2"/>
</g>
<defs>
<clipPath id="clip0_1211_679">
<rect width="512" height="512" fill="white"/>
</clipPath>
</defs>
</svg>
