<svg width="512" height="512" viewBox="0 0 512 512" fill="none" xmlns="http://www.w3.org/2000/svg">
<g clip-path="url(#clip0_1211_659)">
<path d="M478.399 199.806L495.389 192.377C496.791 191.758 496.791 189.755 495.389 189.136L478.399 181.706C477.999 181.524 477.671 181.196 477.489 180.796L470.06 163.806C469.44 162.404 467.437 162.404 466.818 163.806L459.389 180.796C459.207 181.196 458.879 181.524 458.478 181.706L441.489 189.136C440.087 189.755 440.087 191.758 441.489 192.377L458.478 199.806C458.879 199.988 459.207 200.316 459.389 200.717L466.818 217.706C467.437 219.108 469.44 219.108 470.06 217.706L477.489 200.717C477.653 200.298 477.981 199.988 478.399 199.806Z" fill="#A55E55"/>
<path d="M396.32 119.431C399.236 119.431 401.6 117.066 401.6 114.15C401.6 111.233 399.236 108.869 396.32 108.869C393.403 108.869 391.039 111.233 391.039 114.15C391.039 117.066 393.403 119.431 396.32 119.431Z" fill="#934D48"/>
<path d="M95.4742 91.1877L105.835 86.6535C106.691 86.2711 106.691 85.0511 105.835 84.6869L95.4742 80.1528C95.2193 80.0435 95.0189 79.8432 94.9279 79.6065L90.3938 69.2454C90.0114 68.3896 88.7914 68.3896 88.4272 69.2454L83.893 79.6065C83.7838 79.8615 83.5835 80.0618 83.3467 80.1528L72.9856 84.6869C72.1298 85.0693 72.1298 86.2893 72.9856 86.6535L83.3467 91.1877C83.6017 91.2969 83.802 91.4972 83.893 91.7339L88.4272 102.095C88.8096 102.951 90.0296 102.951 90.3938 102.095L94.9279 91.7522C95.0372 91.4972 95.2375 91.2969 95.4742 91.1877Z" fill="#A55E55"/>
<path d="M48.2561 176.28C55.7283 176.28 61.7857 170.222 61.7857 162.75C61.7857 155.278 55.7283 149.221 48.2561 149.221C40.7839 149.221 34.7266 155.278 34.7266 162.75C34.7266 170.222 40.7839 176.28 48.2561 176.28Z" fill="#934D48"/>
<path d="M319.195 142.903H264.202C238.964 142.903 218.078 123.237 216.567 98.035C216.039 89.3127 207.189 83.5767 198.922 86.3992C128.288 110.49 136.919 195.582 136.919 195.582C136.919 224.681 160.5 248.262 189.599 248.262H322.217C353.1 248.262 377.774 221.676 374.624 190.156C371.856 162.715 346.745 142.903 319.195 142.903Z" fill="#A55E55"/>
<path d="M374.66 190.082C377.756 221.584 353.173 248.17 322.217 248.17H285.799C316.755 248.17 341.337 221.584 338.242 190.082C335.51 162.768 310.381 142.92 282.703 142.92H319.122C346.8 142.92 371.929 162.768 374.66 190.082Z" fill="#934D48"/>
<path d="M385.616 351.673H126.242C90.6431 351.673 61.7812 322.811 61.7812 287.212C61.7812 251.613 90.6431 222.751 126.242 222.751H385.598C421.198 222.751 450.059 251.613 450.059 287.212C450.059 322.811 421.216 351.673 385.616 351.673Z" fill="#A55E55"/>
<path d="M450.043 287.139C450.043 304.984 442.76 321.19 431.106 332.844C419.452 344.498 403.427 351.6 385.582 351.6H343.883C361.546 351.6 377.752 344.498 389.406 332.844C401.06 321.19 408.344 304.984 408.344 287.139C408.344 251.631 379.391 222.678 343.883 222.678H385.582C421.273 222.678 450.043 251.631 450.043 287.139Z" fill="#934D48"/>
<path d="M198.838 115.607C196.708 112.475 192.465 111.656 189.351 113.787C178.881 120.888 170.778 130.922 165.26 143.613C163.749 147.073 165.333 151.097 168.793 152.591C169.667 152.973 170.595 153.155 171.506 153.155C174.146 153.155 176.659 151.626 177.77 149.04C182.249 138.77 188.714 130.703 196.999 125.095C200.149 122.964 200.95 118.721 198.838 115.607Z" fill="#C1827E"/>
<path d="M165.763 164.353C161.957 163.807 158.588 166.466 158.097 170.217C157.55 174.223 157.277 177.938 157.132 181.142C156.968 184.912 159.881 188.098 163.651 188.262H163.96C167.584 188.262 170.607 185.403 170.77 181.743C170.898 178.884 171.153 175.589 171.626 172.02C172.118 168.287 169.496 164.845 165.763 164.353Z" fill="#C1827E"/>
<path d="M126.241 243.237C109.725 243.237 94.739 252.378 87.1457 267.11C85.4158 270.46 86.7269 274.576 90.0774 276.305C91.0789 276.834 92.1533 277.07 93.1912 277.07C95.6677 277.07 98.0531 275.723 99.2549 273.374C104.517 263.213 114.842 256.894 126.223 256.894C129.992 256.894 133.051 253.835 133.051 250.066C133.051 246.296 130.011 243.237 126.241 243.237Z" fill="#C1827E"/>
<path d="M452.246 443.412H59.6159C27.2397 443.412 1 417.154 1 384.796C1 352.419 27.2397 326.18 59.6159 326.18H452.264C484.64 326.18 510.88 352.419 510.88 384.796C510.862 417.154 484.622 443.412 452.246 443.412Z" fill="#A55E55"/>
<path d="M510.864 384.741C510.864 400.947 504.309 415.514 493.747 426.258C483.186 436.819 468.436 443.375 452.23 443.375H378.664C394.87 443.375 409.62 436.819 420.181 426.258C430.743 415.514 437.298 400.947 437.298 384.741C437.298 352.51 411.077 326.106 378.664 326.106H452.23C484.643 326.106 510.864 352.51 510.864 384.741Z" fill="#934D48"/>
</g>
<defs>
<clipPath id="clip0_1211_659">
<rect width="511" height="375.568" fill="white" transform="translate(1 68.2158)"/>
</clipPath>
</defs>
</svg>
