<?xml version="1.0" encoding="iso-8859-1"?>
<!-- Generator: Adobe Illustrator 18.0.0, SVG Export Plug-In . SVG Version: 6.00 Build 0)  -->
<!DOCTYPE svg PUBLIC "-//W3C//DTD SVG 1.1//EN" "http://www.w3.org/Graphics/SVG/1.1/DTD/svg11.dtd">
<svg version="1.1" id="Capa_1" xmlns="http://www.w3.org/2000/svg" xmlns:xlink="http://www.w3.org/1999/xlink" x="0px" y="0px"
	 viewBox="0 0 53 53" style="enable-background:new 0 0 53 53;" xml:space="preserve">
<g>
	<path style="fill:#A4E869;" d="M25.718,25.371c3.162,1.112,19.617,7.252,25.437,16.56c5.081,8.124-1.101,14.306-9.225,9.225
		c-9.308-5.821-15.448-22.275-16.56-25.437C25.277,25.452,25.452,25.277,25.718,25.371z"/>
	<path style="fill:#FFFFFF;" d="M47.299,47.299c-0.436,0.436-1.702,1.291-4.049-0.177c-3.519-2.2-7.204-7.876-10.066-13.86
		c-0.03-0.062,0.016-0.107,0.078-0.078c5.985,2.862,11.659,6.547,13.86,10.065C48.589,45.596,47.734,46.863,47.299,47.299z"/>
	<circle style="fill:#26B99A;" cx="16" cy="16" r="16"/>
	<path style="fill:#A4E869;" d="M5.436,27.992c1.529,1.349,3.249,2.356,5.071,3.021c4.028-1.491,9.068-4.446,12.564-7.942
		s6.451-8.536,7.942-12.564c-0.665-1.822-1.672-3.542-3.021-5.071c-1.155,4.296-4.504,10.147-8.456,14.099
		S9.732,26.836,5.436,27.992z"/>
	<polygon style="fill:#A4E869;" points="14.813,6.813 17.411,7.694 19.609,6.053 19.574,8.796 21.814,10.38 19.195,11.195 
		18.38,13.814 16.796,11.574 14.053,11.609 15.694,9.411 	"/>
	<polygon style="fill:#A4E869;" points="4.813,13.256 7.411,14.137 9.609,12.496 9.574,15.24 11.814,16.824 9.195,17.638 
		8.38,20.258 6.796,18.018 4.053,18.053 5.694,15.854 	"/>
</g>
<g>
</g>
<g>
</g>
<g>
</g>
<g>
</g>
<g>
</g>
<g>
</g>
<g>
</g>
<g>
</g>
<g>
</g>
<g>
</g>
<g>
</g>
<g>
</g>
<g>
</g>
<g>
</g>
<g>
</g>
</svg>
