<svg width="512" height="512" viewBox="0 0 512 512" fill="none" xmlns="http://www.w3.org/2000/svg">
<path d="M256 0C173.295 0 106 68.295 106 151V211C106 293.705 173.295 361 256 361C338.705 361 406 293.705 406 211V151C406 68.295 338.705 0 256 0Z" fill="#FFD9B3"/>
<path d="M406 211V151C406 68.295 338.705 0 256 0V361C338.705 361 406 293.705 406 211Z" fill="#FFBB99"/>
<path d="M286 226H256H226C201.147 226 181 246.147 181 271C181 295.853 201.147 316 226 316H256H286C310.853 316 331 295.853 331 271C331 246.147 310.853 226 286 226Z" fill="#FF7F40"/>
<path d="M331 271C331 246.147 310.853 226 286 226H256V316H286C310.853 316 331 295.853 331 271Z" fill="#F25A3C"/>
<path d="M172.709 209.418L159.291 182.582L200.673 161.884L185.395 146.605L206.605 125.395L251.327 170.116L172.709 209.418Z" fill="#353D4D"/>
<path d="M339.29 209.418L260.672 170.116L305.394 125.395L326.604 146.605L311.326 161.884L352.708 182.582L339.29 209.418Z" fill="#1E2533"/>
<path d="M425.312 356.616L446.52 335.408L476.516 365.404L455.308 386.611L425.312 356.616Z" fill="#F25A3C"/>
<path d="M35.3535 365.362L65.3487 335.367L86.5566 356.575L56.5614 386.57L35.3535 365.362Z" fill="#FF7F40"/>
<path d="M436 451H406C406 434.462 392.538 421 376 421H316V331C316 297.909 289.091 271 256 271C222.909 271 196 297.909 196 331V391L226 406L196 421C166.553 421 134.196 421 136 421C119.462 421 106 434.462 106 451H76C59.462 451 46 464.462 46 481C46 497.538 59.462 512 76 512H256H436C452.538 512 466 497.538 466 481C466 464.462 452.538 451 436 451Z" fill="#FAFAE0"/>
<path d="M466 481C466 464.462 452.538 451 436 451H406C406 434.462 392.538 421 376 421H316V331C316 297.909 289.091 271 256 271V512H436C452.538 512 466 497.538 466 481Z" fill="#EFEBC8"/>
<path d="M196 391H241V421H196V391Z" fill="#EFEBC8"/>
</svg>
