<svg width="472" height="512" viewBox="0 0 472 512" fill="none" xmlns="http://www.w3.org/2000/svg">
<path d="M250.123 14.3154V60.1248C250.123 68.0269 243.71 74.4402 235.808 74.4402C227.906 74.4402 221.492 68.0269 221.492 60.1248V14.3154C221.492 6.41331 227.906 0 235.808 0C243.71 0 250.123 6.41331 250.123 14.3154Z" fill="#535E7E"/>
<path d="M250.128 14.3154V60.1248C250.128 68.0269 243.715 74.4402 235.812 74.4402V0C243.715 0 250.128 6.41331 250.128 14.3154Z" fill="#424765"/>
<path d="M426.43 191.387C415.712 152.096 392.779 116.622 361.037 90.5777C325.869 61.7083 281.386 45.8086 235.806 45.8086C190.225 45.8086 145.742 61.7083 110.574 90.5777C78.8321 116.622 55.8988 152.096 45.1813 191.387C19.7189 194.994 0.078125 216.926 0.078125 243.362C0.078125 269.797 19.7189 291.729 45.1813 295.336C55.8988 334.627 78.8321 370.101 110.574 396.145C145.742 425.015 190.225 440.915 235.806 440.915C281.386 440.915 325.869 425.015 361.037 396.145C392.779 370.101 415.712 334.627 426.43 295.336C451.892 291.729 471.533 269.797 471.533 243.362C471.533 216.926 451.892 194.994 426.43 191.387Z" fill="#F2CDBE"/>
<path d="M471.54 243.362C471.54 269.797 451.899 291.729 426.437 295.336C415.719 334.627 392.786 370.101 361.044 396.145C325.876 425.015 281.393 440.915 235.812 440.915V45.8086C281.393 45.8086 325.876 61.7083 361.044 90.5777C392.786 116.622 415.719 152.096 426.437 191.387C451.899 194.994 471.54 216.926 471.54 243.362Z" fill="#EFBEAA"/>
<path d="M235.797 251.952C185.808 251.952 145.133 292.627 145.133 342.617V343.571C145.133 359.356 157.979 372.202 173.764 372.202H297.831C313.616 372.202 326.462 359.356 326.462 343.571V342.617C326.462 292.627 285.787 251.952 235.797 251.952Z" fill="#E19480"/>
<path d="M326.477 342.617V343.571C326.477 359.356 313.631 372.202 297.846 372.202H235.812V251.952C285.802 251.952 326.477 292.627 326.477 342.617Z" fill="#D37F6C"/>
<path d="M250.123 327.347V372.202H221.492V327.347C221.492 319.445 227.906 313.031 235.808 313.031C243.71 313.031 250.123 319.445 250.123 327.347Z" fill="#CF5C8F"/>
<path d="M250.128 327.347V372.202H235.812V313.031C243.715 313.031 250.128 319.445 250.128 327.347Z" fill="#C74179"/>
<path d="M319.778 227.14C317.626 227.14 315.442 226.653 313.387 225.625L267.578 202.721C263.013 200.439 260.009 195.9 259.692 190.807C259.374 185.714 261.793 180.837 266.038 178.007L311.848 147.467C318.425 143.082 327.314 144.86 331.7 151.437C336.086 158.016 334.308 166.904 327.729 171.289L302.445 188.145L326.191 200.018C333.263 203.553 336.129 212.153 332.593 219.224C330.085 224.24 325.029 227.14 319.778 227.14Z" fill="#EAA58F"/>
<path d="M151.822 227.141C146.57 227.142 141.515 224.241 139.007 219.224C135.471 212.153 138.337 203.554 145.409 200.019L169.154 188.145L143.87 171.289C137.291 166.904 135.514 158.016 139.9 151.438C144.285 144.858 153.173 143.082 159.752 147.468L205.561 178.007C209.807 180.838 212.225 185.715 211.908 190.807C211.591 195.9 208.587 200.44 204.022 202.721L158.212 225.626C156.158 226.655 153.973 227.141 151.822 227.141Z" fill="#EFBEAA"/>
<path d="M406.622 453.789H377.993C377.993 438.007 365.147 425.16 349.365 425.16H292.108V339.275C292.108 307.697 266.43 282.019 234.852 282.019C203.274 282.019 177.595 307.697 177.595 339.275V396.532L206.223 410.846L177.595 425.16C149.494 425.16 118.617 425.16 120.338 425.16C104.556 425.16 91.7098 438.007 91.7098 453.789H63.0815C47.2996 453.789 34.4531 466.635 34.4531 482.417C34.4531 498.199 47.2996 512 63.0815 512H234.852H406.622C422.404 512 435.25 498.199 435.25 482.417C435.25 466.635 422.404 453.789 406.622 453.789Z" fill="#FAFAE0"/>
<path d="M435.234 482.417C435.234 466.635 422.388 453.789 406.606 453.789H377.978C377.978 438.007 365.131 425.16 349.349 425.16H292.093V339.275C292.093 307.697 266.414 282.019 234.836 282.019V512H406.606C422.388 512 435.234 498.199 435.234 482.417Z" fill="#EFEBC8"/>
<path d="M177.586 396.533H220.528V425.162H177.586V396.533Z" fill="#EFEBC8"/>
</svg>
