<svg width="512" height="512" viewBox="0 0 512 512" fill="none" xmlns="http://www.w3.org/2000/svg">
<path d="M26.5718 376.991L376.811 26.7518C380.339 23.2237 386.02 23.2238 389.548 26.752L485.067 122.271C488.595 125.799 488.595 131.48 485.067 135.008L134.828 485.247C131.3 488.775 125.619 488.775 122.091 485.247L26.5717 389.728C23.0435 386.2 23.0436 380.519 26.5718 376.991Z" fill="#FDA35D"/>
<path d="M64.7287 338.833C65.8317 339.951 67.2081 340.762 68.7211 341.184L119.168 354.666C120.689 355.064 122.288 355.057 123.805 354.646C125.323 354.235 126.706 353.434 127.818 352.322C128.93 351.21 129.731 349.826 130.143 348.309C130.554 346.791 130.561 345.192 130.162 343.671L116.68 293.225C116.269 291.705 115.467 290.32 114.354 289.207L64.7287 338.833ZM146.319 257.243L174.216 285.14C175.902 286.819 178.183 287.763 180.563 287.766C182.942 287.768 185.226 286.829 186.915 285.153C188.591 283.464 189.53 281.18 189.528 278.801C189.525 276.421 188.581 274.14 186.902 272.454L159.005 244.557L146.319 257.243ZM209.961 193.6L237.859 221.497C238.698 222.333 239.693 222.995 240.788 223.446C241.883 223.896 243.056 224.126 244.241 224.123C245.425 224.119 246.597 223.882 247.689 223.425C248.781 222.969 249.773 222.301 250.607 221.46C252.288 219.772 253.232 217.487 253.232 215.105C253.232 212.722 252.288 210.437 250.607 208.749L222.71 180.852L209.961 193.6ZM273.666 129.895L301.564 157.793C303.249 159.472 305.531 160.416 307.91 160.418C310.29 160.42 312.573 159.481 314.262 157.805C315.103 156.971 315.771 155.979 316.228 154.887C316.684 153.794 316.921 152.623 316.925 151.439C316.928 150.254 316.698 149.081 316.248 147.986C315.797 146.891 315.135 145.896 314.3 145.057L286.402 117.159L273.666 129.895ZM337.359 66.2028L365.256 94.1001C366.942 95.7793 369.223 96.7232 371.603 96.7255C373.982 96.7278 376.266 95.7885 377.955 94.1126C379.631 92.4236 380.57 90.14 380.568 87.7607C380.565 85.3814 379.621 83.0996 377.942 81.4139L350.045 53.5166L337.359 66.2028ZM384.335 159.074C383.223 160.194 382.426 161.587 382.022 163.113C381.618 164.639 381.622 166.244 382.034 167.768L395.529 218.202C395.938 219.715 396.736 221.096 397.842 222.206L397.855 222.219L447.493 172.581L447.48 172.568C446.369 171.462 444.989 170.664 443.475 170.255L393.041 156.76C391.515 156.348 389.907 156.344 388.378 156.75C386.85 157.156 385.456 157.958 384.335 159.074ZM133.695 417.898C132.021 419.585 131.082 421.865 131.082 424.241C131.082 426.617 132.021 428.898 133.695 430.584L161.592 458.482L174.328 445.746L146.431 417.848C145.591 417.015 144.596 416.356 143.501 415.908C142.407 415.459 141.235 415.231 140.052 415.235C138.87 415.24 137.7 415.478 136.609 415.934C135.518 416.391 134.528 417.059 133.695 417.898ZM197.387 354.206C196.548 355.039 195.88 356.029 195.423 357.12C194.967 358.211 194.729 359.381 194.724 360.563C194.72 361.746 194.948 362.918 195.397 364.012C195.845 365.107 196.504 366.102 197.337 366.942L225.235 394.839L237.983 382.09L210.086 354.193C208.397 352.517 206.113 351.578 203.734 351.58C201.354 351.583 199.073 352.526 197.387 354.206ZM261.092 290.501C260.252 291.334 259.585 292.324 259.128 293.415C258.671 294.506 258.434 295.676 258.429 296.858C258.425 298.041 258.653 299.213 259.101 300.308C259.55 301.402 260.209 302.397 261.042 303.237L288.939 331.134L301.675 318.398L273.778 290.501C272.091 288.827 269.811 287.888 267.435 287.888C265.059 287.888 262.779 288.827 261.092 290.501ZM324.735 226.858C323.061 228.545 322.122 230.825 322.122 233.201C322.122 235.577 323.061 237.857 324.735 239.544L352.632 267.442L365.368 254.706L337.471 226.808C336.631 225.975 335.636 225.316 334.541 224.867C333.447 224.419 332.275 224.191 331.092 224.195C329.91 224.2 328.74 224.438 327.649 224.894C326.558 225.351 325.568 226.019 324.735 226.858Z" fill="#D06A3B"/>
</svg>
