<svg width="512" height="512" viewBox="0 0 512 512" fill="none" xmlns="http://www.w3.org/2000/svg">
<g clip-path="url(#clip0_1211_667)">
<path d="M341.851 52.9658C325.979 52.9658 310.275 56.1878 295.683 62.4378C270.348 73.3048 241.658 73.3048 216.323 62.4378C201.731 56.1878 186.027 52.9658 170.155 52.9658C105.44 52.9568 52.9777 105.42 52.9688 170.135C52.9688 170.144 52.9688 170.144 52.9688 170.153C52.9688 220.488 67.1108 269.816 93.7878 312.498L97.1067 317.795L135.551 486.949C138.879 501.601 151.908 512 166.941 512C182.689 512.009 196.134 500.63 198.72 485.102L225.203 326.258C227.71 311.198 240.731 300.155 256.002 300.137C271.283 300.137 284.321 311.18 286.837 326.258L313.32 485.102C315.906 500.621 329.333 511.991 345.064 512C360.097 512 373.127 501.601 376.455 486.947L414.899 317.793L418.218 312.496C444.895 269.815 459.037 220.486 459.037 170.151C459.046 105.436 406.583 52.9738 341.868 52.9648C341.86 52.9658 341.86 52.9658 341.851 52.9658Z" fill="#E6E6E6"/>
<path d="M371.815 56.9824C319.829 233.666 179.197 313.556 103.227 344.753L135.545 486.939C139.491 504.276 156.749 515.125 174.086 511.18C186.815 508.285 196.535 497.983 198.688 485.103L225.171 326.259C228.005 309.231 244.106 297.719 261.135 300.553C274.315 302.742 284.652 313.079 286.841 326.259L313.324 485.103C316.255 502.643 332.851 514.481 350.391 511.542C363.27 509.388 373.572 499.669 376.468 486.94L414.894 317.795L418.213 312.498C444.89 269.817 459.032 220.488 459.032 170.153C458.996 117.01 423.191 70.5504 371.815 56.9824Z" fill="#DEDEDE"/>
<path d="M35.31 70.621C32.291 52.515 18.105 38.329 0 35.31C18.105 32.291 32.291 18.105 35.31 0C38.329 18.105 52.515 32.291 70.62 35.31C52.515 38.329 38.329 52.515 35.31 70.621Z" fill="#F9BC61"/>
<path d="M105.928 167.723H88.2734C88.2734 120.098 121.818 100.819 139.473 97.2793L142.933 114.581L141.238 105.93L143.004 114.572C141.503 114.899 105.928 122.958 105.928 167.723Z" fill="#F2F2F2"/>
<path d="M176.546 97.1025H158.891V114.758H176.546V97.1025Z" fill="#F2F2F2"/>
<path d="M476.693 441.379C473.674 423.274 459.488 409.088 441.383 406.069C459.488 403.05 473.674 388.864 476.693 370.759C479.712 388.864 493.898 403.05 512.003 406.069C493.898 409.088 479.712 423.274 476.693 441.379Z" fill="#F9BC61"/>
</g>
<defs>
<clipPath id="clip0_1211_667">
<rect width="512" height="512" fill="white"/>
</clipPath>
</defs>
</svg>
