<svg width="512" height="512" viewBox="0 0 512 512" fill="none" xmlns="http://www.w3.org/2000/svg">
<g clip-path="url(#clip0_1211_674)">
<path d="M461.136 200.478L329.685 331.929C302.567 359.047 268.36 377.356 230.752 384.875C198.975 391.235 170.067 406.703 147.149 429.622L147.059 429.712L121.55 454.81L76.6436 435.351C52.0024 377.229 59.3129 394.471 57.915 391.175L83.5531 365.946C106.451 343.038 121.91 314.14 128.26 282.382C135.779 244.775 154.088 210.568 181.206 183.45L312.657 51.999L380.882 89.8263C369.352 101.355 369.172 119.914 380.332 131.663C388.964 142.449 410.028 145.534 423.309 132.253L461.136 200.478Z" fill="#E6F5FA"/>
<path d="M461.141 200.478L329.69 331.929C302.572 359.047 268.365 377.355 230.757 384.875C198.98 391.234 170.072 406.703 147.153 429.622L147.063 429.712L121.555 454.81L76.6484 435.351L380.337 131.663C388.969 142.449 410.032 145.534 423.313 132.253L461.141 200.478Z" fill="#C8E1E6"/>
<path d="M478.762 182.87L461.143 200.479L408.117 147.453C395.188 160.382 374.61 158.002 365.14 146.863C353.981 135.103 354.171 116.545 365.69 105.026L312.664 51.9995L333.883 30.781C374.71 -10.046 440.705 -10.286 481.782 30.2211C524.529 72.128 520.429 141.193 478.762 182.87Z" fill="#FF637B"/>
<path d="M478.755 182.87L461.136 200.478L408.11 147.452C395.181 160.381 374.602 158.001 365.133 146.862L481.774 30.2207C524.521 72.1277 520.422 141.193 478.755 182.87Z" fill="#E63950"/>
<path d="M121.557 454.81L76.7704 498.867C59.3817 516.206 30.9337 516.566 13.185 498.817C-4.36375 481.268 -4.36375 452.73 13.185 435.182L13.275 435.092L57.9218 391.175L121.557 454.81Z" fill="#C8E1E6"/>
<path d="M121.552 454.81L76.7651 498.867C59.3764 516.206 30.9284 516.566 13.1797 498.817L89.3742 422.633L121.552 454.81Z" fill="#AAC8D2"/>
<path d="M333.305 178.7L302.057 147.452L238.422 211.088L269.67 242.335L302.057 274.723L365.693 211.088L333.305 178.7Z" fill="#76E2F8"/>
<path d="M269.625 242.343L333.251 178.717L365.634 211.099L302.008 274.725L269.625 242.343Z" fill="#4BB9EC"/>
<path d="M195.953 253.504L217.162 232.295L238.37 253.504L217.162 274.712L195.953 253.504Z" fill="#596C76"/>
<path d="M238.367 295.929L259.576 274.72L280.784 295.929L259.576 317.137L238.367 295.929Z" fill="#465A61"/>
</g>
<defs>
<clipPath id="clip0_1211_674">
<rect width="512" height="512" fill="white"/>
</clipPath>
</defs>
</svg>
