<svg width="512" height="512" viewBox="0 0 512 512" fill="none" xmlns="http://www.w3.org/2000/svg">
<g clip-path="url(#clip0_1211_673)">
<path d="M421.723 97.8617C419.782 97.8617 417.842 97.1217 416.361 95.6407C413.4 92.6797 413.4 87.8787 416.361 84.9177L499.058 2.22075C502.019 -0.74025 506.82 -0.74025 509.781 2.22075C512.742 5.18175 512.742 9.98275 509.781 12.9438L427.084 95.6407C425.605 97.1217 423.664 97.8617 421.723 97.8617Z" fill="#B8F0FF"/>
<path d="M425.188 134.816L377.188 86.8161L409.959 63.0161C414.356 59.8231 420.421 60.3011 424.264 64.1431L447.859 87.7381C451.701 91.5801 452.179 97.6461 448.986 102.043L425.188 134.816Z" fill="#BAC5E2"/>
<path d="M110.7 455.793L67.8594 411.907L130.91 346.05L170.394 396.099L110.7 455.793Z" fill="#E9EFFF"/>
<path d="M205.623 360.877L151.127 306.381L56.2109 401.297L68.9849 414.071L124.123 358.933C126.639 356.417 130.719 356.417 133.235 358.933C135.751 361.449 135.751 365.529 133.235 368.045L77.5159 423.764C74.5549 426.725 74.5549 431.526 77.5159 434.487C78.9959 435.967 80.9369 436.708 82.8779 436.708C84.8189 436.708 86.7589 435.968 88.2399 434.487L137.881 384.846C143.754 378.973 153.276 378.973 159.149 384.846L170.402 396.099L205.623 360.877Z" fill="#D3DCFB"/>
<path d="M373.046 80.5193C361.184 68.6573 347.238 78.1203 335.376 89.9823L255.305 180.972L256.392 186.945L345.022 220.279L434.044 186.519L439.146 181.417C451.008 169.555 451.008 150.323 439.146 138.461L388.681 87.9963L373.046 80.5193Z" fill="#E9EFFF"/>
<path d="M227.459 204.024L139.172 274.355L242.689 377.872L274.512 346.049L273.44 333.473L285.235 335.327L305.167 315.395L304.71 303.583L315.89 304.672L335.939 284.622L336.966 274.739L346.662 273.9L434.041 186.521L256.389 186.947L227.459 204.024Z" fill="#42C3FC"/>
<path d="M373.538 72.8565C361.676 60.9945 342.444 60.9945 330.582 72.8565L216.492 186.946L227.561 196.519L256.39 186.946L350.531 92.8055C362.393 80.9435 381.625 80.9435 393.487 92.8055L373.538 72.8565Z" fill="#D3DCFB"/>
<path d="M154.074 289.259L256.387 186.946H216.489L134.125 269.31L154.074 289.259Z" fill="#1AA9E8"/>
<path d="M139.504 472.813L58.6694 391.979C51.7044 385.014 31.3364 377.275 24.3714 384.239L15.6304 392.98C8.66536 399.945 18.4704 419.704 25.4344 426.669L105.541 506.776C112.506 513.741 123.798 513.741 130.762 506.776L139.503 498.035C146.469 491.07 146.469 479.778 139.504 472.813Z" fill="#BAC5E2"/>
<path d="M30.0177 399.373L32.1048 397.286C40.9068 388.484 55.1778 388.484 63.9798 397.286L39.1858 372.492C32.2208 365.528 20.9288 365.528 13.9648 372.492L5.22375 381.233C-1.74125 388.198 -1.74125 399.49 5.22375 406.454L30.0177 431.248C21.2157 422.446 21.2157 408.175 30.0177 399.373Z" fill="#A7B4D1"/>
<path d="M273.931 391.621L141.005 258.695L119.608 244.546C111.528 236.466 107.549 239.135 99.4686 247.215L92.3106 253.524C84.2306 261.604 77.9216 261.822 86.0026 269.902L102.331 298.826L234.529 431.024C242.609 439.104 255.71 439.104 263.791 431.024L273.932 420.883C282.011 412.802 282.011 399.701 273.931 391.621Z" fill="#BAC5E2"/>
<path d="M106.301 265.819L108.722 263.398C118.933 253.187 135.489 253.186 145.701 263.396L120.377 238.072C112.297 229.992 99.1961 229.992 91.1151 238.072L80.9741 248.213C72.8941 256.293 72.8941 269.394 80.9741 277.475L106.301 302.802C96.0891 292.588 96.0891 276.031 106.301 265.819Z" fill="#A7B4D1"/>
<path d="M323.577 250.879C320.616 247.918 315.815 247.918 312.854 250.879C309.893 253.84 309.893 258.641 312.854 261.602L335.946 284.623L346.669 273.9L323.577 250.879Z" fill="#1C8AE5"/>
<path d="M292.834 281.615C289.873 278.654 285.072 278.654 282.111 281.615C279.15 284.576 279.15 289.377 282.111 292.338L305.168 315.395L315.891 304.672L292.834 281.615Z" fill="#1C8AE5"/>
<path d="M262.1 312.352C259.139 309.391 254.338 309.391 251.377 312.352C248.416 315.313 248.416 320.114 251.377 323.075L274.515 346.05L285.238 335.327L262.1 312.352Z" fill="#1C8AE5"/>
</g>
<defs>
<clipPath id="clip0_1211_673">
<rect width="512" height="512" fill="white"/>
</clipPath>
</defs>
</svg>
