<svg width="512" height="512" viewBox="0 0 512 512" fill="none" xmlns="http://www.w3.org/2000/svg">
<g clip-path="url(#clip0_1211_668)">
<path d="M342.989 439.987C342.989 448.267 336.269 454.986 327.989 454.986H247.992C239.712 454.986 232.992 448.267 232.992 439.987C232.992 431.707 239.712 424.987 247.992 424.987H327.989C336.269 424.987 342.989 431.707 342.989 439.987Z" fill="#F7BE48"/>
<path d="M342.991 439.987C342.991 448.267 336.271 454.986 327.991 454.986H287.992V424.987H327.991C336.271 424.987 342.991 431.707 342.991 439.987Z" fill="#F99E49"/>
<path d="M377.113 382.407L349.914 314.419C346.837 306.728 338.107 302.986 330.417 306.064C322.726 309.141 318.984 317.87 322.062 325.562L349.261 393.55C352.33 401.219 361.049 404.991 368.758 401.905C376.449 398.828 380.19 390.098 377.113 382.407Z" fill="#F99E49"/>
<path d="M245.565 306.064C237.873 302.987 229.145 306.728 226.067 314.419L198.868 382.407C194.92 392.276 202.227 402.982 212.789 402.982C218.742 402.982 224.374 399.415 226.721 393.551L253.92 325.563C256.997 317.871 253.257 309.141 245.565 306.064Z" fill="#F7BE48"/>
<path d="M383.99 368.989C344.842 368.989 312.992 400.839 312.992 439.987C312.992 458.945 320.332 476.904 333.659 490.561C361.552 519.143 406.42 519.151 434.322 490.561C447.648 476.905 454.988 458.945 454.988 439.987C454.988 400.839 423.138 368.989 383.99 368.989Z" fill="#2B4478"/>
<path d="M423.99 440.707C423.99 462.849 406.07 481.266 383.991 481.266C361.937 481.266 343.992 462.872 343.992 440.707C343.992 418.647 361.932 400.708 383.991 400.708C406.05 400.708 423.99 418.647 423.99 440.707Z" fill="#83B3F1"/>
<path d="M262.996 439.987C262.996 479.364 231.103 511.985 191.998 511.985C152.932 511.985 121 479.399 121 439.987C121 400.838 152.849 368.989 191.998 368.989C231.147 368.989 262.996 400.838 262.996 439.987Z" fill="#554FB2"/>
<path d="M231.99 440.707C231.99 462.849 214.07 481.266 191.991 481.266C169.937 481.266 151.992 462.872 151.992 440.707C151.992 418.647 169.932 400.708 191.991 400.708C214.05 400.708 231.99 418.647 231.99 440.707Z" fill="#98D3F3"/>
<path d="M79.9977 222.993C73.7878 222.993 68.038 219.123 65.8681 213.033C65.8681 213.023 65.8581 213.013 65.8581 213.003C65.7881 212.803 65.7181 212.603 65.6581 212.403L59.6883 192.994L43.0687 138.996C39.5088 127.406 27.6992 118.996 14.9996 118.996C6.7198 118.996 0 112.276 0 103.997C0 95.7169 6.7198 88.9971 14.9996 88.9971C40.9488 88.9971 64.2881 105.927 71.7479 130.166L91.0773 192.994L94.3372 203.584C97.2972 213.223 90.0674 222.993 79.9977 222.993Z" fill="#F7BE48"/>
<path d="M319.99 0H295.991C289.526 0 283.788 4.14188 281.754 10.2787L217.756 203.273C214.542 212.968 221.768 222.993 231.994 222.993H496.986C505.27 222.993 511.985 216.278 511.985 207.994C511.984 91.7503 423.735 0 319.99 0Z" fill="#98D3F3"/>
<path d="M511.986 207.994C511.986 209.794 511.666 211.514 511.086 213.114C511.076 213.144 511.066 213.164 511.056 213.194L510.996 213.344C508.846 218.984 503.386 222.993 496.986 222.993H287.992V2.31993C290.332 0.839975 293.092 0 295.992 0H319.991C419.228 0 504.296 83.9575 511.496 192.994C511.816 197.944 511.986 202.944 511.986 207.994Z" fill="#83B3F1"/>
<path d="M511.054 213.194L481.925 291.951C472.685 317.7 443.726 334.99 409.847 334.99H166.134C132.215 334.99 103.236 317.66 94.0265 291.861L65.8673 213.034C65.8673 213.024 65.8573 213.014 65.8573 213.004C65.7873 212.804 65.7173 212.604 65.6573 212.404L59.6875 192.994H496.985C507.404 192.994 514.674 203.394 511.054 213.194Z" fill="#ADF2F5"/>
<path d="M511.986 207.994C511.986 209.794 511.666 211.514 511.086 213.114C511.076 213.144 511.066 213.164 511.056 213.194L510.996 213.344L481.926 291.951C472.687 317.7 443.728 334.99 409.849 334.99H287.992V192.994H511.496C511.816 197.944 511.986 202.944 511.986 207.994Z" fill="#98D3F3"/>
</g>
<defs>
<clipPath id="clip0_1211_668">
<rect width="512" height="512" fill="white"/>
</clipPath>
</defs>
</svg>
