<svg width="512" height="512" viewBox="0 0 512 512" fill="none" xmlns="http://www.w3.org/2000/svg">
<g clip-path="url(#clip0_1202_238)">
<path d="M375.297 32.7573L188.928 74.3623C176.642 77.1043 174.954 93.4813 186.251 99.0133L221.383 116.219C296.836 153.171 342.178 210.555 342.07 210.452C391.172 268.707 487.883 250.232 508.52 167.668C528.796 88.7673 457.35 14.4393 375.297 32.7573Z" fill="#F2FD51"/>
<path d="M377.76 136.317C377.898 136.373 314.539 99.8442 230.767 93.4412L191.763 90.4592C185.692 89.9952 181.516 86.0422 179.993 81.2852C177.074 87.3142 178.94 95.4332 186.25 99.0132L221.382 116.218C296.835 153.17 342.177 210.554 342.069 210.451C391.172 268.706 487.882 250.231 508.519 167.666C514.559 144.165 512.458 121.071 504.365 100.708C479.671 143.036 424.832 161.505 377.76 136.317Z" fill="#F9DC5C"/>
<path d="M426.165 336.005L312.867 274.451C303.046 269.116 292.181 278.63 295.87 289.229L302.502 308.277C322.533 365.813 322.833 415.408 322.729 413.154C325.24 467.67 386.275 501.13 433.225 470.244C482.437 437.419 478.163 364.255 426.165 336.005Z" fill="#F2FD51"/>
<path d="M364.813 401.193C365.474 403.35 352.836 355.393 319.11 304.655L307.944 287.858C304.552 282.755 305.448 276.89 308.721 273.055C300.288 271.813 292.697 280.116 295.87 289.23L302.502 308.278C322.533 365.814 322.833 415.409 322.729 413.155C325.24 467.671 386.275 501.131 433.225 470.245C442.056 464.354 449.155 457.16 454.575 449.165C418.648 460.197 376.947 440.749 364.813 401.193Z" fill="#F9DC5C"/>
<path d="M187.437 289.391C144.107 252.67 95.7096 215.509 52.8866 137.232C44.5116 125.006 25.7286 129.347 24.0216 144.072L0.822596 344.098C-9.4414 432.6 78.2176 499.237 159.283 468.692C234.564 440.337 249.779 340.23 187.437 289.391Z" fill="#F2FD51"/>
<path d="M66.0736 339.104L38.6006 139.619C38.1096 136.052 38.7526 132.832 40.1596 130.133C32.5836 129.893 25.0716 135.013 24.0206 144.07L0.822596 344.097C-9.4414 432.599 78.2176 499.236 159.283 468.691C176.168 462.332 190.02 452.355 200.665 440.141C139.399 449.029 75.5556 407.944 66.0736 339.104Z" fill="#F9DC5C"/>
</g>
<defs>
<clipPath id="clip0_1202_238">
<rect width="511.999" height="511.999" fill="white"/>
</clipPath>
</defs>
</svg>
