<svg width="512" height="512" viewBox="0 0 512 512" fill="none" xmlns="http://www.w3.org/2000/svg">
<mask id="mask0_1204_302" style="mask-type:luminance" maskUnits="userSpaceOnUse" x="60" y="60" width="392" height="392">
<path d="M451.999 60H60V451.999H451.999V60Z" fill="white"/>
</mask>
<g mask="url(#mask0_1204_302)">
<path d="M347.337 85.0796L204.648 116.933C195.242 119.033 193.95 131.571 202.599 135.807L229.497 148.98C287.265 177.271 321.98 221.206 321.898 221.127C359.491 265.729 433.536 251.584 449.336 188.371C464.86 127.962 410.159 71.0549 347.337 85.0796Z" fill="#F2FD51"/>
<path d="M349.223 164.368C349.328 164.41 300.819 136.443 236.681 131.541L206.819 129.258C202.171 128.902 198.973 125.876 197.807 122.234C195.573 126.85 197.001 133.066 202.598 135.807L229.496 148.979C287.265 177.271 321.98 221.205 321.897 221.126C359.491 265.728 433.535 251.583 449.335 188.369C453.96 170.376 452.351 152.695 446.155 137.104C427.248 169.512 385.262 183.652 349.223 164.368Z" fill="#F9DC5C"/>
<path d="M386.282 317.254L299.538 270.127C292.019 266.042 283.701 273.326 286.525 281.441L291.603 296.025C306.939 340.076 307.169 378.047 307.089 376.321C309.011 418.06 355.741 443.678 391.687 420.031C429.365 394.899 426.093 338.883 386.282 317.254Z" fill="#F2FD51"/>
<path d="M339.31 367.163C339.816 368.815 330.14 332.098 304.318 293.251L295.769 280.391C293.172 276.484 293.858 271.994 296.364 269.058C289.908 268.107 284.096 274.464 286.525 281.442L291.603 296.025C306.939 340.076 307.169 378.047 307.089 376.322C309.012 418.061 355.742 443.678 391.688 420.031C398.449 415.521 403.884 410.013 408.034 403.892C380.527 412.338 348.6 397.448 339.31 367.163Z" fill="#F9DC5C"/>
<path d="M203.506 281.565C170.332 253.45 133.278 224.999 100.491 165.068C94.0792 155.707 79.6985 159.031 78.3915 170.305L60.6298 323.45C52.7714 391.209 119.885 442.228 181.951 418.842C239.588 397.133 251.237 320.488 203.506 281.565Z" fill="#F2FD51"/>
<path d="M110.588 319.627L89.5536 166.896C89.1777 164.165 89.67 161.7 90.7472 159.633C84.9468 159.449 79.1954 163.369 78.3908 170.304L60.6298 323.449C52.7714 391.209 119.885 442.228 181.951 418.842C194.879 413.973 205.484 406.334 213.634 396.983C166.727 403.788 117.847 372.332 110.588 319.627Z" fill="#F9DC5C"/>
</g>
</svg>
