<svg width="512" height="512" viewBox="0 0 512 512" fill="none" xmlns="http://www.w3.org/2000/svg">
<g clip-path="url(#clip0_1204_301)">
<path d="M347.338 85.0806L204.648 116.935C195.242 119.034 193.95 131.573 202.599 135.808L229.497 148.981C287.266 177.273 321.981 221.208 321.898 221.129C359.492 265.73 433.536 251.585 449.337 188.372C464.86 127.963 410.159 71.0559 347.338 85.0806Z" fill="#9CD7F2"/>
<path d="M349.223 164.369C349.329 164.412 300.819 136.444 236.681 131.542L206.819 129.259C202.171 128.903 198.973 125.877 197.807 122.235C195.573 126.851 197.001 133.067 202.598 135.808L229.496 148.98C287.265 177.272 321.98 221.207 321.897 221.128C359.492 265.729 433.535 251.584 449.336 188.37C453.96 170.377 452.351 152.696 446.155 137.106C427.249 169.513 385.263 183.653 349.223 164.369Z" fill="#71C5DB"/>
<path d="M386.282 317.254L299.538 270.127C292.019 266.042 283.701 273.327 286.525 281.441L291.603 296.025C306.939 340.076 307.169 378.047 307.089 376.322C309.012 418.061 355.742 443.678 391.688 420.031C429.366 394.9 426.093 338.883 386.282 317.254Z" fill="#9CD7F2"/>
<path d="M339.31 367.164C339.816 368.815 330.14 332.098 304.318 293.252L295.769 280.392C293.172 276.485 293.858 271.994 296.364 269.058C289.908 268.107 284.096 274.464 286.525 281.442L291.603 296.026C306.939 340.077 307.169 378.048 307.089 376.322C309.012 418.061 355.742 443.679 391.688 420.032C398.449 415.522 403.884 410.014 408.034 403.893C380.527 412.339 348.6 397.449 339.31 367.164Z" fill="#71C5DB"/>
<path d="M203.506 281.565C170.332 253.451 133.278 224.999 100.491 165.068C94.0793 155.708 79.6985 159.031 78.3916 170.305L60.6298 323.451C52.7714 391.21 119.885 442.229 181.951 418.843C239.588 397.134 251.237 320.489 203.506 281.565Z" fill="#9CD7F2"/>
<path d="M110.588 319.627L89.5536 166.896C89.1777 164.165 89.67 161.7 90.7473 159.633C84.9469 159.449 79.1955 163.369 78.3908 170.304L60.6298 323.45C52.7714 391.209 119.885 442.228 181.951 418.842C194.879 413.973 205.484 406.335 213.634 396.983C166.727 403.788 117.847 372.333 110.588 319.627Z" fill="#71C5DB"/>
</g>
<defs>
<clipPath id="clip0_1204_301">
<rect width="392" height="392" fill="white" transform="translate(60 60)"/>
</clipPath>
</defs>
</svg>
