<?xml version="1.0" encoding="iso-8859-1"?>
<!-- Generator: Adobe Illustrator 19.0.0, SVG Export Plug-In . SVG Version: 6.00 Build 0)  -->
<svg version="1.1" id="Capa_1" xmlns="http://www.w3.org/2000/svg" xmlns:xlink="http://www.w3.org/1999/xlink" x="0px" y="0px"
	 viewBox="0 0 512.001 512.001" style="enable-background:new 0 0 512.001 512.001;" xml:space="preserve">
<path style="fill:#FFE299;" d="M23.334,237.303c0,0,0,0,0,0.003l0,0c0,3.705,0.161,7.371,0.47,10.996l221.595-0.004V15.238
	C122.755,15.238,23.334,114.66,23.334,237.303z"/>
<path style="fill:#FCC665;" d="M186.296,23.204V248.3l59.102-0.001V15.238C224.931,15.238,205.116,18.021,186.296,23.204z"/>
<path style="fill:#FF9F40;" d="M424.473,475.725H81.198c-3.344,0-6.308-2.149-7.348-5.327c-1.039-3.178,0.082-6.664,2.778-8.64
	l171.637-125.764c2.721-1.993,6.419-1.993,9.14,0l171.637,125.764c2.697,1.976,3.818,5.462,2.778,8.64
	C430.781,473.575,427.817,475.725,424.473,475.725z M104.83,460.262h296.011L252.835,351.814L104.83,460.262z"/>
<g>
	<circle style="fill:#5C576B;" cx="83.57" cy="467.31" r="44.691"/>
	<circle style="fill:#5C576B;" cx="422.1" cy="467.31" r="44.691"/>
</g>
<path style="fill:#FF9F40;" d="M253.88,242.914c-1.758,0-3.526-0.596-4.976-1.818L75.702,95.24
	c-3.266-2.75-3.684-7.628-0.934-10.894s7.628-3.684,10.894-0.934l173.201,145.857c3.266,2.75,3.684,7.628,0.934,10.894
	C258.27,241.979,256.082,242.914,253.88,242.914z"/>
<path style="fill:#C7A0CF;" d="M268.035,246.381h-29.157V4.996c0-2.759,2.237-4.996,4.996-4.996h19.166
	c2.759,0,4.996,2.237,4.996,4.996v241.385H268.035z"/>
<path style="fill:#B18CBA;" d="M263.039,0h-14.432c2.759,0,4.996,2.236,4.996,4.996v241.385h14.432V4.996
	C268.035,2.237,265.798,0,263.039,0z"/>
<path style="fill:#F26666;" d="M354.389,365.255H151.282c-70.664,0-127.949-57.285-127.949-127.949l0,0h459.004l0,0
	C482.337,307.971,425.053,365.255,354.389,365.255z"/>
<path style="fill:#DD5B5B;" d="M429.248,237.306L429.248,237.306c0,70.664-57.285,127.949-127.949,127.949h53.089
	c70.664,0,127.949-57.285,127.949-127.949l0,0H429.248z"/>
<path style="fill:#FF9F40;" d="M253.884,242.914c-1.979,0-3.957-0.755-5.467-2.265c-3.02-3.019-3.02-7.915,0-10.934L430.402,47.731
	c8.026-8.026,21.087-8.026,29.114,0l26.886,26.886c3.02,3.019,3.02,7.915,0,10.934c-3.019,3.019-7.915,3.019-10.934,0
	l-26.886-26.886c-1.998-1.997-5.248-1.997-7.246,0L259.352,240.649C257.841,242.159,255.863,242.914,253.884,242.914z"/>
<g>
	<circle style="fill:#73E7E6;" cx="253.88" cy="235.18" r="28.562"/>
	<circle style="fill:#73E7E6;" cx="253.88" cy="235.18" r="28.562"/>
</g>
<path style="fill:#65D1CB;" d="M253.899,206.621v57.123c15.768-0.008,28.547-12.792,28.547-28.562S269.666,206.629,253.899,206.621z
	"/>
<g>
	<path style="fill:#4F4B5E;" d="M83.577,422.618V512c24.679-0.004,44.685-20.011,44.685-44.691
		C128.261,442.629,108.256,422.621,83.577,422.618z"/>
	<path style="fill:#4F4B5E;" d="M422.102,422.617c-0.003,0-0.005,0-0.008,0V512c0.003,0,0.005,0,0.008,0
		c24.682,0,44.691-20.009,44.691-44.691C466.792,442.626,446.783,422.617,422.102,422.617z"/>
</g>
<g>
	<circle style="fill:#EAE9E5;" cx="83.57" cy="467.31" r="16.476"/>
	<circle style="fill:#EAE9E5;" cx="422.24" cy="467.31" r="16.476"/>
</g>
<g>
</g>
<g>
</g>
<g>
</g>
<g>
</g>
<g>
</g>
<g>
</g>
<g>
</g>
<g>
</g>
<g>
</g>
<g>
</g>
<g>
</g>
<g>
</g>
<g>
</g>
<g>
</g>
<g>
</g>
</svg>
