<?xml version="1.0" encoding="iso-8859-1"?>
<!-- Generator: Adobe Illustrator 19.0.0, SVG Export Plug-In . SVG Version: 6.00 Build 0)  -->
<svg version="1.1" id="Capa_1" xmlns="http://www.w3.org/2000/svg" xmlns:xlink="http://www.w3.org/1999/xlink" x="0px" y="0px"
	 viewBox="0 0 512 512" style="enable-background:new 0 0 512 512;" xml:space="preserve">
<path style="fill:#FFE299;" d="M33.226,237.851c0,0,0,0,0,0.003l0,0c0,3.596,0.157,7.155,0.456,10.673l215.099-0.003V22.296
	C129.733,22.296,33.226,118.803,33.226,237.851z"/>
<path style="fill:#FCC665;" d="M191.411,30.029v218.496l57.37-0.001V22.296C228.914,22.296,209.679,24.997,191.411,30.029z"/>
<g>
	<circle style="fill:#5C576B;" cx="91.7" cy="461.11" r="43.38"/>
	<circle style="fill:#5C576B;" cx="420.3" cy="461.11" r="43.38"/>
</g>
<path style="fill:#C7A0CF;" d="M270.754,246.663h-28.302V12.354c0-2.678,2.171-4.849,4.849-4.849h18.604
	c2.678,0,4.849,2.171,4.849,4.849V246.663z"/>
<path style="fill:#B18CBA;" d="M265.905,7.505h-14.009c2.678,0,4.849,2.171,4.849,4.849v234.309h14.009V12.354
	C270.754,9.676,268.583,7.505,265.905,7.505z"/>
<path style="fill:#F26666;" d="M354.576,362.052H157.424c-68.593,0-124.198-55.605-124.198-124.198l0,0h445.548l0,0
	C478.774,306.447,423.169,362.052,354.576,362.052z"/>
<path style="fill:#DD5B5B;" d="M427.241,237.854L427.241,237.854c0,68.593-55.605,124.198-124.198,124.198h51.533
	c68.592,0,124.198-55.605,124.198-124.198l0,0H427.241z"/>
<g>
	<circle style="fill:#73E7E6;" cx="257.02" cy="235.79" r="27.725"/>
	<circle style="fill:#73E7E6;" cx="257.02" cy="235.79" r="27.725"/>
</g>
<path style="fill:#65D1CB;" d="M257.032,208.068v55.449c15.306-0.008,27.711-12.417,27.711-27.724S272.337,208.076,257.032,208.068z
	"/>
<g>
	<path style="fill:#4F4B5E;" d="M91.703,417.733v86.762c23.956-0.003,43.375-19.424,43.375-43.381
		C135.078,437.157,115.659,417.737,91.703,417.733z"/>
	<path style="fill:#4F4B5E;" d="M420.303,417.733c-0.003,0-0.005,0-0.008,0v86.762c0.003,0,0.005,0,0.008,0
		c23.959,0,43.381-19.422,43.381-43.381C463.684,437.155,444.262,417.733,420.303,417.733z"/>
</g>
<g>
	<circle style="fill:#EAE9E5;" cx="91.7" cy="461.11" r="15.993"/>
	<circle style="fill:#EAE9E5;" cx="420.44" cy="461.11" r="15.993"/>
</g>
<path d="M420.303,410.228c-13.819,0-26.362,5.545-35.541,14.517l-75.318-55.188h45.133c72.616,0,131.695-59.074,131.702-131.689
	c0-4.148-3.357-7.518-7.505-7.518H319.791c-4.221,0-7.629,3.486-7.501,7.736c0.123,4.107,3.707,7.274,7.816,7.274h150.925
	c-3.882,60.86-54.631,109.188-116.454,109.188H157.424c-61.823,0-112.572-48.328-116.454-109.188h152.825
	c4.145,0,7.505-3.36,7.505-7.505s-3.36-7.505-7.505-7.505H40.88c1.646-46.531,18.57-90.545,48.358-126.038l136.606,115.039
	c-1.268,2.404-2.252,4.956-2.934,7.616c-0.006,0.022-0.011,0.044-0.017,0.066c-0.127,0.501-0.245,1.006-0.35,1.514
	c-0.029,0.138-0.055,0.276-0.082,0.414c-0.083,0.427-0.163,0.855-0.23,1.287c-0.038,0.237-0.068,0.476-0.101,0.715
	c-0.049,0.356-0.099,0.712-0.137,1.072c-0.037,0.35-0.062,0.703-0.089,1.055c-0.02,0.266-0.047,0.53-0.061,0.797
	c-0.034,0.632-0.053,1.267-0.053,1.908c0,19.425,15.804,35.229,35.229,35.229s35.229-15.804,35.229-35.229
	c0-7.002-2.062-13.528-5.598-19.018L438.974,64.45c1.94-1.939,5.094-1.939,7.034,0l26.098,26.098c2.931,2.931,7.683,2.931,10.613,0
	c2.931-2.931,2.931-7.683,0-10.613l-26.098-26.098c-7.791-7.791-20.469-7.791-28.26,0L278.258,203.939V12.354
	C278.258,5.542,272.717,0,265.905,0h-18.604c-6.812,0-12.354,5.542-12.354,12.354v2.882c-55.445,3.387-107.064,27.023-146.031,67.06
	c-40.752,41.871-63.195,97.114-63.195,155.558c0,0.002,0,0.005,0,0.007s0,0.005,0,0.007
	c0.007,72.615,59.086,131.689,131.702,131.689h45.133l-75.318,55.188c-9.179-8.972-21.722-14.517-35.541-14.517
	c-28.059,0-50.886,22.827-50.886,50.886S63.638,512,91.697,512c25.277,0,46.3-18.529,50.221-42.717h228.163
	C374.003,493.471,395.026,512,420.303,512c28.059,0,50.886-22.827,50.886-50.886S448.362,410.228,420.303,410.228z M249.957,22.396
	V15.01h13.292v186.11c-0.084-0.015-0.169-0.025-0.253-0.039c-0.382-0.066-0.767-0.126-1.153-0.179
	c-0.19-0.026-0.38-0.05-0.571-0.073c-0.371-0.045-0.742-0.086-1.116-0.119c-0.201-0.018-0.403-0.032-0.605-0.046
	c-0.368-0.026-0.735-0.05-1.106-0.065c-0.209-0.008-0.418-0.011-0.627-0.016c-0.267-0.006-0.532-0.02-0.8-0.02
	c-0.101,0-0.2,0.007-0.3,0.008c-0.203,0.002-0.407,0.01-0.61,0.015c-0.375,0.01-0.75,0.019-1.122,0.04
	c-0.176,0.01-0.35,0.027-0.526,0.04c-0.397,0.029-0.794,0.056-1.187,0.098c-0.126,0.013-0.25,0.033-0.375,0.048
	c-0.992,0.116-1.975,0.265-2.941,0.463L249.957,22.396L249.957,22.396z M236.892,233.927c0.011-0.118,0.021-0.237,0.034-0.354
	c0.068-0.622,0.158-1.238,0.282-1.843c0.002-0.008,0.004-0.015,0.005-0.023c1.076-5.224,4.176-9.716,8.438-12.624
	c0.058-0.04,0.117-0.078,0.176-0.117c0.469-0.313,0.952-0.607,1.448-0.88c0.053-0.029,0.105-0.062,0.159-0.091
	c0.533-0.288,1.081-0.552,1.642-0.792c0.092-0.039,0.186-0.073,0.278-0.111c0.461-0.19,0.931-0.361,1.408-0.516
	c0.142-0.046,0.284-0.094,0.427-0.137c0.561-0.169,1.13-0.32,1.71-0.441c0.079-0.016,0.159-0.026,0.238-0.042
	c0.513-0.1,1.033-0.178,1.559-0.239c0.164-0.019,0.328-0.036,0.493-0.051c0.603-0.054,1.211-0.093,1.829-0.093
	c0.613,0,1.216,0.038,1.815,0.092c0.155,0.014,0.31,0.028,0.464,0.045c0.57,0.064,1.135,0.148,1.69,0.259
	c0.133,0.027,0.265,0.062,0.397,0.092c0.449,0.099,0.893,0.214,1.33,0.343c0.17,0.05,0.34,0.098,0.508,0.152
	c0.529,0.171,1.05,0.359,1.559,0.572c0.114,0.047,0.224,0.102,0.337,0.151c0.443,0.195,0.878,0.404,1.305,0.629
	c0.119,0.063,0.24,0.124,0.358,0.189c6.228,3.45,10.457,10.086,10.457,17.695c0,11.149-9.071,20.22-20.22,20.22
	s-20.22-9.071-20.22-20.22C236.798,235.163,236.836,234.542,236.892,233.927z M99.672,92.765
	c36.13-37.122,83.914-59.141,135.275-62.504v177.134L99.296,93.161C99.423,93.03,99.545,92.896,99.672,92.765z M91.697,496.99
	c-19.783,0-35.877-16.094-35.877-35.876s16.094-35.876,35.877-35.876c19.782,0,35.876,16.094,35.876,35.876
	S111.479,496.99,91.697,496.99z M369.89,454.274H142.11c-0.85-6.294-2.845-12.229-5.784-17.58l91.626-67.137h56.097l91.626,67.137
	C372.735,442.045,370.74,447.979,369.89,454.274z M420.303,496.99c-19.782,0-35.876-16.094-35.876-35.876
	s16.094-35.876,35.876-35.876c19.783,0,35.877,16.094,35.877,35.876S440.086,496.99,420.303,496.99z"/>
<path d="M91.697,437.616c-12.957,0-23.498,10.541-23.498,23.498s10.541,23.498,23.498,23.498c12.956,0,23.497-10.541,23.497-23.498
	S104.653,437.616,91.697,437.616z M91.697,469.602c-4.68,0-8.488-3.808-8.488-8.488s3.808-8.488,8.488-8.488
	c4.68,0,8.488,3.808,8.488,8.488S96.377,469.602,91.697,469.602z"/>
<path d="M420.438,437.616c-12.957,0-23.498,10.541-23.498,23.498s10.541,23.498,23.498,23.498c12.956,0,23.497-10.541,23.497-23.498
	S433.394,437.616,420.438,437.616z M420.438,469.602c-4.68,0-8.488-3.808-8.488-8.488s3.808-8.488,8.488-8.488
	s8.488,3.808,8.488,8.488S425.118,469.602,420.438,469.602z"/>
<g>
</g>
<g>
</g>
<g>
</g>
<g>
</g>
<g>
</g>
<g>
</g>
<g>
</g>
<g>
</g>
<g>
</g>
<g>
</g>
<g>
</g>
<g>
</g>
<g>
</g>
<g>
</g>
<g>
</g>
</svg>
