<svg id="Capa_1" enable-background="new 0 0 512 512" height="512" viewBox="0 0 512 512" width="512" xmlns="http://www.w3.org/2000/svg"><g><path d="m185.806 421.161h198.194v33.032h-198.194z" fill="#736572"/><path d="m414.306 63.378c-.694-1.735-1.529-3.396-2.49-4.967l-11.877-11.494c-1.647-.935-3.383-1.732-5.193-2.379l-101.585-36.28-8.258 8.258v165.161h165.161l8.258-8.258z" fill="#ff7e92"/><path d="m411.816 58.411c-2.927-4.793-6.992-8.728-11.877-11.494l-92.483 99.082c-5.114 5.479-14.295 1.861-14.295-5.635v-132.106c0-4.561-3.697-8.258-8.258-8.258h-16.516c-4.561 0-8.258 3.697-8.258 8.258v181.677h33.032l3.599-8.258z" fill="#ff5f7a"/><path d="m448.688 222.968-4.988 59.864c-1.07 12.84-11.804 22.717-24.689 22.717h-284.732l-21.651-22.717-6.365-76.38 5.221-16.516h330.323z" fill="#ff5f7a"/><path d="m111.484 189.935-8.258 16.516 6.365 76.38c1.07 12.84 11.804 22.717 24.689 22.717h.073l-4.984-64.798c-.738-9.592 6.847-17.783 16.467-17.783h302.853l1.376-16.516-8.258-16.516z" fill="#fb4455"/><path d="m458.323 198.194h-363.355v-16.516c0-4.561 3.697-8.258 8.258-8.258h355.097c4.561 0 8.258 3.697 8.258 8.258v8.258c0 4.56-3.698 8.258-8.258 8.258z" fill="#ff7e92"/><path d="m111.484 189.935c-4.561 0-8.258-3.698-8.258-8.258v-8.258h-8.258c-4.561 0-8.258 3.697-8.258 8.258v16.516c0 4.56 3.697 8.258 8.258 8.258h363.355c4.561 0 8.258-3.698 8.258-8.258v-8.258z" fill="#ff5f7a"/><path d="m394.258 361.935-83.871-83.871-27.913-20.953-23.847-30.808-148.143-148.142c-7.798-7.798-18.169-12.097-29.202-12.097h-2.831c-4.565 0-8.258 3.694-8.258 8.258 0 4.565 3.694 8.258 8.258 8.258h2.831c6.621 0 12.847 2.581 17.524 7.258l147.86 147.86 25.707 20.716-23.549 29.57-77.252 121.112c-2.452 3.847-1.323 8.952 2.516 11.403 1.379.879 2.919 1.298 4.435 1.298 2.726 0 5.395-1.347 6.968-3.815l76.936-120.616 16.462-34.067 19.928 26.548 83.763 83.763c6.242 6.242 9.677 14.54 9.677 23.363v24.185c0 4.565 3.694 8.258 8.258 8.258 4.565 0 8.258-3.694 8.258-8.258v-24.185c.001-13.231-5.152-25.675-14.515-35.038z" fill="#eceaec"/><path d="m152.774 412.903c-22.804 0-41.29 18.486-41.29 41.29 0 22.803 18.486 41.29 41.29 41.29s41.29-18.487 41.29-41.29c.001-22.804-18.485-41.29-41.29-41.29zm0 57.807c-9.121 0-16.516-7.395-16.516-16.516 0-9.122 7.395-16.516 16.516-16.516 9.122 0 16.516 7.394 16.516 16.516 0 9.121-7.394 16.516-16.516 16.516z" fill="#eceaec"/><path d="m152.774 396.387c-31.925 0-57.806 25.881-57.806 57.806s25.881 57.806 57.806 57.806 57.806-25.881 57.806-57.806c.001-31.925-25.88-57.806-57.806-57.806zm0 90.839c-18.243 0-33.032-14.789-33.032-33.032s14.789-33.032 33.032-33.032 33.032 14.789 33.032 33.032c0 18.242-14.788 33.032-33.032 33.032z" fill="#615260"/><path d="m400.516 412.903c-27.365 0-49.548 22.183-49.548 49.548s22.183 49.548 49.548 49.548 49.548-22.183 49.548-49.548c.001-27.364-22.183-49.548-49.548-49.548z" fill="#615260"/><circle cx="400.516" cy="462.452" fill="#eceaec" r="24.774"/><path d="m78.452 66.065h-24.775c-4.565 0-8.258 3.694-8.258 8.258 0 4.565 3.694 8.258 8.258 8.258h24.774v-16.516z" fill="#615260"/><path d="m258.627 226.304-11.96 11.395 20.901 20.901-18.743 29.385 13.603 9.383 17.1-26.808 19.29 19.29 11.569-11.785z" fill="#736572"/></g></svg>