<svg id="Capa_1" enable-background="new 0 0 512 512" height="512" viewBox="0 0 512 512" width="512" xmlns="http://www.w3.org/2000/svg"><g><g><path d="m362.897 34.466-2.868 3.06v162.833h108.5l4.739-5.665v-6.876c0-71.358-46.231-131.902-110.371-153.352z" fill="#ff7ab9"/><path d="m322.106 26.481-5.244 4.878v169h50.667v-164.272c-14.3-5.274-29.549-8.586-45.423-9.606z" fill="#ff5ca8"/><path d="m306.717 7.5c-8.499 0-15.389 6.89-15.389 15.389v171.804l4.701 5.665h22.5l3.577-5.665v-171.804c0-8.499-6.89-15.389-15.389-15.389z" fill="#ffe559"/><path d="m295.548 340.157-59.524 70.115 14.172 10.997h3.178l53.343-62.834v-4.91z" fill="#b5dcff"/><path d="m297.64 342.661-7.611-9.109h-4.437l-56.759 66.857v4.283l9.733 7.553z" fill="#8bcaff"/><path d="m465.529 222.359h-294.422l15.422 10.917v80.417l28.516 19.859h211.256c25.939 0 46.967-21.028 46.967-46.967v-61.114z" fill="#ff7ab9"/><path d="m190.833 286.585v-61.114l5.348-3.113h-50.667l-5.348 3.113v61.114c0 25.939 21.028 46.967 46.967 46.967h50.667c-25.939 0-46.967-21.028-46.967-46.967z" fill="#ff5ca8"/><path d="m481.027 194.693c-4.126 0-219.668 0-309.757 0-3.641 2.915-6.991 5.665-6.991 5.665v17.167l11.225 7.946h305.523c8.499 0 15.389-6.89 15.389-15.389-.001-8.499-6.891-15.389-15.389-15.389z" fill="#fff1af"/><path d="m167.685 210.082c0-8.499 6.89-15.389 15.389-15.389-29.622 0-49.443 0-50.667 0-8.499 0-15.389 6.89-15.389 15.389 0 8.499 6.89 15.389 15.389 15.389h50.667c-8.499 0-15.389-6.89-15.389-15.389z" fill="#ffe559"/><path d="m141.76 114.36c-10.611-12.5-26.101-19.668-42.497-19.668h-8.853v32.209h8.853c6.923 0 13.462 3.026 17.943 8.304l.85 1.002h17.973l236.38 279.105 12.192-10.954v-3.95z" fill="#dbedff"/><path d="m139.753 136.306c-4.526-5.331-11.166-8.404-18.159-8.404h-15.559c4.304 1.291 8.193 3.797 11.171 7.304l242.854 286.063 4.136 1.423 10.6-9.524z" fill="#b5dcff"/><path d="m90.41 94.692h-58.693c-8.894 0-16.105 7.21-16.105 16.105s7.21 16.105 16.105 16.105h58.693z" fill="#6b7ed9"/><path d="m419.077 397.729-8.048 3.046-17.25 12.375-10.875 17.375-3.375 18.75 5.072 20.625 7.761 17.125 11.542 9.667 13.97 6.448c24.135-5.48 42.158-27.05 42.158-52.844 0-25.365-17.425-46.654-40.955-52.567z" fill="#8896e0"/><path d="m382.29 450.296c0-24.609 16.405-45.374 38.871-51.99-4.864-1.432-10.006-2.214-15.333-2.214-29.936 0-54.204 24.268-54.204 54.204s24.268 54.204 54.204 54.204c5.327 0 10.47-.782 15.333-2.214-22.467-6.616-38.871-27.381-38.871-51.99z" fill="#6b7ed9"/><path d="m416.317 427.865-2.538 1.036-7.951 11-1.924 8.75 1.924 11.875 5.451 7.375 5.316 4.699c8.282-4.005 13.994-12.487 13.994-22.303 0-9.926-5.841-18.483-14.272-22.432z" fill="#dbedff"/><path d="m405.827 450.296c0-9.164 4.982-17.159 12.381-21.441-3.643-2.108-7.869-3.321-12.381-3.321-13.676 0-24.762 11.086-24.762 24.762s11.086 24.762 24.762 24.762c4.512 0 8.738-1.213 12.381-3.321-7.399-4.282-12.381-12.278-12.381-21.441z" fill="#b5dcff"/><path d="m220.856 397.729-8.048 3.046-17.25 12.375-10.875 17.375-3.375 18.75 5.072 20.625 7.761 17.125 11.542 9.667 13.97 6.448c24.135-5.48 42.158-27.05 42.158-52.844 0-25.365-17.425-46.654-40.955-52.567z" fill="#8896e0"/><path d="m184.069 450.296c0-24.609 16.405-45.374 38.871-51.99-4.864-1.432-10.006-2.214-15.333-2.214-29.936 0-54.204 24.268-54.204 54.204s24.268 54.204 54.204 54.204c5.327 0 10.47-.782 15.333-2.214-22.466-6.616-38.871-27.381-38.871-51.99z" fill="#6b7ed9"/><path d="m218.097 427.865-2.538 1.036-7.951 11-1.924 8.75 1.924 11.875 5.451 7.375 5.316 4.699c8.282-4.005 13.994-12.487 13.994-22.303-.001-9.926-5.842-18.483-14.272-22.432z" fill="#dbedff"/><path d="m207.607 450.296c0-9.164 4.982-17.159 12.381-21.441-3.643-2.108-7.869-3.321-12.381-3.321-13.676 0-24.762 11.086-24.762 24.762s11.086 24.762 24.762 24.762c4.512 0 8.738-1.213 12.381-3.321-7.4-4.282-12.381-12.278-12.381-21.441z" fill="#b5dcff"/></g><g><path d="m405.813 482.558c17.789 0 32.262-14.473 32.262-32.262s-14.473-32.262-32.262-32.262-32.262 14.473-32.262 32.262 14.473 32.262 32.262 32.262zm0-49.524c9.519 0 17.262 7.743 17.262 17.262s-7.743 17.262-17.262 17.262-17.262-7.743-17.262-17.262 7.744-17.262 17.262-17.262z"/><path d="m207.593 418.034c-17.789 0-32.262 14.473-32.262 32.262s14.473 32.262 32.262 32.262 32.262-14.473 32.262-32.262-14.473-32.262-32.262-32.262zm0 49.524c-9.519 0-17.262-7.743-17.262-17.262s7.743-17.262 17.262-17.262 17.262 7.743 17.262 17.262-7.744 17.262-17.262 17.262z"/><path d="m481.013 187.193h-.266c-.317-86.409-66.168-158.696-151.398-167.613-1.608-11.059-11.149-19.58-22.646-19.58-12.621 0-22.889 10.268-22.889 22.889v164.305h-70.399l-19.948-23.497c-2.68-3.157-7.413-3.545-10.571-.864s-3.545 7.414-.864 10.571c1.338 1.576 186.622 219.827 190.789 224.735-4.87 3.081-9.276 6.827-13.109 11.148-.186-.219-47.291-55.705-47.291-55.705-11.055-13.022-178.686-210.478-189.512-223.229-5.907-6.96-14.531-10.951-23.66-10.951h-1.353v-17.209h1.353c14.19 0 27.596 6.204 36.779 17.021l23.353 27.508c2.681 3.158 7.413 3.547 10.571.864 3.158-2.681 3.545-7.414.864-10.571l-23.353-27.508c-12.039-14.182-29.613-22.314-48.215-22.314h-1.353v-2.565c0-4.143-3.357-7.5-7.5-7.5s-7.5 3.357-7.5 7.5v2.565h-51.192c-13.016 0-23.604 10.589-23.604 23.604s10.589 23.604 23.604 23.604h51.193v2.565c0 4.143 3.357 7.5 7.5 7.5s7.5-3.357 7.5-7.5v-2.565h1.353c4.717 0 9.172 2.062 12.225 5.658l40.014 47.134h-19.094c-12.621 0-22.889 10.268-22.889 22.889s10.268 22.89 22.889 22.89h.259v53.613c0 30.033 24.434 54.467 54.467 54.467h82.254l-42.882 50.512c-5.96-1.922-12.307-2.972-18.898-2.972-34.023 0-61.704 27.681-61.704 61.704s27.679 61.704 61.703 61.704 61.704-27.681 61.704-61.704c0-10.143-2.476-19.713-6.831-28.164l44.237-52.108 44.237 52.108c-4.355 8.45-6.831 18.021-6.831 28.164 0 34.023 27.681 61.704 61.704 61.704s61.704-27.681 61.704-61.704-27.681-61.704-61.704-61.704c-6.59 0-12.938 1.05-18.897 2.972l-42.882-50.512h18.716c4.143 0 7.5-3.357 7.5-7.5s-3.357-7.5-7.5-7.5h-31.45l-79.021-93.08h213.475v53.613c0 21.762-17.705 39.467-39.467 39.467h-28.537c-4.143 0-7.5 3.357-7.5 7.5s3.357 7.5 7.5 7.5h28.537c30.033 0 54.467-24.434 54.467-54.467v-53.613h.259c12.621 0 22.889-10.269 22.889-22.89s-10.268-22.889-22.889-22.889zm-449.31-67.792c-4.744 0-8.604-3.86-8.604-8.604s3.86-8.604 8.604-8.604h51.193v17.209h-51.193zm92.802 90.681c0-4.35 3.539-7.889 7.889-7.889h31.829c11.027 12.989 7.767 9.149 13.395 15.778-19.995 0-30.311 0-45.224 0-4.35.001-7.889-3.538-7.889-7.889zm23.147 76.503v-53.613h42.699c3.74 4.406 76.152 89.701 79.021 93.08h-82.253c-21.762 0-39.467-17.705-39.467-39.467zm59.941 210.415c-25.753 0-46.704-20.951-46.704-46.704s20.951-46.704 46.704-46.704c25.776 0 46.704 20.979 46.704 46.704 0 25.753-20.951 46.704-46.704 46.704zm46.101-87.713c-3.834-4.321-8.238-8.067-13.109-11.148l44.993-52.998 11.287 13.295zm198.824 41.009c0 25.753-20.951 46.704-46.704 46.704s-46.704-20.951-46.704-46.704c0-25.705 20.905-46.704 46.704-46.704 25.752 0 46.704 20.951 46.704 46.704zm13.235-263.103h-136.161v-152.507c76.774 8.946 135.847 74.393 136.161 152.507zm-166.939-164.304c0-4.35 3.539-7.889 7.889-7.889s7.889 3.539 7.889 7.889v3.592 160.713h-15.777v-164.305zm182.199 195.083c-8.773 0-221.906-.001-241.469-.001l-13.394-15.777h254.863c4.35 0 7.889 3.539 7.889 7.889-.001 4.35-3.54 7.889-7.889 7.889z"/></g></g></svg>