<svg id="Capa_1" enable-background="new 0 0 512 512" height="512" viewBox="0 0 512 512" width="512" xmlns="http://www.w3.org/2000/svg"><g><path d="m366.109 27.78-2.955 3.152v167.748h111.775l4.882-5.836v-7.084c0-73.512-47.626-135.882-113.702-157.98z" fill="#ff7ab9"/><path d="m324.087 19.554-5.402 5.025v174.101h52.196v-169.231c-14.732-5.432-30.441-8.844-46.794-9.895z" fill="#ff5ca8"/><path d="m308.233 0c-8.756 0-15.854 7.098-15.854 15.854v176.989l4.843 5.836h23.179l3.685-5.836v-176.989c.001-8.756-7.097-15.854-15.853-15.854z" fill="#ffe559"/><path d="m296.727 342.697-61.32 72.231 14.599 11.329h3.274l54.953-64.73v-5.058z" fill="#b5dcff"/><path d="m298.882 345.277-7.84-9.385h-4.572l-58.471 68.875v4.413l10.027 7.781z" fill="#8bcaff"/><path d="m471.838 221.343h-303.308l15.888 11.246v82.844l29.377 20.459h217.632c26.722 0 48.384-21.662 48.384-48.384v-62.958z" fill="#ff7ab9"/><path d="m188.852 287.508v-62.958l5.509-3.206h-52.196l-5.509 3.206v62.958c0 26.722 21.662 48.384 48.384 48.384h52.196c-26.722 0-48.384-21.662-48.384-48.384z" fill="#ff5ca8"/><path d="m487.804 192.843c-4.25 0-226.298 0-319.106 0-3.751 3.003-7.202 5.836-7.202 5.836v17.685l11.564 8.186h314.744c8.755 0 15.853-7.098 15.853-15.853 0-8.756-7.098-15.854-15.853-15.854z" fill="#fff1af"/><path d="m165.006 208.696c0-8.756 7.098-15.854 15.853-15.854-30.516 0-50.935 0-52.196 0-8.756 0-15.853 7.098-15.853 15.853 0 8.756 7.098 15.853 15.853 15.853h52.196c-8.756.002-15.853-7.096-15.853-15.852z" fill="#ffe559"/><path d="m138.298 110.086c-10.931-12.877-26.889-20.262-43.78-20.262h-9.12v33.181h9.12c7.132 0 13.869 3.118 18.484 8.555l.876 1.032h18.516l243.514 287.529 12.56-11.284v-4.069z" fill="#dbedff"/><path d="m136.23 132.693c-4.662-5.492-11.503-8.658-18.707-8.658h-16.028c4.434 1.33 8.441 3.912 11.508 7.525l250.184 294.697 4.261 1.466 10.92-9.811z" fill="#b5dcff"/><path d="m85.398 89.824h-60.464c-9.163 0-16.591 7.428-16.591 16.591s7.428 16.591 16.591 16.591h60.464z" fill="#6b7ed9"/><g><path d="m85.398 141.101c-4.267 0-7.726-3.459-7.726-7.726v-53.92c0-4.268 3.459-7.726 7.726-7.726s7.726 3.459 7.726 7.726v53.92c.001 4.267-3.459 7.726-7.726 7.726z" fill="#8896e0"/></g><path d="m423.984 402.007-8.291 3.138-17.771 12.749-11.203 17.899-3.477 19.316 5.225 21.247 7.996 17.642 11.89 9.958 14.392 6.642c24.864-5.645 43.43-27.867 43.43-54.439 0-26.13-17.95-48.061-42.191-54.152z" fill="#8896e0"/><path d="m386.087 456.16c0-25.352 16.9-46.744 40.044-53.56-5.01-1.475-10.308-2.281-15.796-2.281-30.84 0-55.84 25-55.84 55.84s25 55.84 55.84 55.84c5.488 0 10.786-.805 15.796-2.281-23.144-6.815-40.044-28.207-40.044-53.558z" fill="#6b7ed9"/><path d="m421.141 433.052-2.615 1.067-8.191 11.332-1.982 9.014 1.982 12.233 5.616 7.598 5.476 4.841c8.532-4.126 14.417-12.864 14.417-22.977 0-10.225-6.018-19.04-14.703-23.108z" fill="#dbedff"/><path d="m410.335 456.16c0-9.44 5.132-17.677 12.755-22.088-3.753-2.172-8.107-3.421-12.755-3.421-14.088 0-25.509 11.421-25.509 25.509s11.421 25.509 25.509 25.509c4.648 0 9.001-1.249 12.755-3.421-7.623-4.411-12.755-12.648-12.755-22.088z" fill="#b5dcff"/><path d="m219.781 402.007-8.291 3.138-17.771 12.749-11.203 17.899-3.477 19.316 5.225 21.247 7.996 17.642 11.89 9.958 14.392 6.642c24.864-5.645 43.43-27.867 43.43-54.439 0-26.13-17.951-48.061-42.191-54.152z" fill="#8896e0"/><path d="m181.884 456.16c0-25.352 16.9-46.744 40.044-53.56-5.01-1.475-10.308-2.281-15.796-2.281-30.84 0-55.84 25-55.84 55.84s25 55.841 55.84 55.841c5.488 0 10.786-.805 15.796-2.281-23.145-6.816-40.044-28.208-40.044-53.559z" fill="#6b7ed9"/><path d="m216.938 433.052-2.615 1.067-8.191 11.332-1.982 9.014 1.982 12.233 5.616 7.598 5.476 4.841c8.532-4.126 14.417-12.864 14.417-22.977 0-10.225-6.018-19.04-14.703-23.108z" fill="#dbedff"/><path d="m206.132 456.16c0-9.44 5.132-17.677 12.755-22.088-3.753-2.172-8.107-3.421-12.755-3.421-14.088 0-25.509 11.421-25.509 25.509s11.421 25.509 25.509 25.509c4.648 0 9.002-1.249 12.755-3.421-7.623-4.411-12.755-12.648-12.755-22.088z" fill="#b5dcff"/></g></svg>