<svg id="Filled" height="512" viewBox="0 0 512 512" width="512" xmlns="http://www.w3.org/2000/svg"><path d="m104 184h352a0 0 0 0 1 0 0v80a64 64 0 0 1 -64 64h-224a64 64 0 0 1 -64-64v-80a0 0 0 0 1 0 0z" fill="#a3d4f7"/><path d="m296 184-40-160s56 40 120 16c0 0 0 56 64 72 0 0-8 40 16 72z" fill="#e9eef2"/><path d="m313.9 184h-49.9l-40-152 32-8 37.16 148.64z" fill="#dadcde"/><path d="m96 184h368v32h-368z" fill="#99c7e8"/><path d="m215.029 12.755h33.941v486.489h-33.941z" fill="#e9eef2" transform="matrix(.707 -.707 .707 .707 -113.068 239.029)"/><path d="m59.029 77.373h33.941v45.255h-33.941z" fill="#99c7e8" transform="matrix(.707 -.707 .707 .707 -48.451 83.029)"/><path d="m127.833 343.029h192.333v33.941h-192.333z" fill="#e9eef2" transform="matrix(.707 -.707 .707 .707 -188.95 263.833)"/><circle cx="416" cy="440" fill="#757c80" r="48"/><circle cx="416" cy="440" fill="#dadcde" r="16"/><circle cx="280" cy="312" fill="#dadcde" r="32"/><circle cx="144" cy="424" fill="#757c80" r="64"/><circle cx="144" cy="424" fill="#dadcde" r="32"/><path d="m77.657 66.343a8 8 0 0 0 -11.314 0l-24 24a8 8 0 0 0 0 11.314l74.343 74.343h-20.686a8 8 0 0 0 -8 8v32a8 8 0 0 0 8 8v40a72.081 72.081 0 0 0 72 72h44.686l-28.374 28.373a71.926 71.926 0 1 0 29.319 41.31l55.269-55.263a39.816 39.816 0 0 0 22.21 0l71.8 71.8a56.046 56.046 0 1 0 35.315-35.315l-50.911-50.905h44.686a72.081 72.081 0 0 0 72-72v-40a8 8 0 0 0 8-8v-32a8 8 0 0 0 -8-8h-3.849c-18.713-28.083-12.372-62.095-12.306-62.431a8 8 0 0 0 -5.905-9.33c-56.878-14.219-57.923-62.234-57.94-64.239a8 8 0 0 0 -10.809-7.49c-59.082 22.152-112.024-14.653-112.541-15.02a7.986 7.986 0 0 0 -6.586-1.232v-.019l-32 8a8 8 0 0 0 -5.8 9.8l37.359 141.961h-66.309zm171.832 219.832-158.175-158.175 12.686-12.686 160.025 160.025a40.2 40.2 0 0 0 -14.536 10.836zm-177.489-202.862 20.686 20.687-12.686 12.686-20.687-20.686zm32 108.687h28.686l16 16h-44.686zm64 128a56.063 56.063 0 0 1 -56-56v-40h52.686l76.894 76.9a39.8 39.8 0 0 0 -1.42 7.63l-11.474 11.47zm-24 160a56 56 0 1 1 56-56 56.063 56.063 0 0 1 -56 56zm63.18-90.495a72.381 72.381 0 0 0 -10.674-14.7l46.833-46.833a40.208 40.208 0 0 0 10.836 14.535zm48.82-77.505a24 24 0 1 1 24 24 24.028 24.028 0 0 1 -24-24zm200 128a40 40 0 1 1 -40-40 40.045 40.045 0 0 1 40 40zm-85.4-32.719-64.77-64.77a40.208 40.208 0 0 0 10.836-14.535l66.62 66.619a56.472 56.472 0 0 0 -12.686 12.686zm77.4-143.281a56.063 56.063 0 0 1 -56 56h-60.686l-11.474-11.475a40.055 40.055 0 0 0 -36.365-36.365l-48.161-48.16h212.686zm-6.384-88h-111.727l100.837-50.419c-.286 12.764 1.379 31.84 10.89 50.419zm-22.243-62.631-103.822 51.911 56.859-102.345a85.479 85.479 0 0 0 4.435 10.643c6.507 13.014 18.972 29.278 42.528 39.791zm-59.773-60.327-60.753 109.358-30.547-122.177c19.208 9.31 52.83 20.797 91.3 12.819zm-125.8-15.242 16.381-4.1 35.573 142.3h-15.587zm222.2 154.2v16h-236.686l-16-16z"/><path d="m416 464a24 24 0 1 0 -24-24 24.028 24.028 0 0 0 24 24zm0-32a8 8 0 1 1 -8 8 8.009 8.009 0 0 1 8-8z"/><path d="m144 384a40 40 0 1 0 40 40 40.045 40.045 0 0 0 -40-40zm0 64a24 24 0 1 1 24-24 24.028 24.028 0 0 1 -24 24z"/></svg>