<svg id="Flat" height="512" viewBox="0 0 512 512" width="512" xmlns="http://www.w3.org/2000/svg"><path d="m104 184h352a0 0 0 0 1 0 0v80a64 64 0 0 1 -64 64h-224a64 64 0 0 1 -64-64v-80a0 0 0 0 1 0 0z" fill="#a3d4f7"/><path d="m296 184-40-160s56 40 120 16c0 0 0 56 64 72 0 0-8 40 16 72z" fill="#e9eef2"/><path d="m443.58 119.16-129.68 64.84h-49.9l-40-152 32-8 37.16 148.64 75.85-136.52a7.995 7.995 0 1 1 13.98 7.76l-67.44 121.4 120.87-60.44a8.005 8.005 0 1 1 7.16 14.32z" fill="#dadcde"/><path d="m96 184h368v32h-368z" fill="#99c7e8"/><path d="m215.029 12.755h33.941v486.489h-33.941z" fill="#e9eef2" transform="matrix(.707 -.707 .707 .707 -113.068 239.029)"/><path d="m59.029 77.373h33.941v45.255h-33.941z" fill="#99c7e8" transform="matrix(.707 -.707 .707 .707 -48.451 83.029)"/><path d="m127.833 343.029h192.333v33.941h-192.333z" fill="#e9eef2" transform="matrix(.707 -.707 .707 .707 -188.95 263.833)"/><circle cx="416" cy="440" fill="#757c80" r="48"/><circle cx="416" cy="440" fill="#dadcde" r="16"/><circle cx="280" cy="312" fill="#dadcde" r="32"/><circle cx="144" cy="424" fill="#757c80" r="64"/><circle cx="144" cy="424" fill="#dadcde" r="32"/></svg>