<svg id="_x33_0" enable-background="new 0 0 64 64" height="512" viewBox="0 0 64 64" width="512" xmlns="http://www.w3.org/2000/svg"><g><g><g><path d="m32 14.5c0-1.6-.64-3.14-1.77-4.27l-.23-.23.76-.76c.79-.79 1.24-1.87 1.24-3 0-1.17-.48-2.23-1.24-3-.77-.76-1.83-1.24-3-1.24-1.16 0-2.3.27-3.33.79l-.43.21c-1.32.66-2.77 1-4.24 1h-3.98c-2.46 0-4.86.77-6.86 2.2-.14.1-.28.2-.41.31-1.08.84-1.99 1.85-2.71 2.99-.81 1.28-1.37 2.72-1.64 4.25l-2.1 11.93c-.04.21-.06.43-.06.64 0 1.02.41 1.94 1.08 2.6.66.67 1.58 1.08 2.6 1.08h4.32v-1c0-.55.45-1 1-1h19l1.06-1.59c.61-.92.94-2 .94-3.1 0-1.48-.59-2.9-1.63-3.94l-.37-.37.23-.23c1.13-1.13 1.77-2.67 1.77-4.27z" fill="#ff826e"/></g><g><path d="m49 32v8.75c-1.24-.48-2.59-.75-4-.75-1.79 0-3.47.42-4.96 1.18l-5.14-4.41 1.43-2.57c.36-.64.33-1.42-.05-2.03l.2-.17z" fill="#cf9e76"/></g><g><path d="m22.82 35.81-7.79 6.19h-4.03c-.55 0-1-.45-1-1v-9h12.62l.01.01c-.41.5-.63 1.13-.63 1.79 0 .75.3 1.47.82 2.01z" fill="#cf9e76"/></g><g><path d="m49 29v3h-12.52l4.78-4h6.74c.55 0 1 .45 1 1z" fill="#d3a06c"/></g><g><path d="m30 28-6.39 3.2c-.39.2-.73.47-.98.81l-.01-.01h-12.62v-2-1c0-.55.45-1 1-1z" fill="#d3a06c"/></g><g><path d="m62 10.79v.23c0 .63-.25 1.23-.69 1.67l-6.66 6.66c-.41.41-.98.65-1.58.65-.57 0-1.12-.22-1.53-.61-.08-.07-.15-.15-.21-.23l-2.81-3.51c-.04-.05-.08-.11-.12-.17-.26-.38-.4-.84-.4-1.32 0-.73.34-1.42.92-1.88l7.44-5.78c.41-.32.93-.5 1.45-.5.75 0 1.45.35 1.9.95l1.82 2.42c.3.41.47.91.47 1.42z" fill="#aab2bd"/></g><g><path d="m34.9 36.77 5.14 4.41c-1.47.74-2.76 1.81-3.75 3.11l-2.29-2.29-1.3-1.3c.06-.08.11-.16.16-.24z" fill="#ffeaa7"/></g><g><path d="m36.12 31.95-3.11-3.73c-.09-.1-.18-.2-.28-.28l15.67-12.46c.04.06.08.12.12.17l2.81 3.51c.06.08.13.16.21.23l-10.28 8.61-4.78 4-.2.17c-.05-.08-.1-.15-.16-.22z" fill="#ffeaa7"/></g><g><path d="m26.97 39.97-2.42 2.03-8.33 6.97c-1.46-1.81-3.71-2.97-6.22-2.97l5.03-4 7.79-6.19c0 .01.02.03.03.04z" fill="#ffeaa7"/></g><g><path d="m32.73 27.94c.1.08.19.18.28.28l3.11 3.73c.06.07.11.14.16.22.38.61.41 1.39.05 2.03l-1.43 2.57-2.04 3.69c-.05.08-.1.16-.16.24-.55.81-1.47 1.3-2.46 1.3-.79 0-1.56-.32-2.12-.88l-1.15-1.15-4.12-4.12c-.01-.01-.03-.03-.03-.04-.52-.54-.82-1.26-.82-2.01 0-.66.22-1.29.63-1.79.25-.34.59-.61.98-.81l6.39-3.2.58-.29c.71-.36 1.55-.26 2.15.23z" fill="#fcd770"/></g><g><path d="m30.56 32.06c.85-.29 1.67.53 1.38 1.38l-.93 2.81c-.26.77-1.24 1-1.82.43l-1.87-1.87c-.57-.58-.34-1.56.43-1.82z" fill="#5cd6b3"/></g><g><path d="m49 40.75c4.1 1.6 7 5.58 7 10.25 0 6.08-4.92 11-11 11s-11-4.92-11-11c0-2.53.85-4.86 2.29-6.71.99-1.3 2.28-2.37 3.75-3.11 1.49-.76 3.17-1.18 4.96-1.18 1.41 0 2.76.27 4 .75zm3 10.25c0-3.87-3.13-7-7-7s-7 3.13-7 7 3.13 7 7 7 7-3.13 7-7z" fill="#969faa"/></g><g><path d="m16.22 48.97c1.11 1.37 1.78 3.12 1.78 5.03 0 4.42-3.58 8-8 8s-8-3.58-8-8 3.58-8 8-8c2.51 0 4.76 1.16 6.22 2.97zm-2.22 5.03c0-2.21-1.79-4-4-4s-4 1.79-4 4 1.79 4 4 4 4-1.79 4-4z" fill="#969faa"/></g></g><g><path d="m10 49c-2.757 0-5 2.243-5 5s2.243 5 5 5 5-2.243 5-5-2.243-5-5-5zm2.816 4h-1.816v-1.816c.847.302 1.514.969 1.816 1.816zm-3.816-1.816v1.816h-1.816c.302-.847.969-1.514 1.816-1.816zm-1.816 3.816h1.816v1.816c-.847-.302-1.514-.969-1.816-1.816zm3.816 1.816v-1.816h1.816c-.302.847-.969 1.514-1.816 1.816z"/><path d="m37 51c0 4.411 3.589 8 8 8s8-3.589 8-8-3.589-8-8-8-8 3.589-8 8zm5.586-1h-3.496c.154-.909.51-1.749 1.025-2.471zm-1.057-3.885c.722-.515 1.562-.871 2.471-1.025v3.496zm1.057 5.885-2.471 2.471c-.515-.722-.871-1.562-1.025-2.471zm1.414 1.414v3.496c-.909-.154-1.749-.51-2.471-1.025zm2 0 2.471 2.471c-.722.515-1.562.871-2.471 1.025zm1.414-1.414h3.496c-.154.909-.51 1.749-1.025 2.471zm0-2 2.471-2.471c.515.722.871 1.562 1.025 2.471zm-1.414-1.414v-3.496c.909.154 1.749.51 2.471 1.025z"/><path d="m62.325 8.767-1.813-2.418c-.634-.845-1.642-1.349-2.698-1.349-.746 0-1.481.252-2.07.71l-7.438 5.786c-.83.645-1.306 1.618-1.306 2.669 0 .347.061.689.165 1.017l-14.531 11.55c-.167-.07-.339-.128-.516-.166.568-.993.882-2.104.882-3.255 0-1.606-.571-3.124-1.618-4.321 1.048-1.26 1.618-2.831 1.618-4.49 0-1.654-.566-3.22-1.608-4.478l.072-.072c.991-.991 1.536-2.307 1.536-3.707 0-2.891-2.352-5.243-5.243-5.243-1.304 0-2.61.309-3.776.892l-.429.214c-1.17.585-2.48.894-3.788.894h-3.983c-2.683 0-5.255.824-7.438 2.384-2.745 1.96-4.579 4.869-5.165 8.19l-2.106 11.934c-.048.266-.072.54-.072.814 0 2.579 2.099 4.678 4.678 4.678h3.322v10c0 1.103.897 2 2 2h1.167l-2.54 2.019c-4.788.197-8.627 4.144-8.627 8.981 0 4.962 4.038 9 9 9s9-4.038 9-9c0-1.786-.529-3.448-1.43-4.849l7.342-6.151h8.674l1.402 1.402c-1.253 1.895-1.988 4.161-1.988 6.598 0 6.617 5.383 12 12 12s12-5.383 12-12c0-4.831-2.876-8.994-7-10.895v-11.105c0-1.103-.897-2-2-2h-3.991l7.593-6.362c.45.231.95.362 1.473.362.864 0 1.677-.336 2.288-.948l6.65-6.65c.636-.637.987-1.484.987-2.384v-.227c0-.726-.24-1.444-.675-2.024zm-30.344 31.208c-.352.632-1.019 1.025-1.742 1.025-.524 0-1.038-.213-1.409-.583l-5.272-5.272c-.354-.356-.558-.847-.558-1.349 0-.727.404-1.38 1.054-1.705l6.977-3.488c.144-.072.297-.106.449-.106.289 0 .571.125.767.36l3.108 3.73c.263.315.305.767.106 1.125zm-19.548 5.368 10.305-8.191 2.753 2.753-9.179 7.69c-1.067-1.052-2.397-1.834-3.879-2.252zm9.751-14.343h-11.184v-2h14.764l-2.604 1.302c-.368.184-.693.423-.976.698zm11.998-2.944 14.049-11.167 1.899 2.374-13.707 11.483zm-14.418-23.056c1.617 0 3.236-.382 4.683-1.105l.429-.214c.89-.446 1.886-.681 2.881-.681 1.788 0 3.243 1.455 3.243 3.243 0 .866-.337 1.68-.95 2.293l-1.464 1.464.939.939c.951.952 1.475 2.216 1.475 3.561s-.524 2.609-1.475 3.561l-.939.939 1.073 1.073c.865.865 1.341 2.015 1.341 3.238 0 .907-.266 1.785-.769 2.54l-.386.58-19.785-19.785c1.718-1.076 3.68-1.646 5.721-1.646zm-14.086 24c-1.477 0-2.678-1.201-2.678-2.678 0-.155.013-.311.041-.465l2.106-11.935c.415-2.354 1.581-4.454 3.312-6.049l19.127 19.127h-16.586c-1.103 0-2 .897-2 2zm5.322 12v-8h10.09c-.053.259-.09.524-.09.796 0 .645.172 1.258.465 1.813l-6.782 5.391zm-1 20c-3.86 0-7-3.14-7-7s3.14-7 7-7 7 3.14 7 7-3.14 7-7 7zm23.955-20.459 1.228-2.21 3.15 2.7c-.767.515-1.464 1.123-2.092 1.796zm21.045 10.459c0 5.514-4.486 10-10 10s-10-4.486-10-10 4.486-10 10-10 10 4.486 10 10zm-10-12c-1.703 0-3.322.362-4.791 1.005l-4.035-3.459 1.034-1.862c.29-.521.406-1.109.362-1.684h10.43v6.395c-.961-.249-1.963-.395-3-.395zm3-10v2h-8.766l2.387-2zm13-17.982c0 .361-.146.715-.402.97l-6.65 6.65c-.5.501-1.395.451-1.838-.102l-2.807-3.509c-.196-.243-.303-.55-.303-.862 0-.429.194-.826.533-1.09l7.438-5.786c.24-.186.539-.289.843-.289.43 0 .84.205 1.098.549l1.814 2.418c.176.236.274.529.274.824z"/><path d="m30.242 31.109-2.809.937c-.693.231-1.208.793-1.375 1.505-.168.712.04 1.445.557 1.962l1.873 1.873c.398.4.926.614 1.473.614.162 0 .325-.019.488-.057.711-.168 1.274-.683 1.505-1.375l.937-2.81c.252-.757.059-1.579-.506-2.143s-1.384-.759-2.143-.506zm-.185 4.826-.156.037-1.898-1.961c.012-.051.047-.063.062-.067l2.81-.937.119.119z"/><path d="m27 5h2v2h-2z"/><path d="m27 13h2v2h-2z"/><path d="m27 21h2v2h-2z"/></g></g></svg>