<svg id="Layer_1" enable-background="new 0 0 512 512" height="512" viewBox="0 0 512 512" width="512" xmlns="http://www.w3.org/2000/svg"><g id="XMLID_1_"><g id="XMLID_3356_"><path id="XMLID_1276_" d="m399 376h-184l8.7 10.6c20.5 25 51.1 39.4 83.3 39.4 32.3 0 62.9-14.5 83.3-39.4z" fill="#d84861"/><g id="XMLID_1964_" fill="#c22945"><path id="XMLID_1965_" d="m399 376h-45.9l18.4 28.6c6.9-5.2 13.3-11.2 18.8-18z"/><path id="XMLID_1966_" d="m215 376 8.7 10.6c5.5 6.8 11.8 12.8 18.7 17.9l13.6-28.5z"/></g><path id="XMLID_1279_" d="m133.9 103 82.1-60h88l37.7 29.9-115.8 104.4 89.4 101.7h86.7v28h-207z" fill="#d84861"/><path id="XMLID_1998_" d="m229.6 307h96.8l-183.7-210.4-8.8 6.4 12.6 42 98.6 122z" fill="#c22945"/><g id="XMLID_1278_"><path id="XMLID_1962_" d="m153.6 105.2h134.7v10h-134.7z" fill="#9cd3fc" transform="matrix(.074 .997 -.997 .074 314.562 -118.283)"/></g><g id="XMLID_1277_"><path id="XMLID_1961_" d="m259.9 32.5h10v155.4h-10z" fill="#9cd3fc" transform="matrix(.865 .503 -.503 .865 91.26 -118.233)"/></g><g id="XMLID_1958_"><path id="XMLID_1960_" d="m278.8 47.1h10v156h-10z" fill="#9cd3fc" transform="matrix(.67 .743 -.743 .67 186.583 -169.416)"/></g><circle id="XMLID_1294_" cx="416" cy="472" fill="#3279af" r="35"/><circle id="XMLID_1957_" cx="416" cy="472" fill="#275e87" r="15"/><circle id="XMLID_1293_" cx="176" cy="467" fill="#3279af" r="40"/><circle id="XMLID_194_" cx="176" cy="467" fill="#275e87" r="20"/><g id="XMLID_1281_"><path id="XMLID_1282_" d="m176 467c-4.8-2.7-6.6-8.8-3.9-13.6l162.4-293.8c2.7-4.8 8.8-6.6 13.6-3.9 4.8 2.7 6.6 8.8 3.9 13.6l-162.4 293.8c-2.7 4.8-8.8 6.6-13.6 3.9z" fill="#9cd3fc"/></g><g id="XMLID_1274_"><path id="XMLID_1275_" d="m416 472c-4.5-3.2-5.5-9.5-2.3-14l14.6-20.4-363.4-413c-2.5-2.9-3.9-6.6-3.9-10.4 0-5.1 4.1-9.2 9.2-9.2 2.6 0 5.1 1.1 6.9 3.1l371.5 422.3c3.1 3.5 3.3 8.6.6 12.4l-19.2 26.9c-3.3 4.5-9.5 5.5-14 2.3z" fill="#9cd3fc"/></g><g fill="#3279af"><path id="XMLID_1938_" d="m118.3 55-14.2 14.2-39.2-44.6c-2.5-2.9-3.9-6.6-3.9-10.4 0-2.5 1-4.8 2.7-6.5 1.6-1.7 3.9-2.7 6.5-2.7 1.3 0 2.6.3 3.8.8s2.2 1.3 3.1 2.3z"/><circle id="XMLID_1273_" cx="288" cy="262.8" r="25"/></g></g></g></svg>