<svg id="Layer_1" enable-background="new 0 0 512 512" height="512" viewBox="0 0 512 512" width="512" xmlns="http://www.w3.org/2000/svg"><g id="XMLID_1_"><g id="XMLID_3356_"><path id="XMLID_1276_" d="m399 376h-184l8.7 10.6c20.5 25 51.1 39.4 83.3 39.4 32.3 0 62.9-14.5 83.3-39.4z" fill="#d84861"/><g id="XMLID_1964_" fill="#c22945"><path id="XMLID_1965_" d="m399 376h-45.9l18.4 28.6c6.9-5.2 13.3-11.2 18.8-18z"/><path id="XMLID_1966_" d="m215 376 8.7 10.6c5.5 6.8 11.8 12.8 18.7 17.9l13.6-28.5z"/></g><path id="XMLID_1279_" d="m133.9 103 82.1-60h88l37.7 29.9-115.8 104.4 89.4 101.7h86.7v28h-207z" fill="#d84861"/><path id="XMLID_1998_" d="m229.6 307h96.8l-183.7-210.4-8.8 6.4 12.6 42 98.6 122z" fill="#c22945"/><g id="XMLID_1278_"><path id="XMLID_1962_" d="m153.6 105.2h134.7v10h-134.7z" fill="#9cd3fc" transform="matrix(.074 .997 -.997 .074 314.562 -118.283)"/></g><g id="XMLID_1277_"><path id="XMLID_1961_" d="m259.9 32.5h10v155.4h-10z" fill="#9cd3fc" transform="matrix(.865 .503 -.503 .865 91.26 -118.233)"/></g><g id="XMLID_1958_"><path id="XMLID_1960_" d="m278.8 47.1h10v156h-10z" fill="#9cd3fc" transform="matrix(.67 .743 -.743 .67 186.583 -169.416)"/></g><circle id="XMLID_1294_" cx="416" cy="472" fill="#3279af" r="35"/><circle id="XMLID_1957_" cx="416" cy="472" fill="#275e87" r="15"/><circle id="XMLID_1293_" cx="176" cy="467" fill="#3279af" r="40"/><circle id="XMLID_194_" cx="176" cy="467" fill="#275e87" r="20"/><g id="XMLID_1281_"><path id="XMLID_1282_" d="m176 467c-4.8-2.7-6.6-8.8-3.9-13.6l162.4-293.8c2.7-4.8 8.8-6.6 13.6-3.9 4.8 2.7 6.6 8.8 3.9 13.6l-162.4 293.8c-2.7 4.8-8.8 6.6-13.6 3.9z" fill="#9cd3fc"/></g><g id="XMLID_1274_"><path id="XMLID_1275_" d="m416 472c-4.5-3.2-5.5-9.5-2.3-14l14.6-20.4-363.4-413c-2.5-2.9-3.9-6.6-3.9-10.4 0-5.1 4.1-9.2 9.2-9.2 2.6 0 5.1 1.1 6.9 3.1l371.5 422.3c3.1 3.5 3.3 8.6.6 12.4l-19.2 26.9c-3.3 4.5-9.5 5.5-14 2.3z" fill="#9cd3fc"/></g><g fill="#3279af"><path id="XMLID_1938_" d="m118.3 55-14.2 14.2-39.2-44.6c-2.5-2.9-3.9-6.6-3.9-10.4 0-2.5 1-4.8 2.7-6.5 1.6-1.7 3.9-2.7 6.5-2.7 1.3 0 2.6.3 3.8.8s2.2 1.3 3.1 2.3z"/><circle id="XMLID_1273_" cx="288" cy="262.8" r="25"/></g></g><g id="XMLID_3198_"><g id="XMLID_180_"><path id="XMLID_2685_" d="m416 512c-22.1 0-40-17.9-40-40s17.9-40 40-40c4.4 0 8.8.7 13 2.2l-3.2 9.5c-3.1-1.1-6.4-1.6-9.7-1.6-16.5 0-30 13.5-30 30s13.5 30 30 30 30-13.5 30-30c0-6.7-2.2-13.1-6.3-18.4l7.9-6.1c5.5 7.1 8.4 15.6 8.4 24.6-.1 21.9-18.1 39.8-40.1 39.8z" fill="#4d241a"/></g><g id="XMLID_382_"><path id="XMLID_2684_" d="m176 512c-24.8 0-45-20.2-45-45s20.2-45 45-45c3.8 0 7.6.5 11.2 1.4l-2.5 9.7c-2.8-.7-5.8-1.1-8.7-1.1-19.3 0-35 15.7-35 35s15.7 35 35 35 35-15.7 35-35c0-9.7-3.9-18.7-10.9-25.4l6.9-7.3c9.1 8.6 14.1 20.2 14.1 32.7-.1 24.8-20.3 45-45.1 45z" fill="#4d241a"/></g><g id="XMLID_182_"><g id="XMLID_1124_"><path id="XMLID_2683_" d="m180.8 473.2c-2.5 0-4.9-.6-7.2-1.9-3.5-1.9-6-5.1-7.2-9-1.1-3.8-.7-7.9 1.3-11.4l96.4-174.4 8.8 4.8-96.4 174.4c-1.3 2.4-.5 5.5 2 6.8 2.4 1.3 5.5.5 6.8-2l97.2-175.9 8.8 4.8-97.3 176.1c-2.8 4.9-7.9 7.7-13.2 7.7z" fill="#4d241a"/></g><g id="XMLID_195_"><path id="XMLID_2682_" d="m312.7 250.7-8.8-4.8 43.6-79c.6-1.2.8-2.5.4-3.8s-1.2-2.3-2.4-3c-1.2-.6-2.5-.8-3.8-.4s-2.3 1.2-3 2.4l-43.2 78.2-8.8-4.8 43.2-78.2c1.9-3.5 5.1-6 9-7.2 3.8-1.1 7.9-.7 11.4 1.3 3.5 1.9 6 5.1 7.2 9 1.1 3.8.7 7.9-1.3 11.4z" fill="#4d241a"/></g></g><g id="XMLID_1049_"><path id="XMLID_2681_" d="m402 312h-62v-10h57v-18h-82v-10h87c2.8 0 5 2.2 5 5v28c0 2.8-2.2 5-5 5z" fill="#4d241a"/></g><g id="XMLID_1048_"><path id="XMLID_2680_" d="m229.2 181-6.7-7.4 111.5-100.5-31.7-25.1h-84.6l-64.7 47.2-5.9-8.1 65.9-48.1c.9-.6 1.9-1 3-1h88c1.1 0 2.2.4 3.1 1.1l37.7 29.9c1.2.9 1.8 2.3 1.9 3.8 0 1.5-.6 2.9-1.6 3.9z" fill="#4d241a"/></g><g id="XMLID_192_"><path id="XMLID_2679_" d="m233 312h-38c-2.2 0-4.2-1.4-4.8-3.6l-61.1-204 9.6-2.9 60 200.5h34.3z" fill="#4d241a"/></g><g id="XMLID_191_"><path id="XMLID_2678_" d="m153.6 105.2h134.7v10h-134.7z" fill="#4d241a" transform="matrix(.074 .997 -.997 .074 314.562 -118.283)"/></g><g id="XMLID_193_"><path id="XMLID_2677_" d="m259.9 32.5h10v155.4h-10z" fill="#4d241a" transform="matrix(.865 .503 -.503 .865 91.26 -118.233)"/></g><g id="XMLID_1129_"><path id="XMLID_2676_" d="m307 431c-30.9 0-60.7-12.9-81.9-35.3l7.3-6.9c19.3 20.4 46.5 32.1 74.7 32.1 20.1 0 39.6-5.8 56.4-16.9l5.5 8.4c-18.5 12.2-39.9 18.6-62 18.6z" fill="#4d241a"/></g><g id="XMLID_165_"><path id="XMLID_2675_" d="m237.7 371h136.3v10h-136.3z" fill="#4d241a"/></g><g id="XMLID_166_"><g id="XMLID_1126_"><path id="XMLID_2674_" d="m261.7 255.9-200.5-228c-3.3-3.8-5.2-8.7-5.2-13.8 0-7.7 6.3-14.1 14.2-14.1 4.1 0 7.9 1.8 10.6 4.8l203.5 231.3-7.5 6.6-203.5-231.3c-.8-.9-1.9-1.4-3.1-1.4-2.3 0-4.2 1.9-4.2 4.2 0 2.6 1 5.2 2.7 7.1l200.6 228z" fill="#4d241a"/></g><g id="XMLID_196_"><path id="XMLID_2673_" d="m421.8 478.9c-3 0-6.1-.9-8.7-2.8-3.3-2.3-5.4-5.8-6.1-9.7-.7-4 .3-7.9 2.6-11.2l12.3-17.2-130.5-148.3 7.5-6.6 133.1 151.2c1.5 1.7 1.7 4.3.3 6.2l-14.6 20.5c-.8 1.1-1.1 2.4-.9 3.7s.9 2.5 2 3.2c2.2 1.6 5.4 1.1 7-1.2l19.2-26.9c1.4-1.9 1.2-4.5-.3-6.2l-137.9-156.7 7.5-6.6 137.9 156.8c4.6 5.3 5 12.9.9 18.6l-19.1 26.9c-2.9 4.1-7.5 6.3-12.2 6.3z" fill="#4d241a"/></g></g><g id="XMLID_190_"><path id="XMLID_2670_" d="m288 292.8c-16.5 0-30-13.5-30-30s13.5-30 30-30 30 13.5 30 30-13.5 30-30 30zm0-50c-11 0-20 9-20 20s9 20 20 20 20-9 20-20-9-20-20-20z" fill="#4d241a"/></g><g id="XMLID_82_"><path id="XMLID_2669_" d="m106.2 52.1h10v20h-10z" fill="#4d241a" transform="matrix(.707 .707 -.707 .707 76.462 -60.447)"/></g><g id="XMLID_241_"><path id="XMLID_1170_" d="m276 302h37v10h-37z" fill="#4d241a"/></g></g></g></svg>