<svg id="Capa_1" enable-background="new 0 0 512 512" height="512" viewBox="0 0 512 512" width="512" xmlns="http://www.w3.org/2000/svg"><g><g><path d="m190.941 355.596 112.895 69.599-14.889 26.064-115.364-71.121z" fill="#e2d6d1"/><path d="m330.794 504.5c-24.853 0-45-20.147-45-45 0-24.853 20.147-45 45-45 24.853 0 45 20.147 45 45 0 24.853-20.147 45-45 45z" fill="#6f6571"/><path d="m375.789 459.5c0 12.42-5.03 23.68-13.18 31.82-8.14 8.14-19.39 13.18-31.82 13.18-5.26 0-10.3-.9-14.99-2.57 6.39-2.25 12.12-5.92 16.81-10.61 8.15-8.14 13.18-19.4 13.18-31.82s-5.03-23.68-13.18-31.82c-4.69-4.69-10.42-8.36-16.81-10.61 4.69-1.67 9.73-2.57 14.99-2.57 12.43 0 23.68 5.04 31.82 13.18 8.15 8.14 13.18 19.4 13.18 31.82z" fill="#5d5360"/><path d="m330.794 474.5c-8.284 0-15-6.716-15-15 0-8.284 6.716-15 15-15 8.284 0 15 6.716 15 15 0 8.284-6.716 15-15 15z" fill="#f0e5e0"/><path d="m205.794 17.5c-40 29.167-85.5 4-85.5 4l.003.007-.007-.007c-4.66 65.5-57 70-57 70 20 48.17-.5 75-.5 75l153 10z" fill="#fcaa72"/><path d="m205.789 166.5-142.5-75s52.34-4.5 57-70l.01.01z" fill="#ea9357"/><path d="m225.794 7.5h-10c-5.523 0-10 4.477-10 10v159h30v-159c0-5.523-4.477-10-10-10z" fill="#f9c269"/><path d="m338.794 291.5h-191c-46.944 0-85-38.056-85-85v-20h361v20c0 46.944-38.056 85-85 85z" fill="#fcaa72"/><path d="m423.789 186.5v20c0 46.94-38.05 85-85 85h-30c46.95 0 85-38.06 85-85v-20z" fill="#ea9357"/><path d="m428.794 196.5h-371c-5.523 0-10-4.477-10-10v-10c0-5.523 4.477-10 10-10h371c5.523 0 10 4.477 10 10v10c0 5.523-4.477 10-10 10z" fill="#f9e385"/><path d="m438.789 176.5v10c0 5.52-4.47 10-10 10h-30c5.53 0 10-4.48 10-10v-10c0-5.52-4.47-10-10-10h30c5.53 0 10 4.48 10 10z" fill="#f9c269"/><path d="m449.205 103.076-45.009.001c-8.869 0-17.283 3.924-22.983 10.719l-255.905 305.047 22.696 19.624 253.195-301.817c1.9-2.265 4.705-3.573 7.661-3.573h39.92c8.077 0 15.027-6.207 15.407-14.275.406-8.615-6.458-15.726-14.982-15.726z" fill="#f0e5e0"/><path d="m464.189 118.8c-.38 8.07-7.33 14.28-15.41 14.28h-29.92c8.05-.04 14.95-6.24 15.33-14.28.4-8.61-6.46-15.72-14.98-15.72h30c8.52 0 15.38 7.11 14.98 15.72z" fill="#e2d6d1"/><path d="m110.794 504.5c-24.853 0-45-20.147-45-45 0-24.853 20.147-45 45-45 24.853 0 45 20.147 45 45 0 24.853-20.147 45-45 45z" fill="#6f6571"/><path d="m155.789 459.5c0 12.42-5.03 23.68-13.18 31.82-8.14 8.14-19.39 13.18-31.82 13.18-5.26 0-10.3-.9-14.99-2.57 6.39-2.25 12.12-5.92 16.81-10.61 8.15-8.14 13.18-19.4 13.18-31.82s-5.03-23.68-13.18-31.82c-4.69-4.69-10.42-8.36-16.81-10.61 4.69-1.67 9.73-2.57 14.99-2.57 12.43 0 23.68 5.04 31.82 13.18 8.15 8.14 13.18 19.4 13.18 31.82z" fill="#5d5360"/><path d="m110.794 474.5c-8.284 0-15-6.716-15-15 0-8.284 6.716-15 15-15 8.284 0 15 6.716 15 15 0 8.284-6.716 15-15 15z" fill="#f0e5e0"/><path d="m243.294 329.5c-20.711 0-37.5-16.789-37.5-37.5 0-20.711 16.789-37.5 37.5-37.5 20.711 0 37.5 16.789 37.5 37.5 0 20.711-16.789 37.5-37.5 37.5z" fill="#6f6571"/><path d="m280.789 292c0 10.36-4.19 19.73-10.98 26.52-6.79 6.78-16.16 10.98-26.52 10.98-5.33 0-10.41-1.12-15-3.12 4.33-1.89 8.23-4.57 11.52-7.86 6.79-6.79 10.98-16.16 10.98-26.52s-4.19-19.73-10.98-26.52c-3.29-3.29-7.19-5.97-11.52-7.86 4.59-2 9.67-3.12 15-3.12 10.36 0 19.73 4.2 26.52 10.98 6.79 6.79 10.98 16.16 10.98 26.52z" fill="#5d5360"/><path d="m243.294 302c-5.514 0-10-4.486-10-10s4.486-10 10-10 10 4.486 10 10-4.486 10-10 10z" fill="#f0e5e0"/></g><g><path d="m330.794 482c12.406 0 22.5-10.093 22.5-22.5s-10.094-22.5-22.5-22.5-22.5 10.093-22.5 22.5 10.094 22.5 22.5 22.5zm0-30c4.136 0 7.5 3.364 7.5 7.5s-3.364 7.5-7.5 7.5-7.5-3.364-7.5-7.5 3.365-7.5 7.5-7.5z"/><path d="m449.204 95.576-45.009.001c-11.114 0-21.586 4.884-28.729 13.399l-41.965 50.024h-90.207v-141.5c0-9.649-7.851-17.5-17.5-17.5h-10c-8.153 0-15.002 5.613-16.936 13.172-14.291 9.49-30.881 12.831-49.363 9.902-14.889-2.36-25.48-8.088-25.571-8.137-4.695-2.622-10.723.685-11.111 6.03-4.128 57.942-48.236 62.875-50.19 63.063-4.976.446-8.13 5.762-6.255 10.346 14.403 34.686 6.141 57.003 2.199 64.624h-.772c-9.649 0-17.5 7.851-17.5 17.5v10c0 8.798 6.534 16.081 15 17.3v2.7c0 51.005 41.495 92.5 92.5 92.5h51.047c.817 5.21 2.531 10.125 4.979 14.584l-79.788 95.11c-4.231-1.103-8.667-1.694-13.238-1.694-28.948 0-52.5 23.551-52.5 52.5s23.552 52.5 52.5 52.5 52.5-23.551 52.5-52.5c0-7.805-1.725-15.211-4.793-21.876l32.056-38.212 88.065 54.291c-.21 1.905-.327 3.837-.327 5.796 0 28.949 23.552 52.5 52.5 52.5s52.5-23.551 52.5-52.5-23.552-52.5-52.5-52.5c-10.499 0-20.279 3.11-28.492 8.439l-82.515-50.87 23.136-27.579c.125.001.247.01.372.01 22.433 0 41.08-16.5 44.453-38h14.502c4.143 0 7.5-3.358 7.5-7.5s-3.357-7.5-7.5-7.5h-14.681c-.011-.063-.022-.126-.034-.188l66.952-79.811h61.806v2.5c0 42.734-34.767 77.5-77.5 77.5h-1.545c-4.143 0-7.5 3.358-7.5 7.5s3.357 7.5 7.5 7.5h1.545c51.005 0 92.5-41.495 92.5-92.5v-2.7c8.466-1.22 15-8.502 15-17.3v-10c0-9.649-7.851-17.5-17.5-17.5h-36.555l14.706-17.53c.477-.568 1.174-.894 1.915-.894h39.92c12.275 0 22.333-9.41 22.899-21.422.292-6.216-1.907-12.114-6.194-16.607-4.227-4.43-10.16-6.971-16.282-6.971zm-250.91-64.769v12.193c0 4.142 3.357 7.5 7.5 7.5s7.5-3.358 7.5-7.5v-25.5c0-1.378 1.121-2.5 2.5-2.5h10c1.379 0 2.5 1.122 2.5 2.5v141.5h-15v-81c0-4.142-3.357-7.5-7.5-7.5s-7.5 3.358-7.5 7.5v61.014l-60.772-103.063c15.689 4.059 38.251 6.068 60.772-5.144zm-104.026 56.453c10.905-7.431 23.799-20.797 30.06-44.153l61.594 104.459-102.781-54.096c3.532-1.583 7.313-3.611 11.127-6.21zm-17.942 19.574 99.115 52.166h-100.506c4.003-10.772 7.395-28.436 1.391-52.166zm-21.032 69.666c0-1.378 1.121-2.5 2.5-2.5h263.123l-12.584 15h-250.539c-1.379 0-2.5-1.122-2.5-2.5zm15 30v-2.5h225.456l-38.064 45.374c-4.522-1.531-9.359-2.374-14.392-2.374-22.082 0-40.487 15.992-44.273 37h-51.227c-42.733 0-77.5-34.766-77.5-77.5zm40.5 290.5c-20.678 0-37.5-16.822-37.5-37.5s16.822-37.5 37.5-37.5 37.5 16.822 37.5 37.5-16.822 37.5-37.5 37.5zm257.5-37.5c0 20.678-16.822 37.5-37.5 37.5s-37.5-16.822-37.5-37.5 16.822-37.5 37.5-37.5 37.5 16.822 37.5 37.5zm-77.734-33.678c-3.208 3.826-5.878 8.115-7.901 12.75l-82.359-50.774 9.743-11.615zm-140.652-1.294c-3.343-3.735-7.211-6.987-11.488-9.645l74.936-89.325c3.763 3.36 8.09 6.098 12.823 8.052zm93.386-102.528c-16.542 0-30-13.458-30-30s13.458-30 30-30 30 13.458 30 30-13.458 30-30 30zm185.5-148c1.379 0 2.5 1.122 2.5 2.5v10c0 1.378-1.121 2.5-2.5 2.5h-61.722l12.584-15zm19.987-48.424h-39.92c-5.187 0-10.073 2.279-13.407 6.253l-114.171 136.095c-2.732-4.294-6.168-8.094-10.15-11.24l115.825-138.067c4.286-5.109 10.569-8.039 17.237-8.04l45.009-.001c4.747.481 7.244 3.106 7.492 7.873-.185 3.93-3.736 7.127-7.915 7.127z"/><path d="m110.794 437c-12.406 0-22.5 10.093-22.5 22.5s10.094 22.5 22.5 22.5 22.5-10.093 22.5-22.5-10.093-22.5-22.5-22.5zm0 30c-4.136 0-7.5-3.364-7.5-7.5s3.364-7.5 7.5-7.5 7.5 3.364 7.5 7.5-3.364 7.5-7.5 7.5z"/><path d="m243.294 282c-5.514 0-10 4.486-10 10s4.486 10 10 10 10-4.486 10-10-4.486-10-10-10z"/></g></g></svg>