<svg id="Capa_1" enable-background="new 0 0 512 512" height="512" viewBox="0 0 512 512" width="512" xmlns="http://www.w3.org/2000/svg"><g><path d="m188.977 358.602 116.303 71.699-15.338 26.851-118.847-73.267z" fill="#e2d6d1"/><path d="m333.051 512c-25.603 0-46.358-20.755-46.358-46.358 0-25.603 20.755-46.358 46.358-46.358 25.603 0 46.358 20.755 46.358 46.358.001 25.603-20.755 46.358-46.358 46.358z" fill="#6f6571"/><path d="m379.405 465.642c0 12.795-5.182 24.395-13.578 32.78-8.386 8.386-19.975 13.578-32.78 13.578-5.419 0-10.611-.927-15.442-2.648 6.583-2.318 12.486-6.099 17.317-10.93 8.396-8.386 13.578-19.986 13.578-32.78s-5.182-24.395-13.578-32.78c-4.831-4.831-10.734-8.612-17.317-10.93 4.831-1.72 10.024-2.648 15.442-2.648 12.805 0 24.395 5.192 32.78 13.578 8.396 8.385 13.578 19.985 13.578 32.78z" fill="#5d5360"/><path d="m333.051 481.095c-8.534 0-15.453-6.918-15.453-15.453 0-8.534 6.918-15.453 15.453-15.453 8.534 0 15.453 6.918 15.453 15.453 0 8.534-6.918 15.453-15.453 15.453z" fill="#f0e5e0"/><path d="m204.279 10.302c-41.207 30.047-88.08 4.121-88.08 4.121l.003.007-.007-.007c-4.801 67.477-58.72 72.113-58.72 72.113 20.604 49.624-.515 77.264-.515 77.264l157.618 10.302z" fill="#fcaa72"/><path d="m204.274 163.799-146.801-77.264s53.92-4.636 58.72-72.113l.01.01z" fill="#ea9357"/><path d="m224.882 0h-10.302c-5.69 0-10.302 4.612-10.302 10.302v163.799h30.905v-163.799c.001-5.69-4.611-10.302-10.301-10.302z" fill="#f9c269"/><path d="m341.293 292.571h-196.765c-48.361 0-87.565-39.204-87.565-87.565v-20.604h371.895v20.604c0 48.361-39.204 87.565-87.565 87.565z" fill="#fcaa72"/><path d="m428.853 184.402v20.604c0 48.357-39.198 87.565-87.565 87.565h-30.905c48.367 0 87.565-39.209 87.565-87.565v-20.604z" fill="#ea9357"/><path d="m434.009 194.704h-382.197c-5.69 0-10.302-4.612-10.302-10.302v-10.302c0-5.69 4.612-10.302 10.302-10.302h382.197c5.69 0 10.302 4.612 10.302 10.302v10.302c0 5.69-4.612 10.302-10.302 10.302z" fill="#f9e385"/><path d="m444.306 174.101v10.302c0 5.687-4.605 10.302-10.302 10.302h-30.905c5.697 0 10.302-4.615 10.302-10.302v-10.302c0-5.687-4.605-10.302-10.302-10.302h30.905c5.697 0 10.302 4.615 10.302 10.302z" fill="#f9c269"/><path d="m455.036 98.461-46.367.001c-9.136 0-17.805 4.043-23.677 11.043l-263.628 314.252 23.381 20.216 260.837-310.926c1.957-2.333 4.847-3.681 7.892-3.681h41.125c8.321 0 15.48-6.394 15.872-14.706.418-8.873-6.653-16.199-15.435-16.199z" fill="#f0e5e0"/><path d="m470.473 114.659c-.391 8.314-7.551 14.711-15.875 14.711h-30.823c8.293-.041 15.401-6.428 15.793-14.711.412-8.87-6.655-16.194-15.432-16.194h30.905c8.777 0 15.844 7.324 15.432 16.194z" fill="#e2d6d1"/><path d="m106.412 512c-25.603 0-46.358-20.755-46.358-46.358 0-25.603 20.755-46.358 46.358-46.358 25.603 0 46.358 20.755 46.358 46.358 0 25.603-20.756 46.358-46.358 46.358z" fill="#6f6571"/><path d="m152.765 465.642c0 12.795-5.182 24.395-13.578 32.78-8.386 8.386-19.975 13.578-32.78 13.578-5.419 0-10.611-.927-15.442-2.648 6.583-2.318 12.486-6.099 17.317-10.93 8.396-8.386 13.578-19.986 13.578-32.78s-5.182-24.395-13.578-32.78c-4.832-4.831-10.735-8.612-17.317-10.93 4.831-1.72 10.024-2.648 15.442-2.648 12.805 0 24.395 5.192 32.78 13.578 8.396 8.385 13.578 19.985 13.578 32.78z" fill="#5d5360"/><path d="m106.412 481.095c-8.534 0-15.453-6.918-15.453-15.453 0-8.534 6.918-15.453 15.453-15.453 8.534 0 15.453 6.918 15.453 15.453-.001 8.534-6.919 15.453-15.453 15.453z" fill="#f0e5e0"/><path d="m242.911 331.718c-21.336 0-38.632-17.296-38.632-38.632 0-21.336 17.296-38.632 38.632-38.632 21.336 0 38.632 17.296 38.632 38.632-.001 21.336-17.297 38.632-38.632 38.632z" fill="#6f6571"/><path d="m281.538 293.087c0 10.673-4.316 20.325-11.311 27.32-6.995 6.985-16.648 11.311-27.32 11.311-5.491 0-10.724-1.154-15.453-3.214 4.461-1.947 8.478-4.708 11.868-8.097 6.995-6.995 11.311-16.648 11.311-27.32s-4.317-20.325-11.311-27.32c-3.389-3.389-7.407-6.15-11.868-8.097 4.728-2.06 9.962-3.214 15.453-3.214 10.673 0 20.325 4.327 27.32 11.311 6.994 6.994 11.311 16.647 11.311 27.32z" fill="#5d5360"/><path d="m242.911 303.388c-5.68 0-10.302-4.621-10.302-10.302s4.622-10.302 10.302-10.302 10.302 4.621 10.302 10.302-4.622 10.302-10.302 10.302z" fill="#f0e5e0"/></g></svg>