<?xml version="1.0" encoding="iso-8859-1"?>
<!-- Generator: Adobe Illustrator 19.0.0, SVG Export Plug-In . SVG Version: 6.00 Build 0)  -->
<svg version="1.1" id="Capa_1" xmlns="http://www.w3.org/2000/svg" xmlns:xlink="http://www.w3.org/1999/xlink" x="0px" y="0px"
	 viewBox="0 0 512 512" style="enable-background:new 0 0 512 512;" xml:space="preserve">
<path style="fill:#76C9D2;" d="M229.359,477.893H78.133v-94.679c0-12.845,10.413-23.258,23.258-23.258h222.461l-29.216,73.613
	C284.017,460.326,258.146,477.893,229.359,477.893z"/>
<path style="opacity:0.2;enable-background:new    ;" d="M101.392,359.957c-12.845,0-23.258,10.413-23.258,23.258v7.765H311.54
	l12.313-31.023H101.392z"/>
<path style="opacity:0.05;enable-background:new    ;" d="M101.392,359.957c-12.845,0-23.258,10.413-23.258,23.258v94.679h34.424
	v-94.679c0-12.845,10.413-23.258,23.258-23.258L101.392,359.957L101.392,359.957z"/>
<path style="fill:#F0B0B7;" d="M128.874,297.487h186.131c51.892,0,101.103-23.051,134.321-62.918l0,0
	c12.077-14.494,18.69-32.762,18.69-51.627v-18.575H75.671c-17.5,0-31.687,14.187-31.687,31.687v16.544
	C43.984,259.48,81.991,297.487,128.874,297.487z"/>
<path style="opacity:0.3;fill:#FFFFFF;enable-background:new    ;" d="M75.672,164.366c-17.5,0-31.687,14.187-31.687,31.687v16.544
	c0,0.499,0.029,0.992,0.038,1.489H461.75c4.1-9.793,6.266-20.37,6.266-31.145v-18.575H75.672z"/>
<path style="opacity:0.1;fill:#513130;enable-background:new    ;" d="M85.217,212.597v-16.544
	c0-17.501,14.187-31.687,31.687-31.687H75.671c-17.5,0-31.687,14.187-31.687,31.687v16.544c0,46.883,38.006,84.89,84.89,84.89
	h41.232C123.223,297.487,85.217,259.48,85.217,212.597z"/>
<path style="fill:#76C9D2;" d="M285.731,0h47.12C407.5,0,468.015,60.515,468.015,135.164v29.202H286.028L266.014,22.699
	C264.321,10.712,273.626,0,285.731,0z"/>
<path style="opacity:0.2;enable-background:new    ;" d="M285.731,0h19.699l23.221,164.366h-42.623L266.014,22.699
	C264.321,10.712,273.626,0,285.731,0z"/>
<path style="fill:#E77587;" d="M399.604,384.023l-123.021-51.121V230.927c0-5.268-2.009-10.535-6.028-14.554L92.688,38.506
	c-8.039-8.038-21.07-8.038-29.109,0c-8.038,8.038-8.038,21.07,0,29.109l171.838,171.838v97.081L91.68,447.641
	c-8.994,6.952-10.649,19.879-3.697,28.872c4.056,5.247,10.144,7.996,16.299,7.996c4.396,0,8.826-1.403,12.573-4.299l142.28-109.98
	l108.133,44.934l-15.014,57.533c-2.87,10.999,3.719,22.243,14.718,25.113c1.743,0.455,3.491,0.672,5.211,0.672
	c9.139-0.001,17.486-6.134,19.901-15.39l19.537-74.864C414.214,398.291,409.087,387.963,399.604,384.023z"/>
<path style="opacity:0.1;fill:#513130;enable-background:new    ;" d="M270.555,216.372l-28.561-28.561
	c-13.766,4.469-24.639,15.342-29.109,29.109l22.533,22.533v31.859c6.178,3.155,13.169,4.946,20.582,4.946
	c7.414,0,14.405-1.791,20.583-4.946v-40.385C276.583,225.659,274.573,220.391,270.555,216.372z"/>
<circle style="fill:#4A5058;" cx="256" cy="230.93" r="32.31"/>
<path style="opacity:0.1;fill:#513130;enable-background:new    ;" d="M139.407,410.748L91.68,447.641
	c-8.994,6.952-10.649,19.879-3.697,28.872c4.056,5.247,10.144,7.996,16.299,7.996c4.396,0,8.826-1.403,12.573-4.299l47.73-36.894
	C159.992,429.871,151.042,418.453,139.407,410.748z"/>
<circle style="fill:#4A5058;" cx="104.27" cy="463.93" r="48.07"/>
<circle style="fill:#FFFFFF;" cx="104.27" cy="463.93" r="20.14"/>
<path style="opacity:0.1;fill:#513130;enable-background:new    ;" d="M372.169,429.603c-3.037,0-6.005,0.294-8.886,0.83
	l-11.029,42.263c-2.87,10.999,3.719,22.243,14.718,25.113c1.743,0.455,3.491,0.672,5.211,0.672
	c9.139-0.001,17.486-6.134,19.901-15.39l11.029-42.264C394.733,433.823,383.946,429.603,372.169,429.603z"/>
<circle style="fill:#4A5058;" cx="372.17" cy="477.89" r="34.11"/>
<circle style="fill:#FFFFFF;" cx="372.17" cy="477.89" r="7.494"/>
<g>
</g>
<g>
</g>
<g>
</g>
<g>
</g>
<g>
</g>
<g>
</g>
<g>
</g>
<g>
</g>
<g>
</g>
<g>
</g>
<g>
</g>
<g>
</g>
<g>
</g>
<g>
</g>
<g>
</g>
</svg>
