<svg height="512" viewBox="0 0 59 58" width="512" xmlns="http://www.w3.org/2000/svg"><g id="Page-1" fill="none" fill-rule="evenodd"><g id="002---Push-Chair-Love" fill-rule="nonzero"><path id="Shape" d="m23.08 35.84.01.01 7.664 6.175c.2513538.202427.3938958.5105169.3854625.8331379-.0084332.322621-.1668764.6228433-.4284625.8118621l-3 2.17 2.05 3.36 4.562-3.421c.3671828-.274005.8708172-.274005 1.238 0l4.67 3.465 2.06-3.4-3.091-2.239c-.2605634-.1885144-.4186884-.4874427-.4278958-.8089177s.1315492-.6289635.3808958-.8320823l7.457-6.074-6.17.11-4.789 3.878c-.3792818.3060871-.9207182.3060871-1.3 0l-4.791-3.878z" fill="#95a5a5"/><path id="Shape" d="m57 24c.0042537 3.1839-1.2586623 6.2386191-3.5100216 8.4899784s-5.3060784 3.5142753-8.4899784 3.5100216h-20c-6.627417 0-12-5.372583-12-12l23-1z" fill="#285680"/><path id="Shape" d="m57 17v3l-22 2 2-20h5c8.2831279.00275966 14.9972403 6.71687211 15 15z" fill="#2980ba"/><path id="Shape" d="m59 22c-.0081672 1.1011688-.8988312 1.9918328-2 2h-44c-1.1032019-.0032948-1.9967052-.8967981-2-2 .0081672-1.1011688.8988312-1.9918328 2-2h44c1.1032019.0032948 1.9967052.8967981 2 2z" fill="#84b5cb"/><path id="Shape" d="m37 2v18h-4.0000277l.0000277-18c-.0028231-.53059053.2101411-1.0395388.59-1.41.3704612-.3798589.8794095-.59282307 1.41-.59 1.1032019.0032948 1.9967052.89679813 2 2z" fill="#9fc9d3"/><circle id="Oval" cx="23" cy="51" fill="#3f5c6c" r="7"/><circle id="Oval" cx="23" cy="51" fill="#95a5a5" r="3"/><circle id="Oval" cx="47" cy="51" fill="#3f5c6c" r="7"/><circle id="Oval" cx="47" cy="51" fill="#95a5a5" r="3"/><path id="Shape" d="m6.947 1.863c.60417291-1.1167492 1.75781091-1.82676823 3.027-1.863.8712428.05438436 1.6836801.45802845 2.2532987 1.11950888.5696186.66148044.8482196 1.52482526.7727013 2.39449112 0 2.635-2.463 4.159-6.053 7.486-3.589-3.327-6.047-4.851-6.047-7.486-.0758148-.86891354.2020138-1.73168112.77061955-2.39307821s1.37992704-1.06551886 2.25038045-1.12092179c1.26894968.03617575 2.42231438.74626115 3.026 1.863z" fill="#df4d60"/><path id="Shape" d="m10.75.116c-.21 1.974-1.415 7.468-8.15 6.895-.10606162-.10222517-.20622336-.21039985-.3-.324-.85821222-.83767229-1.3597693-1.97441559-1.4-3.173-.0758148-.86891354.2020138-1.73168112.77061955-2.39307821s1.37992704-1.06551886 2.25038045-1.12092179c1.26903814.03678656 2.42226429.74716777 3.026 1.864.60391315-1.11713547 1.75760041-1.82756594 3.027-1.864.0457487-.00099597.0915135.00100833.137.006.2171096.00646849.4322246.04349924.639.11z" fill="#ff5364"/><path id="Shape" d="m22.053 6.863c.6036856-1.11673885 1.7570503-1.82682425 3.026-1.863.8713459.05411405 1.6839512.45768136 2.253626 1.11922704s.8481749 1.52504525.772374 2.39477296c0 2.635-2.463 4.159-6.052 7.486-3.59-3.327-6.053-4.851-6.053-7.486-.0755183-.86966586.2030827-1.73301068.7727013-2.39449112.5696186-.66148043 1.3820559-1.06512452 2.2532987-1.11950888 1.2691891.03623177 2.4228271.7462508 3.027 1.863z" fill="#df4d60"/><path id="Shape" d="m25.855 5.116c-.209 1.974-1.414 7.468-8.155 6.9-.1057948-.1024864-.2059425-.2106458-.3-.324-.8593895-.8389074-1.3610459-1.97766734-1.4-3.178-.0758009-.86972771.2026992-1.73322728.772374-2.39477296s1.3822801-1.06511299 2.253626-1.11922704c1.2693996.03643406 2.4230868.74686453 3.027 1.864.6037357-1.11683223 1.7569619-1.82721344 3.026-1.864.0460812-.00097434.0921772.00102983.138.006.2167733.00656203.4315451.04359165.638.11z" fill="#ff5364"/></g></g></svg>