<svg id="Capa_1" enable-background="new 0 0 512 512" height="512" viewBox="0 0 512 512" width="512" xmlns="http://www.w3.org/2000/svg"><g><g><path d="m92.563 353.792h30v77.981h-30z" fill="#00215a"/></g><g><path d="m107.563 512c-29.875 0-54.181-24.306-54.181-54.182 0-29.875 24.306-54.181 54.181-54.181s54.181 24.306 54.181 54.181c0 29.876-24.306 54.182-54.181 54.182z" fill="#00409f"/></g><g><path d="m329.047 353.792h30v77.981h-30z" fill="#001737"/></g><g><path d="m289.866 457.818c0-29.875 24.306-54.181 54.181-54.181s54.181 24.306 54.181 54.181c0 29.876-24.306 54.182-54.181 54.182s-54.181-24.306-54.181-54.182z" fill="#00215a"/></g><g><g><g><path d="m19.745 227.069 26.338 138.776h359.444l26.338-138.776z" fill="#00d6de"/></g><g><path d="m225.805 227.069v138.776h179.722l26.338-138.776z" fill="#00959b"/></g><g><path d="m85.626 0-69.644 63.407v124.61h188.563v-188.017z" fill="#00d6de"/></g><g><path d="m451.61 174.241h-30v-80.073h90.39v30h-60.39z" fill="#cef2fb"/></g></g><g><path d="m193.428 0h64.755v188.017h-64.755z" fill="#cef2fb"/></g><g><path d="m225.805 0h32.377v188.017h-32.377z" fill="#a7eaf9"/></g></g><g><path d="m0 171.957h451.61v67.013h-451.61z" fill="#a7eaf9"/></g><g><path d="m225.805 171.957h225.805v67.013h-225.805z" fill="#00d6de"/></g></g></svg>