<svg id="Capa_1" enable-background="new 0 0 512.006 512.006" height="512" viewBox="0 0 512.006 512.006" width="512" xmlns="http://www.w3.org/2000/svg"><g><g><path d="m309.706 376.003c0 8.399-6.899 15-15 15h-128.7c-8.401 0-15-6.601-15-15 0-8.401 6.599-15 15-15h128.699c8.101 0 15.001 6.599 15.001 15z" fill="#ecf2ff"/></g><path d="m309.706 376.003c0 8.399-6.899 15-15 15h-68.699v-30h68.699c8.1 0 15 6.599 15 15z" fill="#d9e5ff"/><g><path d="m331.123 455.958c-5.186 0-10.254-2.71-13.037-7.559l-70.84-124.955c-4.102-7.192-1.611-16.348 5.596-20.464 7.09-4.116 16.289-1.685 20.479 5.581l70.84 124.955c4.102 7.192 1.611 16.348-5.596 20.464-2.344 1.348-4.893 1.978-7.442 1.978z" fill="#d9e5ff"/></g><path d="m211.006.003h-15c-29.361 0-57.123 7.711-82.123 19.386l31.432 88.549 80.69 73.065v-166c.001-8.285-6.715-15-14.999-15z" fill="#4d5e80"/><path d="m26.937 97.606 70.76 59.372 128.309 24.025-112.123-161.614c-35.973 16.798-66.941 44.185-86.946 78.217z" fill="#3d4566"/><path d="m.006 196.003h196l30-15-199.069-83.397c-17.003 28.927-26.931 62.488-26.931 98.397z" fill="#2e2e4d"/><path d="m447.842 186.775c-2.842-3.647-7.207-5.771-11.836-5.771h-210-211c-4.629 0-8.994 2.124-11.836 5.771-2.842 3.633-3.838 8.379-2.725 12.861l18.633 74.546c8.379 33.457 38.291 56.821 72.773 56.821h134.154 133.155c34.482 0 64.395-23.364 72.773-56.821l18.633-74.546c1.114-4.483.118-9.229-2.724-12.861z" fill="#8aebab"/><path d="m431.934 274.182 18.633-74.546c1.113-4.482.117-9.229-2.725-12.861-2.842-3.647-7.207-5.771-11.836-5.771h-210v150h133.154c34.483-.001 64.395-23.365 72.774-56.822z" fill="#71d9a3"/><path d="m362.061 121.003h104.945c8.262 0 15 6.724 15 15 0 8.291 6.709 15 15 15s15-6.709 15-15c0-24.814-20.186-45-45-45h-104.945c-15.088 0-29.062 7.485-37.441 20.039l-98.613 147.92v54.082l123.573-185.361c2.784-4.19 7.442-6.68 12.481-6.68z" fill="#d9e5ff"/><path d="m467.006 91.003h-104.945c-15.088 0-29.062 7.485-37.441 20.039l-98.613 147.92-115.84 174.76c-4.6 6.899-2.725 16.201 4.16 20.801 2.549 1.699 5.449 2.52 8.32 2.52 4.834 0 9.58-2.344 12.48-6.68l90.879-137.318 123.574-185.362c2.783-4.189 7.441-6.68 12.48-6.68h104.945c8.262 0 15 6.724 15 15 0 8.291 6.709 15 15 15s15-6.709 15-15c.001-24.814-20.184-45-44.999-45z" fill="#ecf2ff"/><path d="m226.006 313.044 123.574-185.361c2.783-4.189 7.441-6.68 12.48-6.68h104.945c8.262 0 15 6.724 15 15 0 8.291 6.709 15 15 15s15-6.709 15-15c0-24.814-20.186-45-45-45h-104.944c-15.088 0-29.062 7.485-37.441 20.039l-98.613 147.92v54.082z" fill="#d9e5ff"/><g><path d="m346.006 512.003c-24.814 0-45-20.186-45-45s20.186-45 45-45 45 20.186 45 45-20.185 45-45 45z" fill="#3d4566"/></g><circle cx="346.006" cy="467.003" fill="#d9e5ff" r="15"/><g><path d="m106.006 512.003c-24.814 0-45-20.186-45-45s20.186-45 45-45 45 20.186 45 45-20.185 45-45 45z" fill="#4d5e80"/></g><circle cx="106.006" cy="467.003" fill="#d9e5ff" r="15"/></g></svg>