<svg id="Capa_1" enable-background="new 0 0 512 512" height="512" viewBox="0 0 512 512" width="512" xmlns="http://www.w3.org/2000/svg"><path d="m296.879 210.68 28.337 28.337c-8.507 3.199-15.27 9.962-18.469 18.469l-46.806-46.806h-143.829v88.804c0 14.944 12.114 27.058 27.058 27.058h109.384l52.623-52.623c2.233 13.204 12.652 23.624 25.856 25.856l-26.767 26.767h71.537l-28.337-28.337c8.507-3.2 15.269-9.962 18.469-18.469l46.806 46.806h56.496c14.944 0 27.058-12.114 27.058-27.058v-88.804z" fill="#df75a5"/><g fill="#dd5790"><path d="m117.042 306.541c3.105 11.521 13.626 20 26.128 20h109.384l20-20z"/><path d="m324.266 306.541-20 20h71.537l-20-20z"/><path d="m456.294 210.68v44.5c0 28.366-22.995 51.361-51.361 51.361h-12.193l20 20h56.496c14.944 0 27.058-12.114 27.058-27.058v-88.803z"/></g><circle cx="336.34" cy="268.611" fill="#617881" r="31.608"/><circle cx="170.839" cy="434.112" fill="#617881" r="67.094"/><circle cx="170.839" cy="434.112" fill="#d0e2e7" r="40.519"/><circle cx="170.839" cy="434.112" fill="#f1f4f6" r="13.079"/><path d="m305.177 273.918-101.61 101.61c10.824 6.06 19.796 15.032 25.856 25.856l101.609-101.609c-13.203-2.233-23.623-12.653-25.855-25.857z" fill="#d0e2e7"/><path d="m491.197 414.211c0 5.043-4.088 9.131-9.131 9.131h-40.381c-5.043 0-9.131-4.088-9.131-9.131v-8.409c0-5.043 4.088-9.131 9.131-9.131h40.381c5.043 0 9.131 4.088 9.131 9.131z" fill="#bed8fb"/><path d="m491.197 414.211c0 5.043-4.088 9.131-9.131 9.131h-40.381c-5.043 0-9.131-4.088-9.131-9.131v-8.409c0-5.043 4.088-9.131 9.131-9.131h40.381c5.043 0 9.131 4.088 9.131 9.131z" fill="#d0e2e7"/><path d="m448.817 423.342v26.496c0 7.213 5.847 13.059 13.059 13.059s13.059-5.847 13.059-13.059v-26.496z" fill="#b4d0d5"/><path d="m474.936 396.67c0-5.08-2.018-9.952-5.61-13.544l-103.392-103.391c-3.2 8.507-9.962 15.269-18.469 18.469l98.466 98.466z" fill="#f1f4f6"/><path d="m474.936 425.587v24.251c0 7.213-5.847 13.059-13.059 13.059s-13.059-5.847-13.059-13.059v-24.252c-15.079 5.368-25.873 19.767-25.873 36.687 0 21.502 17.431 38.932 38.932 38.932 21.502 0 38.932-17.431 38.932-38.932-.001-16.92-10.795-31.318-25.873-36.686z" fill="#617881"/><path d="m345.618 24.845v150.676h150.676c0-83.216-67.46-150.676-150.676-150.676z" fill="#df75a5"/><path d="m392.183 32.179c23.426 16.471 41.947 39.446 52.939 66.301 11.149 27.237-9.273 57.042-38.704 57.042h-60.801v20h150.677c0-66.965-43.685-123.728-104.111-143.343z" fill="#dd5790"/><path d="m360.617 175.522 126.056-72.778c3.587-2.071 4.816-6.658 2.745-10.245-2.071-3.588-6.66-4.817-10.245-2.745l-113.065 65.278 65.663-113.73c2.071-3.587.842-8.174-2.745-10.245-3.589-2.072-8.175-.843-10.245 2.745l-73.163 126.72v15z" fill="#e490b7"/><path d="m345.617 10.794h-35.157c-4.143 0-7.5 3.358-7.5 7.5v157.228c0 4.142 3.357 7.5 7.5 7.5h35.157c4.143 0 7.5-3.358 7.5-7.5v-157.228c0-4.142-3.357-7.5-7.5-7.5z" fill="#475959"/><path d="m504.5 168.022h-396.595c-4.143 0-7.5 3.358-7.5 7.5v35.158c0 4.142 3.357 7.5 7.5 7.5h396.595c4.143 0 7.5-3.358 7.5-7.5v-35.158c0-4.142-3.357-7.5-7.5-7.5z" fill="#617881"/><path d="m259.901 370.906-25.764 25.764h211.795l-25.765-25.764z" fill="#617881"/><circle cx="336.34" cy="268.611" fill="#d0e2e7" r="7.5"/><path d="m489.418 92.498c-2.071-3.588-6.66-4.817-10.245-2.745l-31.428 18.145c.955 6.218.417 12.377-1.35 18.1l40.277-23.254c3.588-2.071 4.817-6.658 2.746-10.246z" fill="#df75a5"/><path d="m421.458 59.162 10.312-17.861c2.071-3.587.842-8.174-2.745-10.245-3.589-2.072-8.175-.843-10.245 2.745l-7.984 13.828c3.75 3.656 7.309 7.506 10.662 11.533z" fill="#df75a5"/><path d="m167.249 81.05-18.469 18.469 157.967 157.967c3.2-8.507 9.962-15.269 18.469-18.469z" fill="#f1f4f6"/><path d="m176.246 72.053-41.891-41.89c-4.868-4.87-11.344-7.552-18.231-7.552h-96.432c-10.858 0-19.692 8.834-19.692 19.693v12.181c0 10.858 8.834 19.692 19.692 19.692h85.752l34.338 34.339c1.407 1.407 3.314 2.197 5.304 2.197s3.896-.79 5.304-2.197l25.856-25.856c2.929-2.929 2.929-7.678 0-10.607z" fill="#617881"/></svg>