<svg id="Capa_1" enable-background="new 0 0 512 512" height="512" viewBox="0 0 512 512" width="512" xmlns="http://www.w3.org/2000/svg"><g><path d="m234.917 394.17 87.01-64.45-17.86-24.11-94.35 69.89-94.36-69.89-17.86 24.11 87.02 64.45-93.45 69.21 8.93 27.05h219.43l8.93-27.05zm-89.46 66.26 64.26-47.6 64.26 47.6z" fill="#fff5f5"/><path d="m328.357 463.38-8.93 27.05h-109.71v-30h64.26l-64.26-47.6v-37.33l94.35-69.89 17.86 24.11-87.01 64.45z" fill="#f2e8e4"/><path d="m389.177 231.436-22.277-20.093 78.205-86.699h40.038v30h-26.698z" fill="#dfd7d5"/><path d="m209.747 14.27v168.62h-168.64l.02-15c22.04-26.42 35.43-59.75 38.3-94.1l21.21-21.22c34.35-2.87 67.69-16.26 94.11-38.3h15z" fill="#ffa7b7"/><path d="m392.567 258.99v4.28c0 38.03-30.83 68.86-68.86 68.86h-227.99c-38.03 0-68.86-30.83-68.86-68.86v-80.38c5.09-4.69 9.86-9.71 14.27-15h132.4l-94.1-94.1c.39-4.64.59-9.3.59-13.96 0-2.26-.05-4.53-.14-6.79v-.02h.02c6.92.28 13.85.13 20.74-.45l94.11 94.11v-132.41c5.28-4.4 10.29-9.16 14.97-14.24l.03-.03h15v182.89z" fill="#ff738e"/><path d="m392.567 258.99v4.28c0 38.03-30.83 68.86-68.86 68.86h-113.99v-332.1l.03-.03h15v182.89z" fill="#ff3b62"/><path d="m392.567 182.89v76.1h-131.244c-20.2 0-36.57-16.38-36.57-36.58v-39.52z" fill="#ff738e"/><circle cx="100" cy="475.429" fill="#714b55" r="36.571"/><circle cx="319.429" cy="475.429" fill="#5c344b" r="36.571"/></g></svg>