<svg id="Capa_1" enable-background="new 0 0 512 512" height="512" viewBox="0 0 512 512" width="512" xmlns="http://www.w3.org/2000/svg"><g><path d="m422.183 92.16-28.212 79.345-116.84 50.245v-157.45c0-8.28 6.717-15 15.015-15h16.366c43.502 0 83.301 16.19 113.671 42.86z" fill="#fd3"/><path d="m481 221.75-110.787 42.868-93.082-42.868 145.052-129.59c36.035 31.62 58.817 78 58.817 129.59z" fill="#fb3"/><path d="m277.131 221.75 69.278 73.537-69.278 62.713h-94.132c-35.004 0-67.826-23.64-76.715-57.49l-17.517-59.96c-1.181-4.5-.21-9.29 2.633-12.97s7.237-5.83 11.892-5.83z" fill="#f66"/><path d="m481 221.75c-.03 1.29-.18 2.55-.491 3.8l-19.679 74.96c-8.889 33.85-39.539 57.49-74.553 57.49h-109.146v-136.25z" fill="#e62e6b"/><ellipse cx="168.108" cy="452" fill="#f5f1f0" rx="38.391" ry="38.354"/><ellipse cx="399.661" cy="467" fill="#f5f1f0" rx="33.28" ry="33.247"/><g><path d="m378.956 460.3c-3.845 0-7.688-1.466-10.621-4.397l-81.108-81.09c-5.861-5.86-5.858-15.357.008-21.213 5.864-5.854 15.371-5.853 21.234.008l81.108 81.09c5.861 5.86 5.858 15.357-.008 21.213-2.931 2.925-6.772 4.389-10.613 4.389z" fill="#d4c9c4"/></g><g><path d="m199.085 435.53c-3.841 0-7.681-1.463-10.613-4.39-5.866-5.855-5.869-15.353-.008-21.213l56.332-56.32c5.861-5.86 15.368-5.864 21.234-.008 5.866 5.855 5.869 15.353.008 21.213l-56.332 56.32c-2.932 2.932-6.776 4.398-10.621 4.398z" fill="#eae1de"/></g><g><path d="m168.108 512c-32.822 0-59.525-26.691-59.525-59.5s26.703-59.5 59.525-59.5 59.525 26.691 59.525 59.5-26.703 59.5-59.525 59.5zm0-89c-16.264 0-29.496 13.233-29.496 29.5s13.232 29.5 29.496 29.5 29.496-13.233 29.496-29.5-13.232-29.5-29.496-29.5z" fill="#5c7099"/></g><g><path d="m399.661 512c-24.825 0-45.021-20.187-45.021-45s20.196-45 45.021-45 45.021 20.187 45.021 45-20.196 45-45.021 45zm0-60c-8.267 0-14.992 6.729-14.992 15s6.725 15 14.992 15 14.992-6.729 14.992-15-6.725-15-14.992-15z" fill="#334973"/></g><g><path d="m255.852 336.79c-3.845 0-7.689-1.466-10.621-4.397l-142.953-142.921c-9.334-9.332-21.744-14.472-34.943-14.472h-21.32c-8.293 0-15.015-6.716-15.015-15s6.722-15 15.015-15h21.32c21.225 0 41.178 8.263 56.185 23.267l142.952 142.921c5.861 5.86 5.858 15.357-.008 21.213-2.93 2.926-6.772 4.389-10.612 4.389z" fill="#eae1de"/></g><g><path d="m277.131 302.19 20.407 47.02-20.407 34.6c-10.901 0-21.161-4.24-28.878-11.95-15.916-15.92-15.916-41.8 0-57.72 7.717-7.71 17.977-11.95 28.878-11.95z" fill="#fd3"/></g><path d="m306.009 371.86c-7.718 7.71-17.968 11.95-28.878 11.95v-81.62c10.911 0 21.161 4.24 28.878 11.95 15.916 15.92 15.916 41.8 0 57.72z" fill="#fb3"/><g><g><path d="m158.336 12.5 33.396 60.49-33.396 72.99c-3.84 0-7.68-1.46-10.61-4.39l-57.23-57.23c-19.26-19.27-19.26-50.63.01-69.9 9.63-9.64 22.29-14.46 34.95-14.46 11.77 0 23.54 4.17 32.88 12.5z" fill="#f66"/></g><path d="m226.166 84.36-57.23 57.23c-2.93 2.93-6.76 4.39-10.6 4.39v-133.48c19.38-17.29 49.23-16.64 67.83 1.96 19.27 19.27 19.27 50.63 0 69.9z" fill="#e62e6b"/></g></g></svg>