<?xml version="1.0" encoding="iso-8859-1"?>
<!-- Generator: Adobe Illustrator 19.0.0, SVG Export Plug-In . SVG Version: 6.00 Build 0)  -->
<svg version="1.1" id="Capa_1" xmlns="http://www.w3.org/2000/svg" xmlns:xlink="http://www.w3.org/1999/xlink" x="0px" y="0px"
	 viewBox="0 0 512.001 512.001" style="enable-background:new 0 0 512.001 512.001;" xml:space="preserve">
<path style="fill:#76C9D2;" d="M230.139,471.393H83.344v-91.905c0-12.469,10.108-22.577,22.577-22.577h215.944l-28.36,71.457
	C283.197,454.34,258.083,471.393,230.139,471.393z"/>
<path style="opacity:0.2;enable-background:new    ;" d="M105.921,356.911c-12.469,0-22.577,10.108-22.577,22.577v7.538h226.569
	l11.952-30.115H105.921z"/>
<path style="opacity:0.05;enable-background:new    ;" d="M105.921,356.911c-12.469,0-22.577,10.108-22.577,22.577v91.905h33.416
	v-91.905c0-12.469,10.108-22.577,22.577-22.577H105.921z"/>
<path style="fill:#F0B0B7;" d="M132.598,296.271h180.678c50.372,0,98.141-22.376,130.386-61.074l0,0
	c11.723-14.069,18.142-31.802,18.142-50.115v-18.031H80.954c-16.988,0-30.759,13.771-30.759,30.759v16.059
	C50.196,259.378,87.088,296.271,132.598,296.271z"/>
<path style="opacity:0.3;fill:#FFFFFF;enable-background:new    ;" d="M80.954,167.051c-16.988,0-30.759,13.771-30.759,30.759
	v16.059c0,0.485,0.028,0.963,0.036,1.445h405.49c3.98-9.506,6.082-19.773,6.082-30.232v-18.031L80.954,167.051L80.954,167.051z"/>
<path style="opacity:0.1;fill:#513130;enable-background:new    ;" d="M90.22,213.869V197.81c0-16.988,13.771-30.759,30.759-30.759
	H80.954c-16.988,0-30.759,13.771-30.759,30.759v16.059c0,45.51,36.893,82.403,82.403,82.403h40.024
	C127.113,296.271,90.22,259.378,90.22,213.869z"/>
<path style="fill:#76C9D2;" d="M284.86,7.5h45.74c72.462,0,131.204,58.742,131.204,131.205v28.346H285.148L265.721,29.534
	C264.077,17.898,273.109,7.5,284.86,7.5z"/>
<path style="opacity:0.2;enable-background:new    ;" d="M284.86,7.5h19.121l22.54,159.551h-41.374L265.721,29.534
	C264.077,17.898,273.109,7.5,284.86,7.5z"/>
<path style="fill:#E77587;" d="M395.397,380.272L275.98,330.649v-98.988c0-5.113-1.951-10.227-5.852-14.128L97.473,44.878
	c-7.803-7.802-20.452-7.802-28.256,0c-7.802,7.803-7.802,20.453,0,28.256l166.804,166.804v94.237L96.494,442.026
	c-8.73,6.749-10.337,19.297-3.589,28.026c3.937,5.093,9.847,7.762,15.822,7.762c4.267,0,8.568-1.362,12.205-4.173l138.112-106.758
	l104.965,43.618l-14.574,55.847c-2.786,10.677,3.61,21.591,14.287,24.377c1.692,0.442,3.388,0.652,5.059,0.652
	c8.872-0.001,16.974-5.954,19.319-14.939l18.964-72.671C409.579,394.122,404.602,384.097,395.397,380.272z"/>
<path style="opacity:0.1;fill:#513130;enable-background:new    ;" d="M270.128,217.533l-27.724-27.724
	c-13.363,4.339-23.917,14.893-28.256,28.256l21.873,21.873v30.926c5.997,3.063,12.783,4.801,19.979,4.801
	c7.196,0,13.983-1.739,19.98-4.801v-39.202C275.98,226.548,274.029,221.435,270.128,217.533z"/>
<circle style="fill:#4A5058;" cx="256" cy="231.66" r="31.367"/>
<path style="opacity:0.1;fill:#513130;enable-background:new    ;" d="M142.823,406.215l-46.329,35.811
	c-8.73,6.749-10.337,19.297-3.589,28.026c3.937,5.093,9.847,7.762,15.822,7.762c4.267,0,8.568-1.362,12.205-4.173l46.331-35.814
	C162.805,424.777,154.117,413.693,142.823,406.215z"/>
<circle style="fill:#4A5058;" cx="108.71" cy="457.83" r="46.666"/>
<circle style="fill:#FFFFFF;" cx="108.71" cy="457.83" r="19.549"/>
<path style="opacity:0.1;fill:#513130;enable-background:new    ;" d="M368.766,424.517c-2.948,0-5.829,0.285-8.626,0.806
	l-10.706,41.025c-2.786,10.677,3.61,21.591,14.287,24.377c1.692,0.442,3.388,0.652,5.059,0.652
	c8.872-0.001,16.974-5.954,19.319-14.939l10.706-41.026C390.669,428.613,380.197,424.517,368.766,424.517z"/>
<circle style="fill:#4A5058;" cx="368.77" cy="471.39" r="33.11"/>
<circle style="fill:#FFFFFF;" cx="368.77" cy="471.39" r="7.274"/>
<path d="M469.304,167.041v-28.337c0-40.733-17.807-79.25-48.855-105.673c-3.154-2.684-7.887-2.304-10.572,0.851
	c-2.685,3.154-2.304,7.888,0.851,10.572c27.694,23.569,43.577,57.922,43.577,94.25v20.846H333.037L312.616,15H330.6
	c19.172,0,37.544,4.264,54.606,12.672c3.716,1.83,8.212,0.303,10.043-3.412s0.303-8.212-3.412-10.043
	C372.694,4.783,352.091,0,330.6,0h-45.74c-7.775,0-15.157,3.366-20.255,9.235s-7.398,13.65-6.311,21.348l18.22,128.968h-53.761
	L102.776,39.574c-10.715-10.712-28.148-10.713-38.862,0c-10.714,10.714-10.714,28.148,0,38.862l81.114,81.114H80.955
	c-21.096,0-38.259,17.163-38.259,38.259v16.059c0,36.212,21.552,68.727,54.906,82.835c0.954,0.403,1.944,0.594,2.918,0.594
	c2.922-0.001,5.701-1.719,6.911-4.58c1.613-3.815-0.171-8.216-3.986-9.83c-25.013-10.579-42.052-33.584-45.211-60.074h150.057
	l8.842,8.842c0,0.002,0,0.003,0,0.005c0,10.711,4.355,20.424,11.388,27.461v29.65h-92.098c-4.142,0-7.5,3.358-7.5,7.5
	s3.358,7.5,7.5,7.5h92.098v26.72l-24.476,18.919h-98.124c-16.584,0-30.077,13.492-30.077,30.077v35.333
	c-12.935,9.908-21.298,25.499-21.298,43.013c0,29.867,24.299,54.166,54.166,54.166c22.402,0,41.672-13.671,49.905-33.107h37.987
	c4.142,0,7.5-3.358,7.5-7.5s-3.358-7.5-7.5-7.5H162.53c0.223-1.99,0.348-4.01,0.348-6.059c0-2.303-0.161-4.568-0.441-6.796
	l73.109-56.512h63.321l-12.333,31.076c-9.232,23.261-31.368,38.292-56.394,38.292h-1.592c-4.142,0-7.5,3.358-7.5,7.5
	s3.358,7.5,7.5,7.5h1.592c31.213,0,58.822-18.746,70.337-47.758l13.257-33.403l41.37,17.191l-5.381,20.62
	c-12.817,6.836-21.564,20.339-21.564,35.851c0,22.391,18.216,40.607,40.607,40.607s40.607-18.216,40.607-40.607
	c0-8.087-2.386-15.624-6.477-21.96l11.423-43.771c3.443-13.192-3.454-27.084-16.044-32.315L283.48,325.644v-21.872h29.796
	c52.754,0,102.378-23.245,136.148-63.774c5.42-6.504,9.797-13.75,13.06-21.455c0.079-0.166,0.154-0.333,0.221-0.505
	c4.317-10.378,6.6-21.581,6.6-32.956v-18.031C469.305,167.048,469.304,167.044,469.304,167.041z M273.147,28.484
	c-0.487-3.444,0.501-6.787,2.782-9.412C278.21,16.446,281.382,15,284.86,15h12.606l20.421,144.551h-26.225L273.147,28.484z
	 M57.695,207.814V197.81c0-12.825,10.434-23.259,23.259-23.259h79.073l33.263,33.263H57.695z M221.156,214.466l-4.456-4.456
	L74.521,67.83c-4.866-4.866-4.866-12.784,0-17.649c4.866-4.866,12.784-4.865,17.649-0.001l122.167,122.167
	c0.004,0.004,0.008,0.009,0.013,0.013l24.456,24.456C231.165,200.602,224.942,206.825,221.156,214.466z M256,207.794
	c13.161,0,23.867,10.707,23.867,23.867S269.16,255.528,256,255.528c-13.161,0-23.867-10.706-23.867-23.867
	c0-0.755,0.039-1.501,0.108-2.238c0.001-0.012,0.002-0.024,0.003-0.036C233.393,217.289,243.607,207.794,256,207.794z
	 M90.844,379.488c0-8.313,6.763-15.077,15.077-15.077h78.719l-19.553,15.114H90.844V379.488z M90.844,394.525h54.837l-16.857,13.03
	c-6.223-2.498-13.006-3.887-20.112-3.887c-6.26,0-12.27,1.08-17.868,3.042C90.844,406.71,90.844,394.525,90.844,394.525z
	 M108.712,497c-21.596,0-39.166-17.57-39.166-39.166s17.57-39.166,39.166-39.166s39.166,17.57,39.166,39.166
	C147.878,479.43,130.309,497,108.712,497z M254.951,379.525l5.234-4.046l9.736,4.046H254.951z M368.766,497
	c-14.12,0-25.607-11.487-25.607-25.607s11.487-25.607,25.607-25.607s25.607,11.487,25.607,25.607
	C394.374,485.513,382.886,497,368.766,497z M392.519,387.198c5.717,2.375,8.85,8.685,7.286,14.675l-9.213,35.303
	c-6.309-4.039-13.796-6.391-21.826-6.391c-0.779,0-1.551,0.027-2.319,0.071l4.818-18.462c0.945-3.62-0.923-7.383-4.379-8.819
	l-56.418-23.444c-0.025-0.011-0.05-0.021-0.075-0.031l-48.471-20.142c-2.486-1.033-5.335-0.655-7.465,0.992l-96.424,74.534
	c-3.509-7.712-8.767-14.463-15.276-19.738l97.851-75.637c1.837-1.42,2.913-3.612,2.913-5.934v-65.713
	c3.92,1.333,8.114,2.067,12.479,2.067c4.365,0,8.56-0.734,12.48-2.067v62.188c0,3.03,1.824,5.763,4.622,6.926L392.519,387.198z
	 M437.9,230.396c-30.912,37.099-76.335,58.376-124.624,58.376H283.48v-29.65c7.032-7.037,11.387-16.749,11.387-27.46
	c0-3.044-0.363-6.003-1.028-8.847h149.564C441.744,225.45,439.909,227.984,437.9,230.396z M454.305,185.082
	c0,7.778-1.306,15.455-3.775,22.732H286.658c-7.118-9.131-18.21-15.02-30.658-15.02c-0.001,0-0.003,0-0.004,0l-18.243-18.243h47.365
	c0.007,0,0.014,0.001,0.021,0.001c0.004,0,0.009-0.001,0.014-0.001h41.339c0.007,0,0.014,0.001,0.021,0.001
	c0.005,0,0.009-0.001,0.014-0.001h127.778V185.082z M108.712,430.785c-14.914,0-27.049,12.134-27.049,27.049
	c0,14.914,12.134,27.049,27.049,27.049s27.049-12.134,27.049-27.049C135.761,442.919,123.627,430.785,108.712,430.785z
	 M108.712,469.883c-6.644,0-12.049-5.405-12.049-12.049s5.405-12.049,12.049-12.049s12.049,5.405,12.049,12.049
	C120.761,464.478,115.356,469.883,108.712,469.883z"/>
<g>
</g>
<g>
</g>
<g>
</g>
<g>
</g>
<g>
</g>
<g>
</g>
<g>
</g>
<g>
</g>
<g>
</g>
<g>
</g>
<g>
</g>
<g>
</g>
<g>
</g>
<g>
</g>
<g>
</g>
</svg>
