<?xml version="1.0" encoding="iso-8859-1"?>
<!-- Generator: Adobe Illustrator 19.0.0, SVG Export Plug-In . SVG Version: 6.00 Build 0)  -->
<svg version="1.1" id="Capa_1" xmlns="http://www.w3.org/2000/svg" xmlns:xlink="http://www.w3.org/1999/xlink" x="0px" y="0px"
	 viewBox="0 0 512.001 512.001" style="enable-background:new 0 0 512.001 512.001;" xml:space="preserve">
<path style="fill:#867E88;" d="M292.072,440.371h-58.864c-8.504,0-16.66-3.378-22.673-9.391l-62.754-62.754h152.306l16.032,32.064
	L292.072,440.371z"/>
<path style="fill:#FF8087;" d="M35.554,199.887L35.554,199.887h192.387V7.5C121.689,7.5,35.554,93.634,35.554,199.887z"/>
<path style="fill:#FFB3B7;" d="M35.554,199.887l13.455,67.273c1.499,7.494,8.079,12.888,15.721,12.888h326.423
	c7.642,0,14.222-5.394,15.72-12.888l13.455-67.274L35.554,199.887L35.554,199.887z"/>
<g>
	<circle style="fill:#64505A;" cx="227.938" cy="239.97" r="16.03"/>
	<circle style="fill:#64505A;" cx="107.698" cy="448.39" r="16.03"/>
	<circle style="fill:#64505A;" cx="348.189" cy="448.39" r="16.03"/>
	<path style="fill:#64505A;" d="M420.329,119.726h40.081c8.854,0,16.032-7.178,16.032-16.032l0,0
		c0-8.854-7.178-16.032-16.032-16.032h-40.081c-8.854,0-16.032,7.178-16.032,16.032l0,0
		C404.297,112.548,411.475,119.726,420.329,119.726z"/>
</g>
<path style="fill:#FF979D;" d="M46.777,256l2.232,11.16c1.499,7.494,8.079,12.888,15.721,12.888h326.422
	c7.642,0,14.222-5.394,15.721-12.888l2.233-11.16H46.777z"/>
<path d="M460.41,80.161h-40.081c-10.354,0-19.16,6.724-22.3,16.032h-23.852c-8.427,0-16.35,3.282-22.308,9.241l-86.954,86.953
	h-29.474V7.5c0-4.142-3.358-7.5-7.5-7.5C117.787,0,28.16,89.567,28.057,199.698c0,0.002,0,0.003,0,0.005
	c0,0.062-0.002,0.123-0.002,0.184h0.008c0,0.49,0.04,0.982,0.138,1.471l13.455,67.273c2.192,10.961,11.896,18.917,23.075,18.917
	h105.024l-57.966,57.966c-7.473,7.473-11.588,17.408-11.588,27.977v52.596c-9.308,3.139-16.032,11.946-16.032,22.3
	c0,12.976,10.557,23.532,23.532,23.532c12.975,0,23.532-10.557,23.532-23.532c0-10.353-6.724-19.16-16.032-22.3v-25.733
	c23.257,3.617,41.113,23.778,41.113,48.033c0,26.805-21.808,48.613-48.613,48.613s-48.613-21.808-48.613-48.613
	c0-17.205,8.81-32.784,23.567-41.674c3.548-2.138,4.691-6.747,2.554-10.294c-2.138-3.548-6.748-4.692-10.294-2.554
	c-19.303,11.629-30.827,32.012-30.827,54.523c0,35.076,28.537,63.613,63.613,63.613s63.613-28.537,63.613-63.613
	c0-32.537-24.561-59.431-56.113-63.156v-11.74c0-6.562,2.555-12.73,7.195-17.37l1.338-1.338l81.499,81.499
	c7.473,7.473,17.408,11.588,27.976,11.588h51.377c-0.001,0.173-0.013,0.343-0.013,0.516c0,35.076,28.537,63.613,63.613,63.613
	s63.613-28.537,63.613-63.613s-28.537-63.613-63.613-63.613c-8.897,0-17.37,1.843-25.066,5.156l-77.542-134.405
	c3.666-4.151,5.898-9.597,5.898-15.557c0-3.757-0.89-7.309-2.463-10.463l22.118-22.117h140.052l-11.661,58.302
	c-0.794,3.975-4.313,6.859-8.366,6.859h-104.26c-4.142,0-7.5,3.358-7.5,7.5s3.358,7.5,7.5,7.5h104.26
	c11.179,0,20.883-7.956,23.075-18.917l13.455-67.273c0.44-2.203-0.13-4.488-1.554-6.226c-1.425-1.738-3.553-2.745-5.8-2.745h-134.2
	l76.347-76.347c3.125-3.126,7.281-4.847,11.701-4.847h23.852c3.139,9.308,11.946,16.032,22.3,16.032h40.081
	c12.976,0,23.532-10.557,23.532-23.532S473.385,80.161,460.41,80.161z M107.701,456.919c-4.705,0-8.532-3.828-8.532-8.532
	s3.828-8.532,8.532-8.532s8.532,3.828,8.532,8.532S112.404,456.919,107.701,456.919z M54.402,136.123l135.834,56.265H43.218
	C44.008,172.69,47.893,153.779,54.402,136.123z M92.076,74.627l103.902,103.902L60.155,122.27
	C68.301,104.732,79.113,88.675,92.076,74.627z M220.441,162.182l-37.94-91.596c-1.585-3.826-5.973-5.643-9.799-4.059
	c-3.827,1.585-5.644,5.973-4.059,9.799l37.941,91.597L102.688,64.027c14.048-12.961,30.099-23.779,47.637-31.924l6.576,15.876
	c1.197,2.888,3.989,4.632,6.932,4.632c0.957,0,1.929-0.184,2.867-0.573c3.827-1.585,5.644-5.973,4.059-9.799l-6.584-15.895
	c17.657-6.509,36.568-10.403,56.266-11.194L220.441,162.182L220.441,162.182z M190.967,287.548h55.766l42.218,73.177H150.887
	l-16.548-16.548L190.967,287.548z M236.474,239.968c0,4.705-3.828,8.532-8.532,8.532s-8.532-3.828-8.532-8.532
	s3.828-8.532,8.532-8.532S236.474,235.263,236.474,239.968z M217.478,261.037c3.154,1.573,6.706,2.463,10.463,2.463
	c1.592,0,3.146-0.161,4.65-0.463l5.488,9.512h-32.112L217.478,261.037z M348.185,399.774c26.805,0,48.613,21.808,48.613,48.613
	S374.99,497,348.185,497s-48.613-21.808-48.613-48.613c0-15.27,7.083-28.91,18.129-37.829l12.849,22.272
	c-3.666,4.151-5.898,9.597-5.898,15.557c0,12.976,10.557,23.532,23.532,23.532s23.532-10.557,23.532-23.532
	s-10.557-23.532-23.532-23.532c-1.592,0-3.146,0.161-4.65,0.463l-12.85-22.273C336.118,400.941,342.016,399.774,348.185,399.774z
	 M348.185,439.855c4.705,0,8.532,3.828,8.532,8.532s-3.828,8.532-8.532,8.532s-8.532-3.828-8.532-8.532
	S343.479,439.855,348.185,439.855z M286.493,432.871h-53.286c-6.561,0-12.73-2.555-17.37-7.195l-49.951-49.951h131.718
	l12.528,21.715C298.612,406.068,290.108,418.508,286.493,432.871z M238.404,218.898c-3.154-1.573-6.706-2.463-10.463-2.463
	c-12.976,0-23.532,10.557-23.532,23.532c0,3.757,0.89,7.309,2.463,10.463l-22.117,22.117H64.73c-4.053,0-7.572-2.884-8.366-6.859
	l-11.661-58.302h205.212L238.404,218.898z M460.41,112.226h-40.081c-4.705,0-8.532-3.828-8.532-8.532s3.828-8.532,8.532-8.532
	h40.081c4.705,0,8.532,3.828,8.532,8.532S465.115,112.226,460.41,112.226z"/>
<g>
</g>
<g>
</g>
<g>
</g>
<g>
</g>
<g>
</g>
<g>
</g>
<g>
</g>
<g>
</g>
<g>
</g>
<g>
</g>
<g>
</g>
<g>
</g>
<g>
</g>
<g>
</g>
<g>
</g>
</svg>
