<svg id="Capa_1" enable-background="new 0 0 511.94 511.94" height="512" viewBox="0 0 511.94 511.94" width="512" xmlns="http://www.w3.org/2000/svg"><g><g><path d="m90.323 105.21v67.936h-30.12v-67.826c0-8.284-6.716-15-15-15h-22.648c-8.314 0-15.055-6.74-15.055-15.055 0-8.315 6.74-15.055 15.055-15.055h22.768c24.853 0 45 20.147 45 45z" fill="#8dd470"/><path d="m243.995 252.651h30.118v249.966h-30.118z" fill="#68647d" transform="matrix(.559 -.829 .829 .559 -198.88 381.229)"/><path d="m283.005 252.651h30.118v249.966h-30.118z" fill="#827f97" transform="matrix(-.559 -.829 .829 -.559 151.665 835.911)"/><path d="m481.848 142.555v30.59h-173.172v-150.59h53.172c66.281 0 120 53.73 120 120z" fill="#ace094"/><path d="m316.206 173.146h-30.118v-150.588c0-8.317 6.742-15.059 15.059-15.059 8.317 0 15.059 6.742 15.059 15.059z" fill="#f4e74d"/><path d="m336.188 213.925-24.633-17.329 112.64-160.113c4.785-6.802 14.179-8.437 20.981-3.652 6.802 4.785 8.437 14.179 3.652 20.981z" fill="#f4e74d"/><path d="m481.85 188.21v30.58c0 66.28-53.72 120-120 120h-133.46l-41.21-8.71-16.31 6.22c-54.58-11.26-95.61-59.59-95.61-117.51v-30.58z" fill="#ace094"/><path d="m266.66 338.79h-71.4c-66.27 0-120-53.72-120-120v-30.58h116.87c7.39 8.89 12.45 15.05 12.45 15.05v79.48s4 41.54 62.08 56.05z" fill="#8dd470"/><path d="m504.44 180.68c0 6.23-2.53 11.88-6.61 15.97-4.09 4.08-9.74 6.61-15.98 6.61h-277.27l-54.25-5.44-44.94 5.44h-30.13c-12.47 0-22.58-10.11-22.58-22.58 0-6.24 2.53-11.89 6.61-15.97 4.09-4.09 9.74-6.62 15.97-6.62h406.59c12.48 0 22.59 10.11 22.59 22.59z" fill="#f9ee80"/><path d="m204.58 203.26h-129.32c-12.47 0-22.58-10.11-22.58-22.58 0-6.24 2.53-11.89 6.61-15.97 4.09-4.09 9.74-6.62 15.97-6.62h129.74c-4.51 5.3-16.62 23.01-.42 45.17z" fill="#f4e74d"/><path d="m240.91 451.729c0 23.47-15.34 43.35-36.53 50.18-5.1 1.64-10.53 2.53-16.17 2.53-29.11 0-52.71-23.6-52.71-52.71 0-29.1 23.6-52.7 52.71-52.7 6.15 0 12.05 1.05 17.53 2.99 20.49 7.221 35.17 26.761 35.17 49.71z" fill="#a09dad"/><path d="m204.38 501.91c-5.1 1.64-10.53 2.53-16.17 2.53-29.11 0-52.71-23.6-52.71-52.71 0-29.1 23.6-52.7 52.71-52.7 6.15 0 12.05 1.05 17.53 2.99-10.19 13.18-36.47 55.03-1.36 99.89z" fill="#827f97"/><path d="m210.79 451.729c0 11.99-9.33 21.8-21.13 22.54-.48.03-.96.05-1.45.05-12.48 0-22.59-10.11-22.59-22.59 0-12.47 10.11-22.58 22.59-22.58.93 0 1.85.06 2.75.17 11.17 1.351 19.83 10.87 19.83 22.41z" fill="#827f97"/><path d="m189.66 474.27c-.48.03-.96.05-1.45.05-12.48 0-22.59-10.11-22.59-22.59 0-12.47 10.11-22.58 22.59-22.58.93 0 1.85.06 2.75.17-4.31 12.59-6.35 28.11-1.3 44.95z" fill="#68647d"/><path d="m422.09 451.729c0 23.47-15.34 43.35-36.53 50.18-5.1 1.64-10.53 2.53-16.17 2.53-29.11 0-52.71-23.6-52.71-52.71 0-5.4.81-10.61 2.32-15.51l16.72-9.25v-15.79c9.13-7.59 20.86-12.15 33.67-12.15 6.15 0 12.05 1.05 17.53 2.99 20.49 7.221 35.17 26.761 35.17 49.71z" fill="#a09dad"/><path d="m385.556 501.91c-5.1 1.64-10.53 2.53-16.17 2.53-29.11 0-52.71-23.6-52.71-52.71 0-29.1 23.6-52.7 52.71-52.7 6.15 0 12.05 1.05 17.53 2.99-10.19 13.18-36.47 55.03-1.36 99.89z" fill="#827f97"/><path d="m391.966 451.729c0 11.99-9.33 21.8-21.13 22.54-.48.03-.96.05-1.45.05-12.48 0-22.59-10.11-22.59-22.59 0-12.47 10.11-22.58 22.59-22.58.93 0 1.85.06 2.75.17 11.17 1.351 19.83 10.87 19.83 22.41z" fill="#827f97"/><path d="m370.836 474.27c-.48.03-.96.05-1.45.05-12.48 0-22.59-10.11-22.59-22.59 0-12.47 10.11-22.58 22.59-22.58.93 0 1.85.06 2.75.17-4.31 12.59-6.35 28.11-1.3 44.95z" fill="#68647d"/><path d="m112.91 180.68c0 15.99-9.97 29.65-24.04 35.11l-11.81-1.46-1.8 3.99c-20.79 0-37.64-16.85-37.64-37.64 0-15.44 9.29-28.71 22.58-34.52h.02l21.84-2.52c17.55 3.2 30.85 18.56 30.85 37.04z" fill="#a09dad"/><path d="m88.87 215.79c-4.22 1.63-8.81 2.53-13.61 2.53-20.79 0-37.64-16.85-37.64-37.64 0-20.8 16.85-37.65 37.64-37.65 2.32 0 4.59.21 6.8.61-7.14 10-25.37 41.88 6.81 72.15z" fill="#827f97"/><g><g><ellipse cx="198.914" cy="282.744" fill="#fff" rx="29.387" ry="23.403"/><ellipse cx="358.203" cy="282.744" fill="#fff" rx="29.387" ry="23.403"/><path d="m302.252 264.763c0-14.643-10.608-16.019-23.693-16.019-13.086 0-23.693 1.376-23.693 16.019s10.608 26.513 23.693 26.513c13.085-.001 23.693-11.871 23.693-26.513z" fill="#495560"/></g></g></g><g><path d="m511.94 180.68c0-14.003-9.615-25.803-22.59-29.144v-8.977c0-32.141-11.819-62.459-33.392-86.004 2.708-4.6 3.702-9.953 2.777-15.277-3.136-18.04-25.422-24.987-38.279-11.949-18.004-9.342-38.128-14.27-58.606-14.27h-39.427c-3.098-8.762-11.463-15.059-21.273-15.059-12.439 0-22.56 10.12-22.56 22.56v128.03h-169.7c-3.182-3.552-6.919-6.593-11.07-8.998v-36.382c0-28.948-23.552-52.5-52.5-52.5h-22.77c-12.433 0-22.55 10.12-22.55 22.56 0 12.434 10.116 22.55 22.55 22.55h22.65c4.136 0 7.5 3.364 7.5 7.5v36.277c-13.486 7.817-22.583 22.401-22.583 39.079 0 22.402 16.404 41.037 37.83 44.544 1.021 20.271 6.839 40.044 17 57.519 2.082 3.581 6.672 4.796 10.253 2.714s4.796-6.673 2.714-10.253c-8.843-15.21-13.955-32.401-14.951-50.048 10.225-1.765 19.283-6.973 25.928-14.393h365.459v8.03c0 62.032-50.468 112.5-112.5 112.5h-166.59c-28.666 0-55.97-10.787-76.883-30.374-3.024-2.833-7.77-2.676-10.601.347-2.832 3.023-2.677 7.77.347 10.601 16.953 15.878 37.611 26.65 59.887 31.5l70.208 47.426-16.367 11.04c-9.612-6.501-21.194-10.302-33.646-10.302-33.197 0-60.206 27.009-60.206 60.206s27.009 60.206 60.206 60.206c38.113 0 66.852-35.199 58.89-72.717l31.46-21.219 31.47 21.221c-7.956 37.503 20.765 72.714 58.885 72.714 11.7 0 23.044-3.359 32.803-9.715 3.471-2.261 4.452-6.907 2.192-10.378-2.262-3.472-6.907-4.451-10.378-2.192-7.317 4.767-15.83 7.285-24.617 7.285-24.924 0-45.2-20.281-45.2-45.21 0-24.924 20.276-45.2 45.2-45.2 30.824 0 52.568 30.17 42.956 59.344-1.297 3.934.842 8.174 4.776 9.47 3.933 1.298 8.174-.841 9.47-4.776 6.106-18.531 3.028-38.257-8.444-54.116-19.723-27.265-56.391-32.216-82.405-14.617l-16.363-11.041 70.232-47.451c57.237-12.527 100.217-63.61 100.217-124.551v-8.977c12.976-3.339 22.591-15.135 22.591-29.133zm-233.383 182.901-25.63-17.291h51.264zm-79.493-17.291h27.041l39.041 26.337-13.515 9.117zm-10.858 150.65c-24.927 0-45.206-20.279-45.206-45.206s20.279-45.206 45.206-45.206 45.206 20.279 45.206 45.206-20.28 45.206-45.206 45.206zm45.255-84.847 97.554-65.803h27.041l-116.126 78.324c-2.296-4.532-5.148-8.735-8.469-12.521zm90.195.002c-3.319 3.786-6.17 7.987-8.467 12.519l-23.22-15.657 13.521-9.12zm150.694-261.505h-84.427l57.236-81.368c17.593 20.392 27.191 46.126 27.191 73.337zm-62.91-109.022-25.405 36.117c-2.383 3.389-1.568 8.066 1.819 10.45 3.39 2.383 8.068 1.567 10.45-1.819l32.017-45.517c5.773-8.203 18.05.628 12.374 8.695l-71.113 101.096h-18.489l25.052-35.614c2.383-3.389 1.568-8.066-1.819-10.45-3.389-2.383-8.065-1.567-10.45 1.819l-31.124 44.245h-11.042v-120.53h38.14c17.275 0 34.261 3.964 49.59 11.508zm-117.85-19.008c0-4.168 3.392-7.56 7.56-7.56 4.169 0 7.561 3.392 7.561 7.56v128.03h-15.12v-128.03zm-248.389 60.259h-22.651c-4.163 0-7.55-3.387-7.55-7.55 0-4.168 3.387-7.56 7.55-7.56h22.77c20.678 0 37.5 16.822 37.5 37.5v30.963c-5.08-.859-10.04-.859-15.119.001v-30.855c0-12.405-10.094-22.499-22.5-22.499zm30.063 128.003c-16.623 0-30.146-13.523-30.146-30.146s13.523-30.147 30.146-30.147 30.147 13.524 30.147 30.147-13.524 30.146-30.147 30.146zm406.586-15.062h-364.039c3.379-9.5 3.557-20.165 0-30.17h364.04c8.32 0 15.09 6.77 15.09 15.09-.001 8.315-6.771 15.08-15.091 15.08z"/><path d="m188.206 421.646c-16.591 0-30.088 13.497-30.088 30.088s13.497 30.088 30.088 30.088 30.088-13.497 30.088-30.088-13.498-30.088-30.088-30.088zm0 45.176c-8.319 0-15.088-6.769-15.088-15.088s6.769-15.088 15.088-15.088 15.088 6.769 15.088 15.088-6.769 15.088-15.088 15.088z"/><path d="m338.823 451.734c0 16.591 13.498 30.088 30.089 30.088s30.088-13.497 30.088-30.088-13.497-30.088-30.088-30.088-30.089 13.498-30.089 30.088zm45.177 0c0 8.319-6.769 15.088-15.088 15.088-8.32 0-15.089-6.769-15.089-15.088s6.769-15.088 15.089-15.088c8.319 0 15.088 6.769 15.088 15.088z"/><path d="m211.327 254.804v-12c0-4.143-3.357-7.5-7.5-7.5s-7.5 3.357-7.5 7.5v12c0 4.143 3.357 7.5 7.5 7.5s7.5-3.358 7.5-7.5z"/><path d="m309.752 264.763c0-23.519-21.859-23.519-31.194-23.519-9.334 0-31.193 0-31.193 23.519 0 18.755 13.993 34.013 31.193 34.013s31.194-15.258 31.194-34.013zm-47.387 0c0-5.907.655-8.519 16.193-8.519 15.539 0 16.194 2.611 16.194 8.519 0 10.483-7.265 19.013-16.194 19.013-8.929-.001-16.193-8.53-16.193-19.013z"/><path d="m360.791 254.804v-12c0-4.143-3.357-7.5-7.5-7.5s-7.5 3.357-7.5 7.5v12c0 4.143 3.357 7.5 7.5 7.5s7.5-3.358 7.5-7.5z"/></g></g></svg>