<svg id="Capa_1" enable-background="new 0 0 464.008 464.008" viewBox="0 0 464.008 464.008" xmlns="http://www.w3.org/2000/svg"><g><g id="Calque_2_30_"><g id="_31-_Baby_Carriage"><path d="m115.752 423.995c-15.4 16-36.84 21.66-55.94 16.83-9.79-2.47-18.686-7.648-25.67-14.94-22.04-22.89-21.22-60.82 1.86-84.72 21.49-22.31 54.74-24.53 77-6.17 1.619 1.339 3.161 2.768 4.62 4.28 21.98 22.86 21.17 60.77-1.87 84.72z" fill="#3e3e7a"/><path d="m115.752 423.995c-15.4 16-36.84 21.66-55.94 16.83-1.615-1.33-3.15-2.752-4.6-4.26-22.04-22.91-21.21-60.83 1.79-84.73 15.4-16 36.82-21.65 55.92-16.84 1.619 1.339 3.161 2.768 4.62 4.28 22.06 22.86 21.25 60.77-1.79 84.72z" fill="#51518e"/><path d="m118.652 274.835c-7.016-2.962-15.106.324-18.068 7.34-.067.159-.131.319-.192.48l-38.56 96.24c-3.022 7.33.314 15.737 7.54 19 1.891.817 3.943 1.189 6 1.09 5.496-.327 10.29-3.845 12.25-8.99l38.56-96.25c2.971-7.303-.353-15.649-7.53-18.91z" fill="#a4a4f7"/><ellipse cx="193.758" cy="316.885" fill="#3e3e7a" rx="60.49" ry="57.09" transform="matrix(.426 -.905 .905 .426 -175.473 357.215)"/><path d="m26.722 167.075 27.16 129.23 129.84 36.43 186.87-33.68 45.66-138.16z" fill="#ffc4e0"/><path d="m436.342 148.555c0 10.69-7.58 19.75-17.78 21.25l-274.56 40.33c-2.628.392-5.308.249-7.88-.42l-120.4-31c-9.38-2.56-15.844-11.137-15.72-20.86 0-10.56 7.41-19.56 17.47-21.2l221-36.09 47.63-7.78c2.83-.46 5.725-.307 8.49.45l126.36 34.61c3.366.928 6.438 2.705 8.92 5.16.792.774 1.522 1.61 2.18 2.5 2.793 3.777 4.297 8.352 4.29 13.05z" fill="#ffa4d7"/><path d="m429.862 132.995-148 21.74-43.43-54.18 47.63-7.78c2.83-.46 5.725-.307 8.49.45l126.36 34.61c3.377.923 6.459 2.7 8.95 5.16z" fill="#ffc4e0"/><path d="m464.002 39.695c.195 6.894-4.535 12.955-11.27 14.44l-77.27 15.78-79.15 170.7 78.31 137.67c3.923 6.871 1.752 15.613-4.93 19.85-2.134 1.307-4.588 1.999-7.09 2-4.991-.038-9.575-2.758-12-7.12l-68.86-121.02-58.05 125.21c-2.233 4.965-7.156 8.173-12.6 8.21-2.083-.008-4.137-.497-6-1.43-7.011-3.653-9.891-12.185-6.53-19.34l69.34-149.54v-.07l85.41-184.22c1.852-4.063 5.522-7.006 9.89-7.93l8.26-1.69-70.37-12-55.75 10.4-30.82 62.58-2.92 5.92c-3.23 6.86-11.41 9.803-18.271 6.573-.178-.084-.355-.172-.529-.263-6.893-3.846-9.566-12.418-6.08-19.5l36.9-74.91c1.929-3.997 5.639-6.843 10-7.67l64.88-12.1c1.571-.28 3.179-.28 4.75 0l149.05 25.39c1.513.255 2.971.769 4.31 1.52 4.533 2.562 7.352 7.352 7.39 12.56z" fill="#c5c5ff"/><path d="m456.612 27.135-62.67 11-22.48 3.06-70.37-12-55.75 10.4-30.82 62.58c-12.87.24-24.75.24-27.43-.66-.741-.377-1.366-.947-1.81-1.65.18-1.739.667-3.432 1.44-5l36.9-74.87c1.929-3.997 5.639-6.843 10-7.67l64.88-12.1c1.571-.28 3.179-.28 4.75 0l149.05 25.39c1.513.255 2.971.769 4.31 1.52z" fill="#a4a4f7"/><path d="m401.482 423.995c-15.11 15.68-36 21.44-54.85 17.09-10.212-2.346-19.515-7.63-26.76-15.2-22-22.86-21.22-60.77 1.82-84.67 21.15-21.94 53.66-24.46 75.9-7 2.023 1.579 3.931 3.3 5.71 5.15 22.03 22.77 21.22 60.68-1.82 84.63z" fill="#3e3e7a"/><path d="m401.482 423.995c-15.11 15.68-36 21.44-54.85 17.09-2.017-1.572-3.918-3.286-5.69-5.13-22-22.86-21.22-60.77 1.82-84.68 15.1-15.67 36-21.43 54.83-17.1 2.023 1.579 3.931 3.3 5.71 5.15 22.03 22.81 21.22 60.72-1.82 84.67z" fill="#51518e"/><path d="m245.672 445.495c-15 15.61-35.83 21.38-54.59 17.16-10.304-2.328-19.695-7.639-27-15.27-22-22.86-21.21-60.77 1.83-84.67 21.11-21.91 53.55-24.46 75.79-7.12 2.064 1.6 4.01 3.348 5.82 5.23 22 22.86 21.19 60.77-1.85 84.67z" fill="#3e3e7a"/><path d="m245.672 445.495c-15 15.61-35.83 21.38-54.59 17.16-2.056-1.599-3.994-3.344-5.8-5.22-22-22.86-21.21-60.78 1.83-84.68 15-15.6 35.81-21.38 54.56-17.16 2.064 1.6 4.01 3.348 5.82 5.23 22.03 22.86 21.22 60.77-1.82 84.67z" fill="#51518e"/><path d="m281.892 154.705-17.68 2.6-16.95 2.49-103.26 15.2c-2.631.398-5.316.255-7.89-.42l-128.71-33.19c-13.53-56 7-93.62 25.69-114.78 12.57-14.24 24.32-21 24.32-21l123.66 23.32 11.22 14z" fill="#c5c5ff"/><path d="m264.212 157.305-16.95 2.49-103.26 15.2c-1.26.191-2.537.258-3.81.2-23.23-70.5 22.35-118 22.35-118l49.61 25.57z" fill="#a4a4f7"/><path d="m281.892 154.705-34.63 5.09-84.74-102.69-129.43-30.5c12.57-14.24 24.32-21 24.32-21l123.66 23.32 11.22 14z" fill="#51518e"/></g></g></g><g/><g/><g/><g/><g/><g/><g/><g/><g/><g/><g/><g/><g/><g/><g/></svg>