<?xml version="1.0" encoding="iso-8859-1"?>
<!-- Generator: Adobe Illustrator 19.0.0, SVG Export Plug-In . SVG Version: 6.00 Build 0)  -->
<svg version="1.1" id="Layer_1" xmlns="http://www.w3.org/2000/svg" xmlns:xlink="http://www.w3.org/1999/xlink" x="0px" y="0px"
	 viewBox="0 0 512.002 512.002" style="enable-background:new 0 0 512.002 512.002;" xml:space="preserve">
<path style="fill:#FD5D65;" d="M468.192,379.519h-44.646c-4.964,0-8.989-4.025-8.989-8.989s4.025-8.989,8.989-8.989h44.646
	c4.964,0,8.989,4.025,8.989,8.989S473.156,379.519,468.192,379.519z"/>
<g>
	<circle style="fill:#5A6572;" cx="458.507" cy="469.967" r="33.259"/>
	<circle style="fill:#5A6572;" cx="153.055" cy="469.967" r="33.259"/>
</g>
<path style="fill:#FD5D65;" d="M134.811,80.333v166.91c0,53.887,43.684,97.571,97.571,97.571h165.2"/>
<path style="fill:#E54E5C;" d="M268.339,328.035c-53.887,0-97.571-43.684-97.571-97.571V116.524l-35.957-36.19v166.91
	c0,53.887,43.684,97.571,97.571,97.571h165.2l-16.671-16.78H268.339V328.035z"/>
<g>
	<path style="fill:#404951;" d="M458.511,509.817c-21.973,0-39.851-17.876-39.851-39.851c0-21.973,17.876-39.851,39.851-39.851
		c21.974,0,39.851,17.876,39.851,39.851S480.485,509.817,458.511,509.817z M458.511,443.3c-14.704,0-26.667,11.963-26.667,26.667
		c0,14.704,11.962,26.667,26.667,26.667c14.705,0,26.667-11.963,26.667-26.667C485.178,455.262,473.215,443.3,458.511,443.3z"/>
	<path style="fill:#404951;" d="M153.055,509.817c-21.973,0-39.851-17.876-39.851-39.851c0-21.973,17.876-39.851,39.851-39.851
		s39.851,17.876,39.851,39.851S175.029,509.817,153.055,509.817z M153.055,443.3c-14.704,0-26.667,11.963-26.667,26.667
		c0,14.704,11.962,26.667,26.667,26.667c14.705,0,26.667-11.963,26.667-26.667C179.722,455.262,167.759,443.3,153.055,443.3z"/>
</g>
<path style="fill:#72CDED;" d="M275.732,219.721l-2.313,4.039l-9.265,16.192l-96.843,170.174c-1.666,2.901-4.686,4.519-7.815,4.519
	c-1.51,0-3.044-0.384-4.459-1.187c-4.303-2.469-5.801-7.958-3.332-12.261l99.312-174.477l9.121-15.929
	c0.048-0.084,0.096-0.168,0.156-0.252c2.517-4.123,7.887-5.501,12.105-3.08C276.703,209.916,278.201,215.418,275.732,219.721z"/>
<path style="fill:#5FBAD3;" d="M273.419,223.76l-9.265,16.192l-13.136-13.232l9.121-15.929c0.048-0.084,0.096-0.168,0.156-0.252
	L273.419,223.76z"/>
<path style="fill:#FD5D65;" d="M95.755,28.659L83.717,16.526c-19.121-19.121-50.231-19.121-69.352,0C5.101,25.788,0,38.104,0,51.203
	s5.101,25.414,14.363,34.677l15.659,15.659c3.511,3.511,9.203,3.511,12.712,0c3.511-3.511,3.511-9.201,0-12.712L27.077,73.167
	c-12.11-12.111-12.11-31.817,0-43.927c12.11-12.111,31.817-12.111,43.902-0.026l11.262,11.35
	C86.218,36.05,90.818,32.094,95.755,28.659z"/>
<g>
	<path style="fill:#72CDED;" d="M464.892,400.704L101.219,34.166c-0.194,0.199-0.417,0.387-0.671,0.559
		c-4.743,3.215-9.057,7.045-12.841,11.347L452.13,413.364c1.757,1.771,4.069,2.658,6.381,2.658c2.289,0,4.578-0.869,6.332-2.608
		C468.367,409.919,468.389,404.227,464.892,400.704z"/>
	<path style="fill:#72CDED;" d="M80.876,59.359c-2.3,0-4.601-0.877-6.356-2.633c-3.511-3.511-3.511-9.201,0-12.712l22.773-22.773
		c3.511-3.511,9.203-3.511,12.712,0c3.511,3.511,3.511,9.201,0,12.712L87.232,56.726C85.477,58.481,83.176,59.359,80.876,59.359z"/>
	<path style="fill:#72CDED;" d="M197.555,434.456c-2.3,0-4.601-0.877-6.356-2.633c-10.189-10.188-23.735-15.799-38.144-15.799
		c-14.409,0-27.955,5.612-38.143,15.799c-3.511,3.511-9.203,3.511-12.712,0c-3.511-3.511-3.511-9.201,0-12.712
		c13.583-13.584,31.644-21.066,50.856-21.066s37.271,7.481,50.856,21.066c3.511,3.511,3.511,9.201,0,12.712
		C202.157,433.579,199.855,434.456,197.555,434.456z"/>
	<path style="fill:#72CDED;" d="M503.011,434.456c-2.3,0-4.601-0.877-6.356-2.633c-10.188-10.188-23.735-15.799-38.143-15.799
		s-27.955,5.612-38.143,15.799c-3.511,3.511-9.203,3.511-12.712,0c-3.511-3.511-3.511-9.201,0-12.712
		c13.583-13.584,31.644-21.066,50.856-21.066c19.212,0,37.271,7.481,50.856,21.066c3.511,3.511,3.511,9.203,0,12.712
		C507.612,433.578,505.311,434.456,503.011,434.456z"/>
</g>
<g>
</g>
<g>
</g>
<g>
</g>
<g>
</g>
<g>
</g>
<g>
</g>
<g>
</g>
<g>
</g>
<g>
</g>
<g>
</g>
<g>
</g>
<g>
</g>
<g>
</g>
<g>
</g>
<g>
</g>
</svg>
