<svg id="cclor_outline" height="512" viewBox="0 0 64 64" width="512" xmlns="http://www.w3.org/2000/svg"><path d="m61 12.88c0 .6-.22 1.16-.6 1.59-.38.42-.9.71-1.5.79l-4.73.59c-.72.09-1.34.57-1.61 1.25l-1.56 3.9h-5l3.14-7.07c.54-1.21 1.64-2.07 2.94-2.31l6.09-1.1c1.47-.27 2.83.86 2.83 2.36z" fill="#f2da09"/><path d="m60.99 12.63c-.39-.15-.82-.19-1.26-.11l-6.09 1.1c-1.3.24-2.4 1.1-2.94 2.31l-2.25 5.07h-2.45l3.14-7.07c.54-1.21 1.64-2.07 2.94-2.31l6.09-1.1c1.39-.25 2.68.74 2.82 2.11z" fill="#f5b504"/><path d="m54 21c1.1 0 2 .9 2 2 0 .55-.22 1.05-.59 1.41-.36.37-.86.59-1.41.59h-2-44-2c-1.1 0-2-.9-2-2 0-.55.22-1.05.59-1.41.36-.37.86-.59 1.41-.59h2 20 4 14 5z" fill="#c0d1f2"/><path d="m56 23c0 .55-.22 1.05-.59 1.41-.36.37-.86.59-1.41.59h-48c-1.1 0-2-.9-2-2 0-.55.22-1.05.59-1.41.36-.37.86-.59 1.41-.59h.98c0 1.1.9 2 2 2z" fill="#9bb7ef"/><path d="m52 25v2c0 7.73-6.27 14-14 14h-16c-7.73 0-14-6.27-14-14v-2z" fill="#f27798"/><path d="m17.041 25h-9.041v2c0 7.73 6.27 14 14 14h16c3.036 0 5.838-.977 8.132-2.62-11.969.805-28.338.512-29.091-13.38z" fill="#f24968"/><path d="m42 49c3.87 0 7 3.13 7 7s-3.13 7-7 7-7-3.13-7-7 3.13-7 7-7z" fill="#808080"/><path d="m43.87 61c-3.87 0-7-3.13-7-7 0-1.35.38-2.61 1.05-3.68-1.77 1.26-2.92 3.33-2.92 5.68 0 3.87 3.13 7 7 7 2.51 0 4.72-1.32 5.95-3.31-1.14.83-2.56 1.31-4.08 1.31z" fill="#666"/><circle cx="42" cy="56" fill="#666" r="3"/><path d="m32 3v18h-4v-18c0-1.1.9-2 2-2 .55 0 1.05.22 1.41.59.37.36.59.86.59 1.41z" fill="#f2da09"/><path d="m30 1c-1.1 0-2 .9-2 2v18l-14.51-13.66c4.02-4.04 9.93-6.34 16.51-6.34z" fill="#808080"/><path d="m28 21h-20c0-5.57 2.07-10.24 5.49-13.66z" fill="#666"/><path d="m18 49c3.87 0 7 3.13 7 7s-3.13 7-7 7-7-3.13-7-7 3.13-7 7-7z" fill="#808080"/><path d="m20.3 61.72c-3.87 0-7-3.13-7-7 0-2.16.98-4.09 2.52-5.37-2.8.91-4.82 3.54-4.82 6.65 0 3.87 3.13 7 7 7 1.71 0 3.27-.61 4.48-1.63-.68.23-1.42.35-2.18.35z" fill="#666"/><circle cx="18" cy="56" fill="#666" r="3"/><g><path d="m18 52c-2.206 0-4 1.794-4 4s1.794 4 4 4 4-1.794 4-4-1.794-4-4-4zm0 6c-1.103 0-2-.897-2-2s.897-2 2-2 2 .897 2 2-.897 2-2 2z"/><path d="m22 38c.553 0 1-.448 1-1s-.447-1-1-1c-1.96 0-3.824-.622-5.393-1.799-.443-.332-1.069-.242-1.4.2s-.242 1.068.199 1.4c1.918 1.438 4.198 2.199 6.594 2.199z"/><path d="m25 38h2c.553 0 1-.448 1-1s-.447-1-1-1h-2c-.553 0-1 .448-1 1s.447 1 1 1z"/><path d="m38 56c0 2.206 1.794 4 4 4s4-1.794 4-4-1.794-4-4-4-4 1.794-4 4zm6 0c0 1.103-.897 2-2 2s-2-.897-2-2 .897-2 2-2 2 .897 2 2z"/><path d="m30 0c-12.956 0-22.43 8.356-22.95 20h-1.05c-1.654 0-3 1.346-3 3s1.346 3 3 3h1v1c0 7.739 5.891 14.125 13.424 14.916l-3.058 6.116c-4.115.325-7.366 3.771-7.366 7.968 0 4.411 3.589 8 8 8 4.072 0 7.436-3.06 7.931-7h8.139c.495 3.94 3.859 7 7.931 7 4.411 0 8-3.589 8-8 0-4.197-3.251-7.643-7.366-7.968l-3.058-6.116c7.532-.791 13.423-7.177 13.423-14.916v-1h1c1.654 0 3-1.346 3-3s-1.346-3-3-3h-1.523l1.013-2.533c.135-.338.443-.576.805-.621l4.725-.59c1.699-.212 2.98-1.664 2.98-3.376 0-1.012-.445-1.964-1.223-2.612-.775-.648-1.792-.917-2.788-.735l-6.087 1.106c-1.628.296-3.002 1.376-3.676 2.889l-2.876 6.472h-12.35v-17c0-1.654-1.346-3-3-3zm1 3v17h-2v-17c0-.551.448-1 1-1s1 .449 1 1zm-4 15.685-12.039-11.333c3.125-2.817 7.32-4.654 12.169-5.18-.247.504-.13 16.513-.13 16.513zm-13.447-9.913 11.926 11.228h-16.429c.218-4.366 1.825-8.222 4.503-11.228zm23.829 33.228 3.076 6.152c-3.354.659-5.958 3.419-6.389 6.848h-8.139c-.431-3.429-3.034-6.189-6.389-6.848l3.077-6.152zm-19.382 20c-3.309 0-6-2.691-6-6s2.691-6 6-6 6 2.691 6 6-2.691 6-6 6zm30-6c0 3.309-2.691 6-6 6s-6-2.691-6-6 2.691-6 6-6 6 2.691 6 6zm3-29c0 7.168-5.832 13-13 13h-16c-7.168 0-13-5.832-13-13v-1h42zm4-4c0 .551-.448 1-1 1h-48c-.552 0-1-.449-1-1s.448-1 1-1h48c.552 0 1 .449 1 1zm-4.945-8.661c.403-.908 1.229-1.556 2.205-1.734l6.087-1.106c.412-.075.83.037 1.149.303.32.267.504.66.504 1.077 0 .706-.528 1.304-1.229 1.392l-4.725.59c-1.083.135-2.008.849-2.414 1.863l-1.309 3.276h-2.784z"/></g></svg>