<svg id="Capa_1" enable-background="new 0 0 512 512" height="512" viewBox="0 0 512 512" width="512" xmlns="http://www.w3.org/2000/svg"><g><g><g><path d="m334.968 280.233h-232.171c-34.83 0-63.065-28.235-63.065-63.065v-35.404h338.875c10.729 0 19.426 8.698 19.426 19.426v15.977c.001 34.83-28.235 63.066-63.065 63.066z" fill="#91deb6"/></g><g><path d="m378.607 181.764h-10.573v5.404c0 34.83-28.235 63.065-63.065 63.065h-232.172c-9.663 0-18.815-2.18-27-6.065 10.117 21.319 31.834 36.065 57 36.065h232.171c34.83 0 63.065-28.235 63.065-63.065v-15.978c.001-10.729-8.697-19.426-19.426-19.426z" fill="#6ed5a1"/></g><g><path d="m196.694 39.911h-64.289c-51.182 0-92.673 41.491-92.673 92.673v49.181h173.13v-125.686c0-8.93-7.239-16.168-16.168-16.168z" fill="#00c27a"/></g><g><path d="m39.732 148.624h173.13v33.14h-173.13z" fill="#08b865"/></g><g><path d="m297.58 321.13h-153.807c-22.507 0-40.753-18.246-40.753-40.753v-.144h235.314v.144c0 22.507-18.246 40.753-40.754 40.753z" fill="#685e68"/></g><g><path d="m179.041 391.635h96.319v36.264h-96.319z" fill="#b0e7c9"/></g><g><path d="m102.85 320.24c-50.882 0-92.13 41.248-92.13 92.13s41.248 92.13 92.13 92.13 92.13-41.248 92.13-92.13-41.248-92.13-92.13-92.13zm0 155.45c-34.971 0-63.32-28.349-63.32-63.32s28.349-63.32 63.32-63.32 63.32 28.349 63.32 63.32-28.349 63.32-63.32 63.32z" fill="#cbc4cc"/></g><g><circle cx="102.575" cy="412.37" fill="#a79ba7" r="20.736"/></g><g><path d="m351.138 320.24c-50.882 0-92.13 41.248-92.13 92.13s41.248 92.13 92.13 92.13 92.13-41.248 92.13-92.13-41.248-92.13-92.13-92.13zm0 155.45c-34.971 0-63.32-28.349-63.32-63.32s28.349-63.32 63.32-63.32 63.32 28.349 63.32 63.32-28.35 63.32-63.32 63.32z" fill="#cbc4cc"/></g><g><circle cx="350.863" cy="412.37" fill="#a79ba7" r="20.736"/></g><g><path d="m334.841 110.925-113.913 169.308h34.016l94.925-141.086c6.998-10.401 18.713-16.639 31.249-16.639h46.873v-28.222h-61.9c-12.537 0-24.251 6.238-31.25 16.639z" fill="#e2dee2"/></g><g><path d="m493.339 122.645h-65.348v-28.359h65.348c4.386 0 7.942 3.556 7.942 7.942v12.475c-.001 4.386-3.556 7.942-7.942 7.942z" fill="#918291"/></g><g><path d="m179.041 181.764h-32.557v-158.816c0-8.532 6.916-15.448 15.448-15.448h1.661c8.532 0 15.448 6.916 15.448 15.448z" fill="#a79ba7"/></g></g><g><path d="m102.85 341.55c-39.05 0-70.819 31.77-70.819 70.82s31.77 70.82 70.819 70.82c39.051 0 70.821-31.77 70.821-70.82s-31.771-70.82-70.821-70.82zm27.627 66.484 25.991-11.153c1.424 4.922 2.203 10.114 2.203 15.489 0 4.958-.658 9.764-1.877 14.343l-26.159-11.225c.113-1.025.176-2.064.176-3.119 0-1.473-.115-2.921-.334-4.335zm19.919-24.87-26.093 11.196c-3.582-4.315-8.424-7.542-13.954-9.129v-28.164c16.92 2.284 31.458 12.165 40.047 26.097zm-47.821 42.442c-7.298 0-13.235-5.938-13.235-13.236s5.938-13.236 13.235-13.236 13.235 5.938 13.235 13.236-5.937 13.236-13.235 13.236zm-55.545-13.236c0-5.374.779-10.567 2.203-15.488l25.479 10.933c-.242 1.484-.373 3.004-.373 4.555 0 1.131.075 2.245.205 3.342l-25.637 11.001c-1.219-4.579-1.877-9.385-1.877-14.343zm48.32-55.302v28.007c-5.684 1.506-10.667 4.744-14.354 9.113l-25.692-11.024c8.59-13.932 23.127-23.812 40.046-26.096zm-40.654 83.483 25.53-10.955c3.748 4.851 9.033 8.455 15.123 10.068v28.007c-17.328-2.338-32.153-12.651-40.653-27.12zm55.654 27.121v-28.163c5.932-1.702 11.07-5.295 14.713-10.088l25.942 11.131c-8.501 14.468-23.326 24.781-40.655 27.12z"/><path d="m351.138 483.19c39.051 0 70.82-31.77 70.82-70.82 0-39.051-31.77-70.82-70.82-70.82s-70.82 31.77-70.82 70.82c-.001 39.05 31.769 70.82 70.82 70.82zm-.276-84.055c7.299 0 13.236 5.938 13.236 13.236s-5.938 13.236-13.236 13.236-13.235-5.938-13.235-13.236 5.937-13.236 13.235-13.236zm-28.03 16.578-25.637 11.001c-1.219-4.58-1.877-9.385-1.877-14.343 0-5.374.779-10.567 2.203-15.489l25.479 10.933c-.242 1.484-.373 3.004-.373 4.555 0 1.132.075 2.245.205 3.343zm-19.849 24.839 25.53-10.955c3.748 4.851 9.034 8.455 15.124 10.068v28.007c-17.328-2.339-32.153-12.652-40.654-27.12zm55.655 27.12v-28.164c5.932-1.702 11.069-5.295 14.713-10.088l25.942 11.131c-8.501 14.469-23.326 24.782-40.655 27.121zm48.32-55.302c0 4.958-.658 9.764-1.877 14.343l-26.159-11.224c.113-1.025.176-2.064.176-3.119 0-1.474-.115-2.922-.333-4.336l25.99-11.152c1.424 4.921 2.203 10.114 2.203 15.488zm-8.274-29.206-26.092 11.196c-3.582-4.314-8.424-7.542-13.954-9.129v-28.164c16.918 2.285 31.456 12.165 40.046 26.097zm-55.046-26.096v28.007c-5.684 1.506-10.668 4.744-14.355 9.113l-25.691-11.024c8.589-13.932 23.127-23.812 40.046-26.096z"/><path d="m493.339 86.786h-127.248c-15.058 0-29.066 7.459-37.472 19.952l-45.433 67.526h-62.825v-118.185c0-13.051-10.617-23.668-23.668-23.668h-10.152v-9.463c0-12.654-10.294-22.948-22.947-22.948h-1.661c-12.653 0-22.948 10.294-22.948 22.948v9.463h-6.58c-16.302 0-32.486 4.006-46.804 11.586-3.661 1.938-5.058 6.477-3.12 10.137 1.347 2.542 3.946 3.993 6.636 3.992 1.183 0 2.384-.281 3.502-.873 12.164-6.439 25.922-9.843 39.786-9.843h6.58v126.853h-91.753v-41.681c0-21.1 7.771-41.343 21.884-57 2.773-3.077 2.526-7.819-.55-10.592-3.078-2.772-7.819-2.528-10.593.55-16.6 18.417-25.741 42.227-25.741 67.043v84.584c0 36.629 28.055 66.819 63.804 70.234 1.426 9.734 5.765 18.534 12.107 25.48-1.753-.092-3.518-.141-5.294-.141-54.937 0-99.63 44.694-99.63 99.63s44.694 99.63 99.631 99.63c47.012 0 86.518-32.732 96.939-76.601h54.411c10.42 43.869 49.926 76.601 96.938 76.601 54.937 0 99.63-44.694 99.63-99.63s-44.693-99.63-99.63-99.63c-6.735 0-13.314.676-19.678 1.956 7.391-7.297 12.436-16.954 13.914-27.736 33.993-5.046 60.16-34.418 60.16-69.792v-15.978c0-14.847-12.079-26.927-26.926-26.927h-43.326l20.811-30.93c5.614-8.344 14.97-13.325 25.026-13.325l112.221.136c8.515 0 15.441-6.927 15.441-15.442v-12.475c-.001-8.514-6.927-15.441-15.442-15.441zm-296.646-39.375c4.779 0 8.668 3.888 8.668 8.668v118.185h-18.82v-126.853zm-42.709-24.463c0-4.383 3.565-7.948 7.948-7.948h1.661c4.382 0 7.947 3.565 7.947 7.948v151.316h-17.557v-151.316zm-106.752 194.219v-27.904h225.862l-56.16 83.469h-113.914-.223c-30.639.001-55.565-24.926-55.565-55.565zm282.782 70.566c-3.356 14.808-16.624 25.897-32.434 25.897h-153.807c-15.81 0-29.077-11.089-32.434-25.897zm-227.164 209.267c-46.665 0-84.63-37.965-84.63-84.63s37.965-84.63 84.63-84.63c46.666 0 84.631 37.965 84.631 84.63 0 4.735-.41 9.374-1.161 13.899-.034.153-.059.309-.083.466-6.846 39.844-41.62 70.265-83.387 70.265zm99.306-76.601c.212-2.649.324-5.326.324-8.029 0-4.487-.303-8.904-.881-13.236h50.79c-.578 4.332-.881 8.749-.881 13.236 0 2.703.112 5.38.324 8.029zm233.612-8.029c0 46.665-37.965 84.63-84.63 84.63s-84.63-37.965-84.63-84.63 37.965-84.63 84.63-84.63 84.63 37.965 84.63 84.63zm-180.179-28.235h-57.191c-6.835-23.09-21.826-42.71-41.627-55.504h140.444c-19.8 12.793-34.79 32.413-41.626 55.504zm88.057-249.175-45.898 68.218c-2.312 3.437-1.4 8.097 2.036 10.409 3.435 2.312 8.096 1.401 10.409-2.036l14.996-22.288h53.418c6.576 0 11.926 5.35 11.926 11.927v15.977c0 30.639-24.926 55.565-55.564 55.565h-65.939l23.182-34.455c2.312-3.437 1.4-8.097-2.036-10.409-3.436-2.311-8.097-1.401-10.409 2.036l-28.815 42.828h-15.938l106.051-157.621c5.614-8.344 14.97-13.325 25.026-13.325h54.4v13.222h-39.373c-15.057 0-29.066 7.459-37.472 19.952zm150.134-20.257c0 .244-.198.442-.441.442h-57.848v-13.358h57.848c.243 0 .441.198.441.442z"/></g></g></svg>