<svg id="Capa_1" enable-background="new 0 0 512 512" height="512" viewBox="0 0 512 512" width="512" xmlns="http://www.w3.org/2000/svg"><g><g><path d="m256 207.658h234.489c.589-6.791.908-13.66.908-20.604 0-65.003-26.348-123.852-68.946-166.45l-166.451 166.45z" fill="#ff9db0"/></g><g><path d="m378.543 182.342c-12.104-19.409-13.936-50.03-2.685-86.008v-29.138l-119.858 119.858v20.604h122.543z" fill="#ea819a"/></g><g><path d="m264.534 207.658 172.485-172.485c8.046-8.046 8.046-21.092 0-29.138-8.046-8.046-21.092-8.046-29.138 0l-201.623 201.623z" fill="#e2e2e2"/></g><g><path d="m206.258 207.658h58.276l111.324-111.324c-8.046 8.046-21.092 8.046-29.138 0s-8.046-21.092 0-29.138z" fill="#d4d4d2"/></g><g><path d="m394.809 347.171h-277.618c-27.597 0-51.851-18.295-59.433-44.83l-28.398-99.395h453.28l-28.399 99.395c-7.581 26.535-31.835 44.83-59.432 44.83z" fill="#ff9db0"/></g><g><path d="m140.173 302.341-28.399-99.395h-82.414l28.399 99.395c7.581 26.535 31.835 44.83 59.433 44.83h82.414c-27.597 0-51.851-18.295-59.433-44.83z" fill="#ea819a"/></g><g><path d="m491.394 223.549h-470.788c-11.379 0-20.604-9.225-20.604-20.604 0-11.379 9.225-20.604 20.604-20.604h470.787c11.379 0 20.604 9.225 20.604 20.604 0 11.38-9.224 20.604-20.603 20.604z" fill="#ffb2c1"/></g><g><path d="m82.417 202.946c0-11.379 9.225-20.604 20.604-20.604h-82.415c-11.379 0-20.604 9.225-20.604 20.604 0 11.379 9.225 20.604 20.604 20.604h82.414c-11.378-.001-20.603-9.225-20.603-20.604z" fill="#ff9db0"/></g><g><g><path d="m61.823 470.794c-5.96 0-11.871-2.572-15.945-7.54-7.214-8.799-5.931-21.782 2.868-28.997l223.045-182.895c8.802-7.214 21.781-5.931 28.997 2.868 7.214 8.799 5.931 21.782-2.868 28.997l-223.045 182.895c-3.831 3.141-8.456 4.672-13.052 4.672z" fill="#d4d4d2"/></g></g><g><g><path d="m450.195 470.793c-5.622 0-11.223-2.288-15.291-6.787l-314.293-347.679c-3.899-4.314-9.47-6.788-15.284-6.788h-84.72c-11.379 0-20.604-9.224-20.604-20.604s9.224-20.604 20.604-20.604h84.72c17.443 0 34.155 7.422 45.853 20.361l314.294 347.679c7.631 8.442 6.973 21.471-1.468 29.102-3.943 3.564-8.884 5.32-13.811 5.32z" fill="#e2e2e2"/></g></g><g><path d="m465.474 436.372-148.535-164.312c1.737 3.067 2.74 6.604 2.74 10.381 0 11.663-9.455 21.119-21.119 21.119-4.58 0-8.807-1.473-12.267-3.95l148.611 164.397c4.067 4.499 9.669 6.787 15.291 6.787 4.927 0 9.868-1.756 13.811-5.319 8.441-7.632 9.099-20.661 1.468-29.103z" fill="#d4d4d2"/></g><g><circle cx="450.189" cy="450.189" fill="#5c586f" r="61.811"/></g><g><path d="m450.189 388.378c-34.137 0-61.811 27.674-61.811 61.811s27.674 61.811 61.811 61.811c-11.379 0-20.604-9.225-20.604-20.604s9.225-20.604 20.604-20.604v-41.207c-11.379 0-20.604-9.225-20.604-20.604s9.225-20.603 20.604-20.603z" fill="#423e4f"/></g><g><circle cx="61.811" cy="450.189" fill="#5c586f" r="61.811"/></g><g><path d="m61.811 388.378c-34.137 0-61.811 27.674-61.811 61.811s27.674 61.811 61.811 61.811c-11.379 0-20.604-9.225-20.604-20.604s9.225-20.604 20.604-20.604v-41.207c-11.379 0-20.604-9.225-20.604-20.604s9.225-20.603 20.604-20.603z" fill="#423e4f"/></g><g><path d="m450.189 470.793h-388.378c-11.379 0-20.604-9.225-20.604-20.604 0-11.379 9.225-20.604 20.604-20.604h388.378c11.379 0 20.604 9.225 20.604 20.604 0 11.379-9.225 20.604-20.604 20.604z" fill="#e2e2e2"/></g><g><path d="m185.433 450.189c0-11.379 9.225-20.604 20.604-20.604h-144.226c-11.379 0-20.604 9.225-20.604 20.604 0 11.379 9.225 20.604 20.604 20.604h144.225c-11.379 0-20.603-9.225-20.603-20.604z" fill="#d4d4d2"/></g></g></svg>