<svg id="Capa_1" enable-background="new 0 0 512 512" height="512" viewBox="0 0 512 512" width="512" xmlns="http://www.w3.org/2000/svg"><g><path d="m388.038 156.381h-157.134v-139.785c0-.27-.013-.538-.025-.804l-16.877-8.936c-96.704 8.976-163.493 83.556-163.493 182.605l6.72 16.541 347.74-2.315 16.149-14.226c.001-18.269-14.81-33.08-33.08-33.08z" fill="#98db7c"/><path d="m57.23 189.462-8.091 60.638c0 18.27 14.811 33.081 33.081 33.081h305.818l28.661-11.017c2.814-4.865 4.42-10.516 4.42-16.54v-66.162z" fill="#77cc7d"/><path d="m73.77 272.164c-9.135 0-16.54-7.405-16.54-16.54v-66.162l-8.241-4.127-8.3 4.127v66.162c0 18.27 14.811 33.081 33.081 33.081h314.268c12.214 0 22.93-6.694 28.661-16.54h-342.929z" fill="#52bd7e"/><path d="m268.531 363.136h-139.209l-14.958 16.479 74.175 74.177c9.306 9.306 16.677 6.619 29.838 6.619h135.769z" fill="#736572"/><circle cx="90.31" cy="470.649" fill="#615260" r="41.351"/><circle cx="90.31" cy="470.649" fill="#fff4d6" r="24.811"/><path d="m363.227 429.298c-16.955 0-31.518 10.208-37.9 24.811h-106.949c-8.836 0-17.146-3.444-23.397-9.688l-73.751-73.755-12.115 11.271 74.175 74.177c9.306 9.306 21.927 14.534 35.088 14.534h103.499c0 22.838 18.514 41.351 41.351 41.351 22.838 0 41.351-18.513 41.351-41.351-.001-22.837-18.514-41.35-41.352-41.35z" fill="#615260"/><circle cx="363.227" cy="470.649" fill="#fff4d6" r="24.811"/><path d="m459.764 71.527c3.376-3.073 3.626-8.303.557-11.682-3.069-3.372-8.311-3.618-11.686-.553l-353.027 320.954c-8.626 7.818-13.568 18.979-13.568 30.63v59.773h16.54v-59.773c0-6.99 2.964-13.689 8.149-18.386l94.084-85.537c3.45-3.136 8.808-2.802 11.842.737l144.296 168.342 12.551-10.766-144.92-169.072c-2.912-3.397-2.595-8.492.716-11.501z" fill="#ffe077"/><circle cx="363.227" cy="470.649" fill="#ffd05b" r="8.27"/><circle cx="90.31" cy="470.649" fill="#ffd05b" r="8.27"/><path d="m238.555 186.33c-.002-.005-.001-.01-.003-.014l-65.911-160.256c18.22-6.518 37.808-10.258 58.238-10.268-.452-9.246-8.466-16.587-17.779-15.723-96.704 8.976-172.41 90.343-172.41 189.392v.001h16.54c0-21.66 4.164-42.321 11.441-61.459l158.939 69.042c.03.013.061.007.091.019l10.877-10.672c-.01-.02-.015-.041-.023-.062zm-163.275-73.486c7.231-14.625 16.437-28.056 27.309-40.006l91.701 91.704zm39.005-51.7c12.779-11.624 27.255-21.347 43.065-28.78l50.195 122.043z" fill="#77cc7d"/><circle cx="230.904" cy="189.462" fill="#ffe077" r="16.54"/><path d="m409.183 123.487c-4.503 0-8.989-1.829-12.256-5.427-6.138-6.768-5.625-17.227 1.139-23.365l45.591-41.351c6.768-6.13 17.223-5.625 23.365 1.139 6.138 6.768 5.625 17.227-1.139 23.365l-45.591 41.351c-3.166 2.871-7.143 4.288-11.109 4.288z" fill="#615260"/></g></svg>