<svg id="Capa_1" enable-background="new 0 0 512 512" height="512" viewBox="0 0 512 512" width="512" xmlns="http://www.w3.org/2000/svg"><g><path d="m85.333 100.672v69.995h-31.033v-69.882c0-8.535-6.919-15.455-15.455-15.455h-23.334c-8.566.001-15.511-6.944-15.511-15.511 0-8.567 6.945-15.511 15.511-15.511h23.458c25.606 0 46.364 20.758 46.364 46.364z" fill="#8dd470"/><path d="m243.661 252.581h31.03v257.542h-31.03z" fill="#68647d" transform="matrix(.559 -.829 .829 .559 -201.908 382.97)"/><path d="m283.854 252.581h31.03v257.542h-31.03z" fill="#827f97" transform="matrix(-.559 -.829 .829 -.559 150.619 842.789)"/><path d="m488.723 139.149v31.517h-178.42v-155.153h54.784c68.289 0 123.636 55.358 123.636 123.636z" fill="#ace094"/><path d="m318.061 170.667h-31.03v-155.608c-.001-8.317 6.741-15.059 15.058-15.059h.913c8.317 0 15.059 6.742 15.059 15.059z" fill="#f4e74d"/><path d="m338.649 212.682-25.379-17.854 116.315-165.339c4.785-6.802 14.179-8.437 20.981-3.652l.747.525c6.802 4.785 8.437 14.179 3.652 20.981z" fill="#f4e74d"/><path d="m488.725 186.187v31.506c0 68.289-55.348 123.637-123.637 123.637h-137.504l-42.459-8.974-16.804 6.409c-56.234-11.602-98.507-61.396-98.507-121.071v-31.506h418.911z" fill="#ace094"/><path d="m267.014 341.33h-73.564c-68.278 0-123.637-55.348-123.637-123.637v-31.506h120.412c7.614 9.159 12.827 15.506 12.827 15.506v81.889s4.122 42.799 63.962 57.748z" fill="#8dd470"/><path d="m512 178.429c0 6.419-2.607 12.24-6.81 16.454-4.214 4.203-10.035 6.81-16.464 6.81h-285.674l-55.894-5.605-46.302 5.605h-31.042c-12.848 0-23.264-10.416-23.264-23.264 0-6.429 2.607-12.25 6.81-16.454 4.214-4.214 10.035-6.821 16.454-6.821h418.911c12.858 0 23.275 10.417 23.275 23.275z" fill="#f9ee80"/><path d="m203.052 201.693h-133.238c-12.848 0-23.264-10.416-23.264-23.264 0-6.429 2.607-12.25 6.81-16.454 4.214-4.214 10.035-6.821 16.454-6.821h133.672c-4.647 5.461-17.124 23.707-.434 46.539z" fill="#f4e74d"/><path d="m240.484 457.693c0 24.181-15.805 44.664-37.637 51.701-5.254 1.69-10.849 2.606-16.66 2.606-29.992 0-54.307-24.315-54.307-54.307 0-29.981 24.315-54.297 54.307-54.297 6.337 0 12.415 1.082 18.061 3.08 21.111 7.439 36.236 27.571 36.236 51.217z" fill="#a09dad"/><path d="m202.846 509.394c-5.254 1.69-10.849 2.606-16.66 2.606-29.992 0-54.307-24.315-54.307-54.307 0-29.981 24.315-54.297 54.307-54.297 6.337 0 12.415 1.082 18.061 3.08-10.498 13.58-37.574 56.698-1.401 102.918z" fill="#827f97"/><path d="m209.451 457.693c0 12.354-9.613 22.461-21.77 23.223-.495.031-.989.052-1.494.052-12.858 0-23.275-10.416-23.275-23.275 0-12.848 10.416-23.264 23.275-23.264.958 0 1.906.062 2.833.175 11.508 1.391 20.431 11.199 20.431 23.089z" fill="#827f97"/><path d="m187.68 480.916c-.495.031-.989.052-1.494.052-12.858 0-23.275-10.416-23.275-23.275 0-12.848 10.416-23.264 23.275-23.264.958 0 1.906.062 2.833.175-4.44 12.971-6.541 28.962-1.339 46.312z" fill="#68647d"/><path d="m427.154 457.693c0 24.181-15.805 44.664-37.637 51.701-5.255 1.69-10.849 2.606-16.66 2.606-29.992 0-54.307-24.315-54.307-54.307 0-5.564.835-10.931 2.39-15.98l17.227-9.53v-16.269c9.407-7.82 21.492-12.518 34.69-12.518 6.337 0 12.415 1.082 18.061 3.08 21.111 7.439 36.236 27.571 36.236 51.217z" fill="#a09dad"/><path d="m389.513 509.394c-5.254 1.69-10.849 2.606-16.66 2.606-29.992 0-54.307-24.315-54.307-54.307 0-29.981 24.315-54.297 54.307-54.297 6.337 0 12.415 1.082 18.061 3.08-10.499 13.58-37.575 56.698-1.401 102.918z" fill="#827f97"/><path d="m396.117 457.693c0 12.354-9.613 22.461-21.77 23.223-.495.031-.989.052-1.494.052-12.858 0-23.275-10.416-23.275-23.275 0-12.848 10.417-23.264 23.275-23.264.958 0 1.906.062 2.833.175 11.509 1.391 20.431 11.199 20.431 23.089z" fill="#827f97"/><path d="m374.347 480.916c-.495.031-.989.052-1.494.052-12.858 0-23.275-10.416-23.275-23.275 0-12.848 10.417-23.264 23.275-23.264.958 0 1.906.062 2.833.175-4.44 12.971-6.542 28.962-1.339 46.312z" fill="#68647d"/><path d="m108.605 178.429c0 16.475-10.272 30.548-24.769 36.174l-12.168-1.504-1.855 4.111c-21.42 0-38.781-17.361-38.781-38.781 0-15.908 9.572-29.58 23.264-35.566h.021l22.502-2.596c18.083 3.296 31.786 19.122 31.786 38.162z" fill="#a09dad"/><path d="m83.836 214.603c-4.348 1.68-9.077 2.607-14.022 2.607-21.42 0-38.781-17.361-38.781-38.781 0-21.43 17.361-38.791 38.781-38.791 2.39 0 4.729.216 7.006.628-7.357 10.303-26.139 43.149 7.016 74.337z" fill="#827f97"/><g><g><ellipse cx="197.214" cy="283.586" fill="#fff" rx="30.278" ry="24.112"/><ellipse cx="361.331" cy="283.586" fill="#fff" rx="30.278" ry="24.112"/><path d="m303.684 265.06c0-15.087-10.929-16.504-24.411-16.504s-24.412 1.417-24.412 16.504c0 15.086 10.929 27.316 24.412 27.316 13.482 0 24.411-12.23 24.411-27.316z" fill="#495560"/></g><g><path d="m202.276 262.526c-4.268 0-7.727-3.459-7.727-7.727v-12.364c0-4.268 3.459-7.727 7.727-7.727s7.727 3.459 7.727 7.727v12.364c.001 4.268-3.459 7.727-7.727 7.727z" fill="#495560"/></g><g><path d="m356.27 262.526c-4.268 0-7.727-3.459-7.727-7.727v-12.364c0-4.268 3.459-7.727 7.727-7.727s7.727 3.459 7.727 7.727v12.364c0 4.268-3.459 7.727-7.727 7.727z" fill="#495560"/></g></g></g></svg>