<svg id="Capa_1" enable-background="new 0 0 512 512" height="512" viewBox="0 0 512 512" width="512" xmlns="http://www.w3.org/2000/svg"><g><path d="m496.483 201.692h-217.208v-193.934c8.819 3.678 36.936 14.064 75.058 8.16 9.953-1.535 20.585-4.183 31.733-8.356.381-.144.773-.268 1.154-.381l5.461 7.14 9.798-2.977c1.68 1.741 2.978 3.895 3.72 6.378 7.81 26.252 32.125 57.542 75.758 65.63 1.875.35 3.585 1.01 5.1 1.947l2.596 9.19 4.832 4.389c-.041 1.896-.443 3.812-1.236 5.687-8.491 19.906-15.888 54.092 3.234 97.127z" fill="#ffeab7"/><path d="m354.332 15.918c-18.978 20.637-61.952 74.512-75.058 151.166v-159.326c8.82 3.678 36.937 14.064 75.058 8.16z" fill="#fad989"/><path d="m494.495 98.239c0 .216 0 .422-.01.639l-188.484 94.211c-1.103.556-2.277.824-3.452.824-2.03 0-4.028-.804-5.512-2.318-2.349-2.39-2.895-6.017-1.339-8.984l91.522-175.43c5.595-1.607 11.426.175 15.259 4.162l-82.043 157.255 166.621-83.3c.103.051.206.124.309.185 4.357 2.752 7.036 7.605 7.129 12.756z" fill="#948ea3"/><path d="m302.549 93.603v108.089h-46.549v-178.417c0-12.859 10.416-23.275 23.275-23.275 6.419 0 12.24 2.607 16.454 6.81 2.163 2.164 3.905 4.75 5.079 7.624l-5.986 42.675z" fill="#c7c4ea"/><path d="m275.638 201.692h-19.638v-178.417c0-12.859 10.416-23.275 23.275-23.275 6.419 0 12.24 2.607 16.454 6.81 4.214 4.214 6.82 10.035 6.82 16.464v70.329c-13.95 29.714-25.222 66.197-26.911 108.089z" fill="#a29cde"/><path d="m488.725 209.451v31.517c0 68.289-55.348 123.637-123.637 123.637h-171.638c-68.278 0-123.637-55.348-123.637-123.637v-31.517z" fill="#c7c4ea"/><path d="m317.767 364.604h-124.317c-68.278 0-123.637-55.348-123.637-123.637v-31.517h205.618c-.535 46.045 10.654 98.333 42.336 155.154z" fill="#a29cde"/><path d="m512 201.641v15.63c0 8.541-6.924 15.455-15.455 15.455h-434.541c-8.541 0-15.455-6.913-15.455-15.455v-15.63c0-8.541 6.913-15.455 15.455-15.455h434.541c8.531 0 15.455 6.914 15.455 15.455z" fill="#a29cde"/><path d="m276.163 232.725h-214.159c-8.541 0-15.455-6.913-15.455-15.455v-15.63c0-8.541 6.913-15.455 15.455-15.455h214.705c-1.463 14.796-1.762 30.333-.546 46.54z" fill="#827cd2"/><path d="m310.307 332.912-91.244 63.889-130.838 91.615-26.695-38.122 130.663-91.501 91.409-64.002z" fill="#77728d"/><path d="m293.008 306.639-35.082 30.744-198.137-198.137c-9.685-9.685-22.821-15.125-36.514-15.125-6.429 0-12.25-2.607-16.464-6.821-4.204-4.203-6.811-10.025-6.811-16.454s2.607-12.25 6.81-16.454c4.214-4.214 10.035-6.82 16.464-6.82 13.023 0 25.768 2.586 37.565 7.47 11.807 4.894 22.646 12.085 31.857 21.286z" fill="#77728d"/><path d="m434.428 448.059-32.918 32.908-143.583-143.584 35.081-30.744z" fill="#948ea3"/><path d="m341.33 325.813c0 27.303-17.629 50.485-42.119 58.799-6.264 2.112-12.961 3.266-19.936 3.266-34.278 0-62.066-27.787-62.066-62.066 0-34.268 27.787-62.055 62.066-62.055 2.535 0 5.038.154 7.501.453 30.743 3.7 54.554 29.87 54.554 61.603z" fill="#77728d"/><path d="m299.211 384.613c-6.264 2.112-12.961 3.266-19.936 3.266-34.278 0-62.066-27.787-62.066-62.066 0-34.268 27.787-62.055 62.066-62.055 2.535 0 5.038.154 7.501.453-9.665 16.64-32.651 67.846 12.435 120.402z" fill="#5c576e"/><circle cx="411.152" cy="457.697" fill="#77728d" r="54.303"/><circle cx="411.152" cy="457.697" fill="#ffeab7" r="23.273"/><circle cx="93.091" cy="457.697" fill="#5c576e" r="54.303"/><circle cx="93.091" cy="457.697" fill="#fad989" r="23.273"/><path d="m310.307 325.813c0 16.526-12.92 30.033-29.199 30.971l-25.108-11.189-2.473-33.67 21.183-16.794c1.494-.227 3.019-.34 4.564-.34 17.135 0 31.033 13.888 31.033 31.022z" fill="#ffeab7"/><path d="m281.109 356.784c-.608.041-1.216.062-1.834.062-17.144 0-31.033-13.889-31.033-31.033 0-15.589 11.488-28.488 26.468-30.682-3.791 17.02-4.173 38.584 6.399 61.653z" fill="#fad989"/></g></svg>