<svg height="512" viewBox="0 0 128 128" width="512" xmlns="http://www.w3.org/2000/svg"><g><g><path d="m112.43 83.55a6.478 6.478 0 0 0 6.48-6.48v-21.91h-109.84v21.91a6.478 6.478 0 0 0 6.48 6.48z" fill="#fdcb71"/><path d="m46.052 105.264-.011 7.071h35.902l-.011-7.071z" fill="#d1d1fd"/><path d="m119.31 55.16a4.67 4.67 0 1 0 0-9.34h-110.64a4.67 4.67 0 0 0 0 9.34z" fill="#696eaf"/><path d="m72.479 77.102h7.077v26.935h-7.077z" fill="#d1d1fd" transform="matrix(.707 -.707 .707 .707 -41.777 80.279)"/><path d="m48.49 6.41a39.183 39.183 0 0 0 -25.89 9.71l41.39 29.7v-39.41z" fill="#ff7a8c"/><path d="m9.07 45.82h54.92l-41.39-29.7a39.281 39.281 0 0 0 -13.53 29.7z" fill="#f4677f"/><path d="m39.942 97.59 5 5c53.03-53.029 25.11-25.113 78.015-78.025a3.539 3.539 0 1 0 -5-5c-104.098 104.117-55.394 55.4-78.015 78.025z" fill="#ecebfd"/><circle cx="33.742" cy="108.79" fill="#696eaf" r="12.799" transform="matrix(.851 -.526 .526 .851 -52.155 33.987)"/><circle cx="94.242" cy="108.79" fill="#696eaf" r="12.799" transform="matrix(.924 -.383 .383 .924 -34.458 44.346)"/><g fill="#4c5696"><circle cx="33.742" cy="108.79" r="5.378"/><circle cx="94.242" cy="108.79" r="5.378"/></g></g><path d="m7.32 56.765v20.3a8.239 8.239 0 0 0 8.23 8.23h34.206l-10.173 10.18a14.547 14.547 0 1 0 7.7 18.61h33.417a14.539 14.539 0 0 0 27.133-.114 1.75 1.75 0 1 0 -3.272-1.242 11.049 11.049 0 0 1 -21.37-3.929v-.012a11.049 11.049 0 0 1 21.373-3.94 1.75 1.75 0 0 0 3.272-1.243 14.614 14.614 0 0 0 -13.6-9.369 14.455 14.455 0 0 0 -5.84 1.233l-10.168-10.169h34.2a8.24 8.24 0 0 0 8.23-8.231v-20.3a6.42 6.42 0 0 0 -1.35-12.7h-13.371l18.263-18.262a5.288 5.288 0 1 0 -7.478-7.48l-25.742 25.743h-25.24v-37.66a1.749 1.749 0 0 0 -1.75-1.75h-15.5a41.185 41.185 0 0 0 -41.126 39.54 6.42 6.42 0 0 0 -.044 12.565zm26.422 63.075a11.05 11.05 0 1 1 11.05-11.05 11.062 11.062 0 0 1 -11.05 11.05zm30.249-33.818 16.931 16.931c-.081.185-.153.373-.227.562h-33.408c-.073-.188-.145-.376-.226-.56zm15.809 24.563h-31.617a16.315 16.315 0 0 0 .005-3.57h31.612a14.634 14.634 0 0 0 0 3.57zm2.961-10.74-16.3-16.3 2.539-2.526 16.3 16.3a20.071 20.071 0 0 0 -2.537 2.526zm34.4-22.775a4.736 4.736 0 0 1 -4.73 4.731h-37.7l-3.258-3.26 21.627-21.631h24.06zm2.15-29.5a2.92 2.92 0 1 1 0 5.84h-22.711l5.836-5.84zm-.117-26.77a1.823 1.823 0 0 1 2.535.006 1.78 1.78 0 0 1 0 2.523l-76.5 76.514a20.916 20.916 0 0 0 -2.53-2.53c-.125.121 60.52-60.532 76.495-76.513zm-56.954-12.64v34.25l-36.772-26.386a37.583 37.583 0 0 1 23.022-7.864zm-39.515 10.2 35.824 25.71h-47.688a37.631 37.631 0 0 1 11.864-25.705zm-14.055 29.21h78.811l-5.839 5.84h-38.342a1.75 1.75 0 0 0 0 3.5h34.842l-24.886 24.89h-37.706a4.736 4.736 0 0 1 -4.73-4.73v-20.16h9.27a1.75 1.75 0 1 0 0-3.5h-11.42a2.92 2.92 0 0 1 0-5.84zm18.79 7.59a1.749 1.749 0 0 1 1.75-1.75h4.97a1.75 1.75 0 1 1 0 3.5h-4.97a1.749 1.749 0 0 1 -1.75-1.75zm6.282 46.5a7.128 7.128 0 1 0 7.128 7.128 7.136 7.136 0 0 0 -7.128-7.126zm0 10.756a3.628 3.628 0 1 1 3.628-3.628 3.633 3.633 0 0 1 -3.628 3.63zm53.372-3.628a7.128 7.128 0 1 0 7.128-7.128 7.136 7.136 0 0 0 -7.128 7.13zm10.756 0a3.628 3.628 0 1 1 -3.628-3.628 3.633 3.633 0 0 1 3.628 3.63z" fill="#272933"/></g></svg>