<svg viewBox="0 0 32 32" xmlns="http://www.w3.org/2000/svg"><g id="baby_carriage" data-name="baby carriage"><g><path d="m27.10989 14.27657v5.65523a2.16965 2.16965 0 0 1 -2.17513 2.165h-19.37361a2.17609 2.17609 0 0 1 -2.17506-2.165v-5.65523z" fill="#dd636e"/><path d="m24.93457 22.59668h-19.37305a2.67321 2.67321 0 0 1 -2.67578-2.665v-5.65531a.49972.49972 0 0 1 .5-.5h23.72461a.49971.49971 0 0 1 .5.5v5.65527a2.67321 2.67321 0 0 1 -2.67578 2.66504zm-21.04883-7.82031v5.15527a1.67255 1.67255 0 0 0 1.67578 1.665h19.37305a1.67254 1.67254 0 0 0 1.67578-1.665v-5.15527z"/><path d="m16.09273 2.268v10.319h-1.68948v-10.319a.84616.84616 0 0 1 1.68948 0z" fill="#e7ecf1"/><path d="m16.09277 13.08691h-1.68945a.49971.49971 0 0 1 -.5-.5v-10.31884a1.34573 1.34573 0 0 1 2.68946 0v10.31884a.49971.49971 0 0 1 -.50001.5zm-1.18945-1h.68945v-9.81347a.30365.30365 0 0 0 -.33984-.30274.31463.31463 0 0 0 -.34961.30762z"/><path d="m26.381 12.587v-5.706l-4.603-4.613h-5.685v10.319z" fill="#dd636e"/><path d="m26.38184 13.08691h-10.28907a.49972.49972 0 0 1 -.5-.5v-10.31884a.49972.49972 0 0 1 .5-.5h5.68555a.49807.49807 0 0 1 .35352.147l4.60351 4.61328a.49936.49936 0 0 1 .14649.353v5.70556a.49972.49972 0 0 1 -.5.5zm-9.78907-1h9.28907v-4.99853l-4.31055-4.32031h-4.97852z"/><path d="m28.38461 13.43686a.83767.83767 0 0 1 -.83971.83971h-24.59382a.84479.84479 0 0 1 0-1.68954h24.59382a.83991.83991 0 0 1 .83971.84983z" fill="#e7ecf1"/><path d="m27.54492 14.77637h-24.59375a1.345 1.345 0 0 1 .00006-2.68945h24.59369a1.345 1.345 0 0 1 0 2.68945zm-24.59375-1.68946a.345.345 0 0 0 .00005.68945h24.5937a.345.345 0 0 0 0-.68945z"/><path d="m16.09277 13.08691a.50323.50323 0 0 1 -.43748-.74122l5.68553-10.31883a.49968.49968 0 0 1 .875.48245l-4.84764 8.79831 8.77149-4.86377a.50006.50006 0 1 1 .48437.875l-10.28904 5.70556a.5.5 0 0 1 -.24223.0625z"/><path d="m9.69893 27.95145a2.59 2.59 0 0 1 -5.17977-.00008 2.59 2.59 0 0 1 5.17977.00008z" fill="#454045"/><path d="m25.97681 27.95145a2.59 2.59 0 0 1 -5.17976-.00008 2.59 2.59 0 0 1 5.17976.00008z" fill="#454045"/><path d="m7.11035 31.0127a3.06178 3.06178 0 0 1 -.00185-6.12354 3.06178 3.06178 0 0 1 .00185 6.12354zm-.00683-5.12354a2.0618 2.0618 0 1 0 .01275 4.12353 2.0618 2.0618 0 1 0 -.01275-4.12353z"/><path d="m8.19613 27.948a1.08267 1.08267 0 0 1 -2.16511 0 1.08267 1.08267 0 0 1 2.16511 0z" fill="#e7ecf1"/><path d="m24.465 27.948a1.08267 1.08267 0 0 1 -2.16512 0 1.08267 1.08267 0 0 1 2.16512 0z" fill="#e7ecf1"/><path d="m7.11328 29.51514a1.53791 1.53791 0 0 1 -1.57895-1.64232 1.58305 1.58305 0 0 1 3.162.08421 1.53876 1.53876 0 0 1 -1.58305 1.55811zm0-2.13428a.56728.56728 0 1 0 0 1.13428.56728.56728 0 1 0 0-1.13428z"/><path d="m16.10285 19.40577a1.08261 1.08261 0 0 1 -2.165 0 1.08261 1.08261 0 0 1 2.165 0z" fill="#e7ecf1"/><path d="m15.01758 20.97266a1.56764 1.56764 0 0 1 .00007-3.13525 1.56764 1.56764 0 1 1 -.00007 3.13525zm-.001-2.13526a.56773.56773 0 1 0 .00195 1.13526.56773.56773 0 1 0 -.00195-1.13526z"/><path d="m23.38574 31.0127a3.06153 3.06153 0 0 1 .00205-6.123 3.06153 3.06153 0 0 1 -.00205 6.123zm.002-5.123a2.06155 2.06155 0 1 0 -.00776 4.123 2.06155 2.06155 0 1 0 .00772-4.12305z"/><path d="m23.38281 29.51514a1.56714 1.56714 0 0 1 0-3.13428 1.56714 1.56714 0 0 1 0 3.13428zm0-2.13428a.5509.5509 0 0 0 -.583.57568.58268.58268 0 0 0 1.165-.00876.55028.55028 0 0 0 -.582-.56692z"/><path d="m20.797 27.95145a2.567 2.567 0 0 0 .14159.83971h-11.38131a2.51434 2.51434 0 0 0 -.01012-1.68948h11.39147a2.58236 2.58236 0 0 0 -.14163.84977z" fill="#e7ecf1"/><path d="m20.93848 29.291h-11.38086a.50355.50355 0 0 1 -.47069-.668 2.00652 2.00652 0 0 0 -.0049-1.3374.50336.50336 0 0 1 .46486-.68407h11.39159c.8099.086.34321.84477.35835 1.3501-.01317.49883.45017 1.25455-.35835 1.33937zm-10.75879-1h10.13574a3.13047 3.13047 0 0 1 .001-.68946h-10.13772a3.19076 3.19076 0 0 1 .00098.68946z"/><path d="m23.38672 25.86475a.5006.5006 0 0 1 -.2959-.09668l-7.415-5.43311a.50033.50033 0 0 1 .59182-.80662l7.415 5.43309a.50341.50341 0 0 1 -.29592.90332z"/><path d="m7.10938 25.86475a.503.503 0 0 1 -.2949-.90333l7.122-5.21044a.49974.49974 0 0 1 .58982.80666l-7.122 5.21043a.49565.49565 0 0 1 -.29492.09668z"/><path d="m14.51465 18.94482a.49969.49969 0 0 1 -.39649-.19482l-8.33789-10.82227h-3.66894a.5.5 0 0 1 0-1h3.915a.50007.50007 0 0 1 .39648.19483l8.48828 11.01709a.504.504 0 0 1 -.39644.80517z"/></g></g></svg>