<svg height="512" viewBox="0 0 512 512" width="512" xmlns="http://www.w3.org/2000/svg"><g id="Flat"><path d="m422.667 398.667-8-13.857-30.667 17.333v-34.143h-16v34.143l-30.667-17.81-8 13.857 30.667 17.81-31.667 18.144 8 13.856 31.667-18.143v34.143h16v-34.143l32 18.333 8-13.857-32-18.333z" fill="#374357"/><path d="m152 424h184a0 0 0 0 1 0 0v32a0 0 0 0 1 0 0h-184a16 16 0 0 1 -16-16 16 16 0 0 1 16-16z" fill="#d6d6d4"/><path d="m96 176h320a0 0 0 0 1 0 0v72a24 24 0 0 1 -24 24h-272a24 24 0 0 1 -24-24v-72a0 0 0 0 1 0 0z" fill="#f35244"/><path d="m120 200h16v48h-16z" fill="#fc685b"/><path d="m290.86 26.36a153.334 153.334 0 0 0 -26.86-2.36h-16a151.972 151.972 0 0 0 -152 152h160l83.38-132.02a150.846 150.846 0 0 0 -48.52-17.62z" fill="#f35244"/><path d="m380 108-226.627 226.627a32 32 0 0 0 -9.373 22.628v58.745l32-8v-44.686a8 8 0 0 1 2.343-5.657l225.657-225.657z" fill="#d6d6d4"/><path d="m472 72h-42.745a32 32 0 0 0 -22.628 9.373l-26.627 26.627 24 24 28-28h40a16 16 0 0 0 16-16 16 16 0 0 0 -16-16z" fill="#4d5e78"/><path d="m189.953 298.047 27.907 20.093 20.652-20.652-27.908-20.093z" fill="#bfbfbd"/><path d="m272 240h32v112h-32z" fill="#d6d6d4"/><circle cx="288" cy="232" fill="#4d5e78" r="32"/><path d="m238.512 297.488-20.652 20.652 102.584 73.86 16.001-24z" fill="#d6d6d4"/><path d="m376 344a72 72 0 1 0 72 72 72 72 0 0 0 -72-72zm0 112a40 40 0 1 1 40-40 40 40 0 0 1 -40 40z" fill="#4d5e78"/><path d="m160 392a48 48 0 1 0 48 48 48 48 0 0 0 -48-48zm0 64a16 16 0 1 1 16-16 16 16 0 0 1 -16 16z" fill="#4d5e78"/><circle cx="376" cy="416" fill="#4d5e78" r="16"/><g fill="#fc685b"><path d="m256.007 184a8.005 8.005 0 0 1 -7.8-9.817l34.86-149.64a8 8 0 1 1 15.582 3.63l-34.86 149.64a8 8 0 0 1 -7.782 6.187z"/><path d="m256 184a8 8 0 0 1 -7.508-5.236l-53.45-145.09a8 8 0 1 1 15.014-5.531l53.45 145.089a8 8 0 0 1 -7.506 10.768z"/><path d="m255.992 184a7.962 7.962 0 0 1 -4.287-1.251l-133.89-85.2a8 8 0 0 1 8.59-13.5l133.89 85.2a8 8 0 0 1 -4.3 14.751z"/><circle cx="256" cy="176" r="16"/><path d="m256 184h-160a8 8 0 0 1 0-16h160a8 8 0 0 1 0 16z"/></g></g></svg>