<svg id="Capa_1" enable-background="new 0 0 512 512" height="512" viewBox="0 0 512 512" width="512" xmlns="http://www.w3.org/2000/svg"><g><path d="m41.707 80.564v101.279l194.499 31.038v-31.038l-97.25-73.205z" fill="#7cdcc0"/><path d="m236.206 181.843v-181.843h-113.935l25.6 96.392z" fill="#539499"/><path d="m122.271 0-80.564 80.564 194.499 101.279z" fill="#65b4bb"/><g><g><path d=""/></g><g><path d="m298.131 317.253h30v88.581h-30z" fill="#b1d6f2" transform="matrix(.717 -.697 .697 .717 -163.398 320.499)"/></g></g><g><path d="m41.707 181.843v74.443c0 33.949 27.521 61.469 61.469 61.469h152.824l26.264-67.956-26.264-67.956z" fill="#c3edb0"/></g><path d="m256 181.843v135.912h152.824c33.949 0 61.469-27.521 61.469-61.469v-74.443z" fill="#7cdcc0"/><g><path d="m157.244 382.852 21.513 20.908 77.243-79.482v-43.046z" fill="#d6e7fe"/><path d="m439.305 92.614-183.305 188.618v43.046l204.818-210.756z" fill="#b1d6f2"/></g><path d="m209.527 302.755c0 25.666 20.807 46.473 46.473 46.473l15.507-46.473-15.507-46.473c-25.666 0-46.473 20.807-46.473 46.473z" fill="#539499"/><path d="m256 256.282v92.946c25.666 0 46.473-20.807 46.473-46.473s-20.807-46.473-46.473-46.473z" fill="#386468"/><g><path d="m126.22 512c-41.502 0-75.266-33.764-75.266-75.266 0-41.501 33.764-75.266 75.266-75.266 41.501 0 75.266 33.764 75.266 75.266-.001 41.502-33.765 75.266-75.266 75.266zm0-120.532c-24.96 0-45.266 20.306-45.266 45.266s20.306 45.266 45.266 45.266c24.959 0 45.266-20.306 45.266-45.266-.001-24.96-20.307-45.266-45.266-45.266z" fill="#539499"/></g><g><path d="m111.22 421.734h30v30h-30z" fill="#539499"/></g><g><path d="m385.78 512c-41.502 0-75.266-33.764-75.266-75.266 0-41.501 33.764-75.266 75.266-75.266s75.267 33.764 75.267 75.266-33.765 75.266-75.267 75.266zm0-120.532c-24.96 0-45.266 20.306-45.266 45.266s20.306 45.266 45.266 45.266 45.267-20.306 45.267-45.266-20.307-45.266-45.267-45.266z" fill="#386468"/></g><g><path d="m370.78 421.734h30v30h-30z" fill="#386468"/></g></g></svg>