<svg id="Capa_1" enable-background="new 0 0 512 512" height="512" viewBox="0 0 512 512" width="512" xmlns="http://www.w3.org/2000/svg"><path d="m346 210.998h130.459l35.541-30-26.913-83.015-101.323 35.017-67.764 47.998z" fill="#bbc4ea"/><path d="m316 180.998 169.087-83.015-71.323-71.321-63.028 52.139z" fill="#d1d6f2"/><path d="m334.882.511c-4.482-1.201-9.316-.249-13.008 2.593-3.706 2.826-5.874 7.236-5.874 11.894v166l97.764-154.336z" fill="#edeff9"/><path d="m316 180.998h-180c-8.284 0-15 6.714-15 15v61c0 57.99 47.01 105 105 105h90 90c57.99 0 106-47.01 106-105v-76z" fill="#7ed8f6"/><path d="m512 256.998v-76h-196v181h90c57.99 0 106-47.011 106-105z" fill="#6aa9ff"/><path d="m242.816 435.181c-3.838 0-7.676-1.465-10.605-4.395-5.859-5.859-5.859-15.352 0-21.211l73.184-73.184c5.859-5.859 15.352-5.859 21.211 0s5.859 15.352 0 21.211l-73.184 73.184c-2.93 2.931-6.768 4.395-10.606 4.395z" fill="#463f3f"/><path d="m399.789 409.576-83.789-83.789-228.578-228.578c-16.919-16.919-40.049-22.808-58.799-15.015-18.193 7.529-28.623 26.206-28.623 51.226v32.578c0 8.291 6.709 15 15 15s15-6.709 15-15v-32.578c0-7.222 1.318-19.878 10.107-23.511 7.28-3.018 18.062.469 26.104 8.511l249.789 249.789 62.578 62.578c2.93 2.93 6.768 4.395 10.605 4.395s7.676-1.465 10.605-4.395c5.86-5.859 5.86-15.352.001-21.211z" fill="#5b5555"/><path d="m389.184 435.181c3.838 0 7.676-1.465 10.605-4.395 5.859-5.859 5.859-15.352 0-21.211l-83.789-83.788v42.422l62.578 62.578c2.93 2.93 6.768 4.394 10.606 4.394z" fill="#463f3f"/><path d="m421 511.998c-33.091 0-60-26.909-60-60s26.909-60 60-60 60 26.909 60 60-26.909 60-60 60z" fill="#5b5555"/><circle cx="421" cy="451.998" fill="#d1d6f2" r="30"/><path d="m211 511.998c-33.091 0-60-26.909-60-60s26.909-60 60-60 60 26.909 60 60-26.909 60-60 60z" fill="#766e6e"/><circle cx="211" cy="451.998" fill="#edeff9" r="30"/></svg>