<svg id="Capa_1" enable-background="new 0 0 512 512" height="512" viewBox="0 0 512 512" width="512" xmlns="http://www.w3.org/2000/svg"><g><g><g><path d="m218.276 222.049h73.239v263.185h-73.239z" fill="#95d528"/></g></g><g><g><path d="m265.161 222.049h26.354v263.185h-26.354z" fill="#89c627"/></g></g><g><path d="m411.263 263.072-46.96 41.166c-28.231 24.749-49.483 56.438-61.815 91.564 2.992-28.714 9.498-57.013 19.369-84.148l32.48-89.28-29.284-10.654-32.48 89.281c-11.04 30.347-18.212 61.965-21.345 94.105l-1.669 17.12c-1.004 10.301-9.501 18.508-19.85 18.566-11.105.062-20.126-8.921-20.126-20.011v-130.5h-31.161v95.515c-8.894-19.199-19.983-37.39-33.097-54.135l-42.276-53.981-24.533 19.213 42.276 53.981c25.941 33.125 42.988 72.62 49.297 114.216l5.349 35.263c.952 6.273 6.344 10.909 12.689 10.909h94.37c6.286 0 11.646-4.552 12.665-10.755l8.703-53.015c6.97-42.457 28.626-81.46 60.981-109.823l46.96-41.166z" fill="#b9ea6a"/></g><g><g><path d="m411.263 263.072-46.96 41.166c-28.231 24.749-49.483 56.438-61.815 91.564 1.484-14.24 3.834-28.377 7.028-42.321-18.911 24.382-31.648 53.291-36.691 84.012l-8.703 53.015c-1.018 6.203-6.379 10.755-12.665 10.755h51.04c6.286 0 11.647-4.552 12.665-10.755l8.703-53.015c6.97-42.457 28.626-81.46 60.981-109.823l46.959-41.166z" fill="#a1e42c"/></g></g><g><path d="m430.526 150.353c-3.002-.047-5.968.067-8.889.332-11.716 1.065-21.91-7.778-22.627-19.52-.016-.27-.034-.54-.053-.81-2.884-40.848-35.818-73.768-76.668-76.617-7.067-.493-13.959-.093-20.576 1.093-7.953 1.426-16.003-1.933-20.62-8.563-14.993-21.528-39.936-35.597-68.157-35.53-28.223.066-53.114 14.247-68.009 35.846-4.29 6.221-11.746 9.599-19.243 8.651-3.462-.438-6.99-.661-10.572-.653-45.724.107-82.705 37.261-82.597 82.985.012 5.28.525 10.44 1.486 15.441 1.37 7.123-1.057 14.458-6.458 19.301-17.218 15.439-27.934 37.974-27.529 62.999.704 43.587 35.76 79.583 79.316 81.358 21.412.873 41.093-6.395 56.234-18.947 7.417-6.149 18.023-6.13 25.473-.021 14.895 12.213 34.117 19.334 55.016 18.693 42.099-1.291 76.865-34.609 79.971-76.613.047-.637.087-1.273.119-1.908.543-10.658 9.528-18.761 20.199-18.756h.231c2.805-.007 5.577-.153 8.31-.432 11.194-1.145 21.077 7.486 21.646 18.724.031.603.068 1.207.111 1.813 2.965 41.181 36.454 74.195 77.674 76.565 48.947 2.814 89.301-36.893 87.64-85.543-1.499-43.807-37.601-79.207-81.428-79.888z" fill="#118e5e"/></g><g><path d="m511.951 230.241c-.396-11.59-3.234-22.581-7.977-32.508-13.886 29.459-44.636 49.418-79.829 47.395-41.219-2.37-74.709-35.384-77.674-76.565-.044-.606-.081-1.21-.111-1.813-.569-11.238-10.451-19.869-21.646-18.724-2.733.279-5.505.426-8.31.432-.077 0-.154 0-.231 0-10.672-.005-19.656 8.098-20.199 18.756-.032.634-.072 1.27-.119 1.908-3.105 42.004-37.872 75.322-79.971 76.613-20.899.641-40.122-6.48-55.016-18.693-7.451-6.109-18.056-6.128-25.473.021-15.141 12.552-34.822 19.82-56.234 18.947-31.433-1.281-58.432-20.388-71.295-47.305-5.224 11.078-8.067 23.498-7.855 36.603.704 43.586 35.76 79.583 79.316 81.358 21.412.873 41.093-6.395 56.234-18.947 7.417-6.149 18.023-6.13 25.473-.021 14.895 12.213 34.117 19.334 55.016 18.693 42.099-1.291 76.865-34.609 79.971-76.613.047-.637.087-1.273.119-1.908.543-10.658 9.528-18.761 20.199-18.756h.23c2.805-.007 5.577-.153 8.31-.432 11.194-1.144 21.077 7.486 21.646 18.724.03.603.068 1.207.111 1.813 2.965 41.181 36.454 74.195 77.674 76.565 48.947 2.815 89.301-36.892 87.641-85.543z" fill="#017b4f"/></g><g><circle cx="139.516" cy="134.701" fill="#017b4f" r="10.245"/></g><g><circle cx="169.417" cy="107.824" fill="#017b4f" r="10.245"/></g><g><circle cx="179.662" cy="179.588" fill="#017b4f" r="10.245"/></g><g><circle cx="206.696" cy="179.588" fill="#017b4f" r="10.245"/></g><g><circle cx="251.458" cy="141.37" fill="#017b4f" r="10.245"/></g><g><circle cx="443.868" cy="202.26" fill="#017b4f" r="10.245"/></g><g><circle cx="55.953" cy="202.26" fill="#017b4f" r="10.245"/></g><g><circle cx="98.516" cy="269.192" fill="#118e5e" r="10.245"/></g></g></svg>