<svg id="Flat" height="512" viewBox="0 0 512 512" width="512" xmlns="http://www.w3.org/2000/svg"><path d="m416 96-64 392h-192l-64-392h40l20.353-61.06a16 16 0 0 1 15.179-10.94h168.936a16 16 0 0 1 15.179 10.94l20.353 61.06z" fill="#a3d4f7"/><path d="m409.47 136-2.61 16h-301.72l-2.61-16z" fill="#99c7e8"/><path d="m368 176-38.038 266.263a16 16 0 0 1 -15.839 13.737h-116.246a16 16 0 0 1 -15.839-13.737l-38.038-266.263z" fill="#e9eef2"/><path d="m346.29 328-16.327 114.263a16 16 0 0 1 -15.839 13.737h-116.248a16 16 0 0 1 -15.839-13.737l-16.327-114.263z" fill="#dadcde"/><g fill="#99c7e8"><path d="m320 64h-128a8 8 0 0 1 0-16h128a8 8 0 0 1 0 16z"/><path d="m232 96h-48a8 8 0 0 1 0-16h48a8 8 0 0 1 0 16z"/><path d="m336 96h-72a8 8 0 0 1 0-16h72a8 8 0 0 1 0 16z"/></g><path d="m296 304a8 8 0 0 0 0-16h-24v-16h8a8 8 0 0 0 0-16h-8v-16h24a8 8 0 0 0 0-16h-32a8 8 0 0 0 -8 8v192a8 8 0 0 0 8 8h32a8 8 0 0 0 0-16h-24v-16h8a8 8 0 0 0 0-16h-8v-16h24a8 8 0 0 0 0-16h-24v-16h8a8 8 0 0 0 0-16h-8v-16z" fill="#a3d4f7"/></svg>