<svg height="464pt" viewBox="-82 0 464 464.00002" width="464pt" xmlns="http://www.w3.org/2000/svg"><path d="m299.949219 17.839844-5.917969 50.398437c-.007812 2.804688-1.460938 5.40625-3.839844 6.882813l-9.683594 5.917968c-2.316406 1.417969-3.753906 3.917969-3.820312 6.632813-.0625 2.71875 1.253906 5.28125 3.503906 6.808594l9.839844 6.800781c2.453125 1.671875 3.777344 4.566406 3.4375 7.519531l-32.800781 288.160157c-.195313 1.957031-1.140625 3.761718-2.636719 5.039062l-10.082031 9.121094c-3.058594 2.769531-3.511719 7.414062-1.039063 10.71875l5.679688 7.519531c3.558594 4.660156 4.265625 10.902344 1.839844 16.242187-5.121094 10.957032-8.238282 18.398438-20.960938 18.398438h-166.878906c-12.71875 0-15.839844-7.441406-20.960938-18.398438-2.425781-5.339843-1.71875-11.582031 1.839844-16.242187l4.960938-6.558594c3.070312-3.339843 2.929687-8.515625-.320313-11.679687l-10.078125-9.121094c-1.5-1.277344-2.445312-3.082031-2.640625-5.039062l-32.800781-288.082032c-.332032-2.988281 1.023437-5.917968 3.519531-7.597656l10-6.722656c2.21875-1.472656 3.5625-3.953125 3.578125-6.617188.015625-2.664062-1.296875-5.160156-3.496094-6.660156l-10.640625-7.121094c-2.179687-1.511718-3.492187-3.988281-3.519531-6.640625l-5.921875-49.597656c-.535156-4.550781.898437-9.109375 3.941406-12.53125 3.042969-3.425781 7.398438-5.38671875 11.980469-5.390625h268c4.566406-.0078125 8.921875 1.9375 11.960938 5.347656 3.042968 3.40625 4.484374 7.953125 3.957031 12.492188zm0 0" fill="#bddbff"/><path d="m90.589844 464h-24c-12.71875 0-15.839844-7.441406-20.960938-18.398438-2.425781-5.339843-1.71875-11.582031 1.839844-16.242187l4.960938-6.558594c3.070312-3.339843 2.929687-8.515625-.320313-11.679687l-10.078125-9.121094c-1.5-1.277344-2.445312-3.082031-2.640625-5.039062l-32.800781-288.082032c-.332032-2.988281 1.023437-5.917968 3.519531-7.597656l10-6.722656c2.21875-1.472656 3.5625-3.953125 3.578125-6.617188.015625-2.664062-1.296875-5.160156-3.496094-6.660156l-10.640625-7.121094c-2.179687-1.511718-3.492187-3.988281-3.519531-6.640625l-5.921875-49.597656c-.535156-4.550781.898437-9.109375 3.941406-12.53125 3.042969-3.425781 7.398438-5.38671875 11.980469-5.390625h24c-4.582031.00390625-8.9375 1.964844-11.980469 5.390625-3.042969 3.421875-4.476562 7.980469-3.941406 12.53125l5.921875 49.597656c.027344 2.652344 1.339844 5.128907 3.519531 6.640625l10.640625 7.121094c2.199219 1.5 3.511719 3.996094 3.496094 6.660156-.015625 2.664063-1.359375 5.144532-3.578125 6.617188l-10 6.722656c-2.496094 1.679688-3.851563 4.609375-3.519531 7.597656l32.800781 288.082032c.195313 1.957031 1.140625 3.761718 2.640625 5.039062l10.078125 9.121094c3.25 3.164062 3.390625 8.339844.320313 11.679687l-4.960938 6.558594c-3.558594 4.660156-4.265625 10.902344-1.839844 16.242187 5.121094 10.957032 8.242188 18.398438 20.960938 18.398438zm0 0" fill="#9bc9ff"/><path d="m67.367188 232 6.664062 120.144531c2.242188 40.328125 35.605469 71.875 76 71.855469 40.390625.019531 73.753906-31.527344 76-71.855469l6.664062-120.144531zm0 0" fill="#ffeb99"/><path d="m62.03125 136 5.335938 96h165.328124l5.335938-96zm0 0" fill="#e6e7e8"/><path d="m162.03125 423.039062c-3.96875.644532-7.980469.964844-12 .960938-40.386719.019531-73.75-31.515625-76-71.839844l-6.640625-120.160156h24l6.640625 120.160156c1.96875 35.753906 28.632812 65.28125 64 70.878906zm0 0" fill="#ffe477"/><path d="m91.390625 232h-24l-5.359375-96h24zm0 0" fill="#d1d3d4"/><g fill="#f1f2f2"><path d="m254.03125 96h-144c-4.421875 0-8-3.582031-8-8s3.578125-8 8-8h144c4.417969 0 8 3.582031 8 8s-3.582031 8-8 8zm0 0"/><path d="m166.03125 384h-32c-4.421875 0-8-3.582031-8-8s3.578125-8 8-8h32c4.417969 0 8 3.582031 8 8s-3.582031 8-8 8zm0 0"/><path d="m166.03125 336h-32c-4.421875 0-8-3.582031-8-8s3.578125-8 8-8h32c4.417969 0 8 3.582031 8 8s-3.582031 8-8 8zm0 0"/><path d="m166.03125 288h-32c-4.421875 0-8-3.582031-8-8s3.578125-8 8-8h32c4.417969 0 8 3.582031 8 8s-3.582031 8-8 8zm0 0"/><path d="m166.03125 192h-32c-4.421875 0-8-3.582031-8-8s3.578125-8 8-8h32c4.417969 0 8 3.582031 8 8s-3.582031 8-8 8zm0 0"/><path d="m78.03125 96h-16c-4.421875 0-8-3.582031-8-8s3.578125-8 8-8h16c4.417969 0 8 3.582031 8 8s-3.582031 8-8 8zm0 0"/></g></svg>