<svg id="Capa_1" enable-background="new 0 0 512 512" height="512" viewBox="0 0 512 512" width="512" xmlns="http://www.w3.org/2000/svg"><g><path d="m484.494 171.197c-.757-7.334-5.1-13.421-11.107-16.73-1.386-.763-1.372-2.766-.005-3.561l15.075-8.763c10.39-6.04 14.362-19.404 8.346-29.808-3.848-6.654-10.691-10.476-17.835-10.781-1.732-.074-2.631-2.084-1.499-3.397l15.539-18.026c7.801-9.05 6.778-22.712-2.284-30.515-6.599-5.68-15.636-6.684-23.075-3.317-1.722.779-3.475-1.05-2.676-2.763l5.721-12.269c.905-1.941 1.509-3.959 1.829-5.993 0 0-3.977-16.513-12.526-20.876-10.981-5.603-23.176.12-28.336 11.185l-5.94 12.738c-.799 1.713-3.327 1.547-3.837-.273-2.202-7.862-8.78-14.14-17.373-15.544-11.802-1.926-21.895 6.072-23.814 17.865l-3.82 23.484c-.273 1.681-2.379 2.348-3.525 1.087-4.824-5.305-12.167-8.109-19.759-6.779-11.84 2.075-18.498 12.678-16.446 24.522l2.978 17.183c.27 1.56-1.256 2.856-2.733 2.285-6.636-2.567-14.413-1.84-20.637 2.728-9.443 6.93-10.331 18.242-3.753 27.934l24.721 36.422c10.515 15.491 8.4 32.366.493 49.321l-4.91 13.625c-5.049 10.828 38.437 28.714 43.487 17.886l4.519-8.764c7.906-16.955 20.93-29.953 39.556-31.855l44.306-4.526c11.896-1.216 20.545-11.838 19.32-23.725z" fill="#a3e5a8"/><path d="m472.524 25.274c-9.725-2.225-20.007 2.544-24.375 11.94l-5.944 12.743c-.804 1.71-3.327 1.545-3.843-.278-2.194-7.86-8.777-14.134-17.369-15.545-11.806-1.916-22.921 6.078-24.848 17.874l-3.812 23.478c-.278 1.679-2.38 2.349-3.534 1.092-4.821-5.305-12.166-8.107-19.759-6.779-11.837 2.071-19.522 13.701-17.472 25.548l2.977 17.183c.268 1.566-1.257 2.854-2.73 2.287-.066-.026-.133-.051-.199-.076-9.153-3.442-17.257 7.129-11.753 15.212 7.728 11.349 17.912 26.478 18.463 27.225 10.518 15.494 8.396 32.368.494 49.315l-11.703 30.061c-10.23-5.069-18.574-12.043-16.267-16.998l4.275-11.002c7.901-16.946 10.024-33.821-.494-49.315l-9.879-14.567-14.845-21.86c-5.688-8.8-5.586-22.496 4.79-29.988 6.222-4.574 14-5.295 20.634-2.73 1.473.567 2.998-.721 2.73-2.287l-2.977-17.183c-2.05-11.847 5.635-23.478 17.472-25.548 7.593-1.329 14.938 1.473 19.759 6.779 1.154 1.257 3.255.587 3.534-1.092l3.812-23.478c1.926-11.796 13.042-19.79 24.848-17.874 8.592 1.411 15.175 7.685 17.369 15.545.515 1.823 3.039 1.988 3.843.278l5.944-12.743c5.151-11.064 18.492-15.71 29.473-10.106 8.542 4.356 12.818 13.782 11.386 22.889z" fill="#90d196"/><g><path d="m348.937 248.931c-1.094 0-2.204-.233-3.261-.726-3.867-1.803-5.54-6.4-3.736-10.268l80.872-173.43c1.804-3.867 6.402-5.539 10.268-3.736 3.867 1.803 5.54 6.4 3.736 10.268l-80.872 173.43c-1.311 2.81-4.097 4.462-7.007 4.462z" fill="#90d196"/></g><path d="m401.087 299.967c6.809-38.618-16.596-75.574-53.235-86.617l-8.999-.353c-39.21-6.914-67.936 21.566-78.424 59.15-17.283 61.933-54.324 160.521-168.796 196.224-7.448 2.323-15.869 4.208-25.262 4.312-10.649 1.768-22.494 2.734-35.813 2.378l-.001.022c-8.625-.251-16.36 5.831-17.903 14.581-1.842 10.13 5.605 19.849 15.872 20.669l-.001.011c30.345 2.825 75.383 3.459 128.117-9.951l5.723-5.96 9.256 1.821c5.217-1.556 10.501-3.248 15.843-5.096 40.006-13.843 74.153-33.98 102.387-55.374l3.302-8.619 8.99-1.06c25.28-20.693 45.155-41.85 59.576-59.09l1.311-9.025 8.425-3.027c7.128-9.145 12.232-16.433 15.3-20.88 6.801-9.862 12.179-21.908 14.332-34.116z" fill="#fff9e2"/><path d="m347.852 213.35c-31.77 2.318-59.401 24.448-68.178 55.91-17.286 61.934-46.45 164.931-160.924 200.637-10.631 3.317-32.76 3.472-53.672 2.998 9.498-1.504 18.049-3.657 25.858-6.088 44.221-13.793 75.71-37.63 98.703-65.26l6.283-1.737 3.451-10.853c24.963-34.764 38.318-73.744 47.658-105.768l6.143-5.685-1.889-9.284c.192-.689.385-1.372.575-2.051 10.487-37.581 47.883-61.852 87.091-54.939 3.049.536 6.017 1.245 8.901 2.12z" fill="#fff5c6"/><g><g fill="#fff5c6"><path d="m287.049 371.686-21.459-13.413c-3.626-2.266-4.718-7.026-2.462-10.652 2.266-3.616 7.026-4.718 10.652-2.452l21.459 13.413c3.626 2.266 4.718 7.026 2.462 10.652-1.463 2.339-3.987 3.626-6.562 3.626-1.401.001-2.812-.381-4.09-1.174z"/><path d="m371.454 354.962c-2.905 3.729-6.15 7.767-9.735 12.053l-26.384-18.112c-3.523-2.411-4.409-7.222-1.999-10.745 2.421-3.513 7.222-4.409 10.745-1.988z"/><path d="m279.633 280.397-19.302-8.29c-.793 5.228-1.36 10.59-2.56 15.716l15.764 6.77c.989.433 2.029.639 3.039.639 2.998 0 5.851-1.751 7.108-4.677 1.679-3.926-.124-8.469-4.049-10.158z"/><path d="m217.143 411.311-11.505-14.474c-3.179 4.125-6.906 7.783-10.84 11.2l10.241 12.885c1.525 1.926 3.781 2.926 6.057 2.926 1.679 0 3.379-.556 4.801-1.679 3.337-2.657 3.893-7.52 1.246-10.858z"/><path d="m283.393 408.849 18.749 17.256c-3.966 3.245-8.066 6.485-12.3 9.679l-16.916-15.561c-3.142-2.884-3.338-7.767-.453-10.909 2.895-3.143 7.778-3.349 10.92-.465z"/><path d="m163.841 476.418 7.779 19.836c-5.058 1.525-10.055 2.893-14.98 4.139l-7.191-18.33c-1.556-3.976.402-8.458 4.368-10.013 3.977-1.555 8.459.402 10.024 4.368z"/></g></g><g><g fill="#fef0ae"><path d="m276.883 279.212c-1.37 4.801-2.812 9.797-4.378 14.938l-25.474-10.961c0-.01.01.01 0 0 1.525-5.182 2.926-10.199 4.255-14.968z"/><path d="m214.557 408.056c-3.379 3.894-6.933 7.695-10.683 11.404l-14.235-17.913c3.43-4.121 6.674-8.325 9.734-12.59z"/></g></g></g></svg>