<svg id="Capa_1" enable-background="new 0 0 512 512" height="512" viewBox="0 0 512 512" width="512" xmlns="http://www.w3.org/2000/svg"><g><g><path d="m455.805 95.74h-399.61c-4.598 0-8.325-3.727-8.325-8.325v-12.488c0-4.598 3.727-8.325 8.325-8.325h399.61c4.598 0 8.325 3.727 8.325 8.325v12.488c0 4.598-3.727 8.325-8.325 8.325z" fill="#fe93d3"/></g><g><path d="m455.805 66.602h-33.301c4.598 0 8.325 3.727 8.325 8.325v12.488c0 4.598-3.727 8.325-8.325 8.325h33.301c4.598 0 8.325-3.727 8.325-8.325v-12.488c0-4.598-3.727-8.325-8.325-8.325z" fill="#fe73c5"/></g><g><path d="m453.724 0h-395.448c-5.747 0-10.406 4.659-10.406 10.407v45.789c0 5.747 4.659 10.407 10.407 10.407h395.447c5.747 0 10.407-4.659 10.407-10.407v-45.789c-.001-5.748-4.66-10.407-10.407-10.407z" fill="#dff6fd"/></g><g><path d="m453.724 0h-33.301c5.747 0 10.406 4.659 10.406 10.407v45.789c0 5.747-4.659 10.407-10.406 10.407h33.301c5.747 0 10.407-4.659 10.407-10.407v-45.789c-.001-5.748-4.66-10.407-10.407-10.407z" fill="#c8effe"/></g><g><path d="m58.276 512h395.447c5.747 0 10.407-4.659 10.407-10.406v-395.448c0-5.747-4.659-10.407-10.407-10.407h-395.447c-5.747 0-10.407 4.659-10.407 10.407v395.447c.001 5.748 4.66 10.407 10.407 10.407z" fill="#dff6fd"/></g><g><path d="m453.724 95.74h-33.301c5.747 0 10.406 4.659 10.406 10.407v395.447c0 5.747-4.659 10.406-10.406 10.406h33.301c5.747 0 10.407-4.659 10.407-10.406v-395.448c-.001-5.747-4.66-10.406-10.407-10.406z" fill="#c8effe"/></g><g><path d="m135.285 101.984h-45.789c-4.598 0-8.325-3.727-8.325-8.325v-24.976c0-4.598 3.727-8.325 8.325-8.325h45.789c4.598 0 8.325 3.727 8.325 8.325v24.976c0 4.597-3.728 8.325-8.325 8.325z" fill="#528fd8"/></g><g><g><path d="m409.363 488.28c-1.919 0-3.839-.732-5.303-2.197-2.929-2.929-2.929-7.678 0-10.606l23.547-23.547c2.929-2.929 7.678-2.929 10.606 0 2.929 2.929 2.929 7.678 0 10.606l-23.547 23.547c-1.464 1.465-3.384 2.197-5.303 2.197z" fill="#99e6fc"/></g><g><path d="m378.458 472.092c-1.919 0-3.839-.732-5.303-2.197-2.929-2.929-2.929-7.678 0-10.606l38.264-38.264c2.929-2.929 7.678-2.929 10.606 0 2.929 2.929 2.929 7.678 0 10.606l-38.264 38.264c-1.465 1.464-3.384 2.197-5.303 2.197z" fill="#99e6fc"/></g></g></g></svg>