<svg id="Capa_1" enable-background="new 0 0 512 512" height="512" viewBox="0 0 512 512" width="512" xmlns="http://www.w3.org/2000/svg"><g><path d="m393.749 305.39c7.691-6.766 16.081-12.701 25.031-17.698l54.603-30.489c2.985-1.667 5.854-3.537 8.586-5.596 18.905-14.252 30.031-36.617 30.031-60.368 0-14.775-2.37-29.454-7.019-43.471l-3.009-9.075c-10.189-30.723-28.495-58.086-52.959-79.162-14.796-12.747-31.578-22.963-49.672-30.237l-17.011-6.839c-27.196-10.933-55.786-17.968-84.931-20.897-27.477-2.762-55.198-1.849-82.437 2.714l-29.371 4.92c-20.977 3.514-40.709 12.369-57.316 25.722-11.471 9.223-24.474 16.334-38.41 21.002-19.93 6.677-38.528 16.846-54.933 30.037l-2.409 1.937c-10.131 8.146-17.989 18.791-22.807 30.898l-4.346 10.92c-3.547 8.914-5.37 18.426-5.37 28.025v8.313c0 13.132 3.41 26.036 9.892 37.438l3.711 6.527c9.204 16.188 21.543 30.245 36.199 41.39z" fill="#fc9f63"/><path d="m504.981 147.769-3.009-9.075c-10.189-30.723-28.495-58.086-52.959-79.162-14.796-12.747-31.578-22.963-49.672-30.237l-17.011-6.839c-27.196-10.933-55.786-17.968-84.931-20.898-14.275-1.435-28.616-1.868-42.921-1.323 6.416.245 12.828.68 19.227 1.323 29.145 2.929 57.735 9.964 84.931 20.898l17.011 6.839c18.094 7.274 34.875 17.49 49.672 30.237 24.464 21.076 42.77 48.439 52.959 79.162l3.01 9.075c4.649 14.017 7.019 28.696 7.019 43.471 0 23.751-11.126 46.116-30.031 60.367-2.732 2.059-5.6 3.929-8.586 5.596l-54.603 30.489c-7.536 4.208-14.668 9.087-21.327 14.561l19.989 3.138c7.691-6.766 16.081-12.701 25.031-17.699l54.603-30.489c2.985-1.667 5.854-3.536 8.586-5.596 18.905-14.252 30.031-36.617 30.031-60.368 0-14.775-2.37-29.453-7.019-43.47z" fill="#ff835d"/><g><g><path d="m443.733 226.174c-4.268 0-7.726-3.459-7.726-7.726v-32.919c0-4.267 3.459-7.726 7.726-7.726s7.726 3.459 7.726 7.726v32.919c.001 4.266-3.458 7.726-7.726 7.726z" fill="#ff835d"/></g></g><g><g><path d="m102.4 139.712c-4.268 0-7.726-3.459-7.726-7.726v-15.765c0-4.267 3.459-7.726 7.726-7.726s7.726 3.459 7.726 7.726v15.765c.001 4.267-3.458 7.726-7.726 7.726z" fill="#ff835d"/></g></g><g><g><path d="m307.2 191.867c-4.268 0-7.726-3.459-7.726-7.726v-15.765c0-4.267 3.459-7.726 7.726-7.726 4.268 0 7.726 3.459 7.726 7.726v15.765c.001 4.266-3.458 7.726-7.726 7.726z" fill="#ff835d"/></g></g><g><g><path d="m409.6 123.253c-4.268 0-7.726-3.459-7.726-7.726v-15.765c0-4.267 3.459-7.726 7.726-7.726s7.726 3.459 7.726 7.726v15.765c0 4.267-3.459 7.726-7.726 7.726z" fill="#ff835d"/></g></g><g><g><path d="m153.6 174.713c-4.268 0-7.726-3.459-7.726-7.726v-15.765c0-4.267 3.459-7.726 7.726-7.726 4.268 0 7.726 3.459 7.726 7.726v15.765c0 4.267-3.459 7.726-7.726 7.726z" fill="#ff835d"/></g></g><g><g><path d="m307.2 120.198c-4.268 0-7.726-3.459-7.726-7.726v-32.919c0-4.267 3.459-7.726 7.726-7.726 4.268 0 7.726 3.459 7.726 7.726v32.919c.001 4.267-3.458 7.726-7.726 7.726z" fill="#ff835d"/></g></g><path d="m256 72.487c4.268 0 7.726-3.459 7.726-7.726v-64.74c-5.155.043-10.307.214-15.453.513v64.226c.001 4.268 3.459 7.727 7.727 7.727z" fill="#ff835d"/><path d="m136.533 512h92.257c23.739 0 47.388-2.341 70.418-6.97 33.148-6.663 63.42-20.445 87.581-39.872 10.899-8.764 20.42-18.569 28.351-29.196l12.336-16.531c5.101-6.836 11.803-12.811 19.734-17.594 19.299-11.638 30.656-29.903 30.656-49.299v-5.795c0-15.093-6.888-29.661-19.359-40.941l-16.845-15.237c-32.337-29.251-72.463-52.259-117.392-67.312-39.435-13.212-81.733-20.014-124.453-20.014h-63.284z" fill="#fc9f63"/><path d="m136.533 203.238c-3.998 0-7.95.259-11.847.755-60.417 7.687-107.62 73.531-107.62 153.626s47.202 145.939 107.62 153.626c3.897.496 7.849.755 11.847.755 65.98 0 119.467-69.119 119.467-154.381s-53.487-154.381-119.467-154.381z" fill="#ffd064"/><g><g><path d="m341.333 431.32c-4.268 0-7.726-3.459-7.726-7.726v-32.918c0-4.267 3.459-7.726 7.726-7.726s7.726 3.459 7.726 7.726v32.918c0 4.267-3.458 7.726-7.726 7.726z" fill="#ff835d"/></g></g><g><g><path d="m290.134 294.787c-4.268 0-7.726-3.459-7.726-7.726v-15.765c0-4.267 3.459-7.726 7.726-7.726 4.268 0 7.726 3.459 7.726 7.726v15.765c0 4.267-3.459 7.726-7.726 7.726z" fill="#ff835d"/></g></g><path d="m458.508 305.801-16.845-15.237c-32.337-29.251-72.464-52.259-117.392-67.311-39.435-13.212-81.732-20.014-124.453-20.014h-23.694c42.721 0 85.019 6.802 124.453 20.014 44.929 15.052 85.056 38.061 117.392 67.311l16.844 15.237c12.471 11.28 19.359 25.848 19.359 40.941v5.795c0 19.397-11.358 37.661-30.656 49.299-7.932 4.783-14.634 10.758-19.734 17.594l-12.336 16.531c-7.93 10.627-17.452 20.433-28.351 29.196-24.16 19.427-54.433 33.208-87.581 39.872-23.03 4.629-46.679 6.97-70.418 6.97h23.694c23.739 0 47.388-2.341 70.418-6.97 33.148-6.663 63.42-20.445 87.581-39.872 10.899-8.764 20.42-18.569 28.351-29.196l12.336-16.531c5.101-6.836 11.803-12.811 19.734-17.594 19.298-11.638 30.656-29.903 30.656-49.299v-5.795c.001-15.093-6.888-29.661-19.358-40.941z" fill="#ff835d"/><path d="m367.74 241.044v81.018c0 4.267 3.459 7.726 7.726 7.726 4.268 0 7.726-3.459 7.726-7.726v-72.981c-5.053-2.795-10.205-5.476-15.452-8.037z" fill="#ff835d"/><path d="m136.533 236.295c115.484 0 110.933 240.148 0 240.148-113.748 0-110.933-240.148 0-240.148" fill="#ffc250"/></g></svg>