<svg id="Capa_1" enable-background="new 0 0 512.015 512.015" height="512" viewBox="0 0 512.015 512.015" width="512" xmlns="http://www.w3.org/2000/svg"><g><path d="m343.002 440c0 8.28-6.72 15-15 15h-80c-8.28 0-15-6.72-15-15s6.72-15 15-15h80c8.28 0 15 6.72 15 15z" fill="#f7be48"/><path d="m343.002 440c0 8.28-6.72 15-15 15h-40v-30h40c8.28 0 15 6.72 15 15z" fill="#f99e49"/><path d="m377.129 382.418-27.2-67.99c-3.077-7.691-11.807-11.433-19.498-8.355-7.691 3.077-11.433 11.807-8.355 19.499l27.2 67.99c3.069 7.669 11.788 11.441 19.498 8.355 7.691-3.077 11.432-11.807 8.355-19.499z" fill="#f99e49"/><path d="m245.573 306.073c-7.692-3.077-16.421.664-19.499 8.355l-27.2 67.99c-3.948 9.869 3.36 20.576 13.922 20.576 5.953 0 11.585-3.568 13.932-9.432l27.2-67.99c3.077-7.692-.663-16.422-8.355-19.499z" fill="#f7be48"/><path d="m384.002 369c-39.149 0-71 31.851-71 71 0 18.958 7.34 36.918 20.667 50.575 27.894 28.583 72.764 28.591 100.666 0 13.327-13.656 20.667-31.617 20.667-50.575 0-39.149-31.851-71-71-71z" fill="#2b4478"/><path d="m424.002 440.72c0 22.143-17.92 40.56-40 40.56-22.055 0-40-18.394-40-40.56 0-22.06 17.94-40 40-40s40 17.94 40 40z" fill="#83b3f1"/><path d="m263.002 440c0 39.378-31.894 72-71 72-39.067 0-71-32.587-71-72 0-39.15 31.85-71 71-71s71 31.85 71 71z" fill="#554fb2"/><path d="m232.002 440.72c0 22.143-17.92 40.56-40 40.56-22.055 0-40-18.394-40-40.56 0-22.06 17.94-40 40-40s40 17.94 40 40z" fill="#98d3f3"/><path d="m80.002 223c-6.21 0-11.96-3.87-14.13-9.96 0-.01-.01-.02-.01-.03-.07-.2-.14-.4-.2-.6l-5.97-19.41-16.62-54c-3.56-11.59-15.37-20-28.07-20-8.28 0-15-6.72-15-15s6.72-15 15-15c25.95 0 49.29 16.93 56.75 41.17l19.33 62.83 3.26 10.59c2.96 9.64-4.27 19.41-14.34 19.41z" fill="#f7be48"/><path d="m320.002 0h-24c-6.465 0-12.203 4.142-14.237 10.279l-64 193c-3.214 9.695 4.012 19.721 14.238 19.721h265c8.284 0 15-6.716 15-15-.001-116.247-88.253-208-192.001-208z" fill="#98d3f3"/><path d="m512.002 208c0 1.8-.32 3.52-.9 5.12-.01.03-.02.05-.03.08l-.06.15c-2.15 5.64-7.61 9.65-14.01 9.65h-209v-220.68c2.34-1.48 5.1-2.32 8-2.32h24c99.24 0 184.31 83.96 191.51 193 .32 4.95.49 9.95.49 15z" fill="#83b3f1"/><path d="m511.072 213.2-29.13 78.76c-9.24 25.75-38.2 43.04-72.08 43.04h-243.72c-33.92 0-62.9-17.33-72.11-43.13l-28.16-78.83c0-.01-.01-.02-.01-.03-.07-.2-.14-.4-.2-.6l-5.97-19.41h437.31c10.42 0 17.69 10.4 14.07 20.2z" fill="#adf2f5"/><path d="m512.002 208c0 1.8-.32 3.52-.9 5.12-.01.03-.02.05-.03.08l-.06.15-29.07 78.61c-9.24 25.75-38.2 43.04-72.08 43.04h-121.86v-142h223.51c.32 4.95.49 9.95.49 15z" fill="#98d3f3"/></g></svg>