<svg id="Layer_1" height="512" viewBox="0 0 512 512" width="512" xmlns="http://www.w3.org/2000/svg" data-name="Layer 1"><path d="m483.409 73.4a5 5 0 0 1 -3.794-8.253c.331-.394 8.394-10.157 3.643-20.03a5 5 0 0 1 9.011-4.336c7.606 15.806-4.54 30.265-5.061 30.873a4.987 4.987 0 0 1 -3.799 1.746z" fill="#606b36"/><g fill="#436f1e"><path d="m489.379 141.757a5 5 0 0 1 -4.764-6.522c.833-2.624 2.719-10.662 1.456-16.262a5 5 0 0 1 9.755-2.2c2.127 9.43-1.53 21.02-1.687 21.509a5 5 0 0 1 -4.76 3.475z"/><path d="m396.958 66.733-8.545-5.2-.063.108c.036-.066 3.556-6.825.97-23.557a5 5 0 1 1 9.883-1.527c3.171 20.526-1.682 29.249-2.245 30.176z"/><path d="m296.019 53.734a5 5 0 0 1 -4.65-6.838c.071-.191 2.053-5.644 2.269-17.467a5 5 0 1 1 10 .182c-.252 13.868-2.7 20.308-2.981 21a5 5 0 0 1 -4.638 3.123z"/></g><path d="m489.38 136.76a12.114 12.114 0 0 0 -16.26 5.23c-118.15 226.65-310.35 297.24-361.64 312.51-8.76 2.61-11.99 13.53-5.79 20.23 5.44 5.88 15.02 10.77 31.9 9.57 38.57-2.76 184.37-73.54 270.74-172.62 64.24-73.7 83.56-139.41 87.49-162.11a12.049 12.049 0 0 0 -6.44-12.81z" fill="#83a64a"/><path d="m52.55 337.81-27.7 14.67c-7.68 4.06-8.1 15.25-.45 19.37.27.15.55.28.83.41 6.82 3.01 21.34-2.32 27.96-4.9 13.41-5.22 68.4-37.23 70.12-38.23-28.3 5.71-52.57 8.34-70.75 8.68z" fill="#83a64a"/><path d="m305.18 56.5c-.03-.17-.07-.34-.1-.51a11.437 11.437 0 0 0 -9.06-9.26 11.8 11.8 0 0 0 -14.08 8.39c-52.35 184.36-184.91 250.59-184.91 250.59a663.733 663.733 0 0 0 99.91-32.8c71.57-60.55 111.29-199.12 108.24-216.41z" fill="#83a64a"/><path d="m490.8 77.04a14.384 14.384 0 0 0 -6.39-9.64 15.005 15.005 0 0 0 -19.71 2.86c-28.71 34.23-72.01 68.49-75.82 71.48-16.95 42.22-47.47 92.94-69.44 117.27 67.43-48.81 155.96-144.24 169.93-171.42a16.253 16.253 0 0 0 1.43-10.55z" fill="#99b756"/><path d="m52.55 338-27.7 14.575c-7.68 4.06-8.1 15.2-.45 19.322.27.15.55.257.83.387a12.273 12.273 0 0 0 4.575.922 11.177 11.177 0 0 1 5.939-10.631l44.781-26.775c-10.42 1.1-19.81 1.756-27.965 2.2z" fill="#6d8739"/><path d="m292.834 65.12a11.687 11.687 0 0 1 12.346-8.62c-.03-.17-.07-.339-.1-.508a11.437 11.437 0 0 0 -9.06-9.26 11.8 11.8 0 0 0 -14.08 8.39c-52.35 184.358-184.91 250.588-184.91 250.588 13.835-3.328 29.16-7.532 45.654-12.817 42.997-32.776 114.828-103.38 150.15-227.773z" fill="#6d8739"/><path d="m97.03 305.71c-36.6 8.8-62.8 11.52-72.88 12.16a8.709 8.709 0 0 0 -7.1 4.55 8.669 8.669 0 0 0 4.39 12.17c5.69 2.28 16.41 3.5 31.11 3.22h.01c18.18-.34 42.45-2.97 70.75-8.68a.037.037 0 0 1 .03-.01 651.056 651.056 0 0 0 112.32-33.89h.01a498.951 498.951 0 0 0 75.5-82.98 699.34 699.34 0 0 1 -114.23 60.66 663.733 663.733 0 0 1 -99.91 32.8z" fill="#99b756"/><path d="m484.41 67.4a15.005 15.005 0 0 0 -19.71 2.86c-28.71 34.23-72.01 68.49-75.82 71.48l-17.547 32.927c3.81-2.99 75.551-60.177 104.261-94.407a14.8 14.8 0 0 1 14.788-4.925 14.326 14.326 0 0 0 -5.972-7.935z" fill="#798c45"/><path d="m27.944 332.42a8.709 8.709 0 0 1 7.1-4.55c10.08-.64 36.28-3.36 72.88-12.16a663.733 663.733 0 0 0 99.91-32.8 697.308 697.308 0 0 0 78-38.435c8.717-10.162 17.208-20.889 25.34-32.225a699.34 699.34 0 0 1 -114.23 60.66 663.733 663.733 0 0 1 -99.91 32.8c-36.6 8.8-62.8 11.52-72.88 12.16a8.709 8.709 0 0 0 -7.1 4.55 8.669 8.669 0 0 0 4.39 12.17 32.677 32.677 0 0 0 5.473 1.559 8.621 8.621 0 0 1 1.027-3.729z" fill="#798c45"/><path d="m402.42 75.83c-1.3-7.35-4.87-11.44-8.72-13.7a18.613 18.613 0 0 0 -4.52-1.89 7.757 7.757 0 0 0 -9.59 5.55 430.972 430.972 0 0 1 -68.41 146.45.01.01 0 0 1 -.01.01 498.951 498.951 0 0 1 -75.5 82.98h-.01c-76.06 67.11-152.43 96.65-159.14 98.89-12.03 4.02-10.76 18.42-10.76 18.42s16.3 26.96 70.69.38c48.05-23.48 75.68-35.06 182.99-153.91 21.97-24.33 52.49-75.05 69.44-117.27 5.8-14.44 10.02-27.89 11.76-38.95 1.81-11.48 2.74-21.51 1.78-26.96z" fill="#699231"/></svg>