<svg clip-rule="evenodd" fill-rule="evenodd" height="512" stroke-linejoin="round" stroke-miterlimit="2" viewBox="0 0 64 64" width="512" xmlns="http://www.w3.org/2000/svg"><path d="m42.63 28.07c9.94-1.58 19.37 6.1 19.37 16.6 0 8.42-6.23 15.53-14.57 16.64-6.97.93-14.02.91-20.96-.04z" fill="#e29a6c" fill-rule="nonzero"/><path d="m51.264 29.005c6.148 2.394 10.736 8.346 10.736 15.67 0 8.42-6.23 15.53-14.57 16.64-6.97.93-14.02.91-20.96-.04l1.641-3.372c4.419.166 8.854-.043 13.256-.63 8.34-1.11 14.57-8.22 14.57-16.64 0-4.596-1.807-8.652-4.673-11.628z" fill="#d48c64" fill-rule="nonzero"/><path d="m20.52 62h-1.4c-9.46 0-17.12-7.66-17.12-17.11 0-3.2.84-6.35 2.43-9.13l4.58-8.02c.63-1.11.76-2.43.36-3.63-3.63-10.88 4.47-22.11 15.93-22.11 8.42 0 15.53 6.23 16.64 14.57 1.36 10.18.69 20.54-1.95 30.47-2.35 8.82-10.34 14.96-19.47 14.96z" fill="#e29a6c" fill-rule="nonzero"/><path d="m34.675 4.859c3.868 2.606 6.61 6.791 7.265 11.711 1.36 10.18.69 20.54-1.95 30.47-2.35 8.82-10.34 14.96-19.47 14.96h-1.4c-6.663 0-12.432-3.8-15.262-9.348 2.745 1.871 6.062 2.964 9.636 2.964h1.4c9.13 0 17.12-6.14 19.47-14.96 2.64-9.93 3.31-20.29 1.95-30.47-.253-1.901-.818-3.693-1.639-5.327z" fill="#d48c64" fill-rule="nonzero"/><g fill="#c48563"><path d="m14.707 16.707c.711-.711 1.875-.711 2.586 0 .39.39 1.024.39 1.414 0s.39-1.024 0-1.414c-1.489-1.489-3.925-1.489-5.414 0-.39.39-.39 1.024 0 1.414s1.024.39 1.414 0z"/><path d="m32.707 30.707c.711-.711 1.875-.711 2.586 0 .39.39 1.024.39 1.414 0s.39-1.024 0-1.414c-1.489-1.489-3.925-1.489-5.414 0-.39.39-.39 1.024 0 1.414s1.024.39 1.414 0z"/><path d="m12.707 38.707c.711-.711 1.875-.711 2.586 0 .39.39 1.024.39 1.414 0s.39-1.024 0-1.414c-1.489-1.489-3.925-1.489-5.414 0-.39.39-.39 1.024 0 1.414s1.024.39 1.414 0z"/><path d="m26.707 52.707c.711-.711 1.875-.711 2.586 0 .39.39 1.024.39 1.414 0s.39-1.024 0-1.414c-1.489-1.489-3.925-1.489-5.414 0-.39.39-.39 1.024 0 1.414s1.024.39 1.414 0z"/><path d="m52.463 36.707c.711.711.711 1.875 0 2.586-.39.39-.39 1.024 0 1.414s1.024.39 1.414 0c1.489-1.489 1.489-3.925 0-5.414-.39-.39-1.024-.39-1.414 0s-.39 1.024 0 1.414z"/><path d="m42.463 54.707c.711.711.711 1.875 0 2.586-.39.39-.39 1.024 0 1.414s1.024.39 1.414 0c1.489-1.489 1.489-3.925 0-5.414-.39-.39-1.024-.39-1.414 0s-.39 1.024 0 1.414z"/></g></svg>