<svg id="Capa_1" enable-background="new 0 0 512 512" height="512" viewBox="0 0 512 512" width="512" xmlns="http://www.w3.org/2000/svg"><g><path d="m387.999 468.175h-263.998c-15.464 0-28.001-12.536-28.001-28.001v-10.301h320v10.301c0 15.465-12.536 28.001-28.001 28.001z" fill="#b0ed94"/><path d="m146 440.175v-10.301h-50v10.301c0 15.464 12.536 28.001 28 28.001h50c-15.464-.001-28-12.537-28-28.001z" fill="#97da7b"/><circle cx="432" cy="36.175" fill="#eaf6ff" r="16"/><circle cx="406.032" cy="101.668" fill="#eaf6ff" r="22.032"/><path d="m406.896 440.175h-301.792c-23.719 0-43.962-17.148-47.861-40.544l-25.243-151.456h448l-25.243 151.456c-3.899 23.396-24.142 40.544-47.861 40.544z" fill="#97da7b"/><path d="m480 248.175h-448l25.243 151.455c3.899 23.396 24.142 40.545 47.861 40.545h40c-23.719 0-43.962-17.148-47.861-40.544l-16.332-97.989c-1.524-9.143 5.527-17.466 14.796-17.466h378.293z" fill="#79cf59"/><path d="m488 264.175h-464c-13.255 0-24-10.745-24-24 0-13.255 10.745-24 24-24h464c13.255 0 24 10.745 24 24 0 13.255-10.745 24-24 24z" fill="#b0ed94"/><path d="m40 240.176c0-13.255 10.745-24 24-24h-40c-13.255 0-24 10.745-24 24 0 13.255 10.745 24 24 24h40c-13.255-.001-24-10.746-24-24z" fill="#97da7b"/><path d="m476.969 216.175c-1.953-31.974-28.504-57.302-60.969-57.302-10.162 0-19.745 2.482-28.175 6.872-5.026-17.988-21.535-31.184-41.127-31.184-.45 0-.899.008-1.346.022-4.74-18.415-21.457-32.022-41.352-32.022-11.665 0-22.237 4.678-29.943 12.26-10.547-18.315-30.32-30.646-52.972-30.646-5.472 0-10.777.72-15.823 2.07-10.473-18.595-30.4-31.154-53.262-31.154-33.736 0-61.084 27.348-61.084 61.084 0 .206.001.412.003.618-33.271 4.498-58.919 33.011-58.919 67.515v31.868h33.285c12.545 0 22.715 10.17 22.715 22.715v49.935c0 13.014 10.119 24.097 23.125 24.56 13.653.485 24.875-10.44 24.875-23.985v-50.51c0-12.545 10.17-22.715 22.715-22.715h318.254z" fill="#eaf6ff"/><path d="m234.988 85.765c.092.16.183.32.274.48.274-.073.548-.144.824-.214-.365-.092-.731-.181-1.098-.266z" fill="#cbe2ff"/><path d="m118 288.825v-49.935c0-12.545-10.17-22.715-22.715-22.715h-30c12.545 0 22.715 10.17 22.715 22.715v49.935c0 13.014 10.119 24.097 23.125 24.56 6.056.215 11.633-1.814 15.965-5.321-5.564-4.549-9.09-11.557-9.09-19.239z" fill="#d8ecfe"/><path d="m120.919 116.793c-.002-.206-.003-.412-.003-.618 0-28.56 19.601-52.543 46.085-59.229-4.799-1.212-9.825-1.855-15-1.855-33.736 0-61.084 27.349-61.084 61.084 0 .206.001.412.003.618-33.272 4.498-58.92 33.011-58.92 67.515v31.868h30s0-22.434 0-31.868c0-34.504 25.648-63.017 58.919-67.515z" fill="#d8ecfe"/><path d="m195.775 376.175h-18.775c-13.807 0-25-11.193-25-25 0-3.866 3.134-7 7-7h36.775z" fill="#ffd064"/><path d="m314.577 400.175h-45.717c16.662-10.04 27.671-28.51 27.12-49.506-.801-30.531-25.439-54.494-55.981-54.494-30.927 0-55.999 25.072-55.999 56 0 22.397 13.148 41.723 32.147 50.68-18.72 6.548-32.147 24.366-32.147 45.32 0 26.51 21.49 48 48 48h32c64 0 96-25.675 96-96v-15.595c0-4.349-5.453-6.215-8.179-2.826-7.013 8.719-18.93 18.421-37.244 18.421z" fill="#fff39f"/><path d="m214 448.175c0-20.954 13.427-38.772 32.147-45.32-18.999-8.957-32.147-28.283-32.147-50.68 0-25.754 17.385-47.447 41.06-53.985-4.788-1.314-9.838-2.015-15.061-2.015-30.927 0-55.999 25.072-55.999 56 0 22.397 13.148 41.723 32.147 50.68-18.72 6.548-32.147 24.365-32.147 45.32 0 26.51 21.49 48 48 48h30c-26.51.001-48-21.49-48-48z" fill="#ffe07d"/><g><g><path d="m216 367.902c-4.268 0-7.726-3.459-7.726-7.726v-8c0-4.268 3.459-7.726 7.726-7.726s7.726 3.459 7.726 7.726v8c0 4.267-3.459 7.726-7.726 7.726z" fill="#a87567"/></g></g><g><path d="m336 40.527c-4.268 0-7.726-3.459-7.726-7.726v-9.25c0-4.268 3.459-7.726 7.726-7.726s7.726 3.459 7.726 7.726v9.25c0 4.267-3.459 7.726-7.726 7.726z" fill="#d8ecfe"/></g><g><path d="m336 88.526c-4.268 0-7.726-3.459-7.726-7.726v-9.249c0-4.268 3.459-7.726 7.726-7.726s7.726 3.459 7.726 7.726v9.249c0 4.267-3.459 7.726-7.726 7.726z" fill="#d8ecfe"/></g><g><path d="m316.624 59.902h-9.249c-4.268 0-7.726-3.459-7.726-7.726s3.459-7.726 7.726-7.726h9.249c4.268 0 7.726 3.459 7.726 7.726s-3.458 7.726-7.726 7.726z" fill="#d8ecfe"/></g><g><path d="m364.625 59.902h-9.25c-4.268 0-7.726-3.459-7.726-7.726s3.459-7.726 7.726-7.726h9.25c4.268 0 7.726 3.459 7.726 7.726s-3.459 7.726-7.726 7.726z" fill="#d8ecfe"/></g><g><g><path d="m288.843 460.608h-40.843c-4.268 0-7.726-3.459-7.726-7.726s3.459-7.726 7.726-7.726h40.843c7.157 0 12.979-5.822 12.979-12.979 0-4.268 3.459-7.726 7.726-7.726s7.726 3.459 7.726 7.726c.001 15.676-12.753 28.431-28.431 28.431z" fill="#ffd064"/></g></g></g></svg>