<svg id="Capa_1" enable-background="new 0 0 512 512" height="512" viewBox="0 0 512 512" width="512" xmlns="http://www.w3.org/2000/svg"><g><path d="m259.587 64-30.145-10h-65.855v52h96z" fill="#8ac9fe"/><path d="m163.587 54h50v52h-50z" fill="#60b7ff"/><path d="m260.403 512h-97.618c-17.842 0-32.909-13.247-35.193-30.942l-25.802-199.857c-.768-5.947.564-11.976 3.765-17.046l25.349-40.155h160.683l25.958 40.064c3.32 5.124 4.711 11.26 3.927 17.314l-25.877 199.697c-2.293 17.687-17.357 30.925-35.192 30.925z" fill="#eaf6ff"/><path d="m177.592 481.058-25.802-199.857c-.768-5.947.564-11.976 3.765-17.046l25.349-40.155h-50l-25.35 40.155c-3.201 5.071-4.532 11.099-3.765 17.046l25.802 199.857c2.286 17.695 17.353 30.942 35.195 30.942h50c-17.842 0-32.909-13.247-35.194-30.942z" fill="#d8ecfe"/><path d="m300.927 240h-178.59c-3.866 0-7-3.134-7-7v-34c0-3.866 3.134-7 7-7h9.251l32-10h96l32 10h9.34c3.866 0 7 3.134 7 7v34c-.001 3.866-3.135 7-7.001 7z" fill="#ffe07d"/><path d="m165.336 233v-34c0-3.866 3.134-7 7-7h9.251l32-10h-50l-32 10h-9.251c-3.866 0-7 3.134-7 7v34c0 3.866 3.134 7 7 7h50c-3.866 0-7-3.134-7-7z" fill="#ffd064"/><path d="m284.587 96h-146c-3.866 0-7 3.134-7 7v35h160v-35c0-3.866-3.134-7-7-7z" fill="#ffe07d"/><path d="m188.587 96h-50c-3.866 0-7 3.134-7 7v35h50v-35c0-3.866 3.134-7 7-7z" fill="#ffd064"/><path d="m219.358 375.726h24.274c4.268 0 7.726-3.459 7.726-7.726s-3.459-7.726-7.726-7.726h-24.274v-48.547h24.274c4.268 0 7.726-3.459 7.726-7.726s-3.459-7.726-7.726-7.726h-24.274v-24.275c0-4.268-3.459-7.726-7.726-7.726s-7.726 3.459-7.726 7.726v56.273h-24.274c-4.268 0-7.726 3.459-7.726 7.726s3.459 7.726 7.726 7.726h24.274v48.548h-24.274c-4.268 0-7.726 3.459-7.726 7.726s3.459 7.726 7.726 7.726h24.274v56.275c0 4.268 3.459 7.726 7.726 7.726s7.726-3.459 7.726-7.726v-24.846h24.274c4.268 0 7.726-3.459 7.726-7.726s-3.459-7.726-7.726-7.726h-24.274z" fill="#8ac9fe"/><path d="m131.587 128c-17.673 0-32 14.327-32 32s14.327 32 32 32h176l10.913-32-10.913-32z" fill="#8ac9fe"/><path d="m149.587 160c0-17.673 14.327-32 32-32h-50c-17.673 0-32 14.327-32 32s14.327 32 32 32h50c-17.673 0-32-14.327-32-32z" fill="#60b7ff"/><path d="m68.399 10.125c-20.499 13.666-32.812 36.673-32.812 61.311v184.564l-21.645 43.289c-4.757 9.515 2.162 20.711 12.8 20.711 5.421 0 10.376-3.063 12.8-7.911l28.045-56.089v-162.104c0-.501.01-1 .031-1.497.665-15.98 14.232-28.399 30.226-28.399h161.743v-20.606c0-23.966-19.428-43.394-43.394-43.394h-114.353c-11.902 0-23.538 3.523-33.441 10.125z" fill="#c4e2ff"/><path d="m33.942 299.289 21.645-43.289v-184.564c0-24.637 12.313-47.644 32.812-61.31 9.903-6.603 21.539-10.126 33.441-10.126h-20c-11.902 0-23.538 3.523-33.441 10.125-20.499 13.666-32.812 36.673-32.812 61.311v184.564l-21.645 43.289c-4.757 9.515 2.162 20.711 12.8 20.711 3.797 0 7.365-1.503 9.995-4.069-4.187-4.118-5.762-10.707-2.795-16.642z" fill="#aedafc"/><path d="m339.587 192h-32v-64h32l6.913 32z" fill="#c4e2ff"/><path d="m483.587 288-144-96v-64l144-96z" fill="#8ac9fe"/><path d="m483.587 288c-8.837 0-16-7.163-16-16v-224c0-8.837 7.163-16 16-16 8.837 0 16 7.163 16 16v224c0 8.837-7.163 16-16 16z" fill="#c4e2ff"/></g></svg>