<svg id="Layer_1" enable-background="new 0 0 74 74" height="512" viewBox="0 0 74 74" width="512" xmlns="http://www.w3.org/2000/svg"><g><g><path d="m49.23 57.61c-2.8 3.48-7.4 4.56-10.86 7.17-.31.24-.74.15-.93-.19-.62-1.09-2.04-1.72-3.22-2.09-2.29-.71-4.69-1.05-7.02-1.65-2.33-.62-4.65-1.56-6.34-3.27-1.64-1.65-2.56-3.89-3-6.18-.87-4.53.09-9.36 2.6-13.21 4.67-7.14 13.52-9.78 21.43-6.54 4.82 2 8.72 6.18 10.2 11.2 1.46 4.98.43 10.68-2.86 14.76z" fill="#f3e5ce"/><path d="m52.65 45.92c-.53.49-1.22.8-1.94.85-.87.07-1.82-.2-2.58.24-.78.44-1.11 1.47-1.93 1.85-.95.47-2.07-.16-3.13-.15-1.18.04-2.18.87-3.13 1.58-.96.71-2.2 1.34-3.29.91-.95-.38-1.58-1.45-2.58-1.47-1.14-.04-1.94 1.36-3.09 1.38-1.45.02-2.25-2.16-3.73-2.05-.94.05-1.69 1.11-2.62.94-.93-.16-1.22-1.33-1.96-1.89-.62-.49-1.51-.49-2.29-.36s-1.58.35-2.34.2c-.16-.04-.33-.09-.47-.16.04-3.4 1.04-6.76 2.87-9.61 4.69-7.14 13.54-9.78 21.45-6.54 4.82 2 8.72 6.18 10.18 11.2.29.99.49 2.04.58 3.08z" fill="#bf6296"/><path d="m49.22 37.29c-1.11.95-2.25 1.87-3.42 2.78-.96.75-1.96 1.53-2.45 2.64-.55 1.25-.33 2.69-.22 4.03.09 1.36 0 2.89-.98 3.83-1.24 1.22-3.49 1.09-4.42 2.54-.73 1.16-.22 2.65-.2 4.02.04 2.22-1.34 4.14-3.22 5.4-.04-.02-.05-.02-.09-.04-2.29-.71-4.71-1.05-7.03-1.65-2.31-.62-4.65-1.56-6.34-3.27-1.62-1.65-2.54-3.89-2.98-6.18-.87-4.53.09-9.36 2.58-13.21 4.69-7.14 13.54-9.78 21.45-6.54 2.88 1.19 5.43 3.18 7.32 5.65z" fill="#fff" opacity=".08"/><path d="m40.97 31.29c-.73.51-1.47.98-2.22 1.44-1.13.69-2.29 1.4-3.02 2.49-1.14 1.73-.93 4.02-1.54 6.02-.73 2.4-2.78 4.36-5.23 4.98-1.2.31-2.62.4-3.31 1.44-.6.93-.27 2.16-.27 3.27.04 2.84-2.18 5.27-4.8 6.34-1.45-1.62-2.29-3.73-2.71-5.87-.87-4.53.09-9.36 2.58-13.21 4.51-6.88 12.87-9.57 20.52-6.9z" fill="#fff" opacity=".08"/><path d="m44.1 32.74c-1.4 1.27-3.16 2.18-4.98 2.65-2.93.75-10.18.69-13.92-2.09 4.76-3.29 10.98-4.02 16.68-1.67.53.22 1.05.47 1.56.75.23.11.44.24.66.36z" fill="#ad5188"/><path d="m44.68 33.11c-1.07 1.45-2.67 2.54-4.38 3.16-2.42.85-5.05.85-7.58.49 4.07-.48 8.03-1.42 10.72-4.38.43.22.84.45 1.24.73z" fill="#ad5188"/><path d="m28.39 33.8c1.58.32 3.16.59 4.76.69 1.6.13 3.2.11 4.81.02-1.59.29-3.22.33-4.83.22-1.61-.13-3.21-.41-4.74-.93z" fill="#bf6296"/><path d="m30.39 31.96c.36-.48.87-.66 1.33-.83.96-.26 1.92-.37 2.89-.41 1.93-.1 3.95.24 5.51 1.72-.68-.19-1.38-.33-2.12-.43.1.07.21.17.29.31.15.28.1.62-.05.85-.31.54-.94.6-1.4.63-1.92.08-3.86.21-5.83-.37-.24-.06-.53-.21-.68-.52-.18-.3-.11-.71.06-.95z" fill="#913d73"/><g><path d="m38.96 23.8c.92-.61 1.77-1.6 1.6-2.69-.1-.65-.56-1.26-.43-1.9.22-1.06 1.78-1.29 2.16-2.3.19-.52.01-1.09-.12-1.62-.13-.54-.19-1.17.17-1.58.38-.43 1.03-.43 1.6-.44s1.24-.12 1.49-.64c.35-.75-.51-1.62-.26-2.41.2-.63.96-.83 1.59-1.02.63-.18 1.36-.62 1.27-1.27-.07-.49-.59-.79-1.07-.92s-1.01-.18-1.4-.5c-.41-.34-.56-.92-.98-1.25-.52-.41-1.29-.29-1.87.03-.58.31-1.06.78-1.65 1.09-.83.43-1.8.48-2.72.66-.92.17-1.89.54-2.37 1.34-.24.4-.34.89-.68 1.2-.44.4-1.17.41-1.51.88-.37.51-.09 1.24-.27 1.84-.29 1.01-1.76 1.5-1.7 2.55.02.38.26.74.24 1.12-.04.65-.77.98-1.28 1.39-.9.71-1.26 1.96-1.06 3.09s.9 2.12 1.78 2.85c.86.71 2.18 1.55 3.3 1.77 1.34.26 3.08-.54 4.17-1.27z" fill="#85a523"/><path d="m33.12 24.42c.56.3 1.13.54 1.67.65 1.35.27 3.08-.53 4.18-1.26.91-.61 1.76-1.6 1.6-2.69-.11-.64-.56-1.26-.44-1.9.21-1.05 1.79-1.29 2.16-2.29.19-.53.02-1.09-.13-1.64-.12-.54-.19-1.16.18-1.57.37-.43 1.02-.42 1.6-.45.57 0 1.23-.12 1.49-.64.35-.76-.51-1.62-.27-2.41.21-.64.97-.84 1.59-1.01.63-.18 1.37-.63 1.28-1.28-.07-.5-.59-.8-1.07-.91-.18-.05-.37-.08-.57-.14.13.12.24.29.26.48.09.65-.63 1.09-1.26 1.27s-1.39.4-1.6 1.02c-.24.79.63 1.67.27 2.41-.24.51-.92.64-1.49.64-.56.02-1.23.02-1.6.45-.36.41-.29 1.05-.17 1.59.14.53.32 1.11.12 1.62-.37 1-1.95 1.24-2.16 2.29-.13.64.33 1.26.44 1.9.18 1.09-.69 2.08-1.6 2.69-1.09.73-2.83 1.53-4.18 1.26-.1-.03-.21-.04-.3-.08z" opacity=".05"/><path d="m35.4 18.11c-.95 2.37-1.44 4.89-1.89 7.4-.32 1.8-.63 3.61-.64 5.44 0 .76.06 1.52.18 2.27 1.19.34 2.31.37 3.33 0-.91-1.11-1.42-2.52-1.57-3.96-.17-1.63.05-3.27.34-4.88.54-3.02 1.34-6.02 2.67-8.79s3.23-5.3 5.71-7.11c-3.62 2.21-6.55 5.7-8.13 9.63z" fill="#8db727"/><g fill="#8db727"><path d="m35.79 20.97c1.09-.22 2.13-.63 3.06-1.2-1 .43-2.06.68-3.12.74z"/><path d="m35.05 20.65c-.71-.79-1.28-1.72-1.68-2.73.26 1.06.71 2.08 1.32 3.01z"/><path d="m36.8 17.76c1.16-.2 2.28-.6 3.28-1.17-1.07.43-2.2.67-3.33.72z"/><path d="m36.33 17.19-1.88-4.14 1.47 4.34z"/><path d="m38.64 13.17c-.7-.81-1.2-1.82-1.42-2.91.06 1.11.43 2.22 1.05 3.19z"/><path d="m38.06 15c1.18-.44 2.31-1.02 3.34-1.71-1.11.57-2.28 1-3.47 1.28z"/><path d="m40.37 11.49c1.12.41 2.38.24 3.32-.38-1.01.49-2.21.45-3.14-.04z"/><path d="m40.12 11.48c-.29-.99-.29-2.09.01-3.13-.44.98-.61 2.11-.46 3.22z"/></g><g fill="#fff"><path d="m31.47 23.29c.81.67 1.99 1.44 3.07 1.7.2-.46.48-.89.87-1.23.37-.33.84-.58 1.15-.99.87-1.17.09-3.01.88-4.24.71-1.08 2.35-1.25 3.02-2.34.71-1.12.08-2.75.82-3.86.5-.74 1.47-1 2.29-1.4 1.59-.82 2.65-2.28 3.64-3.83-.1-.04-.17-.07-.25-.09-.49-.13-1.01-.17-1.39-.51-.43-.34-.57-.91-.98-1.25-.52-.39-1.29-.27-1.88.03-.58.32-1.05.79-1.65 1.1-.83.42-1.79.47-2.73.64-.91.18-1.88.54-2.37 1.36-.23.39-.34.89-.69 1.19-.43.39-1.15.4-1.5.88-.38.51-.1 1.24-.28 1.85-.29 1.01-1.76 1.5-1.7 2.55.02.38.27.74.23 1.12-.03.64-.76.96-1.28 1.38-.9.73-1.25 1.97-1.06 3.1.21 1.11.92 2.12 1.79 2.84z" opacity=".1"/><path d="m31.47 23.29c.21.19.46.36.72.55.1-.2.17-.39.23-.59.18-.65.21-1.31.35-1.96.15-.63.43-1.28.99-1.65.54-.36 1.25-.4 1.74-.82.69-.6.66-1.67.59-2.57-.07-.92-.05-2.01.72-2.54.32-.21.76-.3 1.07-.56.94-.81.06-2.56.86-3.52.42-.51 1.16-.58 1.79-.82 1.12-.39 1.96-1.3 2.75-2.2.42-.47.83-.94 1.25-1.4-.53-.34-1.27-.21-1.82.07-.58.32-1.05.79-1.65 1.1-.83.42-1.79.47-2.73.64-.91.18-1.88.54-2.37 1.36-.23.39-.34.89-.69 1.19-.43.39-1.15.4-1.5.88-.38.51-.1 1.24-.28 1.85-.29 1.01-1.76 1.5-1.7 2.55.02.38.27.74.23 1.12-.03.64-.76.96-1.28 1.38-.9.73-1.25 1.97-1.06 3.1.21 1.11.92 2.12 1.79 2.84z" opacity=".1"/></g></g><g><path d="m24.79 23.98c-1.08-.21-2.25-.8-2.51-1.87-.15-.64.04-1.38-.33-1.92-.6-.89-2.14-.51-2.88-1.3-.37-.41-.43-1-.51-1.55s-.27-1.15-.76-1.39c-.51-.25-1.11 0-1.64.21s-1.2.36-1.62-.02c-.61-.55-.15-1.69-.68-2.33-.42-.5-1.2-.4-1.86-.33s-1.5-.05-1.67-.69c-.13-.48.24-.95.64-1.26s.87-.55 1.1-.99c.24-.47.16-1.07.42-1.53.32-.57 1.08-.76 1.73-.69.66.07 1.28.32 1.94.37.93.08 1.85-.25 2.77-.44s1.96-.23 2.71.33c.37.28.65.69 1.09.85.56.2 1.23-.07 1.74.24.54.33.56 1.11.96 1.6.66.82 2.2.71 2.55 1.7.13.36.04.78.21 1.13.29.59 1.09.61 1.72.79 1.1.31 1.92 1.33 2.16 2.45s-.02 2.3-.55 3.31c-.52.99-1.42 2.27-2.37 2.9-1.16.76-3.08.68-4.36.43z" fill="#8db727"/><path d="m30.42 22.31c-.4.49-.84.93-1.29 1.24-1.15.76-3.05.69-4.34.44-1.07-.22-2.24-.8-2.51-1.87-.15-.64.04-1.38-.33-1.93-.6-.89-2.14-.51-2.87-1.29-.38-.42-.44-1-.51-1.56-.09-.55-.27-1.14-.76-1.38-.51-.25-1.11 0-1.65.2-.53.22-1.18.36-1.62-.02-.62-.56-.15-1.69-.67-2.33-.44-.51-1.22-.4-1.85-.33-.65.07-1.51-.05-1.67-.69-.13-.49.24-.96.64-1.25.15-.11.31-.22.47-.35-.07.16-.11.36-.05.55.16.64 1 .76 1.65.69s1.44-.16 1.87.33c.53.64.05 1.78.67 2.33.42.38 1.09.24 1.62.02.53-.2 1.14-.45 1.65-.2.49.24.67.85.76 1.4.07.55.13 1.14.51 1.54.73.78 2.27.4 2.87 1.29.36.55.18 1.29.33 1.93.25 1.07 1.44 1.65 2.51 1.87 1.29.25 3.2.33 4.34-.44.06-.06.15-.12.23-.19z" opacity=".05"/><path d="m30.62 32.25c.63-1.51.56-3.25.1-4.82s-1.3-3-2.19-4.38c-1.66-2.58-3.54-5.05-5.83-7.09s-5.01-3.66-8-4.37c4.19.65 8.23 2.75 11.2 5.77 1.79 1.82 3.21 3.97 4.59 6.11.99 1.54 1.97 3.09 2.68 4.78.71 1.68 1.14 3.52.98 5.34-1.71-.13-3.19-.39-3.53-1.34z" fill="#9c3"/><g fill="#9c3"><path d="m26.63 20.15c-1.09.22-2.21.24-3.29.07 1.09.02 2.17-.16 3.17-.51z"/><path d="m27.19 19.57c.35-1 .52-2.08.51-3.17.17 1.08.15 2.19-.07 3.29z"/><path d="m24.47 17.58c-1.15.26-2.33.32-3.48.18 1.15-.01 2.29-.22 3.35-.61z"/><path d="m24.69 16.87.14-4.55.31 4.57z"/><path d="m21.01 14.04c.34-1.02.41-2.14.19-3.23.37 1.05.46 2.21.25 3.35z"/><path d="m22.24 15.5c-1.26.05-2.52-.06-3.74-.3 1.24.1 2.48.05 3.7-.15z"/><path d="m18.77 13.15c-.88.81-2.11 1.14-3.21.93 1.12.06 2.22-.44 2.88-1.24z"/><path d="m18.99 13.05c-.12-1.03-.53-2.04-1.21-2.88.79.74 1.37 1.71 1.66 2.8z"/></g><g fill="#fff"><path d="m31.51 20.64c-.49.93-1.29 2.09-2.18 2.74-.36-.35-.78-.64-1.27-.8-.47-.16-1-.22-1.44-.47-1.25-.75-1.24-2.74-2.44-3.58-1.07-.73-2.65-.25-3.69-1-1.09-.76-1.13-2.51-2.24-3.25-.75-.49-1.74-.36-2.65-.42-1.78-.15-3.33-1.09-4.83-2.14.07-.07.13-.13.2-.18.4-.31.87-.55 1.09-1 .25-.47.16-1.05.42-1.53.33-.56 1.09-.75 1.74-.69.65.07 1.27.33 1.94.38.94.07 1.84-.26 2.77-.46.91-.18 1.94-.22 2.71.35.36.27.65.69 1.09.84.55.2 1.22-.07 1.73.24.55.33.56 1.11.96 1.6.65.82 2.2.71 2.54 1.71.13.36.04.78.22 1.13.27.58 1.07.6 1.71.78 1.11.33 1.91 1.34 2.16 2.45s-.01 2.3-.54 3.3z" opacity=".1"/><path d="m31.51 20.64c-.13.25-.29.51-.45.78-.16-.15-.31-.29-.44-.45-.42-.53-.69-1.13-1.07-1.67-.38-.53-.89-1.02-1.54-1.14-.64-.13-1.31.11-1.93-.09-.87-.29-1.25-1.29-1.53-2.14-.29-.87-.73-1.87-1.64-2.07-.38-.07-.82.02-1.2-.11-1.18-.38-1.04-2.34-2.14-2.93-.58-.31-1.29-.09-1.96-.07-1.18.07-2.31-.45-3.38-.98-.56-.27-1.13-.55-1.69-.82.35-.51 1.07-.67 1.69-.62.65.07 1.27.33 1.94.38.93.06 1.83-.27 2.76-.47.91-.18 1.94-.22 2.71.35.36.27.65.69 1.09.84.55.2 1.22-.07 1.73.24.55.33.56 1.11.96 1.6.65.82 2.2.71 2.54 1.71.13.36.04.78.22 1.13.27.58 1.07.6 1.71.78 1.11.33 1.91 1.34 2.16 2.45s-.01 2.3-.54 3.3z" opacity=".1"/></g></g><g><path d="m43.94 24.19c1.08-.21 2.25-.8 2.51-1.87.15-.64-.04-1.38.33-1.92.6-.89 2.14-.51 2.88-1.3.37-.41.43-1 .51-1.55s.27-1.15.76-1.39c.51-.25 1.11 0 1.64.21s1.2.36 1.62-.02c.61-.55.15-1.69.68-2.33.42-.5 1.2-.4 1.86-.33.65.07 1.5-.05 1.67-.69.13-.48-.24-.95-.64-1.26-.4-.3-.87-.55-1.1-.99-.24-.47-.16-1.07-.42-1.53-.32-.57-1.08-.76-1.73-.69s-1.28.32-1.94.37c-.93.08-1.85-.25-2.77-.44s-1.96-.23-2.71.33c-.37.28-.65.69-1.09.85-.56.2-1.23-.07-1.74.24-.54.33-.56 1.11-.96 1.6-.66.82-2.2.71-2.55 1.7-.13.36-.04.78-.21 1.13-.29.59-1.09.61-1.72.79-1.1.31-1.92 1.33-2.16 2.45s.02 2.3.55 3.31c.52.99 1.42 2.27 2.37 2.9 1.16.76 3.08.68 4.36.43z" fill="#8db727"/><path d="m38.31 22.52c.4.49.84.93 1.29 1.24 1.15.76 3.05.69 4.34.44 1.07-.22 2.24-.8 2.51-1.87.15-.64-.04-1.38.33-1.93.6-.89 2.14-.51 2.87-1.29.38-.42.44-1 .51-1.56.09-.55.27-1.14.76-1.38.51-.25 1.11 0 1.65.2.53.22 1.18.36 1.62-.02.62-.56.15-1.69.67-2.33.44-.51 1.22-.4 1.85-.33.65.07 1.51-.05 1.67-.69.13-.49-.24-.96-.64-1.25-.15-.11-.31-.22-.47-.35.07.16.11.36.05.55-.16.64-1 .76-1.65.69s-1.44-.16-1.87.33c-.53.64-.05 1.78-.67 2.33-.42.38-1.09.24-1.62.02-.53-.2-1.14-.45-1.65-.2-.49.24-.67.85-.76 1.4-.07.55-.13 1.14-.51 1.54-.73.78-2.27.4-2.87 1.29-.36.55-.18 1.29-.33 1.93-.25 1.07-1.44 1.65-2.51 1.87-1.29.25-3.2.33-4.34-.44-.06-.06-.16-.12-.23-.19z" opacity=".05"/><path d="m38.11 32.46c-.63-1.51-.56-3.25-.1-4.82s1.3-3 2.19-4.38c1.66-2.58 3.54-5.05 5.83-7.09s5.01-3.66 8-4.37c-4.19.65-8.23 2.75-11.2 5.77-1.79 1.82-3.21 3.97-4.59 6.11-.99 1.54-1.97 3.09-2.68 4.78-.71 1.68-1.14 3.52-.98 5.34 1.71-.13 3.19-.39 3.53-1.34z" fill="#9c3"/><g fill="#9c3"><path d="m42.1 20.37c1.09.22 2.21.24 3.29.07-1.09.02-2.17-.16-3.17-.51z"/><path d="m41.54 19.79c-.35-1-.52-2.08-.51-3.17-.17 1.08-.15 2.19.07 3.29z"/><path d="m44.26 17.79c1.15.26 2.33.32 3.48.18-1.15-.01-2.29-.22-3.35-.61z"/><path d="m44.04 17.08-.14-4.55-.31 4.58z"/><path d="m47.72 14.26c-.34-1.02-.41-2.14-.19-3.23-.37 1.05-.46 2.21-.25 3.35z"/><path d="m46.49 15.72c1.26.05 2.52-.06 3.74-.3-1.24.1-2.48.05-3.7-.15z"/><path d="m49.96 13.36c.88.81 2.11 1.14 3.21.93-1.12.06-2.22-.44-2.88-1.24z"/><path d="m49.74 13.26c.12-1.03.53-2.04 1.21-2.88-.79.74-1.37 1.71-1.66 2.8z"/></g><g fill="#fff"><path d="m37.22 20.85c.49.93 1.29 2.09 2.18 2.74.36-.35.78-.64 1.27-.8.47-.16 1-.22 1.44-.47 1.25-.75 1.24-2.74 2.44-3.58 1.07-.73 2.65-.25 3.69-1 1.09-.76 1.13-2.51 2.24-3.25.75-.49 1.74-.36 2.65-.42 1.78-.15 3.33-1.09 4.83-2.14-.07-.07-.13-.13-.2-.18-.4-.31-.87-.55-1.09-1-.25-.47-.16-1.05-.42-1.53-.33-.56-1.09-.75-1.74-.69-.65.07-1.27.33-1.94.38-.93.07-1.84-.25-2.76-.45-.91-.18-1.94-.22-2.71.35-.37.26-.66.68-1.1.83-.55.2-1.22-.07-1.73.24-.55.33-.56 1.11-.96 1.6-.65.82-2.2.71-2.54 1.71-.13.36-.04.78-.22 1.13-.27.58-1.07.6-1.71.78-1.11.33-1.91 1.34-2.16 2.45-.26 1.1.01 2.3.54 3.3z" opacity=".1"/><path d="m37.22 20.85c.13.25.29.51.45.78.16-.15.31-.29.44-.45.42-.53.69-1.13 1.07-1.67.38-.53.89-1.02 1.54-1.14.64-.13 1.31.11 1.93-.09.87-.29 1.25-1.29 1.53-2.14.29-.87.73-1.87 1.64-2.07.38-.07.82.02 1.2-.11 1.18-.38 1.04-2.34 2.14-2.93.58-.31 1.29-.09 1.96-.07 1.18.07 2.31-.45 3.38-.98.56-.27 1.13-.55 1.69-.82-.35-.51-1.07-.67-1.69-.62-.65.07-1.27.33-1.94.38-.93.07-1.84-.25-2.76-.45-.91-.18-1.94-.22-2.71.35-.36.25-.65.67-1.09.82-.55.2-1.22-.07-1.73.24-.55.33-.56 1.11-.96 1.6-.65.82-2.2.71-2.54 1.71-.13.36-.04.78-.22 1.13-.27.58-1.07.6-1.71.78-1.11.33-1.91 1.34-2.16 2.45-.26 1.1.01 2.3.54 3.3z" opacity=".1"/></g></g><path d="m47.96 56.76c-1.49 1.86-3.66 2.98-5.96 4.16-1.25.64-2.54 1.31-3.75 2.12-.5-.5-1.14-.92-1.91-1.29 1.05-.64 2.15-1.21 3.22-1.77 2.3-1.2 4.47-2.32 5.96-4.16 2.93-3.62 3.9-8.72 2.56-13.29-1.21-4.14-4.4-7.8-8.41-9.77.53.17 1.07.35 1.6.57 4.4 1.82 7.95 5.7 9.26 10.14 1.33 4.58.36 9.68-2.57 13.29z" opacity=".05"/></g><g><g><path d="m47.92 40.49c3.6-.83 9.79 1.28 12.23 4.06s3.64 6.55 3.54 10.24c-.04 1.34-.24 2.68-.71 3.93-.49 1.29-1.26 2.45-2.02 3.6-.82 1.24-1.65 2.49-2.75 3.48-1.12 1.01-2.48 1.72-3.86 2.33-2.35 1.04-12.67 1.86-16.93-1.92z" fill="#bf6296"/><path d="m61.59 48.54c1.73 4.4 1.32 9.67-1.07 13.74 1.81-4.35 2.18-9.15 1.07-13.74z" fill="#ad5188"/><path d="m49.71 40.32c-.04 0-.08 0-.11 0-2.5.03-4.94 1.03-6.95 2.52s-3.62 3.47-4.98 5.57c-2.17 3.38-3 7.53-2.92 11.53.04 1.82.49 3.68 1.59 5.13 1.37 1.81 3.62 2.79 5.86 3.14.71.11 1.42.17 2.14.17 2.56 0 5.11-.7 7.3-2.03 2.8-1.7 4.97-4.41 6.02-7.51.83-2.45.96-5.09.88-7.68-.09-2.81-.49-5.79-2.29-7.95-1.57-1.88-4.07-2.89-6.54-2.89z" fill="#bf6296"/><path d="m49.71 40.78c2.46 0 4.78 1.02 6.2 2.74 1.79 2.16 2.11 5.24 2.18 7.68.1 3.15-.16 5.47-.85 7.52-1.01 2.98-3.13 5.63-5.82 7.26-2.12 1.28-4.56 1.96-7.07 1.96-.69 0-1.39-.05-2.07-.16-2.43-.38-4.41-1.44-5.57-2.97-1.18-1.56-1.47-3.51-1.5-4.87-.07-3.02.37-7.42 2.84-11.28 1.52-2.36 3.11-4.15 4.86-5.45 2.07-1.54 4.45-2.4 6.68-2.43z" fill="#f3e5ce"/><g fill="#f7eddf"><path d="m48.87 44.36c1.87.15 3.63 1.06 4.71 2.43 1.36 1.72 1.6 4.05 1.66 5.88.08 2.37-.12 4.09-.65 5.57-.76 2.17-2.38 4.02-4.42 5.07-1.61.83-3.46 1.18-5.37 1.03-.53-.04-1.06-.13-1.57-.25-1.85-.44-3.35-1.35-4.23-2.57-.9-1.24-1.12-2.72-1.14-3.74-.05-2.26.28-5.53 2.16-8.26 1.15-1.67 2.36-2.91 3.69-3.78 1.57-1.02 3.38-1.52 5.07-1.4z"/><g><path d="m50.04 40.8-.87 2.58.62-2.6c.08 0 .16 0 .25.02z"/><path d="m46.04 41.51-.16 2.54-.15-2.44c.09-.03.2-.09.31-.1z"/><path d="m44.66 45.4c-.44-.85-.74-1.8-.91-2.76.09-.05.18-.11.27-.16.06.99.27 1.99.64 2.92z"/><path d="m42.73 46.65-1.67-1.82c.07-.07.15-.15.22-.2z"/><path d="m41.29 48.09c-.69-.35-1.35-.78-1.94-1.29.07-.07.11-.13.16-.2.53.56 1.13 1.07 1.78 1.49z"/><path d="m40.04 49.72c-.73-.18-1.44-.49-2.07-.93.04-.04.07-.09.09-.13.04-.04.05-.09.07-.13.57.52 1.2.92 1.91 1.19z"/><path d="m39.1 51.99-2.33-.87c.04-.09.07-.16.11-.25z"/><path d="m38.17 53.96c-.73-.16-1.44-.4-2.14-.69.02-.09.05-.18.09-.27.65.37 1.34.7 2.05.96z"/><path d="m37.91 57.05-2.58-.07c0-.09 0-.18.02-.27z"/><path d="m36.93 55.94-1.42-.42c.02-.07.02-.15.04-.22z"/><path d="m38.9 60.15-3.67.2c0-.15-.02-.27-.02-.4z"/><path d="m39.7 61.37-4 1.51c-.04-.13-.09-.27-.11-.4z"/><path d="m39.19 63.73c-.74.49-1.54.89-2.4 1.16-.02-.04-.05-.05-.07-.09-.04-.05-.07-.09-.09-.15.88-.17 1.76-.5 2.56-.92z"/><path d="m40.66 64.79c-.65.62-1.4 1.16-2.22 1.58-.09-.05-.18-.11-.27-.18.89-.33 1.73-.82 2.49-1.4z"/><path d="m42.46 64.88c-.4.91-.98 1.78-1.69 2.53-.11 0-.2-.04-.29-.07.8-.7 1.47-1.53 1.98-2.46z"/><path d="m43.38 64.81c-.04 1.02-.25 2.04-.64 3.02-.13 0-.25-.02-.38-.04.52-.93.84-1.93 1.02-2.98z"/><path d="m44.91 65.04c.04.96 0 1.93-.15 2.87-.09.02-.2.02-.29.02.26-.92.41-1.91.44-2.89z"/><path d="m47.58 67.55c-.07.02-.16.04-.24.05l.13-2.18z"/><path d="m46.55 67.75-.28.05.11-2.63z"/><path d="m49.67 66.86c-.09.04-.2.09-.31.11.16-1.14.24-2.29.24-3.45.11 1.1.15 2.23.07 3.34z"/><path d="m52.38 65.33c-.09.05-.16.11-.25.16-.4-.93-.87-1.84-1.44-2.69.62.81 1.2 1.64 1.69 2.53z"/><path d="m51.45 65.95c-.02 0-.02.02-.04.02-.05.04-.09.05-.15.07-.11-.36-.25-.71-.44-1.05.23.31.45.62.63.96z"/><path d="m54.33 63.59c-.07.07-.13.15-.2.22-.53-.93-.95-1.91-1.2-2.93.34.96.8 1.89 1.4 2.71z"/><path d="m55.76 61.75c-.09.13-.18.27-.27.4-.36-1-.84-1.96-1.44-2.87.66.75 1.22 1.58 1.71 2.47z"/><path d="m56.98 59.39c-.04.11-.07.22-.13.33-.69-1-1.47-1.94-2.33-2.82.88.76 1.71 1.6 2.46 2.49z"/><path d="m57.78 56.55c-.02.11-.04.22-.05.31-1.02-.65-1.94-1.38-3.05-1.85 1.1.36 2.1 1 3.1 1.54z"/><path d="m58.05 54.03c0 .15 0 .29-.02.44-.85-.73-1.87-1.29-2.96-1.62 1.05.2 2.07.6 2.98 1.18z"/><path d="m58.09 51.32c.02.11.02.22 0 .33-.69-.44-1.4-.8-2.16-1.11.72.2 1.45.47 2.16.78z"/><path d="m58.02 49.79-2.71-1.14 2.67.76c.02.13.02.26.04.38z"/><path d="m57.49 46.72c-.15.07-.29.15-.44.22l-1.87.94 1.76-1.14c.16-.09.31-.2.47-.31.04.09.06.2.08.29z"/><path d="m56.6 44.56c-.47.38-.93.82-1.34 1.29.36-.55.76-1.05 1.22-1.53.04.08.1.17.12.24z"/><path d="m55.65 43.25c-.51.42-.98.89-1.4 1.42.36-.56.78-1.07 1.27-1.56.06.03.1.09.13.14z"/><path d="m54.03 41.94c-.98.8-1.85 1.76-2.54 2.84.6-1.09 1.36-2.11 2.27-2.98.09.03.18.09.27.14z"/><path d="m51.78 41.03c-.82 1.02-1.54 2.13-2.18 3.29.53-1.16 1.13-2.29 1.85-3.36.11.02.22.04.33.07z"/><path d="m47.91 43.85c-.36-.85-.58-1.78-.65-2.73.09-.04.18-.07.29-.07-.04.95.07 1.89.36 2.8z"/><path d="m37.24 59.3-2.02-.29c-.02-.09-.02-.2 0-.31z"/></g></g></g><g opacity=".08"><path d="m61.63 46.63c-.4.31-.8.65-1.18.98-.75.64-1.51 1.33-1.89 2.25-.45 1.09-.31 2.31-.29 3.51.04 1.18-.13 2.49-.98 3.29-1.27 1.16-3.4.75-4.8 1.73-.76.53-1.2 1.4-1.62 2.22-1 2.04-2.22 4.2-4.31 5.07-2.6 1.05-5.58-.25-8.36.13-.33.04-.65.11-.96.22-.33-.29-.64-.6-.89-.95-1.11-1.44-1.56-3.31-1.6-5.13-.09-4 .75-8.14 2.91-11.54 1.36-2.11 2.98-4.07 4.98-5.56 1.56-1.14 3.36-2.02 5.27-2.34v-.02c.33-.05.67-.09 1.02-.13 3.65-.31 9 1.64 11.21 4.18.56.66 1.07 1.35 1.49 2.09z" fill="#fff"/></g><g opacity=".08"><path d="m54.4 41.14c-1.42.51-2.8 1.07-4.16 1.71-1.33.62-2.74 1.42-3.27 2.8-.38.96-.24 2.04-.22 3.05.02 1.04-.13 2.16-.89 2.85-1.18 1.05-3.33.58-4.31 1.84-.64.78-.49 1.91-.58 2.93-.16 2.04-1.45 3.96-3.31 4.89-.84.42-1.78.62-2.71.62-.13-.62-.18-1.25-.2-1.87-.09-4 .75-8.14 2.91-11.54 1.36-2.11 2.98-4.07 4.98-5.56 1.56-1.14 3.36-2.02 5.27-2.34v-.02c.33-.05.67-.09 1.02-.13 1.62-.15 3.58.16 5.47.77z" fill="#fff"/></g><g opacity=".05"><g><path d="m62.65 54.77c-.04 1.24-.22 2.49-.65 3.65-.45 1.2-1.16 2.27-1.87 3.34-.76 1.14-1.54 2.31-2.56 3.22-1.04.94-2.31 1.6-3.58 2.18-2.05.91-10.7 1.64-14.99-1.25-.2-.13-.4-.29-.58-.44-.05-.04-.11-.07-.13-.11-.35-.27-.64-.58-.89-.91.18.15.38.29.58.44 4.29 2.89 12.92 2.16 14.98 1.25 1.29-.58 2.56-1.24 3.6-2.18 1.02-.91 1.8-2.07 2.54-3.24.71-1.05 1.42-2.13 1.87-3.33.45-1.16.64-2.42.67-3.65.09-3.34-.96-6.74-3.11-9.29.31.25.6.53.84.8 2.26 2.6 3.37 6.09 3.28 9.52z"/></g></g></g></g></svg>