<svg id="Capa_1" enable-background="new 0 0 512 512" height="512" viewBox="0 0 512 512" width="512" xmlns="http://www.w3.org/2000/svg"><g><path d="m308.866 479.707v32.293h70.555l10.363-51.424-10.363-51.424c-38.966 0-70.555 31.589-70.555 70.555z" fill="#eaf2fe"/><path d="m379.422 409.152v102.848h57.154 13.402v-32.293c-.001-38.966-31.589-70.555-70.556-70.555z" fill="#d6e7fe"/><g><path d="m109.085 313.082v129.778h82.034l17.13-85.216-17.13-100.052c-37.879-15.477-82.034 12.006-82.034 55.49z" fill="#f1cbbc"/><path d="m279.411 315.044-77.405-51.661c-3.537-2.361-7.182-4.277-10.887-5.791v185.268h32.571l48.094-22.845c21.097-10.021 34.542-31.292 34.542-54.649 0-20.217-10.099-39.099-26.915-50.322z" fill="#eebca8"/></g><circle cx="95.201" cy="39.814" fill="#7d4b3b" r="39.814"/><g><g><path d="m94.673 121.952v44.28c0 53.266 43.18 96.446 96.446 96.446l14.686-173.665z" fill="#f6dccd"/><path d="m271.471 61.57-80.352 27.443v173.665c53.266 0 96.446-43.18 96.446-96.446v-51.312c0-19.729-5.929-38.07-16.094-53.35z" fill="#f1cbbc"/></g><path d="m302.231 331.961c0 42.631 34.559 77.191 77.191 77.191l10.363-77.191-10.363-77.191c-42.631.001-77.191 34.56-77.191 77.191z" fill="#f6dccd"/><path d="m379.422 254.771v154.381c42.631 0 77.191-34.559 77.191-77.191-.001-42.631-34.56-77.19-77.191-77.19z" fill="#f1cbbc"/></g><g><path d="m191.119 18.474c-53.266 0-96.446 43.18-96.446 96.446v7.032h54.98c14.169 0 28.11-1.968 41.465-5.738l9.354-46.001z" fill="#9e5f4b"/></g><path d="m191.119 18.474v97.74c29.379-8.293 55.931-25.304 75.871-49.26l4.482-5.384c-17.282-25.975-46.816-43.096-80.353-43.096z" fill="#7d4b3b"/><g><path d="m174.981 431.692v-140.904c0-22.177-17.978-40.154-40.154-40.154-22.177 0-40.154 17.978-40.154 40.154v181.057c0 22.177 17.978 40.154 40.154 40.154h56.292l17.13-40.154-17.13-40.154h-16.138z" fill="#f6dccd"/><path d="m322.732 431.692h-131.613v80.308h131.613c22.177 0 40.154-17.978 40.154-40.154 0-22.177-17.978-40.154-40.154-40.154z" fill="#f1cbbc"/></g></g></svg>