<svg height="512pt" viewBox="-107 0 512 512" width="512pt" xmlns="http://www.w3.org/2000/svg"><path d="m68.890625 101.800781c0-26.050781 51.378906-35.242187 51.378906-55.164062 0-14.109375-1.535156-28.21875 9.003907-38.515625 11.082031-10.828125 29.136718-10.828125 40.21875 0 10.539062 10.296875 9.003906 24.40625 9.003906 38.515625 0 19.921875 51.378906 29.113281 51.378906 55.164062l-78.019531 25.226563" fill="#ffe785"/><path d="m149.378906 0c-2.589844 0-5.183594 2.707031-7.15625 8.117188-3.75 10.304687-3.207031 24.410156-3.207031 38.515624 0 19.925782-18.285156 29.113282-18.285156 55.171876h-51.839844c0-26.058594 51.378906-35.246094 51.378906-55.171876 0-14.105468-1.535156-28.210937 9.007813-38.515624 5.535156-5.410157 12.820312-8.117188 20.101562-8.117188zm0 0" fill="#f2a755"/><path d="m270.898438 144.082031v6.550781h-243.03125v-6.550781c0-23.355469 18.921874-42.277343 42.277343-42.277343h158.480469c23.351562 0 42.273438 18.921874 42.273438 42.277343zm0 0" fill="#3598ba"/><path d="m270.898438 144.082031v6.550781h-197.097657v-6.550781c0-23.355469 18.933594-42.277343 42.289063-42.277343h112.535156c23.351562 0 42.273438 18.921874 42.273438 42.277343zm0 0" fill="#61b4d8"/><path d="m298.777344 196.679688v263.347656c0 28.703125-23.269532 51.972656-51.972656 51.972656h-194.832032c-28.703125 0-51.972656-23.269531-51.972656-51.972656v-263.347656c0-28.710938 23.269531-51.980469 51.972656-51.980469h194.832032c28.703124 0 51.972656 23.269531 51.972656 51.980469zm0 0" fill="#93cad8"/><path d="m298.777344 196.679688v263.347656c0 28.703125-23.269532 51.972656-51.972656 51.972656h-133.558594c-28.703125 0-51.972656-23.269531-51.972656-51.972656v-263.347656c0-28.710938 23.269531-51.980469 51.972656-51.980469h133.558594c28.703124 0 51.972656 23.269531 51.972656 51.980469zm0 0" fill="#c0e5f2"/><path d="m150.488281 261.414062c66.714844-23.570312 113.019531 5.867188 113.019531 33.941407l-50.375 80.859375-54.46875-66.722656zm0 0" fill="#93cad8"/><path d="m263.507812 295.355469v142.089843c0 21.695313-17.585937 39.28125-39.277343 39.28125h-149.679688c-21.695312 0-39.28125-17.585937-39.28125-39.28125v-163.324218c0-32.351563 31.953125-55.289063 62.453125-44.503906 60.488282 21.390624 125.664063 117.476562 165.785156 65.738281zm0 0" fill="#fff"/><g fill="#93cad8"><path d="m121.523438 420.671875h-44.433594c-4.328125 0-7.835938-3.507813-7.835938-7.835937 0-4.328126 3.507813-7.835938 7.835938-7.835938h44.433594c4.328124 0 7.835937 3.507812 7.835937 7.835938 0 4.328124-3.507813 7.835937-7.835937 7.835937zm0 0"/><path d="m121.523438 322.023438h-44.433594c-4.328125 0-7.835938-3.507813-7.835938-7.835938s3.507813-7.839844 7.835938-7.839844h44.433594c4.328124 0 7.835937 3.511719 7.835937 7.839844s-3.507813 7.835938-7.835937 7.835938zm0 0"/><path d="m121.523438 223.375h-44.433594c-4.328125 0-7.835938-3.511719-7.835938-7.839844s3.507813-7.835937 7.835938-7.835937h44.433594c4.328124 0 7.835937 3.507812 7.835937 7.835937s-3.507813 7.839844-7.835937 7.839844zm0 0"/></g></svg>