<svg id="Capa_1" enable-background="new 0 0 511.955 511.955" height="512" viewBox="0 0 511.955 511.955" width="512" xmlns="http://www.w3.org/2000/svg"><g><g><path d="m270.978 44.466v48c0 8.28-6.72 15-15 15s-15-6.72-15-15v-48c0-8.28 6.72-15 15-15s15 6.72 15 15z" fill="#535e7e"/></g><g><path d="m270.978 44.466v48c0 8.28-6.72 15-15 15v-78c8.28 0 15 6.72 15 15z" fill="#424765"/></g><path d="m455.718 230.006c-11.23-41.17-35.26-78.34-68.52-105.63-36.85-30.25-83.46-46.91-131.22-46.91s-94.37 16.66-131.22 46.91c-33.26 27.29-57.29 64.46-68.52 105.63-26.68 3.78-47.26 26.76-47.26 54.46s20.58 50.68 47.26 54.46c11.23 41.17 35.26 78.34 68.52 105.63 36.85 30.25 83.46 46.91 131.22 46.91s94.37-16.66 131.22-46.91c33.26-27.29 57.29-64.46 68.52-105.63 26.68-3.78 47.26-26.76 47.26-54.46s-20.58-50.68-47.26-54.46z" fill="#f2cdbe"/><path d="m502.978 284.466c0 27.7-20.58 50.68-47.26 54.46-11.23 41.17-35.26 78.34-68.52 105.63-36.85 30.25-83.46 46.91-131.22 46.91v-414c47.76 0 94.37 16.66 131.22 46.91 33.26 27.29 57.29 64.46 68.52 105.63 26.68 3.78 47.26 26.76 47.26 54.46z" fill="#efbeaa"/><path d="m255.978 293.466c-52.38 0-95 42.62-95 95v1c0 16.54 13.46 30 30 30h130c16.54 0 30-13.46 30-30v-1c0-52.38-42.62-95-95-95z" fill="#e19480"/><path d="m350.978 388.466v1c0 16.54-13.46 30-30 30h-65v-126c52.38 0 95 42.62 95 95z" fill="#d37f6c"/><g><path d="m270.978 372.466v47h-30v-47c0-8.28 6.72-15 15-15s15 6.72 15 15z" fill="#cf5c8f"/></g><g><path d="m270.978 372.466v47h-15v-62c8.28 0 15 6.72 15 15z" fill="#c74179"/></g><path d="m343.966 267.469c-2.255 0-4.543-.51-6.696-1.587l-48-24c-4.783-2.391-7.931-7.147-8.263-12.484-.333-5.336 2.201-10.446 6.65-13.412l48-32c6.892-4.595 16.206-2.732 20.801 4.16 4.596 6.893 2.733 16.206-4.16 20.801l-26.493 17.662 24.881 12.441c7.41 3.704 10.413 12.715 6.708 20.124-2.628 5.256-7.926 8.295-13.428 8.295z" fill="#eaa58f"/><path d="m167.989 267.469c-5.503.001-10.8-3.038-13.428-8.295-3.705-7.409-.702-16.42 6.708-20.124l24.881-12.441-26.493-17.662c-6.894-4.595-8.756-13.908-4.16-20.801 4.595-6.894 13.908-8.755 20.801-4.16l48 32c4.449 2.966 6.983 8.076 6.65 13.412-.332 5.337-3.479 10.094-8.263 12.484l-48 24c-2.153 1.078-4.442 1.587-6.696 1.587z" fill="#efbeaa"/><g><path d="m455.997 451.466c-8.284 0-15.005-6.716-15.005-15s6.711-15 14.995-15h.01c8.285 0 15 6.716 15 15s-6.715 15-15 15z" fill="#8bc8de"/></g><g><path d="m479.997 187.466c-8.284 0-15.005-6.716-15.005-15s6.711-15 14.995-15h.01c8.285 0 15 6.716 15 15s-6.715 15-15 15z" fill="#8bc8de"/></g><g><path d="m423.977 123.466c-3.963 0-7.782-1.57-10.605-4.394-3.089-3.089-4.678-7.371-4.352-11.727.983-13.137 5.407-57.211 21.016-72.821 18.717-18.715 49.169-18.714 67.884-.001 0 .001 0 .001.001.001 18.714 18.716 18.714 49.167 0 67.883-15.611 15.609-59.686 20.033-72.822 21.017-.375.029-.749.042-1.122.042z" fill="#8bc8de"/></g><g><path d="m63.997 451.466c-8.284 0-15.005-6.716-15.005-15s6.711-15 14.995-15h.01c8.285 0 15 6.716 15 15s-6.715 15-15 15z" fill="#9edee2"/></g><g><path d="m31.997 187.466c-8.284 0-15.005-6.716-15.005-15s6.711-15 14.995-15h.01c8.285 0 15 6.716 15 15s-6.715 15-15 15z" fill="#9edee2"/></g><g><path d="m87.979 123.466c-.373 0-.747-.014-1.121-.042-13.137-.983-57.211-5.407-72.821-21.016-18.716-18.716-18.716-49.167-.002-67.883 18.717-18.715 49.169-18.714 67.884-.001 0 .001 0 .001.001.001 15.608 15.61 20.032 59.685 21.016 72.821.326 4.355-1.263 8.638-4.352 11.727-2.823 2.823-6.643 4.393-10.605 4.393z" fill="#9edee2"/></g></g></svg>