<svg id="flat" height="512" viewBox="0 0 512 512" width="512" xmlns="http://www.w3.org/2000/svg"><path d="m479.607 132.774c6.847 15.833 7.521 32.985 2.876 48.547-4.65 15.575-14.599 29.553-29.011 39.054-43.322 28.562-91.307 49.314-141.789 61.318-16.794 3.994-33.793 1.671-48.326-5.608-14.52-7.274-26.556-19.512-33.404-35.345-16.493-38.137 3.034-78.918 37.105-93.652 4.718-2.04 9.717-3.581 14.934-4.541 6.979-1.297 14.361-1.558 21.995-.61 10.24 1.281 20.427-.281 29.578-4.239 9.151-3.957 17.266-10.31 23.346-18.649 4.537-6.211 9.784-11.411 15.508-15.608 4.273-3.145 8.82-5.732 13.537-7.772 34.07-14.734 77.158-1.032 93.651 37.105z" fill="#6a2e2e"/><path d="m375.425 155.668-57.439 24.84c-14.961 6.47-31.936-3.305-33.831-19.504l-2.164-18.457c6.979-1.297 14.361-1.558 21.995-.61 10.24 1.281 20.427-.281 29.578-4.239 9.151-3.957 17.266-10.31 23.346-18.649 4.537-6.211 9.784-11.411 15.508-15.608l11.967 14.218c10.504 12.475 6.001 31.539-8.96 38.009z" fill="#fcd47c"/><path d="m481.409 382.538c-7.194 15.678-19.497 27.648-34.174 34.601-14.69 6.957-31.736 8.906-48.438 4.543-50.206-13.113-97.723-34.917-140.405-64.426-14.2-9.816-23.839-24.01-28.145-39.683-4.301-15.661-3.25-32.793 3.945-48.472 17.328-37.764 60.708-50.514 94.446-35.033 4.672 2.144 9.16 4.83 13.363 8.068 5.63 4.322 10.762 9.636 15.161 15.946 5.895 8.47 13.868 15 22.929 19.158s19.212 5.944 29.477 4.889c7.652-.78 15.027-.355 21.976 1.095 5.196 1.075 10.159 2.725 14.831 4.869 33.738 15.479 52.362 56.681 35.034 94.445z" fill="#6a2e2e"/><path d="m394.722 320.382-56.878-26.099c-14.815-6.798-18.897-25.956-8.12-38.197l12.277-13.951c5.63 4.322 10.762 9.636 15.161 15.946 5.895 8.47 13.868 15 22.929 19.158s19.212 5.944 29.477 4.889c7.652-.78 15.027-.355 21.976 1.095l-2.57 18.405c-2.251 16.153-19.437 25.552-34.252 18.754z" fill="#fcd47c"/><path d="m392 250.862c0 17.25-6.19 33.26-16.63 45.7-10.45 12.45-25.13 21.33-42.13 24.33-51.1 9.02-103.38 9.02-154.48 0-17-3-31.68-11.88-42.13-24.33-10.44-12.44-16.63-28.45-16.63-45.7 0-41.55 34.11-71.23 71.23-71.23 5.14 0 10.34.57 15.51 1.76 6.92 1.58 13.8 4.27 20.43 8.17 8.89 5.24 18.86 7.85 28.83 7.85s19.94-2.61 28.83-7.85c6.63-3.9 13.51-6.59 20.43-8.17 5.17-1.19 10.37-1.76 15.51-1.76 37.12 0 71.23 29.68 71.23 71.23z" fill="#a44747"/><path d="m287.29 230.522h-62.58c-16.3 0-28-15.71-23.31-31.33l5.34-17.8c6.92 1.58 13.8 4.27 20.43 8.17 8.89 5.24 18.86 7.85 28.83 7.85s19.94-2.61 28.83-7.85c6.63-3.9 13.51-6.59 20.43-8.17l5.34 17.8c4.69 15.62-7.01 31.33-23.31 31.33z" fill="#fcd47c"/><path d="m296 322.862c0 17.25-6.19 33.26-16.63 45.7-10.45 12.45-25.13 21.33-42.13 24.33-51.1 9.02-103.38 9.02-154.48 0-17-3-31.68-11.88-42.13-24.33-10.44-12.44-16.63-28.45-16.63-45.7 0-41.55 34.11-71.23 71.23-71.23 5.14 0 10.34.57 15.51 1.76 6.92 1.58 13.8 4.27 20.43 8.17 8.89 5.24 18.86 7.85 28.83 7.85s19.94-2.61 28.83-7.85c6.63-3.9 13.51-6.59 20.43-8.17 5.17-1.19 10.37-1.76 15.51-1.76 37.12 0 71.23 29.68 71.23 71.23z" fill="#c95757"/><path d="m191.29 302.522h-62.58c-16.3 0-28-15.71-23.31-31.33l5.34-17.8c6.92 1.58 13.8 4.27 20.43 8.17 8.89 5.24 18.86 7.85 28.83 7.85s19.94-2.61 28.83-7.85c6.63-3.9 13.51-6.59 20.43-8.17l5.34 17.8c4.69 15.62-7.01 31.33-23.31 31.33z" fill="#fcd47c"/></svg>