<?xml version="1.0" encoding="iso-8859-1"?>
<!-- Generator: Adobe Illustrator 19.0.0, SVG Export Plug-In . SVG Version: 6.00 Build 0)  -->
<svg version="1.1" id="Capa_1" xmlns="http://www.w3.org/2000/svg" xmlns:xlink="http://www.w3.org/1999/xlink" x="0px" y="0px"
	 viewBox="0 0 512 512" style="enable-background:new 0 0 512 512;" xml:space="preserve">
<path style="fill:#D4CFC2;" d="M487.759,323.367c-32.322,32.322-84.727,32.322-117.049,0l-83.421-84.341l14.715-102.334
	l102.334-14.715l83.421,84.341C520.081,238.64,520.081,291.044,487.759,323.367z"/>
<path style="fill:#F05467;" d="M287.289,239.026l-98.655-97.735c-32.322-32.322-32.322-84.727,0-117.049s84.727-32.322,117.049,0
	l98.655,97.735L287.289,239.026z"/>
<path style="fill:#BD445A;" d="M350.433,175.882L350.433,175.882l-98.655-97.735c-0.565-0.565-1.136-1.12-1.713-1.665
	c-35.78-33.806,11.857-89.044,49.735-57.605c2.014,1.672,3.978,3.459,5.883,5.365l98.655,97.736l0,0L350.433,175.882
	L350.433,175.882z"/>
<path style="fill:#B2AEA6;" d="M487.759,206.318c32.322,32.322,32.322,84.727,0,117.049c-9.723,9.723-21.269,16.499-33.532,20.372
	c9.003-28.506,2.227-60.918-20.372-83.516l-83.421-84.341l53.905-53.905l0,0L487.759,206.318z"/>
<path style="fill:#F1EBDE;" d="M24.241,487.759c-32.322-32.322-32.322-84.727,0-117.049l84.341-83.421l102.334,14.715
	l14.715,102.334l-84.341,83.421C108.969,520.08,56.564,520.08,24.241,487.759z"/>
<path style="fill:#FF6473;" d="M108.582,287.288l97.735-98.655c32.322-32.322,84.727-32.322,117.049,0s32.322,84.727,0,117.049
	l-97.735,98.655L108.582,287.288z"/>
<path style="fill:#F05467;" d="M171.726,350.432L171.726,350.432l97.735-98.655c22.599-22.599,29.376-55.011,20.372-83.516
	c12.264,3.873,23.811,10.649,33.533,20.373c32.322,32.322,32.322,84.727,0,117.049l-97.736,98.655l0,0L171.726,350.432
	L171.726,350.432z"/>
<path style="fill:#D4CFC2;" d="M141.291,487.759c-32.322,32.322-84.727,32.322-117.049,0c-9.723-9.723-16.499-21.269-20.372-33.532
	c28.506,9.003,60.918,2.227,83.516-20.372l84.341-83.421l53.905,53.905l0,0L141.291,487.759z"/>
<g>
</g>
<g>
</g>
<g>
</g>
<g>
</g>
<g>
</g>
<g>
</g>
<g>
</g>
<g>
</g>
<g>
</g>
<g>
</g>
<g>
</g>
<g>
</g>
<g>
</g>
<g>
</g>
<g>
</g>
</svg>
