<svg id="Layer_1" enable-background="new 0 0 55 55" height="512" viewBox="0 0 55 55" width="512" xmlns="http://www.w3.org/2000/svg"><g id="_x34_9"><g><g><g><path d="m19.1908512 16.9069366c.7270355-.4602375 2.642868-1.2869844 3.5457211-1.4585657.5166988-.098196 1.0456791-.1067753 1.5715599-.1150522 2.8108044-.0442381 10.8351593-.2714853 13.0223846 1.441658 1.0720329.8396683 1.5893478 2.3815422 1.492588 3.4365082-.0910034.9922352-.7371902 1.852869-1.4872017 2.5088348-3.7172699 3.251152-9.4561882 2.4076595-13.5195847 2.4835129-1.2840595.0239697-1.5805988-.0666332-2.4925518-.8243446-1.5023746-1.2482738-3.7574654-3.1735764-3.9643955-5.2207184-.0892562-.8830147 1.1403657-1.8143349 1.8314801-2.251833z" fill="#8fbd26"/></g><g><path d="m32.0285797 12.0478382c-3.3766232-2.4907446-14.4914303-2.18009-16.5781231 3.5152531l3.153162 3.7772255c.948391-.4180412 1.843523-.8555431 2.5952835-1.3455353 3.6193218-2.359046 5.6255283-.1738377 9.9957142-1.3444214 1.3068295-.3500423 1.8566608-1.9230661 1.6499004-3.2114115-.0878677-.5474844-.3697128-1.0619554-.815937-1.3911104z" fill="#ea2d2d"/></g><g><path d="m32.5077744 12.5589151c2.9597092-1.681674 8.4815598-.7438974 10.4820175 3.6754541l-4.5002365 5.0188656c-3.0398827-1.5600777-6.0874519-3.211401-6.6081276-4.9400654-.5308819-1.7166013-.5974388-3.0136136.6263466-3.7542543z" fill="#f9593f"/></g><g><path d="m21.0809441 19.9930363c-1.6120167-3.9315891-5.2153959-5.3282213-8.7143984-3.9142075-4.8002777 1.9398861-4.8550229 7.8407021-3.8352909 12.8999481 2.2975655 11.3990192 5.4735231 19.700449 11.1698942 19.1131992l4.2978802-14.9267998z" fill="#f73533"/></g><g><path d="m20.0245056 46.9788551-.3223019 1.1106529c-5.697072.5900383-8.8753242-7.7101402-11.1710167-19.1092472-1.0237217-5.057127-.9641623-10.9646416 3.8377142-12.9014874.5950012-.2379875 1.2098246-.396657 1.8345737-.4710131-4.1021461 2.2546644-3.9981775 7.9404116-3.0691843 12.5295839 1.9684278 9.7728044 4.591384 17.2747041 8.890215 18.8415109z" fill="#ea2d2d"/></g><g><path d="m33.9206543 19.9930363c1.6120186-3.9315891 5.2153969-5.3282213 8.7143974-3.9142075 4.8002777 1.9398861 4.8550224 7.8407021 3.8352928 12.8999481-2.2975655 11.3990192-5.473526 19.700449-11.1698952 19.1131992l-4.2978802-14.9267998z" fill="#f73533"/></g><g><path d="m46.4720497 28.9802608c-2.3006554 11.399107-5.4739723 19.6992855-11.1710472 19.1092472l-.4214439-1.4676361c4.1798401-1.7255058 6.74823-9.1381264 8.6819763-18.7572269.8671799-4.2838173 1.0604897-9.7926311-2.5832825-12.2320986.5602913.079319 1.1205788.2280617 1.6560555.4462271 4.8026046 1.9371395 4.8439941 7.8291111 3.8377418 12.9014873z" fill="#ea2d2d"/></g><g><path d="m36.7798309 22.6826668c-2.7410774-3.1669559-6.3496799-2.9547749-10.4824982-.7006741-5.2299366-3.4426956-8.9557991-2.5564423-10.1321583 3.7487316-.5905619 7.1626015.9381886 14.6739426 3.5359745 22.3612518 1.3960953 2.5128403 3.2233677 3.313118 5.4605522 2.4849205 4.0785828 1.8295746 8.5560722.9211388 11.8315582-2.5833015 1.8561784-11.3101616 2.8435365-20.4448776-.2134284-25.3109283z" fill="#f9593f"/></g><g><path d="m36.9917984 47.9953003c-3.2724915 3.5005531-7.749815 4.4128914-11.8305092 2.5832787-2.2361946.8280296-4.0658054.0247879-5.4590855-2.4890709-.6991444-2.0677147-1.3189621-4.1205711-1.8445587-6.1585274.0249443-.0204239.028183-.0230789.0531273-.0435028 5.6261234 2.5462379 11.7116032-1.2455788 12.5539799-7.000103.8270855-5.6500645 1.2919064-10.6129131.9241505-14.5791626 2.027956-.1189938 3.8476391.5900383 5.3896618 2.3750114 3.059288 4.8640824 2.0725936 14.0022125.2132339 25.3120766z" fill="#f73533"/></g><g><path d="m36.9949532 47.9895859c-3.2782822 3.5067444-7.7586231 4.4206772-11.8316269 2.5828705-2.235199.8344994-4.0631218.0298309-5.4638214-2.4835548-.228466-.6954079-.456995-1.3808708-.665575-2.0663338.7251797.1589813 2.4667721-.1843948 2.4667721-.1843948s9.7357368.1242371 12.4108849-7.1449089c2.5749588-6.9968967 1.5310287-13.5855637.3117409-17.92346.913929.3775043 1.7683182 1.0133095 2.5531006 1.9172955 3.0597571 4.8578471 2.0762785 13.997341.2185248 25.3024863z" fill="#ea2d2d"/></g><g><path d="m30.9930992 18.7689495c-.3026905 2.4316902-4.8507843 2.4947701-6.9413338 1.006464-.8819447-.6278763-.9922695-1.8914566-.3074512-2.7299538 3.3339558-4.0821218.7323742-8.0763741.723875-8.2724438 0-.0134659 0-.0269327-.0134659-.0269327-.6759033-1.3504314-1.5742283-1.5223584-2.4216118-1.0494118-1.8296547 1.0090122-2.233326-2.4216118-2.233326-2.4216118s-.3901215-2.5561135 3.0539684-1.5336351c3.4440899 1.0358629 4.5607529 4.9642591 4.5607529 4.9642591l1.3580952 5.0829487c.7984162 2.9882403 2.3937474 2.9873744 2.2204972 4.9803172z" fill="#6d9415"/></g><g><path d="m30.9922466 18.7711239c-.1537075 1.2395725-1.4131012 1.8593597-2.8857307 1.978384.9817619-.2826271 1.7205429-.8677025 1.8345737-1.7949009.1761589-2.0161667-1.4125423-1.9260311-2.2213039-4.9781437l-1.3585682-5.0872135s-1.1156158-3.9269586-4.5616341-4.9632549c-.5007935-.1487429-.9222355-.223099-1.2742863-.2379885.4511929-.2280622 1.1751137-.2875893 2.3304043.054534 3.4410553 1.0362964 4.5566711 4.9632559 4.5566711 4.9632559l1.3585682 5.0822496c.2677364.9966211.7189579 1.9337454 1.368494 2.7320232.5801107.713995.9420568 1.2247143.8528119 2.2510548z" fill="#648211"/></g></g><g opacity=".3"><g><path d="m20.7783337 22.7818413c-1.0504017.432085-1.4707947.6196957-3.1076031 1.7589836-.7725639.5377369-.8368301.7912884-.8587856 1.384119-.0192814.5206261.1267586.7192993.7381458.690197.8525429-.0405827 1.0185356-.2154922 1.2907581-.6527443.6546211-1.051466.7447834-1.2468319.9684925-1.3705311.2717247-.1502495 1.5264492-.2191563 2.3297653-1.5669289.0927811-.1556664.3039589-.5068092.1324291-.6702328-.1846961-.1759719-.5736484.0488778-1.4932021.4271375z" fill="#fff"/></g><g><path d="m12.6258888 19.1522255c-.3039255 1.0943813-.4139738 1.5413895-.5197735 3.5328541-.0205297.3864326-.0338459.8018303.1753159 1.1274109.1359921.2116852.6058645.6501198.8782663.6354771.2223663-.0119534.381362-.2119331.5095844-.394001.6512966-.9248047.4182606-1.0368652-.1037264-2.4545231-.1780777-.4836407-.1310654-.5787926.0247488-.9243355.6152477-1.3644104.0357981-3.0266113-.3846979-2.963726-.2157697.0322684-.3136529.482788-.5797176 1.4408435z" fill="#fff"/></g><g><path d="m23.6325245 25.3239536c-.2295532.3926029-.1396198.6018715-.1225948.8902473.0279446.473299-.1739254.9278278-.2380352 1.3975964-.1645737 1.2059402.8786583 1.6134949 1.4673824.8603477.2191105-.2803059.3045921-.6408596.3595028-.9923782.1980629-1.2679195-.1121864-1.6473141.0458851-2.3070068.0744648-.3107643.3737526-.6130981.1302738-.9263477-.4064331-.5228977-1.436882.7260189-1.6424141 1.0775413z" fill="#fff"/></g><g><path d="m27.9382591 24.6325092c.0293369.1003666.0609627.2048149.1329098.2806931.2216892.2337914.6526432.0703278.8656216.725069.085928.2641563.0776863.3836937.1484451 1.9421902.0108662.2393322.0455227.3429451.3282356.4856644.9323502.4706745 1.4388313-.051775 1.452179-1.0553398.001421-.1067448-.0010757-.2154064-.0339584-.3169708-.0952873-.2943077-.6292953-.7329884-.9767075-1.3447876-.2961254-.5214825-.4893723-1.2725677-1.0998306-1.5568752-.2368336-.1103001-.6551723-.1426754-.8535805.0721722-.1964798.212757-.0321903.532564.0366859.7681845z" fill="#fff"/></g><g><path d="m39.907753 18.8574562c.0113564.1319256.0245285.2694912.0948982.3816586.2693291.4293118 1.1154709.1782894.8394814 1.9661102-.2696381 1.7466335-.2901955 1.7735329-.25214 1.9186478.0728455.277792.7542496.8001862 1.2650871.75737.6502266-.0545006.9556618-.7021904 1.0928612-1.3401489.0801506-.3726807.0541496-.5153408-.1568222-.8963661-.9346771-1.688097-.681572-1.6149139-1.003315-2.6079693-.126545-.3905697-.3253593-.7751961-.6560326-1.018528-.266468-.1960831-.7777252-.3407593-1.0776978-.1235924-.2970543.2150516-.1729736.6531067-.1463203.9628181z" fill="#fff"/></g><g><path d="m19.5708809 14.8471956c.0980053-.0239105.2000427-.0498466.2762985-.1158886.2918644-.2527685.004343-.8605909 1.3825169-.8609791 1.5084705-.0004234 1.5066376.0737934 1.7144985-.2955656.4941559-.8780899.0126667-1.3889332-.9539413-1.4454365-.2899208-.0169468-.3943005.0192413-.6566048.2224464-1.1621189.900279-1.1364937.7011967-1.8466911 1.0590706-.9028625.4549589-.9034863 1.1901989-.6580124 1.4383049.1965026.1986085.5118618.0541802.7419357-.0019521z" fill="#fff"/></g><g><path d="m34.0165634 14.4893665c.089138.0472269.1826401.0956202.2835121.0969076.3107986.0039673.4876556-.4040079 1.0836945-.1108513.2404747.1182747.3175926.2043858 1.4429283 1.2038364.1728096.1534815.2677765.199214.5566483.0997181.5831261-.2008457.8949165-.5728693.6598549-1.1455975-.1305428-.318058-.4873276-.6756067-.6548195-.7582731-.2676201-.1320829-.9301987-.0578995-1.5869713-.229207-.5598183-.1460171-1.2092056-.5176287-1.8164597-.2867327-.2355881.0895777-.5393906.357091-.5242844.6388206.0149575.278988.3466263.3805095.5558968.4913789z" fill="#fff"/></g></g></g></g></svg>