<svg id="Layer_1" enable-background="new 0 0 64 64" height="512" viewBox="0 0 64 64" width="512" xmlns="http://www.w3.org/2000/svg"><g><path d="m14 15v-6h-3.5v19h3.5v-6h6v-7z" fill="#59c18d"/><path d="m7 9v6h-6v7h6v6h3.5v-19z" fill="#6bd6a3"/><path d="m63 15-3 3-4-4-5-5-4-4 3-3z" fill="#b3b3b3"/><path d="m45.05 11.464h9.899v7.071h-9.899z" fill="#999" transform="matrix(.707 -.707 .707 .707 4.038 39.749)"/><path d="m49.879 9.464h4.243v7.071h-4.243z" fill="#808080" transform="matrix(.707 -.707 .707 .707 6.038 40.577)"/><path d="m51.5 23.5c.83.83.83 2.17 0 3l-4.5 4.5-4-4 6-6z" fill="#bfe1e8"/><path d="m44 16-6 6-4-4 4.5-4.5c.83-.83 2.17-.83 3 0z" fill="#bfe1e8"/><path d="m39.257 17.964h8.485v7.071h-8.485z" fill="#62abbc" transform="matrix(.707 -.707 .707 .707 -2.462 37.056)"/><path d="m47 31-3 3-13-13 3-3 4 4 5 5z" fill="#4289a5"/><path d="m40 38-4 4-4 4-2.5 2.5c-.83.83-2.17.83-3 0l-1.5-1.5-7-7-1.5-1.5c-.83-.83-.83-2.17 0-3l14.5-14.5 13 13z" fill="#6bd6a3"/><path d="m25 47-2.5 2.5c-.83.83-2.17.83-3 0l-.5-.5-3-3-.5-.5c-.83-.83-.83-2.17 0-3l2.5-2.5z" fill="#999"/><path d="m15 53-8 8h-6l11-11z" fill="#e6e6e6"/><path d="m12.672 47.379h5.657v4.243h-5.657z" fill="#b3b3b3" transform="matrix(.707 -.707 .707 .707 -30.462 25.458)"/><path d="m21 38c-.256 0-.512-.098-.707-.293-.391-.391-.391-1.023 0-1.414l6-6c.391-.391 1.023-.391 1.414 0s.391 1.023 0 1.414l-6 6c-.195.195-.451.293-.707.293z" fill="#aee5c9"/><path d="m29.52 29.48c-.256 0-.512-.098-.707-.293-.391-.391-.391-1.023 0-1.414l1.48-1.48c.391-.391 1.023-.391 1.414 0s.391 1.023 0 1.414l-1.48 1.48c-.196.196-.452.293-.707.293z" fill="#aee5c9"/><path d="m16.5 35.5c-.83.83-.83 2.17 0 3l1.5 1.5 7 7 1.5 1.5c.83.83 2.17.83 3 0l1.793-1.793-4-4c-.391-.391-.391-1.023 0-1.414s1.023-.391 1.414 0l4 4 2.586-2.586-3-3c-.391-.391-.391-1.023 0-1.414s1.023-.391 1.414 0l3 3 2.586-2.586-4-4c-.391-.391-.391-1.023 0-1.414s1.023-.391 1.414 0l4 4 3.293-3.293-13-13z" fill="none"/><g fill="#22b573"><path d="m35.293 33.293c-.391.391-.391 1.023 0 1.414l4 4 .707-.707.707-.707-4-4c-.391-.391-1.023-.391-1.414 0z"/><path d="m32.293 38.293c-.391.391-.391 1.023 0 1.414l3 3 .707-.707.707-.707-3-3c-.391-.391-1.023-.391-1.414 0z"/><path d="m27.293 41.293c-.391.391-.391 1.023 0 1.414l4 4 .707-.707.707-.707-4-4c-.391-.391-1.023-.391-1.414 0z"/></g></g></svg>