<svg id="Capa_1" enable-background="new 0 0 512 512" height="512" viewBox="0 0 512 512" width="512" xmlns="http://www.w3.org/2000/svg"><g><path d="m36.408 222.188c-17.868-31.205-19.422-65.53-3.897-86.408 23.462-31.553 45.847-26.709 69.153-49.332 27.042-26.251 28.744-59.289 72.248-70.009 50.318-12.4 79.015 17.715 107.207 20.861 27.967 3.12 86.653-17.605 132.843 12.482 57.488 37.446 26.456 141.982 26.456 141.982z" fill="#57be92"/><g><path d="m413.963 49.782c-27.312-17.79-58.992-17.814-86.108-15.508 15.311 1.813 30.697 6.256 44.901 15.508 57.488 37.446 26.456 141.982 26.456 141.982l-364.454 27.446c.534.996 1.084 1.989 1.651 2.979l404.01-30.425s31.031-104.536-26.456-141.982z" fill="#22b37f"/></g><ellipse cx="258.79" cy="283.363" fill="#d5efc8" rx="214.278" ry="215.177"/><g><g><path d="m67.952 185.407c-14.986 29.381-23.44 62.677-23.44 97.956 0 118.839 95.936 215.177 214.278 215.177 36.731 0 71.299-9.287 101.514-25.64-.01-.103-5.29-53.791-37.047-115.056-37.152-71.675-111.709-153.71-255.305-172.437z" fill="#57be92"/><path d="m426.589 149.548c-39.256-49.573-99.827-81.362-167.799-81.362-83.211 0-155.344 47.629-190.838 117.221 143.596 18.727 218.153 100.762 255.305 172.437 0-.004 9.145-137.785 103.332-208.296z" fill="#ade194"/></g><path d="m473.068 283.363c0-50.582-17.388-97.08-46.478-133.815-94.188 70.51-103.332 208.292-103.332 208.296 31.756 61.265 37.037 114.954 37.047 115.056 67.134-36.335 112.763-107.582 112.763-189.537z" fill="#09a76d"/></g><path d="m172.359 243.252s7.804-93.703 105.653-125.428c78.046-25.304 148.577 31.724 148.577 31.724l-80.468 255.859z" fill="#d5efc8"/><path d="m330.707 354.624c-26.602-96.642-14.67-184.696-14.546-185.574.596-4.224-2.344-8.132-6.568-8.73-4.216-.604-8.134 2.342-8.732 6.567-.271 1.912-3.596 26.305-2.986 63.176-10.894-9.087-25.766-22.798-32.305-34.758-2.048-3.745-6.742-5.121-10.486-3.073-3.744 2.047-5.12 6.741-3.073 10.485 10.562 19.321 37.451 40.759 46.58 47.701 1.678 31.31 6.371 68.903 17.217 108.307.944 3.428 4.054 5.678 7.446 5.678.678 0 1.368-.09 2.054-.279 4.115-1.133 6.531-5.386 5.399-9.5z" fill="#ade194"/><path d="m360.304 472.9s6.483-59.191 31.13-94.688c14.142-20.368 44.165-55.42 47.94-94.849 3.884-40.566 28.996-43.11 52.275-70.348 31.074-36.358 21.752-67.279 3.884-78.98s-43.384-6.263-68.943 15.513c-19.332 16.471-89.938 70.13-103.332 208.296-.001 0 35.437 80.245 37.046 115.056z" fill="#57be92"/><path d="m360.304 472.9c-9.655-37.544-29.465-71.48-64.424-90.202-31.983-17.129-56.896-5.266-80.793-16.968-17.982-8.805-17.868-23.756-39.376-28.805-16.855-3.956-25.439 6.495-54.624-1.1-25.636-6.671-28.744-24.601-53.134-24.601-37.775 0-55.821-12.779-64.56-35.013-10.163-25.855.064-86.173 64.56-90.804 22.837-1.64 157.368 17.082 243.844 152.066 51.087 79.745 48.507 135.427 48.507 135.427z" fill="#09a76d"/><g><path d="m311.796 337.473c-86.476-134.983-221.007-153.706-243.844-152.066-5.392.387-10.396 1.172-15.049 2.284 49.017 8.367 148.658 42.034 217.685 149.781 10.282 16.049 18.386 31.121 24.779 44.963.171.09.34.17.512.262 34.959 18.723 54.769 52.658 64.424 90.202.001.001 2.581-55.681-48.507-135.426z" fill="#02905d"/></g><g><path d="m105.381 135.124c.413-.088 41.702-8.605 75.807 3.605.861.308 1.739.454 2.604.454 3.171 0 6.144-1.967 7.275-5.124 1.438-4.017-.652-8.44-4.67-9.878-22.508-8.059-47.092-8.204-63.869-6.884-6.757 5.598-13.168 11.601-19.193 17.976.671.038 1.356-.003 2.046-.149z" fill="#d5efc8"/></g><g><path d="m88.018 243.684c-4.267.026-7.705 3.506-7.68 7.773.026 4.267 3.499 7.706 7.773 7.68 67.891-.401 120.837 14.991 153.319 27.978 35.069 14.022 54.482 28.332 54.867 28.619.255.191.525.345.794.5-9.419-12.636-19.25-24.104-29.33-34.482-5.985-2.841-12.644-5.789-19.981-8.739-33.87-13.613-89.054-29.725-159.762-29.329z" fill="#57be92"/></g><g><path d="m337.914 286.739c.522-.6 52.983-60.371 116.986-90.219 3.867-1.804 5.54-6.401 3.736-10.268s-6.4-5.539-10.268-3.737c-41.762 19.475-78.072 50.268-100.023 71.301-4.397 10.491-8.475 21.904-12.064 34.327.594-.383 1.147-.845 1.633-1.404z" fill="#09a76d"/></g></g></svg>