<svg id="Layer_1" enable-background="new 0 0 497 497" height="512" viewBox="0 0 497 497" width="512" xmlns="http://www.w3.org/2000/svg"><g><g><g><g><path d="m322.148 41.735c-22.031-.83-42.691 4.784-60.264 15.107-25.08 13.716-50.16 13.716-75.24 0-17.573-10.323-38.233-15.937-60.264-15.107-58.217 2.192-105.372 50.224-106.676 108.591-2.042 91.461 78.426 221.288 91.626 307.551 3.766 24.609 11.061 39.123 30.26 39.123 12.932 0 23.981-15.596 32.267-40.32 6.4-19.098 16.558-56.764 22.089-75.682 9.642-32.984 46.995-32.983 56.637 0 5.53 18.918 15.689 56.584 22.089 75.682 8.286 24.723 19.334 40.32 32.267 40.32 19.199 0 26.495-14.513 30.26-39.123 13.201-86.264 93.668-216.09 91.626-307.551-1.304-58.367-48.459-106.399-106.677-108.591z" fill="#f7f4e6"/><g><path d="m428.824 150.326c-1.303-58.367-48.458-106.399-106.676-108.591-8.331-.314-16.464.297-24.31 1.732 50.779 9.348 89.802 53.837 90.986 106.859 2.042 91.461-78.425 221.288-91.626 307.551-1.778 11.621-4.346 20.987-8.58 27.641 5.531 7.356 11.676 11.482 18.32 11.482 19.199 0 26.495-14.513 30.26-39.123 13.201-86.263 93.668-216.09 91.626-307.551z" fill="#f0ebd5"/></g><g><path d="m60.661 161.686c-4.142 0-7.5-3.357-7.5-7.5 0-43.335 35.315-78.591 78.723-78.591 4.142 0 7.5 3.357 7.5 7.5s-3.358 7.5-7.5 7.5c-35.137 0-63.723 28.526-63.723 63.591 0 4.142-3.358 7.5-7.5 7.5z" fill="#e6dfc3"/></g></g></g><g fill="#fed23a"><path d="m378.965 0 19.477 54.692 35.612 19.44-35.612 19.441-19.477 54.692-19.477-54.692-35.612-19.441 35.612-19.44z"/><path d="m455.3 112.983 13.159 36.951 24.06 13.135-24.06 13.135-13.159 36.951-13.16-36.951-24.06-13.135 24.06-13.135z"/><path d="m65.902 264.116 21.716 60.979 39.705 21.675-39.705 21.675-21.716 60.979-21.716-60.979-39.705-21.675 39.705-21.675z"/></g></g><g><path d="m398.442 54.692-19.477-54.692v148.265l19.477-54.692 35.612-19.441z" fill="#f7c61b"/></g><g><path d="m87.618 325.095-21.716-60.979v165.308l21.716-60.979 39.705-21.675z" fill="#f7c61b"/></g></g></svg>