<svg id="icons" height="512" viewBox="0 0 340 340" width="512" xmlns="http://www.w3.org/2000/svg"><path d="m113.65 71.429s17.706-55.672 54.668-55.672 53.686 43 53.686 43l-14.604 41.443h-72.545z" fill="#719b56"/><path d="m214.367 35.877c1.6 12.328-.245 29.58-13.585 49.9l20.831 54.645 42.287-32.341s1.15-49.853-36.45-80.243c-5.804-4.691-14.074.407-13.083 8.039z" fill="#719b56"/><path d="m125.633 35.877a59.081 59.081 0 0 0 -.428 10.14l-11.555 63.237c-17.408-10.888-28.91-24.712-28.4-44.505a93.849 93.849 0 0 1 27.3-36.911c5.804-4.691 14.074.407 13.083 8.039z" fill="#a9db89"/><path d="m115.3 66.468a16.3 16.3 0 0 1 -19.483 9.385c-4.38-1.317-8.471-4.478-10.571-11.1a116.559 116.559 0 0 0 -9.146 43.328l42.288 32.342 20.831-54.645c-9.829-14.972-13.414-28.278-13.982-39.172s-5.764 10.17-9.937 19.862z" fill="#719b56"/><path d="m263.834 73.857a114.571 114.571 0 0 1 -18.09 33.625l16.03 82.391s59.619-49.256 15.9-117.714a7.744 7.744 0 0 0 -13.84 1.698z" fill="#719b56"/><path d="m155.1 50.88c-8.472 8.39-20.678 23.1-27.67 43.46-2.793 14.439-.755 28.125 8.452 40.691l71.935 1.09 4.39-44.613a108.943 108.943 0 0 0 -22.532-35.3 10.193 10.193 0 0 0 -10.6-2.743l-3.187 1.04a4.434 4.434 0 0 1 -5.113-1.832 10.144 10.144 0 0 0 -15.675-1.793z" fill="#a9db89"/><path d="m202.254 119.019a53.035 53.035 0 0 0 -9.537-13.4 9.428 9.428 0 0 0 -10.21-2.118l-4.8 1.91a7.668 7.668 0 0 1 -8.337-1.785l-2.825-2.913a9.5 9.5 0 0 0 -12.873-.67c-9.585 7.905-16.071 19.477-16.071 19.477-6.577-7.46-9.171-17.538-10.173-25.184-5.493 15.993-7.768 35.468-2.484 58.1h90.11s9.969-27.652-2.857-60.93c-1.448 15.132-9.943 27.513-9.943 27.513z" fill="#719b56"/><path d="m116.213 273.585s19 13.163 23.1 34.336a18.02 18.02 0 0 0 12 13.625c8.336 2.775 21.036 4.559 37.156-.568a18.154 18.154 0 0 0 12.549-14.591 38.657 38.657 0 0 1 19.542-28.658s-53.869-19.589-104.347-4.144z" fill="#719b56"/><path d="m76.166 73.857c.9 2.625 1.983 5.49 3.28 8.514 6.013 19.327-1.038 45.318-9.128 71.838-10.47-7.334-18.962-16.393-23.949-28.509-.635-15.786 3.4-33.871 15.957-53.541a7.744 7.744 0 0 1 13.84 1.698z" fill="#a9db89"/><path d="m69.324 124.277a11.4 11.4 0 0 1 -20.281 5.4 36.126 36.126 0 0 1 -2.664-3.973c1.579 39.153 31.847 64.173 31.847 64.173l16.03-82.391a111.4 111.4 0 0 1 -14.805-25.117 220.956 220.956 0 0 0 -10.127 41.908z" fill="#719b56"/><path d="m225.871 94.029a183.62 183.62 0 0 1 -15.748 35.977l7.239 51.844c22.253-2.491 43.119-7.395 46.661-42.477a100.316 100.316 0 0 0 -19.062-48.864 10.774 10.774 0 0 0 -19.09 3.52z" fill="#a9db89"/><path d="m114.129 94.029a184.744 184.744 0 0 0 16.58 37.436l-.172 39.878-48.837-3.79-4.7-35.119a99.386 99.386 0 0 1 18.039-41.925 10.774 10.774 0 0 1 19.09 3.52z" fill="#a9db89"/><path d="m81.025 189.873h51.967c9.13-15.6 7.557-32.393 5.569-41.659a35.813 35.813 0 0 0 -4.568-11.235c-1.149-1.867-2.235-3.7-3.279-5.517-3.916 7.573-7.89 17.472-8.761 27.65 0 0-9.016-14.647-25.559-9.972 0 0-7.013 2.518-10.43 9.171 0 0-8.921-9.694-8.958-25.876a120.264 120.264 0 0 0 4.019 57.438z" fill="#719b56"/><path d="m255.637 158.311c-3.417-6.653-10.43-9.171-10.43-9.171-16.543-4.675-25.559 9.972-25.559 9.972-.928-10.845-5.379-21.374-9.53-29.109-1.289 2.283-2.652 4.606-4.111 6.976a35.813 35.813 0 0 0 -4.568 11.235c-1.988 9.266-3.561 26.057 5.569 41.659h51.967a120.219 120.219 0 0 0 5.044-50.5 39.351 39.351 0 0 1 -8.382 18.938z" fill="#719b56"/><path d="m177.126 200.852c-38.249 2.049-42.478-22.843-44.091-49.808 4.091-15.655 12.968-27.907 22.179-36.987a6.809 6.809 0 0 1 9.649.079l2.2 2.246a7.56 7.56 0 0 0 9.482 1.075 10.4 10.4 0 0 1 13.394 1.838 86.087 86.087 0 0 1 17.977 31.677c2.884 24.379-2.355 43.964-30.79 49.88z" fill="#a9db89"/><path d="m39.8 164.138a9.786 9.786 0 0 1 14.3-9.038 107.8 107.8 0 0 1 22.441 15.53c11.383 14.317 13.785 32.336 10.365 52.755-17.211 5.288-30.543-4.385-41.388-23.644a134.951 134.951 0 0 1 -5.718-35.603z" fill="#a9db89"/><path d="m207.914 150.973c.807 19.3-7.78 27.593-13.1 30.86a8.769 8.769 0 0 1 -6.833.925 5.538 5.538 0 0 0 -4.716.5l-5.831 3.851a5.105 5.105 0 0 1 -7.02-1.37l-3.777-5.5a6.22 6.22 0 0 0 -8.425-1.782 84.668 84.668 0 0 0 -7.874 5.654c-17.864-8.511-17.338-31.551-17.284-33.062-.451 1.724-.8 3.489-1.189 5.284-8.585 39.738 21.318 55.358 21.318 55.358l44.2 4.7c3.45-5.647 21.368-31.391 10.531-65.418z" fill="#719b56"/><path d="m76.539 170.633c.008.047 3.73 19.988 2.782 39.143a7.251 7.251 0 0 1 -9.907 6.348 62.48 62.48 0 0 1 -23.893-16.384c17 53.86 65.139 53.155 65.139 53.155l-12.04-46.895c-3.849-15.05-12.536-26.662-22.081-35.367z" fill="#719b56"/><path d="m91.11 224.708a59.631 59.631 0 0 1 -1.327-17.685c.78-13.178.875-23.9.561-32.586-.467-12.92 14.705-20.121 24.507-11.691a229.288 229.288 0 0 1 27.968 28.178c3.836 16.979-2.513 30.784-13.86 43.03-17.85 6.754-29.795 2.41-37.849-9.246z" fill="#a9db89"/><path d="m146.077 251.871 14.167-31.8c-3.534-9.967-9.866-19.868-17.425-29.147a95.918 95.918 0 0 0 -21.574 34.907 9.059 9.059 0 0 1 -9.6 5.98 50.4 50.4 0 0 1 -20.528-7.105c8.869 36.294 54.96 27.165 54.96 27.165z" fill="#719b56"/><path d="m89.648 239.781a104.2 104.2 0 0 1 -30.866-15.252 5.8 5.8 0 0 0 -8.851 6.747c7.114 18.11 22.568 42.805 54.738 48.068 26.04-27.979-15.021-39.563-15.021-39.563z" fill="#a9db89"/><path d="m300.205 164.138a9.786 9.786 0 0 0 -14.3-9.036c-15.077 7.898-37.605 23.853-44.525 50.898l-12.04 46.9s67.485.987 70.865-88.762z" fill="#719b56"/><path d="m248.374 226.63a57.411 57.411 0 0 0 1.843-19.607c-.78-13.178-.875-23.9-.561-32.586.467-12.92-14.705-20.121-24.507-11.691a230.88 230.88 0 0 0 -27.511 27.619c3.371 17.29 9.007 32.83 18.983 45.02 14.264 1.025 25.235-1.479 31.753-8.755z" fill="#a9db89"/><path d="m218.626 224.9a96.355 96.355 0 0 0 -20.985-34.531c-7.761 9.439-14.28 19.536-17.885 29.7l14.167 31.8s44.443 8.8 54.443-25.243a73.335 73.335 0 0 1 -20.353 4.469 9.11 9.11 0 0 1 -9.387-6.195z" fill="#719b56"/><path d="m192.268 275.871 9-32.2c38.447 4.557 65.009-8.322 79.945-19.145a5.8 5.8 0 0 1 8.851 6.747c-9.745 24.827-35.158 62.009-97.796 44.598z" fill="#719b56"/><path d="m201.273 243.674-9 32.2a119.435 119.435 0 0 0 24.134 4.281c6.988-11.379 7.635-24.955 6.529-35.691a129.93 129.93 0 0 1 -21.663-.79z" fill="#719b56"/><path d="m89.649 239.778s25.945 9.138 15.024 39.559c11.919 1.951 26.127 1.24 43.062-3.467l-9-32.2c-19.373 2.299-35.719.169-49.086-3.892z" fill="#719b56"/><path d="m166.253 197.973 3.747 3.859a5.247 5.247 0 0 0 7.474.054 8.089 8.089 0 0 1 11.108-.3 67.413 67.413 0 0 1 22.677 51c0 38.155-41.183 39.064-41.183 39.064s-35.127 3.936-40.577-36.338c-4.092-30.236 16.062-50.077 26.365-58.091a7.811 7.811 0 0 1 10.389.752z" fill="#a9db89"/><g fill="#f6fcde"><path d="m142.856 247.871a6.018 6.018 0 0 0 8.261 4.546c5.888-2.5 13.69-8.215 14.536-21.014.349-5.272-1.707-10.038-3.889-13.523a6.064 6.064 0 0 0 -9.805-.687c-4.966 5.916-11.418 16.637-9.103 30.678z"/><path d="m155.694 128.3a5.417 5.417 0 0 1 9.032 2.025c1.171 3.435 1.676 8.262-.352 14.468-2.614 8-9.235 9.535-14.339 9.41a5.4 5.4 0 0 1 -4.933-7.134c1.75-5.283 5.035-12.969 10.592-18.769z"/><path d="m154.474 65.975a5.147 5.147 0 0 1 8.834 1.643c1.293 4.047 1.731 9.346-1.689 14.361a20.031 20.031 0 0 1 -11.27 7.78 5.148 5.148 0 0 1 -6.065-7.13 76.373 76.373 0 0 1 10.19-16.654z"/><path d="m111.849 192.089a62 62 0 0 1 -6.114 9.026 3.238 3.238 0 0 1 -5.735-2.315c.632-7.033 1.2-16.658.3-22.372a4.4 4.4 0 0 1 2.222-4.554l.093-.05a4.415 4.415 0 0 1 5.234.962 25.994 25.994 0 0 1 4.43 6.436 13.905 13.905 0 0 1 -.43 12.867z"/><path d="m102.118 103.441a41.731 41.731 0 0 1 .167 12.914 14.906 14.906 0 0 1 -6.057 9.57 42.251 42.251 0 0 0 -4.408 3.67 2.9 2.9 0 0 1 -4.9-2.373c.72-7.28 3.067-17.59 10.177-25.277a2.906 2.906 0 0 1 5.021 1.496z"/></g></svg>