<?xml version="1.0" encoding="iso-8859-1"?>
<!-- Generator: Adobe Illustrator 19.0.0, SVG Export Plug-In . SVG Version: 6.00 Build 0)  -->
<svg version="1.1" id="Capa_1" xmlns="http://www.w3.org/2000/svg" xmlns:xlink="http://www.w3.org/1999/xlink" x="0px" y="0px"
	 viewBox="0 0 512 512" style="enable-background:new 0 0 512 512;" xml:space="preserve">
<path style="fill:#E6E6E6;" d="M341.848,52.966L341.848,52.966c-15.872,0-31.576,3.222-46.168,9.472l0,0
	c-25.335,10.867-54.025,10.867-79.36,0l0,0c-14.592-6.25-30.296-9.472-46.168-9.472l0,0
	c-64.715-0.009-117.177,52.454-117.186,117.169c0,0.009,0,0.009,0,0.018l0,0c0,50.335,14.142,99.663,40.819,142.345l3.319,5.297
	l38.444,169.154C138.876,501.601,151.905,512,166.938,512l0,0c15.748,0.009,29.193-11.37,31.779-26.898l26.483-158.844
	c2.507-15.06,15.528-26.103,30.799-26.121l0,0c15.281,0,28.319,11.043,30.835,26.121l26.483,158.844
	c2.586,15.519,16.013,26.889,31.744,26.898l0,0c15.033,0,28.063-10.399,31.391-25.053l38.444-169.154l3.319-5.297
	c26.677-42.681,40.819-92.01,40.819-142.345l0,0c0.009-64.715-52.454-117.177-117.169-117.186
	C341.857,52.966,341.857,52.966,341.848,52.966z"/>
<path style="fill:#DEDEDE;" d="M371.818,56.982C319.832,233.666,179.2,313.556,103.23,344.753l32.318,142.186
	c3.946,17.337,21.204,28.186,38.541,24.241c12.729-2.895,22.449-13.197,24.602-26.077l26.483-158.844
	c2.834-17.028,18.935-28.54,35.964-25.706c13.18,2.189,23.517,12.526,25.706,25.706l26.483,158.844
	c2.931,17.54,19.527,29.378,37.067,26.439c12.879-2.154,23.181-11.873,26.077-24.602l38.426-169.145l3.319-5.297
	c26.677-42.681,40.819-92.01,40.819-142.345C458.999,117.01,423.194,70.55,371.818,56.982z"/>
<path style="fill:#F9BC61;" d="M35.31,70.621L35.31,70.621C32.291,52.515,18.105,38.329,0,35.31l0,0
	C18.105,32.291,32.291,18.105,35.31,0l0,0c3.019,18.105,17.205,32.291,35.31,35.31l0,0C52.515,38.329,38.329,52.515,35.31,70.621z"
	/>
<g>
	<path style="fill:#F2F2F2;" d="M105.931,167.724H88.276c0-47.625,33.545-66.904,51.2-70.444l3.46,17.302l-1.695-8.651l1.766,8.642
		C141.506,114.9,105.931,122.959,105.931,167.724z"/>
	<rect x="158.897" y="97.103" style="fill:#F2F2F2;" width="17.655" height="17.655"/>
</g>
<path style="fill:#F9BC61;" d="M476.69,441.379L476.69,441.379c-3.019-18.105-17.205-32.291-35.31-35.31l0,0
	c18.105-3.019,32.291-17.205,35.31-35.31l0,0c3.019,18.105,17.205,32.291,35.31,35.31l0,0
	C493.895,409.088,479.709,423.274,476.69,441.379z"/>
<g>
</g>
<g>
</g>
<g>
</g>
<g>
</g>
<g>
</g>
<g>
</g>
<g>
</g>
<g>
</g>
<g>
</g>
<g>
</g>
<g>
</g>
<g>
</g>
<g>
</g>
<g>
</g>
<g>
</g>
</svg>
