<svg id="Capa_1" enable-background="new 0 0 512 512" height="512" viewBox="0 0 512 512" width="512" xmlns="http://www.w3.org/2000/svg"><g><path d="m243.87 92.146c1-7.504-6.477-13.292-13.494-10.447-6.634 2.689-13.836-2.354-13.574-9.506l.495-13.486c.314-8.554-9.672-13.423-16.223-7.91l-.924.778c-3.578 3.012-8.648 3.035-12.226.388 0 0-1.936 1.611-2.505.88l-7.09-9.122c-5.26-6.767-14.021-5.383-15.487 3.061l-1.976 11.382c-.958 5.519-6.315 9.136-11.795 7.962l-.866-.185c-8.422-1.804-14.954 7.285-10.556 14.688l6.74 11.344c3.674 6.183-.29 14.091-7.444 14.851l-.194.021c-7.581.805-10.697 5.888-6.175 12.024l3.62 4.911c12.133 16.462 29.284 28.542 48.874 34.423l20.001 6.005 25.438-2.477 27.73-58.996z" fill="#4fc660"/><path d="m223.567 164.107-22.679 2.287-20.003-6.01c-19.595-5.878-36.742-17.963-48.875-34.419l-3.614-4.91c-4.525-6.141-.685-14.86 6.901-15.669l.197-.022c7.156-.758 11.113-8.661 7.44-14.853l-6.741-11.342c-4.401-7.401 2.135-16.485 10.552-14.686l.867.182c5.48 1.18 10.836-2.44 11.798-7.962l1.975-11.386c1.465-8.443 12.264-11.123 17.526-4.363l7.09 9.127c.568.729 1.216 1.363 1.923 1.881l.371.489c4.275 5.643-.2 13.972-7.221 13.062-.273-.035-.547-.082-.821-.141l-.867-.182c-8.417-1.799-14.953 7.284-10.552 14.686l6.741 11.342c3.673 6.192-.284 14.095-7.44 14.853l-.197.022c-7.586.809-11.426 9.528-6.901 15.669l3.614 4.91c12.133 16.456 29.28 28.541 48.875 34.419z" fill="#3bb74f"/><path d="m420.01 268.221-38.63-7.57-28.159 28.149-6.177 18.365 6.546 21.732c5.884 19.583 16.217 37.274 32.685 49.402l4.913 3.618c6.137 4.52 13.616.832 14.421-6.746.76-7.151 10.822-11.692 17.008-8.02l11.348 6.738c7.405 4.397 13.521-1.086 11.716-9.504l-.186-.866c-.613-2.861 1.47-5.309 3.673-6.951 1.454-1.999 3.656-3.461 6.294-3.918l11.386-1.975c8.447-1.465 11.139-12.257 4.369-17.515l-9.126-7.087c-4.425-3.437-5.104-9.863-1.495-14.148l.778-.924c5.515-6.548.645-16.53-7.913-16.217l-13.491.494c-7.154.262-12.2-6.937-9.51-13.569 2.846-7.014-2.944-14.487-10.45-13.488z" fill="#a3e5a8"/><path d="m432.991 375.859-11.346-6.738c-6.194-3.671-14.101.284-14.859 7.437l-.022.197c-.809 7.583-9.532 11.422-15.675 6.898l-4.912-3.613c-16.462-12.129-28.551-29.269-34.432-48.857l-6.551-21.73 9.603-28.556 7.815 24.94c5.881 19.588 17.97 36.728 34.432 48.857l4.912 3.613c6.143 4.524 14.866.685 15.675-6.898l.022-.197c.758-7.153 8.665-11.109 14.859-7.437l5.036 2.991c4.18 2.483 7.943 5.609 11.148 9.265l.472.539c-1.589 2.185-2.28 5.02-1.668 7.875l.182.867c1.8 8.412-7.287 14.947-14.691 10.547z" fill="#90d196"/><path d="m66.534 471.621c3.852 3.337 8.792 5.04 14.083 5.407l38.104-51.974c11.081-12.788 22.404-24.275 33.855-36.73 10.278-11.179 51.83-47.921 58.241-54.329l154.659-154.901-32.046-32.035-157.026 156.585c-7.086 7.084-11.495 15.305-18.703 22.264-7.741 7.473-15.537 14.67-23.416 21.997-14.932 13.886-30.165 27.267-47.052 39.014l-52.772 45.695c1.884 16.456 19.629 28.936 32.073 39.007z" fill="#90d196"/><path d="m67.263 479.634c2.92 1.751 5.997 2.403 9.118 2.277l49.15-56.706c21.031-24.272 62.944-68.161 85.286-91.209-25.262 17.589-51.461 33.774-78.57 48.508-1.745.948-3.663-.972-2.714-2.716 14.28-26.232 29.917-51.631 46.87-76.143-22.408 21.642-65.622 62.876-89.174 83.272l-53.88 46.666c1.749 18.982 17.827 35.925 33.914 46.051z" fill="#86c48c"/><path d="m48.509 480.507-31.404-30.685c-15.31-15.305-17.652-39.298-5.59-57.273 0 0 94.397-121.98 149.918-177.48l120.016-119.973 27.546 27.536-69.51 69.484c-67.161 67.137-122.721 144.737-164.584 229.624 0 0-15.351 15.963-16.67 18.71-8.415 17.528-9.722 40.057-9.722 40.057z" fill="#a3e5a8"/><path d="m48.283 479.266-19.695-14.663c-8.103-8.102-15.769-15.77-15.847-15.856-14.829-15.319-16.979-38.957-5.05-56.724 21.869-32.598 45.297-64.074 70.205-94.363 24.9-30.267 51.28-59.347 79.037-87.093l120.011-119.969 19.524 19.519-120.012 119.968c-27.757 27.747-54.136 56.826-79.037 87.093-24.908 30.289-48.336 61.765-70.205 94.363-.082.122-.163.244-.243.366-8.848 13.416 5.677 29.971 20.194 23.076 9.409-4.469 19.98-9.504 27.743-13.239-8.615 17.457-16.65 35.231-24.088 53.284-1.15 2.791-2.537 4.238-2.537 4.238z" fill="#90d196"/><path d="m28.588 464.603 34.139 34.127c15.31 15.305 39.312 17.646 57.294 5.588 65.207-43.725 126-93.691 181.521-149.192l120.016-119.972-32.047-32.035-69.51 69.484c-83.113 83.085-182.26 148.408-291.413 192z" fill="#a3e5a8"/><path d="m482.781 212.385 15.046-2.355c9.544-1.494 12.788-13.596 5.271-19.661l-1.06-.856c-4.612-3.721-5.207-10.653-1.866-15.386.223-.316-.714-1.207-.454-1.504l8.579-9.812c6.365-7.279.548-16.707-9.121-16.512l-13.034.263c-6.321.128-11.48-5.024-11.359-11.343l.019-.998c.186-9.711-9.849-16.028-17.103-9.566l-11.116 9.903c-6.059 5.397-15.673 2.712-18.055-5.044l-.064-.21c-2.524-8.218-13.017-10.597-18.84-4.271l-4.661 5.064c-15.625 16.974-25.315 38.56-27.613 61.512l-2.347 23.434 18.952 13.135c19.617 13.596 43.233 20.214 67.061 18.792l5.488-.327c8.528-.509 13.33-10.031 8.668-17.187-4.407-6.764-.37-15.822 7.609-17.071z" fill="#4fc660"/><path d="m500.171 174.128-12.584.534c-6.318.124-11.485-5.026-11.361-11.342l.015-1.005c.189-9.703-11.288-14.984-18.538-8.523l-11.12 9.907c-6.056 5.398-15.667 2.71-18.05-5.048l-2.908-34.055c1.268 1.238 2.266 2.819 2.842 4.706l.066.211c2.383 7.758 11.995 10.446 18.05 5.048l11.12-9.907c7.251-6.461 18.728-1.18 18.538 8.523l-.015 1.005c-.124 6.316 5.043 11.466 11.361 11.342l13.029-.262c9.67-.197 14.975 11.167 8.606 18.451l-9.051 10.415c-.255.284.219-.306 0 0z" fill="#3bb74f"/><path d="m377.729 65.657 10.011-11.472c6.35-7.277 1.054-18.632-8.605-18.448l-1.362.026c-6.321.121-11.474-5.036-11.347-11.355l.044-2.172-2.44-7.651c.195-9.666-9.705-16.444-16.987-10.082l-7.903 9.03c-4.76 4.159-12.024 3.528-15.995-1.39l-.627-.777c-6.102-7.559-18.284-4.226-19.686 5.385l-.69 14.729c-1.171 8.028-10.262 12.148-17.074 7.737l-.184-.119c-7.218-4.674-16.786.247-17.179 8.835l-.314 6.875c-1.054 23.043 3.217 43.619 16.215 62.679l13.271 19.459 22.964-2.115c23.77-2.19 46.116-12.294 63.456-28.694l3.994-3.777c6.205-5.869 3.762-16.249-4.411-18.736-7.728-2.351-10.46-11.884-5.151-17.967z" fill="#4fc660"/><path d="m301.24 136.549-4.365.401-13.27-19.457c-12.993-19.063-19.457-41.828-18.4-64.868l.321-6.877c.386-8.588 9.954-13.505 17.176-8.836l.182.124c6.813 4.407 15.901.291 17.074-7.743l2.15-14.722c1.399-9.615 13.576-12.945 19.683-5.383l.627.772c3.972 4.917 11.237 5.551 15.995 1.391l9.816-8.574c7.287-6.367 18.655-1.063 18.458 8.603l-.072 3.759-.143 7.099-10.656 9.339c-4.758 4.159-12.024 3.526-15.995-1.391l-.627-.772c-6.107-7.561-18.284-4.232-19.683 5.383l-2.15 14.722c-1.173 8.035-10.26 12.151-17.074 7.743l-.182-.124c-7.222-4.669-16.79.248-17.176 8.836l-.321 6.877c-1.057 23.041 2.579 40.148 15.572 59.211z" fill="#3bb74f"/><path d="m448.719 133.698 15.41-8.504c9.775-5.394 8.513-19.82-2.05-23.436l-1.49-.51c-5.042-1.726-8.299-6.256-8.669-11.225 0 0-2.057-3.137-1.343-4.98l.158-.405 4.776-12.125c4.034-10.421-6.224-20.676-16.649-16.643l-11.37 6.222c-6.814 2.636-14.455-.92-16.822-7.831l-.374-1.092c-3.639-10.621-18.187-11.815-23.51-1.93l-8.157 15.148c-4.446 8.256-14.493 9.139-20.146 1.657l-.153-.202c-5.991-7.928-18.329-6.365-22.151 2.807l-3.06 7.342c-10.257 24.61-9.341 49.681-2.761 75.517l2.356 25.668 25.777 6.777c26.683 7.015 54.949 4.87 80.267-6.09l5.831-2.524c9.061-3.922 10.511-16.162 2.618-22.092-7.463-5.606-6.66-17.039 1.512-21.549z" fill="#a3e5a8"/><path d="m409.352 79.5-8.154 15.144c-4.445 8.261-15.952 9.142-21.599 1.661l-.16-.204c-5.99-7.926-18.327-6.359-22.146 2.804l-3.061 7.343c-10.26 24.607-12.957 46.938-6.377 72.776l1.13 4.422-16.272-4.276-6.719-26.37c-6.58-25.838-4.591-53.118 5.669-77.725l3.061-7.343c3.819-9.164 16.156-10.73 22.146-2.805l.16.204c5.648 7.481 17.154 6.6 21.599-1.661l8.154-15.144c5.327-9.885 19.872-8.69 23.516 1.93l.372 1.085c2.368 6.913 10.005 10.468 16.819 7.838l14.057-5.442c10.428-4.028 20.681 6.221 16.651 16.645l-5.284 13.643s-1.302 3.561-.994 5.996c0 0-16.311-.594-18.68-7.507l-.372-1.085c-3.644-10.619-18.189-11.814-23.516-1.929z" fill="#90d196"/><g><path d="m324.617 187.409c-3.018-3.017-3.018-7.909 0-10.927l75.865-75.837c3.018-3.017 7.912-3.017 10.931 0 3.019 3.018 3.018 7.909 0 10.927l-75.865 75.837c-3.018 3.017-7.912 3.017-10.931 0z" fill="#90d196"/></g><path d="m404.178 267.726 15.393.833c9.764.529 15.524-10.771 9.358-18.357l-.87-1.07c-4.035-4.964-3.132-12.287 1.989-16.123l4.282-3.208 4.773-5.639c7.834-5.868 2.425-15.571-7.19-17.412l-12.96-2.482c-6.285-1.203-8.414-6.152-6.964-12.382l.229-.984c2.228-9.576-8.022-17.212-16.565-12.34l-12.388 6.265c-7.135 4.069-16.108-.834-16.834-9.013-.769-8.668-7.959-11.784-15.056-6.745l-5.681 4.033c-19.043 13.519-32.578 30.264-39.686 52.505l-7.16 19.187c-.456 1.426-.102 2.988.925 4.078l2.912 4.956 10.221 10.85c16.56 17.588 38.549 29.109 62.44 32.714l5.503.83c8.55 1.29 15.31-7.127 12.201-15.193-2.939-7.626 2.965-15.745 11.128-15.303z" fill="#4fc660"/><path d="m440.614 225.099-6.281 4.706-12.811-2.273c-6.515-1.151-10.625-7.314-9.073-13.571l.248-.991c2.39-9.615-8.176-17.177-17.074-12.216l-13.642 7.59c-7.433 4.138-16.673-.481-17.358-8.668l-.015-.219c-.729-8.683-10.938-13.163-18.342-8.064l-5.932 4.094c-19.398 13.403-34.002 32.314-41.712 54.022l-.051-.051c-1.027-1.1-1.377-2.659-.925-4.087l6.515-20.397c7.112-22.232 21.249-41.565 40.291-55.092l5.684-4.036c7.098-5.041 16.986-.473 17.759 8.195l.014.218c.722 8.181 9.677 12.865 16.812 8.792l13.095-7.467c8.541-4.866 18.786 2.768 16.564 12.347l-.226.983c-1.45 6.228 2.565 12.413 8.854 13.615l12.964 2.484c9.612 1.846 12.468 14.215 4.642 20.086z" fill="#3bb74f"/><path d="m245.822 109.428-.834-15.387c-.529-9.76 10.046-14.79 17.635-8.626l1.07.87c4.966 4.034 12.292 3.131 16.129-1.988l6.69-10.142c5.87-7.831 18.25-4.974 20.091 4.637l2.181 6.206.795 4.15c1.204 6.282 7.392 10.304 13.625 8.855l.985-.229c9.579-2.228 17.218 8.019 12.345 16.559l-7.469 13.086c-4.071 7.132.613 16.083 8.795 16.808l.221.02c8.671.768 13.235 10.654 8.195 17.748l-4.035 5.679c-13.524 19.036-32.865 33.169-55.114 40.275l-13.829 4.416-4.729-1.231c-1.427.456-2.989.102-4.08-.925l-6.339-.896-3.319-3.122-7.049-7.51c-17.595-16.554-27.302-35.819-30.909-59.702l-.831-5.501c-1.291-8.547 7.129-15.304 15.198-12.196 7.631 2.937 15.024-3.694 14.582-11.854z" fill="#a3e5a8"/><path d="m255.075 206.414-7.659-7.204c-17.599-16.558-29.12-38.535-32.727-62.421l-.831-5.492c-1.297-8.552 7.127-15.312 15.194-12.202 4.445 1.705 9.065.423 12.053-2.564 2.135-2.134 3.447-5.15 3.257-8.559l-.831-15.385c-.525-9.761 10.778-15.523 18.364-9.353l1.071.867c4.962 4.028 12.286 3.132 16.126-1.989l7.914-10.563c5.874-7.824 18.247-4.968 20.091 4.64l1.687 8.808s-1.441 3.017-2.918 5.406l-7.914 10.563c-3.84 5.121-11.164 6.017-16.126 1.989l-1.071-.867c-7.586-6.17-18.888-.408-18.364 9.353l.831 15.385c.189 3.409-1.122 6.425-3.257 8.559-2.988 2.987-7.608 4.269-12.053 2.564-8.067-3.111-16.491 3.65-15.194 12.202l.831 5.492c3.003 19.858 8.635 35.569 21.526 50.771z" fill="#90d196"/><g><g><path d="m372.588 238.306-69.903 15.521-4.113-4.368c-1.027-1.1-1.377-2.659-.925-4.087l2.15-6.724 69.432-15.429c4.176-.925 8.3 1.697 9.218 5.864.933 4.167-1.698 8.298-5.859 9.223z" fill="#3bb74f"/><path d="m288.29 142.762-14.99 69.601-6.572 2.1c-1.428.452-2.988.102-4.088-.925l-4.487-4.227 15.024-69.798c.896-4.174 5.014-6.833 9.182-5.93 4.175.897 6.828 5.005 5.931 9.179z" fill="#90d196"/></g></g></g></svg>