<svg id="Capa_1" enable-background="new 0 0 497 497" height="512" viewBox="0 0 497 497" width="512" xmlns="http://www.w3.org/2000/svg"><g><path d="m124.25 248.5v-205.429c0-23.787 19.284-43.071 43.071-43.071h162.358c23.787 0 43.071 19.284 43.071 43.071v205.429l-124.25 43.071z" fill="#81ddfd"/><path d="m188.581 99.723c0-35.692 8.053-69.501 22.424-99.723h-43.685c-23.787 0-43.071 19.283-43.071 43.071v212.358c0 23.788 19.284 43.071 43.071 43.071h75.099c-33.609-40.318-53.838-142.183-53.838-198.777z" fill="#5bd6fd"/><path d="m205.429 248.5h-162.358c-23.787 0-43.071 19.284-43.071 43.071v162.358c0 23.787 19.284 43.071 43.071 43.071h162.358c23.787 0 43.071-19.284 43.071-43.071l25.353-81.179-25.353-81.179c0-23.787-19.283-43.071-43.071-43.071z" fill="#ff6f7f"/><path d="m59.331 348.223c0-35.692 8.053-69.501 22.424-99.723h-38.684c-23.787 0-43.071 19.283-43.071 43.071v162.358c0 23.787 19.284 43.071 43.071 43.071h70.099c-33.61-40.318-53.839-92.182-53.839-148.777z" fill="#fc5c70"/><path d="m48.693 297.193h151.113v151.113h-151.113z" fill="#f9f097"/><path d="m142.426 367.603c2.821-3.901 4.491-8.687 4.491-13.857 0-13.069-10.633-23.702-23.702-23.702h-20.454c-4.142 0-7.5 3.358-7.5 7.5v32.424.052 37.938c0 1.995.795 3.908 2.208 5.315 1.406 1.399 3.309 2.185 5.292 2.185h.033c.001 0 18.809-.084 23.992-.084 14.586 0 26.454-11.867 26.454-26.453 0-8.74-4.262-16.499-10.814-21.318zm-19.212-22.56c4.798 0 8.702 3.904 8.702 8.702 0 4.799-3.904 8.702-8.702 8.702-1.502 0-4.327.008-7.41.02h-5.544v-17.424zm3.572 55.33c-3.021 0-10.659.028-16.525.052v-22.938c1.791-.007 3.713-.014 5.548-.021h10.978c6.315 0 11.454 5.138 11.454 11.453s-5.139 11.454-11.455 11.454z" fill="#ff6f7f"/><path d="m172.943 48.693h151.113v151.113h-151.113z" fill="#fff"/><path d="m188.581 99.723c0-17.533 1.953-34.608 5.634-51.03h-21.272v151.113h28.657c-8.431-35.938-13.019-73.14-13.019-100.083z" fill="#eaeaea"/><path d="m257.114 87.384c-.025-.069-.053-.138-.081-.206-1.408-3.424-4.709-5.635-8.411-5.635-.004 0-.007 0-.011 0-3.706.004-7.007 2.223-8.409 5.653-.022.056-.045.112-.066.169l-26.441 69.422c-1.474 3.871.468 8.204 4.339 9.678.878.334 1.781.493 2.668.493 3.022 0 5.871-1.84 7.01-4.833l4.745-12.459h32.129l4.694 12.438c1.462 3.875 5.792 5.832 9.665 4.369 3.875-1.462 5.831-5.789 4.368-9.665zm-18.944 47.283 10.425-27.372 10.33 27.372z" fill="#5bd6fd"/><path d="m291.571 248.5h162.358c23.787 0 43.071 19.284 43.071 43.071v162.358c0 23.787-19.283 43.071-43.071 43.071h-162.358c-23.787 0-43.071-19.284-43.071-43.071v-162.358c0-23.787 19.284-43.071 43.071-43.071z" fill="#f9f097"/><path d="m307.831 348.223c0-35.692 8.053-69.501 22.424-99.723h-38.685c-23.787 0-43.071 19.283-43.071 43.071v162.358c0 23.788 19.284 43.071 43.071 43.071h70.099c-33.609-40.318-53.838-92.182-53.838-148.777z" fill="#f9d888"/><path d="m297.193 297.193h151.113v151.113h-151.113z" fill="#81ddfd" transform="matrix(-1 0 0 -1 745.5 745.5)"/><path d="m406.264 392.273c-3.174-2.663-7.904-2.248-10.566.925-.654.78-1.361 1.51-2.099 2.167-3.795 3.379-8.618 5.092-14.336 5.092-15.277 0-27.707-12.43-27.707-27.707 0-15.278 12.43-27.707 27.707-27.707 5.553 0 10.908 1.635 15.486 4.728 3.433 2.318 8.094 1.416 10.413-2.017 2.318-3.432 1.416-8.094-2.017-10.413-7.067-4.774-15.325-7.298-23.883-7.298-23.549 0-42.707 19.158-42.707 42.707s19.158 42.707 42.707 42.707c9.373 0 17.78-3.074 24.313-8.891 1.279-1.14 2.495-2.394 3.614-3.728 2.663-3.173 2.248-7.903-.925-10.565z" fill="#fff"/><path d="m59.331 348.223c0-17.533 1.954-34.607 5.632-51.03h-16.27v151.113h33.23c-14.478-30.313-22.592-64.249-22.592-100.083z" fill="#f9d888"/><path d="m307.831 348.223c0-17.533 1.954-34.607 5.632-51.03h-16.27v151.113h33.23c-14.478-30.313-22.592-64.249-22.592-100.083z" fill="#5bd6fd"/></g></svg>