<svg height="512" viewBox="0 0 64 64" width="512" xmlns="http://www.w3.org/2000/svg"><g id="Layer_6" data-name="Layer 6"><path d="m32.146 12.973-.624-2.028a7.007 7.007 0 0 0 -6.696-4.945 8.478 8.478 0 0 0 -5.087 1.7 4.346 4.346 0 0 0 -1.739 3.474 4.349 4.349 0 0 0 2.582 3.974 22.946 22.946 0 0 1 9.4 7.691l4.108-1.717z" fill="#548a4b"/><path d="m31.522 13.945a7.007 7.007 0 0 0 -6.696-4.945 8.484 8.484 0 0 0 -5.087 1.7 4.356 4.356 0 0 0 -1.466 1.966 4.343 4.343 0 0 0 2.309 2.487 22.946 22.946 0 0 1 9.4 7.691l3.459-1.446-1.291-5.42z" fill="#609b57"/><path d="m32.93 23.891-2.657-5.564a12.182 12.182 0 0 0 -6.644-6.4l.742-1.858a14.181 14.181 0 0 1 7.729 7.446l.091.206 2.541 5.307z" fill="#548a4b"/><path d="m32 24.762v-10.218a8.558 8.558 0 0 1 2.506-6.05 5.1 5.1 0 0 1 3.606-1.494 5.1 5.1 0 0 1 4.374 2.476 10.63 10.63 0 0 1 1.514 5.471 15.886 15.886 0 0 1 -1.134 5.886l-1.572 3.93-4.746 7.237-10.448 6.515z" fill="#487941"/><path d="m39.486 12.476a5.067 5.067 0 0 0 -6.438-2.028 8.55 8.55 0 0 0 -1.048 4.096v10.218l-5.9 13.753 8.7-5.426 3.493-5.326 1.572-3.93a15.886 15.886 0 0 0 1.135-5.886 10.63 10.63 0 0 0 -1.514-5.471z" fill="#548a4b"/><path d="m53.732 30.244 2.838.946a8.2 8.2 0 0 1 3.967 2.859 7.316 7.316 0 0 1 1.463 4.389 4.562 4.562 0 0 1 -3.455 4.426 4.59 4.59 0 0 1 -1.107.136 7.575 7.575 0 0 1 -5.7-2.588 27.992 27.992 0 0 0 -11.495-7.87l-1.653-.6 3.6-3.142z" fill="#487941"/><path d="m60.537 34.049a8.2 8.2 0 0 0 -3.967-2.859l-.836-.279a7.317 7.317 0 0 1 -.871 1.055 6.9 6.9 0 0 1 -4.911 2.034 31.868 31.868 0 0 1 -6.239-.618l-1.621-.324a3.03 3.03 0 0 0 -.585-.058c-.035 0-.068.006-.1.008a27.969 27.969 0 0 1 10.331 7.4 7.575 7.575 0 0 0 5.7 2.592 4.56 4.56 0 0 0 4.562-4.562 7.314 7.314 0 0 0 -1.463-4.389z" fill="#548a4b"/><path d="m27.721 30.557.48-.96a17.034 17.034 0 0 0 1.799-7.618 6.437 6.437 0 0 1 3.559-5.758 2.09 2.09 0 0 1 .934-.221 2.086 2.086 0 0 1 1.98 1.429v.012a10.21 10.21 0 0 1 .527 3.215 9.533 9.533 0 0 1 -2.089 5.955l-4.585 5.731" fill="#609b57"/><path d="m29.551 31.811 3.36-4.2a9.533 9.533 0 0 0 2.089-5.955 10.181 10.181 0 0 0 -.52-3.215v-.012a2.086 2.086 0 0 0 -1.98-1.429c-.044 0-.088.013-.132.015a6.427 6.427 0 0 0 -2.368 4.964 17.034 17.034 0 0 1 -1.8 7.621l-.48.96z" fill="#6aa962"/><path d="m31.87 33.923 4.12-4.578a27.956 27.956 0 0 1 6.917-5.577 13.408 13.408 0 0 1 6.656-1.768 5.885 5.885 0 0 1 4.161 1.724 4.357 4.357 0 0 1 1.276 3.081 5.3 5.3 0 0 1 -1.552 3.747 4.945 4.945 0 0 1 -3.496 1.448 29.818 29.818 0 0 1 -5.847-.579l-1.622-.321a4.917 4.917 0 0 0 -.976-.1 4.978 4.978 0 0 0 -2.761.836l-5.675 3.783z" fill="#609b57"/><path d="m2 58 2.775-1.388a13.575 13.575 0 0 0 5.225-4.612l-.29-.724a23.933 23.933 0 0 1 -1.71-8.882 13.394 13.394 0 0 1 13.394-13.394 13.605 13.605 0 0 1 13.606 13.606 14.4 14.4 0 0 1 -14.394 14.394 11.91 11.91 0 0 1 -6.606-2 21.051 21.051 0 0 1 -10.831 3z" fill="#e43a48"/><path d="m31 41.606a13.607 13.607 0 0 0 -8.322-12.541c-.423-.04-.85-.065-1.284-.065a13.394 13.394 0 0 0 -13.394 13.394 23.933 23.933 0 0 0 1.71 8.882l.29.724a13.575 13.575 0 0 1 -5.225 4.612l-2.775 1.388h1.169a21.054 21.054 0 0 0 10.831-3 11.914 11.914 0 0 0 1.71.941c.3.025.595.059.9.059a14.4 14.4 0 0 0 14.39-14.394z" fill="#fb4f59"/><path d="m56.143 38.515a18.9 18.9 0 0 0 -5.483-5.852l-4.231-2.832 1.113-1.662 4.244 2.84a20.879 20.879 0 0 1 6.071 6.476z" fill="#487941"/><path d="m32.925 49.989-.227-.136a31.271 31.271 0 0 1 -9.866-9.408l-1.664 1.11a33.28 33.28 0 0 0 10.5 10.012l.135.074a14.256 14.256 0 0 0 1.137-1.641z" fill="#e43a48"/><path d="m14.553 48.9.894-1.79a12.487 12.487 0 0 1 -5.547-5.557l-1.383-2.809a13.41 13.41 0 0 0 -.51 3.5l.1.2a14.5 14.5 0 0 0 6.446 6.456z" fill="#e43a48"/><path d="m52.724 26.724a5.885 5.885 0 0 0 -4.161-1.724 13.408 13.408 0 0 0 -6.656 1.768 27.956 27.956 0 0 0 -6.917 5.577l-2.372 2.635.453.639 5.675-3.783a4.978 4.978 0 0 1 2.761-.836 4.917 4.917 0 0 1 .976.1l1.622.324a29.818 29.818 0 0 0 5.847.576 4.945 4.945 0 0 0 3.5-1.448 5.37 5.37 0 0 0 .544-.663c0-.028.008-.055.008-.084a4.357 4.357 0 0 0 -1.28-3.081z" fill="#6aa962"/></g></svg>