<svg id="Capa_1" enable-background="new 0 0 512 512" height="512" viewBox="0 0 512 512" width="512" xmlns="http://www.w3.org/2000/svg"><g><g><g><path d="m381.237 165.03 9.917 115.97-9.917 84.71-59.86-20.04 16.12-116.88 7.01-50.81c1.02-7.43 7.36-12.95 14.85-12.95z" fill="#98d3f3"/></g><path d="m424.587 228.8-7.11-50.85c-1.04-7.41-7.37-12.92-14.86-12.92h-21.38v200.68l59.7-20.04z" fill="#83b3f1"/><path d="m381.237 345.67 13.25 75.33-13.25 91c-20.88 0-40.72-9.02-54.43-24.76-13.7-15.71-19.92-36.57-17.07-57.21l11.64-84.36z" fill="#ffdd54"/><path d="m435.717 487.19c-13.72 15.77-33.57 24.81-54.48 24.81v-166.33h59.7l11.78 84.23c2.89 20.66-3.3 41.54-17 57.29z" fill="#f7be48"/><path d="m381.24 0 18.37 111.191-18.37 122.599h-.18c-54.69 0-99.19-46.64-99.19-103.97 0-27.49 10.18-58.98 27.23-84.23 19.85-29.4 45.41-45.59 71.96-45.59z" fill="#adf2f5"/><path d="m480.25 129.82c0 57.27-44.4 103.87-99.01 103.97v-233.79c26.5.07 51.98 16.26 71.78 45.59 17.05 25.25 27.23 56.74 27.23 84.23z" fill="#98d3f3"/></g><g><g><path d="m129.75 165.03 9.917 115.97-9.917 84.71-59.86-20.04 16.12-116.88 7.01-50.81c1.02-7.43 7.36-12.95 14.85-12.95z" fill="#98d3f3"/></g><path d="m173.1 228.8-7.11-50.85c-1.04-7.41-7.37-12.92-14.86-12.92h-21.38v200.68l59.7-20.04z" fill="#83b3f1"/><path d="m129.75.08 9.917 144.92-9.917 83.8h-43c-.25 0-.49 0-.74-.01-29.99-.39-54.26-24.9-54.26-54.95v-158.76c0-8.28 6.72-15 15-15s15 6.72 15 15v111.29h53v-111.29c0-8.28 6.72-15 15-15z" fill="#adf2f5"/><path d="m227.75 15.08v158.76c0 30.18-24.48 54.77-54.65 54.96h-43.35v-228.72c8.28 0 15 6.72 15 15v111.29h53v-111.29c0-8.28 6.72-15 15-15s15 6.72 15 15z" fill="#98d3f3"/><path d="m129.75 345.67 13.25 75.33-13.25 91c-20.88 0-40.72-9.02-54.43-24.76-13.7-15.71-19.92-36.57-17.07-57.21l11.64-84.36z" fill="#ffdd54"/><path d="m184.23 487.19c-13.72 15.77-33.57 24.81-54.48 24.81v-166.33h59.7l11.78 84.23c2.89 20.66-3.3 41.54-17 57.29z" fill="#f7be48"/></g></g></svg>