<svg id="Capa_1" enable-background="new 0 0 504.5 504.5" height="512" viewBox="0 0 504.5 504.5" width="512" xmlns="http://www.w3.org/2000/svg"><g><g><path d="m136.977 452.112c-60.411 0-82.195-196.069-82.195-196.069 0-22.172-21.469-42.136-18.302-63.997 8.075-55.729 25.001-111.147 52.53-160.511 10.298-18.465 26.39-30.043 47.533-30.043.352 0 1.138-1.489 1.489-1.483 20.735.374 39.79 11.769 49.916 29.926 3.646 6.537 7.128 13.157 10.445 19.853 1.313 2.651-.984 4.826.278 7.501 1.098 2.328 5.756 5.154 6.814 7.498 5.148 11.408 9.832 23.012 14.034 34.783.977 2.736-2.496 5.636-1.571 8.389.756 2.249 5.918 4.348 6.639 6.608 3.658 11.465 6.868 23.069 9.625 34.782 0 0 1.234 21.956 2.885 31.75 4.265 25.299 9.441 48.42 9.441 74.18v87.273c-.002 60.412-49.149 109.56-109.561 109.56z" fill="#fef48b"/></g><path d="m246.08 234.9c-1.277-28.858-5.27-57.517-11.869-85.55-16.733 31.049-49.044 65.706-80.531 95.97-3.01 2.9-8.02 1.9-9.66-1.94-7.44-17.44-16.71-33.32-27.8-47.58-16.526-21.257-34.668-35.981-51.92-46.45 9.746-43.347 25.218-85.477 46.71-124.48 6.11-11.1 15.48-19.7 26.5-24.86-.18-.01-.35-.01-.53-.01-21.15 0-40.68 11.47-50.97 29.94-3.645 6.535-7.125 13.155-10.441 19.849-1.386 2.798 1.875 5.559.548 8.383-1.026 2.182-6.655 4.42-7.646 6.617-5.146 11.407-9.827 23.011-14.027 34.781-.97 2.717 4.975 5.527 4.056 8.261-.762 2.269-8.397 4.459-9.124 6.739-2.465 7.73-4.722 15.524-6.78 23.371-.002-.001-.004-.002-.006-.003-.956 3.654-1.91 7.47-2.835 11.412-.449 1.915 4.372 4.765 3.936 6.735-.665 3.003-6.574 5.159-7.2 8.264-1.623 8.056-3.092 16.406-4.301 24.788-3.16 21.86 22.59 44.73 22.59 66.9 0 0 21.79 196.07 82.2 196.07 27.38 0 52.43-10.09 71.66-26.75 8.32-7.21 15.55-15.65 21.38-25.04 10.47-16.78 16.52-36.58 16.52-57.77v-87.27c0-6.797-.15-13.597-.46-20.377z" fill="#ffeb57"/><path d="m244.69 214.14c-.45-5.01-.98-10.01-1.59-15h-64.97c-.49-11.67-1.15-23.27-1.95-34.79h58.426c-1.01-5.02-.396-15-.396-15h-59.16c-.95-11.71-2.05-23.32-3.31-34.78h52.84c-1.6-5.03-3.29-10.03-5.06-15h-49.53c-1.45-11.78-3.08-23.37-4.86-34.78l40.354-.002c-2.27-5.04-4.634-10.038-7.094-14.998h-35.72c-1.01-5.93-2.05-11.81-3.16-17.6-3.95-20.76-11.95-32.19-22.53-32.19s-18.59 11.43-22.54 32.19c-1.1 5.79-2.14 11.67-3.16 17.6h-25.7c-2.47 4.96-4.83 9.96-7.1 15h30.35c-1.78 11.41-3.41 23-4.87 34.78h-39.51c-1.78 4.97-3.47 9.97-5.07 15h42.84c-1.26 11.46-2.37 23.07-3.32 34.78h-49.15c-1.18 4.98-2.27 9.98-3.27 15h51.29c-.8 11.52-1.45 23.12-1.95 34.79h-63.26c.97 4.97 2.99 9.97 5.43 15h57.29c-.43 13.66-.65 27.39-.65 41.14v158.69c5.84 11.63 12.4 21.43 19.74 28.18h57.46c4.14 0 7.5-3.35 7.5-7.5v-179.37c0-13.75-.23-27.48-.65-41.14zm-115.51-179.15c2.53-13.28 6.29-18.48 7.8-19.76 1.5 1.28 5.27 6.48 7.8 19.76.93 4.88 1.81 9.82 2.68 14.8h-20.97c.87-4.98 1.76-9.92 2.69-14.8zm-5.17 29.8h25.93c1.81 11.4 3.46 22.99 4.94 34.78h-35.8c1.47-11.79 3.12-23.38 4.93-34.78zm-6.71 49.78h39.35c1.28 11.46 2.39 23.07 3.35 34.78h-46.05c.96-11.71 2.07-23.32 3.35-34.78zm-4.49 49.78h48.34c.8 11.52 1.47 23.12 1.97 34.79h-52.29c.5-11.67 1.17-23.27 1.98-34.79zm51.52 262.8h-54.7v-171.87c0-13.76.22-27.48.65-41.14h53.39c.43 13.66.66 27.38.66 41.14z" fill="#ffeb57"/><g fill="#fcd949"><path d="m179.33 255.28v188.31c-4.84 2.04-9.85 3.74-15 5.07v-193.38c0-6.74-.06-13.46-.16-20.18 4.94-4.89 9.86-9.87 14.68-14.91.31 11.66.48 23.37.48 35.09z"/><path d="m118.76 199.14c3.6 4.82 6.98 9.82 10.17 15h-18.65c-.43 13.66-.65 27.38-.65 41.14v181.97c-5.46-6.27-10.45-14.22-15-23.28v-158.69c0-13.75.22-27.48.65-41.14h-57.29c-2.44-5.03-4.46-10.03-5.43-15h63.26c.35-8.23.78-16.43 1.29-24.59 4.79 4.6 9.53 9.63 14.17 15.14-.17 3.14-.31 6.29-.45 9.45z"/><path d="m101.51 426.22c.74 1.16 1.49 2.3 2.24 3.4-.76-1.1-1.51-2.24-2.24-3.4z"/><path d="m85.52 164.35h-49.04c1.078-5.163 1.106-5.618 3.275-14.998l24.545-.002c6.94 4.23 14.09 9.19 21.22 15z"/><path d="m77.98 99.57c-1.71 4.97-3.33 9.97-4.86 15l-23.745.002c1.61-5.03 3.298-10.03 5.068-15z"/><path d="m98.24 49.79c-2.36 4.96-4.63 9.96-6.8 15h-22.969c2.27-5.04 4.638-10.041 7.098-15.001z"/><path d="m237.48 164.35h-12.33c3.37-5.07 6.41-10.08 9.06-15 1.17 4.98 2.26 9.98 3.27 15z"/><path d="m244.68 214.14h-60.08c4.65-4.97 9.19-9.98 13.56-15h44.93c.62 4.99 1.15 9.99 1.59 15z"/></g><path d="m145.539 366.823c0-141.951-72.045-193.302-115.305-211.341-2.714-1.132.135 1.368-2.328.484-7.627-2.737-14.628 5.312-10.895 12.504 10.166 19.59 21.957 52.802 21.957 117.447 0 11.66-1.012 29.874-.511 49.787 1.537 61.101 17.532 111.953 78.488 116.447l62.032 1.609s-33.438-28.533-33.438-86.937z" fill="#bbec6c"/><path d="m178.98 453.76h-67.77c-60.95-4.49-75.5-57.03-77.04-118.13-.5-19.91-.09-37.66-.09-49.32 0-64.65-12.35-101.75-22.52-121.34-3.73-7.19 3.27-15.24 10.9-12.5 2.46.88 5.06 1.88 7.77 3.02 10.39 18.86 23.85 56.33 23.85 123.82 0 11.66-.41 29.41.09 49.32 1.54 61.1 16.09 113.64 77.04 118.13h41.16c3.89 4.68 6.61 7 6.61 7z" fill="#a2e62e"/><g><path d="m189.824 479.001c-.383 0-.771-.029-1.161-.09-2.706-.421-66.557-10.847-92.542-58.06-13.95-25.346-15.367-43.125-15.367-108.163 0-42.14-15.353-70.789-15.507-71.074-1.98-3.632-.649-8.188 2.979-10.174 3.628-1.985 8.176-.667 10.17 2.958.708 1.288 17.357 32.089 17.357 78.29 0 66.393 1.768 79.599 13.508 100.93 22.397 40.694 81.123 50.378 81.713 50.471 4.089.644 6.886 4.479 6.246 8.569-.578 3.7-3.766 6.343-7.396 6.343z" fill="#a2e62e"/></g><path d="m156.196 443.781c-42.839-42.839-42.839-112.544 0-155.383l65.426-57.789c55.813-55.813 122.245-96.871 198.175-118.431 15.692-4.456 31.643-5.392 45.307 2.761 4.093 2.442 11.734 8.201 11.734 8.201 14.989 14.989 20.704 36.969 14.914 57.362-2.052 7.227-4.279 14.397-6.678 21.503l-6.474 4.708.887 10.915c-4.444 11.757-9.362 23.321-14.736 34.663l-6.055 3.875-.967 10.317c-3.209 6.217-6.558 12.361-10.043 18.426 0 0-11.806 9.103-15.498 14.916-18.164 28.599-34.642 57.993-58.705 82.056l-61.901 61.901c-42.842 42.839-112.547 42.839-155.386-.001z" fill="#fef48b"/><path d="m165.587 452.151c-3.253-2.574-6.385-5.367-9.39-8.372-42.837-42.837-42.837-112.543 0-155.38l61.9-61.9c24.077-24.077 52.55-42.477 81.167-60.648 1.498-.951 1.178-4.796 2.687-5.73 10.278-6.363 20.801-12.325 31.544-17.87 2.186-1.128 8.338 1.826 10.542.732 2.524-1.253 1.102-6.548 3.649-7.755 11.341-5.375 22.906-10.294 34.662-14.738 2.575-.973 9.603 2.522 12.196 1.594 2.614-.935.793-6.294 3.426-7.182 7.107-2.399 14.277-4.627 21.504-6.68 19.028-5.395 39.442-.778 54.27 12.042-10.119-2.638-20.973-2.574-31.438.481-76.764 22.401-147.354 64.255-204.128 121.028l-62.968 62.968c-40.545 40.545-43.882 104.242-9.623 147.41z" fill="#ffeb57"/><path d="m373.477 381.879-61.045 61.045c-42.869 42.869-112.658 43.931-155.775 1.312-43.296-42.796-43.449-112.847-.46-155.837l61.9-61.9c24.106-24.106 52.888-41.034 81.544-59.22 1.462-.928.837-6.247 2.309-7.159 4.332-2.682 8.709-5.293 13.126-7.832 6.314 22.705 10.076 50.919 6.032 83.234-2.123 16.986-6.24 33.841-12.309 50.544-1.155 3.179 1.931 6.266 5.111 5.111 16.703-6.07 33.559-10.186 50.544-12.309 32.322-4.038 60.532-.281 83.23 6.041-2.537 4.415-5.146 8.788-7.827 13.118l-7.838 3.349-.457 9.569c-6.536 9.819-13.446 19.393-20.717 28.696l-9.036.37-.446 11.363c-8.823 10.564-18.127 20.746-27.886 30.505z" fill="#ffeb57"/><path d="m370.86 370.283-40.588-40.588c8.224-8.294 16.32-16.674 24.275-25.138l39.746 39.746c3.224-3.861 6.385-7.771 9.475-11.738l-39.004-39.004c7.934-8.641 15.712-17.338 23.32-26.092l39.401 39.401c2.843-4.257 5.607-8.563 8.294-12.919l-37.888-37.888c7.651-8.994 15.104-18.017 22.352-27.061l37.482 37.479c2.425-4.688 4.767-9.418 7.023-14.191l-35.135-35.132c7.34-9.39 14.418-18.788 21.249-28.15l28.623 28.619c1.959-5.169 3.819-10.376 5.587-15.622l-25.336-25.336c3.486-4.929 6.923-9.85 10.253-14.75 11.908-17.508 14.34-31.282 6.845-38.778-.973-.973-3.09-2.878-3.09-2.878-1.227-.665-2.704-.691-4.142-.997-7.824-1.666-18.676 1.967-31.546 10.72-4.9 3.331-9.822 6.767-14.743 10.26l-18.272-18.272c-5.247 1.768-10.451 3.635-15.62 5.593l21.546 21.546c-9.362 6.831-18.753 13.916-28.15 21.248l-28.058-28.058c-4.773 2.256-9.504 4.596-14.192 7.022l30.406 30.406c-9.044 7.248-18.059 14.708-27.061 22.352l-34.889-34.889c-4.356 2.687-8.662 5.452-12.919 8.294l36.402 36.402c-8.747 7.616-17.451 15.387-26.092 23.32l-39.004-39.004c-3.967 3.09-7.877 6.251-11.738 9.475l39.754 39.754c-8.464 7.955-16.843 16.051-25.145 24.268l-40.588-40.588c-1.527 1.471-3.026 2.956-4.526 4.455l-6.116 6.116 40.595 40.595-121.106 121.107c-2.934 2.934-2.928 7.679 0 10.607l49.441 49.441c2.927 2.927 7.672 2.934 10.607 0l121.106-121.106 40.595 40.595 6.116-6.116c1.5-1.5 2.984-2.999 4.455-4.526zm75.625-227.894c11.257-7.651 17.628-8.648 19.587-8.485.163 1.959-.834 8.33-8.485 19.587-2.807 4.122-5.692 8.266-8.613 12.417l-14.906-14.906c4.151-2.921 8.295-5.806 12.417-8.613zm-24.784 17.459 18.427 18.427c-6.817 9.376-13.881 18.788-21.199 28.199l-25.428-25.428c9.412-7.318 18.824-14.382 28.2-21.198zm-40.064 30.547 27.945 27.945c-7.234 9.044-14.687 18.081-22.33 27.082l-32.697-32.697c9.008-7.637 18.038-15.097 27.082-22.33zm-38.495 32.131 34.316 34.316c-7.601 8.747-15.365 17.458-23.306 26.106l-37.123-37.123c8.654-7.934 17.359-15.705 26.113-23.299zm-37.109 33.516 37.901 37.901c-7.941 8.464-16.044 16.85-24.268 25.145l-38.778-38.778c8.301-8.216 16.688-16.32 25.145-24.268zm-112.748 189.484-38.834-38.834 115.803-115.803 38.834 38.834z" fill="#ffeb57"/><path d="m322.678 202.062-33.644-33.644c3.559-2.333 6.36-4.264 12.933-8.28l18.682 18.682c1.06 7.367 1.774 15.124 2.029 23.242z" fill="#fcd949"/><path d="m363.888 151.433c-4.702 2.326-9.362 4.738-13.98 7.234l-16.412-16.412c4.688-2.425 9.419-4.766 14.192-7.022z" fill="#fcd949"/><path d="m413.308 130.241c-5.148 1.867-10.26 3.826-15.337 5.876l-15.62-15.62c5.169-1.959 10.373-3.826 15.62-5.593z" fill="#fcd949"/><path d="m431.562 310.945-33.641-33.639c8.118.255 15.875.969 23.243 2.029l18.693 18.691c-.672 1.096-1.355 2.168-2.034 3.257-2.043 3.246-4.126 6.465-6.261 9.662z" fill="#fcd949"/><path d="m376.178 379.15c.587-.587 1.174-1.188 1.754-1.796l-47.659-47.659c8.224-8.294 16.32-16.674 24.275-25.138l46.81 46.81c2.691-3.215 5.734-6.923 9.482-11.731l-46.075-46.075c4.886-5.325 9.716-10.663 14.474-16.03-4.829.262-9.758.707-14.786 1.336-2.524.318-5.056.672-7.573 1.082-.905 1.004-1.817 2.001-2.729 2.998l-2.157-2.157c-5.791 1.054-11.568 2.348-17.331 3.882l9.27 9.27c-7.941 8.464-16.044 16.85-24.268 25.145l-38.778-38.778c8.301-8.217 16.688-16.32 25.145-24.268l9.27 9.27c1.534-5.763 2.828-11.54 3.882-17.331l-2.157-2.157c.997-.912 1.994-1.824 2.998-2.729.41-2.517.764-5.049 1.082-7.573.629-5.028 1.068-9.949 1.336-14.771-5.367 4.759-10.713 9.581-16.03 14.46l-46.075-46.075c-3.214 2.512-7.16 5.645-11.731 9.482l46.818 46.818c-8.464 7.955-16.843 16.051-25.145 24.268l-47.659-47.659c-.432.364-9.318 9.237-10.642 10.571l47.666 47.666-121.105 121.107c-2.934 2.934-2.928 7.679 0 10.607l49.441 49.441c2.927 2.927 7.672 2.934 10.607 0l121.106-121.106 47.666 47.666 6.116-6.116c.906-.906 1.804-1.818 2.702-2.73zm-182.893 66.376-38.834-38.834 115.803-115.803 38.834 38.834z" fill="#fcd949"/><path d="m119.832 502.745-22.599-22.599c-2.34-2.34-2.34-6.134 0-8.475 10.762-10.762 17.664-24.779 19.632-39.87l.142-1.091 42.28 7.393 9.981 44.868-1.091.142c-15.091 1.968-29.108 8.871-39.87 19.632-2.341 2.34-6.135 2.34-8.475 0z" fill="#a2e62e"/><path d="m206.076 388.383c18.112-18.112 35.918-35.558 47.722-52.735 4.389-6.388 13.436-17.502 13.436-17.502 46.142-79.369 32.277-145.285 16.988-181.616 0 0-4.838-3.243-5.871-5.431-3.776-8.002-7.902-2.977-10.573 5.458-7.276 22.975-31.125 55.389-81.038 105.302-9.003 9.003-19.085 25.582-34.073 41.343-45.99 48.364-76.453 95.22-32.858 145.754l49.517 54.073c0-.001-8.345-49.552 36.75-94.646z" fill="#bbec6c"/><g><path d="m153.162 384.773c6.805-23.464 14.919-34.085 62.012-81.178 32.765-32.765 42.802-66.415 43.213-67.831 1.155-3.979-1.134-8.14-5.111-9.294-3.978-1.155-8.139 1.134-9.294 5.111-.09.31-9.345 31.337-39.415 61.407-46.125 46.125-57.73 59.739-65.811 87.607-5.987 20.642-3.598 41.402 1.551 59.066 5.166-.209 10.342-.41 15.451-.961-5.173-16.14-7.989-35.33-2.596-53.927z" fill="#a2e62e"/></g><path d="m169.321 482.928c-.191-6.019.133-10.561 1.257-17.835 2.925-18.016 12.081-47.04 40.052-75.011 24.848-24.848 43.247-48.949 56.604-71.937-24.289 14.701-48.154 33.732-71.482 57.059-26.496 26.496-53.445 33.313-67.512 35.002-1.772.213-3.461-.781-4.162-2.422-18.226-42.687 8.647-85.729 47.278-126.357 14.991-15.754 29.013-29.154 38.014-38.155 46.909-46.909 66.606-83.451 74.851-106.743-1.039-2.468-2.082-4.789-3.115-6.981-3.776-8.005-15.394-7.191-18.067 1.237-7.276 22.974-26.382 61.158-76.297 111.072-9.001 9.001-23.023 22.401-38.014 38.155-45.99 48.366-75.321 100.155-31.728 150.692l52.326 52.326c.002.001-.002-.051-.005-.102z" fill="#a2e62e"/><path d="m155.758 438.702c-5.112.544-10.281.75-15.45.955-2.758-9.475-4.731-19.834-5.035-30.589 4.391-.87 9.454-2.199 14.991-4.214-.169 11.893 2.185 23.496 5.494 33.848z" fill="#97d729"/><path d="m209.892 389.344c116.477-116.477 216.774-91.125 260.54-70.474 8.002 3.776 7.193 15.396-1.242 18.067-22.975 7.276-61.158 26.387-111.071 76.3-9.003 9.003-22.397 23.023-38.159 38.011-48.364 45.99-100.161 75.316-150.695 31.721l-32.104-32.104-9.289-15.289 2.104-5.484c17.299-2.018 49.245-10.076 79.916-40.748z" fill="#bbec6c"/><g><path d="m368.407 355.992c-.523.156-31.629 9.624-61.419 39.414-46.125 46.125-59.736 57.728-87.603 65.811-30.66 8.895-61.582-.686-82.222-10.352l-20.216-20.216s4.9.389 13.032-.559c15.952 9.32 51.654 26.467 85.228 16.723 23.462-6.802 34.082-14.92 81.176-62.013 32.767-32.767 66.419-42.801 67.833-43.211 3.981-1.153 8.139 1.138 9.298 5.112 1.143 3.974-1.133 8.131-5.107 9.291z" fill="#a2e62e"/></g></g></svg>