<svg height="512" viewBox="0 0 32 59" width="512" xmlns="http://www.w3.org/2000/svg"><g id="Page-1" fill="none" fill-rule="evenodd"><g id="029---Leek" fill-rule="nonzero" transform="translate(0 -1)"><path id="Shape" d="m10.82 12.66c-2.31472303-1.9327545-4.97508823-3.40885001-7.84-4.35-.25726332-.08278203-.53716486-.0570187-.77499446.07133379-.23782961.12835248-.41299705.34818193-.48500554.60866621l-1.49 5.19c-.13178042.464389.08699244.9566279.52 1.17 2.63 1.31 11.25 6.33 11.25 15.65l3.861 1 4.139-1c0-9.32 8.62-14.34 11.25-15.65.4330076-.2133721.6517804-.705611.52-1.17l-1.49-5.19c-.0737865-.26153823-.2508344-.48178469-.4904024-.61005731-.239568-.12827263-.5210229-.15352375-.7795976-.06994269-2.8572603.94005476-5.510669 2.4126626-7.82 4.34z" fill="#24ae5f"/><g fill="#cbb292"><path id="Shape" d="m16 60c-.5522847 0-1-.4477153-1-1v-5.333c0-.5522847.4477153-1 1-1s1 .4477153 1 1v5.333c0 .5522847-.4477153 1-1 1z"/><path id="Shape" d="m12 60c-.3465502-.0003581-.6682099-.1801149-.8501201-.4750824s-.1981346-.6630901-.0428799-.9729176l3.126-6.233c.2485281-.4937426.8502574-.6925281 1.344-.444s.6925281.8502574.444 1.344l-3.126 6.232c-.1705392.337498-.516863.5499357-.895.549z"/><path id="Shape" d="m20 60c-.3788033.000366-.7252962-.2133369-.895-.552l-3.037-6.054c-.2485281-.4934664-.0499664-1.0949719.4435-1.3435s1.0949719-.0499664 1.3435.4435l3.038 6.055c.1566849.3100775.1412057.6792571-.0408857.9751303-.1820915.2958731-.5046978.4760351-.8521143.4758697z"/></g><path id="Shape" d="m23 52c0 4-4 4-7 4s-7 0-7-4 3-11 3-16v-5h8v5c0 5 3 12 3 16z" fill="#f9eab0"/><path id="Shape" d="m31.25 15.35c-2.63 1.31-11.25 6.33-11.25 15.65h-8c.4200372-4.3207344 1.7856578-8.4961193 4-12.23 1.3714491-2.3129991 3.1225989-4.3785445 5.18-6.11l.01-.01c2.309331-1.9273374 4.9627397-3.39994524 7.82-4.34.2585747-.08358106.5400296-.05832994.7795976.06994269.239568.12827262.4166159.34851908.4904024.61005731l1.49 5.19c.1317804.464389-.0869924.9566279-.52 1.17z" fill="#4fba6f"/><path id="Shape" d="m25.23 5.46c-1.7273497 2.16193423-3.0918075 4.5902639-4.04 7.19l-.01.01c-2.0574011 1.7314555-3.8085509 3.7970009-5.18 6.11-.6833476-1.1385326-1.4593038-2.2188509-2.32-3.23l.01-.01c.5431517-2.4669563 1.3165401-4.8775176 2.31-7.2.9664919-2.3805341 2.1131511-4.68388165 3.43-6.89.1483028-.22039968.3782067-.37273321.6389823-.42338746s.5309895.0045341.7510177.15338746l4.2 2.8c.241246.15775945.4026834.41194647.4429116.69737488.0402281.28542842-.0446661.57433331-.2329116.79262512z" fill="#71c285"/><path id="Shape" d="m16 8.33c-.9934599 2.3224824-1.7668483 4.7330437-2.31 7.2l-.01.01c-.8659722-1.0429759-1.823084-2.0067808-2.86-2.88-.9553071-2.6015874-2.32276434-5.03262245-4.05-7.2-.18824551-.21829181-.27313972-.5071967-.23291156-.79262512.04022817-.28542841.20166554-.53961543.44291156-.69737488l4.2-2.8c.2200282-.14885336.4902421-.20404171.7510177-.15338746s.4906795.20298778.6389823.42338746c1.3168489 2.20611835 2.4635081 4.5094659 3.43 6.89z" fill="#7ed09e"/></g></g></svg>