<svg id="svg10" fill="none" height="512" viewBox="0 0 64 64" width="512" xmlns="http://www.w3.org/2000/svg" xmlns:svg="http://www.w3.org/2000/svg"><g id="g1229" stroke-linecap="round" stroke-linejoin="round" stroke-width=".888" transform="matrix(.796 -.796 .796 .796 -18.967 32)"><path id="path728899" d="m4.5000995 23.499999h54.9998385c.554041 0 1.000063.446041 1.000063 1.00009v14.999822c0 .554049-.446022 1.00009-1.000063 1.00009h-54.9998385c-.554041 0-1.000101-.446041-1.000101-1.00009v-14.999822c0-.554049.44606-1.00009 1.000101-1.00009z" fill="#fda35d" stroke-width="1.776"/><path id="path307377" d="m10.49219 23.499975a1.0001007 1.0001007 0 0 0 .1289.49805l2.90235 5.01953a1.0001007 1.0001007 0 0 0 1.72656 0l2.90234-5.01953a1.0001007 1.0001007 0 0 0 .13282-.49805zm12.8125 0v4.38086a1.0000007 1.0000007 0 0 0 .99609.99805 1.0000007 1.0000007 0 0 0 .99609-.99805v-4.38086zm9.99414 0v4.38086a1.0000007 1.0000007 0 0 0 1.0039.99805 1.0000007 1.0000007 0 0 0 .99805-.99805v-4.38086zm10.0039 0v4.38086a1.0000007 1.0000007 0 0 0 .9961.99805 1.0000007 1.0000007 0 0 0 1.0039-.99805v-4.38086zm10.00196 0v4.38086a1.0000007 1.0000007 0 0 0 .99609.99805 1.0000007 1.0000007 0 0 0 .99609-.99805v-4.38086zm-3.60352 10.98047a1.0001007 1.0001007 0 0 0 -.86328.50196l-2.90039 5.01953a1.0001007 1.0001007 0 0 0 -.13281.49609v.002h7.79492v-.002a1.0001007 1.0001007 0 0 0 -.13281-.49609l-2.90039-5.01953a1.0001007 1.0001007 0 0 0 -.86524-.50196zm-40.00195.64258a1.0000007 1.0000007 0 0 0 -.99609.9961v4.38085h2v-4.38085a1.0000007 1.0000007 0 0 0 -1.00391-.9961zm10.00195 0a1.0000007 1.0000007 0 0 0 -1.0039.9961v4.38085h2.00195v-4.38085a1.0000007 1.0000007 0 0 0 -.99805-.9961zm10.00391 0a1.0000007 1.0000007 0 0 0 -1.00391.9961v4.38085h2v-4.38085a1.0000007 1.0000007 0 0 0 -.99609-.9961zm9.99414 0a1.0000007 1.0000007 0 0 0 -.99609.9961v4.38085h2v-4.38085a1.0000007 1.0000007 0 0 0 -1.00391-.9961z" fill="#d06a3b" stroke-width="3.356"/></g></svg>