<svg id="Capa_1" enable-background="new 0 0 512 512" height="512" viewBox="0 0 512 512" width="512" xmlns="http://www.w3.org/2000/svg"><g><g><g><g><path d="m256 0c-82.705 0-150 68.295-150 151v60c0 82.705 67.295 150 150 150s150-67.295 150-150v-60c0-82.705-67.295-151-150-151z" fill="#ffd9b3"/></g></g></g><g><g><g><path d="m406 211v-60c0-82.705-67.295-151-150-151v361c82.705 0 150-67.295 150-150z" fill="#fb9"/></g></g></g><path d="m286 226h-30-30c-24.853 0-45 20.147-45 45s20.147 45 45 45h30 30c24.853 0 45-20.147 45-45s-20.147-45-45-45z" fill="#ff7f40"/><path d="m331 271c0-24.853-20.147-45-45-45h-30v90h30c24.853 0 45-20.147 45-45z" fill="#f25a3c"/><g><g><g><path d="m172.709 209.418-13.418-26.836 41.382-20.698-15.278-15.279 21.21-21.21 44.722 44.721z" fill="#353d4d"/></g></g></g><g><g><g><path d="m339.291 209.418-78.618-39.302 44.722-44.721 21.21 21.21-15.278 15.279 41.382 20.698z" fill="#1e2533"/></g></g></g><g><path d="m436.002 339.787h29.997v42.426h-29.997z" fill="#f25a3c" transform="matrix(.707 -.707 .707 .707 -123.171 424.64)"/></g><g><path d="m39.787 346.002h42.426v29.997h-42.426z" fill="#ff7f40" transform="matrix(.707 -.707 .707 .707 -237.399 148.868)"/></g><path d="m436 451h-30c0-16.538-13.462-30-30-30h-60v-90c0-33.091-26.909-60-60-60s-60 26.909-60 60v60l30 15-30 15c-29.447 0-61.804 0-60 0-16.538 0-30 13.462-30 30h-30c-16.538 0-30 13.462-30 30s13.462 31 30 31h180 180c16.538 0 30-14.462 30-31s-13.462-30-30-30z" fill="#a0e65c"/><g fill="#79cc52"><path d="m466 481c0-16.538-13.462-30-30-30h-30c0-16.538-13.462-30-30-30h-60v-90c0-33.091-26.909-60-60-60v241h180c16.538 0 30-14.462 30-31z"/><path d="m196 391h45v30h-45z"/></g></g></svg>