<svg id="Capa_1" enable-background="new 0 0 493.708 493.708" height="512" viewBox="0 0 493.708 493.708" width="512" xmlns="http://www.w3.org/2000/svg"><g><g><path d="m431.044 201.461c-4.143 0-7.5-3.358-7.5-7.5v-18.769c0-4.142 3.357-7.5 7.5-7.5s7.5 3.358 7.5 7.5v18.769c0 4.142-3.357 7.5-7.5 7.5z" fill="#faa68e"/></g><path d="m425.052 334.455-.377 43.966c-.222 25.93-21.625 46.65-47.5 44.962-23.381-1.525-41.839-21.134-41.636-44.852l2.201-256.803c.28-32.713-25.462-60.258-58.168-61.012-33.239-.766-60.667 25.904-60.951 59.039l-.187 21.841c0 .027.022.049.049.05l14.901.128c.027 0 .049-.022.05-.049l.18-20.968c.222-25.929 21.624-46.649 47.5-44.961 23.38 1.525 41.839 21.134 41.635 44.852l-2.201 256.803c-.28 32.713 25.462 60.258 58.167 61.012 33.24.766 60.668-25.903 60.952-59.039l.384-44.84c0-.027-.022-.049-.049-.05l-14.901-.128c-.026 0-.048.021-.049.049z" fill="#b4aaaa"/><g><ellipse cx="431.045" cy="268.04" fill="#ffcdbe" rx="60.648" ry="76.079"/></g><g><path d="m431.045 191.961c-5.178 0-10.202.818-15 2.35 26.24 8.375 45.648 38.207 45.648 73.729s-19.409 65.354-45.648 73.729c4.798 1.531 9.822 2.35 15 2.35 33.495 0 60.648-34.062 60.648-76.079 0-42.018-27.153-76.079-60.648-76.079z" fill="#ebae9d"/></g><g><path d="m278.673 461.29-20.679-91.496c-1.832-8.104-1.807-16.518.073-24.611l6.982-30.068c4.02-17.312-2.424-35.378-16.493-46.237-3.191-2.463-5.492-5.898-6.557-9.786l-.549-2.005h-43.84-43.84l-.549 2.005c-1.064 3.888-3.366 7.323-6.557 9.786-14.069 10.859-20.513 28.926-16.493 46.237l6.982 30.068c1.88 8.093 1.904 16.507.073 24.611l-20.679 91.496c-1.908 8.44.416 17.281 6.227 23.692 5.035 5.556 12.184 8.725 19.682 8.725h55.154 55.154c7.498 0 14.647-3.169 19.682-8.725 5.811-6.411 8.135-15.252 6.227-23.692z" fill="#ddebfd"/></g><g><path d="m278.673 461.29-20.679-91.496c-1.832-8.104-1.807-16.518.073-24.611l6.982-30.068c4.02-17.312-2.424-35.378-16.493-46.237-3.191-2.463-5.492-5.898-6.557-9.786l-.549-2.005h-30l.549 2.005c1.064 3.888 3.366 7.323 6.557 9.786 14.069 10.859 20.513 28.926 16.493 46.237l-6.982 30.068c-1.879 8.093-1.904 16.507-.073 24.611l20.679 91.496c1.908 8.44-.416 17.281-6.227 23.692-5.035 5.556-12.184 8.725-19.682 8.725h30c7.498 0 14.647-3.169 19.682-8.725 5.811-6.411 8.135-15.252 6.227-23.692z" fill="#bed9fd"/></g><g><path d="m230.268 209.259c-.725-7.519-7.042-13.257-14.596-13.257h-18.062-18.062c-7.553 0-13.871 5.738-14.596 13.257-.406 4.21-2.61 8.04-6.046 10.506l-10.403 7.466c-2.856 2.05-4.55 5.35-4.55 8.866v10.076c0 6.027 4.886 10.913 10.913 10.913h42.745 42.745c6.027 0 10.913-4.886 10.913-10.913v-10.076c0-3.516-1.694-6.816-4.55-8.866l-10.403-7.466c-3.438-2.465-5.642-6.295-6.048-10.506z" fill="#736e6e"/></g><g><path d="m136.389 72.478c-.068-.084-.135-.169-.203-.253-17.511-21.887-32.119-45.982-49.75-67.772-1.397-1.726-2.915-3.512-5.005-4.264-14.695-5.289-50.358 102.249-54.567 115.898-13.158 42.671-21.531 86.823-24.789 131.36-.186 2.541-.062 5.655 2.178 6.871 1.403.762 3.123.438 4.678.072 27.608-6.492 53.088-19.712 79.602-29.779 26.515-10.066 55.575-17.037 83.137-10.351 11.758 2.852 23.045 8.147 35.127 8.79 20.071 1.067 40.037-12.494 46.444-31.545 6.406-19.051-1.309-41.921-17.947-53.198-10.266-6.958-22.791-9.505-34.354-13.988-26.033-10.095-47.08-30.052-64.551-51.841z" fill="#ebe1dc"/></g><g><path d="m235.293 138.307c-10.266-6.958-22.791-9.505-34.354-13.988-26.033-10.095-47.079-30.052-64.55-51.84-.068-.084-.135-.169-.203-.253-17.511-21.887-32.119-45.982-49.75-67.772-1.397-1.726-2.915-3.512-5.004-4.264-4.852-1.746-11.99 8.811-19.527 24.223 15.264 19.885 28.614 41.231 44.281 60.814.067.084.135.169.203.253 17.471 21.788 38.518 41.745 64.55 51.84 11.563 4.484 24.088 7.03 34.354 13.988 16.638 11.277 24.353 34.147 17.947 53.198-2.388 7.103-6.663 13.441-12.124 18.543 18.55-.917 36.178-13.861 42.124-31.543 6.407-19.052-1.309-41.922-17.947-53.199z" fill="#dcd2cd"/></g><g><g><path d="m207.094 331.352h-23.842c-4.142 0-7.5-3.358-7.5-7.5s3.358-7.5 7.5-7.5h23.842c4.142 0 7.5 3.358 7.5 7.5s-3.358 7.5-7.5 7.5z" fill="#80b6fc"/></g><g><path d="m207.094 366.809h-23.842c-4.142 0-7.5-3.358-7.5-7.5s3.358-7.5 7.5-7.5h23.842c4.142 0 7.5 3.358 7.5 7.5s-3.358 7.5-7.5 7.5z" fill="#80b6fc"/></g><g><path d="m207.094 402.265h-23.842c-4.142 0-7.5-3.358-7.5-7.5s3.358-7.5 7.5-7.5h23.842c4.142 0 7.5 3.358 7.5 7.5s-3.358 7.5-7.5 7.5z" fill="#80b6fc"/></g><g><path d="m207.094 437.722h-23.842c-4.142 0-7.5-3.358-7.5-7.5s3.358-7.5 7.5-7.5h23.842c4.142 0 7.5 3.358 7.5 7.5s-3.358 7.5-7.5 7.5z" fill="#80b6fc"/></g></g></g></svg>