<svg id="icons" height="512" viewBox="0 0 340 340" width="512" xmlns="http://www.w3.org/2000/svg"><path d="m112.289 329.714a7.92 7.92 0 0 0 7.917-8.434c-.88-12.825-.265-38.07 14.352-60.067a58.661 58.661 0 0 1 47.97-26.068c22.933-.341 62.1-6.3 77.168-41.026a61.607 61.607 0 0 1 21.446-26.085c14.42-10 33.224-28.694 34.472-58.618a67.189 67.189 0 0 1 1.353-10.788c3.309-16 7.885-60.658-50.874-38.9l-160.682 195.225s-6.386 38.781-.917 68.327a7.91 7.91 0 0 0 7.795 6.434z" fill="#3e6a51"/><path d="m231.7 136.951a3.492 3.492 0 0 1 -2.521-5.907c22.956-23.95 41.736-39.291 59.1-48.283a3.492 3.492 0 0 1 3.211 6.2c-16.664 8.627-34.862 23.534-57.271 46.913a3.483 3.483 0 0 1 -2.519 1.077z" fill="#224730"/><path d="m199.943 203.146a62.319 62.319 0 0 1 -11.928-1.181 3.491 3.491 0 1 1 1.335-6.854c25.328 4.931 39.721-9.316 39.864-9.46a3.491 3.491 0 1 1 4.973 4.9c-.587.598-12.703 12.595-34.244 12.595z" fill="#224730"/><path d="m133.142 88.388s-10.155-73.95-54.949-77.9-60.515 51.883-56.178 77.9c1.8 10.814 7.162 20.785 12.812 28.746a57.921 57.921 0 0 1 10.113 41.223c-2.107 15.6-.547 36.7 16.03 54.983a59.944 59.944 0 0 1 14.68 28.484 87.114 87.114 0 0 1 -9.056 59.695 12.548 12.548 0 0 0 9.09 18.423c1.63.238 4.36.4 6.347.458l33.769-113.295z" fill="#3e6a51"/><path d="m89 83.1a18.455 18.455 0 0 1 .985-15.2 3.526 3.526 0 0 0 .2-.371c3.759-7.869 4.058-13.529 3.523-17.1a3.33 3.33 0 0 0 -5.069-2.329l-.307.193a3.374 3.374 0 0 0 -1.517 3.325c.3 2.255.132 6.431-2.857 12.75a22.866 22.866 0 0 0 -2.118 5.122 120.815 120.815 0 0 0 -11.526-16.655 3.491 3.491 0 0 0 -5.278 4.572c.256.3 19.2 22.56 27.694 57.59-4.908-3.358-11.034-4.854-17.336-5.779a19.553 19.553 0 0 1 -15.96-12.58 3.492 3.492 0 0 0 -6.68 2.035 26.5 26.5 0 0 0 21.627 17.455c12.783 1.875 20.15 5.481 21.717 18.63a138.186 138.186 0 0 1 .518 20.284 3.493 3.493 0 0 0 3.32 3.656h.171a3.492 3.492 0 0 0 3.485-3.323 153.326 153.326 0 0 0 -14.592-72.275z" fill="#224730"/><path d="m87.492 327.735a8.116 8.116 0 0 0 9.831-6.52c2.444-14.072 8.863-43.263 23.235-69.458a72.187 72.187 0 0 1 38.031-32.664c22.374-8.411 57.013-26.81 66.351-62.1a58.3 58.3 0 0 1 14.413-25.554c16.343-16.945 42.46-50.576 34.354-85.995a35.654 35.654 0 0 0 -40.427-27.09c-40.81 6.531-117.994 28.337-118 99.851a14.406 14.406 0 0 1 -5.585 11.269c-11.527 9.079-34.431 34.83-14.821 86.7a48.034 48.034 0 0 1 2.156 25.99c-3.193 16.751-8.922 45.889-15.628 75.884a8.123 8.123 0 0 0 6.09 9.687z" fill="#80b297"/><g fill="#3e6a51"><path d="m238.854 83.853a3.51 3.51 0 0 0 -4.545 1.893c-.2.481-5.229 11.829-27.63 16.458a90.776 90.776 0 0 0 -22.278 7.878c36-38.83 45.467-61.5 45.858-62.462a3.491 3.491 0 0 0 -6.466-2.636c-.06.145-4.007 9.5-16.176 26.251a71.706 71.706 0 0 0 -.234-7.9c-.529-6.575.4-9.813 1.008-11.159a3.492 3.492 0 0 0 -6.372-2.859c-1.559 3.475-2.1 8.381-1.6 14.579.9 11.108-.588 17.592-5.434 23.559-5.079 6.134-10.976 12.862-17.809 20.14-4.982 5.307-9.928 11.209-14.8 17.541-.033.045-.071.088-.1.135-5.824 7.578-11.535 15.789-17.064 24.419a47.452 47.452 0 0 0 -1.467-14.861c-4.059-14.97-2.186-21.2-2.106-21.453a3.491 3.491 0 0 0 -6.527-2.479c-.308.786-2.87 8.193 1.894 25.76 4.2 15.478-3.228 31.81-3.3 31.969-.021.045-.029.092-.048.137-8.042 14.018-15.516 28.63-22.153 43.035-.312.565-.5.938-.55 1.044a3.491 3.491 0 0 0 -.25.7c-8.569 18.77-26.595 57.508-31.659 73.621a3.492 3.492 0 1 0 6.662 2.093c5.1-16.239 23.223-55.164 31.91-74.08 2.053-3.673 12.642-20.63 34.654-23.9 27.489-4.08 31.151-22.363 31.293-23.14a3.491 3.491 0 0 0 -6.862-1.292c-.118.579-3.143 14.213-25.456 17.524a53.45 53.45 0 0 0 -23.142 9.216c11.791-22.988 25.387-45.454 39.646-64 1.86-1.687 18.109-15.954 40.342-20.548 26.4-5.456 32.452-20.074 32.7-20.694a3.475 3.475 0 0 0 -1.939-4.489z"/><path d="m147.461 99.653a3.553 3.553 0 1 0 -5.017-.283 3.553 3.553 0 0 0 5.017.283z"/></g></svg>