<svg id="Capa_1" enable-background="new 0 0 512 512" height="512" viewBox="0 0 512 512" width="512" xmlns="http://www.w3.org/2000/svg"><g><path d="m491.396 59.64h-29.323l-7.949 9.067-7.726-9.067h-83.887l-106.511 20.603-106.511-20.603h-83.887l-8.699 9.458-6.753-9.458h-39.848c-5.69 0-10.302 4.612-10.302 10.302v28.927l22.024 16.082-22.024 17.564v40.016l17.195 16.176-17.195 17.471v41.112c0 5.375 4.13 9.89 9.492 10.267 14.289 1.003 27.958 4.252 40.657 9.397 2.427.983 7.131-7.853 9.485-6.734 2.821 1.341 3.275 12.668 5.982 14.197 40.601 22.93 68.012 66.481 68.012 116.435 0 33.97 27.538 61.508 61.508 61.508h121.728c33.97 0 45.647-27.538 45.647-61.508 0-70.609 62.068-136.985 131.438-141.854 5.362-.376 9.492-4.891 9.492-10.267l-1.744-168.79c.001-5.689-4.611-10.301-10.301-10.301z" fill="#d8ecfe"/><path d="m501.698 59.64h-30.905c5.69 0 10.302 4.612 10.302 10.302v157.775c0 5.375-4.13 9.89-9.492 10.267-69.371 4.869-124.135 75.424-124.135 152.869 0 33.97-27.538 61.508-61.508 61.508h30.905c33.97 0 61.508-27.538 61.508-61.508 0-49.954 27.411-93.506 68.012-116.436 2.645-1.494 4.987-13.858 7.74-15.172 2.373-1.133 5.143 8.76 7.591 7.765 12.737-5.177 26.453-8.446 40.793-9.452 5.362-.376 9.492-4.891 9.492-10.267v-41.112l-11.293-17.324 11.292-16.324v-40.507l-13.732-16.878 13.732-16.277v-28.927c0-5.69-4.612-10.302-10.302-10.302z" fill="#b3dafe"/><path d="m446.398 274.417c4.963-2.802 10.121-5.297 15.452-7.457v-207.32h-15.452z" fill="#fe93bb"/><path d="m461.85 239.111c-5.256.848-10.412 2.073-15.452 3.647v31.658c5.042-2.847 10.312-5.374 15.452-7.457z" fill="#fe76a8"/><path d="m50.149 266.959c5.331 2.16 10.49 4.655 15.453 7.458v-214.777h-15.453z" fill="#fe93bb"/><path d="m352.209 163.912h-192.418c-5.69 0-10.302-4.612-10.302-10.302v-93.97h213.023v93.971c-.001 5.689-4.613 10.301-10.303 10.301z" fill="#b3dafe"/><g fill="#62dbfb"><path d="m0 98.869v33.646h79.786c2.845 0 5.151-2.306 5.151-5.151v-23.344c0-2.845-2.306-5.151-5.151-5.151z"/><path d="m0 172.531v33.646h79.786c2.845 0 5.151-2.306 5.151-5.151v-23.344c0-2.845-2.306-5.151-5.151-5.151z"/><path d="m427.063 104.02v23.344c0 2.845 2.306 5.151 5.151 5.151h79.786v-33.646h-79.786c-2.845 0-5.151 2.306-5.151 5.151z"/><path d="m427.063 177.682v23.344c0 2.845 2.306 5.151 5.151 5.151h79.786v-33.646h-79.786c-2.845 0-5.151 2.307-5.151 5.151z"/></g><g fill="#01c0fa"><path d="m481.095 172.531h30.905v33.646h-30.905z"/><path d="m481.095 98.869h30.905v33.646h-30.905z"/></g></g></svg>