<svg id="Layer_2" height="512" viewBox="0 0 128 128" width="512" xmlns="http://www.w3.org/2000/svg" data-name="Layer 2"><path d="m112 80.1366a8.7724 8.7724 0 0 0 .9253-15.04 11.5863 11.5863 0 0 0 -10.18-17.1147 11.6532 11.6532 0 0 0 -1.4534.1009 9.65 9.65 0 0 0 -9.185-6.6985c-.0267 0-.0524.0037-.0791.004a11.5627 11.5627 0 0 0 -19.0392-8.25 11.5694 11.5694 0 0 0 -19.4122 0 11.5671 11.5671 0 0 0 -19.0393 8.25c-.0266 0-.0524-.004-.0791-.004a9.65 9.65 0 0 0 -9.185 6.6985 11.5145 11.5145 0 0 0 -13.0365 11.4827 11.5311 11.5311 0 0 0 1.4035 5.5311 8.7713 8.7713 0 0 0 -.4552 14.1541c32.3232 22.5165 65.2411 23.548 98.8152.8859z" fill="#efe5b9"/><g fill="#ead19b"><path d="m10.906 76.554a8.8022 8.8022 0 0 0 2.2792 2.6967c.3134.2183.6272.4211.9407.6353q-1.637-1.6101-3.2199-3.332z"/><path d="m112.9253 65.0966a11.5426 11.5426 0 0 0 -11.6329-17.0138 9.65 9.65 0 0 0 -9.1851-6.6986c-.0267 0-.0524.0039-.079.004a11.5629 11.5629 0 0 0 -19.0393-8.25 11.5695 11.5695 0 0 0 -19.4122 0c-.04-.034-.0844-.0642-.1252-.0977.0782.1469.1617.2918.2335.4411a11.5694 11.5694 0 0 1 17.7177 7.932 11.567 11.567 0 0 1 14.0065 15.3094c.0244.0107.0494.0178.0738.0286a9.65 9.65 0 0 1 5.6462 9.867 11.5792 11.5792 0 0 1 3.6656 20.2819 8.8265 8.8265 0 0 1 .9917 2.3609 109.7927 109.7927 0 0 0 16.2134-9.1248 8.7724 8.7724 0 0 0 .9253-15.04z"/></g><path d="m58.1607 103.928h5.4107l2.25-9.3744-2.08-4.6919a22.665 22.665 0 0 1 -2.3645-2.0017c-.4018-.6334 1.3449-5.1783.5449-7.49s-3.4855-2.9686-4.4033-3.5345-1.1566-5.059-2.3126-6.8614-3.9659-2.0751-5.5371-2.6141-4.0216-6.3242-6.6756-5.975c-2.6194.689-3.1906 7.649-4.3507 9.0856s-3.4989 3.4747-3.4164 6.1827 3.0658 7.2961 2.89 8.5754c-.2011 1.4652-1.7289 5.2278 1.3018 8.1829 4.3944 6.4078 11.2514 8.9589 18.7428 10.5164z" fill="#5baf6b"/><path d="m87.4107 96.0536-19.2757 7.8744h-8.45l2.1108-.19c.2508-.3409.4956-.684.724-1.0189 1.4882-2.1817-2.1865-8.3571-.76-10.44s4.2817-3.7858 4.6836-4.4192-1.3449-5.1783-.545-7.49 3.4855-2.9686 4.4034-3.5345 1.1566-5.059 2.3126-6.8614 3.9654-2.0745 5.537-2.6138 4.0217-6.3242 6.6757-5.975c2.6193.689 3.1906 7.649 4.3507 9.0856s3.4989 3.4747 3.4164 6.1827-3.0658 7.2961-2.89 8.5754c.0875.6372.4258 1.7088.5311 2.96z" fill="#4a995c"/><path d="m92.5934 76.653c.0826-2.7081-2.2561-4.7461-3.4163-6.1827s-1.7314-8.3966-4.3507-9.0856a1.823 1.823 0 0 0 -.5242.0115 76.4341 76.4341 0 0 1 .9828 13.4431c-.285 8.0357-2.2136 13.9821-8.6421 19.2857-4.3295 3.5718-10.4044 5.1011-13.9127 5.72a4.0216 4.0216 0 0 1 -.2108 2.874c-.2284.335-.4733.678-.724 1.0189l-2.1108.19h8.45l19.2758-7.8745 2.8237-7.8655c-.1052-1.2508-.4436-2.3224-.5311-2.96-.1754-1.2789 2.8079-5.8668 2.8904-8.5749z" fill="#3f824b"/><path d="m59.6846 103.928s-12.2138-6.9258-15.1546-10.8464c-1.2967-1.7289-4.5215-2.0515-6.8118-4.8824-2.9032-3.5884-5.484-7.8212-7.4929-8.0038-3.5939-.3267-7.1231.9314-9.7368-1.0288s-7.1918-5.4008-8.8254-4.4207-2.03 5.3763-1.7029 7.6633-2.3837 3.7465-1.362 6.3008c1.65 4.126 6.3366 5.8121 7.3167 6.7922a15.3637 15.3637 0 0 0 6.2076 4.574c3.9206 1.6338 30.0475 4.8319 37.5621 3.8518z" fill="#4a995c"/><path d="m68.135 103.928s12.2137-6.9258 15.1542-10.8464c1.2967-1.7289 4.5214-2.0515 6.8118-4.8824 2.9031-3.5884 5.4839-7.8212 7.4929-8.0038 3.5939-.3267 7.123.9314 9.7368-1.0288s7.1918-5.4008 8.8253-4.4207 2.03 5.3763 1.703 7.6633 2.3841 3.7465 1.3623 6.3009c-1.65 4.126-6.3365 5.8121-7.3166 6.7922a15.3637 15.3637 0 0 1 -6.2076 4.574c-3.9206 1.6337-30.0477 4.8318-37.5621 3.8517z" fill="#5baf6b"/><path d="m117.859 82.4092c.2741-1.9183.0363-5.3133-1.01-6.9388-2.6225 5.5071-8.5254 14.8628-19.7949 19.4581a50.8141 50.8141 0 0 1 -20.7131 3.8982c-4.0479 2.7429-8.2056 5.1013-8.2056 5.1013 7.5145.98 33.6416-2.2181 37.5622-3.8517a15.3647 15.3647 0 0 0 6.2076-4.574c.98-.98 5.6663-2.6662 7.3167-6.7922 1.0212-2.5544-1.6896-4.0139-1.3629-6.3009z" fill="#4a995c"/><path d="m58.0684 101.4741c-.0406-.0605-2.6834-4.0175-5.1546-8.3517 2.2364-2.9667 4.4031-9.5871 4.4973-9.8778a1 1 0 0 0 -1.9023-.6172 49.9324 49.9324 0 0 1 -3.6794 8.5461 47.8755 47.8755 0 0 1 -2.3343-4.8551 81.9929 81.9929 0 0 1 -3.6113-14.35 1 1 0 0 0 -1.9766.3046 97.4779 97.4779 0 0 0 2.1095 9.8239c-2.4014-.877-4.8789-2.0762-4.9093-2.0914a1 1 0 0 0 -.875 1.7988 55.2232 55.2232 0 0 0 6.4813 2.6415c.2876.9.5937 1.78.922 2.609 2.3477 5.9253 8.5108 15.144 8.7725 15.5337l.7518 1.1215c.3327.0739.6651.1483 1 .218h1.5532z" fill="#77db89"/><path d="m89.03 78.8208a.9984.9984 0 0 0 -1.4073-.1318 27.1726 27.1726 0 0 1 -6.06 3.6208 56.1982 56.1982 0 0 0 3.0116-10.009 1 1 0 1 0 -1.9668-.36c-.0166.0894-1.6826 8.9995-5.9717 15.65-1.0106 1.5661-2.21 3.2437-3.4534 4.8993a30.6145 30.6145 0 0 1 -.8229-7.9989 1 1 0 0 0 -2-.0556c-.0073.28-.1622 6.5213 1.3886 9.932-3.127 4.0205-5.8565 7.1834-7.9533 9.5609h2.6625a153.79 153.79 0 0 0 11.8581-15.2542 35.4007 35.4007 0 0 0 2.1347-3.85 27.0769 27.0769 0 0 0 8.4483-4.5949 1 1 0 0 0 .1316-1.4086z" fill="#77db89"/><path d="m114.63 88.8228a1 1 0 1 0 -.6016-1.9073l-3.1958 1.0067a34.0108 34.0108 0 0 0 3.2925-4.4832 1 1 0 0 0 -1.7285-1.0064 37.1912 37.1912 0 0 1 -12.3652 11.9961 60.5542 60.5542 0 0 1 -6.96 3.315c3.1652-6.1985 3.2517-6.6352 3.279-6.7818a1.0359 1.0359 0 0 0 -.7959-1.2046.9609.9609 0 0 0 -1.1524.7627c-.1743.5186-2.24 4.6273-4.1374 8.3157a126.8457 126.8457 0 0 1 -13.4817 4.1184l-4.9745 1.1564c2.8641.0032 6.5487-.2043 10.44-.5365 5.0007-1.4392 12.769-3.9921 18.7712-7.407a35.7582 35.7582 0 0 0 6.9887-5.2583z" fill="#77db89"/><path d="m10.141 82.4092c-.2741-1.9183-.0363-5.3133 1.0105-6.9388 2.6225 5.5071 8.5254 14.8628 19.7949 19.4581a50.8141 50.8141 0 0 0 20.7136 3.8982c4.0479 2.7429 8.2056 5.1013 8.2056 5.1013-7.5145.98-33.6416-2.2181-37.5622-3.8517a15.3647 15.3647 0 0 1 -6.2076-4.574c-.98-.98-5.6663-2.6662-7.3167-6.7922-1.0222-2.5544 1.6886-4.0139 1.3619-6.3009z" fill="#3f824b"/><path d="m13.37 88.8228a1 1 0 1 1 .6016-1.9073l3.1958 1.0067a34.0108 34.0108 0 0 1 -3.2924-4.4832 1 1 0 0 1 1.7285-1.0064 37.1909 37.1909 0 0 0 12.3653 11.9961 60.5447 60.5447 0 0 0 6.96 3.315c-3.1652-6.1985-3.2517-6.6352-3.279-6.7818a1.0359 1.0359 0 0 1 .7959-1.2046.9609.9609 0 0 1 1.1524.7627c.1743.5186 2.24 4.6273 4.1374 8.3157a126.8457 126.8457 0 0 0 13.4817 4.1184l4.9745 1.1564c-2.8641.0032-6.5487-.2043-10.44-.5365-5.0007-1.4392-12.769-3.9921-18.7712-7.407a35.7582 35.7582 0 0 1 -6.9887-5.2583z" fill="#77db89"/><g fill="#ccb071"><path d="m116.53 70.42a17.0314 17.0314 0 0 1 -2.76 1.26 16.3724 16.3724 0 0 1 -8.11.21c-.81 1.29-2.47 2.23-5.18 2.23a11.62 11.62 0 0 0 3.49-8.73 5.3312 5.3312 0 0 1 2.2 5.24 11.5673 11.5673 0 0 0 6.82-5.66.7539.7539 0 0 1 -.06.13 8.7093 8.7093 0 0 1 3.6 5.32z"/><path d="m91.26 37.78a11.5 11.5 0 0 1 .77 3.6 9.5749 9.5749 0 0 0 -6.74 2.83 10.15 10.15 0 0 1 5.81-6.79c.06.12.11.24.16.36z"/><path d="m74.0638 40.81c.1773-2.1188-1.5186-3.9927-3.6105-4.6358a11.6354 11.6354 0 0 1 2.5546-3.0506l-.0189.0147a11.66 11.66 0 0 0 -2.3006-2.5618 8.3273 8.3273 0 0 0 -1.3615 5.3745 4.671 4.671 0 0 0 -4.1969 1.9213 11.555 11.555 0 0 1 8.9338 2.9377z"/><path d="m34.4584 41.3842a9.5975 9.5975 0 0 0 -6.4551 2.4876 25.6269 25.6269 0 0 0 9.4279 5.7893 11.6141 11.6141 0 0 1 -2.8952-8.2729c-.026-.0003-.0514-.004-.0776-.004z"/><path d="m17.0073 68.9348a11.6338 11.6338 0 0 1 -3.41-3.93c.0158.03.0268.0619.0427.0914a8.81 8.81 0 0 0 -3.0745 3.7267 27.3243 27.3243 0 0 0 6.4418.1119z"/></g></svg>