<svg id="Capa_1" enable-background="new 0 0 512 512" height="512" viewBox="0 0 512 512" width="512" xmlns="http://www.w3.org/2000/svg"><g><path d="m337.373 451.972c10.535-10.535 15.299-24.656 14.293-38.434 13.778 1.006 27.899-3.758 38.435-14.293 9.606-9.606 14.414-22.193 14.425-34.784v-41.903c0-13.938-5.587-26.572-14.643-35.783-9.261-9.42-22.149-15.261-36.402-15.261h-21.057l-73.987 32.523-78.861-32.523h-21.057c-14.253 0-27.141 5.842-36.401 15.261-9.056 9.212-14.643 21.845-14.643 35.783v39.474l58.625 64.108c0 .515.275.991.721 1.248l81.495 84.591h10.122c12.102-.365 24.095-5.165 33.332-14.402z" fill="#8993da"/><path d="m288.323 505.708 85.805-49.54c18.81-10.86 30.398-30.931 30.398-52.652v-39.056c-.01 12.591-50.416 38.748-64.195 37.742 0 0-69.792 109.411-81.894 109.776h5.261c8.349.22 16.861-1.788 24.625-6.27z" fill="#ffddce"/><path d="m158.733 369.758c-4.267 0-7.726-3.459-7.726-7.726v-36.479c0-4.268 3.459-7.726 7.726-7.726s7.726 3.459 7.726 7.726v36.479c.001 4.267-3.459 7.726-7.726 7.726z" fill="#707dd3"/><path d="m306.627 271.513c-4.034 0-7.305-3.27-7.305-7.305v-24.204h-86.644v24.204c0 4.034-3.27 7.305-7.305 7.305h-25.797l26.981 27.879c27.041 27.94 71.845 27.94 98.885 0l26.981-27.879z" fill="#ffece4"/><path d="m345.434 137.03h-11.914l-13.88 3.475 8.404 45.335h2.379c16.884 0 30.57-13.687 30.57-30.57v-2.68c0-8.594-6.966-15.56-15.559-15.56z" fill="#ffcbbe"/><path d="m287.252 46.968c1.78-4.098 2.767-8.619 2.767-13.372 0-18.555-15.041-33.596-33.596-33.596s-33.596 15.041-33.596 33.596c0 6.294 1.732 12.184 4.743 17.22z" fill="#c67d66"/><path d="m166.567 137.03h5.117l20.17 13.738-7.897 35.071h-2.379c-16.884 0-30.57-13.687-30.57-30.57v-2.68c0-8.593 6.966-15.559 15.559-15.559z" fill="#ffddce"/><path d="m217.26 91.834 114.304 46.206-4.156 56.427c-2.755 37.403-48.866 63.323-71.408 63.323-22.543 0-68.653-25.92-71.408-63.323l-3.31-44.945z" fill="#ffece4"/><path d="m317.285 133.878-28.712 7.774-2.372 32.211c-2.755 37.403-48.866 63.323-71.408 63.323-1.939 0-4.055-.196-6.3-.57 15.532 13.311 35.092 21.174 47.507 21.174 22.542 0 68.653-25.92 71.408-63.323l4.156-56.427z" fill="#ffddce"/><path d="m257.18 512c12.525-.06 25.032-4.867 34.589-14.424l45.604-45.604c10.535-10.535 15.299-24.656 14.293-38.435-11.376-.831-22.518-5.595-31.216-14.293s-13.462-19.84-14.293-31.216c-13.778-1.006-27.899 3.758-38.435 14.293l-45.604 45.604c-1.853 1.853-3.527 3.818-5.023 5.871l31.22 78.181z" fill="#e28086"/><path d="m351.666 413.537c-11.376-.831-44.678-34.133-45.509-45.509-10.301-.752-20.792 1.723-29.834 7.421.92 1.095 1.89 2.161 2.92 3.191 3.27 3.27 6.885 5.984 10.729 8.142 16.14 9.063 19.481 31.064 6.508 44.269-.104.106-.209.212-.314.317l-30.482 30.482-17.369 50.128 8.865.022c12.525-.06 25.032-4.867 34.589-14.424l45.604-45.604c10.535-10.535 15.3-24.656 14.293-38.435z" fill="#dd636e"/><path d="m287.703 488.552c3.345-5.795 1.36-13.204-4.434-16.549l-116.089-67.024c-.446-.257-.721-.733-.721-1.248v-41.699h-58.985v41.486c0 21.721 11.588 41.791 30.398 52.652l85.805 49.539c6.994 4.038 14.596 6.068 22.138 6.27h2.499c15.757-.42 30.931-8.777 39.389-23.427z" fill="#ffece4"/><path d="m194.867 66.958c7.983-8.335 22.059-2.668 22.059 8.873 0-17.85 13.568-32.878 31.349-34.451 2.193-.194 4.413-.306 6.658-.334 46.896-.574 84.668 36.713 85.943 82.401.214 7.659-5.216 14.32-12.769 15.611l-10.823 1.85c-38.797 6.631-77.893-9.999-100.025-42.547-8.452 23.219-20.405 38.804-32.336 49.358-4.79 4.238-12.374 1.078-12.844-5.3l-.687-9.323c-1.885-25.629 7.293-49.244 23.475-66.138z" fill="#d09080"/><circle cx="355.275" cy="364.419" fill="#ffece4" r="49.25"/><path d="m355.06 392.022c-6.1 0-12.2-2.322-16.844-6.965-3.018-3.017-3.018-7.909-.001-10.927s7.909-3.019 10.927-.001c3.264 3.264 8.573 3.265 11.837 0 3.262-3.263 3.262-8.572-.001-11.836-3.017-3.017-3.017-7.909 0-10.927 3.017-3.016 7.909-3.017 10.927.001 9.287 9.288 9.287 24.4 0 33.688-4.644 4.645-10.745 6.967-16.845 6.967z" fill="#ffddce"/></g></svg>