<svg id="Layer_1" height="512" viewBox="0 0 512 512" width="512" xmlns="http://www.w3.org/2000/svg" data-name="Layer 1"><path d="m478.144 33.855a88.81 88.81 0 0 0 -125.307 0l-140.743 140.738c-32.716 32.731-43.862 59.675-54.642 85.731-10.552 25.516-20.526 49.617-51.682 80.776l-84.3 84.3a46.058 46.058 0 0 0 65.122 65.15l84.331-84.331c31.147-31.147 55.24-41.112 80.747-51.663 26.059-10.778 53.005-21.924 85.731-54.665l140.74-140.74a88.805 88.805 0 0 0 .006-125.3z" fill="#d3e1f4"/><path d="m58.659 388.208-37.192 37.192a46.058 46.058 0 0 0 65.122 65.15l37.227-37.227z" fill="#ff475a"/><path d="m415.5 7.985a87.991 87.991 0 0 0 -62.663 25.865l-10.606 10.607 125.3 125.3 10.606-10.607a88.515 88.515 0 0 0 -62.637-151.165z" fill="#ff475a"/><path d="m399.769 129.84-17.575-17.6-.008-.009a25.095 25.095 0 0 0 -35.443 0l-81.271 81.269a25.091 25.091 0 0 0 0 35.442l17.6 17.6a25.093 25.093 0 0 0 35.445 0l81.2-81.229a25.043 25.043 0 0 0 .047-35.473z" fill="#31a7fb"/><path d="m54.028 504.015a45.912 45.912 0 0 0 32.561-13.465l37.227-37.227-32.573-32.552-69.776 69.779a45.9 45.9 0 0 0 32.561 13.465z" fill="#f43853"/><path d="m467.532 169.758 10.606-10.607a88.805 88.805 0 0 0 .006-125.3l-73.256 73.259z" fill="#f43853"/><path d="m467.532 169.758-62.644-62.644-313.645 313.657 32.573 32.552 47.1-47.1c31.147-31.147 55.24-41.112 80.747-51.663 26.059-10.778 53.005-21.924 85.731-54.665z" fill="#b3cbea"/><path d="m407.109 147.552a24.811 24.811 0 0 0 -7.34-17.712l-8.8-8.811-116.699 116.708 8.806 8.806a25.093 25.093 0 0 0 35.445 0l81.2-81.229a24.855 24.855 0 0 0 7.388-17.762z" fill="#1c96f9"/></svg>