<svg id="Capa_1" enable-background="new 0 0 512.037 512.037" height="512" viewBox="0 0 512.037 512.037" width="512" xmlns="http://www.w3.org/2000/svg"><path d="m461.173 200.493-131.46 131.46c-27.12 27.12-61.33 45.43-98.94 52.95-31.78 6.36-60.69 21.83-83.61 44.75l-.09.09-25.51 25.1-44.91-19.46c-24.643-58.127-17.332-40.883-18.73-44.18l25.64-25.23c22.9-22.91 38.36-51.81 44.71-83.57 7.52-37.61 25.83-71.82 52.95-98.94l131.46-131.46 68.23 37.83c-11.53 11.53-11.71 30.09-.55 41.84 8.633 10.787 29.698 13.872 42.98.59z" fill="#e6f5fa"/><path d="m461.173 200.493-131.46 131.46c-27.12 27.12-61.33 45.43-98.94 52.95-31.78 6.36-60.69 21.83-83.61 44.75l-.09.09-25.51 25.1-44.91-19.46 303.71-303.71c8.633 10.787 29.698 13.872 42.98.59z" fill="#c8e1e6"/><path d="m478.793 182.883-17.62 17.61-53.03-53.03c-12.93 12.93-33.51 10.55-42.98-.59-11.16-11.76-10.97-30.32.55-41.84l-53.03-53.03 21.22-21.22c40.83-40.83 106.83-41.07 147.91-.56 42.75 41.91 38.65 110.98-3.02 152.66z" fill="#ff637b"/><path d="m478.793 182.883-17.62 17.61-53.03-53.03c-12.93 12.93-33.51 10.55-42.98-.59l116.65-116.65c42.75 41.91 38.65 110.98-3.02 152.66z" fill="#e63950"/><path d="m121.563 454.843-44.79 44.06c-17.39 17.34-45.84 17.7-63.59-.05-17.55-17.55-17.55-46.09 0-63.64l.09-.09 44.65-43.92z" fill="#c8e1e6"/><path d="m121.563 454.843-44.79 44.06c-17.39 17.34-45.84 17.7-63.59-.05l76.2-76.19z" fill="#aac8d2"/><path d="m333.333 178.713-31.25-31.25-63.64 63.64 31.25 31.25 32.39 32.39 63.64-63.64z" fill="#76e2f8"/><path d="m272.708 203.825h90.001v45.806h-90.001z" fill="#4bb9ec" transform="matrix(.707 -.707 .707 .707 -67.267 291.061)"/><path d="m202.226 238.526h30v30h-30z" fill="#596c76" transform="matrix(.707 -.707 .707 .707 -115.646 227.858)"/><path d="m244.652 280.952h30v30h-30z" fill="#465a61" transform="matrix(.707 -.707 .707 .707 -133.22 270.286)"/></svg>