<svg id="Capa_1" enable-background="new 0 0 512 512" height="512" viewBox="0 0 512 512" width="512" xmlns="http://www.w3.org/2000/svg"><g><path d="m318.198 193.802-53.033-53.033-42.426 42.426 53.033 53.033 53.033 53.033 42.426-42.426z" fill="#dfe7f4"/><path d="m293.501 204.032h60v75h-60z" fill="#c7cfe1" transform="matrix(.707 -.707 .707 .707 -76.037 299.493)"/><path d="m286.378 225.622-74.246-74.246-63.64 63.639v42.427l-42.426 42.426h-42.426l-63.64 63.64 74.246 74.246 74.246 74.246 212.132-212.132z" fill="#f0f7ff"/><path d="m67.435 316.311h300v105h-300z" fill="#dfe7f4" transform="matrix(.707 -.707 .707 .707 -197.103 261.772)"/><path d="m387.327 182.615 124.673-141.659-20.478-20.478-20.478-20.478-141.66 124.673c-17.764 15.382-44.684 14.418-61.299-2.196l18.292 39.505 31.82 31.82 31.82 31.82 39.505 18.292c-16.613-16.614-17.576-43.535-2.195-61.299z" fill="#a8ebfa"/><path d="m389.523 243.914c-16.614-16.614-17.578-43.535-2.196-61.299l124.673-141.659-20.478-20.478-173.324 173.324 31.82 31.82z" fill="#7cc8f0"/><path d="m222.739 289.261-74.247-74.246-84.852 84.853 74.246 74.246 10.606 10.607 84.853-84.853z" fill="#a8ebfa"/><path d="m125.616 329.491h120v15h-120z" fill="#7cc8f0" transform="matrix(.707 -.707 .707 .707 -183.923 229.952)"/><path d="m328.805 183.195-95.46-95.459-21.213 21.213 95.459 95.46 95.46 95.459 21.213-21.213z" fill="#7cc8f0"/><path d="m350.928 174.032h30v135h-30z" fill="#3aaaff" transform="matrix(.707 -.707 .707 .707 -63.611 329.493)"/></g></svg>