<svg id="Capa_1" enable-background="new 0 0 512 512" height="512" viewBox="0 0 512 512" width="512" xmlns="http://www.w3.org/2000/svg"><g><g><path d="m497.064 67.957c-23.562-34.912-79.28-36.195-136.908-.109-32.674 20.46-68.163 27.309-107.225 27.309s-74.551-6.849-107.225-27.309c-57.629-36.086-113.346-34.803-136.908.109s2.416 90.488 51.583 126.318c55.832 40.686 105.935 62.662 192.55 62.662s136.718-21.975 192.55-62.662c49.167-35.83 75.145-91.406 51.583-126.318z" fill="#09a66d"/></g><g><path d="m497.064 67.957c-9.284-13.756-23.573-22.266-40.991-25.352 3.218 33.066-21.166 73.806-60.09 102.172-55.832 40.686-105.934 62.662-192.55 62.662-83.316 0-132.849-20.342-186.193-58.103 10.478 16.294 25.277 31.92 43.142 44.939 55.832 40.686 105.934 62.662 192.55 62.662s136.718-21.975 192.55-62.662c49.166-35.83 75.144-91.406 51.582-126.318z" fill="#118e5e"/></g><g><path d="m249.303 143.119c-69.922 0-119.897-13.704-172.493-47.299-3.543-2.263-4.58-6.969-2.318-10.512 2.263-3.544 6.969-4.581 10.512-2.318 49.935 31.896 97.536 44.906 164.299 44.906 66.764 0 114.364-13.01 164.299-44.906 3.543-2.263 8.249-1.226 10.512 2.318 2.264 3.543 1.226 8.249-2.317 10.512-52.597 33.596-102.572 47.299-172.494 47.299z" fill="#77c8a4"/></g><g><path d="m252.931 207.058c-82.095 0-129.047-20.352-178.195-53.191-11.916-7.962-22.475-17.078-31.384-27.094-2.794-3.141-2.512-7.952.629-10.746s7.953-2.511 10.746.629c8.049 9.05 17.627 17.311 28.468 24.554 47.986 32.063 91.143 50.625 169.737 50.625s121.751-18.563 169.737-50.625c10.84-7.243 20.418-15.503 28.469-24.555 2.792-3.139 7.605-3.423 10.746-.628 3.141 2.794 3.422 7.605.628 10.747-8.91 10.018-19.47 19.133-31.384 27.094-49.149 32.838-96.102 53.19-178.197 53.19z" fill="#77c8a4"/></g><g><circle cx="412.653" cy="256.936" fill="#b9ea6a" r="91.736"/></g><g><path d="m474.794 189.471c3.158 9.279 4.896 19.214 4.896 29.561 0 50.664-41.072 91.736-91.736 91.736-23.978 0-45.798-9.209-62.141-24.27 12.305 36.154 46.522 62.174 86.839 62.174 50.664 0 91.735-41.071 91.735-91.736.002-26.686-11.402-50.702-29.593-67.465z" fill="#a1e42c"/></g><g><path d="m448.916 241.33c.162-10.425 4.866-18.804 10.505-18.716s10.079 8.61 9.917 19.034c-.123 7.9-6.13 16.993-9.032 20.935-.755 1.025-2.292 1.001-3.014-.047-2.778-4.03-8.499-13.306-8.376-21.206z" fill="#e5f5c4"/></g><g><path d="m412.653 356.283c-54.78 0-99.347-44.567-99.347-99.347s44.567-99.347 99.347-99.347 99.347 44.567 99.347 99.347-44.567 99.347-99.347 99.347zm0-183.47c-46.386 0-84.123 37.738-84.123 84.124s37.738 84.123 84.123 84.123 84.123-37.738 84.123-84.123-37.737-84.124-84.123-84.124z" fill="#09a66d"/></g><g><path d="" style="fill:none;stroke:#fb7601;stroke-width:128;stroke-linecap:round;stroke-linejoin:round;stroke-miterlimit:10"/></g><g><circle cx="339.009" cy="256.936" fill="#e5f5c4" r="91.736"/></g><g><path d="m401.15 189.471c3.158 9.279 4.896 19.214 4.896 29.561 0 50.664-41.071 91.736-91.735 91.736-23.978 0-45.798-9.209-62.141-24.27 12.305 36.154 46.522 62.174 86.839 62.174 50.664 0 91.736-41.071 91.736-91.736-.001-26.686-11.405-50.702-29.595-67.465z" fill="#daf3b1"/></g><g><path d="m339.009 356.283c-54.781 0-99.347-44.567-99.347-99.347s44.567-99.347 99.347-99.347 99.347 44.567 99.347 99.347-44.568 99.347-99.347 99.347zm0-183.47c-46.386 0-84.124 37.738-84.124 84.124s37.739 84.123 84.124 84.123 84.123-37.738 84.123-84.123-37.737-84.124-84.123-84.124z" fill="#77c8a4"/></g><g><circle cx="257.048" cy="371.377" fill="#b9ea6a" r="91.736"/></g><g><path d="m319.189 303.911c3.158 9.279 4.896 19.214 4.896 29.561 0 50.664-41.071 91.736-91.736 91.736-23.978 0-45.798-9.209-62.141-24.27 12.305 36.154 46.522 62.174 86.839 62.174 50.664 0 91.736-41.071 91.736-91.736 0-26.686-11.404-50.701-29.594-67.465z" fill="#a1e42c"/></g><g><path d="m257.048 470.724c-54.78 0-99.347-44.567-99.347-99.347s44.567-99.347 99.347-99.347 99.347 44.567 99.347 99.347-44.568 99.347-99.347 99.347zm0-183.471c-46.386 0-84.124 37.738-84.124 84.124s37.738 84.124 84.124 84.124 84.123-37.738 84.123-84.124-37.737-84.124-84.123-84.124z" fill="#09a66d"/></g><g><path d="m351.669 280.036c0 10.426-4.572 18.878-10.212 18.878s-10.212-8.452-10.212-18.878c0-7.901 5.864-17.087 8.705-21.073.738-1.036 2.276-1.036 3.014 0 2.841 3.986 8.705 13.172 8.705 21.073z" fill="#a1e42c"/></g><g><path d="m310.683 253.188c-10.426 0-18.878-4.572-18.878-10.212s8.452-10.212 18.878-10.212c7.901 0 17.087 5.864 21.073 8.705 1.036.738 1.036 2.276 0 3.014-3.987 2.84-13.173 8.705-21.073 8.705z" fill="#a1e42c"/></g><g><path d="m341.457 217.707c0-10.426 4.572-18.878 10.212-18.878s10.212 8.452 10.212 18.878c0 7.901-5.864 17.087-8.705 21.073-.738 1.036-2.276 1.036-3.014 0-2.841-3.986-8.705-13.172-8.705-21.073z" fill="#a1e42c"/></g><g><path d="m240.689 331.654c0-10.426 4.572-18.878 10.212-18.878s10.212 8.452 10.212 18.878c0 7.901-5.864 17.087-8.705 21.073-.738 1.036-2.276 1.036-3.014 0-2.841-3.987-8.705-13.173-8.705-21.073z" fill="#e5f5c4"/></g><g><path d="m216.368 370.51c-7.372-7.372-10.115-16.581-6.127-20.57 3.988-3.988 13.198-1.245 20.57 6.127 5.587 5.587 7.935 16.229 8.745 21.057.211 1.255-.876 2.342-2.131 2.131-4.828-.809-15.471-3.158-21.057-8.745z" fill="#e5f5c4"/></g><g><path d="m280.262 396.684c7.372 7.372 10.115 16.582 6.127 20.57s-13.198 1.245-20.57-6.127c-5.587-5.587-7.935-16.229-8.746-21.057-.211-1.255.876-2.342 2.131-2.131 4.829.81 15.472 3.158 21.058 8.745z" fill="#e5f5c4"/></g><g><path d="m283.609 378.504c-10.424-.162-18.804-4.866-18.716-10.505s8.61-10.079 19.034-9.917c7.9.123 16.993 6.13 20.935 9.032 1.025.755 1.001 2.292-.047 3.014-4.03 2.779-13.307 8.499-21.206 8.376z" fill="#e5f5c4"/></g></g></svg>