<svg height="512" viewBox="0 0 64 64" width="512" xmlns="http://www.w3.org/2000/svg"><g id="Layer_31" data-name="Layer 31"><path d="m9.847 27.518 4.85-8.487a8 8 0 0 1 6.946-4.031h16.714a8 8 0 0 1 6.943 4.031l4.755 8.32a4 4 0 0 0 2.815 1.961l3.442.574a8 8 0 0 1 6.688 7.891v3.223a4 4 0 0 1 -4 4h-54a4 4 0 0 1 -4-4v-6.877a4 4 0 0 1 3.03-3.88l3.314-.829a4 4 0 0 0 2.503-1.896z" fill="#ff938d"/><path d="m62 42h-47.123a10.877 10.877 0 0 1 -10.877-10.877 3.966 3.966 0 0 1 .116-.9l-.085.021a4 4 0 0 0 -3.031 3.879v6.877a4 4 0 0 0 4 4h54a4 4 0 0 0 3.892-3.108 3.974 3.974 0 0 1 -.892.108z" fill="#f27875"/><path d="m1 34.12v2.88h3l1-4h-3.84a4.152 4.152 0 0 0 -.16 1.12z" fill="#a7d0e1"/><path d="m4.591 34.636a10.715 10.715 0 0 1 -.418-1.636h-3c-.028.095-.054.192-.075.29-.015.07-.034.14-.045.211a4.005 4.005 0 0 0 -.053.622v2.877h3z" fill="#80bbce"/><path d="m38.735 18h-6.735v10h15l-4.835-8.058a4 4 0 0 0 -3.43-1.942z" fill="#a7d0e1"/><path d="m41.069 23a1 1 0 0 1 -.859-.485l-.617-1.03a1 1 0 0 1 1.715-1.029l.617 1.029a1 1 0 0 1 -.856 1.515z" fill="#fff"/><path d="m35 21v-3h-3v10h15l-1.8-3h-6.2a4 4 0 0 1 -4-4z" fill="#80bbce"/><path d="m13 28h15v-10h-6.735a4 4 0 0 0 -3.43 1.942z" fill="#a7d0e1"/><path d="m21.635 18.942.565-.942h-.935a4 4 0 0 0 -3.43 1.942l-4.835 8.058h15v-3h-2.935a4 4 0 0 1 -3.43-6.058z" fill="#80bbce"/><path d="m57 33a3.995 3.995 0 0 0 4 4h1.96a7.8 7.8 0 0 0 -1.56-4z" fill="#a7d0e1"/><path d="m53 44a6 6 0 1 0 -11.91 1h11.82a6 6 0 0 0 .09-1z" fill="#f27875"/><circle cx="49" cy="43" fill="#7a838b" r="6"/><circle cx="49" cy="43" fill="#a7d0e1" r="2"/><circle cx="15" cy="43" fill="#7a838b" r="6"/><path d="m18 46a5.993 5.993 0 0 1 -5.466-8.466 6 6 0 1 0 7.932 7.932 5.974 5.974 0 0 1 -2.466.534z" fill="#5d6972"/><path d="m51.867 46a5.993 5.993 0 0 1 -5.467-8.466 6 6 0 1 0 7.932 7.932 5.974 5.974 0 0 1 -2.465.534z" fill="#5d6972"/><circle cx="15" cy="43" fill="#a7d0e1" r="2"/><g fill="#7a838b"><path d="m34 30h-2a1 1 0 0 0 0 2h2a1 1 0 0 0 0-2z"/><path d="m15 30h-2a1 1 0 0 0 0 2h2a1 1 0 0 0 0-2z"/></g></g></svg>