<svg id="Onion" enable-background="new 0 0 450 450" height="512" viewBox="0 0 450 450" width="512" xmlns="http://www.w3.org/2000/svg"><g><path d="m59.38 343.417c2.362-3.071 7.087.472 4.725 3.543-8.741 11.575-2.835 21.497.472 33.545.945 3.78-4.725 5.433-5.67 1.654-4.251-14.647-10.157-24.569.473-38.742z" fill="#d1763c"/><path d="m66.467 345.306c0-4.016 6.142-4.016 6.142 0v21.97c0 3.78-6.142 3.78-6.142 0z" fill="#d1763c"/><g clip-rule="evenodd" fill-rule="evenodd"><path d="m32.686 295.225c-16.773-50.318-6.142-104.415 32.364-140.322 67.563-62.602 112.919-19.607 172.214-46.065 16.536-14.41 23.623-19.844 34.018-34.962 6.142-8.741 3.071-7.796 13.465-7.796 0-23.387-4.725-21.497 17.009-21.497v29.529c-7.796 17.481-13.465 29.529-20.788 42.286-14.646 25.749-9.922 33.781-1.181 62.129 19.371 63.783 23.151 113.864-3.307 152.37-14.883 21.497-34.726 39.687-77.012 54.333-49.138 17.008-138.67-5.434-166.782-90.005z" fill="#e9a876"/><path d="m292.069 230.261c13.229 79.61-18.426 129.219-92.603 154.969-27.403 9.449-67.563 6.615-102.525-12.284 15.119-93.785 102.289-158.276 195.128-142.685z" fill="#e29a64"/><path d="m378.531 359.717c-80.319 73.941-178.828 51.262-216.625-28.82-27.875-59.058 0-118.589 21.025-125.44 17.717-7.087 30.474-21.497 58.113-21.025 68.98.945 165.599 38.033 182.844 92.839 5.433 17.954-10.867 23.623-20.08 50.081 12.52 29.766 2.598 26.459-25.277 32.365z" fill="#efe7d9"/><path d="m228.759 185.141c2.835-.236 8.977-.945 12.284-.709 68.98.945 165.599 38.033 182.844 92.839 5.197 16.772-8.977 22.915-18.426 45.593-5.906-22.678 8.741-26.222 6.851-37.561-12.757-70.87-142.921-92.131-177.411-91.895-4.488.001-4.252-8.031-6.142-8.267z" fill="#ebb892"/><path d="m378.531 359.717c-132.763 122.132-281.59-26.931-214.263-136.779 25.041 109.848 119.298 143.866 244.501 125.912v.236c-2.363 6.851-12.757 7.087-30.238 10.631z" fill="#ebb892"/><path d="m181.749 212.307c-20.552-22.678 26.694-31.891 41.577-33.781 4.725-.472 8.741 17.009 8.741 17.009-21.734 8.977-27.167 12.048-50.318 16.772z" fill="#ece8db"/></g><path d="m186.946 232.623c-.945-3.78 4.725-5.433 5.67-1.654 19.607 73.941 108.903 102.525 176.938 105.36 3.78 0 3.543 5.906-.236 5.906-70.87-2.834-162.056-32.836-182.372-109.612z" fill="#dfd2c1"/><path d="m244.587 207.819c-3.78-.945-2.362-6.851 1.417-5.906 5.906 1.654 10.867 2.835 16.064 4.016 48.9 12.048 113.392 27.639 133.471 72.996 4.961 11.103-.236 20.316-.236 32.364 0 3.78-5.906 3.78-5.906 0 0-10.158 4.488-21.261.709-30.002-18.899-42.522-81.736-57.877-129.456-69.452-5.905-1.418-11.575-2.835-16.063-4.016z" fill="#dfd2c1"/><path d="m206.789 224.828c-1.89-3.307 3.307-6.378 5.197-2.835 28.82 51.026 86.934 83.626 142.212 97.8 3.78 1.181 2.362 6.851-1.417 5.906-56.932-14.646-116.226-48.191-145.992-100.871z" fill="#dfd2c1"/><path d="m227.814 216.087c-3.543-1.181-1.89-7.087 1.89-5.67 47.483 15.355 120.242 49.609 147.173 93.548 1.89 3.307-3.071 6.378-5.197 3.071-25.986-42.285-98.037-76.066-143.866-90.949z" fill="#dfd2c1"/><path clip-rule="evenodd" d="m145.841 150.414c7.796 8.741 3.78 23.387-9.213 32.6-13.229 9.449-30.002 9.686-37.797.945-8.032-8.977-3.78-23.623 9.213-32.836s29.766-9.685 37.797-.709z" fill="#ebbb97" fill-rule="evenodd"/></g></svg>