<svg height="512" viewBox="0 0 128 128" width="512" xmlns="http://www.w3.org/2000/svg"><g><path d="m96.465 106.227a12.321 12.321 0 0 1 -16.813.571l-67.721-59.087a85.611 85.611 0 0 0 26.018-26.018l59.088 67.72a12.322 12.322 0 0 1 -.572 16.814z" fill="#add3d8"/><path d="m25.536 18.164a32.225 32.225 0 0 1 -17.136 17.136l3.528 12.414a85.611 85.611 0 0 0 26.021-26.021z" fill="#c0eaf0"/><path d="m119.416 63.855a7.5 7.5 0 0 1 -8.493 5.775l-78.223-12.417 5.376-24.139 76.1 21.948a7.5 7.5 0 0 1 5.24 8.833z" fill="#c0eaf0"/><path d="m40.2 40.27a6.852 6.852 0 1 1 -9.69 0 6.852 6.852 0 0 1 9.69 0z" fill="#81a1b1"/></g></svg>