<svg id="Icons" height="512" viewBox="0 0 60 60" width="512" xmlns="http://www.w3.org/2000/svg"><path d="m52.864 4.4 2.924-3.082a1.017 1.017 0 0 1 1.429-.04l1.468 1.385a1.009 1.009 0 0 1 .04 1.425l-2.917 3.07z" fill="#83ad3a"/><path d="m52.893 21.609c-10.523 24.143-23.429 33.291-33.038 36.613a14.24 14.24 0 0 1 -17.821-8.138l.007-.008a14.218 14.218 0 0 1 7.892-18.495 73.288 73.288 0 0 0 28.782-22.317l7.285-1.264 7 6z" fill="#805a91"/><path d="m54.875 19.872-1.218 1.285a1.674 1.674 0 0 1 -2.87-.931 8.93 8.93 0 0 1 .377-5.241 8.222 8.222 0 0 1 -5.432 2.264 2.35 2.35 0 0 1 -2.406-2.269 8.174 8.174 0 0 1 1.965-5.534 9 9 0 0 1 -5.311.658 1.658 1.658 0 0 1 -1.009-2.795l.982-1.035a10.359 10.359 0 0 1 14.022-1.092 10.057 10.057 0 0 1 .9 14.69z" fill="#8ec140"/><path d="m6 46a1 1 0 0 1 -1-.981 10.628 10.628 0 0 1 6.64-9.944 61.812 61.812 0 0 0 7.85-3.936 1 1 0 1 1 1.016 1.722 63.745 63.745 0 0 1 -8.106 4.067 8.615 8.615 0 0 0 -5.4 8.053 1 1 0 0 1 -.979 1.019z" fill="#9673a8"/></svg>