<svg height="512" viewBox="0 0 512 512" width="512" xmlns="http://www.w3.org/2000/svg"><g id="Layer_31" data-name="Layer 31"><path d="m368 280a24 24 0 0 0 24-24v-88a136 136 0 0 0 -136-136 136 136 0 0 0 -136 136v88a24 24 0 0 0 24 24z" fill="#474747"/><path d="m175.212 200h-31.212a24 24 0 0 1 -24-24 24 24 0 0 1 24-24h31.212" fill="#f2b9a1"/><path d="m336.788 200h31.212a24 24 0 0 0 24-24 24 24 0 0 0 -24-24h-31.212" fill="#f2b9a1"/><path d="m344 320 29.791 6.384a104 104 0 0 1 82.209 101.691v67.925h-400v-67.925a104 104 0 0 1 82.209-101.691l29.791-6.384z" fill="#f2f2f2"/><path d="m210.462 304h-19.629a24 24 0 0 0 -21.466 13.267l-33.367 66.733h40l8 56h24l26.057 17.371z" fill="#e2e7f6"/><path d="m301.538 304h19.629a24 24 0 0 1 21.466 13.267l33.367 66.733h-40l-8 56h-24l-26.057 17.371z" fill="#e2e7f6"/><path d="m272 496 32.623-212.047a103.545 103.545 0 0 1 -48.623 12.047 103.538 103.538 0 0 1 -48.624-12.044l32.624 212.044z" fill="#f2b9a1"/><path d="m240 496-20.923-136h73.846l-20.923 136z" fill="#c8cded"/><path d="m344 136 13.47 40.411a49.279 49.279 0 0 1 2.53 15.589 104 104 0 0 1 -104 104 104 104 0 0 1 -104-104v-1.931a49.284 49.284 0 0 1 1.472-11.957l14.528-58.112a109.256 109.256 0 0 0 77.255 32h18.745v-24l3.058 1.835a86.852 86.852 0 0 0 76.942 6.165z" fill="#fbe1ca"/><path d="m192 96-16-80h160l-16 80z" fill="#e2e7f6"/><path d="m229.117 80h94.083l12.8-64h-132.8l10.228 51.138a16 16 0 0 0 15.689 12.862z" fill="#f2f2f2"/><path d="m280 48h-16v-16h-16v16h-16v16h16v16h16v-16h16z" fill="#b52f28"/></g></svg>