<?xml version="1.0" encoding="iso-8859-1"?>
<!-- Generator: Adobe Illustrator 19.0.0, SVG Export Plug-In . SVG Version: 6.00 Build 0)  -->
<svg version="1.1" id="Capa_1" xmlns="http://www.w3.org/2000/svg" xmlns:xlink="http://www.w3.org/1999/xlink" x="0px" y="0px"
	 viewBox="0 0 512 512" style="enable-background:new 0 0 512 512;" xml:space="preserve">
<path style="fill:#DBDBDB;" d="M512,255.998c0-64.675-50.732-117.498-114.573-120.854c-2.194-0.115-4.187-1.319-5.351-3.181
	c-0.82-1.313-1.263-2.816-1.343-4.362c-2.538-49.279-42.887-92.795-92.424-92.795c-56.918,0-100.556,50.963-91.491,107.348
	c1.506,9.367-3.225,18.604-11.51,23.227c-22.497,12.553-47.96,20.982-74.746,24.632l-84.439,10.261
	c-7.62,1.038-12.582,8.491-10.682,15.942c4.149,16.274,8.564,45.31,0.082,78.767c-1.998,7.881,3.309,15.748,11.366,16.846
	l83.673,10.156c29.91,4.076,58.169,14.111,82.491,29.19c4.095,2.539,6.145,7.41,5.044,12.102
	c-13.675,58.255,30.569,113.915,90.212,113.915c47.279,0,86.278-41.814,91.943-88.534c0.858-7.07,6.964-11.625,13.527-12.315
	C464.599,369.944,512,318.512,512,255.998z"/>
<path style="fill:#C9C6C5;" d="M257.087,374.368c0.009-0.079,0.015-0.149,0.025-0.23c1.249-10.653-0.584-17.314-1.935-20.566
	l-1.218-2.396l-4.791-6.622c-38.487-53.187-39.666-124.747-2.953-179.173c0,0,5.082-8.956,8.495-15.795
	c0.791-1.704,2.465-6.114,2.358-12.446c-0.162-1.528-0.285-3.05-0.371-4.567c-0.009-0.058-0.012-0.112-0.021-0.17l-0.128-3.407
	c-0.787-42.079,27.202-78.936,66.548-90.461c-7.886-2.419-16.197-3.728-24.783-3.728c-54.542,0-96.88,46.796-92.345,100.317
	c0.004,0.046,0.008,0.092,0.012,0.138c0.061,0.708,0.127,1.419,0.205,2.129c0.024,0.224,0.054,0.449,0.079,0.673
	c0.064,0.551,0.126,1.102,0.201,1.655c0.108,0.81,0.225,1.621,0.357,2.433c1.491,9.272-2.994,18.456-11.187,23.048
	c-22.576,12.653-48.154,21.145-75.07,24.813l-84.439,10.261c-7.62,1.038-12.582,8.491-10.682,15.942
	c4.149,16.274,8.564,45.309,0.082,78.767c-1.998,7.881,3.309,15.748,11.366,16.846l83.673,10.156
	c29.91,4.076,58.169,14.111,82.491,29.19c0.403,0.249,0.78,0.528,1.141,0.821c0.056,0.046,0.115,0.089,0.17,0.136
	c0.341,0.287,0.66,0.592,0.961,0.912c0.054,0.057,0.106,0.116,0.159,0.174c0.3,0.333,0.582,0.679,0.839,1.042
	c0.024,0.034,0.045,0.069,0.069,0.104c0.265,0.383,0.508,0.781,0.722,1.191l0.009,0.016c0.216,0.417,0.402,0.848,0.564,1.288
	c0.015,0.042,0.032,0.083,0.046,0.125c0.155,0.437,0.285,0.882,0.385,1.336c0.007,0.034,0.014,0.068,0.021,0.101
	c0.202,0.955,0.285,1.939,0.229,2.933c-0.036,0.64-0.122,1.284-0.273,1.924c-13.675,58.255,30.569,113.915,90.212,113.915
	c8.464,0,16.66-1.347,24.449-3.814C280.684,460.895,252.036,419.456,257.087,374.368z"/>
<g>
	<path style="fill:#DBDBDB;" d="M0.619,179.583c-1.658-3.864,0.128-8.339,3.991-9.999l100.539-43.177
		c3.865-1.657,8.339,0.129,9.999,3.991c1.658,3.864-0.128,8.339-3.991,9.999L10.618,183.574
		C6.746,185.235,2.276,183.437,0.619,179.583z"/>
	<path style="fill:#DBDBDB;" d="M105.149,385.935L4.61,342.759c-3.863-1.659-5.649-6.135-3.991-9.999
		c1.658-3.863,6.136-5.648,9.999-3.991l100.539,43.177c3.863,1.659,5.649,6.135,3.991,9.999
		C113.491,385.802,109.019,387.596,105.149,385.935z"/>
	<path style="fill:#DBDBDB;" d="M185.068,227.08c-0.299-4.193-3.938-7.35-8.134-7.052L28.388,230.623
		c0.722,4.608,1.31,9.685,1.651,15.146l147.978-10.556C182.21,234.914,185.367,231.272,185.068,227.08z"/>
	<path style="fill:#DBDBDB;" d="M177.483,295.749c3.957,0,7.298-3.062,7.585-7.071c0.3-4.192-2.858-7.835-7.051-8.134
		l-148.27-10.577c-0.427,4.884-1.094,9.932-2.057,15.117C183.881,296.218,176.936,295.749,177.483,295.749z"/>
</g>
<g>
</g>
<g>
</g>
<g>
</g>
<g>
</g>
<g>
</g>
<g>
</g>
<g>
</g>
<g>
</g>
<g>
</g>
<g>
</g>
<g>
</g>
<g>
</g>
<g>
</g>
<g>
</g>
<g>
</g>
</svg>
