<svg id="Layer_1" enable-background="new 0 0 74 74" height="512" viewBox="0 0 74 74" width="512" xmlns="http://www.w3.org/2000/svg"><g><g><g><g><path d="m31.84 24.47c-.93-1.89-.96-4.07-.98-6.17-.03-3.98-.01-7.99 0-12 0-.72-.58-1.3-1.3-1.3h-3.48c-.72 0-1.3.58-1.3 1.3.01 5.55-.24 11.11-1.69 16.45-.97 3.59-2.49 7.08-2.67 10.8-.26 5.38 2.3 10.84.83 16.02 3.17-.59 6.45-1.62 9.16-3.36s5-4.25 6.11-7.28.93-6.58-.79-9.3c-1.15-1.82-2.94-3.22-3.89-5.16z" fill="#eae6d0"/><g fill="#c6db6a"><path d="m30.53 24.52c3.03 3.21 4.77 7.69 4.46 12.14-.1 1.31-.48 2.58-1.19 3.69-.69 1.12-1.62 2.08-2.63 2.94-2.01 1.72-4.37 3.07-6.17 5.05 1.85-1.93 4.22-3.22 6.29-4.91 1.03-.84 2-1.8 2.74-2.93.75-1.13 1.19-2.46 1.32-3.81.41-4.5-1.2-9.08-4.19-12.49z"/><path d="m28.66 25.43c.57.83 1.06 1.69 1.42 2.63 1 2.59.88 5.53.09 8.21-.79 2.7-2.21 5.19-3.79 7.53-1.59 2.33-3.5 4.49-5.87 6.07 2.4-1.53 4.37-3.65 6.02-5.96 1.64-2.32 3.12-4.79 3.99-7.53.87-2.71 1.07-5.75.08-8.51-.35-.97-.83-1.87-1.38-2.71z"/><path d="m25.81 26.82c.11.34.23.68.31 1.03.62 2.6.52 5.34-.04 7.97-1.12 5.3-4.09 10-7.17 14.43 3.18-4.35 6.26-8.98 7.53-14.35.63-2.65.79-5.46.22-8.17-.08-.4-.19-.79-.3-1.19z"/><path d="m22.62 28.38c.31 5.6-.63 11.3-2.78 16.53 2.39-5.24 3.56-11.04 3.42-16.84z"/></g><path d="m30.86 18.31c-.04-3.99-.02-8 0-12 0-.72-.58-1.3-1.3-1.3h-3.48c-.72 0-1.3.58-1.3 1.3.01 5.55-.24 11.11-1.69 16.45-.76 2.79-1.85 5.52-2.36 8.35 1.74.16 3.53-.28 4.9-1.36.53-.41 1.08-.94 1.75-.89.69.06 1.26.74 1.96.65 1.08-.13 1.21-1.81 2.2-2.24.72-.3 1.56.16 2.31-.03-.77-.86-1.5-1.75-2.01-2.76-.93-1.9-.97-4.08-.98-6.17z" fill="#9aba35"/></g><g><path d="m18.92 53.43c3.59-4.01 3.68-10.04 6.27-14.76 1.79-3.26 4.68-5.74 7.13-8.53 4.42-5.05 7.41-11.17 10.26-17.26.27-.59.91-.89 1.54-.77 1.07.21 2.2.36 3.31.46.97.08 1.57 1.11 1.14 1.99-2.41 4.99-4.94 9.98-7.32 14.98-.91 1.9-1.83 3.88-1.82 5.98.01 2.16 1 4.2 1.24 6.35.36 3.2-1.04 6.47-3.37 8.71s-5.48 3.49-8.68 3.86-6.59-.14-9.7-1.01z" fill="#f4f1d9"/><g fill="#c6db6a"><path d="m38.24 34.98c1.31 4.22.91 9-1.32 12.87-.66 1.13-1.57 2.11-2.68 2.8-1.11.7-2.37 1.15-3.65 1.49-2.56.66-5.27.85-7.76 1.83 2.51-.93 5.2-1.04 7.81-1.65 1.3-.31 2.59-.74 3.75-1.43 1.17-.69 2.15-1.69 2.86-2.84 2.35-3.86 2.9-8.69 1.7-13.06h-.71z"/><path d="m28.44 52.11c4.47-1.66 7.89-5.6 8.92-10.26-.5 4.77-4.26 9.1-8.92 10.26z"/><path d="m36.15 34.98c.15.99.21 1.99.12 2.99-.24 2.77-1.63 5.36-3.51 7.42-1.9 2.08-4.26 3.7-6.71 5.11-2.45 1.4-5.11 2.5-7.93 2.88 2.83-.32 5.53-1.36 8.02-2.72s4.9-2.93 6.89-5.01c1.97-2.06 3.48-4.7 3.8-7.61.11-1.03.07-2.04-.05-3.04h-.63z"/><path d="m32.99 34.98c-.06.36-.09.72-.17 1.07-.59 2.6-1.87 5.03-3.52 7.14-3.34 4.27-8.06 7.2-12.77 9.83 4.76-2.52 9.57-5.33 13.06-9.59 1.73-2.11 3.11-4.56 3.78-7.25.1-.39.18-.8.25-1.2z"/><path d="m29.44 34.98c-2.18 5.17-5.52 9.88-9.74 13.64 4.44-3.66 8.04-8.36 10.46-13.64z"/></g><path d="m48.58 14.56c-2.42 4.99-4.94 9.97-7.32 14.98-.91 1.89-1.83 3.86-1.83 5.97.01 1.14.28 2.26.6 3.37-.75-.16-1.31-.94-2.09-.98-1.08-.04-1.93 1.41-2.96 1.05-.67-.23-.88-1.09-1.48-1.45-.58-.34-1.31-.11-1.96.03-1.71.37-3.51-.01-5-.92 1.71-2.32 3.88-4.29 5.78-6.47 4.42-5.06 7.4-11.17 10.26-17.25.27-.6.91-.9 1.55-.77 1.07.2 2.2.36 3.3.45.98.09 1.58 1.11 1.15 1.99z" fill="#9aba35"/></g><g><path d="m13.6 35.13c1.89-7.22 1.35-15-1.64-21.83-.29-.67-.05-1.47.6-1.81.7-.37 1.42-.71 2.14-1.04.75-.34 1.63.08 1.88.86 2.01 6.24 3.88 12.41 4.92 18.9.19 1.21.94 2.22 1.96 2.9 1.37.91 2.01 2.46 2.67 3.92 1.57 3.51 7.12 6.93 9.59 14.84-.72.52-1.6.96-1.6.96-3.99 1.39-9.45-.9-13.34-4.32-3.96-3.49-5.58-8.37-7.18-13.38z" fill="#e8e4cd"/><path d="m24.61 34.2c-.31.4-.65.8-.98 1.19-.41.5-.85 1.01-1.46 1.26-.65.26-1.39.16-2.1.2-1.72.11-3.23 1.15-4.8 1.86-.13.06-.26.11-.4.16-.45-1.24-.85-2.49-1.26-3.75 1.89-7.22 1.35-15-1.63-21.83-.3-.67-.06-1.46.6-1.8.7-.37 1.42-.71 2.15-1.04.74-.34 1.62.07 1.88.85 2 6.24 3.88 12.4 4.92 18.9.2 1.21.95 2.22 1.96 2.9.42.3.81.67 1.12 1.1z" fill="#7ca31d"/></g><g><path d="m34.11 52.82s-1.64-2.22-2.4-3.45c-2.44-3.99-5.22-7.79-8.65-10.98-1.64-1.52-3.55-2.75-5-4.45-1.88-2.2-2.83-5.03-3.74-7.78l-4.01-12.11c-.3-.91-1.4-1.23-2.18-.66-.75.55-1.56 1.03-2.39 1.45-.68.34-.94 1.17-.61 1.85 2.6 5.29 4.95 10.94 4.71 16.78-.16 4-1.61 7.99-.84 11.92.37 1.92 1.26 3.71 2.38 5.31 1 1.43 2.29 2.68 3.87 3.43 3.05 1.43 6.53 1.32 9.8.91 2.39-.29 4.86-.47 7.09-1.45.54-.23 1.46-.34 1.97-.77z" fill="#f4f1d9"/><g fill="#c6db6a"><path d="m11.49 42.18c.57 1.42 1.12 2.84 1.82 4.18s1.56 2.61 2.69 3.6c1.11 1.01 2.49 1.67 3.94 2.09 1.45.43 2.96.66 4.47.91-1.52-.12-3.05-.26-4.54-.65-1.49-.38-2.93-1.06-4.1-2.09-1.15-1.05-2.03-2.36-2.69-3.74-.68-1.38-1.14-2.84-1.59-4.3z"/><g><path d="m11.13 36.19c-1.6 4.69-.8 10.21 2.23 14.21.76.99 1.73 1.81 2.87 2.33 1.13.53 2.38.81 3.63.97 2.5.32 5.08.17 7.55.81-2.48-.58-5.04-.36-7.57-.63-1.26-.13-2.53-.39-3.71-.91-1.19-.51-2.23-1.34-3.04-2.35-3.21-4.04-4.18-9.69-2.63-14.65z"/><path d="m13.22 33.06c-.49 2.64-.98 5.32-.42 7.92.55 2.59 2.18 4.87 4.2 6.59 2.04 1.74 4.47 2.98 6.94 4.03 2.48 1.03 5.13 1.75 7.84 1.78-2.71.04-5.39-.63-7.91-1.61-2.51-.99-4.98-2.19-7.11-3.92-2.11-1.71-3.85-4.03-4.5-6.74-.65-2.72-.19-5.51.24-8.16z"/><path d="m15.31 31.32c-.6 2.44-.34 5.06.52 7.44.86 2.39 2.37 4.53 4.18 6.33 3.66 3.64 8.47 5.84 13.24 7.76-4.8-1.81-9.68-3.9-13.48-7.51-1.89-1.79-3.48-3.94-4.43-6.4-.95-2.44-1.3-5.18-.72-7.79z"/><path d="m17.63 34.97c2.7 5.62 6.91 10.54 12.1 14.1-5.32-3.36-9.76-8.16-12.73-13.78z"/></g></g><path d="m20.6 36.32c-.94.82-2.06 1.36-3.28 1.44-1.46.1-3.07-.44-4.29.34-1.01.63-1.49 2.03-2.66 2.32-.48.11-.94.01-1.38-.23.28-2.23.77-4.48.87-6.71.24-5.85-2.12-11.5-4.71-16.79-.33-.67-.08-1.5.59-1.84.85-.43 1.67-.92 2.44-1.48s1.85-.23 2.14.67c1.34 4.04 2.67 8.08 4.01 12.12.91 2.76 1.86 5.58 3.75 7.79.75.87 1.63 1.63 2.52 2.37z" fill="#9aba35"/></g></g><path d="m46.51 12.47c-1.04 2.91-2.06 5.83-3.1 8.75-1.12 3.14-2.33 6.44-4.85 8.62-1.88 1.65-4.42 2.61-5.67 4.76-1.29 2.2-1.07 5.39-3.17 6.82-1.09.74-2.57.78-3.64 1.56-1.62 1.18-1.72 3.48-2.26 5.4-.78 2.74-2.67 5.03-4.93 6.75-1.26-.16-2.49-.47-3.64-1.01-1.58-.75-2.87-2-3.86-3.44-1.12-1.59-2-3.38-2.39-5.3-.16-.8-.21-1.61-.21-2.4 0-.94.09-1.88.2-2.81.01-.06.01-.11.03-.17.14-1.14.34-2.26.5-3.4.04-.21.07-.44.1-.65.04-.31.09-.61.11-.91.03-.27.04-.53.06-.8.03-.26.06-.53.07-.78.09-2.16-.18-4.28-.68-6.38-.01-.03-.01-.07-.03-.11 0-.03-.01-.06-.01-.09-.7-2.8-1.79-5.54-3.03-8.2-.31-.68-.64-1.35-.97-2.02-.1-.21-.13-.43-.13-.65.01-.48.26-.95.71-1.18.85-.43 1.68-.92 2.44-1.48.77-.57 1.85-.23 2.15.67.82 2.51 1.66 5.03 2.5 7.55l1.51 4.58c.11.36.24.71.36 1.07.1-4.77-.8-9.55-2.71-13.92-.3-.67-.06-1.46.6-1.8.7-.37 1.42-.71 2.15-1.04.57-.27 1.22-.07 1.61.4.11.13.21.28.27.45.37 1.12.71 2.26 1.07 3.38 1.45 4.67 2.74 9.35 3.59 14.18.03-.06.04-.13.06-.2.14-.5.28-.99.44-1.49.21-.68.43-1.36.64-2.05.04-.13.09-.26.13-.4.2-.63.38-1.26.57-1.9 0-.03.01-.04.01-.07.06-.21.1-.41.16-.63 1.31-5.16 1.55-10.5 1.53-15.83 0-.72.58-1.31 1.29-1.31h3.48c.72 0 1.31.58 1.31 1.31v.64c-.01 2.22-.01 4.42-.01 6.62 0 1.59 0 3.17.01 4.73 0 .75.01 1.51.06 2.24.1 1.36.33 2.71.92 3.92.23.47.5.9.8 1.31.03.03.06.07.09.11.26.33.51.65.78.97.11.13.23.26.34.38h-.01c.14.17.28.33.43.5 3.08-4.12 5.44-8.75 7.66-13.43.21-.47.44-.95.67-1.42.03-.06.07-.1.11-.16.14-.24.34-.41.6-.53.26-.1.54-.14.84-.09.73.17 1.54.3 2.34.38z" fill="#fff" opacity=".1"/><path d="m20.7 33.53c-.4 1.53.88 2.94 1.38 4.45.99 2.94-1.07 6.02-3.4 8.07-2.17 1.92-4.69 3.42-7.39 4.49-1.08-1.55-1.92-3.28-2.29-5.14-.16-.8-.21-1.61-.21-2.4 0-.94.09-1.88.2-2.81.01-.06.01-.11.03-.17.14-1.14.34-2.26.5-3.4.04-.21.07-.44.1-.65.04-.31.09-.61.11-.91.03-.27.04-.53.06-.8.03-.26.06-.53.07-.78.09-2.16-.18-4.28-.68-6.38-.01-.03-.01-.07-.03-.11 0-.03-.01-.06-.01-.09-.7-2.8-1.79-5.54-3.03-8.2-.31-.68-.64-1.35-.97-2.02-.1-.21-.13-.43-.13-.65.01-.48.26-.95.71-1.18.85-.43 1.68-.92 2.44-1.48.77-.57 1.85-.23 2.15.67.82 2.51 1.66 5.03 2.5 7.55l1.51 4.58c.11.36.24.71.36 1.07.1-4.77-.8-9.55-2.71-13.92-.3-.67-.06-1.46.6-1.8.7-.37 1.42-.71 2.15-1.04.57-.27 1.22-.07 1.61.4.11.13.21.28.27.45.37 1.12.71 2.26 1.07 3.38 1.45 4.67 2.74 9.35 3.59 14.18.03-.06.04-.13.06-.2.14-.5.28-.99.44-1.49.21-.68.43-1.36.64-2.05.04-.13.09-.26.13-.4.2-.63.38-1.26.57-1.9 0-.03.01-.04.01-.07.06-.21.1-.41.16-.63 1.31-5.16 1.55-10.5 1.53-15.83 0-.72.58-1.31 1.29-1.31h.34c-.95 5.3-1.22 10.63.16 15.79.41 1.55.98 3.08 1.09 4.69s-.3 3.35-1.53 4.39c-1.74 1.44-4.88 1.46-5.45 3.65z" fill="#fff" opacity=".1"/><path d="m48.72 13.89c0 .21-.03.44-.14.67-.74 1.52-1.49 3.04-2.23 4.56-.8 1.59-1.56 3.18-2.34 4.77-.92 1.88-1.85 3.75-2.74 5.64-.31.67-.64 1.34-.92 2.02-.51 1.28-.91 2.59-.91 3.95 0 .21.03.43.04.64 0 .06 0 .13.01.18 0 .09.01.16.03.24.03.21.06.41.1.63 0 .01.01.04.01.07.11.54.24 1.07.4 1.61h-.01c.27.98.55 1.98.67 2.98.36 3.21-1.05 6.48-3.37 8.71-.5.48-1.02.88-1.59 1.29-.72.53-1.61.97-1.61.97-.31.26-.75.4-1.19.51-.57.24-1.15.44-1.76.6-1.96.65-4.05.85-6.1 1.11-3.28.4-6.76.51-9.8-.91-1.45-.7-2.64-1.79-3.61-3.08.4.28.84.54 1.29.75 3.04 1.44 6.52 1.32 9.79.91 2.05-.24 4.15-.44 6.11-1.09.6-.17 1.19-.37 1.76-.6.43-.13.88-.27 1.19-.53 0 0 .88-.43 1.59-.95 0 0 0 0 0-.01.57-.38 1.09-.81 1.59-1.28 2.33-2.24 3.74-5.51 3.37-8.71-.11-1.01-.4-2-.65-3 0 0 0 .01.01.01-.16-.54-.3-1.08-.4-1.62-.01-.01-.01-.04-.01-.07-.04-.2-.07-.41-.1-.61-.01-.09-.03-.17-.04-.24v-.2c-.03-.2-.04-.41-.04-.63 0-1.36.38-2.69.91-3.95.28-.68.6-1.36.92-2.02.88-1.89 1.82-3.77 2.74-5.66.78-1.59 1.55-3.18 2.33-4.77.72-1.46 1.45-2.91 2.16-4.36.43.06.85.1 1.26.14.73.07 1.24.67 1.28 1.33z" opacity=".1"/></g><g><path d="m44.34 18.24c.2 7.54-.53 15.1-2.17 22.46l4.34.8c1.18-7.47 1.77-15.03 1.9-22.6.01-.48-.29-.91-.74-1.07l-1.85-.67c-.74-.26-1.5.3-1.48 1.08z" fill="#b1c949"/><path d="m56.91 22.38c-3.03 8.1-6.81 15.92-11.3 23.32l5.57 2.34c3.41-7.99 6.6-16.07 9.6-24.22.21-.58-.09-1.22-.66-1.43l-1.81-.66c-.56-.21-1.18.08-1.4.65z" fill="#a6b73e"/><path d="m68.99 25.62-4.95-1.81c-2.78 6.44-5.51 12.96-10.04 18.14-1.2 1.37-3.33 1.43-4.56.08-.96-1.06-1.43-2.48-2.22-3.68-.81-1.23-2.25-2.3-3.66-1.88-.45.13-1 .39-1.32.04-.16-.18-.17-.45-.16-.7.14-6.44-.01-12.82 0-19.24 0-.47-.29-.88-.73-1.04l-3.22-1.17c-.67-.24-1.41.19-1.49.9-.8 6.84.39 13.89.18 20.83-.07 2.29-.85 4.54-2.39 6.25-3.13 3.46-5.21 7.86-5.85 12.48-.2 1.47-.26 2.99.18 4.41.66 2.15 2.41 3.83 4.38 4.91 2.31 1.26 5.25 1.02 7.33 2.83 1.71 1.49 3.93 2.36 6.16 1.89 6.05-1.26 7.25-6.37 8.47-10.98 3.01-11.36 7.91-22.13 13.89-32.26z" fill="#f4f1d9"/><path d="m69 25.63-4.96-1.81c-2.78 6.43-5.51 12.95-10.03 18.14-.95 1.07-2.49 1.35-3.69.76.38.4.82.77 1.18 1.2 1.6 1.96 1.35 4.8 2.23 7.16.49 1.28 1.33 2.41 2.41 3.25 3.02-10.07 7.51-19.64 12.86-28.7z" fill="#b1c949"/><g fill="#e8e4cf"><path d="m40.9 66.32c2.11-.28 4.32-.53 6.02-1.74 1.68-1.21 2.64-3.18 3.27-5.17 1.37-3.99 1.28-8.4-.02-12.48 1.87 3.89 2.05 8.56.7 12.71-.71 2.02-1.72 4.15-3.64 5.4-1.94 1.21-4.21 1.28-6.33 1.28z"/><path d="m35.66 63.22c-.99-.12-1.92-.63-2.66-1.32-.73-.71-1.27-1.61-1.62-2.57-.66-1.98-.33-4.12.33-6.01 1.46-3.75 4.16-7.02 7.61-8.99-1.55 1.23-2.96 2.61-4.13 4.17-1.17 1.55-2.17 3.25-2.82 5.07-.69 1.79-.98 3.77-.48 5.6.52 1.8 1.85 3.49 3.77 4.05z"/><path d="m35.05 60.83c-.85-1.45-1.1-3.22-.92-4.91.18-1.7.8-3.34 1.71-4.79.92-1.43 2.1-2.69 3.41-3.73 1.31-1.06 2.73-1.95 4.21-2.72-2.65 2-5.28 4.07-7.03 6.83-.87 1.36-1.47 2.89-1.77 4.48-.27 1.6-.19 3.28.39 4.84z"/><path d="m36.33 59.74c-.84-1.06-1-2.55-.71-3.88.27-1.36 1.04-2.56 1.93-3.56.91-1 1.93-1.86 3-2.64 1.08-.78 2.21-1.47 3.41-2.02-1.05.8-2.09 1.6-3.08 2.45-.98.86-1.96 1.72-2.81 2.68-.85.95-1.56 2.02-1.93 3.23-.35 1.2-.38 2.55.19 3.74z"/><path d="m41.71 63.6c1.41-.38 2.63-1.23 3.52-2.31s1.48-2.39 1.78-3.77c.32-1.38.36-2.81.27-4.24s-.35-2.87-.57-4.31c.51 1.37.91 2.79 1.12 4.26.22 1.46.21 2.98-.12 4.45-.34 1.46-1 2.89-2.06 3.98-1.05 1.07-2.46 1.85-3.94 1.94z"/><path d="m38.18 60.23c-.36-2.17.21-4.48 1.35-6.38 1.15-1.9 2.92-3.48 5.01-4.18-3.65 2.37-5.97 6.23-6.36 10.56z"/><path d="m40.18 61.66c3.14-2.42 5.02-5.97 5.27-9.93.43 1.96.02 4.08-.93 5.87s-2.48 3.32-4.34 4.06z"/></g><path d="m42.19 36.42c-.09-.17-.1-.38-.1-.6.14-6.43 0-12.82 0-19.23 0-.47-.29-.88-.73-1.04l-3.22-1.17c-.67-.24-1.41.19-1.49.9-.81 6.86.39 13.93.18 20.88-.07 2.29-.88 4.52-2.42 6.22-1.1 1.23-2.07 2.57-2.89 4 2.01.38 4 .34 5.73-.71 2.38-1.43 3.39-4.31 4.2-6.97.26-.76.51-1.52.74-2.28z" fill="#b1c949"/><path d="m68.99 25.62-1.97-.72c-5.49 9.59-10.01 19.72-12.82 30.4-1.22 4.62-2.43 9.73-8.47 10.99-2.22.46-4.45-.41-6.16-1.9-2.08-1.8-5.01-1.57-7.33-2.83-1.49-.81-2.85-1.98-3.7-3.42.05.37.13.73.24 1.09.67 2.15 2.4 3.84 4.38 4.91 2.31 1.26 5.25 1.02 7.33 2.84 1.71 1.49 3.93 2.36 6.16 1.89 6.04-1.26 7.25-6.37 8.47-10.98 2.99-11.37 7.88-22.14 13.87-32.27z" opacity=".1"/><g fill="#fff"><path d="m64.04 23.82c-2.78 6.43-5.51 12.95-10.03 18.14-1.21 1.36-3.34 1.43-4.57.09-.96-1.06-1.42-2.49-2.21-3.68-.81-1.23-2.25-2.3-3.66-1.88-.44.14-1 .39-1.31.04-.16-.18-.17-.44-.17-.7.14-6.43-.01-12.82 0-19.23 0-.47-.29-.88-.73-1.04l-3.22-1.17c-.67-.24-1.41.19-1.49.9-.8 6.85.39 13.93.19 20.88-.07 2.27-.86 4.51-2.39 6.19-3.12 3.46-5.2 7.87-5.84 12.49-.2 1.47-.26 2.99.18 4.41.28.89.73 1.69 1.31 2.41.98-.02 1.95-.12 2.92-.33 2.37-.51 4.67-1.86 5.75-4.04.6-1.23.85-2.73 1.9-3.62 1.91-1.62 5.13-.14 7.19-1.55 2.38-1.64 1.79-6.11 4.51-7.1.61-.23 1.31-.2 1.93-.44 1.24-.46 1.91-1.75 2.46-2.96 2.67-5.84 5.35-11.68 8.03-17.52z" opacity=".1"/><path d="m43.57 36.48c-.44.14-1 .39-1.31.04-.16-.18-.17-.44-.17-.7.14-6.43-.01-12.82 0-19.23 0-.47-.29-.88-.73-1.04l-3.22-1.17c-.67-.24-1.41.19-1.49.9-.8 6.85.39 13.93.19 20.88-.07 2.27-.86 4.51-2.39 6.19-3.12 3.46-5.2 7.87-5.84 12.49-.08.59-.15 1.19-.15 1.79 1.87.02 3.74-.43 5.39-1.31 3.41-1.81 5.79-5.3 6.48-9.09.14-.72.22-1.48.64-2.08.83-1.19 2.53-1.26 3.86-1.86 1.31-.61 2.22-1.74 2.91-3.05-.15-.3-.32-.58-.5-.86-.82-1.25-2.26-2.32-3.67-1.9z" opacity=".1"/></g></g></g></svg>