<svg id="Capa_1" enable-background="new 0 0 512 512" height="512" viewBox="0 0 512 512" width="512" xmlns="http://www.w3.org/2000/svg"><g><g><path d="m167.849 218.006-56.47 23.856c-48.971 20.688-84.07 64.849-93.171 117.226-3.371 19.401.078 39.372 9.761 56.519l.471.834c9.165 16.231 22.829 28.281 38.522 35.502 4.832 2.224-6.752-24.287-5.784-26.996 3.994-11.181-4.759-29.36-4.759-29.36l13.104-60.546 38.817-61.098z" fill="#fff3d7"/></g><g><path d="m167.849 218.006-22.804 16.476c-49.187 35.536-83.251 84.612-96.666 139.267-6.739 27.456.269 55.814 18.593 78.172 24.773 11.399 54.595 10.79 79.782-4.42l43.275-238.865z" fill="#f7e1b5"/></g><g><path d="m219.104 202.736-3.829-14.886-56.638 46.632c-43.161 35.537-73.052 84.612-84.824 139.267-7.186 33.363 3.427 68.068 28.044 91.706 21.12 20.279 50.017 29.974 78.768 26.854 3.512-.381-5.068-8.924-1.575-9.692l-34.614-61.811 29.175-116.699z" fill="#fff3d7"/></g><g><path d="m344.151 218.006 56.47 23.856c48.971 20.688 84.07 64.849 93.171 117.226 3.371 19.401-.078 39.372-9.76 56.519l-.471.834c-9.165 16.231-22.829 28.281-38.522 35.502-9.865 4.54-1.518-6.744-.448-12.842 1.617-9.214 0-16.318 0-16.318l6.923-56.372-31.913-75.162z" fill="#fff3d7"/></g><g><path d="m463.622 373.749c-13.415-54.655-47.479-103.731-96.666-139.267l-22.804-16.476-22.179-9.37 43.275 238.865c25.187 15.21 55.009 15.819 79.782 4.42 18.323-22.357 25.331-50.716 18.592-78.172z" fill="#f7e1b5"/></g><g><path d="m296.725 187.85 56.638 46.632c43.161 35.537 73.052 84.612 84.824 139.267 7.186 33.363-3.427 68.068-28.044 91.706-21.12 20.279-50.017 29.974-78.768 26.854-3.512-.381 1.061-3.732-2.432-4.5l10.941-7.788 18.667-77.017-26.826-118.43-36.469-72.69z" fill="#fff3d7"/></g><g><path d="m241.744 479.468-9.327-305.732-17.143 14.114c-5.436 30.757-18.237 60.654-37.947 88.266-26.889 37.67-40.938 79.589-40.938 122.147v25.642c0 26.751 16.484 51.804 44.235 68.391 3.512-.381 7.022-.942 10.515-1.709z" fill="#f7e1b5"/></g><g><path d="m375.611 423.906v-25.642c0-42.558-14.05-84.478-40.939-122.148-19.71-27.612-32.511-57.51-37.947-88.267l-17.143-14.114-9.327 305.732 50.605 11.12c3.493.768 7.003 1.328 10.515 1.709 27.752-16.586 44.236-41.639 44.236-68.39z" fill="#f7e1b5"/></g><g><path d="m283.791 153.969v-14.861l-27.791-73.597-27.791 73.597v14.861c0 42.558-10.348 84.478-30.151 122.147-19.804 37.67-30.151 79.589-30.151 122.147v25.642c0 30.879 16.168 59.504 42.614 75.446 27.975 16.864 62.985 16.864 90.96 0 26.446-15.942 42.614-44.567 42.614-75.446v-25.642c0-42.558-10.348-84.478-30.151-122.148-19.805-37.668-30.153-79.588-30.153-122.146z" fill="#fff3d7"/></g><g><path d="m283.791 13.492v125.615l-14.575-24.642c-4.928-8.332-15.767-9.756-22.716-4.272-1.432 1.131-3.739-2.386-4.755-.668l.786-8.159-1.483-50.809c0-11.806-1.808-23.155 8.159-29.484l9.643-10.755c5.473-3.475 16.219-10.63 20.454-6.875 2.705 2.4 4.487 5.907 4.487 10.049z" fill="#41c47d"/></g><g><path d="m246.505 43.23c0-11.806 6.038-22.793 16.005-29.121l16.788-10.66c-4.235-3.755-10.729-4.805-16.202-1.33l-18.883 11.99c-9.967 6.328-16.005 17.315-16.005 29.121v95.878l14.576-24.642c1.016-1.718 2.288-3.135 3.721-4.266z" fill="#3cb372"/></g></g></svg>