<?xml version="1.0" encoding="iso-8859-1"?>
<!-- Generator: Adobe Illustrator 19.0.0, SVG Export Plug-In . SVG Version: 6.00 Build 0)  -->
<svg version="1.1" id="Layer_1" xmlns="http://www.w3.org/2000/svg" xmlns:xlink="http://www.w3.org/1999/xlink" x="0px" y="0px"
	 viewBox="0 0 512 512" style="enable-background:new 0 0 512 512;" xml:space="preserve">
<path style="fill:#877E73;" d="M483.248,512h-22.344L422.737,73.091c-1.849-21.255-15.171-38.663-33.614-46.44L345.565,395.69
	c-0.669,5.661-5.476,9.827-11.04,9.827c-0.435,0-0.875-0.026-1.319-0.078c-6.104-0.72-10.469-6.254-9.749-12.359l43.768-370.819
	H144.775l43.768,370.82c0.72,6.105-3.644,11.638-9.749,12.359c-0.443,0.052-0.883,0.078-1.319,0.078
	c-5.564,0-10.371-4.165-11.04-9.827L122.877,26.653c-18.444,7.777-31.766,25.185-33.614,46.44L51.096,512H28.752L67.085,71.164
	c1.693-19.473,10.561-37.472,24.968-50.68C106.46,7.275,125.16,0,144.706,0h222.589c19.546,0,38.244,7.275,52.652,20.483
	c14.407,13.208,23.275,31.208,24.968,50.68L483.248,512z"/>
<path style="fill:#665A4B;" d="M512,500.87c0,6.147-4.983,11.13-11.13,11.13h-66.783c-6.147,0-11.13-4.983-11.13-11.13
	c0-6.147,4.983-11.13,11.13-11.13h66.783C507.017,489.739,512,494.722,512,500.87z M77.913,489.739H11.13
	c-6.147,0-11.13,4.983-11.13,11.13C0,507.017,4.983,512,11.13,512h66.783c6.147,0,11.13-4.983,11.13-11.13
	C89.043,494.722,84.06,489.739,77.913,489.739z"/>
<path style="fill:#A6BE65;" d="M352.059,294.324l6.027,102.458c2.044,34.743-25.58,64.04-60.384,64.04h-83.406
	c-34.803,0-62.427-29.296-60.384-64.04l6.027-102.458c2.992-50.862,45.111-90.575,96.059-90.575l0,0
	C306.95,203.749,349.068,243.463,352.059,294.324z"/>
<path style="fill:#80995F;" d="M325.904,292.442l4.385,78.996c1.487,26.786-18.616,49.375-43.942,49.375h-60.695
	c-25.326,0-45.429-22.588-43.942-49.375l4.385-78.996c2.178-39.214,32.828-69.833,69.905-69.833l0,0
	C293.077,222.609,323.726,253.229,325.904,292.442z"/>
<path style="fill:#53605F;" d="M357.946,394.386H267.13v66.436H244.87v-66.436h-90.815l1.309-22.261h201.272L357.946,394.386z"/>
<g>
</g>
<g>
</g>
<g>
</g>
<g>
</g>
<g>
</g>
<g>
</g>
<g>
</g>
<g>
</g>
<g>
</g>
<g>
</g>
<g>
</g>
<g>
</g>
<g>
</g>
<g>
</g>
<g>
</g>
</svg>
