<svg id="Capa_1" enable-background="new 0 0 512 512" height="512" viewBox="0 0 512 512" width="512" xmlns="http://www.w3.org/2000/svg"><g><path d="m480 384h-448v-21.34c0-24.419 19.795-44.214 44.214-44.214h359.573c24.419 0 44.214 19.795 44.214 44.214v21.34z" fill="#eaf6ff"/><path d="m384 224.555h32v171.445h-32z" fill="#fff39f"/><path d="m384 224.555h20v171.445h-20z" fill="#ffe07d"/><g><path d="m172.343 71.614c-4.268 0-7.726-3.459-7.726-7.726v-31.112c0-4.267 3.459-7.726 7.726-7.726s7.726 3.459 7.726 7.726v31.111c.001 4.267-3.458 7.727-7.726 7.727z" fill="#eaf6ff"/></g><g><path d="m339.556 85.504c-4.268 0-7.726-3.459-7.726-7.726v-45.002c0-4.267 3.459-7.726 7.726-7.726s7.726 3.459 7.726 7.726v45.001c0 4.268-3.458 7.727-7.726 7.727z" fill="#eaf6ff"/></g><g><path d="m256 115.263c-4.268 0-7.726-3.459-7.726-7.726v-75.537c0-4.267 3.459-7.726 7.726-7.726s7.726 3.459 7.726 7.726v75.537c0 4.267-3.458 7.726-7.726 7.726z" fill="#eaf6ff"/></g><path d="m345 32h-178c-3.866 0-7-3.134-7-7 0-13.807 11.193-25 25-25h142c13.807 0 25 11.193 25 25 0 3.866-3.134 7-7 7z" fill="#97da7b"/><path d="m190 25c0-13.807 11.193-25 25-25h-30c-13.807 0-25 11.193-25 25 0 3.866 3.134 7 7 7h30c-3.866 0-7-3.134-7-7z" fill="#79cf59"/><circle cx="339.556" cy="98.11" fill="#e877b0" r="19.556"/><path d="m340 98.11c0-7.141 3.84-13.37 9.556-16.783-2.929-1.749-6.341-2.773-10-2.773-10.8 0-19.556 8.755-19.556 19.556s8.755 19.556 19.556 19.556c3.659 0 7.071-1.023 10-2.773-5.716-3.414-9.556-9.642-9.556-16.783z" fill="#d665a8"/><path d="m255.989 396h234v84h-234z" fill="#ba8874"/><path d="m255.99 396h30v84h-30z" fill="#a87567"/><path d="m19.989 396h236.011v84h-236.011z" fill="#ba8874"/><path d="m19.989 396h42.011v84h-42.011z" fill="#a87567"/><path d="m96 224.555h32v171.445h-32z" fill="#fff39f"/><path d="m96 224.555h20v171.445h-20z" fill="#ffe07d"/><path d="m192 224.555h32v171.445h-32z" fill="#fff39f"/><path d="m192 224.555h20v171.445h-20z" fill="#ffe07d"/><path d="m288 224.555h32v171.445h-32z" fill="#fff39f"/><path d="m288 224.555h20v171.445h-20z" fill="#ffe07d"/><path d="m19.989 384h470.011v32h-470.011z" fill="#ffe07d"/><path d="m19.989 396h470.011v20h-470.011z" fill="#ffd064"/><path d="m20.009 212.555h469.991v32h-469.991z" fill="#ffe07d"/><path d="m20.009 224.555h469.991v20h-469.991z" fill="#ffd064"/><g><g><path d="m160 455.726h-32c-4.268 0-7.726-3.459-7.726-7.726s3.459-7.726 7.726-7.726h32c4.268 0 7.726 3.459 7.726 7.726.001 4.267-3.458 7.726-7.726 7.726z" fill="#fff39f"/></g></g><g><g><path d="m383.989 455.726h-32c-4.268 0-7.726-3.459-7.726-7.726s3.459-7.726 7.726-7.726h32c4.268 0 7.726 3.459 7.726 7.726s-3.458 7.726-7.726 7.726z" fill="#fff39f"/></g></g><path d="m178.032 67.423 6.104 12.369c.924 1.872 2.71 3.17 4.776 3.47l13.65 1.983c5.203.756 7.28 7.15 3.516 10.82l-9.877 9.628c-1.495 1.457-2.177 3.557-1.824 5.615l2.332 13.595c.889 5.182-4.55 9.134-9.204 6.687l-12.209-6.418c-1.848-.972-4.056-.972-5.904 0l-12.209 6.418c-4.654 2.447-10.093-1.505-9.204-6.687l2.332-13.595c.353-2.058-.329-4.157-1.824-5.615l-9.877-9.628c-3.765-3.67-1.687-10.064 3.516-10.82l13.65-1.983c2.066-.3 3.852-1.598 4.776-3.47l6.104-12.369c2.326-4.714 9.049-4.714 11.376 0z" fill="#ffe07d"/><path d="m177.979 124.902 2.332-13.594c.353-2.058-.329-4.157-1.824-5.615l-9.877-9.628c-3.765-3.67-1.687-10.064 3.516-10.82l13.65-1.983c.547-.079 1.072-.233 1.569-.444-1.38-.587-2.528-1.649-3.207-3.026l-6.104-12.369c-2.327-4.715-9.05-4.715-11.376 0l-6.104 12.369c-.924 1.872-2.71 3.17-4.776 3.47l-13.65 1.983c-5.203.756-7.281 7.15-3.516 10.82l9.877 9.628c1.495 1.457 2.177 3.557 1.824 5.615l-2.332 13.594c-.889 5.182 4.55 9.134 9.204 6.687l12.209-6.418c1.848-.971 4.056-.971 5.904 0l2.623 1.379c-.048-.532-.039-1.08.058-1.648z" fill="#ffd064"/><path d="m260.631 132.332c0-11.005 4.46-20.969 11.671-28.181 4.293-4.294 1.434-11.689-4.637-11.677-.642.001-1.287.018-1.936.05-19.986.983-36.375 17.026-37.749 36.989-1.602 23.289 16.815 42.679 39.762 42.679h.175c5.972-.026 8.756-7.344 4.515-11.548-7.287-7.224-11.801-17.241-11.801-28.312z" fill="#8ac9fe"/><path d="m247.981 129.512c1.069-15.538 11.236-28.698 25.114-34.234-1.153-1.654-3.036-2.81-5.43-2.805-.642.001-1.287.018-1.936.049-19.986.983-36.375 17.026-37.749 36.989-1.602 23.289 16.815 42.679 39.762 42.679h.175c2.326-.01 4.158-1.133 5.29-2.74-15.642-6.13-26.47-21.856-25.226-39.938z" fill="#60b7ff"/><path d="m25 512h-18c-3.866 0-7-3.134-7-7v-308.445c0-8.837 7.163-16 16-16 8.837 0 16 7.163 16 16v308.445c0 3.866-3.134 7-7 7z" fill="#fff39f"/><path d="m20 505v-308.445c0-5.05 2.345-9.547 6-12.479-2.74-2.199-6.214-3.521-10-3.521-8.837 0-16 7.163-16 16v308.445c0 3.866 3.134 7 7 7h18c.34 0 .673-.033 1-.08-3.391-.486-6-3.394-6-6.92z" fill="#ffe07d"/><path d="m505 512h-18c-3.866 0-7-3.134-7-7v-308.445c0-8.837 7.163-16 16-16 8.837 0 16 7.163 16 16v308.445c0 3.866-3.134 7-7 7z" fill="#fff39f"/><path d="m500 505v-308.445c0-5.05 2.345-9.547 6-12.479-2.74-2.199-6.214-3.521-10-3.521-8.836 0-16 7.163-16 16v308.445c0 3.866 3.134 7 7 7h18c.34 0 .673-.033 1-.08-3.391-.486-6-3.394-6-6.92z" fill="#ffe07d"/></g></svg>