<svg height="512" viewBox="0 0 512 512" width="512" xmlns="http://www.w3.org/2000/svg"><g id="flat"><path d="m136 159.5h16v95h-16z" fill="#48bdff"/><path d="m248 112h16v104h-16z" fill="#48bdff"/><path d="m360 159.5h16v104.5h-16z" fill="#48bdff"/><path d="m256 264 11.064 11.064a16.854 16.854 0 0 0 11.917 4.936h.166a16.853 16.853 0 0 0 16.853-16.853v-.166a16.854 16.854 0 0 0 -4.936-11.917l-3.064-3.064 6.684-3.342a16.854 16.854 0 0 0 9.316-15.074 16.853 16.853 0 0 0 -20.94-16.349 41.155 41.155 0 0 0 -19.121 10.826l-7.939 7.939-7.939-7.939a41.155 41.155 0 0 0 -19.121-10.826 16.853 16.853 0 0 0 -20.94 16.349 16.854 16.854 0 0 0 9.316 15.074l6.684 3.342-3.064 3.064a16.854 16.854 0 0 0 -4.936 11.917v.166a16.853 16.853 0 0 0 16.853 16.853h.166a16.854 16.854 0 0 0 11.917-4.936z" fill="#ff2b63"/><rect fill="#48bdff" height="32" rx="8" width="16" x="248" y="232"/><g fill="#ffcd01"><ellipse cx="127.029" cy="255.029" rx="16" ry="24" transform="matrix(.707 -.707 .707 .707 -143.127 164.52)"/><ellipse cx="160.971" cy="255.029" rx="24" ry="16" transform="matrix(.707 -.707 .707 .707 -133.186 188.52)"/><ellipse cx="127.029" cy="288.971" rx="24" ry="16" transform="matrix(.707 -.707 .707 .707 -167.127 174.461)"/><ellipse cx="160.971" cy="288.971" rx="16" ry="24" transform="matrix(.707 -.707 .707 .707 -157.186 198.461)"/></g><circle cx="144" cy="272" fill="#48bdff" r="16"/><path d="m408 256-26.083 6.521a38.2 38.2 0 0 0 -21.917-6.521c-17.673 0-32 10.745-32 24s14.327 24 32 24a38.2 38.2 0 0 0 21.917-6.521l26.083 6.521-8-24z" fill="#8726e2"/><path d="m256 224a7.974 7.974 0 0 1 -5.657-2.343l-18.343-18.343a8 8 0 0 1 0-11.314 8 8 0 0 1 11.314 0l12.686 12.687 12.686-12.687a8 8 0 0 1 11.314 0 8 8 0 0 1 0 11.314l-18.343 18.343a7.974 7.974 0 0 1 -5.657 2.343z" fill="#ff2b63"/><circle cx="256" cy="216" fill="#8726e2" r="16"/><rect fill="#48bdff" height="16" rx="8" width="16" x="344" y="264"/><path d="m256 104c-123.712 0-224 100.288-224 224v16h32v-16c0-106.039 85.961-192 192-192s192 85.961 192 192v8h32v-8c0-123.712-100.288-224-224-224z" fill="#ff2b63"/><path d="m423.947 179.8c.022 1.4.053 2.8.053 4.2a265.738 265.738 0 0 1 -3.755 44.511 191.1 191.1 0 0 1 27.755 99.489v16h32v-16a223.134 223.134 0 0 0 -56.053-148.2z" fill="#e5235f"/><path d="m32 336h32v40h-32z" fill="#8726e2"/><path d="m24 400h48v-8a24 24 0 0 0 -24-24 24 24 0 0 0 -24 24z" fill="#48bdff"/><path d="m448 336h32v40h-32z" fill="#8726e2"/><path d="m440 400h48v-8a24 24 0 0 0 -24-24 24 24 0 0 0 -24 24z" fill="#48bdff"/><path d="m72 400h368a32 32 0 0 0 -32-32h-304a32 32 0 0 0 -32 32z" fill="#ff2b63"/><path d="m408 368h-58.71a265.351 265.351 0 0 1 -37.483 32h128.193a32 32 0 0 0 -32-32z" fill="#e5235f"/></g></svg>