<svg id="Layer_1" height="512" viewBox="0 0 48 48" width="512" xmlns="http://www.w3.org/2000/svg" data-name="Layer 1"><path d="m42 39h-4c-.552 0-1 .448-1 1v4c0 1.105.895 2 2 2h2c1.105 0 2-.895 2-2v-4c0-.552-.448-1-1-1z" fill="#ec7d6e"/><path d="m10 39h-4c-.552 0-1 .448-1 1v4c0 1.105.895 2 2 2h2c1.105 0 2-.895 2-2v-4c0-.552-.448-1-1-1z" fill="#ec7d6e"/><path d="m42 31.71h-36c-.552 0-1-.448-1-1v-13.71c0-3.86 3.14-7 7-7h24c3.86 0 7 3.14 7 7v13.71c0 .552-.448 1-1 1z" fill="#f6a28d"/><path d="m9 16.29c0-2.5.943-4.739 2.426-6.261-3.591.294-6.426 3.305-6.426 6.971v13.71c0 .552.448 1 1 1h3z" fill="#ec7d6e"/><path d="m22 28h-12c-.552 0-1-.448-1-1v-4c0-2.206 1.794-4 4-4h6c2.206 0 4 1.794 4 4v4c0 .552-.448 1-1 1z" fill="#fff1e9"/><path d="m38 28h-12c-.552 0-1-.448-1-1v-4c0-2.206 1.794-4 4-4h6c2.206 0 4 1.794 4 4v4c0 .552-.448 1-1 1z" fill="#fff1e9"/><path d="m11 21v-1.444c-1.19.694-2 1.97-2 3.444v4c0 .552.448 1 1 1h12c.552 0 1-.448 1-1v-4h-10c-1.105 0-2-.895-2-2z" fill="#ffcdb4"/><path d="m27 21v-1.444c-1.19.694-2 1.97-2 3.444v4c0 .552.448 1 1 1h12c.552 0 1-.448 1-1v-4h-10c-1.105 0-2-.895-2-2z" fill="#ffcdb4"/><path d="m39 25h-30c-3.866 0-7 3.134-7 7v6c0 1.657 1.343 3 3 3h38c1.657 0 3-1.343 3-3v-6c0-3.866-3.134-7-7-7z" fill="#fff1e9"/><path d="m6 39v-8c0-2.551 1.369-4.777 3.408-6h-.408c-3.866 0-7 3.134-7 7v6c0 1.657 1.343 3 3 3h1.779c-.479-.532-.779-1.228-.779-2z" fill="#ffcdb4"/><path d="m2 34v4c0 1.657 1.343 3 3 3h38c1.657 0 3-1.343 3-3v-4z" fill="#f6a28d"/><path d="m6 39v-5h-4v4c0 1.657 1.343 3 3 3h1.779c-.479-.532-.779-1.228-.779-2z" fill="#ec7d6e"/><path d="m20.687 13.339-3.313-3.321c-1.831-1.836-1.831-4.807 0-6.643 1.829-1.833 4.798-1.833 6.627 0s0 0 0 0c1.829-1.833 4.798-1.833 6.627 0 1.831 1.836 1.831 4.807 0 6.643s-3.313 3.321-3.313 3.321l-1.897 1.902c-.781.783-2.05.783-2.832 0l-1.897-1.902z" fill="#ff3b65"/><path d="m17.373 3.375c.175-.176.37-.32.564-.462-.467 1.712-.051 3.613 1.291 4.959l3.604 3.613 2.064 2.069c.432.433 1.001.643 1.567.636l-1.048 1.051c-.781.783-2.05.783-2.832 0l-1.897-1.902-3.313-3.321c-1.831-1.836-1.831-4.807 0-6.643z" fill="#d82b50" opacity=".75"/><path d="m28.993 7.54c.029 0 .059 0 .088-.004.55-.048.957-.533.909-1.083-.055-.628-.331-1.219-.777-1.665s-1.037-.722-1.665-.777c-.549-.048-1.036.358-1.083.909-.048.55.358 1.035.909 1.083.161.014.312.085.426.199s.185.265.199.426c.045.521.482.913.995.913z" fill="#ff7189"/></svg>