<svg height="512pt" viewBox="-46 0 512 512" width="512pt" xmlns="http://www.w3.org/2000/svg"><path d="m225.746094 0c-8.394532 0-15.199219 6.804688-15.199219 15.199219v166.421875c0 8.394531 6.804687 15.199218 15.199219 15.199218h166.421875c8.394531 0 15.199219-6.804687 15.199219-15.199218 0-100.144532-81.476563-181.621094-181.621094-181.621094zm0 0" fill="#c4eaff"/><path d="m407.019531 225.453125v-43.832031h-376.449219c-10.207031 0-18.480468 8.273437-18.480468 18.476562v35.039063c0 65.605469 53.183594 118.789062 118.789062 118.789062h157.347656c.058594 0 .113282 0 .171876-.003906 31.117187-.34375 62.5625-15.722656 86.269531-42.195313 22.859375-25.523437 34.914062-57.707031 32.351562-86.273437zm0 0" fill="#65ece5"/><path d="m407.019531 181.621094h-196.472656v172.304687h77.683594.167969c31.117187-.34375 62.5625-15.726562 86.273437-42.199219 22.855469-25.519531 34.910156-57.707031 32.347656-86.269531zm0 0" fill="#00bda7"/><path d="m91.785156 403.816406h235.804688v30.394532h-235.804688zm0 0" fill="#275fa8"/><path d="m210.546875 403.816406h117.042969v30.394532h-117.042969zm0 0" fill="#143170"/><path d="m66.832031 512c-1.542969 0-3.105469-.234375-4.648437-.730469-7.992188-2.5625-12.390625-11.125-9.828125-19.113281l77.367187-241.109375c2.566406-7.992187 11.125-12.390625 19.113282-9.828125 7.992187 2.566406 12.390624 11.125 9.828124 19.117188l-77.367187 241.105468c-2.070313 6.449219-8.039063 10.558594-14.464844 10.558594zm0 0" fill="#4a7cf0"/><path d="m352.628906 512c-6.421875 0-12.390625-4.101562-14.464844-10.542969l-77.621093-241.109375c-2.574219-7.988281 1.820312-16.550781 9.808593-19.121094 7.992188-2.578124 16.550782 1.816407 19.125 9.808594l77.621094 241.105469c2.574219 7.992187-1.820312 16.550781-9.808594 19.125-1.546874.496094-3.117187.734375-4.660156.734375zm0 0" fill="#275fa8"/><path d="m403.328125 270.890625h-387.199219c-8.910156 0-16.128906-6.804687-16.128906-15.199219 0-8.394531 7.222656-15.199218 16.128906-15.199218h387.199219c8.910156 0 16.128906 6.804687 16.128906 15.199218 0 8.394532-7.21875 15.199219-16.128906 15.199219zm0 0" fill="#275fa8"/><path d="m403.328125 240.492188h-192.78125v30.398437h192.78125c8.910156 0 16.128906-6.804687 16.128906-15.199219 0-8.394531-7.21875-15.199218-16.128906-15.199218zm0 0" fill="#143170"/></svg>