<svg id="Capa_1" enable-background="new 0 0 512 512" height="512" viewBox="0 0 512 512" width="512" xmlns="http://www.w3.org/2000/svg"><g fill="#c8c1c9"><path d="m290.371 292.891c-46.505 0-86.531-33.165-95.173-78.86-.044-.232-.077-.465-.1-.7l-13.246-138.372c-1.704-17.798 4.216-35.594 16.241-48.825s29.176-20.82 47.055-20.82c4.269 0 7.73 3.461 7.73 7.73s-3.461 7.73-7.73 7.73c-13.532 0-26.512 5.743-35.613 15.757s-13.582 23.483-12.292 36.953l13.212 138.012c7.395 38.226 40.949 65.933 79.916 65.933s72.521-27.706 79.916-65.933l13.212-138.012c1.289-13.47-3.191-26.939-12.292-36.953s-22.082-15.757-35.613-15.757c-4.269 0-7.73-3.461-7.73-7.73s3.461-7.73 7.73-7.73c17.879 0 35.03 7.589 47.055 20.82s17.945 31.027 16.241 48.825l-13.246 138.372c-.023.235-.056.468-.1.7-8.643 45.695-48.668 78.86-95.173 78.86z"/><path d="m261.42 26.09h-24.276c-6.99 0-12.656-5.666-12.656-12.656v-.778c0-6.99 5.666-12.656 12.656-12.656h24.276c6.99 0 12.656 5.666 12.656 12.656v.778c.001 6.99-5.666 12.656-12.656 12.656z"/><path d="m343.596 26.09h-24.276c-6.99 0-12.656-5.666-12.656-12.656v-.778c0-6.99 5.666-12.656 12.656-12.656h24.276c6.99 0 12.656 5.666 12.656 12.656v.778c.001 6.99-5.666 12.656-12.656 12.656z"/></g><path d="m261.42 0h-.375v.403c0 6.99-5.666 12.656-12.656 12.656h-23.9v.375c0 6.99 5.666 12.656 12.656 12.656h24.276c6.99 0 12.656-5.666 12.656-12.656v-.778c0-6.99-5.667-12.656-12.657-12.656z" fill="#8f818f"/><path d="m343.596 0h-.375v.403c0 6.99-5.666 12.656-12.656 12.656h-23.901v.375c0 6.99 5.666 12.656 12.656 12.656h24.276c6.99 0 12.656-5.666 12.656-12.656v-.778c.001-6.99-5.666-12.656-12.656-12.656z" fill="#8f818f"/><path d="m364.575 190.05-1.947 20.333c-6.832 34.413-37.112 59.317-72.258 59.317s-65.426-24.904-72.258-59.317l-1.947-20.333c-.271-2.833-2.788-4.91-5.621-4.639l-20.521 1.965c-2.833.271-4.91 2.788-4.639 5.621l2.085 21.774.131.696c8.033 42.47 41.178 74.897 82.276 83.109 2.913.582 5.033 3.101 5.033 6.072v132.273c0 24.277-19.867 44.566-44.141 44.15-23.577-.404-42.633-19.709-42.633-43.381v-58.189h-30.922v57.241c0 40.91 32.667 74.856 73.575 75.253 41.309.401 75.043-33.087 75.043-74.305v-133.042c0-2.971 2.119-5.49 5.033-6.072 41.097-8.212 74.243-40.639 82.276-83.109l.131-.696 2.085-21.774c.271-2.833-1.806-5.35-4.639-5.621l-20.521-1.965c-2.833-.271-5.35 1.806-5.621 4.639z" fill="#fc8086"/><path d="m390.717 187.376-10.211-.978-1.364 14.245-.131.696c-7.283 38.507-35.21 68.757-70.991 80.188-9.762 3.119-16.317 12.286-16.317 22.534v119.501c0 41.218-33.734 74.706-75.043 74.305-16.482-.16-31.621-5.772-43.83-15.085 13.421 17.524 34.304 28.984 57.959 29.214 41.309.401 75.043-33.087 75.043-74.305v-133.043c0-2.971 2.119-5.49 5.033-6.072 41.097-8.212 74.243-40.639 82.276-83.109l.131-.696 2.085-21.774c.27-2.833-1.807-5.35-4.64-5.621z" fill="#fa4954"/><circle cx="173.506" cy="371.809" fill="#c8c1c9" r="60.684"/><path d="m198.074 316.323c3.332 7.513 5.197 15.821 5.197 24.568 0 33.515-27.169 60.684-60.684 60.684-8.748 0-17.055-1.865-24.568-5.197 9.433 21.27 30.72 36.115 55.486 36.115 33.515 0 60.684-27.169 60.684-60.684.001-24.766-14.844-46.053-36.115-55.486z" fill="#b1abb5"/><circle cx="173.506" cy="371.809" fill="#b1abb5" r="29.766"/><path d="m186.683 345.119c1.965 3.973 3.075 8.444 3.075 13.176 0 16.439-13.327 29.766-29.766 29.766-4.732 0-9.204-1.109-13.176-3.074 4.861 9.828 14.984 16.589 26.691 16.589 16.439 0 29.766-13.326 29.766-29.766-.001-11.707-6.763-21.83-16.59-26.691z" fill="#8f818f"/></svg>