<svg id="Capa_1" enable-background="new 0 0 512 512" height="512" viewBox="0 0 512 512" width="512" xmlns="http://www.w3.org/2000/svg"><g><path d="m256 30.39v-30.39h-214.374c-22.989 0-41.626 18.637-41.626 41.626v214.374h30.39c3.414 0 6.181 2.767 6.181 6.181v24.209c0 3.414 2.767 6.181 6.181 6.181h24.209c3.414 0 6.181-2.767 6.181-6.181v-24.209c0-3.414 2.767-6.181 6.181-6.181h24.209c3.414 0 6.181 2.767 6.181 6.181v24.209c0 3.414 2.767 6.181 6.181 6.181h24.209c3.414 0 6.181-2.767 6.181-6.181v-24.209c0-3.414 2.767-6.181 6.181-6.181h24.209c3.414 0 6.181 2.767 6.181 6.181v24.209c0 3.414 2.767 6.181 6.181 6.181h24.209c3.414 0 6.181-2.767 6.181-6.181v-24.209c0-3.414 2.767-6.181 6.181-6.181h30.393v-30.39c0-3.414-2.767-6.181-6.181-6.181h-24.209c-3.414 0-6.181-2.767-6.181-6.181v-24.209c0-3.414 2.767-6.181 6.181-6.181h24.209c3.414 0 6.181-2.767 6.181-6.181v-24.209c0-3.414-2.767-6.181-6.181-6.181h-24.209c-3.414 0-6.181-2.767-6.181-6.181v-24.209c0-3.414 2.767-6.181 6.181-6.181h24.209c3.414 0 6.181-2.767 6.181-6.181v-24.211c0-3.414-2.767-6.181-6.181-6.181h-24.209c-3.414 0-6.181-2.767-6.181-6.181v-24.21c0-3.414 2.767-6.181 6.181-6.181h24.209c3.414 0 6.181-2.767 6.181-6.181z" fill="#ac80dd"/><path d="m481.61 256h30.39v-214.374c0-22.989-18.637-41.626-41.626-41.626h-214.374v30.39c0 3.414-2.767 6.181-6.181 6.181h-24.209c-3.414 0-6.181 2.767-6.181 6.181v24.209c0 3.414 2.767 6.181 6.181 6.181h24.209c3.414 0 6.181 2.767 6.181 6.181v24.209c0 3.414-2.767 6.181-6.181 6.181h-24.209c-3.414 0-6.181 2.767-6.181 6.181v24.209c0 3.414 2.767 6.181 6.181 6.181h24.209c3.414 0 6.181 2.767 6.181 6.181v24.209c0 3.414-2.767 6.181-6.181 6.181h-24.209c-3.414 0-6.181 2.767-6.181 6.181v24.209c0 3.414 2.767 6.181 6.181 6.181h24.209c3.414 0 6.181 2.767 6.181 6.181v30.393h30.39c3.414 0 6.181-2.767 6.181-6.181v-24.209c0-3.414 2.767-6.181 6.181-6.181h24.209c3.414 0 6.181 2.767 6.181 6.181v24.209c0 3.414 2.767 6.181 6.181 6.181h24.209c3.414 0 6.181-2.767 6.181-6.181v-24.209c0-3.414 2.767-6.181 6.181-6.181h24.209c3.414 0 6.181 2.767 6.181 6.181v24.209c0 3.414 2.767 6.181 6.181 6.181h24.209c3.414 0 6.181-2.767 6.181-6.181v-24.209c0-3.414 2.767-6.181 6.181-6.181h24.209c3.414 0 6.181 2.767 6.181 6.181v24.209c.003 3.414 2.77 6.181 6.184 6.181z" fill="#ffe07d"/><path d="m256 481.61v30.39h214.374c22.989 0 41.626-18.637 41.626-41.626v-214.374h-30.39c-3.414 0-6.181-2.767-6.181-6.181v-24.209c0-3.414-2.767-6.181-6.181-6.181h-24.209c-3.414 0-6.181 2.767-6.181 6.181v24.209c0 3.414-2.767 6.181-6.181 6.181h-24.209c-3.414 0-6.181-2.767-6.181-6.181v-24.209c0-3.414-2.767-6.181-6.181-6.181h-24.209c-3.414 0-6.181 2.767-6.181 6.181v24.209c0 3.414-2.767 6.181-6.181 6.181h-24.209c-3.414 0-6.181-2.767-6.181-6.181v-24.209c0-3.414-2.767-6.181-6.181-6.181h-24.209c-3.414 0-6.181 2.767-6.181 6.181v24.209c0 3.414-2.767 6.181-6.181 6.181h-30.393v30.39c0 3.414 2.767 6.181 6.181 6.181h24.209c3.414 0 6.181 2.767 6.181 6.181v24.209c0 3.414-2.767 6.181-6.181 6.181h-24.209c-3.414 0-6.181 2.767-6.181 6.181v24.209c0 3.414 2.767 6.181 6.181 6.181h24.209c3.414 0 6.181 2.767 6.181 6.181v24.209c0 3.414-2.767 6.181-6.181 6.181h-24.209c-3.414 0-6.181 2.767-6.181 6.181v24.209c0 3.414 2.767 6.181 6.181 6.181h24.209c3.414 0 6.181 2.767 6.181 6.181v24.209c0 3.414-2.767 6.181-6.181 6.181h-24.209c-3.414.003-6.181 2.77-6.181 6.184z" fill="#df75a5"/><path d="m30.39 256h-30.39v214.374c0 22.989 18.637 41.626 41.626 41.626h214.374v-30.39c0-3.414 2.767-6.181 6.181-6.181h24.209c3.414 0 6.181-2.767 6.181-6.181v-24.209c0-3.414-2.767-6.181-6.181-6.181h-24.209c-3.414 0-6.181-2.767-6.181-6.181v-24.209c0-3.414 2.767-6.181 6.181-6.181h24.209c3.414 0 6.181-2.767 6.181-6.181v-24.209c0-3.414-2.767-6.181-6.181-6.181h-24.209c-3.414 0-6.181-2.767-6.181-6.181v-24.209c0-3.414 2.767-6.181 6.181-6.181h24.209c3.414 0 6.181-2.767 6.181-6.181v-24.209c0-3.414-2.767-6.181-6.181-6.181h-24.209c-3.414 0-6.181-2.767-6.181-6.181v-30.393h-30.39c-3.414 0-6.181 2.767-6.181 6.181v24.209c0 3.414-2.767 6.181-6.181 6.181h-24.209c-3.414 0-6.181-2.767-6.181-6.181v-24.209c0-3.414-2.767-6.181-6.181-6.181h-24.209c-3.414 0-6.181 2.767-6.181 6.181v24.209c0 3.414-2.767 6.181-6.181 6.181h-24.209c-3.414 0-6.181-2.767-6.181-6.181v-24.209c0-3.414-2.767-6.181-6.181-6.181h-24.211c-3.414 0-6.181 2.767-6.181 6.181v24.209c0 3.414-2.767 6.181-6.181 6.181h-24.21c-3.414 0-6.181-2.767-6.181-6.181v-24.209c0-3.414-2.767-6.181-6.181-6.181z" fill="#a2f4c1"/><path d="m483.065 1.977c13.592 69.032 4.733 145.09-25.563 217.451h11.746c3.414 0 6.181 2.767 6.181 6.181v24.209c0 3.414 2.767 6.181 6.181 6.181h30.39v-214.373c0-18.563-12.154-34.281-28.935-39.649z" fill="#ffd064"/><path d="m475.429 249.819v-24.209c0-3.414-2.767-6.181-6.181-6.181h-11.746c-22.195 53.012-55.87 104.039-100.676 148.845-27.863 27.863-58.138 51.406-89.792 70.584h19.357c3.414 0 6.181 2.767 6.181 6.181v24.209c0 3.414-2.767 6.181-6.181 6.181h-24.209c-3.414 0-6.181 2.767-6.181 6.181v30.39h214.374c22.988 0 41.625-18.637 41.625-41.626v-214.374h-30.39c-3.414 0-6.181-2.767-6.181-6.181z" fill="#dd5790"/><path d="m10.304 497.774c7.629 8.715 18.829 14.226 31.322 14.226h214.374v-30.39c0-3.414 2.767-6.181 6.181-6.181h24.209c3.414 0 6.181-2.767 6.181-6.181v-24.209c0-3.414-2.767-6.181-6.181-6.181h-19.357c-82.155 49.772-173.645 69.974-256.729 58.916z" fill="#86f1a7"/></g></svg>