<svg id="Layer_1" enable-background="new 0 0 512 512" height="512" viewBox="0 0 512 512" width="512" xmlns="http://www.w3.org/2000/svg"><g><g><g><ellipse cx="256" cy="353.45" fill="#fe646f" rx="252.194" ry="158.55"/><path d="m256 194.9c-6.833 0-13.601.177-20.297.512 129.79 6.499 231.897 74.77 231.897 158.038s-102.107 151.539-231.897 158.038c6.696.335 13.464.512 20.297.512 139.283 0 252.194-70.985 252.194-158.55s-112.911-158.55-252.194-158.55z" fill="#fd4755"/><ellipse cx="256" cy="295.482" fill="#98d5b9" rx="252.194" ry="158.55"/><path d="m256 136.932c-6.833 0-13.601.177-20.297.512 129.79 6.5 231.897 74.77 231.897 158.038s-102.107 151.539-231.897 158.038c6.696.335 13.464.512 20.297.512 139.283 0 252.194-70.985 252.194-158.55 0-87.564-112.911-158.55-252.194-158.55z" fill="#7acaa6"/><ellipse cx="256" cy="236.985" fill="#fef056" rx="252.194" ry="158.55"/><path d="m256 78.435c-6.833 0-13.601.177-20.297.512 129.79 6.499 231.897 74.769 231.897 158.038s-102.107 151.538-231.897 158.037c6.696.335 13.464.512 20.297.512 139.283 0 252.194-70.985 252.194-158.55s-112.911-158.549-252.194-158.549z" fill="#fee903"/><ellipse cx="256" cy="222.861" fill="#8ac9fe" rx="195.22" ry="108.859"/><path d="m256 114.002c-6.854 0-13.625.199-20.297.583 98.278 5.662 174.922 51.976 174.922 108.275s-76.644 102.614-174.922 108.275c6.672.384 13.443.583 20.297.583 107.817 0 195.22-48.738 195.22-108.859s-87.403-108.857-195.22-108.857z" fill="#60b7ff"/></g><g><path d="m235.583 172.171-106.912 29.431v-32.796l106.912-29.431z" fill="#f5f8f9"/><g fill="#d9e7ec"><path d="m68.754 130.774v-59.967c0-14.421 11.732-26.153 26.153-26.153s26.153 11.732 26.153 26.153v148.223c0 4.204 3.407 7.611 7.611 7.611s7.611-3.408 7.611-7.611v-148.223c0-22.815-18.561-41.376-41.376-41.376s-41.375 18.561-41.375 41.376v71.633c0-.001 6.536-5.687 15.223-11.666z"/><path d="m160.443 90.212v-48.836c0-22.815 18.561-41.376 41.376-41.376s41.376 18.561 41.376 41.376v150.252c0 4.204-3.407 7.611-7.611 7.611s-7.611-3.408-7.611-7.611v-150.252c0-14.421-11.732-26.153-26.153-26.153-14.42 0-26.153 11.732-26.153 26.153v45.273z"/></g></g></g><g><g><path d="m333.234 287.91c-15.369 0-15.369-9.645-30.737-9.645-15.37 0-15.37 9.645-30.739 9.645-15.372 0-15.372-9.645-30.743-9.645s-15.372 9.645-30.743 9.645" fill="#d8ecfe"/><path d="m333.234 295.521c-9.875 0-15.165-3.32-19.414-5.987-3.51-2.203-5.83-3.658-11.323-3.658-5.495 0-7.814 1.455-11.324 3.658-4.25 2.667-9.539 5.987-19.414 5.987-9.876 0-15.167-3.319-19.417-5.987-3.51-2.203-5.831-3.658-11.326-3.658-5.496 0-7.816 1.455-11.326 3.658-4.251 2.667-9.541 5.987-19.417 5.987-4.204 0-7.611-3.408-7.611-7.611 0-4.204 3.407-7.612 7.611-7.612 5.496 0 7.816-1.455 11.326-3.659 4.251-2.667 9.541-5.986 19.417-5.986s15.167 3.319 19.417 5.986c3.51 2.203 5.831 3.659 11.326 3.659 5.494 0 7.813-1.455 11.323-3.658 4.25-2.667 9.54-5.987 19.415-5.987s15.165 3.32 19.414 5.987c3.51 2.203 5.83 3.658 11.323 3.658 4.204 0 7.612 3.408 7.612 7.612-.001 4.203-3.408 7.611-7.612 7.611z" fill="#c4e2ff"/></g><g><path d="m394.716 252.67c-15.369 0-15.369-9.645-30.737-9.645-15.37 0-15.37 9.645-30.739 9.645-15.372 0-15.372-9.645-30.743-9.645s-15.372 9.645-30.743 9.645" fill="#d8ecfe"/><path d="m394.716 260.281c-9.875 0-15.165-3.319-19.414-5.987-3.51-2.203-5.83-3.658-11.323-3.658-5.495 0-7.814 1.455-11.324 3.658-4.251 2.667-9.54 5.986-19.415 5.986-9.876 0-15.167-3.319-19.417-5.986-3.51-2.203-5.831-3.658-11.326-3.658s-7.816 1.455-11.326 3.658c-4.251 2.667-9.541 5.986-19.417 5.986-4.204 0-7.611-3.408-7.611-7.611s3.407-7.611 7.611-7.611c5.496 0 7.816-1.455 11.326-3.658 4.251-2.667 9.541-5.986 19.417-5.986s15.167 3.319 19.417 5.986c3.51 2.203 5.831 3.658 11.326 3.658s7.814-1.455 11.324-3.658c4.251-2.667 9.54-5.986 19.415-5.986s15.165 3.319 19.414 5.987c3.51 2.203 5.83 3.658 11.323 3.658 4.204 0 7.612 3.408 7.612 7.611s-3.408 7.611-7.612 7.611z" fill="#c4e2ff"/></g></g></g></svg>