<svg id="Layer_1" enable-background="new 0 0 512 512" height="512" viewBox="0 0 512 512" width="512" xmlns="http://www.w3.org/2000/svg"><g><g><path d="m325.519 489.233c-7.216 0-13.724-4.987-15.366-12.323l-75.08-332.32c-1.901-8.494 3.444-16.922 11.939-18.823 1.159-.26 2.317-.384 3.457-.384 7.216 0 13.724 4.987 15.366 12.323l75.08 332.32c1.901 8.494-3.444 16.922-11.939 18.823-1.158.26-2.317.384-3.457.384z" fill="#c5d3dd"/><g><g><g><path d="m220.538 7.135c111.995-25.053 223.359 17.602 291.297 100.829l-511.835 114.497c25.982-104.236 108.543-190.273 220.538-215.326z" fill="#fe646f"/></g><path d="m470.59 117.19 41.245-9.226c-67.938-83.227-179.302-125.883-291.297-100.829 0 0 132.299-32.89 250.052 110.055z" fill="#fd4755"/><g><path d="m220.538 7.135c73.873-16.526 152.233 33.513 204.186 120.315l-337.613 75.525c9.997-100.661 59.553-179.315 133.427-195.84z" fill="#f5f8f9"/></g><g><path d="m220.538 7.135c25.936-5.802 62.793 53.521 94.646 144.82l-118.533 26.515c-10.103-96.163-2.049-165.533 23.887-171.335z" fill="#fe646f"/></g></g><path d="m0 222.461c14.418 43.743 91.308 30.868 87.111-19.487-29.037 6.496-58.074 12.992-87.111 19.487z" fill="#e8edf2"/><path d="m424.724 127.436c14.418 43.743 91.308 30.868 87.111-19.487-29.037 6.496-58.074 12.992-87.111 19.487z" fill="#f5f8f9"/><path d="m511.835 107.949c-29.037 6.496-58.074 12.991-87.111 19.487.002.007.005.014.007.021 15.299-3.422 30.597-6.845 45.896-10.267 1.324 15.888-5.428 28.039-15.739 35.864 26.703 5.268 59.736-11.634 56.947-45.105z" fill="#e8edf2"/><path d="m87.111 202.975c25.149 44.739 110.373 30.499 109.54-24.504-36.514 8.168-73.027 16.336-109.54 24.504z" fill="#fe646f"/><path d="m315.14 151.966c25.149 44.739 110.373 30.499 109.54-24.504-36.514 8.168-73.027 16.336-109.54 24.504z" fill="#fe646f"/><path d="m196.651 178.47s19.06 39.841 69.05 28.249c49.99-11.591 49.483-54.765 49.483-54.765z" fill="#e8edf2"/></g></g><g><path d="m447.192 456.212c-27.185-23.401-64.584-30.977-98.732-20.001l-71.188 22.883-94.989-46.036c-43.153-20.914-95.029-9.286-125.127 28.047l-57.156 70.895h512z" fill="#fdd79b"/><g fill="#fccd7f"><path d="m447.192 456.212c-24.306-20.923-56.776-29.183-87.789-22.854 16.953 3.464 33.036 11.193 46.582 22.854l64.808 55.788h41.207z"/><path d="m141.075 413.058 110.718 53.528 25.479-7.491-94.989-46.036c-20.937-10.147-43.923-12.612-65.483-8.22 8.258 1.691 16.412 4.408 24.275 8.219z"/></g><g><path d="" fill="#fdd79b"/><path d="m124.137 451.714c-4.202 0-7.724-3.529-7.726-7.726-.003-4.214 3.52-7.719 7.725-7.729 4.206-.01 7.73 3.529 7.728 7.729-.004 4.195-3.525 7.726-7.727 7.726z" fill="#e9b665"/></g><g><path d="" fill="#fdd79b"/><path d="m87.143 485.092c-4.209 0-7.73-3.514-7.726-7.726.004-4.113 3.36-7.579 7.472-7.718 4.118-.139 7.714 3.143 7.966 7.25.269 4.372-3.335 8.194-7.712 8.194z" fill="#e9b665"/></g><g><path d="" fill="#fdd79b"/><path d="m398.165 485.092c-4.299 0-7.851-3.664-7.719-7.96.126-4.096 3.602-7.507 7.719-7.493 4.026.013 7.464 3.237 7.712 7.259.269 4.378-3.329 8.194-7.712 8.194z" fill="#e9b665"/></g></g></g></svg>