<svg id="Capa_1" enable-background="new 0 0 512 512" height="512" viewBox="0 0 512 512" width="512" xmlns="http://www.w3.org/2000/svg"><g><path d="m412.08 182.209v-26.129c0-49.872-23.391-94.282-59.801-122.855-2.806-2.202-11.689-1.31-14.645-3.32-2.481-1.687.987-6.303-1.594-7.848-23.403-14.006-50.781-22.057-80.04-22.057-86.201 0-156.08 69.879-156.08 156.08v26.129z" fill="#92e0c4"/><path d="m256 0c-8.118 0-16.092.621-23.876 1.816 26.996 4.039 52.951 14.669 75.423 30.204 2.285 1.579 9.533.209 11.743 1.888 2.641 2.006.227 7.083 2.754 9.226 35.403 30.03 59.131 73.184 59.131 121.14v17.936h30.905v-26.13c0-49.872-23.391-94.282-59.801-122.855-2.806-2.202-13.781 1.39-16.736-.619-2.482-1.687 3.078-9.004.497-10.548-23.403-14.007-50.781-22.058-80.04-22.058z" fill="#77d1b3"/><path d="m307.547 32.021c-30.075 11.351-60.457 25.406-85.697 39.835-10.24 5.862-19.604 11.723-28.083 17.575 13.899 1.213 25.05.887 39.863-4.973l4.61-4.044c25.339-13.764 54.984-26.919 83.804-37.278l11.563-13.505z" fill="#77d1b3"/><path d="m307.549 32.026c5.016 3.468 9.857 7.182 14.498 11.12 8.343-2.999 16.621-5.777 24.702-8.253 1.494-.464 3.379-1.03 5.532-1.669-5.161-4.049-10.59-7.778-16.246-11.157-9.346 2.992-18.901 6.341-28.486 9.959z" fill="#67b59f"/><path d="m320.494 384.868v-104.368h-128.988v104.368c0 5.6-3.663 10.534-9.022 12.157-49.516 14.998-130.53 29.625-130.53 97.629v7.32c0 5.537 4.489 10.026 10.026 10.026h388.04c5.537 0 10.026-4.489 10.026-10.026v-7.32c0-68.004-81.014-82.631-130.53-97.629-5.36-1.623-9.022-6.557-9.022-12.157z" fill="#ffcdbe"/><path d="m329.516 397.025c-5.36-1.623-9.022-6.557-9.022-12.157v-104.368h-30.905v115.7c0 5.6 3.663 10.534 9.022 12.157 49.516 14.998 130.53 20.353 130.53 88.357v5.26c0 5.537-4.489 10.026-10.026 10.026h30.905c5.537 0 10.026-4.489 10.026-10.026v-7.32c0-68.004-81.014-82.631-130.53-97.629z" fill="#ebae9d"/><path d="m236.004 80.413c-57.028 0-103.259 46.229-103.259 103.257v55.295c0 61.688 83.436 106.464 123.255 106.464s123.255-44.776 123.255-106.464v-55.295c0-57.028-46.23-103.257-103.258-103.257z" fill="#ffcdbe"/><path d="m275.997 80.413h-30.905c57.028 0 103.258 46.229 103.258 103.257v55.295c0 54.52-65.168 95.823-107.803 104.687 5.605 1.165 10.826 1.777 15.453 1.777 39.819 0 123.255-44.776 123.255-106.464v-55.295c0-57.028-46.23-103.257-103.258-103.257z" fill="#ebae9d"/><g fill="#e09380"><path d="m185.909 304.381-40.788-41.655-9.613-47.089 8.219-37.024-49.502-68.337-15.55-86.737c-.502-2.8-3.179-4.663-5.979-4.161l-64.352 11.536c-2.888.518-4.761 3.339-4.116 6.201l42.292 187.84c4.695 20.853 16.771 39.305 34.001 51.954l94.17 69.134c4.246 3.118 10.248 2.362 13.484-1.795 9.33-11.991 8.353-29.022-2.266-39.867z"/><path d="m107.636 185.083 9.424 52.569c1.787 9.966 11.314 16.597 21.281 14.81 9.966-1.787 16.597-11.314 14.81-21.281l-9.424-52.569z"/><path d="m326.091 304.381 40.788-41.655 9.613-47.089-8.219-37.024 49.502-68.337 15.55-86.737c.502-2.8 3.179-4.663 5.979-4.161l64.352 11.537c2.888.518 4.761 3.339 4.116 6.201l-42.292 187.84c-4.695 20.853-16.771 39.305-34.001 51.954l-94.17 69.134c-4.246 3.118-10.248 2.362-13.484-1.795-9.33-11.992-8.353-29.023 2.266-39.868z"/></g><path d="m503.656 30.914-22.324-4.002c1.516 1.185 2.313 3.176 1.859 5.19l-42.291 187.84c-4.695 20.853-16.771 39.305-34.001 51.954l-87.568 64.287c1.056 2.839 2.547 5.563 4.495 8.066 3.235 4.157 9.237 4.913 13.484 1.795l94.17-69.134c17.23-12.649 29.306-31.101 34.001-51.954l42.292-187.84c.644-2.863-1.229-5.684-4.117-6.202z" fill="#d47f6c"/><path d="m404.364 185.083-9.424 52.569c-1.787 9.966-11.314 16.597-21.281 14.81-9.966-1.787-16.597-11.314-14.81-21.281l9.424-52.569z" fill="#e09380"/><g fill="#e09380"><path d="m212.685 201.799c-1.378 0-2.773-.368-4.033-1.142-7.46-4.577-14.411-4.577-21.873 0-3.638 2.232-8.395 1.092-10.626-2.545-2.232-3.637-1.092-8.395 2.545-10.626 12.442-7.634 25.595-7.634 38.036 0 3.637 2.231 4.777 6.989 2.545 10.626-1.46 2.377-3.996 3.687-6.594 3.687z"/><path d="m329.255 201.799c-1.378 0-2.773-.368-4.033-1.142-7.462-4.578-14.413-4.577-21.873 0-3.639 2.232-8.395 1.092-10.626-2.545-2.232-3.637-1.092-8.395 2.545-10.626 12.442-7.633 25.594-7.634 38.036 0 3.637 2.231 4.777 6.989 2.545 10.626-1.46 2.377-3.996 3.687-6.594 3.687z"/></g><path d="m256 287.079c-10.481 0-20.963-2.113-30.726-6.338-3.916-1.695-5.717-6.243-4.023-10.159s6.241-5.717 10.159-4.023c15.627 6.763 33.552 6.763 49.179 0 3.916-1.695 8.465.107 10.159 4.023 1.695 3.916-.106 8.465-4.023 10.159-9.762 4.225-20.244 6.338-30.725 6.338z" fill="#e09380"/><path d="m399.409 184.195c-2.733-.49-5.347 1.326-5.841 4.059l-8.931 49.398c-1.269 7.08-6.452 12.458-12.916 14.349.631.185 1.276.342 1.938.461 9.966 1.787 19.494-4.844 21.281-14.81l8.536-47.614c.49-2.736-1.33-5.352-4.067-5.843z" fill="#d47f6c"/><path d="m111.782 184.195c2.733-.49 5.347 1.326 5.841 4.059l8.931 49.398c1.269 7.08 6.452 12.458 12.916 14.349-.631.185-1.276.342-1.938.461-9.966 1.787-19.494-4.844-21.281-14.81l-8.536-47.614c-.489-2.736 1.331-5.352 4.067-5.843z" fill="#d47f6c"/></g></svg>