<svg id="Capa_1" enable-background="new 0 0 497 497" height="512" viewBox="0 0 497 497" width="512" xmlns="http://www.w3.org/2000/svg"><g><path d="m366.6 40.35v16.54c0 18.1-.78 36.2-2.36 54.24l-19.46 222.74-16.18 37.88h-162.44l-13.94-37.88-19.46-222.74c-1.58-18.04-2.36-36.14-2.36-54.24v-16.54l118.1-10.41 97.38 8.58h.01z" fill="#eaf6ff"/><path d="m366.6 40.35v16.54c0 18.1-.78 36.2-2.36 54.24l-19.46 222.74-16.18 37.88h-16.01l22.77-260.62c1.57-18.04 2.36-36.14 2.36-54.24v-16.54l8.16-1.83h.01z" fill="#c8effe"/><path d="m366.605 40.346h-236.21v-27.805c0-6.926 5.615-12.541 12.542-12.541h211.127c6.926 0 12.541 5.615 12.541 12.541z" fill="#ffd15b"/><path d="m366.6 12.54v27.81h-28.88v-27.81c0-6.93-5.61-12.54-12.54-12.54h28.88c6.93 0 12.54 5.61 12.54 12.54z" fill="#ffc344"/><path d="m337.72 414.72v61.59c0 11.43-9.26 20.69-20.69 20.69h-12.52l-10.12-.96-45.89-4.35-56.01 5.31h-12.52c-11.43 0-20.69-9.26-20.69-20.69v-61.59l89.22-13.41 65.42 9.83z" fill="#fea613"/><path d="m337.72 414.72v61.59c0 11.43-9.26 20.69-20.69 20.69h-12.52l-10.12-.96c8.37-2.65 14.45-10.48 14.45-19.73v-61.59l5.08-3.58z" fill="#fe9901"/><g><circle cx="248.5" cy="248.5" fill="#ffd15b" r="33.815"/></g><g><path d="m282.32 248.5c0 18.68-15.14 33.82-33.82 33.82-5.58 0-10.85-1.35-15.49-3.75 10.89-5.61 18.33-16.97 18.33-30.07s-7.44-24.46-18.33-30.07c4.64-2.4 9.91-3.75 15.49-3.75 18.68 0 33.82 15.14 33.82 33.82z" fill="#ffc344"/></g><path d="m344.78 333.87-7.06 80.85h-178.44l-7.06-80.85s23.78 31.97 96.28 31.97c29.26 0 50.58-5.21 65.61-11.42 22.21-9.18 30.67-20.55 30.67-20.55z" fill="#fe646f"/><path d="m344.78 333.87-7.06 80.85h-28.88l5.27-60.3c22.21-9.18 30.67-20.55 30.67-20.55z" fill="#fd4755"/><path d="m304.514 497h-112.028v-25.568c0-4.511 3.657-8.169 8.169-8.169h95.69c4.511 0 8.169 3.657 8.169 8.169z" fill="#ffd15b"/><path d="m304.51 471.43v25.57h-27.03v-25.57c0-4.51-3.65-8.17-8.16-8.17h27.02c4.52 0 8.17 3.66 8.17 8.17z" fill="#ffc344"/><g><g><path d="m248.5 195.922c-4.142 0-7.5-3.357-7.5-7.5v-14.764c0-4.143 3.358-7.5 7.5-7.5 4.143 0 7.5 3.357 7.5 7.5v14.764c0 4.142-3.357 7.5-7.5 7.5z" fill="#fea613"/></g><g><path d="m323.342 256h-14.764c-4.143 0-7.5-3.357-7.5-7.5s3.357-7.5 7.5-7.5h14.764c4.143 0 7.5 3.357 7.5 7.5s-3.358 7.5-7.5 7.5z" fill="#fea613"/></g><g><path d="m248.5 330.842c-4.142 0-7.5-3.357-7.5-7.5v-14.764c0-4.143 3.358-7.5 7.5-7.5 4.143 0 7.5 3.357 7.5 7.5v14.764c0 4.142-3.357 7.5-7.5 7.5z" fill="#fea613"/></g><g><path d="m188.422 256h-14.763c-4.142 0-7.5-3.357-7.5-7.5s3.358-7.5 7.5-7.5h14.763c4.142 0 7.5 3.357 7.5 7.5s-3.358 7.5-7.5 7.5z" fill="#fea613"/></g></g><g><g><path d="m290.981 213.519c-1.919 0-3.839-.732-5.304-2.196-2.929-2.93-2.929-7.678 0-10.607l10.439-10.439c2.93-2.928 7.678-2.928 10.607 0 2.929 2.93 2.929 7.678 0 10.607l-10.439 10.439c-1.464 1.463-3.384 2.196-5.303 2.196z" fill="#fe9901"/></g><g><path d="m301.421 308.921c-1.919 0-3.839-.732-5.304-2.196l-10.439-10.439c-2.929-2.93-2.929-7.678 0-10.607 2.93-2.928 7.678-2.928 10.607 0l10.439 10.439c2.929 2.93 2.929 7.678 0 10.607-1.464 1.463-3.384 2.196-5.303 2.196z" fill="#fe9901"/></g><g><path d="m195.579 308.921c-1.919 0-3.839-.732-5.303-2.196-2.929-2.93-2.929-7.678 0-10.607l10.439-10.439c2.929-2.928 7.678-2.928 10.606 0 2.929 2.93 2.929 7.678 0 10.607l-10.439 10.439c-1.464 1.463-3.383 2.196-5.303 2.196z" fill="#fe9901"/></g><g><path d="m206.019 213.519c-1.919 0-3.839-.732-5.303-2.196l-10.439-10.439c-2.929-2.93-2.929-7.678 0-10.607 2.929-2.928 7.678-2.928 10.606 0l10.439 10.439c2.929 2.93 2.929 7.678 0 10.607-1.465 1.463-3.384 2.196-5.303 2.196z" fill="#fe9901"/></g></g><g fill="#fe646f"><path d="m327.705 101.861h-14.981v-14.556h16.922c4.143 0 7.5-3.357 7.5-7.5s-3.357-7.5-7.5-7.5h-24.422c-4.143 0-7.5 3.357-7.5 7.5v60.255c0 4.143 3.357 7.5 7.5 7.5s7.5-3.357 7.5-7.5v-23.198h14.981c4.143 0 7.5-3.357 7.5-7.5s-3.357-7.501-7.5-7.501z"/><path d="m196.373 103.373c-7.47-2.755-14.424-5.756-16.542-6.684-1.696-1.355-1.64-3.249-1.526-4.037.156-1.088.945-3.747 4.889-4.935 8.598-2.591 16.556 3.694 16.784 3.877 3.171 2.631 7.875 2.211 10.529-.946 2.665-3.171 2.255-7.902-.916-10.567-.571-.48-14.188-11.706-30.724-6.727-8.347 2.515-14.251 9.092-15.411 17.166-1.087 7.573 2.195 14.858 8.566 19.012.332.217.679.406 1.041.567.351.156 8.708 3.876 18.119 7.347 2.682.989 8.831 3.785 8.014 8.361-.612 3.428-4.778 6.974-10.689 6.974-6.057 0-11.887-2.442-15.595-6.534-2.781-3.068-7.524-3.302-10.594-.521-3.069 2.782-3.302 7.525-.521 10.594 6.504 7.177 16.489 11.461 26.709 11.461 12.75 0 23.455-8.132 25.456-19.336 1.506-8.428-2.325-19.44-17.589-25.072z"/><path d="m255.716 72.083h-16.901c-3.703-.076-7.647 3.271-7.5 7.5v60.698c0 4.143 3.358 7.5 7.5 7.5s7.5-3.357 7.5-7.5v-18.906c3.423-.018 7.216-.034 9.401-.034 13.766 0 24.965-11.049 24.965-24.629s-11.2-24.629-24.965-24.629zm0 34.258c-2.169 0-5.916.017-9.325.034-.018-3.525-.034-7.434-.034-9.663 0-1.89-.01-5.938-.02-9.629h9.379c5.401 0 9.965 4.409 9.965 9.629s-4.564 9.629-9.965 9.629z"/></g></g></svg>