<svg height="512pt" viewBox="-101 0 512 512" width="512pt" xmlns="http://www.w3.org/2000/svg"><path d="m49.304688 92.964844h211.5625v34.441406h-211.5625zm0 0" fill="#d8dce5"/><path d="m49.304688 92.964844h30.910156v34.441406h-30.910156zm0 0" fill="#c3c8d1"/><path d="m270.164062 66.503906v-49.507812c0-9.347656-7.648437-16.996094-16.996093-16.996094h-196.160157c-9.347656 0-16.996093 7.648438-16.996093 16.996094v49.507812zm0 0" fill="#ffc850"/><path d="m87.914062 0h-30.90625c-9.347656 0-16.996093 7.648438-16.996093 16.996094v49.507812h30.90625v-49.507812c0-9.347656 7.648437-16.996094 16.996093-16.996094zm0 0" fill="#feb644"/><path d="m273.171875 64.441406h-236.171875c-8.40625 0-15.222656 6.816406-15.222656 15.226563 0 8.410156 6.816406 15.226562 15.222656 15.226562h236.171875c8.410156 0 15.226563-6.816406 15.226563-15.226562 0-8.410157-6.816407-15.226563-15.226563-15.226563zm0 0" fill="#feb644"/><path d="m273.171875 75.660156h-236.171875c-4.761719 0-9.007812-2.1875-11.800781-5.609375-2.136719 2.625-3.421875 5.96875-3.421875 9.617188 0 8.410156 6.816406 15.226562 15.222656 15.226562h236.171875c8.410156 0 15.226563-6.816406 15.226563-15.226562 0-3.648438-1.285157-6.992188-3.425782-9.617188-2.792968 3.421875-7.039062 5.609375-11.800781 5.609375zm0 0" fill="#f9972d"/><path d="m261.84375 125.34375h-213.511719c-26.582031 0-48.332031 21.75-48.332031 48.332031v289.992188c0 26.582031 21.75 48.332031 48.332031 48.332031h213.511719c26.582031 0 48.332031-21.75 48.332031-48.332031v-289.992188c0-26.582031-21.75-48.332031-48.332031-48.332031zm0 0" fill="#e4eaf8"/><path d="m30.90625 463.667969v-289.992188c0-26.582031 21.75-48.332031 48.332031-48.332031h-30.90625c-26.582031 0-48.332031 21.75-48.332031 48.332031v289.992188c0 26.582031 21.75 48.332031 48.332031 48.332031h30.90625c-26.582031 0-48.332031-21.75-48.332031-48.332031zm0 0" fill="#d8dce5"/><path d="m240.332031 269.417969c-24.523437 0-42.34375-17.820313-42.34375-42.34375 0-4.832031.785157-9.476563 2.210938-13.828125h-143.105469c-7.007812 0-12.746094 5.734375-12.746094 12.746094v185.359374c0 7.011719 5.738282 12.75 12.746094 12.75h185.363281c7.011719 0 12.746094-5.738281 12.746094-12.75v-144.496093c-4.648437 1.65625-9.652344 2.5625-14.871094 2.5625zm0 0" fill="#00aaf0"/><path d="m75.257812 411.351562v-185.359374c0-7.011719 5.734376-12.746094 12.746094-12.746094h-30.90625c-7.011718 0-12.75 5.734375-12.75 12.746094v185.359374c0 7.011719 5.738282 12.75 12.75 12.75h30.90625c-7.011718 0-12.746094-5.738281-12.746094-12.75zm0 0" fill="#059adb"/><path d="m183.164062 302.738281h-30.550781c-1.960937 0-3.085937-2.226562-1.925781-3.804687l19.753906-26.855469c5.214844-7.085937 3.695313-17.058594-3.390625-22.273437-7.085937-5.214844-17.0625-3.699219-22.277343 3.390624l-41.21875 56.035157c-7.730469 10.507812-.199219 25.375 12.832031 25.375h30.554687c1.957032 0 3.082032 2.226562 1.921875 3.804687l-19.484375 26.488282c-5.082031 6.910156-4.152344 16.753906 2.503906 22.160156 7.109376 5.777344 17.523438 4.390625 22.898438-2.910156l41.21875-56.035157c7.730469-10.507812.195312-25.375-12.835938-25.375zm0 0" fill="#ffc850"/><path d="m160.285156 364.898438 19.484375-26.488282c1.164063-1.578125.035157-3.804687-1.921875-3.804687h-30.550781c-13.03125 0-20.566406-14.867188-12.835937-25.375l38.171874-51.890625c-1.023437-2.914063-2.90625-5.566406-5.582031-7.535156-7.085937-5.214844-17.0625-3.695313-22.277343 3.394531l-41.21875 56.03125c-7.730469 10.507812-.199219 25.375 12.832031 25.375h30.554687c1.957032 0 3.082032 2.226562 1.921875 3.804687l-19.484375 26.488282c-5.082031 6.910156-4.152344 16.753906 2.503906 22.160156 7.109376 5.777344 17.523438 4.390625 22.898438-2.910156l3.105469-4.222657c-1.640625-4.914062-.875-10.578125 2.398437-15.027343zm0 0" fill="#feb644"/><path d="m270.675781 259.476562c.351563-.332031.710938-.660156 1.054688-1.003906 17.339843-17.339844 17.339843-45.453125 0-62.796875-17.339844-17.339843-45.453125-17.339843-62.796875 0-.34375.347657-.671875.703125-1.003906 1.058594zm0 0" fill="#ffc850"/><path d="m239.84375 195.675781c4.671875-4.671875 10.128906-8.070312 15.941406-10.226562-15.765625-5.84375-34.179687-2.441407-46.851562 10.226562-.34375.347657-.671875.703125-1.003906 1.058594l20.105468 20.101563c1.828125-7.753907 5.761719-15.113282 11.808594-21.160157zm0 0" fill="#feb644"/><path d="m208.9375 258.472656c17.339844 17.339844 45.453125 17.339844 62.792969 0l-62.792969-62.796875c-17.34375 17.339844-17.34375 45.457031 0 62.796875zm0 0" fill="#feb644"/><path d="m239.84375 258.472656c-11.722656-11.71875-15.507812-28.359375-11.382812-43.273437l-19.527344-19.523438c-17.339844 17.34375-17.339844 45.457031 0 62.796875 12.671875 12.667969 31.085937 16.070313 46.855468 10.226563-5.8125-2.152344-11.273437-5.550781-15.945312-10.226563zm0 0" fill="#f9972d"/></svg>