<svg id="Capa_1" enable-background="new 0 0 512 512" height="512" viewBox="0 0 512 512" width="512" xmlns="http://www.w3.org/2000/svg"><g><path d="m413.503 203.754h61.742v111.154h-61.742z" fill="#a4e7ff"/><path d="m458.003 82.004c30.816 8.128 53.997 43.272 53.997 85.395 0 42.093-23.149 77.218-53.933 85.378l-28.362-4.377-42.475-81.009 41.164-80.181z" fill="#a4e7ff"/><path d="m414.499 167.399c0-38.263 17.94-71.121 43.568-85.376-4.422-1.172-9.001-1.79-13.692-1.79-37.349 0-67.626 39.025-67.626 87.165s30.277 87.165 67.626 87.165c4.691 0 9.27-.618 13.692-1.79-25.629-14.253-43.568-47.111-43.568-85.374z" fill="#2ecefb"/><path d="m108.197 87.209h148.619v55.299h-148.619z" fill="#fce3a0"/><path d="m71.4 87.209h49.887v55.299h-49.887z" fill="#f9d171"/><path d="m121.118 136.44h122.578c46.679 0 84.52 37.841 84.52 84.52v200.628c0 46.679-37.841 84.52-84.52 84.52h-97.119l-63.368-7.961-53.143-141.3v-153.093l41.334-61.245z" fill="#fff8e6"/><path d="m103.542 435.83v-249.758c0-18.81 6.592-36.073 17.577-49.632h-36.599c-46.679 0-84.52 37.841-84.52 84.52v200.628c0 46.679 37.841 84.52 84.52 84.52h62.057c-25.54-13.065-43.035-39.62-43.035-70.278z" fill="#fce3a0"/><path d="m175.303 292.311c16.689 3.425 36.659-5.358 48.989-21.764 1.737-2.311 3.369-4.747 4.872-7.299 8.476-14.114 12.938-31.82 10.931-49.553-.591-5.218-4.246-8.874-9.464-9.465-17.733-2.008-35.439 2.454-49.554 10.93-2.552 1.503-4.988 3.135-7.299 4.871-16.406 12.329-25.189 32.3-21.765 48.988 2.491 12.142 11.15 20.801 23.29 23.292z" fill="#6dc847"/><path d="m444.86 303.199h25.398c12.284 0 22.46 9.531 23.262 21.789l7.874 120.245c1.821 27.809-16.513 52.031-42.128 58.92h-14.892l-40.342-57.21 1.273-66.948 13.237-71.784z" fill="#ff899f"/><path d="m425.445 446.717 8.162-124.644c.524-8.001 4.905-14.876 11.254-18.874h-26.371c-12.284 0-22.46 9.531-23.262 21.789l-7.874 120.245c-2.158 32.957 23.992 60.876 57.02 60.876 5.159 0 10.15-.681 14.892-1.957-21.245-10.048-35.466-32.322-33.821-57.435z" fill="#ff5f7f"/><path d="m103.541 428.797c13.191 8.235 28.385 11.808 43.684 9.11 3.838-.677 7.534-1.723 11.069-3.104 3.736-1.459 7.891-1.459 11.628 0 3.535 1.381 7.231 2.427 11.069 3.104 37.718 6.651 74.793-24.812 82.809-70.273 8.016-45.462-16.062-87.707-53.78-94.358-7.914-1.395-15.799-1.112-23.393.627-14.812 3.391-30.226 3.391-45.038 0-7.594-1.739-15.479-2.022-23.393-.627-5.159.91-10.063 2.485-14.665 4.644l-32.131 71.648z" fill="#f85647"/><path d="m103.542 277.942c-29.039 13.624-46.045 50.449-39.126 89.692 4.765 27.021 19.796 49.095 39.126 61.162z" fill="#e83826"/><path d="m136.588 5.892h113.642c13.591 0 24.608 11.018 24.608 24.608v37.297c0 13.591-11.018 24.608-24.608 24.608h-128.943l-15.911-9.189-10.393-39.424 13.214-32.853z" fill="#ff899f"/><path d="m121.287 34.629c0-11.967 6.071-22.516 15.301-28.737h-58.601c-13.591 0-24.608 11.018-24.608 24.608v37.297c0 13.591 11.017 24.608 24.608 24.608h43.3z" fill="#ff5f7f"/></g></svg>