<svg id="Capa_1" enable-background="new 0 0 497 497" height="512" viewBox="0 0 497 497" width="512" xmlns="http://www.w3.org/2000/svg"><g><path d="m466.41 187.45-17.13-6.72c-14.44-5.67-24.99-18.32-27.95-33.55l-20.08-103.13c-4.98-25.58-27.38-44.05-53.44-44.05h-198.62c-26.06 0-48.46 18.47-53.44 44.05l-20.08 103.13c-2.96 15.23-13.51 27.88-27.95 33.55l-17.13 6.72c-17.37 6.82-28.79 23.57-28.79 42.22v240.36c0 14.89 12.08 26.97 26.97 26.97h90.8c14.89 0 26.97-12.08 26.97-26.97v-4.86c0-3.3.66-6.44 1.85-9.31 3.65-8.81 12.33-15 22.46-15h155.3c10.13 0 18.81 6.19 22.46 15 1.19 2.87 1.85 6.01 1.85 9.31v4.86c0 14.89 12.08 26.97 26.97 26.97h90.8c14.89 0 26.97-12.08 26.97-26.97v-240.36c0-18.65-11.42-35.4-28.79-42.22zm-179.81-111.63h-76.2c-12 0-21.72-9.73-21.72-21.73 0-6 2.43-11.43 6.36-15.37 3.93-3.93 9.36-6.36 15.36-6.36h76.2c12 0 21.72 9.73 21.72 21.73s-9.72 21.73-21.72 21.73z" fill="#e4f6f9"/><g><g><path d="m96.217 276.24c-1.687 0-3.383-.566-4.783-1.727l-11.226-9.308c-11.518-9.549-18.125-23.607-18.125-38.569v-10.519c0-4.142 3.358-7.5 7.5-7.5s7.5 3.358 7.5 7.5v10.519c0 10.482 4.628 20.332 12.698 27.022l11.227 9.308c3.188 2.644 3.63 7.372.986 10.561-1.482 1.788-3.622 2.713-5.777 2.713z" fill="#d4f2f6"/></g></g><g><g><path d="m400.783 276.24c-2.155 0-4.294-.924-5.777-2.713-2.644-3.188-2.202-7.917.986-10.561l11.226-9.308c8.07-6.69 12.698-16.539 12.698-27.022v-10.519c0-4.142 3.357-7.5 7.5-7.5s7.5 3.358 7.5 7.5v10.519c0 14.963-6.606 29.021-18.125 38.57l-11.225 9.307c-1.399 1.161-3.097 1.727-4.783 1.727z" fill="#d4f2f6"/></g></g><g fill="#d4f2f6"><path d="m210.404 32.361h-23.753c-12 0-21.729 9.728-21.729 21.729 0 12 9.728 21.729 21.729 21.729h23.753c-12 0-21.729-9.728-21.729-21.729.001-12 9.729-21.729 21.729-21.729z"/><path d="m466.413 187.453-17.131-6.723c-14.443-5.668-24.987-18.325-27.952-33.555l-20.076-103.128c-4.979-25.581-27.387-44.047-53.447-44.047h-23.753c26.061 0 48.468 18.466 53.448 44.047l20.076 103.129c2.965 15.23 13.508 27.887 27.952 33.555l17.131 6.723c17.366 6.815 28.787 23.567 28.787 42.221v240.354c0 14.896-12.075 26.971-26.971 26.971h23.753c14.896 0 26.971-12.075 26.971-26.971v-240.355c-.001-18.654-11.423-35.406-28.788-42.221z"/><path d="m122.787 465.172v4.857c0 14.896-12.075 26.971-26.971 26.971h23.753c14.896 0 26.971-12.075 26.971-26.971v-4.857c0-13.427 10.885-24.312 24.312-24.312h-23.753c-13.428 0-24.312 10.885-24.312 24.312z"/></g><path d="m341.781 215.666-41.869-12.31c-33.564-9.869-69.259-9.869-102.824 0-44.987 11.668-87.284 23.311-105.654 71.157l37.45 34.375c6.227 5.715 15.044 7.644 23.088 5.051l40.608-13.091c36.359-11.721 75.481-11.721 111.839 0l40.608 13.091c8.044 2.593 16.861.664 23.088-5.051l37.45-34.375c-11.576-28.002-34.349-50.481-63.784-58.847z" fill="#6bd9e7"/><g><path d="m341.781 215.667-41.869-12.31c-21.512-6.325-43.9-8.589-66.041-6.806 28.697 2.048 57.424 10.182 84.157 19.117 25.624 7.282 46.199 25.26 58.735 48.266 3.234 5.934 2.092 13.296-2.887 17.866l-29.513 27.089c-1.434 1.317-3.011 2.422-4.679 3.328l5.345 1.723c8.044 2.593 16.861.664 23.088-5.051l37.45-34.375c-11.578-28.003-34.351-50.482-63.786-58.847z" fill="#29c8d9"/></g><g><g fill="#d4f2f6"><path d="m109.47 440.86h61.38c-10.13 0-18.81 6.19-22.46 15h-38.92c-4.14 0-7.5-3.36-7.5-7.5s3.36-7.5 7.5-7.5z"/><path d="m395.03 448.36c0 4.14-3.36 7.5-7.5 7.5h-38.92c-3.65-8.81-12.33-15-22.46-15h61.38c4.14 0 7.5 3.36 7.5 7.5z"/></g></g></g></svg>