<svg id="Capa_1" enable-background="new 0 0 453.54 453.54" height="512" viewBox="0 0 453.54 453.54" width="512" xmlns="http://www.w3.org/2000/svg"><g><g><path d="m430.348 453.542c1.884-50.87-30.155-70.435-30.155-70.435l-134.978-76.304h-76.896l-134.97 76.304s-32.039 19.565-30.156 70.435z" fill="#f9c5b8"/></g><g><path d="m178.719 316.672h96.104c-21.293-11.498-15.555-55.7-15.555-55.7h-64.994c-.001 0 5.738 44.202-15.555 55.7z" fill="#f9c5b8"/></g><g><path d="m192.942 294.204c22.96-2.622 45.434-10.318 65.633-21.695.077-6.786.692-11.536.692-11.536h-64.994c0-.001 2.254 17.418-1.331 33.231z" fill="#f5a997"/></g><g><g><path d="m338.865 162.497c-2.023 15.634-10.868 27.245-19.759 25.931-8.891-1.315-14.458-15.055-12.438-30.69 2.023-15.635 10.872-27.245 19.762-25.931 8.891 1.314 14.459 15.054 12.435 30.69z" fill="#f5a997"/></g><g><g><path d="m318.979 176.819c-1.205 0-2.301-.819-2.604-2.042-2.216-8.973-3.222-19.604 6.112-30.43.967-1.121 2.663-1.248 3.785-.28 1.121.968 1.247 2.663.279 3.786-8.103 9.398-6.812 18.162-4.966 25.638.356 1.439-.522 2.894-1.963 3.249-.214.053-.43.079-.643.079z" fill="#e9837b"/></g><g><path d="m328 161.237c-.166 0-.335-.016-.505-.048-4.306-.815-8.745-.005-8.791 0-1.462.267-2.856-.688-3.131-2.141-.274-1.455.68-2.857 2.134-3.133.218-.044 5.453-1.015 10.791 0 1.456.276 2.411 1.681 2.136 3.137-.245 1.288-1.37 2.185-2.634 2.185z" fill="#e9837b"/></g></g></g><g><g><path d="m114.676 162.497c2.023 15.634 10.868 27.245 19.759 25.931 8.891-1.315 14.458-15.055 12.438-30.69-2.023-15.635-10.872-27.245-19.762-25.931-8.891 1.314-14.459 15.054-12.435 30.69z" fill="#f5a997"/></g><g><g><path d="m134.563 176.819c-.214 0-.43-.025-.645-.08-1.44-.355-2.319-1.81-1.963-3.249 1.846-7.477 3.137-16.24-4.966-25.638-.968-1.123-.842-2.818.279-3.786 1.124-.969 2.82-.842 3.785.28 9.334 10.826 8.328 21.457 6.112 30.43-.302 1.224-1.397 2.043-2.602 2.043z" fill="#e9837b"/></g><g><path d="m125.541 161.237c-1.264 0-2.389-.897-2.634-2.184-.275-1.457.68-2.861 2.136-3.137 5.338-1.014 10.571-.043 10.791 0 1.456.277 2.412 1.682 2.136 3.137-.276 1.457-1.695 2.406-3.135 2.137-.077-.013-4.496-.814-8.789 0-.17.032-.339.047-.505.047z" fill="#e9837b"/></g></g></g><g><path d="m316.817 125.034c-1.594-44.605-28.971-99.707-85.102-99.405h-5.735-5.738c-56.131-.302-83.505 54.8-85.102 99.405-1.601 44.832 12.144 96.537 40.066 124.035 13.091 12.89 32.947 19.09 50.773 19.4 17.823-.31 37.68-6.51 50.771-19.4 27.923-27.498 41.668-79.203 40.067-124.035z" fill="#f9c5b8"/></g><g><g><path d="m207.63 169.605c0 5.458-9.743 9.886-21.765 9.886-12.018 0-21.765-4.428-21.765-9.886 0-5.463 9.747-9.891 21.765-9.891 12.022 0 21.765 4.428 21.765 9.891z" fill="#f6afa8"/></g><g><path d="m287.857 169.605c0 5.458-9.743 9.886-21.765 9.886-12.019 0-21.766-4.428-21.766-9.886 0-5.463 9.747-9.891 21.766-9.891 12.022 0 21.765 4.428 21.765 9.891z" fill="#f6afa8"/></g></g><g><path d="m294.134 16.184s-29.719-16.699-67.957-16.173c-38.242-.526-67.957 16.173-67.957 16.173-46.969 34.891-33.144 115.788-33.144 115.788 12.724.925 5.218 23.564 13.748 38.03 6.458-13.877 3.781-45.857 3.781-45.857 1.254-7.619 6.122-14.077 9.31-20.929 3.274-7.04.14.065 3.274-7.04 3.799-8.618 5.784-25.184 9.307-33.919 25.447-4.614 45.661-6.469 61.681-6.665 16.02.196 36.232 2.051 61.681 6.665 3.519 8.735 5.507 25.301 9.306 33.919 3.135 7.105 0 0 3.274 7.04 3.188 6.852 8.052 13.31 9.307 20.929 0 0-2.674 31.979 3.784 45.857 8.531-14.465 1.024-37.104 13.748-38.03-.001 0 13.825-80.897-33.143-115.788z" fill="#5c2d6d"/></g><g><g><path d="m197.405 154.782c-1.482 0-2.685-1.201-2.685-2.684 0-5.244-2.402-9.311-4.47-9.311s-4.473 4.067-4.473 9.311c0 1.482-1.202 2.684-2.684 2.684s-2.685-1.201-2.685-2.684c0-8.231 4.323-14.679 9.841-14.679 5.517 0 9.838 6.448 9.838 14.679.002 1.483-1.2 2.684-2.682 2.684z" fill="#2a2d6b"/></g><g><path d="m268.863 154.782c-1.481 0-2.684-1.201-2.684-2.684 0-5.244-2.404-9.311-4.473-9.311-2.067 0-4.47 4.067-4.47 9.311 0 1.482-1.202 2.684-2.685 2.684-1.481 0-2.684-1.201-2.684-2.684 0-8.231 4.321-14.679 9.838-14.679 5.518 0 9.841 6.448 9.841 14.679.002 1.483-1.2 2.684-2.683 2.684z" fill="#2a2d6b"/></g></g><g><path d="m303.174 328.261 97.019 54.846s32.039 19.565 30.155 70.435h-407.156c-1.883-50.87 30.156-70.435 30.156-70.435l97.015-54.846 69.761 51.912z" fill="#3f5aa6"/></g><g><g><path d="m202.332 125.482c-.262 2.552-2.278 4.262-4.501 4.049-8.163-.796-16.278.549-23.746 3.938-2.037.919-4.497-.048-5.57-2.379-1.073-2.325-.073-5.296 2.324-6.381 8.565-3.888 17.871-5.432 27.233-4.517 2.617.254 4.526 2.744 4.26 5.29z" fill="#2a2e6d"/></g><g><path d="m249.622 125.482c.266 2.552 2.282 4.262 4.505 4.049 8.163-.796 16.277.549 23.746 3.938 2.037.919 4.494-.048 5.57-2.379 1.073-2.325.07-5.296-2.324-6.381-8.565-3.888-17.875-5.432-27.237-4.517-2.614.254-4.522 2.744-4.26 5.29z" fill="#2a2e6d"/></g></g><g><path d="m223.941 195.148c-.339 0-.685-.065-1.019-.203-5.773-2.375-8.917-5.042-9.89-8.396-1.284-4.424 1.532-8.412 4.517-12.633 1.868-2.643 3.799-5.376 4.739-8.235.461-1.407 1.982-2.169 3.386-1.712 1.408.463 2.176 1.98 1.713 3.388-1.19 3.624-3.455 6.83-5.454 9.657-2.217 3.136-4.309 6.098-3.746 8.038.323 1.109 1.76 2.865 6.776 4.929 1.371.564 2.025 2.132 1.461 3.503-.426 1.037-1.427 1.664-2.483 1.664z" fill="#e9837b"/></g><g><path d="m299.616 187.276c-2.631 9.482-8.376 26.315-21.467 22.883-3.52-.923-6.511-3.706-9.198-6.01-4.638-3.972-8.778-7.285-14.888-8.544-6.328-1.304-13.027-.81-19.43-.504-2.475.118-5.145.402-7.867.688v-.029h-2.414c-2.723-.287-5.393-.571-7.867-.688-6.401-.306-13.102-.8-19.43.504-6.108 1.26-10.25 4.572-14.888 8.544-2.688 2.305-5.679 5.087-9.197 6.01-13.092 3.432-18.837-13.401-21.468-22.883-2.419-8.707-4.456-21.273-15.09-24.357 4.889 33.555 17.676 85.054 37.927 104.998 12.906 12.708 32.382 18.901 50.013 19.371v.029h2.414c17.631-.47 37.106-6.663 50.013-19.371 20.251-19.944 33.038-71.443 37.927-104.998-10.634 3.084-12.671 15.65-15.09 24.357z" fill="#5c2d6d"/></g><g><path d="m196.821 214.591c4.085 12.197 15.586 20.997 29.159 20.997s25.071-8.799 29.156-20.997z" fill="#fff"/></g></g></svg>