<svg id="Capa_1" enable-background="new 0 0 512 512" height="512" viewBox="0 0 512 512" width="512" xmlns="http://www.w3.org/2000/svg"><g><path d="m262.943.169c-2.303-.112-4.62-.169-6.951-.169-77.53.004-140.379 62.855-140.379 140.386v53.678c-.008 75.243-17.453 134.891-26.987 161.874-3.082 8.72 1.58 18.219 10.353 21.144l157.013 52.338 108.578-72.611v-216.423c0-75.2-27.326-136.59-101.627-140.217z" fill="#c6805d"/><path d="m423.359 355.938c-9.535-26.982-26.98-86.631-26.988-161.874v-53.678c0-75.249-59.059-136.662-133.428-140.217 33.311 3.386 59.113 31.69 59.113 65.895v156.903l-49.548 66.065 49.548 118.366 90.949-30.316c8.773-2.925 13.435-12.424 10.354-21.144z" fill="#a46a5a"/><path d="m331.556 381.134-9.182-3.241c-13.207-4.661-22.038-17.144-22.038-31.149v-30.089l-93.884 3.295v20.034c0 14.005-8.832 26.488-22.038 31.149l-8.077 2.85 11.871 67.097h136.832z" fill="#fbbd80"/><path d="m335.65 373.979-8.063-2.846c-13.207-4.661-22.038-17.144-22.038-31.149v-50.952h-99.097v30.918c15.179 6.636 31.914 10.372 49.54 10.372 6.663 0 13.186-.568 19.55-1.616 7.062-1.163 13.49 4.121 13.49 11.277 0 21.01 13.25 39.737 33.063 46.728l14.899 5.258z" fill="#f4aa73"/><path d="m412.877 410.89-57.138-20.167-37.33 23.75c-16.272 15.408-38.237 24.861-62.417 24.861-25.775 0-49.034-10.741-65.563-27.988l-45.438-26.3-45.868 16.189c-19.81 6.991-33.057 25.716-33.057 46.723v39.267c0 13.682 11.092 24.774 24.774 24.774h330.323c2.895 0 5.676-.495 8.258-1.408l8.779-23.366v-39.265c-.002-12.636-5.512-30.078-25.323-37.07z" fill="#dfbdf0"/><path d="m412.877 401.236-45.881-16.194-15.323 12.106 55.703 19.656c13.209 4.662 22.043 17.147 22.043 31.155v62.633c9.601-3.413 16.516-12.595 16.516-23.366v-39.265c.001-21.008-13.247-39.733-33.058-46.725z" fill="#cbb0f2"/><path d="m223.528 128.249-15.633-2.979c-9.345 19.563-29.495 48.146-67.516 48.146-.005.003-4.129.003-4.129.003-12.104 0-21.775 10.416-20.538 22.774 1.075 10.745 10.916 18.516 21.715 18.516h11.628c3.698 48.452 39.481 87.929 86.18 97.089 0 0 13.354-.167 20.758-1.144 56.017-7.395 85.669-40.526 89.899-95.945l9.198-31.656c-73.097 0-114.741-35.943-131.562-54.804z" fill="#ffd18d"/><path d="m375.734 173.419s-20.64 0-20.645-.003c-11.857 0-22.802-1.024-33.032-2.689-52.836-8.6-84.437-36.314-98.529-52.115-4.031-4.52-11.279-3.195-13.675 2.368-.587 1.363-1.249 2.807-1.958 4.29 28.298 33.565 68.537 56.686 114.161 62.918v18.263c0 52.262-37.362 95.76-86.823 105.348 6.715 1.317 13.655 2.007 20.758 2.007 56.503 0 102.708-43.678 106.938-99.097h11.626c10.8 0 20.641-7.771 21.717-18.517 1.237-12.357-8.435-22.773-20.538-22.773z" fill="#fbbd80"/><path d="m190.419 160.197c-3.774 0-7.177-2.597-8.048-6.431-1.008-4.448 1.782-8.871 6.226-9.879l24.863-5.641c4.492-1.028 8.879 1.778 9.887 6.226s-1.782 8.871-6.226 9.879l-24.863 5.641c-.621.141-1.234.205-1.839.205z" fill="#a46a5a"/><path d="m218.259 225.116c-5.982 0-9.998 6.177-7.594 11.655 7.658 17.445 25.051 29.636 45.327 29.636s37.669-12.191 45.327-29.636c2.405-5.478-1.611-11.655-7.594-11.655z" fill="#fff"/><path d="m227.298 192.084c-2.669 0-5.282-1.286-6.871-3.669-3.79-5.661-15.516-5.661-19.306 0-2.532 3.802-7.645 4.806-11.452 2.278-3.79-2.536-4.815-7.665-2.274-11.456 4.992-7.468 13.726-11.927 23.379-11.927s18.387 4.46 23.379 11.927c2.54 3.79 1.516 8.919-2.274 11.456-1.411.94-3.008 1.391-4.581 1.391z" fill="#a46a5a"/><path d="m317.823 192.084c-2.669 0-5.282-1.286-6.871-3.669-3.79-5.661-15.516-5.661-19.306 0-2.524 3.802-7.653 4.806-11.452 2.278-3.79-2.536-4.815-7.665-2.274-11.456 4.992-7.468 13.726-11.927 23.379-11.927s18.387 4.46 23.379 11.927c2.54 3.79 1.516 8.919-2.274 11.456-1.412.94-3.009 1.391-4.581 1.391z" fill="#a46a5a"/><path d="m347.303 385.478-21.244 2.634c-16.657 20.181-41.855 33.049-70.066 33.049-34.34 0-64.213-19.065-79.655-47.178l-31.346 11.064c20.22 40.927 62.262 69.146 111.002 69.146 42.648 0 80.29-21.799 102.549-54.621z" fill="#f2d1ff"/><path d="m326.058 388.112 32.483 11.461c3.129-4.632 5.961-9.482 8.455-14.53l-31.346-11.064c-2.768 5.04-5.954 9.732-9.592 14.133z" fill="#dfbdf0"/></g></svg>