<?xml version="1.0" encoding="iso-8859-1"?>
<!-- Generator: Adobe Illustrator 19.0.0, SVG Export Plug-In . SVG Version: 6.00 Build 0)  -->
<svg version="1.1" id="Capa_1" xmlns="http://www.w3.org/2000/svg" xmlns:xlink="http://www.w3.org/1999/xlink" x="0px" y="0px"
	 viewBox="0 0 512.003 512.003" style="enable-background:new 0 0 512.003 512.003;" xml:space="preserve">
<path style="fill:#AEA8AF;" d="M398.84,193.01c-8.864-7.515-14.423-18.306-14.56-29.926c-0.013-1.091-0.02-23.701-0.02-23.701
	c0-69.061-53.073-128.486-122.058-131.734C188.549,4.18,127.745,62.869,127.745,135.76c0,0-0.006,26.232-0.02,27.324
	c-0.137,11.62-5.696,22.411-14.56,29.926c-18.281,15.499-28.748,39.914-24.597,66.564c4.631,29.731,28.24,54.028,57.854,59.352
	c23.65,4.251,45.699-3.04,61.487-17.183l96.194,0.006c15.787,14.139,37.832,21.427,61.479,17.177
	c29.614-5.324,53.223-29.621,57.854-59.352C427.589,232.924,417.121,208.509,398.84,193.01z"/>
<path style="fill:#C9C6CA;" d="M398.84,193.01c-8.864-7.515-14.423-18.306-14.56-29.926c-0.013-1.091-0.02-23.701-0.02-23.701
	c0-69.061-53.073-128.486-122.058-131.734c-2.091-0.098-4.131,0.03-6.2,0.03v294.067l48.101,0.003
	c15.787,14.139,37.832,21.427,61.479,17.177c29.614-5.324,53.223-29.621,57.854-59.352
	C427.589,232.924,417.121,208.509,398.84,193.01z"/>
<path style="fill:#E3AA75;" d="M412.757,387.296l-99.451-46.801c-5.619-2.644-9.206-8.296-9.206-14.506v-53.955h-96.194v53.955
	c0,6.21-3.587,11.862-9.206,14.506l-99.451,46.801c-16.857,7.933-27.617,24.888-27.617,43.519v73.688h368.742v-73.687
	C440.374,412.184,429.614,395.229,412.757,387.296z"/>
<path style="fill:#D4F582;" d="M396,404.585l16.836-16.836c-0.034-0.192-0.046-0.262-0.079-0.454l-69.735-32.815
	c-12.516,26.651-46.701,45.813-87.019,45.813c-40.325,0-74.481-19.171-86.977-45.833l-70.112,32.994
	c-0.003,0.016-0.003,0.018-0.006,0.034l17.098,17.098c7.516,7.517,11.739,17.711,11.739,28.341v71.576h256.516v-71.576
	C384.261,422.297,388.484,412.102,396,404.585z"/>
<path style="fill:#D29B6E;" d="M207.906,309.149c14.602,6.966,30.87,10.983,48.097,10.983s33.495-4.016,48.097-10.983v-37.114
	h-96.194L207.906,309.149L207.906,309.149z"/>
<path style="fill:#F5B97D;" d="M256.003,296.083L256.003,296.083c-53.126,0-96.194-43.067-96.194-96.193V87.663h192.387v112.226
	C352.197,253.015,309.129,296.083,256.003,296.083z"/>
<g>
	<path style="fill:#E3AA75;" d="M346.853,171.833c1.78,0,3.563-0.092,5.344-0.139v-84.03H181.58
		C219.364,139.924,279.954,171.833,346.853,171.833z"/>
	<path style="fill:#E3AA75;" d="M183.858,199.889V87.663H159.81v112.226c0,53.126,43.067,96.194,96.194,96.194
		c4.081,0,8.076-0.338,12.024-0.831C220.59,289.323,183.858,248.934,183.858,199.889z"/>
</g>
<path style="fill:#DBD9DC;" d="M262.204,7.648c-31.317-1.475-60.25,8.366-83.235,25.68
	c26.326,67.001,91.541,114.456,167.884,114.456c12.83,0,25.338-1.362,37.41-3.909c-0.001-2.638-0.001-4.493-0.001-4.493
	C384.261,70.321,331.188,10.897,262.204,7.648z"/>
<path style="fill:#C9C6CA;" d="M286.258,11.206c-7.752-1.926-15.781-3.168-24.055-3.558C188.549,4.18,127.745,62.869,127.745,135.76
	c0,0-0.002,7.916-0.006,15.233C208.709,149.715,275.174,89.42,286.258,11.206z"/>
<path style="fill:#BEE86E;" d="M343.022,354.48c-12.515,26.651-46.701,45.813-87.019,45.813c-40.325,0-74.482-19.171-86.977-45.833
	l-21.895,10.303c16.291,35.114,58.262,59.578,108.871,59.578s92.581-24.464,108.871-59.578L343.022,354.48z"/>
<path d="M415.95,380.51l-99.451-46.801c-2.976-1.4-4.899-4.431-4.899-7.72v-9.479c16.393,9.735,35.862,13.293,55.31,9.797
	c32.542-5.85,58.835-32.817,63.938-65.58c4.344-27.884-5.809-55.338-27.157-73.439c-7.462-6.327-11.803-15.181-11.911-24.292
	c-0.009-0.79-0.016-14.556-0.019-23.615c0-35.522-13.186-69.479-37.13-95.613c-24.25-26.47-56.95-41.958-92.076-43.612
	c-37.529-1.768-73.142,11.502-100.25,37.364c-27.124,25.876-42.061,60.765-42.061,98.238c-0.002,10.493-0.01,26.407-0.019,27.237
	c-0.107,9.112-4.448,17.966-11.911,24.293c-21.349,18.101-31.501,45.554-27.157,73.438c5.103,32.762,31.396,59.729,63.938,65.58
	c4.899,0.881,9.799,1.314,14.651,1.314c14.413,0,28.395-3.838,40.659-11.122v9.49c0,3.289-1.923,6.319-4.899,7.72l-99.45,46.802
	c-19.393,9.126-31.924,28.872-31.924,50.305v73.688c0,4.142,3.358,7.5,7.5,7.5s7.5-3.358,7.5-7.5v-73.688
	c0-13.785,7.104-26.607,18.473-34.023l13.097,13.098c6.153,6.153,9.542,14.335,9.542,23.038v71.575c0,4.142,3.358,7.5,7.5,7.5
	s7.5-3.358,7.5-7.5v-71.575c0-12.709-4.949-24.658-13.936-33.645l-9.573-9.573l54.812-25.794
	c15.848,26.476,50.851,43.877,89.481,43.877c38.679,0,73.613-17.381,89.464-43.86l54.777,25.777l-9.573,9.573
	c-8.987,8.986-13.936,20.935-13.936,33.645v7.446c0,4.142,3.358,7.5,7.5,7.5s7.5-3.358,7.5-7.5v-7.446
	c0-8.703,3.389-16.885,9.542-23.038l13.097-13.098c11.369,7.416,18.473,20.239,18.473,34.023v73.688c0,4.142,3.358,7.5,7.5,7.5
	s7.5-3.358,7.5-7.5v-73.688C447.874,409.382,435.343,389.636,415.95,380.51z M376.781,163.172
	c0.158,13.46,6.431,26.42,17.209,35.558c17.332,14.695,25.569,37.009,22.036,59.689c-4.134,26.543-25.423,48.389-51.771,53.125
	c-19.003,3.415-38.004-1.421-52.656-13.275v-10.887c28.893-18.425,48.097-50.757,48.097-87.493v-16.033c0-4.142-3.358-7.5-7.5-7.5
	s-7.5,3.358-7.5,7.5v16.033c0,48.906-39.788,88.693-88.693,88.693s-88.693-39.788-88.693-88.693v-46.534
	c20.361-5.376,45.65-15.624,68.633-35.145c3.833,3.461,16.232,13.726,37.216,22.468c16.585,6.911,41.165,13.835,73.073,13.835
	c9.526,0,19.72-0.631,30.535-2.051C376.77,157.717,376.775,162.645,376.781,163.172z M135.245,135.76
	c0-33.334,13.288-64.369,37.415-87.387c24.112-23.003,55.795-34.805,89.191-33.233c31.142,1.467,60.164,15.232,81.721,38.762
	c20.941,22.858,32.67,52.414,33.166,83.431c-44.309,6.187-77.071-1.988-97.055-10.187c-17.757-7.286-28.74-15.815-32.726-19.229
	c2.281-2.345,4.526-4.792,6.724-7.356c2.696-3.145,2.332-7.88-0.813-10.575c-3.146-2.696-7.88-2.332-10.575,0.813
	c-36.353,42.412-87.934,51.202-107.05,53.02C135.244,139.882,135.245,136.657,135.245,135.76z M147.751,311.544
	c-26.348-4.736-47.637-26.582-51.771-53.125c-3.533-22.681,4.705-44.994,22.036-59.689c10.778-9.138,17.051-22.098,17.209-35.559
	c0.003-0.271,0.006-1.9,0.008-4.24c4.251-0.337,10.103-0.989,17.076-2.246v43.204c0,36.735,19.203,69.067,48.097,87.493v10.887
	C185.755,310.123,166.754,314.96,147.751,311.544z M248.504,392.537c-29.75-1.951-55.831-15.355-68.299-35.049l21.688-10.207
	c1.089-0.512,2.122-1.108,3.103-1.77c8.913,12.056,24.933,20.113,43.507,21.844L248.504,392.537L248.504,392.537z M216.997,336.495
	c-1.03-1.389-1.59-3.069-1.59-4.798v-36.396c12.475,5.328,26.197,8.281,40.597,8.281c14.4,0,28.122-2.953,40.597-8.281v36.551
	c0,1.75-0.572,3.453-1.628,4.849c-7.261,9.596-22.464,16.011-38.907,16.011C239.53,352.712,224.199,346.202,216.997,336.495z
	 M263.504,392.542v-25.189c18.384-1.752,34.634-9.903,43.57-21.795c0.961,0.644,1.974,1.224,3.039,1.724l21.732,10.227
	C319.37,377.215,293.305,390.608,263.504,392.542z"/>
<path d="M384.261,464.937c-4.142,0-7.5,3.358-7.5,7.5v32.065c0,4.142,3.358,7.5,7.5,7.5s7.5-3.358,7.5-7.5v-32.065
	C391.761,468.295,388.403,464.937,384.261,464.937z"/>
<path d="M276.266,224.638c-2.958,2.766-10.041,5.995-20.263,5.995c-10.222,0-17.304-3.229-20.263-5.995
	c-3.025-2.829-7.772-2.669-10.601,0.357c-2.829,3.025-2.668,7.771,0.357,10.601c6.724,6.285,18.127,10.037,30.506,10.037
	c12.378,0,23.782-3.752,30.506-10.037c3.026-2.829,3.186-7.575,0.357-10.601C284.038,221.969,279.291,221.809,276.266,224.638z"/>
<path d="M212.248,164.333c-4.142,0-7.5,3.358-7.5,7.5v8.016c0,4.142,3.358,7.5,7.5,7.5s7.5-3.358,7.5-7.5v-8.016
	C219.748,167.691,216.39,164.333,212.248,164.333z"/>
<path d="M299.757,164.333c-4.142,0-7.5,3.358-7.5,7.5v8.016c0,4.142,3.358,7.5,7.5,7.5s7.5-3.358,7.5-7.5v-8.016
	C307.257,167.691,303.9,164.333,299.757,164.333z"/>
<g>
</g>
<g>
</g>
<g>
</g>
<g>
</g>
<g>
</g>
<g>
</g>
<g>
</g>
<g>
</g>
<g>
</g>
<g>
</g>
<g>
</g>
<g>
</g>
<g>
</g>
<g>
</g>
<g>
</g>
</svg>
