<svg id="Layer_1" height="512" viewBox="0 0 66 66" width="512" xmlns="http://www.w3.org/2000/svg"><g><path d="m62.3434 64.9849h-58.6868c0-8.6207 5.9947-16.0742 14.4031-17.931 9.838-2.1668 20.0295-2.1677 29.8679-.0028l.0127.0028c8.4084 1.8568 14.4031 9.3104 14.4031 17.931z" fill="#fdc03c"/><path d="m43.1095 47.5755v8.9054l-10.1095-3.281-10.1095 3.2809v-8.9054c0-2.6622 2.4476-4.8369 5.4911-4.8369h9.2157c3.0434 0 5.5122 2.1748 5.5122 4.837z" fill="#3d2f46"/><path d="m39.3927 36.1872v9.2021c0 3.7562-2.7762 6.7998-6.2023 6.7998h-.3807c-3.4261 0-6.2024-3.0436-6.2024-6.7998v-9.2021z" fill="#e59865"/><path d="m33.0025 5.7156c-8.44 0-15.29 8.34-15.29 18.64 0 9.7843 6.4575 18.64 15.29 18.64 8.8099 0 15.28-8.8057 15.28-18.64.0001-10.2999-6.84-18.64-15.28-18.64z" fill="#e4a67a"/><g fill="#3d2f46"><circle cx="27.569" cy="26.032" r="1.578"/><circle cx="37.686" cy="26.032" r="1.578"/></g><g fill="#d2dbe0"><path d="m27.9998 21.4926-3.3323.6528c-.3918.0768-.6473.4566-.5705.8484l.0247.1259c.0768.3918.4566.6473.8484.5706l3.3323-.6528c.3918-.0768.6472-.4566.5705-.8484l-.0247-.1259c-.0768-.392-.4566-.6474-.8484-.5706z"/><path d="m40.5876 22.1454-3.3322-.6528c-.3918-.0767-.7717.1786-.8485.5705l-.0247.1259c-.0767.3918.1786.7717.5705.8484l3.3323.6528c.3918.0767.7717-.1787.8484-.5706l.0247-.1259c.0768-.3917-.1786-.7715-.5705-.8483z"/></g><path d="m19.4931 25.7234c.5672-3.0092 1.1345-6.0184 1.7017-9.0275 1.2646-6.7088 4.9271-2.5289 16.1097-2.5724 9.3575-.0367 8.4973 2.4226 9.529 11.5999h2.7474c1.7426-5.0227 2.4612-11.9256-.2678-16.4916-4.5857-7.6721-20.0751-8.7325-23.4424-8.038-3.8127.7864-5.3556 3.867-4.3234 6.1326-7.6318-.526-6.8606 11.592-4.824 18.397z" fill="#d2dbe0"/><path d="m30.488 52.189h5.025v12.796h-5.025z" fill="#3d2f46"/><g fill="#ced7dc"><circle cx="33" cy="56.432" r="1.226"/><circle cx="33" cy="61.918" r="1.226"/></g><g fill="#e4a67a"><ellipse cx="47.972" cy="25.723" rx="2.719" ry="4.053"/><ellipse cx="18.028" cy="25.723" rx="2.719" ry="4.053"/></g><g><path d="m47.6425 29.7156c-1.89 7.68-7.73 13.28-14.64 13.28-6.92 0-12.76-5.61-14.64-13.3 1.52 4.34 5.45 5.97 8.56 6.94 0-1.9828 1.7109-3.52 3.68-3.52h4.8c1.967 0 3.68 1.535 3.68 3.52 3.11-.9599 7.03-2.6 8.56-6.92z" fill="#d2dbe0"/></g><g><path d="m35.6639 34.6327c1.2086 0 1.9598 1.3816 1.2427 2.3544-.8563 1.1617-2.2688 1.9423-3.9049 1.9423-1.3826 0-2.9047-.6122-3.8735-1.8871-.7498-.9868-.0353-2.4096 1.2041-2.4096z" fill="#5c2f2a"/><path d="m36.5029 37.4617c-1.3752 1.3794-3.1966 1.7332-4.8215 1.2956l.0082-.0082c.5739-1.4126 2.6287-2.3797 4.8133-1.2874z" fill="#e44457"/></g></g></svg>