<svg id="Layer_1" enable-background="new 0 0 468 468" height="512" viewBox="0 0 468 468" width="512" xmlns="http://www.w3.org/2000/svg"><g><g><g><path d="m161.137 388.737c-9.342 24.036-11.297 54.235-5.765 79.263h178.567s4.571-32.715-10.142-79.442" fill="#321e35"/></g></g><g><path d="m323.645 388.527s-15.723-55.565-5.385-116.45c9.691-57.071-20.165-72.745-20.165-72.745l-166.23 44.332s39.981 80.109 29.269 144.863z" fill="#ff57a3"/></g><g><path d="m294.281 18.697c-6.299-15.358-24.238-19.851-39.3-18.457-31.001 2.87-48.977 17.409-59.891 46.386-12.966 34.424-26.256 17.862-26.58 47.414-.324 29.553-64.677 33.43-19.449 81.514 30.721 32.661 162.724-32.151 162.724-32.151s16.495-5.275 1.621-41.244c-12.336-29.831 17.158-31.711 8.683-59.234-3.53-11.464-14.735-24.705-27.808-24.228z" fill="#321e35"/></g><g><g><path d="m263.318 257.156 97.745-26.135c-12.719-26.725-27.018-57.664-33.62-75.095-13.034-34.412-39.061-29.86-51.26-25.434-5.28 1.916-10.822 3.01-16.438 3.106l-41.99-27.2s-8.617 10.898-23.014 19.157c-11.224 6.438-17.575 10.212-39.739 13.654-51.537 8.002-50.037 60.124-62.413 113.712-12.172 57.127-27.601 107.691 28.577 113.333 27.072 2.719 79.808 1.526 117.695-6.347l-13.565-22.748c-55.046-8.234-93.432-25.83-93.432-25.83 27.183-63.643 35.643-104.679 35.643-104.679z" fill="#ffc2bd"/></g><g><path d="m262.164 234.602c-42.444-8.976-72.664-63.235-89.918-98.905l-.009-.012c-9.301 2.711-20.924 3.355-29.974 6.755l-.041.313c5.344 3.767 10.005 7.479 16.592 16.428h.003c10.671 15.13 18.744 40.463-3.907 74.978l-23.046 30.193 21.357 54.054 97.419-11.428c.001-.001 51.412-63.941 11.524-72.376z" fill="#ff57a3"/></g><g><path d="m320.097 249.479c-.62 0-1.231-.288-1.623-.829-34.021-47.091-23.225-68.704-22.749-69.601.518-.976 1.729-1.347 2.705-.829.971.516 1.343 1.718.835 2.691-.145.29-9.803 20.752 22.451 65.395.905 1.253-.116 3.173-1.619 3.173z" fill="#ff9f9f"/></g></g><g><g><path d="m313.634 272.319c3.598.454 7.057 1.523 10.442 2.828 19.034 7.335 79.214-33.207 44.298-70.277-38.876-41.275-58.451 1.146-58.451 1.146s-35.15 1.489-25.896 36.091c6.328 23.66 20.976 29.123 29.607 30.212z" fill="#ffd4cc"/></g><g><path d="m208.973 279.34c12.66-4.929 30.07-12.46 38.388-19.443 0 0-35.395-4.921-14.584-28.167l16.7-16.649 13.96 4.222-5.802 15.295c23.602-2.926 24.834 11.809 44.935 18.622 19.061 6.46 21.73 21.932 21.73 21.932s-16.546 43.588-76.556 60.875c-32.347 9.318-55.627 1.151-70.217-8.359l-27.401 29.474c-3.176 3.46-8.182 4.57-12.498 2.725-9.322-3.985-24.001-12.13-23.255-23.689.163-2.528 1.717-4.79 4.061-5.741 3.06-1.242 8.097-1.517 14.738 4.209l38.138-49.151c8.805-11.672 25.26-9.79 37.663-6.155" fill="#8d36ff"/></g><g><path d="m369.984 252.733c-8.996 13.186-24.043 20.97-39.984 21.195-11.569.163-37.514-3.027-41.283-6.955-1.395-1.454-2.358-3.27-3.582-4.871l-4.772-6.244c-1.331-1.742-3.889-1.946-5.478-.405-1.093 1.059-1.358 2.721-.804 4.14l1.743 4.462c-9.231-9.109-36.114 2.273-22.556 18.011 5.101 5.922 13.085 8.57 18.183 9.71 3.9.872 7.717 2.038 11.436 3.504 23.377 9.216 101.032 36.819 104.067-1.66.316-4.012-1.015-7.977-2.501-11.717-2.047-5.152-6.255-14.543-14.469-29.17" fill="#ffc2bd"/></g><path d="m244.604 330.989 2.346-4.176c.669-1.191.742-2.679.032-3.846-1.271-2.086-4.07-2.37-5.734-.729l-5.592 5.518c-7.007 9.863-23.373 6.677-34.098 4.803-42.669-10.11-69.692-21.232-69.692-21.232 27.183-63.643 35.643-104.679 35.643-104.679l-74.92 46.272c-12.172 57.127-27.601 107.691 28.577 113.333 27.072 2.719 79.807 1.526 117.695-6.347 0 0 4.118-.686 6.222-.854 5.207-.418 13.481-1.928 19.355-7.081 15.612-13.696-9.428-28.715-19.834-20.982z" fill="#ffc2bd"/><g><path d="m249.477 215.08 6.982-11.377c2.864-4.4 8.935-5.361 13.742-3.409 7.966 3.766 3.588 9.388 3.588 9.388s8.347 4.362-.637 8.004c-8.715 3.533-10.801 4.481-10.801 4.481z" fill="#ffd4cc"/></g></g><g><path d="m287.679 46.286s23.187 35.751-12.794 79.268-63.486-22.746-63.162-31.19c-27.653-1.981 5.917-56.59 14.911-21.109.001.001 37.382-.989 61.045-26.969z" fill="#ffd4cc"/></g></g></svg>