<svg height="512" viewBox="0 0 58 58" width="512" xmlns="http://www.w3.org/2000/svg"><g id="Page-1" fill="none" fill-rule="evenodd"><g id="017---Baby-Love" fill-rule="nonzero"><path id="Shape" d="m47 18c0 10.42-10.61 11.51-18 17.63-7.39-6.12-18-7.21-18-17.63.0016646-6.889834 3.936069-13.17425797 10.1330292-16.18548692 6.1969602-3.01122894 13.569131-2.22089975 18.9869708 2.03548692l6.39 9.97c.3264029 1.3693473.4908626 2.7722891.49 4.18z" fill="#84b5cb"/><path id="Shape" d="m39.34 29.31c-.8951487-1.2006001-2.0924465-2.1425664-3.47-2.73h-13.74c-1.3815509.5854616-2.5801165 1.5318794-3.47 2.74l.34 11.68h20z" fill="#2980ba"/><path id="Shape" d="m29 35.63c-7.39-6.12-18-7.21-18.0000929-17.63l.0000929 22c-.0028679.8735567.0606483 1.7460685.19 2.61l4.42 9.41c3.4122145 3.8035395 8.2801943 5.9775887 13.39 5.98 4.7738968 0 9.3522672-1.8964231 12.7279221-5.2720779 3.3756548-3.3756549 5.2720779-7.9540253 5.2720779-12.7279221v-22c0 10.42-10.61 11.51-18 17.63z" fill="#90bae1"/><path id="Shape" d="m47.000001 18-.000001 22c.0019865 6.0337778-3.0203048 11.6669274-8.0487426 15.0017874s-11.3936107 3.9274765-16.9512574 1.5782126v-4.58c0-8.37 3.04-13.09 7-16.37 7.39-6.12 18-7.21 18.000001-17.63z" fill="#b0d3f0"/><path id="Shape" d="m43 18c0 1.6568542-1.3431458 3-3 3-.1372135-.0000402-.2742421-.0100667-.41-.03-1.3332452 4.7455631-5.6607087 8.0247857-10.59 8.0247857s-9.2567548-3.2792226-10.59-8.0247857c-.1357579.0199333-.2727865.0299598-.41.03-1.6568542 0-3-1.3431458-3-3s1.3431458-3 3-3c.1372135.0000402.2742421.0100667.41.03 1.3063185-4.68687 5.5449568-7.95237233 10.41-8.02.0596196-.00831163.1198266-.01165646.18-.01 1.1411619-.00448999 2.2756287.17445865 3.36.53 3.5209178 1.12022851 6.2395571 3.9403937 7.23 7.5.1357579-.0199333.2727865-.0299598.41-.03.7956495 0 1.5587112.3160705 2.1213203.8786797.5626092.5626091.8786797 1.3256708.8786797 2.1213203z" fill="#fdd7ad"/><path id="Shape" d="m9 44.71c.91293553-1.6377625 2.6254224-2.6690601 4.5-2.71 2.664 0 4.5 2.339 4.5 5.111 0 3.833-3.662 6.049-9 10.889-5.338-4.84-9-7.056-9-10.889 0-2.772 1.836-5.111 4.5-5.111 1.8745776.0409399 3.58706447 1.0722375 4.5 2.71z" fill="#df4d60"/><path id="Shape" d="m14.654 42.168c-.311 2.872-2.1 10.864-12.126 10.03-.15561913-.1493642-.30316197-.3069213-.442-.472-1.27212281-1.2059149-2.02099778-2.8623431-2.086-4.614 0-2.771 1.833-5.112 4.5-5.112 1.8748761.0417536 3.58727386 1.0737586 4.5 2.712.91272614-1.6382414 2.6251239-2.6702464 4.5-2.712.0684306-.0013103.1368796.0013608.205.008.3221197.0101077.6413728.0639333.949.16z" fill="#ff5364"/><path id="Shape" d="m49 2.71c.9129355-1.63776248 2.6254224-2.66906013 4.5-2.71 2.664 0 4.5 2.339 4.5 5.111 0 3.833-3.662 6.049-9 10.889-5.338-4.84-9-7.056-9-10.889 0-2.772 1.836-5.111 4.5-5.111 1.8745776.04093987 3.5870645 1.07223752 4.5 2.71z" fill="#df4d60"/><path id="Shape" d="m54.654.168c-.311 2.872-2.1 10.864-12.126 10.03-.1556191-.1493642-.303162-.30692128-.442-.472-1.2721228-1.20591492-2.0209978-2.86234309-2.086-4.614 0-2.771 1.833-5.112 4.5-5.112 1.8748761.04175359 3.5872739 1.07375864 4.5 2.712.9127261-1.63824136 2.6251239-2.67024641 4.5-2.712.0667643-.00111869.1335383.00155227.2.008.323801.00965527.6447665.06348598.954.16z" fill="#ff5364"/><path id="Shape" d="m33 10c0 1.6568542-1.3431458 3-3 3s-3-1.3431458-3-3c0-.55228475.4477153-1 1-1s1 .44771525 1 1c0 .5522847.4477153 1 1 1s1-.4477153 1-1c-.0608835-1.34380453-.9192068-2.52104602-2.18-2.99.0596196-.00831163.1198266-.01165646.18-.01 1.1411619-.00448999 2.2756287.17445865 3.36.53.4298769.75148987.6508514 1.60431331.64 2.47z" fill="#805333"/></g></g></svg>