<svg id="Capa_1" enable-background="new 0 0 512 512" height="512" viewBox="0 0 512 512" width="512" xmlns="http://www.w3.org/2000/svg"><g><path d="m387.106 400.075h-261.425l-36.825-73.65c-7.254-14.509-10.052-30.84-8.04-46.935l49.003-205.81c3.323-14.803 14.061-25.241 28.593-25.241h33.654l15.983 6.024h95.901l15.983-6.024h31.967c14.728 0 25.219 10.728 28.978 25.581l50.305 207.541c1.849 14.796-.362 29.816-6.398 43.451z" fill="#8ac9fe"/><path d="m343.553 512h-175.106c-16.256 0-28.024-8.046-34.794-22.126l-21.259-49.541h287.219l-21.266 49.541c-6.153 12.921-18.538 22.126-34.794 22.126z" fill="#8ac9fe"/><path d="m183.653 489.874-21.259-49.541h-50l21.259 49.541c6.769 14.08 18.538 22.126 34.794 22.126h50c-16.256 0-28.024-8.046-34.794-22.126z" fill="#60b7ff"/><path d="m329.117 400.075h-146.884l-47.977-96.953c-4.628-9.256-6.412-19.674-5.129-29.942l20.046-154.233c2.083-12.974 13.278-22.516 26.419-22.516h160.595c12.569 0 23.298 9.082 25.375 21.478l21.311 156.593c1.18 9.439-.231 19.021-4.082 27.719z" fill="#eaf6ff"/><path d="m129.127 273.18 20.046-154.233c2.019-12.579 12.605-21.932 25.223-22.49l5.423-22.776c2.189-9.753 7.597-17.611 15.187-21.837.86-.479 1.747-.911 2.661-1.294l-5.602-2.11h-33.654c-14.532 0-25.27 10.438-28.593 25.241l-49.001 205.809c-2.012 16.096.786 32.427 8.04 46.935l36.825 73.65h50l-36.825-73.65c-5.359-10.719-8.285-22.432-8.637-34.311-1.506-6.161-1.888-12.576-1.093-18.934z" fill="#60b7ff"/><path d="m130.817 279.49 43.58-183.033c-12.619.558-23.204 9.911-25.223 22.49l-20.047 154.233c-.795 6.358-.413 12.773 1.092 18.934-.125-4.2.072-8.42.598-12.624z" fill="#d8ecfe"/><path d="m208.05 54.463h95.901v41.967h-95.901z" fill="#ffe07d"/><path d="m208.05 54.463h50v41.967h-50z" fill="#ffd064"/><path d="m249.191 273.251-26.584 26.818-46.622-203.639h32.163z" fill="#7880b5"/><path d="m261.64 273.251 26.584 26.818 47.889-203.639h-32.163z" fill="#7880b5"/><path d="m367.884 405.372h-227.462v-30.211c0-21.55 17.47-39.02 39.02-39.02h149.422c21.55 0 39.02 17.47 39.02 39.02z" fill="#c4e2ff"/><path d="m229.442 336.141h-50c-21.55 0-39.02 17.47-39.02 39.02v30.211h50v-30.211c.001-21.55 17.47-39.02 39.02-39.02z" fill="#aedafc"/><path d="m370.259 363.563-18.292 36.512h-191.944l-18.308-36.525c-7.573-15.108-25.999-21.162-41.056-13.489-14.917 7.601-20.902 25.818-13.399 40.785l22.396 44.68c8.751 17.458 26.607 28.482 46.136 28.482h200.425c19.529 0 37.385-11.023 46.136-28.482l22.387-44.663c7.507-14.976 1.516-33.203-13.412-40.805-15.065-7.67-33.496-1.61-41.069 13.505z" fill="#7880b5"/><g><g><g><path d="m400.259 363.563c2.819-5.627 7.144-9.999 12.239-12.875-.384-.217-.774-.427-1.17-.628-15.065-7.672-33.496-1.612-41.069 13.504l-18.292 36.512h30z" fill="#67739e"/></g><g><path d="m139.655 435.527-22.396-44.68c-7.303-14.57-1.826-32.218 12.231-40.157-8.591-4.851-19.375-5.447-28.831-.628-14.917 7.601-20.902 25.818-13.399 40.785l22.396 44.68c8.751 17.458 26.607 28.482 46.136 28.482h30c-19.53 0-37.386-11.023-46.137-28.482z" fill="#67739e"/></g></g></g><path d="m240.017 300.346h31.967v67.763h-31.967z" fill="#7880b5"/><path d="m269.31 304.174h-26.62c-27.959 0-50.624-22.665-50.624-50.624 0-7.351 5.959-13.31 13.31-13.31h101.247c7.351 0 13.31 5.959 13.31 13.31.001 27.959-22.664 50.624-50.623 50.624z" fill="#ffe07d"/><g><path d="m271.984 279.926h-31.967c-4.263 0-7.718-3.455-7.718-7.718s3.455-7.718 7.718-7.718h31.967c4.263 0 7.718 3.455 7.718 7.718s-3.455 7.718-7.718 7.718z" fill="#7880b5"/></g><path d="m249.472 279.926h-9.456c-4.263 0-7.718-3.455-7.718-7.718s3.455-7.719 7.718-7.719h3.235c-.776-3.523-1.185-7.183-1.185-10.938 0-7.351 5.959-13.31 13.31-13.31h-50c-7.351 0-13.31 5.959-13.31 13.31 0 27.959 22.665 50.624 50.624 50.624h26.621c4.024 0 7.937-.47 11.69-1.357-13.311-3.147-24.59-11.548-31.529-22.892z" fill="#ffd064"/><path d="m232.298 272.208c0 4.263 3.455 7.718 7.718 7.718h9.456c-2.872-4.696-5.001-9.896-6.221-15.437h-3.235c-4.263 0-7.718 3.455-7.718 7.719z" fill="#67739e"/><g><path d="m287.967 375.827h-63.934c-4.263 0-7.718-3.455-7.718-7.718s3.455-7.718 7.718-7.718h63.934c4.263 0 7.718 3.455 7.718 7.718.001 4.262-3.455 7.718-7.718 7.718z" fill="#8ac9fe"/></g><path d="m312.934 64.463h-113.868c-3.866 0-7-3.134-7-7v-24.354c0-18.286 14.823-33.109 33.109-33.109h61.651c18.285 0 33.109 14.823 33.109 33.109v24.355c-.001 3.865-3.135 6.999-7.001 6.999z" fill="#7880b5"/><path d="m242.066 57.463v-24.354c0-18.286 14.823-33.109 33.109-33.109h-50c-18.285 0-33.109 14.823-33.109 33.109v24.355c0 3.866 3.134 7 7 7h50c-3.866-.001-7-3.135-7-7.001z" fill="#67739e"/></g></svg>