<svg id="&#x421;&#x43B;&#x43E;&#x439;_1" viewBox="0 0 128 128" xmlns="http://www.w3.org/2000/svg"><path d="m120 86-20 37s-18 3-30.5 3-29.5-3-29.5-3l-29.5-47.5" fill="#bdbdbd"/><g fill="#ffab91"><path d="m78 18 19 8-8.72 27.51a26.62 26.62 0 0 1 -17.85 17.49"/><path d="m55.32 82.32a83.63 83.63 0 0 0 -34.21-7.32h-19.11l27-49 17.6-2.87 13.92-2.27 17.48-2.86-8.21 57.5"/><path d="m79 92 34-6h5.5a7.5 7.5 0 0 0 7.5-7.5 7.5 7.5 0 0 0 -7.5-7.5 41.11 41.11 0 0 0 -12.68 2l-30.82 10"/></g><path d="m128 78.5a9.51 9.51 0 0 0 -9.5-9.5 43 43 0 0 0 -13.3 2.1l-30.82 10a2 2 0 1 0 1.23 3.8l30.82-10a39.06 39.06 0 0 1 12.07-1.9 5.5 5.5 0 0 1 0 11h-5.5a2 2 0 0 0 -.35 0l-34 6a2 2 0 0 0 .35 4 2 2 0 0 0 .35 0l33.83-6h3.47l-17.94 33.18c-3.88.61-18.65 2.82-29.21 2.82s-24.66-2.22-28.28-2.82l-6.46-10.4-20.97-33.78h7.33a81.11 81.11 0 0 1 33.38 7.14 2 2 0 1 0 1.64-3.65 85.08 85.08 0 0 0 -35-7.49h-15.75l23.72-43.06 16.76 26.63a2 2 0 1 0 3.39-2.13l-17-27 43.34-7.08-7.83 54.8a2 2 0 0 0 4 .57l.47-3.27a28.57 28.57 0 0 0 17.94-18.34l8.73-27.52a2 2 0 0 0 -1.13-2.45l-19-8h-.1l-.17-.05-.28-.1h-.14a2 2 0 0 0 -.35 0h-.14l-48.91 8a2 2 0 0 0 -.42.12l-.13.06-.2.1-.13.1-.2.18-.1.12a2 2 0 0 0 -.16.23v.07l-27.1 49.02a2 2 0 0 0 1.75 3h7.08l2.85 4.59-3.09 13.16a2 2 0 0 0 .26 1.53l1.73 2.72a2 2 0 0 0 3.37-2.15l-1.27-2 2-8.45 13.88 22.35-8.27-2-1.31-2.06a2 2 0 0 0 -3.37 2.15l1.75 2.74a2 2 0 0 0 1.22.87l13 3.13 6.51 10.48a2 2 0 0 0 1.35.91c.7.12 17.32 3 29.85 3s30.09-2.9 30.83-3a2 2 0 0 0 1.43-1l19.69-36.43a9.51 9.51 0 0 0 6.51-9.04zm-41.63-25.59a24.58 24.58 0 0 1 -13.49 15.09l6.73-47.12 14.93 6.29z" fill="#404040"/><path d="m58.54 86.54-4.43-8.22a50.94 50.94 0 0 1 -6.11-24.18v-23.93a18.67 18.67 0 0 0 -11.19-17.1l-1.55-.68a5.44 5.44 0 0 1 -3.26-5v-3.24a2.19 2.19 0 0 1 2.19-2.19 27.81 27.81 0 0 1 27.81 27.81v19.66a50.94 50.94 0 0 0 5.82 23.63l4.61 8.81" fill="#bdbdbd"/><circle cx="68" cy="92" fill="#9e9e9e" r="10.5"/><path d="m74.3 81.22a2 2 0 0 0 -.1-.24l-4.61-8.81a49.14 49.14 0 0 1 -5.59-22.7v-19.66a29.85 29.85 0 0 0 -29.81-29.81 4.19 4.19 0 0 0 -4.19 4.19v3.25a7.44 7.44 0 0 0 4.46 6.82l1.55.68a16.67 16.67 0 0 1 9.99 15.27v23.93a53.11 53.11 0 0 0 6.35 25.13l4.18 7.73a12.5 12.5 0 1 0 17.77-5.78zm-18.43-3.85a49.09 49.09 0 0 1 -5.87-23.23v-23.93a20.67 20.67 0 0 0 -12.38-18.94l-1.55-.68a3.44 3.44 0 0 1 -2.07-3.15v-3.25a.19.19 0 0 1 .19-.19 25.84 25.84 0 0 1 25.81 25.81v19.66a53.15 53.15 0 0 0 6 24.53l2.89 5.52c-.31 0-.62 0-.93 0a12.46 12.46 0 0 0 -8.94 3.78zm12.13 23.13a8.5 8.5 0 1 1 8.5-8.5 8.51 8.51 0 0 1 -8.5 8.5z" fill="#404040"/></svg>