<?xml version="1.0" encoding="iso-8859-1"?>
<!-- Generator: Adobe Illustrator 19.0.0, SVG Export Plug-In . SVG Version: 6.00 Build 0)  -->
<svg version="1.1" id="Capa_1" xmlns="http://www.w3.org/2000/svg" xmlns:xlink="http://www.w3.org/1999/xlink" x="0px" y="0px"
	 viewBox="0 0 512 512" style="enable-background:new 0 0 512 512;" xml:space="preserve">
<path style="fill:#867E88;" d="M316.972,438.833h-84.086c-8.624,0-16.896-3.426-22.994-9.525l-63.642-63.642h154.463l16.259,32.518
	V438.833z"/>
<path style="fill:#64505A;" d="M292.583,446.963h-59.694c-10.861,0-21.07-4.232-28.748-11.909l-88.029-88.029l11.496-11.496
	l88.029,88.029c4.605,4.605,10.734,7.145,17.252,7.145h59.694V446.963z"/>
<path style="fill:#FF8087;" d="M32.435,194.943L32.435,194.943h195.112V8.17c0-4.57-3.778-8.355-8.344-8.163
	C115.315,4.378,32.435,89.981,32.435,194.943z"/>
<path style="fill:#E6646E;" d="M227.546,173.701L160.432,11.682c-5.111,1.873-10.1,3.994-15.001,6.272l58.963,142.342L95.467,51.368
	c-3.989,3.672-7.824,7.506-11.496,11.495l108.931,108.931L50.556,112.828c-2.278,4.901-4.399,9.89-6.271,15.001L206.3,194.943
	h21.247L227.546,173.701L227.546,173.701z"/>
<path style="fill:#FFB3B7;" d="M32.435,194.943l13.645,68.226c1.52,7.6,8.193,13.071,15.944,13.071H393.07
	c7.75,0,14.423-5.47,15.943-13.07l11.701-58.502c1.006-5.031-2.842-9.724-7.972-9.724H32.435V194.943z"/>
<path style="fill:#FF979D;" d="M45.442,259.981l0.638,3.189c1.52,7.6,8.193,13.071,15.944,13.071H393.07
	c7.75,0,14.423-5.471,15.943-13.07l0.638-3.189H45.442V259.981z"/>
<path style="fill:#DBD9DC;" d="M375.849,89.258c-8.558,0-16.942,3.469-22.992,9.527L109.38,342.262
	c-7.677,7.677-11.909,17.887-11.909,28.748v67.824h16.259V371.01c0-6.518,2.541-12.647,7.145-17.252l104.923-104.923l116.65,202.193
	l14.084-8.13L237.705,236.929l126.648-126.648c3.025-3.025,7.217-4.763,11.496-4.763h38.679v-16.26
	C414.528,89.258,375.849,89.258,375.849,89.258z"/>
<circle style="fill:#64505A;" cx="227.55" cy="235.59" r="16.259"/>
<path style="fill:#EDEBED;" d="M105.601,390.055c-31.429,0-56.908,25.478-56.908,56.908c0,31.429,25.479,56.908,56.908,56.908
	s56.908-25.479,56.908-56.908C162.509,415.533,137.03,390.055,105.601,390.055z M105.601,479.481
	c-17.96,0-32.519-14.559-32.519-32.519c0-17.96,14.559-32.519,32.519-32.519s32.519,14.559,32.519,32.519
	S123.561,479.481,105.601,479.481z"/>
<g>
	<path style="fill:#64505A;" d="M105.601,512c-35.861,0-65.037-29.176-65.037-65.037s29.176-65.037,65.037-65.037
		s65.037,29.176,65.037,65.037S141.462,512,105.601,512z M105.601,398.185c-26.898,0-48.778,21.88-48.778,48.778
		s21.88,48.778,48.778,48.778s48.778-21.88,48.778-48.778S132.499,398.185,105.601,398.185z"/>
	<circle style="fill:#64505A;" cx="105.6" cy="446.96" r="16.259"/>
</g>
<path style="fill:#EDEBED;" d="M349.491,390.055c-31.429,0-56.908,25.478-56.908,56.908c0,31.429,25.479,56.908,56.908,56.908
	s56.908-25.479,56.908-56.908C406.399,415.533,380.92,390.055,349.491,390.055z M349.491,479.481
	c-17.96,0-32.519-14.559-32.519-32.519c0-17.96,14.559-32.519,32.519-32.519c17.96,0,32.519,14.559,32.519,32.519
	S367.451,479.481,349.491,479.481z"/>
<g>
	<path style="fill:#64505A;" d="M349.491,512c-35.861,0-65.037-29.176-65.037-65.037s29.176-65.037,65.037-65.037
		s65.037,29.176,65.037,65.037S385.352,512,349.491,512z M349.491,398.185c-26.898,0-48.778,21.88-48.778,48.778
		s21.88,48.778,48.778,48.778s48.778-21.88,48.778-48.778S376.389,398.185,349.491,398.185z"/>
	<circle style="fill:#64505A;" cx="349.49" cy="446.96" r="16.259"/>
	<path style="fill:#64505A;" d="M422.658,113.647h40.648c8.98,0,16.259-7.28,16.259-16.259l0,0c0-8.98-7.28-16.259-16.259-16.259
		h-40.648c-8.98,0-16.259,7.28-16.259,16.259l0,0C406.399,106.367,413.678,113.647,422.658,113.647z"/>
</g>
<g>
</g>
<g>
</g>
<g>
</g>
<g>
</g>
<g>
</g>
<g>
</g>
<g>
</g>
<g>
</g>
<g>
</g>
<g>
</g>
<g>
</g>
<g>
</g>
<g>
</g>
<g>
</g>
<g>
</g>
</svg>
