<svg id="Capa_1" enable-background="new 0 0 497 497" height="512" viewBox="0 0 497 497" width="512" xmlns="http://www.w3.org/2000/svg"><g><path d="m171.96 484.006c-29.934-13.312-42.118-35.365-44.916-59.068l160.018-105.213h54.364s9.766 15.935 17.995 38.265l-43.001 94.772z" fill="#ffb2c1"/><path d="m189.975 383.56-62.931 41.377c2.798 23.703 14.982 45.756 44.916 59.068l81.754-17.682c-25.047-23.261-46.689-51.71-63.739-82.763z" fill="#ff9db0"/><path d="m287.062 319.725c-33.336 36.062-85.681 79.41-160.018 105.213-5.841-49.087 28.53-105.213 28.53-105.213z" fill="#ffc9d3"/><path d="m248.5 497c-33.397 0-58.279-4.868-76.54-12.994 93.48-28.847 154.187-85.743 187.462-126.016 19.234 52.109 30.158 139.01-110.922 139.01z" fill="#ffc9d3"/><path d="m297.166 2.407c-20.745 7.94-29.975 20.123-29.975 20.123l14.039 58.32h48.814c11.74-15.444 15.745-30.799 16.063-44.129.607-25.498-25.121-43.43-48.941-34.314z" fill="#fd5f7e"/><path d="m199.834 2.407c20.745 7.94 29.975 20.123 29.975 20.123l-14.039 58.32h-48.814c-11.74-15.444-15.745-30.799-16.063-44.129-.607-25.498 25.121-43.43 48.941-34.314z" fill="#fd5f7e"/><path d="m248.5 16.662c-18.076 0-32.73 14.653-32.73 32.729v30.311h65.459v-30.31c.001-18.076-14.653-32.73-32.729-32.73z" fill="#ff748f"/><circle cx="396.572" cy="204.453" fill="#ffcabd" r="42.213"/><path d="m162.655 319.724h-7.082s-34.371 56.127-28.53 105.213c25.364-8.804 48.163-19.653 68.525-31.556-13.751-23.259-24.895-48.196-32.913-73.657z" fill="#ffb2c1"/><circle cx="248.5" cy="204.453" fill="#ffdcce" r="148.072"/><path d="m216.458 59.868c-52.764 11.641-94.961 51.421-110.048 102.801-1.955-.278-3.95-.43-5.982-.43-23.314 0-42.213 18.899-42.213 42.213s18.9 42.213 42.213 42.213c2.033 0 4.031-.152 5.988-.43 9.724 33.112 30.702 61.41 58.518 80.461-10.793-31.873-16.719-64.74-16.719-96.316 0-66.113 25.96-126.163 68.243-170.512z" fill="#ffcabd"/><g><g><g><ellipse cx="168.182" cy="212.546" fill="#ff9db0" rx="29.636" ry="23.601"/></g><g><ellipse cx="328.818" cy="212.546" fill="#ff9db0" rx="29.636" ry="23.601"/></g></g></g><g><path d="m199.56 194.365c-4.142 0-7.5-3.358-7.5-7.5 0-3.643-2.964-6.606-6.606-6.606s-6.606 2.963-6.606 6.606c0 4.142-3.358 7.5-7.5 7.5s-7.5-3.358-7.5-7.5c0-11.914 9.692-21.606 21.606-21.606s21.606 9.692 21.606 21.606c0 4.142-3.358 7.5-7.5 7.5z" fill="#423e4f"/></g><g><path d="m325.652 194.365c-4.142 0-7.5-3.358-7.5-7.5 0-3.643-2.963-6.606-6.606-6.606s-6.606 2.963-6.606 6.606c0 4.142-3.358 7.5-7.5 7.5s-7.5-3.358-7.5-7.5c0-11.914 9.692-21.606 21.606-21.606s21.606 9.692 21.606 21.606c0 4.142-3.357 7.5-7.5 7.5z" fill="#423e4f"/></g><g><path d="m248.5 217.669c-7.902 0-15.417-3.422-20.617-9.389-2.722-3.123-2.396-7.86.726-10.582s7.86-2.397 10.582.726c2.351 2.697 5.745 4.245 9.31 4.245s6.958-1.547 9.309-4.244c2.721-3.124 7.459-3.448 10.582-.727s3.448 7.459.727 10.582c-5.202 5.966-12.717 9.389-20.619 9.389z" fill="#423e4f"/></g><path d="m241.881 454.691c-20.897 11.276-44.157 21.364-69.921 29.315 18.261 8.126 43.143 12.994 76.54 12.994 15.26 0 28.734-1.021 40.619-2.9-16.893-10.994-32.727-24.323-47.238-39.409z" fill="#ffb2c1"/></g></svg>