<svg id="Capa_1" enable-background="new 0 0 497 497" height="512" viewBox="0 0 497 497" width="512" xmlns="http://www.w3.org/2000/svg"><g><g fill="#e6f7fe"><path d="m53.139 397.895c-4.142 0-7.5-3.357-7.5-7.5v-269.489c0-4.143 3.358-7.5 7.5-7.5s7.5 3.357 7.5 7.5v269.488c0 4.143-3.358 7.501-7.5 7.501z"/><path d="m183.38 291.237c-4.142 0-7.5-3.357-7.5-7.5v-197.258c0-4.143 3.358-7.5 7.5-7.5s7.5 3.357 7.5 7.5v197.258c0 4.143-3.358 7.5-7.5 7.5z"/><path d="m313.62 441.552c-4.142 0-7.5-3.357-7.5-7.5v-348.222c0-4.143 3.358-7.5 7.5-7.5s7.5 3.357 7.5 7.5v348.222c0 4.142-3.358 7.5-7.5 7.5z"/><path d="m443.861 324.739c-4.142 0-7.5-3.357-7.5-7.5v-196.333c0-4.143 3.358-7.5 7.5-7.5s7.5 3.357 7.5 7.5v196.333c0 4.143-3.358 7.5-7.5 7.5z"/></g><path d="m248.5 71.818c-4.142 0-7.5-3.357-7.5-7.5v-38.533c0-4.143 3.358-7.5 7.5-7.5s7.5 3.357 7.5 7.5v38.533c0 4.143-3.358 7.5-7.5 7.5z" fill="#d3effd"/><path d="m248.5.052c-1.515 0-2.975.229-4.353.647-3.277 3.277-7.525 13.682-1.376 19.831s17.176 1.781 20.082-1.125c.418-1.378.647-2.839.647-4.353 0-8.285-6.716-15-15-15z" fill="#ffe07d"/><path d="m243.5 5.052c0-1.515.229-2.975.647-4.353-6.16 1.866-10.647 7.583-10.647 14.353 0 8.284 6.716 15 15 15 6.77 0 12.487-4.486 14.353-10.647-1.378.418-2.839.647-4.353.647-8.284 0-15-6.716-15-15z" fill="#ffc250"/><path d="m450.353 100.381c-54.167-26.007-125.854-40.329-201.853-40.329s-147.686 14.322-201.853 40.329c-7.431 7.941.459 22.818 8.178 19.282 51.211-23.465 122.05-37.611 193.675-37.611 73.818 0 142.975 13.685 194.732 38.534 5.075 2.435 10.815-2.227 15.199-3.116 1.658-6.748-1.565-13.962-8.078-17.089z" fill="#e6f7fe"/><path d="m443.232 113.586c-51.757-24.849-120.914-38.534-194.732-38.534-71.626 0-138.863 12.885-190.075 36.35-7.719 3.537-13.868-3.822-11.779-11.021-7.468 3.586-10.616 12.547-7.03 20.015 3.585 7.469 12.545 10.614 20.015 7.03 50.199-24.101 117.273-37.374 188.869-37.374s138.67 13.273 188.869 37.374c7.47 3.584 16.429.438 20.015-7.03.459-.956.804-1.936 1.047-2.926-4.384.889-10.125-1.449-15.199-3.884z" fill="#d3effd"/><path d="m237.727 270.81c-2.286-7.037-35.299-7.98-35.851-7.8 0-.581-11.098-31.686-18.497-31.686s-18.497 31.105-18.497 31.686c-.352-.115-13.919.231-24.288 2.323 0 0 22.663 32.123 22.923 32.208-.205.282-10.745 27.55-7.822 29.674s25.6-16.327 25.805-16.609c.16.221 37.105 11.404 37.105 11.404-1.215-10.508-5.078-23.517-5.296-23.817.552-.179 26.705-20.346 24.418-27.383z" fill="#ff9a9f"/><path d="m160.419 320.072c-2.401-1.744 4.28-20.449 6.858-27.235.548-1.443.09-3.064-1.133-4.007-5.343-4.12-19.461-15.484-25.549-23.497-5.88 1.186-10.735 2.931-11.563 5.477-2.286 7.037 23.867 27.204 24.419 27.383-.341.47-9.646 32.158-3.66 36.506 5.986 4.349 33.247-14.292 33.589-14.762.341.47 27.603 19.111 33.589 14.762 2.166-1.574 2.325-6.731 1.636-12.689-9.502-3.313-24.673-13.229-30.242-17.037-1.274-.871-2.958-.807-4.161.161-5.657 4.549-21.382 16.682-23.783 14.938z" fill="#ff8086"/><path d="m129.922 361.639c-7.79-1.867-20.583 5.625-31.269 13.429-11.721-16.54-23.632-28.33-45.514-28.33-18.762 0-35.24 9.547-44.695 21.736-.293 1.978-4.444 13.959-4.444 15.921 0 20.309 19.791 44.657 49.139 44.657 21.882 0 33.792-11.79 45.514-28.33 20.91 15.27 32.878 10.958 40.578 6.253 4.762-16.163 1.66-42.707-9.309-45.336z" fill="#fff6cf"/><path d="m101.48 392.767c-1.554-1.112-3.721-.775-4.855.763-11.098 15.05-22.864 25.522-43.486 25.522-29.348 0-45.139-24.348-45.139-44.657 0-1.962.151-3.943.444-5.921-5.336 6.878-8.444 14.595-8.444 21.921 0 20.309 23.791 43.657 53.139 43.657 21.882 0 33.792-11.79 45.514-28.33 10.685 7.803 23.479 15.296 31.269 13.429 4.328-1.037 7.43-5.799 9.309-12.176-7.346 4.489-18.577-.482-37.751-14.208z" fill="#fff0af"/><path d="m443.861 286.738c-21.882 0-33.792 11.79-45.514 28.33-8.8-6.427-19.024-12.63-26.712-13.579-21.625 19.385-6.784 52.129-.731 53.58 3.964.95 16.757-6.543 27.442-14.346 11.721 16.54 23.632 28.33 45.514 28.33 29.348 0 50.123-28.106 53.139-38.657.001-20.31-23.79-43.658-53.138-43.658z" fill="#b2e5fb"/><path d="m443.861 359.052c-20.629 0-32.397-10.479-43.498-25.538-1.125-1.526-3.261-1.878-4.813-.79-10.024 7.028-21.022 13.213-24.645 12.344-6.053-1.451-6.544-29.469.731-43.58-1.646-.203-3.183-.179-4.557.151-15.297 3.667-15.297 53.845 0 57.512 7.79 1.867 20.583-5.625 31.269-13.429 11.721 16.54 23.632 28.33 45.514 28.33 29.348 0 53.139-23.348 53.139-43.657-3.017 10.551-23.792 28.657-53.14 28.657z" fill="#91dafa"/><path d="m313.62 380.544c-11.439 0-22.013 2.702-30.632 7.607-7.578 8.897-13.798 23.872-13.798 36.387 0 25.052 16.278 46.033 16.278 46.033 25.634 7.316 55.063 7.821 71.303-13 0 0 9.278-16.248 9.278-33.033.001-26.744-23.473-43.994-52.429-43.994z" fill="#ffe07d"/><path d="m287.469 460.571s-11.278-19.248-11.278-36.033c0-12.515 1.856-25.796 6.798-36.387-13.198 7.513-21.798 20.208-21.798 36.387 0 16.785 9.278 33.033 9.278 33.033s-18.633 22.26-12.951 26.004c5.682 3.745 29.191-5.183 29.191-5.183s-1.736 17.086 6.263 18.467c7.999 1.382 20.648-13.819 20.648-13.819s12.812 15.201 20.811 13.819 6.1-18.467 6.1-18.467 23.672 8.928 29.355 5.183c5.682-3.745-13.114-26.004-13.114-26.004-20.839 6.651-43.669 10.316-69.303 3z" fill="#ffc250"/><path d="m40 397.895c-4.142 0-7.5-3.357-7.5-7.5v-6.647c0-4.143 3.358-7.5 7.5-7.5s7.5 3.357 7.5 7.5v6.647c0 4.142-3.358 7.5-7.5 7.5z" fill="#ffc250"/><path d="m298.62 451.77c-4.142 0-7.5-3.357-7.5-7.5v-6.647c0-4.143 3.358-7.5 7.5-7.5s7.5 3.357 7.5 7.5v6.647c0 4.142-3.358 7.5-7.5 7.5z" fill="#c38778"/><path d="m328.62 451.77c-4.142 0-7.5-3.357-7.5-7.5v-6.647c0-4.143 3.358-7.5 7.5-7.5s7.5 3.357 7.5 7.5v6.647c0 4.142-3.358 7.5-7.5 7.5z" fill="#c38778"/><path d="m457 337.895c-4.142 0-7.5-3.357-7.5-7.5v-6.647c0-4.143 3.358-7.5 7.5-7.5s7.5 3.357 7.5 7.5v6.647c0 4.142-3.358 7.5-7.5 7.5z" fill="#87a0af"/></g></svg>