<svg enable-background="new 0 0 32 32" height="512" viewBox="0 0 32 32" width="512" xmlns="http://www.w3.org/2000/svg"><g id="Layer_2"><path d="m28.217 12.914.933-.408c.077-.034.077-.144 0-.178l-.933-.408c-.022-.01-.04-.028-.05-.05l-.408-.933c-.034-.077-.144-.077-.178 0l-.408.933c-.01.022-.028.04-.05.05l-.933.408c-.077.034-.077.144 0 .178l.933.408c.022.01.04.028.05.05l.408.933c.034.077.144.077.178 0l.408-.933c.009-.023.027-.04.05-.05z" fill="#a55e55"/><circle cx="23.71" cy="8.21" fill="#934d48" r=".29"/><path d="m7.188 6.949.569-.249c.047-.021.047-.088 0-.108l-.569-.249c-.014-.006-.025-.017-.03-.03l-.249-.569c-.021-.047-.088-.047-.108 0l-.249.569c-.006.014-.017.025-.03.03l-.569.249c-.047.021-.047.088 0 .108l.569.249c.014.006.025.017.03.03l.249.569c.021.047.088.047.108 0l.249-.568c.006-.014.017-.025.03-.031z" fill="#a55e55"/><circle cx="4.595" cy="10.879" fill="#934d48" r=".743"/><path d="m19.474 9.789h-3.02c-1.386 0-2.533-1.08-2.616-2.464-.029-.479-.515-.794-.969-.639-3.879 1.323-3.405 5.996-3.405 5.996 0 1.598 1.295 2.893 2.893 2.893h7.283c1.696 0 3.051-1.46 2.878-3.191-.152-1.507-1.531-2.595-3.044-2.595z" fill="#a55e55"/><path d="m22.52 12.38c.17 1.73-1.18 3.19-2.88 3.19h-2c1.7 0 3.05-1.46 2.88-3.19-.15-1.5-1.53-2.59-3.05-2.59h2c1.52 0 2.9 1.09 3.05 2.59z" fill="#934d48"/><path d="m23.122 21.254h-14.244c-1.955 0-3.54-1.585-3.54-3.54 0-1.955 1.585-3.54 3.54-3.54h14.243c1.955 0 3.54 1.585 3.54 3.54 0 1.955-1.584 3.54-3.539 3.54z" fill="#a55e55"/><path d="m26.66 17.71c0 .98-.4 1.87-1.04 2.51s-1.52 1.03-2.5 1.03h-2.29c.97 0 1.86-.39 2.5-1.03s1.04-1.53 1.04-2.51c0-1.95-1.59-3.54-3.54-3.54h2.29c1.96 0 3.54 1.59 3.54 3.54z" fill="#934d48"/><g fill="#c1827e"><path d="m12.865 8.29c-.117-.172-.35-.217-.521-.1-.575.39-1.02.941-1.323 1.638-.083.19.004.411.194.493.048.021.099.031.149.031.145 0 .283-.084.344-.226.246-.564.601-1.007 1.056-1.315.173-.117.217-.35.101-.521z"/><path d="m11.048 10.967c-.209-.03-.394.116-.421.322-.03.22-.045.424-.053.6-.009.207.151.382.358.391h.017c.199 0 .365-.157.374-.358.007-.157.021-.338.047-.534.027-.205-.117-.394-.322-.421z"/><path d="m8.878 15.299c-.907 0-1.73.502-2.147 1.311-.095.184-.023.41.161.505.055.029.114.042.171.042.136 0 .267-.074.333-.203.289-.558.856-.905 1.481-.905.207 0 .375-.168.375-.375s-.167-.375-.374-.375z"/></g><path d="m26.781 26.292h-21.562c-1.778 0-3.219-1.442-3.219-3.219 0-1.778 1.441-3.219 3.219-3.219h21.563c1.778 0 3.219 1.441 3.219 3.219-.001 1.777-1.442 3.219-3.22 3.219z" fill="#a55e55"/><path d="m30 23.07c0 .89-.36 1.69-.94 2.28-.58.58-1.39.94-2.28.94h-4.04c.89 0 1.7-.36 2.28-.94.58-.59.94-1.39.94-2.28 0-1.77-1.44-3.22-3.22-3.22h4.04c1.78 0 3.22 1.45 3.22 3.22z" fill="#934d48"/><path d="m26.781 19.479h-.174c.276-.545.428-1.153.428-1.769 0-2.159-1.756-3.915-3.915-3.915h-.418c.167-.451.238-.942.191-1.452-.164-1.642-1.667-2.928-3.423-2.928h-3.02c-1.185 0-2.167-.925-2.236-2.104-.029-.571-.525-1.036-1.104-1.036-.134 0-.255.021-.36.06-4.115 1.399-3.667 6.333-3.665 6.345 0 .388.074.763.204 1.115h-.409c-1.042 0-2.023.408-2.765 1.15-.731.731-1.15 1.739-1.15 2.765 0 .616.152 1.224.428 1.769h-.174c-1.981 0-3.594 1.612-3.594 3.594s1.612 3.594 3.594 3.594h21.563c1.981 0 3.594-1.612 3.594-3.594s-1.613-3.594-3.595-3.594zm-16.948-6.836c-.018-.179-.389-4.392 3.168-5.602.141-.053.452.061.464.31.092 1.578 1.403 2.813 2.985 2.813h3.02c1.375 0 2.55.989 2.676 2.249.045.497-.051.968-.264 1.381h-11.762c-.175-.339-.285-.719-.287-1.151zm-4.118 5.067c0-.829.339-1.643.93-2.235.6-.6 1.394-.93 2.235-.93h14.24c1.745 0 3.165 1.42 3.165 3.165 0 .632-.2 1.25-.552 1.769h-19.466c-.352-.519-.552-1.137-.552-1.769zm21.066 8.207h-21.562c-1.568 0-2.844-1.276-2.844-2.844s1.276-2.844 2.844-2.844h21.563c1.568 0 2.844 1.276 2.844 2.844s-1.277 2.844-2.845 2.844z" fill="#1c0c12"/></g></svg>