<?xml version="1.0" encoding="iso-8859-1"?>
<!-- Generator: Adobe Illustrator 19.0.0, SVG Export Plug-In . SVG Version: 6.00 Build 0)  -->
<svg version="1.1" id="Capa_1" xmlns="http://www.w3.org/2000/svg" xmlns:xlink="http://www.w3.org/1999/xlink" x="0px" y="0px"
	 viewBox="0 0 512 512" style="enable-background:new 0 0 512 512;" xml:space="preserve">
<path style="fill:#E6E9ED;" d="M434.441,7.758C434.44,3.474,430.967,0,426.683,0H85.317l0,0l0,0c-4.285,0-7.759,3.474-7.759,7.759
	V188.7v88.138l31.036,22.034l103.654,73.558h0.151l43.614-31.035l43.735,31.035l103.655-73.558l31.036-22.034V188.7L434.441,7.758
	L434.441,7.758z"/>
<path style="fill:#F6BB42;" d="M15.487,232.768l62.072,44.07v-98.484C77.559,178.353,15.487,214.447,15.487,232.768z"/>
<path style="fill:#F5F7FA;" d="M395.646,31.035H116.354l0,0l0,0c-4.285,0-7.759,3.474-7.759,7.759v260.077l103.654,73.558h0.151
	l43.614-31.035l43.735,31.035l103.655-73.558V38.794C403.405,34.509,399.931,31.035,395.646,31.035z"/>
<g>
	<path style="fill:#656D78;" d="M325.815,256.044H186.185c-4.304,0-7.759,3.457-7.759,7.761c0,4.274,3.455,7.759,7.759,7.759
		h139.632c4.304,0,7.759-3.485,7.759-7.759C333.574,259.502,330.119,256.044,325.815,256.044z"/>
	<path style="fill:#656D78;" d="M294.811,287.082H217.22c-4.304,0-7.759,3.455-7.759,7.759c0,4.274,3.455,7.759,7.759,7.759h77.591
		c4.274,0,7.759-3.485,7.759-7.759C302.57,290.537,299.083,287.082,294.811,287.082z"/>
</g>
<path style="fill:#FFCE54;" d="M434.441,276.898l-31.036,22.034l-103.624,73.557H212.4h-0.151l-103.654-73.557l-31.036-22.034
	l-62.072-44.07v248.288c0,9.334,4.213,17.608,10.729,23.277h-0.03c0.03,0.03,0.061,0.03,0.091,0.061
	c5.062,4.365,11.426,7.214,18.519,7.547h422.712c3.576-0.151,6.82-1.091,9.941-2.334h0.152c11.153-4.637,18.912-15.67,18.912-28.551
	V232.829L434.441,276.898z"/>
<g>
	<path style="fill:#F6BB42;" d="M494.573,491.451L313.238,362.852l-13.457,9.578H212.4h-0.151l-13.457-9.548L17.487,491.39
		c1.819,5.031,4.759,9.487,8.729,12.911l-0.03,0.03c0.03,0,0.061,0.03,0.091,0.061c5.062,4.365,11.426,7.214,18.519,7.547h422.711
		c3.576-0.152,6.82-1.091,9.941-2.334h0.152C485.571,506.272,491.664,499.634,494.573,491.451z"/>
	<path style="fill:#F6BB42;" d="M465.477,254.862v226.254c0,12.881-7.759,23.913-18.912,28.551h-0.152
		c-3.121,1.242-6.364,2.182-9.941,2.334h31.035c3.576-0.151,6.82-1.091,9.941-2.334h0.152c11.153-4.637,18.912-15.67,18.912-28.551
		V232.829L465.477,254.862z"/>
</g>
<path style="fill:#DADDE1;" d="M426.683,0h-23.278v298.871l31.036-22.034V188.7V7.759V7.758C434.44,3.474,430.967,0,426.683,0z"/>
<path style="fill:#DCA746;" d="M46.523,254.802l31.035,22.036v-98.484c0,0-15.518,9.023-31.035,20.337V254.802z"/>
<path style="fill:#F6BB42;" d="M496.513,232.897l-62.071,44.07v-98.484C434.441,178.483,496.513,214.576,496.513,232.897z"/>
<path style="fill:#DCA746;" d="M465.477,254.931l-31.035,22.036v-98.484c0,0,15.518,9.023,31.035,20.336V254.931z"/>
<path style="fill:#FFCE54;" d="M299.751,372.429l-37.934-26.636h-0.001c-1.421-1.613-3.497-2.635-5.816-2.635
	c-2.319,0-4.394,1.023-5.816,2.635h-0.009l-37.773,26.636h-0.151L26.186,504.332c4.971,4.334,11.487,7.123,18.61,7.608h422.712
	c3.576-0.152,6.82-1.091,9.941-2.334h0.152c2.94-1.395,5.728-3.121,8.213-5.274L299.751,372.429z"/>
<path style="fill:#ED5565;" d="M313.874,105.351c-15.973-15.972-41.886-15.972-57.859,0c-16.003-15.972-41.916-15.972-57.889,0
	c-16.003,15.988-16.003,41.919,0,57.89l52.541,52.422h0.009c1.39,1.314,3.26,2.125,5.324,2.125c2.049,0,3.907-0.801,5.295-2.098
	h0.021l52.559-52.448C329.877,147.268,329.877,121.339,313.874,105.351z"/>
<path style="fill:#DA4453;" d="M313.874,105.351c-12.013-12.013-29.648-14.988-44.449-8.931c4.879,1.997,9.45,4.972,13.41,8.931
	c16.003,15.988,16.003,41.919,0,57.89l-42.351,42.263l10.183,10.159h0.009c1.39,1.314,3.26,2.125,5.324,2.125
	c2.049,0,3.907-0.801,5.295-2.098h0.021l52.559-52.448C329.877,147.268,329.877,121.339,313.874,105.351z"/>
<g>
</g>
<g>
</g>
<g>
</g>
<g>
</g>
<g>
</g>
<g>
</g>
<g>
</g>
<g>
</g>
<g>
</g>
<g>
</g>
<g>
</g>
<g>
</g>
<g>
</g>
<g>
</g>
<g>
</g>
</svg>
