<svg width="513" height="512" viewBox="0 0 513 512" fill="none" xmlns="http://www.w3.org/2000/svg">
<g clip-path="url(#clip0_1304_218)">
<path d="M477.746 512H455.402L417.235 73.091C415.386 51.836 402.064 34.428 383.621 26.651L340.063 395.69C339.394 401.351 334.587 405.517 329.023 405.517C328.588 405.517 328.148 405.491 327.704 405.439C321.6 404.719 317.235 399.185 317.955 393.08L361.723 22.261H139.273L183.041 393.081C183.761 399.186 179.397 404.719 173.292 405.44C172.849 405.492 172.409 405.518 171.973 405.518C166.409 405.518 161.602 401.353 160.933 395.691L117.375 26.653C98.931 34.43 85.609 51.838 83.761 73.093L45.594 512H23.25L61.583 71.164C63.276 51.691 72.144 33.692 86.551 20.484C100.958 7.275 119.658 0 139.204 0H361.793C381.339 0 400.037 7.275 414.445 20.483C428.852 33.691 437.72 51.691 439.413 71.163L477.746 512Z" fill="#636363"/>
<path d="M483.746 512H461.402L423.235 73.091C421.386 51.836 408.064 34.428 389.621 26.651L346.063 395.69C345.394 401.351 340.587 405.517 335.023 405.517C334.588 405.517 334.148 405.491 333.704 405.439C327.6 404.719 323.235 399.185 323.955 393.08L367.723 22.261H145.273L189.041 393.081C189.761 399.186 185.397 404.719 179.292 405.44C178.849 405.492 178.409 405.518 177.973 405.518C172.409 405.518 167.602 401.353 166.933 395.691L123.375 26.653C104.931 34.43 91.609 51.838 89.761 73.093L51.594 512H29.25L67.583 71.164C69.276 51.691 78.144 33.692 92.551 20.484C106.958 7.275 125.658 0 145.204 0H367.793C387.339 0 406.037 7.275 420.445 20.483C434.852 33.691 443.72 51.691 445.413 71.163L483.746 512Z" fill="#969696"/>
<path d="M512.5 500.869C512.5 507.016 507.517 511.999 501.37 511.999H434.587C428.44 511.999 423.457 507.016 423.457 500.869C423.457 494.722 428.44 489.739 434.587 489.739H501.37C507.517 489.738 512.5 494.721 512.5 500.869ZM78.413 489.738H11.63C5.483 489.738 0.5 494.721 0.5 500.868C0.5 507.016 5.483 511.999 11.63 511.999H78.413C84.56 511.999 89.543 507.016 89.543 500.869C89.543 494.721 84.56 489.738 78.413 489.738Z" fill="#737373"/>
<path d="M352.558 294.323L358.585 396.781C360.629 431.524 333.005 460.821 298.201 460.821H214.795C179.992 460.821 152.368 431.525 154.411 396.781L160.438 294.323C163.43 243.461 205.549 203.748 256.497 203.748C307.449 203.748 349.567 243.462 352.558 294.323Z" fill="#A6BE65"/>
<path d="M326.404 292.442L330.789 371.438C332.276 398.224 312.173 420.813 286.847 420.813H226.152C200.826 420.813 180.723 398.225 182.21 371.438L186.595 292.442C188.773 253.228 219.423 222.609 256.5 222.609C293.577 222.609 324.226 253.229 326.404 292.442Z" fill="#80995F"/>
<path d="M358.446 394.386H267.63V460.822H245.37V394.386H154.555L155.864 372.125H357.136L358.446 394.386Z" fill="#6F8452"/>
</g>
<defs>
<clipPath id="clip0_1304_218">
<rect width="512" height="512" fill="white" transform="translate(0.5)"/>
</clipPath>
</defs>
</svg>
