<svg width="513" height="512" viewBox="0 0 513 512" fill="none" xmlns="http://www.w3.org/2000/svg">
<g clip-path="url(#clip0_1304_239)">
<path d="M480.5 383.999H32.5V362.659C32.5 338.24 52.295 318.445 76.714 318.445H436.287C460.706 318.445 480.501 338.24 480.501 362.659V383.999H480.5Z" fill="#EAF6FF"/>
<path d="M384.5 224.555H416.5V396H384.5V224.555Z" fill="#FFF39F"/>
<path d="M384.5 224.555H404.5V396H384.5V224.555Z" fill="#FFE07D"/>
<path d="M172.843 71.6148C168.575 71.6148 165.117 68.1558 165.117 63.8888V32.7768C165.117 28.5098 168.576 25.0508 172.843 25.0508C177.11 25.0508 180.569 28.5098 180.569 32.7768V63.8878C180.57 68.1548 177.111 71.6148 172.843 71.6148Z" fill="#EAF6FF"/>
<path d="M340.054 85.5048C335.786 85.5048 332.328 82.0458 332.328 77.7788V32.7768C332.328 28.5098 335.787 25.0508 340.054 25.0508C344.321 25.0508 347.78 28.5098 347.78 32.7768V77.7778C347.78 82.0458 344.322 85.5048 340.054 85.5048Z" fill="#EAF6FF"/>
<path d="M256.499 115.262C252.231 115.262 248.773 111.803 248.773 107.536V31.9994C248.773 27.7324 252.232 24.2734 256.499 24.2734C260.766 24.2734 264.225 27.7324 264.225 31.9994V107.536C264.225 111.803 260.767 115.262 256.499 115.262Z" fill="#EAF6FF"/>
<path d="M345.5 32H167.5C163.634 32 160.5 28.866 160.5 25C160.5 11.193 171.693 0 185.5 0H327.5C341.307 0 352.5 11.193 352.5 25C352.5 28.866 349.366 32 345.5 32Z" fill="#97DA7B"/>
<path d="M190.5 25C190.5 11.193 201.693 0 215.5 0H185.5C171.693 0 160.5 11.193 160.5 25C160.5 28.866 163.634 32 167.5 32H197.5C193.634 32 190.5 28.866 190.5 25Z" fill="#79CF59"/>
<path d="M340.056 117.667C350.856 117.667 359.612 108.911 359.612 98.1107C359.612 87.3102 350.856 78.5547 340.056 78.5547C329.256 78.5547 320.5 87.3102 320.5 98.1107C320.5 108.911 329.256 117.667 340.056 117.667Z" fill="#E877B0"/>
<path d="M340.5 98.1107C340.5 90.9697 344.34 84.7407 350.056 81.3277C347.127 79.5787 343.715 78.5547 340.056 78.5547C329.256 78.5547 320.5 87.3097 320.5 98.1107C320.5 108.912 329.255 117.667 340.056 117.667C343.715 117.667 347.127 116.644 350.056 114.894C344.34 111.48 340.5 105.252 340.5 98.1107Z" fill="#D665A8"/>
<path d="M256.492 396H490.492V480H256.492V396Z" fill="#BA8874"/>
<path d="M256.492 396H286.492V480H256.492V396Z" fill="#A87567"/>
<path d="M20.4922 396H256.503V480H20.4922V396Z" fill="#BA8874"/>
<path d="M20.4922 396H62.5032V480H20.4922V396Z" fill="#A87567"/>
<path d="M96.5 224.555H128.5V396H96.5V224.555Z" fill="#FFF39F"/>
<path d="M96.5 224.555H116.5V396H96.5V224.555Z" fill="#FFE07D"/>
<path d="M192.5 224.555H224.5V396H192.5V224.555Z" fill="#FFF39F"/>
<path d="M192.5 224.555H212.5V396H192.5V224.555Z" fill="#FFE07D"/>
<path d="M288.5 224.555H320.5V396H288.5V224.555Z" fill="#FFF39F"/>
<path d="M288.5 224.555H308.5V396H288.5V224.555Z" fill="#FFE07D"/>
<path d="M20.4922 384H490.503V416H20.4922V384Z" fill="#FFE07D"/>
<path d="M20.4922 396H490.503V416H20.4922V396Z" fill="#FFD064"/>
<path d="M20.5078 212.555H490.499V244.555H20.5078V212.555Z" fill="#FFE07D"/>
<path d="M20.5078 224.555H490.499V244.555H20.5078V224.555Z" fill="#FFD064"/>
<path d="M160.499 455.725H128.499C124.231 455.725 120.773 452.266 120.773 447.999C120.773 443.732 124.232 440.273 128.499 440.273H160.499C164.767 440.273 168.225 443.732 168.225 447.999C168.226 452.266 164.767 455.725 160.499 455.725Z" fill="#FFF39F"/>
<path d="M384.492 455.725H352.492C348.224 455.725 344.766 452.266 344.766 447.999C344.766 443.732 348.225 440.273 352.492 440.273H384.492C388.76 440.273 392.218 443.732 392.218 447.999C392.218 452.266 388.76 455.725 384.492 455.725Z" fill="#FFF39F"/>
<path d="M178.532 67.4222L184.636 79.7912C185.56 81.6632 187.346 82.9612 189.412 83.2612L203.062 85.2442C208.265 86.0002 210.342 92.3942 206.578 96.0642L196.701 105.692C195.206 107.149 194.524 109.249 194.877 111.307L197.209 124.902C198.098 130.084 192.659 134.036 188.005 131.589L175.796 125.171C173.948 124.199 171.74 124.199 169.892 125.171L157.683 131.589C153.029 134.036 147.59 130.084 148.479 124.902L150.811 111.307C151.164 109.249 150.482 107.15 148.987 105.692L139.11 96.0642C135.345 92.3942 137.423 86.0002 142.626 85.2442L156.276 83.2612C158.342 82.9612 160.128 81.6632 161.052 79.7912L167.156 67.4222C169.482 62.7082 176.205 62.7082 178.532 67.4222Z" fill="#FFE07D"/>
<path d="M178.477 124.902L180.809 111.308C181.162 109.25 180.48 107.151 178.985 105.693L169.108 96.065C165.343 92.395 167.421 86.001 172.624 85.245L186.274 83.262C186.821 83.183 187.346 83.029 187.843 82.818C186.463 82.231 185.315 81.169 184.636 79.792L178.532 67.423C176.205 62.708 169.482 62.708 167.156 67.423L161.052 79.792C160.128 81.664 158.342 82.962 156.276 83.262L142.626 85.245C137.423 86.001 135.345 92.395 139.11 96.065L148.987 105.693C150.482 107.15 151.164 109.25 150.811 111.308L148.479 124.902C147.59 130.084 153.029 134.036 157.683 131.589L169.892 125.171C171.74 124.2 173.948 124.2 175.796 125.171L178.419 126.55C178.371 126.018 178.38 125.47 178.477 124.902Z" fill="#FFD064"/>
<path d="M261.131 132.333C261.131 121.328 265.591 111.364 272.802 104.152C277.095 99.8576 274.236 92.4626 268.165 92.4746C267.523 92.4756 266.878 92.4926 266.229 92.5246C246.243 93.5076 229.854 109.551 228.48 129.514C226.878 152.803 245.295 172.193 268.242 172.193H268.417C274.389 172.167 277.173 164.849 272.932 160.645C265.645 153.421 261.131 143.404 261.131 132.333Z" fill="#8AC9FE"/>
<path d="M248.481 129.512C249.55 113.974 259.717 100.814 273.595 95.2777C272.442 93.6237 270.559 92.4677 268.165 92.4727C267.523 92.4737 266.878 92.4907 266.229 92.5217C246.243 93.5047 229.854 109.548 228.48 129.511C226.878 152.8 245.295 172.19 268.242 172.19H268.417C270.743 172.18 272.575 171.057 273.707 169.45C258.065 163.32 247.237 147.594 248.481 129.512Z" fill="#60B7FF"/>
<path d="M25.5 512H7.5C3.634 512 0.5 508.866 0.5 505V196.555C0.5 187.718 7.663 180.555 16.5 180.555C25.337 180.555 32.5 187.718 32.5 196.555V505C32.5 508.866 29.366 512 25.5 512Z" fill="#FFF39F"/>
<path d="M20.5 505V196.555C20.5 191.505 22.845 187.008 26.5 184.076C23.76 181.877 20.286 180.555 16.5 180.555C7.663 180.555 0.5 187.718 0.5 196.555V505C0.5 508.866 3.634 512 7.5 512H25.5C25.84 512 26.173 511.967 26.5 511.92C23.109 511.434 20.5 508.526 20.5 505Z" fill="#FFE07D"/>
<path d="M505.5 512H487.5C483.634 512 480.5 508.866 480.5 505V196.555C480.5 187.718 487.663 180.555 496.5 180.555C505.337 180.555 512.5 187.718 512.5 196.555V505C512.5 508.866 509.366 512 505.5 512Z" fill="#FFF39F"/>
<path d="M500.5 505V196.555C500.5 191.505 502.845 187.008 506.5 184.076C503.76 181.877 500.286 180.555 496.5 180.555C487.664 180.555 480.5 187.718 480.5 196.555V505C480.5 508.866 483.634 512 487.5 512H505.5C505.84 512 506.173 511.967 506.5 511.92C503.109 511.434 500.5 508.526 500.5 505Z" fill="#FFE07D"/>
</g>
<defs>
<clipPath id="clip0_1304_239">
<rect width="512" height="512" fill="white" transform="translate(0.5)"/>
</clipPath>
</defs>
</svg>
