<svg width="512" height="512" viewBox="0 0 512 512" fill="none" xmlns="http://www.w3.org/2000/svg">
<path d="M480 293.445H32V272.105C32 247.686 51.795 227.891 76.214 227.891H435.787C460.206 227.891 480.001 247.686 480.001 272.105V293.445H480Z" fill="#EAF6FF"/>
<path d="M384 134H416V305.445H384V134Z" fill="#FFF39F"/>
<path d="M384 134H404V305.445H384V134Z" fill="#FFE07D"/>
<path d="M255.992 305.445H489.992V389.445H255.992V305.445Z" fill="#BA8874"/>
<path d="M255.992 305.445H285.992V389.445H255.992V305.445Z" fill="#A87567"/>
<path d="M19.9922 305.445H256.003V389.445H19.9922V305.445Z" fill="#BA8874"/>
<path d="M19.9922 305.445H62.0032V389.445H19.9922V305.445Z" fill="#A87567"/>
<path d="M96 134H128V305.445H96V134Z" fill="#FFF39F"/>
<path d="M96 134H116V305.445H96V134Z" fill="#FFE07D"/>
<path d="M192 134H224V305.445H192V134Z" fill="#FFF39F"/>
<path d="M192 134H212V305.445H192V134Z" fill="#FFE07D"/>
<path d="M288 134H320V305.445H288V134Z" fill="#FFF39F"/>
<path d="M288 134H308V305.445H288V134Z" fill="#FFE07D"/>
<path d="M19.9922 293.445H490.003V325.445H19.9922V293.445Z" fill="#FFE07D"/>
<path d="M19.9922 305.445H490.003V325.445H19.9922V305.445Z" fill="#FFD064"/>
<path d="M20.0078 122H489.999V154H20.0078V122Z" fill="#FFE07D"/>
<path d="M20.0078 134H489.999V154H20.0078V134Z" fill="#FFD064"/>
<path d="M159.999 365.171H127.999C123.731 365.171 120.273 361.712 120.273 357.445C120.273 353.178 123.732 349.719 127.999 349.719H159.999C164.267 349.719 167.725 353.178 167.725 357.445C167.726 361.712 164.267 365.171 159.999 365.171Z" fill="#FFF39F"/>
<path d="M383.992 365.171H351.992C347.724 365.171 344.266 361.712 344.266 357.445C344.266 353.178 347.725 349.719 351.992 349.719H383.992C388.26 349.719 391.718 353.178 391.718 357.445C391.718 361.712 388.26 365.171 383.992 365.171Z" fill="#FFF39F"/>
<path d="M25 421.445H7C3.134 421.445 0 418.311 0 414.445V106C0 97.163 7.163 90 16 90C24.837 90 32 97.163 32 106V414.445C32 418.311 28.866 421.445 25 421.445Z" fill="#FFF39F"/>
<path d="M20 414.445V106C20 100.95 22.345 96.453 26 93.521C23.26 91.322 19.786 90 16 90C7.163 90 0 97.163 0 106V414.445C0 418.311 3.134 421.445 7 421.445H25C25.34 421.445 25.673 421.412 26 421.365C22.609 420.879 20 417.971 20 414.445Z" fill="#FFE07D"/>
<path d="M505 421.445H487C483.134 421.445 480 418.311 480 414.445V106C480 97.163 487.163 90 496 90C504.837 90 512 97.163 512 106V414.445C512 418.311 508.866 421.445 505 421.445Z" fill="#FFF39F"/>
<path d="M500 414.445V106C500 100.95 502.345 96.453 506 93.521C503.26 91.322 499.786 90 496 90C487.164 90 480 97.163 480 106V414.445C480 418.311 483.134 421.445 487 421.445H505C505.34 421.445 505.673 421.412 506 421.365C502.609 420.879 500 417.971 500 414.445Z" fill="#FFE07D"/>
</svg>
