<svg width="513" height="512" viewBox="0 0 513 512" fill="none" xmlns="http://www.w3.org/2000/svg">
<path d="M124.344 137.129H141.964V241.752H124.344V137.129Z" fill="#B3DCFE"/>
<path d="M247.688 84.8184H265.308V199.353H247.688V84.8184Z" fill="#B3DCFE"/>
<path d="M371.031 137.129H388.652V252.214H371.031V137.129Z" fill="#B3DCFE"/>
<path d="M256.503 252.215L268.687 264.4C272.168 267.88 276.889 269.836 281.811 269.836H281.994C284.432 269.836 286.845 269.356 289.097 268.423C291.349 267.49 293.395 266.123 295.118 264.4C296.842 262.676 298.209 260.63 299.142 258.378C300.074 256.127 300.554 253.713 300.554 251.276V251.093C300.554 246.17 298.599 241.45 295.118 237.969L291.744 234.594L299.105 230.914C302.188 229.372 304.781 227.003 306.593 224.071C308.405 221.139 309.365 217.76 309.365 214.313C309.365 211.493 308.722 208.709 307.485 206.175C306.248 203.64 304.45 201.42 302.227 199.685C300.004 197.949 297.414 196.743 294.655 196.158C291.896 195.573 289.04 195.624 286.304 196.308C278.334 198.3 271.055 202.421 265.246 208.231L256.503 216.974L247.76 208.231C241.951 202.421 234.672 198.3 226.702 196.308C223.965 195.624 221.109 195.573 218.35 196.158C215.591 196.743 213.002 197.949 210.779 199.685C208.556 201.42 206.757 203.64 205.521 206.175C204.284 208.709 203.641 211.493 203.641 214.313C203.641 217.76 204.601 221.139 206.413 224.071C208.225 227.003 210.817 229.372 213.9 230.914L221.261 234.594L217.887 237.969C214.406 241.45 212.451 246.17 212.451 251.093V251.276C212.451 253.713 212.931 256.127 213.864 258.378C214.796 260.63 216.164 262.676 217.887 264.4C219.611 266.123 221.657 267.49 223.908 268.423C226.16 269.356 228.574 269.836 231.011 269.836H231.194C236.116 269.836 240.837 267.88 244.318 264.4L256.503 252.215Z" fill="#FE646F"/>
<path d="M265.308 225.783C265.308 220.917 261.364 216.973 256.498 216.973C251.632 216.973 247.688 220.917 247.688 225.783V243.404C247.688 248.27 251.632 252.214 256.498 252.214C261.364 252.214 265.308 248.27 265.308 243.404V225.783Z" fill="#B3DCFE"/>
<path d="M133.097 261.007C139.977 254.127 137.188 240.183 126.868 229.863C116.548 219.542 102.604 216.754 95.7235 223.634C88.8432 230.514 91.632 244.458 101.952 254.779C112.273 265.099 126.217 267.888 133.097 261.007Z" fill="#FFE166"/>
<path d="M164.243 254.784C174.563 244.463 177.352 230.519 170.472 223.639C163.592 216.759 149.648 219.548 139.327 229.868C129.007 240.188 126.218 254.132 133.098 261.013C139.979 267.893 153.923 265.104 164.243 254.784Z" fill="#FFE166"/>
<path d="M126.868 292.155C137.188 281.834 139.977 267.89 133.097 261.01C126.217 254.13 112.273 256.919 101.952 267.239C91.632 277.559 88.8432 291.503 95.7235 298.384C102.604 305.264 116.548 302.475 126.868 292.155Z" fill="#FFE166"/>
<path d="M170.472 298.386C177.352 291.506 174.563 277.562 164.243 267.242C153.923 256.921 139.979 254.133 133.098 261.013C126.218 267.893 129.007 281.837 139.327 292.157C149.648 302.478 163.592 305.267 170.472 298.386Z" fill="#FFE166"/>
<path d="M133.152 278.646C142.884 278.646 150.773 270.757 150.773 261.025C150.773 251.293 142.884 243.404 133.152 243.404C123.42 243.404 115.531 251.293 115.531 261.025C115.531 270.757 123.42 278.646 133.152 278.646Z" fill="#8AC9FE"/>
<path d="M423.9 243.405L395.175 250.587C388.052 245.784 379.628 243.278 371.038 243.405C351.575 243.405 335.797 255.238 335.797 269.836C335.797 284.434 351.575 296.267 371.038 296.267C379.628 296.394 388.052 293.888 395.175 289.086L423.9 296.267L415.09 269.836L423.9 243.405Z" fill="#8558B0"/>
<path d="M256.496 208.162C255.339 208.163 254.193 207.936 253.124 207.494C252.054 207.051 251.083 206.401 250.266 205.582L230.065 185.381C229.247 184.562 228.598 183.591 228.155 182.522C227.712 181.453 227.484 180.308 227.484 179.151C227.484 177.993 227.712 176.848 228.155 175.779C228.598 174.71 229.247 173.739 230.065 172.92C230.883 172.102 231.854 171.453 232.923 171.011C233.992 170.568 235.138 170.34 236.295 170.34C237.452 170.34 238.598 170.568 239.667 171.011C240.736 171.453 241.707 172.102 242.525 172.92L256.496 186.893L270.467 172.92C271.285 172.102 272.256 171.453 273.325 171.011C274.394 170.568 275.54 170.34 276.697 170.34C277.854 170.34 279 170.568 280.069 171.011C281.138 171.453 282.109 172.102 282.927 172.92C283.745 173.739 284.394 174.71 284.837 175.779C285.28 176.848 285.508 177.993 285.508 179.151C285.508 180.308 285.28 181.453 284.837 182.522C284.394 183.591 283.745 184.562 282.927 185.381L262.726 205.582C261.909 206.401 260.938 207.051 259.869 207.494C258.799 207.936 257.653 208.163 256.496 208.162Z" fill="#FE646F"/>
<path d="M256.504 216.974C266.235 216.974 274.124 209.085 274.124 199.353C274.124 189.621 266.235 181.732 256.504 181.732C246.772 181.732 238.883 189.621 238.883 199.353C238.883 209.085 246.772 216.974 256.504 216.974Z" fill="#8558B0"/>
<path d="M371.035 261.025C371.035 256.159 367.09 252.215 362.224 252.215C357.359 252.215 353.414 256.159 353.414 261.025C353.414 265.891 357.359 269.836 362.224 269.836C367.09 269.836 371.035 265.891 371.035 261.025Z" fill="#8AC9FE"/>
<path d="M256.5 61C120.362 61 10 198.478 10 368.067V390H45.2143V368.067C45.2143 222.705 139.81 104.867 256.5 104.867C373.19 104.867 467.786 222.705 467.786 368.067V379.033H503V368.067C503 198.478 392.638 61 256.5 61Z" fill="#FE646F"/>
<path d="M441.089 165C441.113 166.918 441.147 168.837 441.147 170.755C441.147 191.194 439.76 211.597 437 231.748C457.111 272.838 467.717 320.003 467.656 368.076V390H503V368.076C503.082 293.267 481.056 221.016 441.089 165Z" fill="#DF4E59"/>
<path d="M9.8125 381.508H45.0539V425.56H9.8125V381.508Z" fill="#8558B0"/>
<path d="M1 451.991H53.8621V443.181C53.8621 436.171 51.0774 429.448 46.1206 424.491C41.1638 419.535 34.441 416.75 27.431 416.75C20.4211 416.75 13.6983 419.535 8.74147 424.491C3.78469 429.448 1 436.171 1 443.181V451.991Z" fill="#B3DCFE"/>
<path d="M467.945 381.508H503.187V425.56H467.945V381.508Z" fill="#8558B0"/>
<path d="M459.141 451.991H512.003V443.181C512.003 436.171 509.218 429.448 504.261 424.491C499.304 419.535 492.582 416.75 485.572 416.75C478.562 416.75 471.839 419.535 466.882 424.491C461.925 429.448 459.141 436.171 459.141 443.181V451.991Z" fill="#B3DCFE"/>
<path d="M53.8594 451.991H459.135C459.135 442.645 455.422 433.681 448.813 427.072C442.204 420.463 433.24 416.75 423.894 416.75H89.1008C79.7542 416.75 70.7904 420.463 64.1813 427.072C57.5723 433.681 53.8594 442.645 53.8594 451.991Z" fill="#FE646F"/>
<path d="M423.898 416.75H359.241C346.604 429.752 332.784 441.55 317.961 451.991H459.139C459.139 442.645 455.426 433.681 448.817 427.072C442.208 420.463 433.244 416.75 423.898 416.75Z" fill="#DF4E59"/>
</svg>
