<svg width="513" height="512" viewBox="0 0 513 512" fill="none" xmlns="http://www.w3.org/2000/svg">
<path d="M124.344 150.129H141.964V254.752H124.344V150.129Z" fill="#B3DCFE"/>
<path d="M247.688 97.8184H265.308V212.353H247.688V97.8184Z" fill="#B3DCFE"/>
<path d="M371.031 150.129H388.652V265.214H371.031V150.129Z" fill="#B3DCFE"/>
<path d="M256.503 265.215L268.687 277.4C272.168 280.88 276.889 282.836 281.811 282.836H281.994C284.432 282.836 286.845 282.356 289.097 281.423C291.349 280.49 293.395 279.123 295.118 277.4C296.842 275.676 298.209 273.63 299.142 271.378C300.074 269.127 300.554 266.713 300.554 264.276V264.093C300.554 259.17 298.599 254.45 295.118 250.969L291.744 247.594L299.105 243.914C302.188 242.372 304.781 240.003 306.593 237.071C308.405 234.139 309.365 230.76 309.365 227.313C309.365 224.493 308.722 221.709 307.485 219.175C306.248 216.64 304.45 214.42 302.227 212.685C300.004 210.949 297.414 209.743 294.655 209.158C291.896 208.573 289.04 208.624 286.304 209.308C278.334 211.3 271.055 215.421 265.246 221.231L256.503 229.974L247.76 221.231C241.951 215.421 234.672 211.3 226.702 209.308C223.965 208.624 221.109 208.573 218.35 209.158C215.591 209.743 213.002 210.949 210.779 212.685C208.556 214.42 206.757 216.64 205.521 219.175C204.284 221.709 203.641 224.493 203.641 227.313C203.641 230.76 204.601 234.139 206.413 237.071C208.225 240.003 210.817 242.372 213.9 243.914L221.261 247.594L217.887 250.969C214.406 254.45 212.451 259.17 212.451 264.093V264.276C212.451 266.713 212.931 269.127 213.864 271.378C214.796 273.63 216.164 275.676 217.887 277.4C219.611 279.123 221.657 280.49 223.908 281.423C226.16 282.356 228.574 282.836 231.011 282.836H231.194C236.116 282.836 240.837 280.88 244.318 277.4L256.503 265.215Z" fill="#FE646F"/>
<path d="M265.308 238.783C265.308 233.917 261.364 229.973 256.498 229.973C251.632 229.973 247.688 233.917 247.688 238.783V256.404C247.688 261.27 251.632 265.214 256.498 265.214C261.364 265.214 265.308 261.27 265.308 256.404V238.783Z" fill="#B3DCFE"/>
<path d="M133.097 274.007C139.977 267.127 137.188 253.183 126.868 242.863C116.548 232.542 102.604 229.754 95.7235 236.634C88.8432 243.514 91.632 257.458 101.952 267.779C112.273 278.099 126.217 280.888 133.097 274.007Z" fill="#FFE166"/>
<path d="M164.243 267.784C174.563 257.463 177.352 243.519 170.472 236.639C163.592 229.759 149.648 232.548 139.327 242.868C129.007 253.188 126.218 267.132 133.098 274.013C139.979 280.893 153.923 278.104 164.243 267.784Z" fill="#FFE166"/>
<path d="M126.868 305.155C137.188 294.834 139.977 280.89 133.097 274.01C126.217 267.13 112.273 269.919 101.952 280.239C91.632 290.559 88.8432 304.503 95.7235 311.384C102.604 318.264 116.548 315.475 126.868 305.155Z" fill="#FFE166"/>
<path d="M170.472 311.386C177.352 304.506 174.563 290.562 164.243 280.242C153.923 269.921 139.979 267.133 133.098 274.013C126.218 280.893 129.007 294.837 139.327 305.157C149.648 315.478 163.592 318.267 170.472 311.386Z" fill="#FFE166"/>
<path d="M133.152 291.646C142.884 291.646 150.773 283.757 150.773 274.025C150.773 264.293 142.884 256.404 133.152 256.404C123.42 256.404 115.531 264.293 115.531 274.025C115.531 283.757 123.42 291.646 133.152 291.646Z" fill="#8AC9FE"/>
<path d="M423.9 256.405L395.175 263.587C388.052 258.784 379.628 256.278 371.038 256.405C351.575 256.405 335.797 268.238 335.797 282.836C335.797 297.434 351.575 309.267 371.038 309.267C379.628 309.394 388.052 306.888 395.175 302.086L423.9 309.267L415.09 282.836L423.9 256.405Z" fill="#8558B0"/>
<path d="M256.496 221.162C255.339 221.163 254.193 220.936 253.124 220.494C252.054 220.051 251.083 219.401 250.266 218.582L230.065 198.381C229.247 197.562 228.598 196.591 228.155 195.522C227.712 194.453 227.484 193.308 227.484 192.151C227.484 190.993 227.712 189.848 228.155 188.779C228.598 187.71 229.247 186.739 230.065 185.92C230.883 185.102 231.854 184.453 232.923 184.011C233.992 183.568 235.138 183.34 236.295 183.34C237.452 183.34 238.598 183.568 239.667 184.011C240.736 184.453 241.707 185.102 242.525 185.92L256.496 199.893L270.467 185.92C271.285 185.102 272.256 184.453 273.325 184.011C274.394 183.568 275.54 183.34 276.697 183.34C277.854 183.34 279 183.568 280.069 184.011C281.138 184.453 282.109 185.102 282.927 185.92C283.745 186.739 284.394 187.71 284.837 188.779C285.28 189.848 285.508 190.993 285.508 192.151C285.508 193.308 285.28 194.453 284.837 195.522C284.394 196.591 283.745 197.562 282.927 198.381L262.726 218.582C261.909 219.401 260.938 220.051 259.869 220.494C258.799 220.936 257.653 221.163 256.496 221.162Z" fill="#FE646F"/>
<path d="M256.504 229.974C266.235 229.974 274.124 222.085 274.124 212.353C274.124 202.621 266.235 194.732 256.504 194.732C246.772 194.732 238.883 202.621 238.883 212.353C238.883 222.085 246.772 229.974 256.504 229.974Z" fill="#8558B0"/>
<path d="M371.035 274.025C371.035 269.159 367.09 265.215 362.224 265.215C357.359 265.215 353.414 269.159 353.414 274.025C353.414 278.891 357.359 282.836 362.224 282.836C367.09 282.836 371.035 278.891 371.035 274.025Z" fill="#8AC9FE"/>
<path d="M256.502 89.0078C120.259 89.0078 9.8125 199.454 9.8125 335.697V353.318H45.0539V335.697C45.0539 218.917 139.722 124.249 256.502 124.249C373.282 124.249 467.95 218.917 467.95 335.697V344.508H503.192V335.697C503.192 199.454 392.745 89.0078 256.502 89.0078Z" fill="#FE646F"/>
<path d="M441.452 172.486C441.476 174.028 441.51 175.57 441.51 177.112C441.51 193.539 440.127 209.937 437.375 226.131C457.428 259.156 468.003 297.062 467.941 335.698V353.319H503.183V335.698C503.265 275.574 481.302 217.506 441.452 172.486Z" fill="#DF4E59"/>
<path d="M9.8125 344.508H45.0539V388.56H9.8125V344.508Z" fill="#8558B0"/>
<path d="M1 414.991H53.8621V406.181C53.8621 399.171 51.0774 392.448 46.1206 387.491C41.1638 382.535 34.441 379.75 27.431 379.75C20.4211 379.75 13.6983 382.535 8.74147 387.491C3.78469 392.448 1 399.171 1 406.181V414.991Z" fill="#B3DCFE"/>
<path d="M467.945 344.508H503.187V388.56H467.945V344.508Z" fill="#8558B0"/>
<path d="M459.141 414.991H512.003V406.181C512.003 399.171 509.218 392.448 504.261 387.491C499.304 382.535 492.582 379.75 485.572 379.75C478.562 379.75 471.839 382.535 466.882 387.491C461.925 392.448 459.141 399.171 459.141 406.181V414.991Z" fill="#B3DCFE"/>
<path d="M53.8594 414.991H459.135C459.135 405.645 455.422 396.681 448.813 390.072C442.204 383.463 433.24 379.75 423.894 379.75H89.1008C79.7542 379.75 70.7904 383.463 64.1813 390.072C57.5723 396.681 53.8594 405.645 53.8594 414.991Z" fill="#FE646F"/>
<path d="M423.898 379.75H359.241C346.604 392.752 332.784 404.55 317.961 414.991H459.139C459.139 405.645 455.426 396.681 448.817 390.072C442.208 383.463 433.244 379.75 423.898 379.75Z" fill="#DF4E59"/>
</svg>
