<svg width="513" height="512" viewBox="0 0 513 512" fill="none" xmlns="http://www.w3.org/2000/svg">
<path d="M448.497 416H405.831C399.943 416 395.164 420.779 395.164 426.667V469.333C395.164 481.12 404.711 490.667 416.497 490.667H437.831C449.617 490.667 459.164 481.12 459.164 469.333V426.667C459.164 420.779 454.385 416 448.497 416Z" fill="#EC7D6E"/>
<path d="M107.169 416H64.5026C58.6146 416 53.8359 420.779 53.8359 426.667V469.333C53.8359 481.12 63.3826 490.667 75.1693 490.667H96.5026C108.289 490.667 117.836 481.12 117.836 469.333V426.667C117.836 420.779 113.057 416 107.169 416Z" fill="#EC7D6E"/>
<path d="M448.503 338.239H64.5026C58.6146 338.239 53.8359 333.461 53.8359 327.573V181.333C53.8359 140.159 87.3293 106.666 128.503 106.666H384.503C425.676 106.666 459.169 140.159 459.169 181.333V327.573C459.169 333.461 454.391 338.239 448.503 338.239Z" fill="#F6A28D"/>
<path d="M96.5026 173.761C96.5026 147.094 106.561 123.211 122.38 106.977C84.0759 110.113 53.8359 142.23 53.8359 181.334V327.574C53.8359 333.462 58.6146 338.241 64.5026 338.241H96.5026V173.761Z" fill="#EC7D6E"/>
<path d="M235.167 298.666H107.167C101.279 298.666 96.5 293.887 96.5 287.999V245.333C96.5 221.802 115.636 202.666 139.167 202.666H203.167C226.697 202.666 245.833 221.802 245.833 245.333V287.999C245.833 293.887 241.055 298.666 235.167 298.666Z" fill="#FFF1E9"/>
<path d="M405.831 298.666H277.831C271.943 298.666 267.164 293.887 267.164 287.999V245.333C267.164 221.802 286.3 202.666 309.831 202.666H373.831C397.361 202.666 416.497 221.802 416.497 245.333V287.999C416.497 293.887 411.719 298.666 405.831 298.666Z" fill="#FFF1E9"/>
<path d="M117.833 224V208.598C105.14 216 96.5 229.611 96.5 245.334V288C96.5 293.888 101.279 298.667 107.167 298.667H235.167C241.055 298.667 245.833 293.888 245.833 288V245.334H139.167C127.38 245.334 117.833 235.787 117.833 224Z" fill="#FFCDB4"/>
<path d="M288.497 224V208.598C275.804 216 267.164 229.611 267.164 245.334V288C267.164 293.888 271.943 298.667 277.831 298.667H405.831C411.719 298.667 416.497 293.888 416.497 288V245.334H309.831C298.044 245.334 288.497 235.787 288.497 224Z" fill="#FFCDB4"/>
<path d="M416.503 266.666H96.5026C55.2653 266.666 21.8359 300.095 21.8359 341.333V405.333C21.8359 423.007 36.1613 437.333 53.8359 437.333H459.169C476.844 437.333 491.169 423.007 491.169 405.333V341.333C491.169 300.095 457.74 266.666 416.503 266.666Z" fill="#FFF1E9"/>
<path d="M64.5026 415.999V330.666C64.5026 303.455 79.1053 279.711 100.855 266.666H96.5026C55.2653 266.666 21.8359 300.095 21.8359 341.333V405.333C21.8359 423.007 36.1613 437.333 53.8359 437.333H72.8119C67.7026 431.658 64.5026 424.234 64.5026 415.999Z" fill="#FFCDB4"/>
<path d="M21.8359 362.666V405.333C21.8359 423.007 36.1613 437.333 53.8359 437.333H459.169C476.844 437.333 491.169 423.007 491.169 405.333V362.666H21.8359Z" fill="#F6A28D"/>
<path d="M64.5026 415.999V362.666H21.8359V405.333C21.8359 423.007 36.1613 437.333 53.8359 437.333H72.8119C67.7026 431.658 64.5026 424.234 64.5026 415.999Z" fill="#EC7D6E"/>
<path d="M221.159 142.283L185.82 106.859C166.289 87.2746 166.289 55.5839 185.82 35.9999C205.329 16.4479 236.999 16.4479 256.508 35.9999C276.017 16.4479 307.687 16.4479 327.196 35.9999C346.727 55.5839 346.727 87.2746 327.196 106.859C307.665 126.443 291.857 142.283 291.857 142.283L271.623 162.571C263.292 170.923 249.756 170.923 241.415 162.571L221.18 142.283H221.159Z" fill="#FF3B65"/>
<path opacity="0.75" d="M185.812 36.0003C187.679 34.1229 189.759 32.5869 191.828 31.0723C186.847 49.3336 191.284 69.6109 205.599 83.9683L244.041 122.507L266.057 144.576C270.665 149.195 276.735 151.435 282.772 151.36L271.593 162.571C263.263 170.923 249.727 170.923 241.385 162.571L221.151 142.283L185.812 106.859C166.281 87.2749 166.281 55.5843 185.812 36.0003Z" fill="#D82B50"/>
<path d="M309.756 80.426C310.066 80.426 310.386 80.426 310.695 80.3833C316.562 79.8713 320.903 74.698 320.391 68.8313C319.804 62.1326 316.86 55.8286 312.103 51.0713C307.346 46.314 301.042 43.37 294.343 42.7833C288.487 42.2713 283.292 46.602 282.791 52.4793C282.279 58.346 286.61 63.5193 292.487 64.0313C294.204 64.1806 295.815 64.938 297.031 66.154C298.247 67.37 299.004 68.9806 299.154 70.698C299.634 76.2553 304.295 80.4366 309.767 80.4366L309.756 80.426Z" fill="#FF7189"/>
</svg>
