<svg width="512" height="512" viewBox="0 0 512 512" fill="none" xmlns="http://www.w3.org/2000/svg">
<g clip-path="url(#clip0_1308_218)">
<path d="M465.39 384.168H418.784C412.353 384.168 407.133 389.388 407.133 395.819V442.426C407.133 455.3 417.561 465.729 430.436 465.729H453.739C466.614 465.729 477.042 455.3 477.042 442.426V395.819C477.042 389.388 471.822 384.168 465.39 384.168Z" fill="#EC7D6E"/>
<path d="M92.5466 384.168H45.9406C39.5089 384.168 34.2891 389.388 34.2891 395.819V442.426C34.2891 455.3 44.7172 465.729 57.5921 465.729H80.8951C93.77 465.729 104.198 455.3 104.198 442.426V395.819C104.198 389.388 98.9783 384.168 92.5466 384.168Z" fill="#EC7D6E"/>
<path d="M465.395 299.228H45.9406C39.5089 299.228 34.2891 294.008 34.2891 287.576V127.834C34.2891 82.8592 70.8748 46.2734 115.85 46.2734H395.486C440.461 46.2734 477.047 82.8592 477.047 127.834V287.576C477.047 294.008 471.827 299.228 465.395 299.228Z" fill="#F6A28D"/>
<path d="M80.8951 119.563C80.8951 90.4346 91.8825 64.3469 109.162 46.6133C67.3211 50.0388 34.2891 85.1215 34.2891 127.836V287.578C34.2891 294.01 39.5089 299.23 45.9406 299.23H80.8951V119.563Z" fill="#EC7D6E"/>
<path d="M232.36 256H92.5421C86.1105 256 80.8906 250.78 80.8906 244.349V197.743C80.8906 172.04 101.793 151.137 127.497 151.137H197.406C223.109 151.137 244.012 172.04 244.012 197.743V244.349C244.012 250.78 238.792 256 232.36 256Z" fill="#FFF1E9"/>
<path d="M418.782 256H278.964C272.532 256 267.312 250.78 267.312 244.349V197.743C267.312 172.04 288.215 151.137 313.919 151.137H383.828C409.531 151.137 430.434 172.04 430.434 197.743V244.349C430.434 250.78 425.214 256 418.782 256Z" fill="#FFF1E9"/>
<path d="M104.194 174.442V157.617C90.3284 165.703 80.8906 180.571 80.8906 197.745V244.351C80.8906 250.783 86.1105 256.003 92.5421 256.003H232.36C238.792 256.003 244.012 250.783 244.012 244.351V197.745H127.497C114.622 197.745 104.194 187.317 104.194 174.442Z" fill="#FFCDB4"/>
<path d="M290.616 174.442V157.617C276.75 165.703 267.312 180.571 267.312 197.745V244.351C267.312 250.783 272.532 256.003 278.964 256.003H418.782C425.214 256.003 430.434 250.783 430.434 244.351V197.745H313.919C301.044 197.745 290.616 187.317 290.616 174.442Z" fill="#FFCDB4"/>
<path d="M430.442 221.047H80.8965C35.8518 221.047 -0.664062 257.563 -0.664062 302.607V372.517C-0.664062 391.823 14.9839 407.471 34.2905 407.471H477.048C496.355 407.471 512.003 391.823 512.003 372.517V302.607C512.003 257.563 475.487 221.047 430.442 221.047Z" fill="#FFF1E9"/>
<path d="M45.942 384.168V290.956C45.942 261.233 61.8929 235.297 85.6504 221.047H80.8965C35.8518 221.047 -0.664062 257.563 -0.664062 302.607V372.517C-0.664062 391.823 14.9839 407.471 34.2905 407.471H55.0185C49.4374 401.273 45.942 393.163 45.942 384.168Z" fill="#FFCDB4"/>
<path d="M-0.664062 325.91V372.516C-0.664062 391.823 14.9839 407.471 34.2905 407.471H477.048C496.355 407.471 512.003 391.823 512.003 372.516V325.91H-0.664062Z" fill="#F6A28D"/>
<path d="M45.942 384.168V325.91H-0.664062V372.516C-0.664062 391.823 14.9839 407.471 34.2905 407.471H55.0185C49.4374 401.272 45.942 393.163 45.942 384.168Z" fill="#EC7D6E"/>
</g>
<defs>
<clipPath id="clip0_1308_218">
<rect width="512" height="512" fill="white"/>
</clipPath>
</defs>
</svg>
