<svg width="513" height="512" viewBox="0 0 513 512" fill="none" xmlns="http://www.w3.org/2000/svg">
<g clip-path="url(#clip0_1304_298)">
<path d="M55.242 409.903C50.975 409.903 47.5156 406.445 47.5156 402.177V124.554C47.5156 120.286 50.975 116.828 55.242 116.828C59.509 116.828 62.9683 120.286 62.9683 124.554V402.176C62.9683 406.444 59.509 409.903 55.242 409.903Z" fill="#E6F7FE"/>
<path d="M189.414 300.025C185.147 300.025 181.688 296.567 181.688 292.299V89.0877C181.688 84.8196 185.147 81.3613 189.414 81.3613C193.681 81.3613 197.14 84.8196 197.14 89.0877V292.299C197.14 296.567 193.681 300.025 189.414 300.025Z" fill="#E6F7FE"/>
<path d="M323.586 454.878C319.319 454.878 315.859 451.419 315.859 447.151V88.4197C315.859 84.1517 319.319 80.6934 323.586 80.6934C327.853 80.6934 331.312 84.1517 331.312 88.4197V447.151C331.312 451.418 327.853 454.878 323.586 454.878Z" fill="#E6F7FE"/>
<path d="M457.758 334.539C453.491 334.539 450.031 331.081 450.031 326.813V124.554C450.031 120.286 453.491 116.828 457.758 116.828C462.025 116.828 465.484 120.286 465.484 124.554V326.813C465.484 331.081 462.025 334.539 457.758 334.539Z" fill="#E6F7FE"/>
<path d="M256.5 73.9846C252.233 73.9846 248.773 70.5263 248.773 66.2583V26.5623C248.773 22.2943 252.233 18.8359 256.5 18.8359C260.767 18.8359 264.226 22.2943 264.226 26.5623V66.2583C264.226 70.5263 260.767 73.9846 256.5 73.9846Z" fill="#D3EFFD"/>
<path d="M256.503 0.0527344C254.942 0.0527344 253.438 0.288646 252.018 0.719262C248.642 4.09516 244.266 14.8142 250.601 21.1488C256.935 27.4834 268.295 22.9835 271.289 19.9898C271.719 18.5702 271.955 17.0651 271.955 15.5055C271.955 6.9704 265.037 0.0527344 256.503 0.0527344Z" fill="#FFE07D"/>
<path d="M251.349 5.20313C251.349 3.6424 251.585 2.13834 252.015 0.71875C245.669 2.64107 241.047 8.53061 241.047 15.5049C241.047 24.039 247.966 30.9577 256.5 30.9577C263.474 30.9577 269.363 26.3363 271.286 19.9893C269.866 20.4199 268.361 20.6558 266.801 20.6558C258.267 20.6558 251.349 13.7371 251.349 5.20313Z" fill="#FFC250"/>
<path d="M464.443 103.409C408.642 76.6175 334.791 61.8633 256.498 61.8633C178.206 61.8633 104.355 76.6175 48.5532 103.409C40.8979 111.59 49.0261 126.916 56.978 123.273C109.735 99.1002 182.712 84.5273 256.498 84.5273C332.544 84.5273 403.788 98.6253 457.108 124.224C462.336 126.733 468.249 121.93 472.765 121.014C474.473 114.063 471.153 106.631 464.443 103.409Z" fill="#E6F7FE"/>
<path d="M457.113 117.013C403.794 91.4144 332.549 77.3164 256.504 77.3164C182.716 77.3164 113.449 90.5903 60.6918 114.763C52.7399 118.407 46.4053 110.826 48.5573 103.41C40.8639 107.104 37.6209 116.336 41.3152 124.029C45.0084 131.723 54.2388 134.963 61.9342 131.271C113.648 106.443 182.747 92.7691 256.504 92.7691C330.26 92.7691 399.359 106.443 451.073 131.271C458.768 134.963 467.998 131.722 471.692 124.029C472.165 123.044 472.52 122.035 472.77 121.015C468.254 121.93 462.34 119.522 457.113 117.013Z" fill="#D3EFFD"/>
<path d="M245.401 278.982C243.046 271.733 209.036 270.762 208.468 270.947C208.468 270.348 197.035 238.305 189.412 238.305C181.79 238.305 170.357 270.348 170.357 270.947C169.994 270.829 156.018 271.185 145.336 273.34C145.336 273.34 168.683 306.433 168.951 306.52C168.74 306.811 157.881 334.902 160.893 337.09C163.904 339.278 187.265 320.27 187.477 319.979C187.641 320.207 225.701 331.728 225.701 331.728C224.45 320.903 220.47 307.501 220.246 307.192C220.814 307.007 247.757 286.232 245.401 278.982Z" fill="#FF9A9F"/>
<path d="M165.761 329.731C163.288 327.934 170.171 308.665 172.826 301.674C173.391 300.187 172.919 298.517 171.659 297.546C166.155 293.302 151.611 281.595 145.339 273.34C139.282 274.562 134.28 276.359 133.427 278.982C131.072 286.232 158.014 307.007 158.583 307.192C158.232 307.676 148.646 340.32 154.813 344.799C160.979 349.28 189.063 330.076 189.415 329.592C189.767 330.076 217.851 349.28 224.018 344.799C226.249 343.178 226.413 337.865 225.703 331.727C215.915 328.314 200.286 318.099 194.549 314.176C193.236 313.279 191.501 313.345 190.262 314.342C184.434 319.028 168.235 331.528 165.761 329.731Z" fill="#FF8086"/>
<path d="M134.34 372.552C126.315 370.629 113.135 378.347 102.127 386.386C90.0522 369.347 77.7817 357.201 55.2393 357.201C35.911 357.201 18.9357 367.036 9.19531 379.593C8.89347 381.631 4.61719 393.973 4.61719 395.995C4.61719 416.917 25.0055 441.999 55.2393 441.999C77.7817 441.999 90.0511 429.854 102.127 412.814C123.668 428.545 135.997 424.103 143.93 419.256C148.835 402.605 145.64 375.26 134.34 372.552Z" fill="#FFF6CF"/>
<path d="M105.043 404.62C103.442 403.474 101.209 403.822 100.041 405.406C88.6083 420.91 76.4872 431.698 55.2428 431.698C25.009 431.698 8.74145 406.615 8.74145 385.693C8.74145 383.672 8.89701 381.631 9.19885 379.594C3.7018 386.679 0.5 394.629 0.5 402.176C0.5 423.098 25.009 447.151 55.2428 447.151C77.7852 447.151 90.0547 435.005 102.13 417.966C113.138 426.004 126.318 433.724 134.343 431.8C138.802 430.732 141.997 425.826 143.933 419.257C136.365 423.881 124.795 418.76 105.043 404.62Z" fill="#FFF0AF"/>
<path d="M457.759 295.391C435.216 295.391 422.947 307.536 410.871 324.576C401.805 317.955 391.273 311.564 383.353 310.587C361.075 330.557 376.364 364.289 382.6 365.784C386.683 366.763 399.863 359.043 410.87 351.005C422.945 368.044 435.215 380.19 457.758 380.19C487.991 380.19 509.393 351.236 512.501 340.366C512.502 319.443 487.993 295.391 457.759 295.391Z" fill="#B2E5FB"/>
<path d="M457.754 369.888C436.503 369.888 424.38 359.093 412.943 343.579C411.785 342.007 409.584 341.645 407.985 342.766C397.659 350.006 386.329 356.377 382.596 355.482C376.361 353.987 375.855 325.124 383.349 310.587C381.654 310.378 380.07 310.402 378.655 310.742C362.896 314.52 362.896 366.212 378.655 369.99C386.68 371.914 399.859 364.195 410.868 356.156C422.942 373.195 435.213 385.341 457.755 385.341C487.989 385.341 512.498 361.288 512.498 340.366C509.39 351.236 487.988 369.888 457.754 369.888Z" fill="#91DAFA"/>
<path d="M323.583 392.029C311.799 392.029 300.906 394.813 292.027 399.866C284.22 409.031 277.812 424.458 277.812 437.351C277.812 463.159 294.582 484.773 294.582 484.773C320.989 492.31 351.307 492.83 368.037 471.381C368.037 471.381 377.595 454.643 377.595 437.351C377.596 409.8 353.413 392.029 323.583 392.029Z" fill="#FFE07D"/>
<path d="M296.645 474.471C296.645 474.471 285.027 454.642 285.027 437.35C285.027 424.458 286.939 410.776 292.03 399.865C278.434 407.605 269.574 420.683 269.574 437.35C269.574 454.642 279.132 471.38 279.132 471.38C279.132 471.38 259.937 494.312 265.79 498.169C271.644 502.027 295.862 492.83 295.862 492.83C295.862 492.83 294.074 510.431 302.314 511.854C310.555 513.278 323.585 497.618 323.585 497.618C323.585 497.618 336.784 513.278 345.024 511.854C353.265 510.43 351.309 492.83 351.309 492.83C351.309 492.83 375.695 502.027 381.549 498.169C387.403 494.311 368.04 471.38 368.04 471.38C346.572 478.232 323.053 482.008 296.645 474.471Z" fill="#FFC250"/>
<path d="M41.7107 409.904C37.4437 409.904 33.9844 406.446 33.9844 402.177V395.33C33.9844 391.062 37.4437 387.604 41.7107 387.604C45.9777 387.604 49.4371 391.062 49.4371 395.33V402.177C49.4371 406.445 45.9777 409.904 41.7107 409.904Z" fill="#FFC250"/>
<path d="M308.133 465.404C303.866 465.404 300.406 461.946 300.406 457.677V450.83C300.406 446.562 303.866 443.104 308.133 443.104C312.4 443.104 315.859 446.562 315.859 450.83V457.677C315.859 461.945 312.4 465.404 308.133 465.404Z" fill="#C38778"/>
<path d="M339.039 465.404C334.772 465.404 331.312 461.946 331.312 457.677V450.83C331.312 446.562 334.772 443.104 339.039 443.104C343.306 443.104 346.765 446.562 346.765 450.83V457.677C346.765 461.945 343.306 465.404 339.039 465.404Z" fill="#C38778"/>
<path d="M471.289 348.091C467.022 348.091 463.562 344.633 463.562 340.365V333.517C463.562 329.249 467.022 325.791 471.289 325.791C475.556 325.791 479.015 329.249 479.015 333.517V340.365C479.015 344.632 475.556 348.091 471.289 348.091Z" fill="#87A0AF"/>
</g>
<defs>
<clipPath id="clip0_1304_298">
<rect width="512" height="512" fill="white" transform="translate(0.5)"/>
</clipPath>
</defs>
</svg>
