<svg width="513" height="512" viewBox="0 0 513 512" fill="none" xmlns="http://www.w3.org/2000/svg">
<path d="M290.869 292.891C244.364 292.891 204.338 259.726 195.696 214.031C195.652 213.799 195.619 213.566 195.596 213.331L182.35 74.9594C180.646 57.1614 186.566 39.3655 198.591 26.1345C210.616 12.9035 227.767 5.31445 245.646 5.31445C249.915 5.31445 253.376 8.77545 253.376 13.0445C253.376 17.3135 249.915 20.7745 245.646 20.7745C232.114 20.7745 219.134 26.5175 210.033 36.5315C200.932 46.5455 196.451 60.0145 197.741 73.4845L210.953 211.496C218.348 249.722 251.902 277.429 290.869 277.429C329.836 277.429 363.39 249.723 370.785 211.496L383.997 73.4845C385.286 60.0145 380.806 46.5455 371.705 36.5315C362.604 26.5175 349.623 20.7745 336.092 20.7745C331.823 20.7745 328.362 17.3135 328.362 13.0445C328.362 8.77545 331.823 5.31445 336.092 5.31445C353.971 5.31445 371.122 12.9035 383.147 26.1345C395.172 39.3655 401.092 57.1614 399.388 74.9594L386.142 213.331C386.119 213.566 386.086 213.799 386.042 214.031C377.399 259.726 337.374 292.891 290.869 292.891Z" fill="#C8C1C9"/>
<path d="M261.916 26.09H237.64C230.65 26.09 224.984 20.424 224.984 13.434V12.656C224.984 5.666 230.65 0 237.64 0H261.916C268.906 0 274.572 5.666 274.572 12.656V13.434C274.573 20.424 268.906 26.09 261.916 26.09Z" fill="#C8C1C9"/>
<path d="M344.096 26.09H319.82C312.83 26.09 307.164 20.424 307.164 13.434V12.656C307.164 5.666 312.83 0 319.82 0H344.096C351.086 0 356.752 5.666 356.752 12.656V13.434C356.753 20.424 351.086 26.09 344.096 26.09Z" fill="#C8C1C9"/>
<path d="M261.923 0H261.548V0.403C261.548 7.393 255.882 13.059 248.892 13.059H224.992V13.434C224.992 20.424 230.658 26.09 237.648 26.09H261.924C268.914 26.09 274.58 20.424 274.58 13.434V12.656C274.58 5.666 268.913 0 261.923 0Z" fill="#8F818F"/>
<path d="M344.096 0H343.721V0.403C343.721 7.393 338.055 13.059 331.065 13.059H307.164V13.434C307.164 20.424 312.83 26.09 319.82 26.09H344.096C351.086 26.09 356.752 20.424 356.752 13.434V12.656C356.753 5.666 351.086 0 344.096 0Z" fill="#8F818F"/>
<path d="M365.073 190.049L363.126 210.382C356.294 244.795 326.014 269.7 290.868 269.7C255.722 269.7 225.442 244.795 218.61 210.382L216.663 190.049C216.392 187.217 213.875 185.139 211.042 185.41L190.521 187.376C187.688 187.647 185.611 190.163 185.882 192.996L187.967 214.77L188.098 215.466C196.131 257.936 229.276 290.363 270.374 298.575C273.287 299.157 275.407 301.677 275.407 304.648V436.92C275.407 461.197 255.54 481.487 231.266 481.071C207.689 480.667 188.633 461.361 188.633 437.689V379.501H157.711V436.742C157.711 477.652 190.378 511.598 231.286 511.995C272.595 512.396 306.329 478.907 306.329 437.689V304.648C306.329 301.677 308.448 299.157 311.362 298.575C352.459 290.363 385.605 257.936 393.638 215.466L393.769 214.77L395.854 192.996C396.125 190.163 394.048 187.647 391.215 187.376L370.694 185.41C367.861 185.139 365.344 187.217 365.073 190.049Z" fill="#FC8086"/>
<path d="M391.215 187.376L381.004 186.398L379.64 200.643L379.509 201.339C372.226 239.846 344.299 270.096 308.518 281.527C298.756 284.646 292.201 293.813 292.201 304.061V423.562C292.201 464.78 258.467 498.268 217.158 497.867C200.676 497.707 185.537 492.095 173.328 482.782C186.749 500.306 207.632 511.766 231.287 511.996C272.596 512.397 306.33 478.909 306.33 437.691V304.648C306.33 301.677 308.449 299.158 311.363 298.576C352.46 290.364 385.606 257.937 393.639 215.467L393.77 214.771L395.855 192.997C396.125 190.164 394.048 187.647 391.215 187.376Z" fill="#FA4954"/>
<path d="M174.004 432.493C207.519 432.493 234.688 405.324 234.688 371.809C234.688 338.294 207.519 311.125 174.004 311.125C140.489 311.125 113.32 338.294 113.32 371.809C113.32 405.324 140.489 432.493 174.004 432.493Z" fill="#C8C1C9"/>
<path d="M198.571 316.322C201.903 323.835 203.768 332.143 203.768 340.89C203.768 374.405 176.599 401.574 143.084 401.574C134.336 401.574 126.029 399.709 118.516 396.377C127.949 417.647 149.236 432.492 174.002 432.492C207.517 432.492 234.686 405.323 234.686 371.808C234.687 347.042 219.842 325.755 198.571 316.322Z" fill="#B1ABB5"/>
<path d="M174.008 401.575C190.447 401.575 203.774 388.248 203.774 371.809C203.774 355.37 190.447 342.043 174.008 342.043C157.569 342.043 144.242 355.37 144.242 371.809C144.242 388.248 157.569 401.575 174.008 401.575Z" fill="#B1ABB5"/>
<path d="M187.18 345.119C189.145 349.092 190.255 353.563 190.255 358.295C190.255 374.734 176.928 388.061 160.489 388.061C155.757 388.061 151.284 386.952 147.312 384.987C152.174 394.815 162.297 401.576 174.004 401.576C190.443 401.576 203.77 388.25 203.77 371.81C203.769 360.103 197.007 349.98 187.18 345.119Z" fill="#8F818F"/>
</svg>
