<svg width="513" height="512" viewBox="0 0 513 512" fill="none" xmlns="http://www.w3.org/2000/svg">
<path d="M256.5 64.3196V38.5H74.3658C54.8342 38.5 39 54.3342 39 73.8658V256H64.8196C67.7202 256 70.0711 258.351 70.0711 261.251V281.82C70.0711 284.72 72.4219 287.071 75.3225 287.071H95.8907C98.7913 287.071 101.142 284.72 101.142 281.82V261.251C101.142 258.351 103.493 256 106.394 256H126.962C129.862 256 132.213 258.351 132.213 261.251V281.82C132.213 284.72 134.564 287.071 137.465 287.071H158.033C160.933 287.071 163.284 284.72 163.284 281.82V261.251C163.284 258.351 165.635 256 168.536 256H189.104C192.004 256 194.355 258.351 194.355 261.251V281.82C194.355 284.72 196.706 287.071 199.607 287.071H220.175C223.076 287.071 225.426 284.72 225.426 281.82V261.251C225.426 258.351 227.777 256 230.678 256H256.5V230.18C256.5 227.28 254.149 224.929 251.249 224.929H230.68C227.78 224.929 225.429 222.578 225.429 219.678V199.109C225.429 196.209 227.78 193.858 230.68 193.858H251.249C254.149 193.858 256.5 191.507 256.5 188.606V168.038C256.5 165.138 254.149 162.787 251.249 162.787H230.68C227.78 162.787 225.429 160.436 225.429 157.535V136.967C225.429 134.067 227.78 131.716 230.68 131.716H251.249C254.149 131.716 256.5 129.365 256.5 126.464V105.894C256.5 102.994 254.149 100.643 251.249 100.643H230.68C227.78 100.643 225.429 98.2921 225.429 95.3915V74.8225C225.429 71.9219 227.78 69.5711 230.68 69.5711H251.249C254.149 69.5711 256.5 67.2202 256.5 64.3196Z" fill="#AC80DD"/>
<path d="M448.181 256H474.001V73.8658C474.001 54.3342 458.167 38.5 438.635 38.5H256.501V64.3196C256.501 67.2202 254.15 69.5711 251.249 69.5711H230.681C227.781 69.5711 225.43 71.9219 225.43 74.8225V95.3907C225.43 98.2913 227.781 100.642 230.681 100.642H251.249C254.15 100.642 256.501 102.993 256.501 105.894V126.462C256.501 129.362 254.15 131.713 251.249 131.713H230.681C227.781 131.713 225.43 134.064 225.43 136.965V157.533C225.43 160.433 227.781 162.784 230.681 162.784H251.249C254.15 162.784 256.501 165.135 256.501 168.036V188.604C256.501 191.504 254.15 193.855 251.249 193.855H230.681C227.781 193.855 225.43 196.206 225.43 199.107V219.675C225.43 222.576 227.781 224.926 230.681 224.926H251.249C254.15 224.926 256.501 227.277 256.501 230.178V256H282.32C285.221 256 287.572 253.649 287.572 250.749V230.18C287.572 227.28 289.923 224.929 292.823 224.929H313.391C316.292 224.929 318.643 227.28 318.643 230.18V250.749C318.643 253.649 320.994 256 323.894 256H344.463C347.363 256 349.714 253.649 349.714 250.749V230.18C349.714 227.28 352.065 224.929 354.965 224.929H375.534C378.434 224.929 380.785 227.28 380.785 230.18V250.749C380.785 253.649 383.136 256 386.036 256H406.605C409.505 256 411.856 253.649 411.856 250.749V230.18C411.856 227.28 414.207 224.929 417.108 224.929H437.676C440.576 224.929 442.927 227.28 442.927 230.18V250.749C442.93 253.649 445.281 256 448.181 256Z" fill="#FFE07D"/>
<path d="M256.5 447.681V473.501H438.634C458.166 473.501 474 457.667 474 438.135V256.001H448.18C445.28 256.001 442.929 253.65 442.929 250.749V230.181C442.929 227.281 440.578 224.93 437.677 224.93H417.109C414.209 224.93 411.858 227.281 411.858 230.181V250.749C411.858 253.65 409.507 256.001 406.606 256.001H386.038C383.138 256.001 380.787 253.65 380.787 250.749V230.181C380.787 227.281 378.436 224.93 375.535 224.93H354.967C352.067 224.93 349.716 227.281 349.716 230.181V250.749C349.716 253.65 347.365 256.001 344.464 256.001H323.896C320.996 256.001 318.645 253.65 318.645 250.749V230.181C318.645 227.281 316.294 224.93 313.393 224.93H292.825C289.924 224.93 287.574 227.281 287.574 230.181V250.749C287.574 253.65 285.223 256.001 282.322 256.001H256.5V281.82C256.5 284.721 258.851 287.072 261.751 287.072H282.32C285.22 287.072 287.571 289.423 287.571 292.323V312.891C287.571 315.792 285.22 318.143 282.32 318.143H261.751C258.851 318.143 256.5 320.494 256.5 323.394V343.963C256.5 346.863 258.851 349.214 261.751 349.214H282.32C285.22 349.214 287.571 351.565 287.571 354.465V375.034C287.571 377.934 285.22 380.285 282.32 380.285H261.751C258.851 380.285 256.5 382.636 256.5 385.536V406.105C256.5 409.005 258.851 411.356 261.751 411.356H282.32C285.22 411.356 287.571 413.707 287.571 416.608V437.176C287.571 440.076 285.22 442.427 282.32 442.427H261.751C258.851 442.43 256.5 444.781 256.5 447.681Z" fill="#DF75A5"/>
<path d="M64.8196 256H39V438.134C39 457.666 54.8342 473.5 74.3658 473.5H256.5V447.68C256.5 444.78 258.851 442.429 261.751 442.429H282.32C285.22 442.429 287.571 440.078 287.571 437.177V416.609C287.571 413.709 285.22 411.358 282.32 411.358H261.751C258.851 411.358 256.5 409.007 256.5 406.106V385.538C256.5 382.638 258.851 380.287 261.751 380.287H282.32C285.22 380.287 287.571 377.936 287.571 375.035V354.467C287.571 351.567 285.22 349.216 282.32 349.216H261.751C258.851 349.216 256.5 346.865 256.5 343.964V323.396C256.5 320.496 258.851 318.145 261.751 318.145H282.32C285.22 318.145 287.571 315.794 287.571 312.893V292.325C287.571 289.424 285.22 287.074 282.32 287.074H261.751C258.851 287.074 256.5 284.723 256.5 281.822V256H230.68C227.78 256 225.429 258.351 225.429 261.251V281.82C225.429 284.72 223.078 287.071 220.178 287.071H199.609C196.709 287.071 194.358 284.72 194.358 281.82V261.251C194.358 258.351 192.007 256 189.106 256H168.538C165.638 256 163.287 258.351 163.287 261.251V281.82C163.287 284.72 160.936 287.071 158.035 287.071H137.467C134.567 287.071 132.216 284.72 132.216 281.82V261.251C132.216 258.351 129.865 256 126.964 256H106.394C103.494 256 101.143 258.351 101.143 261.251V281.82C101.143 284.72 98.7921 287.071 95.8915 287.071H75.3225C72.4219 287.071 70.0711 284.72 70.0711 281.82V261.251C70.0711 258.351 67.7202 256 64.8196 256Z" fill="#A2F4C1"/>
<path d="M449.414 40.1797C460.962 98.8299 453.435 163.45 427.695 224.928H437.675C440.575 224.928 442.926 227.279 442.926 230.18V250.748C442.926 253.648 445.277 255.999 448.178 255.999H473.997V73.8658C473.997 58.0945 463.671 44.7404 449.414 40.1797Z" fill="#FFD064"/>
<path d="M442.928 250.749V230.181C442.928 227.281 440.577 224.93 437.677 224.93H427.697C408.84 269.969 380.229 313.322 342.162 351.39C318.489 375.062 292.767 395.065 265.874 411.359H282.32C285.22 411.359 287.571 413.709 287.571 416.61V437.178C287.571 440.079 285.22 442.43 282.32 442.43H261.751C258.851 442.43 256.5 444.781 256.5 447.681V473.501H438.634C458.165 473.501 473.999 457.667 473.999 438.135V256.001H448.18C445.279 256.001 442.928 253.65 442.928 250.749Z" fill="#DD5790"/>
<path d="M47.7578 461.413C54.2395 468.817 63.7551 473.5 74.3693 473.5H256.503V447.68C256.503 444.779 258.854 442.428 261.755 442.428H282.323C285.224 442.428 287.575 440.078 287.575 437.177V416.609C287.575 413.708 285.224 411.357 282.323 411.357H265.877C196.078 453.644 118.347 470.808 47.7578 461.413Z" fill="#86F1A7"/>
</svg>
