<svg width="513" height="512" viewBox="0 0 513 512" fill="none" xmlns="http://www.w3.org/2000/svg">
<path d="M256.499 512C395.782 512 508.693 441.015 508.693 353.45C508.693 265.886 395.782 194.9 256.499 194.9C117.216 194.9 4.30469 265.886 4.30469 353.45C4.30469 441.015 117.216 512 256.499 512Z" fill="#FE646F"/>
<path d="M256.5 194.9C249.667 194.9 242.899 195.077 236.203 195.412C365.993 201.911 468.1 270.182 468.1 353.45C468.1 436.718 365.993 504.989 236.203 511.488C242.899 511.823 249.667 512 256.5 512C395.783 512 508.694 441.015 508.694 353.45C508.694 265.885 395.783 194.9 256.5 194.9Z" fill="#FD4755"/>
<path d="M256.499 454.032C395.782 454.032 508.693 383.046 508.693 295.482C508.693 207.917 395.782 136.932 256.499 136.932C117.216 136.932 4.30469 207.917 4.30469 295.482C4.30469 383.046 117.216 454.032 256.499 454.032Z" fill="#98D5B9"/>
<path d="M256.5 136.932C249.667 136.932 242.899 137.109 236.203 137.444C365.993 143.944 468.1 212.214 468.1 295.482C468.1 378.75 365.993 447.021 236.203 453.52C242.899 453.855 249.667 454.032 256.5 454.032C395.783 454.032 508.694 383.047 508.694 295.482C508.694 207.918 395.783 136.932 256.5 136.932Z" fill="#7ACAA6"/>
<path d="M256.499 395.536C395.782 395.536 508.693 324.55 508.693 236.986C508.693 149.421 395.782 78.4355 256.499 78.4355C117.216 78.4355 4.30469 149.421 4.30469 236.986C4.30469 324.55 117.216 395.536 256.499 395.536Z" fill="#FEF056"/>
<path d="M256.5 78.4355C249.667 78.4355 242.899 78.6125 236.203 78.9475C365.993 85.4465 468.1 153.717 468.1 236.986C468.1 320.255 365.993 388.524 236.203 395.023C242.899 395.358 249.667 395.535 256.5 395.535C395.783 395.535 508.694 324.55 508.694 236.985C508.694 149.42 395.783 78.4355 256.5 78.4355Z" fill="#FEE903"/>
<path d="M256.501 331.72C364.318 331.72 451.721 282.982 451.721 222.861C451.721 162.74 364.318 114.002 256.501 114.002C148.684 114.002 61.2812 162.74 61.2812 222.861C61.2812 282.982 148.684 331.72 256.501 331.72Z" fill="#8AC9FE"/>
<path d="M256.5 114.002C249.646 114.002 242.875 114.201 236.203 114.585C334.481 120.247 411.125 166.561 411.125 222.86C411.125 279.159 334.481 325.474 236.203 331.135C242.875 331.519 249.646 331.718 256.5 331.718C364.317 331.718 451.72 282.98 451.72 222.859C451.72 162.738 364.317 114.002 256.5 114.002Z" fill="#60B7FF"/>
<path d="M236.084 172.171L129.172 201.602V168.806L236.084 139.375V172.171Z" fill="#F5F8F9"/>
<path d="M69.2542 130.775V70.8076C69.2542 56.3866 80.9862 44.6546 95.4072 44.6546C109.828 44.6546 121.56 56.3866 121.56 70.8076V219.031C121.56 223.235 124.967 226.642 129.171 226.642C133.375 226.642 136.782 223.234 136.782 219.031V70.8076C136.782 47.9926 118.221 29.4316 95.4062 29.4316C72.5912 29.4316 54.0312 47.9926 54.0312 70.8076V142.441C54.0312 142.44 60.5672 136.754 69.2542 130.775Z" fill="#D9E7EC"/>
<path d="M160.945 90.212V41.376C160.945 18.561 179.506 0 202.321 0C225.136 0 243.697 18.561 243.697 41.376V191.628C243.697 195.832 240.29 199.239 236.086 199.239C231.882 199.239 228.475 195.831 228.475 191.628V41.376C228.475 26.955 216.743 15.223 202.322 15.223C187.902 15.223 176.169 26.955 176.169 41.376V86.649L160.945 90.212Z" fill="#D9E7EC"/>
<path d="M333.735 287.909C318.366 287.909 318.366 278.264 302.998 278.264C287.628 278.264 287.628 287.909 272.259 287.909C256.887 287.909 256.887 278.264 241.516 278.264C226.145 278.264 226.144 287.909 210.773 287.909" fill="#D8ECFE"/>
<path d="M333.736 295.52C323.861 295.52 318.571 292.2 314.322 289.533C310.812 287.33 308.492 285.875 302.999 285.875C297.504 285.875 295.185 287.33 291.675 289.533C287.425 292.2 282.136 295.52 272.261 295.52C262.385 295.52 257.094 292.201 252.844 289.533C249.334 287.33 247.013 285.875 241.518 285.875C236.022 285.875 233.702 287.33 230.192 289.533C225.941 292.2 220.651 295.52 210.775 295.52C206.571 295.52 203.164 292.112 203.164 287.909C203.164 283.705 206.571 280.297 210.775 280.297C216.271 280.297 218.591 278.842 222.101 276.638C226.352 273.971 231.642 270.652 241.518 270.652C251.394 270.652 256.685 273.971 260.935 276.638C264.445 278.841 266.766 280.297 272.261 280.297C277.755 280.297 280.074 278.842 283.584 276.639C287.834 273.972 293.124 270.652 302.999 270.652C312.874 270.652 318.164 273.972 322.413 276.639C325.923 278.842 328.243 280.297 333.736 280.297C337.94 280.297 341.348 283.705 341.348 287.909C341.347 292.112 337.94 295.52 333.736 295.52Z" fill="#C4E2FF"/>
<path d="M395.22 252.67C379.851 252.67 379.851 243.025 364.483 243.025C349.113 243.025 349.113 252.67 333.744 252.67C318.372 252.67 318.372 243.025 303.001 243.025C287.63 243.025 287.629 252.67 272.258 252.67" fill="#D8ECFE"/>
<path d="M395.221 260.281C385.346 260.281 380.056 256.962 375.807 254.294C372.297 252.091 369.977 250.636 364.484 250.636C358.989 250.636 356.67 252.091 353.16 254.294C348.909 256.961 343.62 260.28 333.745 260.28C323.869 260.28 318.578 256.961 314.328 254.294C310.818 252.091 308.497 250.636 303.002 250.636C297.507 250.636 295.186 252.091 291.676 254.294C287.425 256.961 282.135 260.28 272.259 260.28C268.055 260.28 264.648 256.872 264.648 252.669C264.648 248.466 268.055 245.058 272.259 245.058C277.755 245.058 280.075 243.603 283.585 241.4C287.836 238.733 293.126 235.414 303.002 235.414C312.878 235.414 318.169 238.733 322.419 241.4C325.929 243.603 328.25 245.058 333.745 245.058C339.24 245.058 341.559 243.603 345.069 241.4C349.32 238.733 354.609 235.414 364.484 235.414C374.359 235.414 379.649 238.733 383.898 241.401C387.408 243.604 389.728 245.059 395.221 245.059C399.425 245.059 402.833 248.467 402.833 252.67C402.833 256.873 399.425 260.281 395.221 260.281Z" fill="#C4E2FF"/>
</svg>
