<svg width="513" height="512" viewBox="0 0 513 512" fill="none" xmlns="http://www.w3.org/2000/svg">
<g clip-path="url(#clip0_1304_378)">
<path d="M326.017 489.233C318.801 489.233 312.293 484.246 310.651 476.91L235.571 144.59C233.67 136.096 239.015 127.668 247.51 125.767C248.669 125.507 249.827 125.383 250.967 125.383C258.183 125.383 264.691 130.37 266.333 137.706L341.413 470.026C343.314 478.52 337.969 486.948 329.474 488.849C328.316 489.109 327.157 489.233 326.017 489.233Z" fill="#C5D3DD"/>
<path d="M221.038 7.13466C333.033 -17.9183 444.397 24.7367 512.335 107.964L0.5 222.461C26.482 118.225 109.043 32.1877 221.038 7.13466Z" fill="#FE646F"/>
<path d="M471.091 117.19L512.336 107.964C444.398 24.737 333.034 -17.919 221.039 7.13504C221.039 7.13504 353.338 -25.755 471.091 117.19Z" fill="#FD4755"/>
<path d="M221.036 7.13474C294.909 -9.39126 373.269 40.6477 425.222 127.45L87.6094 202.975C97.6064 102.314 147.162 23.6597 221.036 7.13474Z" fill="#F5F8F9"/>
<path d="M221.039 7.1348C246.975 1.3328 283.832 60.6558 315.685 151.955L197.152 178.47C187.049 82.3068 195.103 12.9368 221.039 7.1348Z" fill="#FE646F"/>
<path d="M0.5 222.462C14.918 266.205 91.808 253.33 87.611 202.975C58.574 209.471 29.537 215.967 0.5 222.462Z" fill="#E8EDF2"/>
<path d="M425.227 127.436C439.645 171.179 516.535 158.304 512.338 107.949C483.301 114.445 454.264 120.941 425.227 127.436Z" fill="#F5F8F9"/>
<path d="M512.338 107.949C483.301 114.445 454.264 120.94 425.227 127.436C425.229 127.443 425.232 127.45 425.234 127.457C440.533 124.035 455.831 120.612 471.13 117.19C472.454 133.078 465.702 145.229 455.391 153.054C482.094 158.322 515.127 141.42 512.338 107.949Z" fill="#E8EDF2"/>
<path d="M87.6094 202.975C112.758 247.714 197.982 233.474 197.149 178.471C160.635 186.639 124.122 194.807 87.6094 202.975Z" fill="#FE646F"/>
<path d="M315.641 151.967C340.79 196.706 426.014 182.466 425.181 127.463C388.667 135.631 352.154 143.799 315.641 151.967Z" fill="#FE646F"/>
<path d="M197.148 178.469C197.148 178.469 216.208 218.31 266.198 206.718C316.188 195.127 315.681 151.953 315.681 151.953L197.148 178.469Z" fill="#E8EDF2"/>
<path d="M447.692 456.212C420.507 432.811 383.108 425.235 348.96 436.211L277.772 459.094L182.783 413.058C139.63 392.144 87.754 403.772 57.656 441.105L0.5 512H512.5L447.692 456.212Z" fill="#FDD79B"/>
<path d="M447.687 456.213C423.381 435.29 390.911 427.03 359.898 433.359C376.851 436.823 392.934 444.552 406.48 456.213L471.288 512.001H512.495L447.687 456.213Z" fill="#FCCD7F"/>
<path d="M141.572 413.058L252.29 466.586L277.769 459.095L182.78 413.059C161.843 402.912 138.857 400.447 117.297 404.839C125.555 406.53 133.709 409.247 141.572 413.058Z" fill="#FCCD7F"/>
<path d="M124.64 451.715C120.438 451.715 116.916 448.186 116.914 443.989C116.911 439.775 120.434 436.27 124.639 436.26C128.845 436.25 132.369 439.789 132.367 443.989C132.363 448.184 128.842 451.715 124.64 451.715Z" fill="#E9B665"/>
<path d="M87.6401 485.093C83.4311 485.093 79.9101 481.579 79.9141 477.367C79.9181 473.254 83.2741 469.788 87.3861 469.649C91.5041 469.51 95.1001 472.792 95.3521 476.899C95.6211 481.271 92.0171 485.093 87.6401 485.093Z" fill="#E9B665"/>
<path d="M398.668 485.092C394.369 485.092 390.817 481.428 390.949 477.132C391.075 473.036 394.551 469.625 398.668 469.639C402.694 469.652 406.132 472.876 406.38 476.898C406.649 481.276 403.051 485.092 398.668 485.092Z" fill="#E9B665"/>
</g>
<defs>
<clipPath id="clip0_1304_378">
<rect width="512" height="512" fill="white" transform="translate(0.5)"/>
</clipPath>
</defs>
</svg>
