<svg width="513" height="512" viewBox="0 0 513 512" fill="none" xmlns="http://www.w3.org/2000/svg">
<path d="M412.582 182.209V156.08C412.582 106.208 389.191 61.798 352.781 33.225C349.975 31.023 341.092 31.915 338.136 29.905C335.655 28.218 339.123 23.602 336.542 22.057C313.139 8.051 285.761 0 256.502 0C170.301 0 100.422 69.879 100.422 156.08V182.209H412.582Z" fill="#92E0C4"/>
<path d="M256.501 0C248.383 0 240.409 0.621 232.625 1.816C259.621 5.855 285.576 16.485 308.048 32.02C310.333 33.599 317.581 32.229 319.791 33.908C322.432 35.914 320.018 40.991 322.545 43.134C357.948 73.164 381.676 116.318 381.676 164.274V182.21H412.581V156.08C412.581 106.208 389.19 61.798 352.78 33.225C349.974 31.023 338.999 34.615 336.044 32.606C333.562 30.919 339.122 23.602 336.541 22.058C313.138 8.051 285.76 0 256.501 0Z" fill="#77D1B3"/>
<path d="M308.046 32.0209C277.971 43.3719 247.589 57.4269 222.349 71.8559C212.109 77.7179 202.745 83.5789 194.266 89.4309C208.165 90.6439 219.316 90.3179 234.129 84.4579L238.739 80.4139C264.078 66.6499 293.723 53.4949 322.543 43.1359L334.106 29.6309L308.046 32.0209Z" fill="#77D1B3"/>
<path d="M308.047 32.0254C313.063 35.4934 317.904 39.2074 322.545 43.1454C330.888 40.1464 339.166 37.3684 347.247 34.8924C348.741 34.4284 350.626 33.8624 352.779 33.2234C347.618 29.1744 342.189 25.4454 336.533 22.0664C327.187 25.0584 317.632 28.4074 308.047 32.0254Z" fill="#67B59F"/>
<path d="M320.993 384.868V280.5H192.005V384.868C192.005 390.468 188.342 395.402 182.983 397.025C133.467 412.023 52.4531 426.65 52.4531 494.654V501.974C52.4531 507.511 56.9421 512 62.4791 512H450.519C456.056 512 460.545 507.511 460.545 501.974V494.654C460.545 426.65 379.531 412.023 330.015 397.025C324.655 395.402 320.993 390.468 320.993 384.868Z" fill="#FFCDBE"/>
<path d="M330.013 397.025C324.653 395.402 320.991 390.468 320.991 384.868V280.5H290.086V396.2C290.086 401.8 293.749 406.734 299.108 408.357C348.624 423.355 429.638 428.71 429.638 496.714V501.974C429.638 507.511 425.149 512 419.612 512H450.517C456.054 512 460.543 507.511 460.543 501.974V494.654C460.543 426.65 379.529 412.023 330.013 397.025Z" fill="#EBAE9D"/>
<path d="M236.501 80.4121C179.473 80.4121 133.242 126.641 133.242 183.669V238.964C133.242 300.652 216.678 345.428 256.497 345.428C296.316 345.428 379.752 300.652 379.752 238.964V183.669C379.752 126.641 333.522 80.4121 276.494 80.4121H236.501Z" fill="#FFCDBE"/>
<path d="M276.497 80.4121H245.592C302.62 80.4121 348.85 126.641 348.85 183.669V238.964C348.85 293.484 283.682 334.787 241.047 343.651C246.652 344.816 251.873 345.428 256.5 345.428C296.319 345.428 379.755 300.652 379.755 238.964V183.669C379.755 126.641 333.525 80.4121 276.497 80.4121Z" fill="#EBAE9D"/>
<path d="M186.41 304.382L145.622 262.727L136.009 215.638L144.228 178.614L94.7258 110.277L79.1758 23.5396C78.6738 20.7396 75.9968 18.8766 73.1968 19.3786L8.84483 30.9146C5.95683 31.4326 4.08383 34.2536 4.72883 37.1156L47.0208 224.956C51.7158 245.809 63.7918 264.261 81.0218 276.91L175.192 346.044C179.438 349.162 185.44 348.406 188.676 344.249C198.006 332.258 197.029 315.227 186.41 304.382Z" fill="#E09380"/>
<path d="M108.141 185.084L117.565 237.653C119.352 247.619 128.879 254.25 138.846 252.463C148.812 250.676 155.443 241.149 153.656 231.182L144.232 178.613L108.141 185.084Z" fill="#E09380"/>
<path d="M326.593 304.382L367.381 262.727L376.994 215.638L368.775 178.614L418.277 110.277L433.827 23.5396C434.329 20.7396 437.006 18.8766 439.806 19.3786L504.158 30.9156C507.046 31.4336 508.919 34.2546 508.274 37.1166L465.982 224.957C461.287 245.81 449.211 264.262 431.981 276.911L337.811 346.045C333.565 349.163 327.563 348.407 324.327 344.25C314.997 332.258 315.974 315.227 326.593 304.382Z" fill="#E09380"/>
<path d="M504.153 30.9141L481.829 26.9121C483.345 28.0971 484.142 30.0881 483.688 32.1021L441.397 219.942C436.702 240.795 424.626 259.247 407.396 271.896L319.828 336.183C320.884 339.022 322.375 341.746 324.323 344.249C327.558 348.406 333.56 349.162 337.807 346.044L431.977 276.91C449.207 264.261 461.283 245.809 465.978 224.956L508.27 37.1161C508.914 34.2531 507.041 31.4321 504.153 30.9141Z" fill="#D47F6C"/>
<path d="M404.868 185.082L395.444 237.651C393.657 247.617 384.13 254.248 374.163 252.461C364.197 250.674 357.566 241.147 359.353 231.18L368.777 178.611L404.868 185.082Z" fill="#E09380"/>
<path d="M213.19 201.798C211.812 201.798 210.417 201.43 209.157 200.656C201.697 196.079 194.746 196.079 187.284 200.656C183.646 202.888 178.889 201.748 176.658 198.111C174.426 194.474 175.566 189.716 179.203 187.485C191.645 179.851 204.798 179.851 217.239 187.485C220.876 189.716 222.016 194.474 219.784 198.111C218.324 200.488 215.788 201.798 213.19 201.798Z" fill="#E09380"/>
<path d="M329.76 201.798C328.382 201.798 326.987 201.43 325.727 200.656C318.265 196.078 311.314 196.079 303.854 200.656C300.215 202.888 295.459 201.748 293.228 198.111C290.996 194.474 292.136 189.716 295.773 187.485C308.215 179.852 321.367 179.851 333.809 187.485C337.446 189.716 338.586 194.474 336.354 198.111C334.894 200.488 332.358 201.798 329.76 201.798Z" fill="#E09380"/>
<path d="M256.503 287.079C246.022 287.079 235.54 284.966 225.777 280.741C221.861 279.046 220.06 274.498 221.754 270.582C223.448 266.666 227.995 264.865 231.913 266.559C247.54 273.322 265.465 273.322 281.092 266.559C285.008 264.864 289.557 266.666 291.251 270.582C292.946 274.498 291.145 279.047 287.228 280.741C277.466 284.966 266.984 287.079 256.503 287.079Z" fill="#E09380"/>
<path d="M399.907 184.195C397.174 183.705 394.56 185.521 394.066 188.254L385.135 237.652C383.866 244.732 378.683 250.11 372.219 252.001C372.85 252.186 373.495 252.343 374.157 252.462C384.123 254.249 393.651 247.618 395.438 237.652L403.974 190.038C404.464 187.302 402.644 184.686 399.907 184.195Z" fill="#D47F6C"/>
<path d="M112.279 184.195C115.012 183.705 117.626 185.521 118.12 188.254L127.051 237.652C128.32 244.732 133.503 250.11 139.967 252.001C139.336 252.186 138.691 252.343 138.029 252.462C128.063 254.249 118.535 247.618 116.748 237.652L108.212 190.038C107.723 187.302 109.543 184.686 112.279 184.195Z" fill="#D47F6C"/>
</svg>
