<svg width="513" height="512" viewBox="0 0 513 512" fill="none" xmlns="http://www.w3.org/2000/svg">
<path d="M289.774 49.3641L308.201 30.4307C313.477 25.0109 322.651 27.4691 324.51 34.8008L331.002 60.4116C337.424 85.7457 363.482 100.79 388.633 93.6853L414.059 86.5018C421.337 84.4453 428.054 91.1619 425.997 98.44L418.814 123.866C411.708 149.017 426.752 175.075 452.087 181.497L477.698 187.989C485.03 189.847 487.488 199.022 482.068 204.297L463.135 222.725C444.406 240.954 444.406 271.043 463.135 289.271L482.068 307.699C487.488 312.974 485.03 322.149 477.698 324.007L452.087 330.499C426.753 336.921 411.709 362.979 418.814 388.13L425.997 413.556C428.054 420.834 421.337 427.551 414.059 425.494L388.633 418.311C363.482 411.205 337.424 426.249 331.002 451.584L324.51 477.195C322.651 484.527 313.477 486.985 308.201 481.565L289.774 462.632C271.545 443.903 241.456 443.903 223.228 462.632L204.8 481.565C199.525 486.985 190.35 484.527 188.492 477.195L182 451.584C175.578 426.25 149.52 411.206 124.369 418.311L98.9429 425.494C91.6648 427.551 84.9481 420.834 87.0046 413.556L94.1881 388.13C101.294 362.979 86.2495 336.921 60.9145 330.499L35.3036 324.007C27.972 322.149 25.5138 312.974 30.9335 307.699L49.867 289.271C68.596 271.042 68.596 240.953 49.867 222.725L30.9326 204.297C25.5129 199.022 27.9711 189.847 35.3027 187.989L60.9136 181.497C86.2477 175.075 101.292 149.017 94.1872 123.866L87.0037 98.44C84.9472 91.1619 91.6639 84.4453 98.942 86.5018L124.368 93.6853C149.519 100.791 175.577 85.7466 181.999 60.4116L188.491 34.8008C190.349 27.4691 199.524 25.0109 204.799 30.4307L223.227 49.3641C241.456 68.0932 271.545 68.0932 289.774 49.3641Z" fill="#FFE177"/>
<path d="M463.133 222.726L482.066 204.299C487.486 199.024 485.028 189.849 477.696 187.99L452.085 181.499C426.751 175.076 411.707 149.018 418.813 123.867L425.996 98.4412C428.053 91.1631 421.336 84.4464 414.058 86.5029L388.632 93.6864C385.45 94.5853 382.254 95.1271 379.083 95.3413C393.479 123.862 401.597 156.092 401.597 190.222C401.598 306.396 306.894 401.099 190.72 401.099C156.59 401.099 124.36 392.981 95.8393 378.585C95.6251 381.755 95.0833 384.951 94.1845 388.133L87.001 413.559C84.9445 420.837 91.6612 427.554 98.9393 425.497L124.365 418.314C149.516 411.208 175.575 426.252 181.997 451.587L188.488 477.198C190.347 484.53 199.522 486.988 204.797 481.568L223.224 462.635C241.453 443.906 271.542 443.906 289.77 462.635L308.198 481.568C313.473 486.988 322.648 484.53 324.506 477.198L330.998 451.587C337.42 426.253 363.478 411.208 388.629 418.314L414.055 425.497C421.333 427.554 428.05 420.837 425.994 413.559L418.81 388.133C411.704 362.982 426.749 336.924 452.083 330.502L477.694 324.01C485.025 322.152 487.483 312.977 482.064 307.702L463.13 289.274C444.404 271.044 444.404 240.955 463.133 222.726Z" fill="#FFD15B"/>
<path d="M463.133 222.726L482.066 204.299C487.486 199.024 485.028 189.849 477.696 187.99L452.085 181.499C426.751 175.076 411.707 149.018 418.813 123.867L425.996 98.4412C428.053 91.1631 421.336 84.4464 414.058 86.5029L388.632 93.6864C385.45 94.5853 382.254 95.1271 379.083 95.3413C393.479 123.862 401.597 156.092 401.597 190.222C401.598 306.396 306.894 401.099 190.72 401.099C156.59 401.099 124.36 392.981 95.8393 378.585C95.6251 381.755 95.0833 384.951 94.1845 388.133L87.001 413.559C84.9445 420.837 91.6612 427.554 98.9393 425.497L124.365 418.314C149.516 411.208 175.575 426.252 181.997 451.587L188.488 477.198C190.347 484.53 199.522 486.988 204.797 481.568L223.224 462.635C241.453 443.906 271.542 443.906 289.77 462.635L308.198 481.568C313.473 486.988 322.648 484.53 324.506 477.198L330.998 451.587C337.42 426.253 363.478 411.208 388.629 418.314L414.055 425.497C421.333 427.554 428.05 420.837 425.994 413.559L418.81 388.133C411.704 362.982 426.749 336.924 452.083 330.502L477.694 324.01C485.025 322.152 487.483 312.977 482.064 307.702L463.13 289.274C444.404 271.044 444.404 240.955 463.133 222.726Z" fill="#FFD15B"/>
<path d="M256.497 410.769C341.974 410.769 411.267 341.476 411.267 255.999C411.267 170.521 341.974 101.229 256.497 101.229C171.019 101.229 101.727 170.521 101.727 255.999C101.727 341.476 171.019 410.769 256.497 410.769Z" fill="#FFC344"/>
<path d="M349.253 132.088C368.632 157.936 380.113 190.045 380.113 224.837C380.113 310.314 310.82 379.607 225.343 379.607C190.551 379.607 158.442 368.126 132.594 348.747C160.825 386.402 205.818 410.768 256.504 410.768C341.981 410.768 411.274 341.475 411.274 255.998C411.274 205.313 386.908 160.319 349.253 132.088Z" fill="#FEB237"/>
</svg>
