<svg width="513" height="512" viewBox="0 0 513 512" fill="none" xmlns="http://www.w3.org/2000/svg">
<g clip-path="url(#clip0_1304_453)">
<path d="M378.165 41.5679V58.6071C378.165 77.2534 377.361 95.8997 375.733 114.484L355.686 343.947L339.018 382.97H171.675L157.314 343.947L137.267 114.484C135.639 95.8997 134.836 77.2534 134.836 58.6071V41.5679L256.5 30.8438L356.819 39.6827H356.83L378.165 41.5679Z" fill="#EAF6FF"/>
<path d="M378.164 41.5669V58.6061C378.164 77.2523 377.36 95.8986 375.732 114.483L355.685 343.946L339.017 382.969H322.523L345.981 114.483C347.598 95.8986 348.412 77.2523 348.412 58.6061V41.5669L356.818 39.6816H356.828L378.164 41.5669Z" fill="#C8EFFE"/>
<path d="M378.167 41.5637H134.828V12.9195C134.828 5.78447 140.613 0 147.749 0H365.248C372.383 0 378.167 5.78447 378.167 12.9195V41.5637Z" fill="#FFD15B"/>
<path d="M378.162 12.9185V41.5678H348.411V12.9185C348.411 5.77932 342.631 0 335.492 0H365.244C372.383 0 378.162 5.77932 378.162 12.9185Z" fill="#FFC344"/>
<path d="M348.411 427.237V490.685C348.411 502.46 338.872 512 327.097 512H314.199L303.774 511.011L256.499 506.53L198.798 512H185.9C174.125 512 164.586 502.46 164.586 490.685V427.237L256.499 413.422L323.893 423.549L348.411 427.237Z" fill="#FEA613"/>
<path d="M348.411 427.237V490.686C348.411 502.461 338.872 512 327.097 512H314.199L303.773 511.011C312.396 508.281 318.66 500.215 318.66 490.686V427.237L323.893 423.549L348.411 427.237Z" fill="#FE9901"/>
<path d="M256.5 290.835C275.739 290.835 291.335 275.239 291.335 256C291.335 236.76 275.739 221.164 256.5 221.164C237.26 221.164 221.664 236.76 221.664 256C221.664 275.239 237.26 290.835 256.5 290.835Z" fill="#FFD15B"/>
<path d="M291.337 256.001C291.337 275.245 275.74 290.842 256.497 290.842C250.748 290.842 245.319 289.451 240.539 286.978C251.758 281.199 259.422 269.496 259.422 256.001C259.422 242.506 251.758 230.803 240.539 225.023C245.319 222.551 250.748 221.16 256.497 221.16C275.74 221.16 291.337 236.757 291.337 256.001Z" fill="#FFC344"/>
<path d="M355.684 343.947L348.411 427.237H164.586L157.312 343.947C157.312 343.947 181.81 376.882 256.498 376.882C286.641 376.882 308.605 371.515 324.088 365.118C346.969 355.66 355.684 343.947 355.684 343.947Z" fill="#FE646F"/>
<path d="M355.681 343.947L348.408 427.237H318.656L324.085 365.118C346.966 355.66 355.681 343.947 355.681 343.947Z" fill="#FD4755"/>
<path d="M314.206 511.999H198.797V485.66C198.797 481.013 202.564 477.244 207.212 477.244H305.79C310.438 477.244 314.206 481.012 314.206 485.66V511.999Z" fill="#FFD15B"/>
<path d="M314.197 485.659V512H286.352V485.659C286.352 481.013 282.591 477.242 277.945 477.242H305.781C310.437 477.242 314.197 481.013 314.197 485.659Z" fill="#FFC344"/>
<path d="M256.5 201.834C252.233 201.834 248.773 198.376 248.773 194.108V178.898C248.773 174.63 252.233 171.172 256.5 171.172C260.768 171.172 264.226 174.63 264.226 178.898V194.108C264.226 198.375 260.768 201.834 256.5 201.834Z" fill="#FEA613"/>
<path d="M333.6 263.726H318.39C314.122 263.726 310.664 260.268 310.664 256C310.664 251.732 314.122 248.273 318.39 248.273H333.6C337.868 248.273 341.326 251.732 341.326 256C341.326 260.268 337.867 263.726 333.6 263.726Z" fill="#FEA613"/>
<path d="M256.5 340.826C252.233 340.826 248.773 337.368 248.773 333.1V317.89C248.773 313.622 252.233 310.164 256.5 310.164C260.768 310.164 264.226 313.622 264.226 317.89V333.1C264.226 337.367 260.768 340.826 256.5 340.826Z" fill="#FEA613"/>
<path d="M194.607 263.726H179.398C175.131 263.726 171.672 260.268 171.672 256C171.672 251.732 175.131 248.273 179.398 248.273H194.607C198.874 248.273 202.333 251.732 202.333 256C202.333 260.268 198.874 263.726 194.607 263.726Z" fill="#FEA613"/>
<path d="M300.258 219.964C298.281 219.964 296.304 219.209 294.794 217.701C291.777 214.683 291.777 209.792 294.794 206.774L305.548 196.02C308.567 193.004 313.458 193.004 316.475 196.02C319.493 199.039 319.493 203.93 316.475 206.947L305.721 217.701C304.213 219.208 302.235 219.964 300.258 219.964Z" fill="#FE9901"/>
<path d="M311.012 318.245C309.036 318.245 307.058 317.491 305.548 315.983L294.794 305.228C291.777 302.21 291.777 297.319 294.794 294.301C297.813 291.285 302.704 291.285 305.721 294.301L316.475 305.055C319.493 308.074 319.493 312.965 316.475 315.983C314.967 317.49 312.989 318.245 311.012 318.245Z" fill="#FE9901"/>
<path d="M201.976 318.245C199.999 318.245 198.021 317.491 196.513 315.983C193.496 312.964 193.496 308.073 196.513 305.055L207.267 294.301C210.285 291.285 215.177 291.285 218.193 294.301C221.211 297.32 221.211 302.211 218.193 305.228L207.439 315.983C205.931 317.49 203.954 318.245 201.976 318.245Z" fill="#FE9901"/>
<path d="M212.73 219.964C210.753 219.964 208.775 219.209 207.267 217.701L196.513 206.947C193.496 203.929 193.496 199.037 196.513 196.02C199.53 193.004 204.423 193.004 207.439 196.02L218.193 206.774C221.211 209.793 221.211 214.684 218.193 217.701C216.684 219.208 214.707 219.964 212.73 219.964Z" fill="#FE9901"/>
<path d="M338.097 104.936H322.664V89.941H340.096C344.364 89.941 347.823 86.4827 347.823 82.2146C347.823 77.9466 344.364 74.4883 340.096 74.4883H314.937C310.669 74.4883 307.211 77.9466 307.211 82.2146V144.288C307.211 148.556 310.669 152.015 314.937 152.015C319.205 152.015 322.664 148.556 322.664 144.288V120.39H338.097C342.365 120.39 345.823 116.932 345.823 112.664C345.823 108.396 342.365 104.936 338.097 104.936Z" fill="#FE646F"/>
<path d="M202.8 106.494C195.105 103.656 187.941 100.564 185.759 99.6081C184.012 98.2122 184.069 96.2611 184.187 95.4493C184.348 94.3285 185.16 91.5892 189.223 90.3653C198.081 87.6961 206.279 94.1708 206.514 94.3594C209.781 97.0698 214.627 96.6371 217.361 93.3848C220.106 90.1181 219.684 85.2443 216.417 82.4989C215.829 82.0044 201.801 70.4396 184.766 75.5689C176.167 78.1598 170.085 84.9353 168.89 93.2529C167.77 101.055 171.151 108.559 177.714 112.839C178.056 113.062 178.414 113.257 178.787 113.423C179.148 113.584 187.758 117.416 197.453 120.992C200.215 122.01 206.55 124.891 205.708 129.605C205.078 133.136 200.786 136.789 194.697 136.789C188.457 136.789 182.451 134.274 178.631 130.058C175.766 126.898 170.88 126.657 167.717 129.521C164.556 132.387 164.316 137.274 167.181 140.435C173.881 147.829 184.167 152.242 194.696 152.242C207.831 152.242 218.859 143.865 220.92 132.323C222.472 123.64 218.525 112.296 202.8 106.494Z" fill="#FE646F"/>
<path d="M263.931 74.2591H246.52C242.705 74.1808 238.642 77.6288 238.793 81.9855V144.515C238.793 148.783 242.253 152.242 246.52 152.242C250.787 152.242 254.246 148.783 254.246 144.515V125.039C257.772 125.02 261.68 125.004 263.931 125.004C278.112 125.004 289.649 113.621 289.649 99.6314C289.649 85.6416 278.111 74.2591 263.931 74.2591ZM263.931 109.551C261.696 109.551 257.836 109.569 254.324 109.586C254.306 105.955 254.289 101.928 254.289 99.6314C254.289 97.6844 254.279 93.5142 254.269 89.7118H263.931C269.495 89.7118 274.196 94.2539 274.196 99.6314C274.196 105.009 269.495 109.551 263.931 109.551Z" fill="#FE646F"/>
</g>
<defs>
<clipPath id="clip0_1304_453">
<rect width="512" height="512" fill="white" transform="translate(0.5)"/>
</clipPath>
</defs>
</svg>
