<svg width="513" height="512" viewBox="0 0 513 512" fill="none" xmlns="http://www.w3.org/2000/svg">
<g clip-path="url(#clip0_1304_491)">
<path d="M150.805 92.9648H362.367V127.406H150.805V92.9648Z" fill="#D8DCE5"/>
<path d="M150.805 92.9648H181.715V127.406H150.805V92.9648Z" fill="#C3C8D1"/>
<path d="M371.668 66.5039V16.9961C371.668 7.64844 364.02 0 354.672 0H158.512C149.164 0 141.516 7.64844 141.516 16.9961V66.5039H371.668Z" fill="#FFC850"/>
<path d="M189.418 0H158.512C149.164 0 141.516 7.64844 141.516 16.9961V66.5039H172.422V16.9961C172.422 7.64844 180.07 0 189.418 0Z" fill="#FEB644"/>
<path d="M374.676 64.4414H138.504C130.098 64.4414 123.281 71.2578 123.281 79.668C123.281 88.0781 130.098 94.8945 138.504 94.8945H374.676C383.086 94.8945 389.902 88.0781 389.902 79.668C389.902 71.2578 383.086 64.4414 374.676 64.4414Z" fill="#FEB644"/>
<path d="M374.676 75.6602H138.504C133.742 75.6602 129.496 73.4727 126.703 70.0508C124.566 72.6758 123.281 76.0195 123.281 79.668C123.281 88.0781 130.098 94.8945 138.504 94.8945H374.676C383.086 94.8945 389.902 88.0781 389.902 79.668C389.902 76.0195 388.617 72.6758 386.477 70.0508C383.684 73.4727 379.438 75.6602 374.676 75.6602Z" fill="#F9972D"/>
<path d="M363.344 125.344H149.832C123.25 125.344 101.5 147.094 101.5 173.676V463.668C101.5 490.25 123.25 512 149.832 512H363.344C389.926 512 411.676 490.25 411.676 463.668V173.676C411.676 147.094 389.926 125.344 363.344 125.344Z" fill="#E4EAF8"/>
<path d="M132.406 463.668V173.676C132.406 147.094 154.156 125.344 180.738 125.344H149.832C123.25 125.344 101.5 147.094 101.5 173.676V463.668C101.5 490.25 123.25 512 149.832 512H180.738C154.156 512 132.406 490.25 132.406 463.668Z" fill="#D8DCE5"/>
<path d="M341.828 269.418C317.305 269.418 299.484 251.598 299.484 227.074C299.484 222.242 300.27 217.598 301.695 213.246H158.59C151.582 213.246 145.844 218.98 145.844 225.992V411.352C145.844 418.363 151.582 424.102 158.59 424.102H343.953C350.965 424.102 356.699 418.363 356.699 411.352V266.855C352.051 268.512 347.047 269.418 341.828 269.418Z" fill="#00AAF0"/>
<path d="M176.754 411.352V225.992C176.754 218.98 182.488 213.246 189.5 213.246H158.594C151.582 213.246 145.844 218.98 145.844 225.992V411.352C145.844 418.363 151.582 424.102 158.594 424.102H189.5C182.488 424.102 176.754 418.363 176.754 411.352Z" fill="#059ADB"/>
<path d="M284.665 302.738H254.115C252.154 302.738 251.029 300.511 252.189 298.933L271.943 272.078C277.158 264.992 275.638 255.019 268.552 249.804C261.466 244.589 251.49 246.105 246.275 253.195L205.056 309.23C197.326 319.738 204.857 334.605 217.888 334.605H248.443C250.4 334.605 251.525 336.832 250.365 338.41L230.88 364.898C225.798 371.808 226.728 381.652 233.384 387.058C240.493 392.836 250.908 391.449 256.283 384.148L297.501 328.113C305.232 317.605 297.697 302.738 284.665 302.738Z" fill="#FFC850"/>
<path d="M261.786 364.899L281.271 338.41C282.435 336.832 281.306 334.606 279.349 334.606H248.798C235.767 334.606 228.232 319.739 235.962 309.231L274.134 257.34C273.111 254.426 271.228 251.774 268.552 249.805C261.466 244.59 251.49 246.11 246.275 253.199L205.056 309.231C197.326 319.739 204.857 334.606 217.888 334.606H248.443C250.4 334.606 251.525 336.832 250.365 338.41L230.88 364.899C225.798 371.809 226.728 381.653 233.384 387.059C240.493 392.836 250.908 391.449 256.283 384.149L259.388 379.926C257.747 375.012 258.513 369.348 261.786 364.899Z" fill="#FEB644"/>
<path d="M372.176 259.476C372.527 259.144 372.887 258.815 373.23 258.472C390.57 241.132 390.57 213.019 373.23 195.675C355.891 178.335 327.777 178.335 310.434 195.675C310.09 196.022 309.762 196.378 309.43 196.733L372.176 259.476Z" fill="#FFC850"/>
<path d="M341.344 195.676C346.016 191.004 351.473 187.605 357.285 185.449C341.52 179.605 323.105 183.008 310.434 195.676C310.09 196.023 309.762 196.379 309.43 196.734L329.535 216.836C331.363 209.082 335.297 201.723 341.344 195.676Z" fill="#FEB644"/>
<path d="M310.438 258.473C327.777 275.812 355.891 275.812 373.23 258.473L310.438 195.676C293.094 213.016 293.094 241.133 310.438 258.473Z" fill="#FEB644"/>
<path d="M341.345 258.473C329.622 246.754 325.837 230.113 329.962 215.199L310.435 195.676C293.095 213.02 293.095 241.133 310.435 258.473C323.106 271.141 341.521 274.543 357.29 268.699C351.478 266.547 346.017 263.148 341.345 258.473Z" fill="#F9972D"/>
</g>
<defs>
<clipPath id="clip0_1304_491">
<rect width="512" height="512" fill="white" transform="translate(0.5)"/>
</clipPath>
</defs>
</svg>
