<svg width="513" height="512" viewBox="0 0 513 512" fill="none" xmlns="http://www.w3.org/2000/svg">
<g clip-path="url(#clip0_1304_553)">
<path d="M414 203.754H475.742V314.908H414V203.754Z" fill="#A4E7FF"/>
<path d="M458.5 82.0039C489.316 90.1319 512.497 125.276 512.497 167.399C512.497 209.492 489.348 244.617 458.564 252.777L430.202 248.4L387.727 167.391L428.891 87.2099L458.5 82.0039Z" fill="#A4E7FF"/>
<path d="M415 167.4C415 129.137 432.94 96.2794 458.568 82.0244C454.146 80.8524 449.567 80.2344 444.876 80.2344C407.527 80.2344 377.25 119.259 377.25 167.399C377.25 215.539 407.527 254.564 444.876 254.564C449.567 254.564 454.146 253.946 458.568 252.774C432.939 238.521 415 205.663 415 167.4Z" fill="#2ECEFB"/>
<path d="M108.695 87.209H257.314V142.508H108.695V87.209Z" fill="#FCE3A0"/>
<path d="M71.8984 87.209H121.785V142.508H71.8984V87.209Z" fill="#F9D171"/>
<path d="M121.614 136.441H244.193C290.872 136.441 328.712 174.282 328.712 220.961V421.589C328.712 468.268 290.872 506.109 244.193 506.109H147.073L83.7055 498.148L30.5625 356.848V203.755L71.8965 142.51L121.614 136.441Z" fill="#FFF8E6"/>
<path d="M104.042 435.831V186.073C104.042 167.263 110.634 150 121.619 136.441H85.02C38.341 136.441 0.5 174.282 0.5 220.961V421.589C0.5 468.268 38.341 506.109 85.02 506.109H147.077C121.537 493.044 104.042 466.489 104.042 435.831Z" fill="#FCE3A0"/>
<path d="M175.805 292.312C192.494 295.737 212.464 286.954 224.794 270.548C226.531 268.237 228.163 265.801 229.666 263.249C238.142 249.135 242.604 231.429 240.597 213.696C240.006 208.478 236.351 204.822 231.133 204.231C213.4 202.223 195.694 206.685 181.579 215.161C179.027 216.664 176.591 218.296 174.28 220.032C157.874 232.361 149.091 252.332 152.515 269.02C155.006 281.162 163.665 289.821 175.805 292.312Z" fill="#6DC847"/>
<path d="M445.359 303.199H470.757C483.041 303.199 493.217 312.73 494.019 324.988L501.893 445.233C503.714 473.042 485.38 497.264 459.765 504.153H444.873L404.531 446.943L405.804 379.995L419.041 308.211L445.359 303.199Z" fill="#FF899F"/>
<path d="M425.942 446.717L434.104 322.073C434.628 314.072 439.009 307.197 445.358 303.199H418.987C406.703 303.199 396.527 312.73 395.725 324.988L387.851 445.233C385.693 478.19 411.843 506.109 444.871 506.109C450.03 506.109 455.021 505.428 459.763 504.152C438.518 494.104 424.297 471.83 425.942 446.717Z" fill="#FF5F7F"/>
<path d="M104.039 428.798C117.23 437.033 132.424 440.606 147.723 437.908C151.561 437.231 155.257 436.185 158.792 434.804C162.528 433.345 166.683 433.345 170.42 434.804C173.955 436.185 177.651 437.231 181.489 437.908C219.207 444.559 256.282 413.096 264.298 367.635C272.314 322.173 248.236 279.928 210.518 273.277C202.604 271.882 194.719 272.165 187.125 273.904C172.313 277.295 156.899 277.295 142.087 273.904C134.493 272.165 126.608 271.882 118.694 273.277C113.535 274.187 108.631 275.762 104.029 277.921L71.8984 349.569L104.039 428.798Z" fill="#F85647"/>
<path d="M104.04 277.943C75.0007 291.567 57.9948 328.392 64.9138 367.635C69.6788 394.656 84.7097 416.73 104.04 428.797V277.943Z" fill="#E83826"/>
<path d="M137.089 5.89258H250.731C264.322 5.89258 275.339 16.9106 275.339 30.5006V67.7976C275.339 81.3886 264.321 92.4056 250.731 92.4056H121.788L105.877 83.2166L95.4844 43.7926L108.698 10.9396L137.089 5.89258Z" fill="#FF899F"/>
<path d="M121.791 34.6296C121.791 22.6626 127.862 12.1136 137.092 5.89258H78.4908C64.8998 5.89258 53.8828 16.9106 53.8828 30.5006V67.7976C53.8828 81.3886 64.8998 92.4056 78.4908 92.4056H121.791V34.6296Z" fill="#FF5F7F"/>
</g>
<defs>
<clipPath id="clip0_1304_553">
<rect width="512" height="512" fill="white" transform="translate(0.5)"/>
</clipPath>
</defs>
</svg>
