<svg width="513" height="512" viewBox="0 0 513 512" fill="none" xmlns="http://www.w3.org/2000/svg">
<g clip-path="url(#clip0_1304_508)">
<path d="M480.984 193.107L463.337 186.185C448.461 180.343 437.593 167.312 434.543 151.622L413.857 45.3795C408.727 19.0274 385.651 0 358.805 0H154.19C127.343 0 104.267 19.0274 99.1371 45.3795L78.451 151.622C75.4017 167.312 64.5333 180.343 49.6575 186.185L32.0105 193.107C14.1162 200.133 2.35156 217.389 2.35156 236.602V484.216C2.35156 499.555 14.7962 512 30.1355 512H123.676C139.015 512 151.46 499.555 151.46 484.216V479.209C151.46 475.81 152.14 472.575 153.366 469.618C157.126 460.542 166.068 454.166 176.504 454.166H336.491C346.927 454.166 355.868 460.542 359.629 469.618C360.855 472.575 361.534 475.81 361.534 479.209V484.216C361.534 499.555 373.979 512 389.318 512H482.859C498.198 512 510.643 499.555 510.643 484.216V236.602C510.643 217.389 498.878 200.133 480.984 193.107ZM295.747 78.1083H217.247C204.885 78.1083 194.872 68.0847 194.872 55.7225C194.872 49.5414 197.375 43.9475 201.424 39.8886C205.472 35.84 211.066 33.3367 217.247 33.3367H295.747C308.109 33.3367 318.123 43.3603 318.123 55.7225C318.123 68.0847 308.109 78.1083 295.747 78.1083Z" fill="#BCE9F0"/>
<path d="M99.6173 284.578C97.8794 284.578 96.1322 283.995 94.69 282.799L83.1252 273.21C71.2595 263.373 64.4531 248.89 64.4531 233.477V222.64C64.4531 218.373 67.9125 214.914 72.1795 214.914C76.4465 214.914 79.9058 218.373 79.9058 222.64V233.477C79.9058 244.275 84.6735 254.423 92.9871 261.314L104.553 270.903C107.837 273.627 108.292 278.498 105.569 281.783C104.042 283.625 101.837 284.578 99.6173 284.578Z" fill="#70D4E1"/>
<path d="M413.379 284.578C411.159 284.578 408.955 283.626 407.427 281.783C404.703 278.499 405.159 273.627 408.443 270.903L420.008 261.314C428.321 254.423 433.089 244.276 433.089 233.477V222.64C433.089 218.373 436.547 214.914 440.815 214.914C445.083 214.914 448.542 218.373 448.542 222.64V233.477C448.542 248.891 441.736 263.374 429.87 273.211L418.306 282.799C416.865 283.995 415.115 284.578 413.379 284.578Z" fill="#70D4E1"/>
<path d="M217.253 33.3379H192.783C180.421 33.3379 170.398 43.3595 170.398 55.7227C170.398 68.0849 180.42 78.1075 192.783 78.1075H217.253C204.891 78.1075 194.868 68.0859 194.868 55.7227C194.869 43.3605 204.891 33.3379 217.253 33.3379Z" fill="#70D4E1"/>
<path d="M480.984 193.111L463.336 186.185C448.457 180.346 437.595 167.307 434.54 151.617L413.858 45.3764C408.729 19.0233 385.645 0 358.798 0H334.328C361.176 0 384.259 19.0233 389.389 45.3764L410.071 151.618C413.126 167.308 423.987 180.347 438.867 186.186L456.515 193.112C474.405 200.132 486.171 217.39 486.171 236.607V484.215C486.171 499.561 473.731 512 458.386 512H482.856C498.201 512 510.641 499.561 510.641 484.215V236.606C510.639 217.389 498.873 200.131 480.984 193.111Z" fill="#70D4E1"/>
<path d="M126.988 479.212V484.215C126.988 499.561 114.549 512 99.2031 512H123.673C139.019 512 151.458 499.561 151.458 484.215V479.212C151.458 465.38 162.672 454.166 176.504 454.166H152.034C138.201 454.166 126.988 465.38 126.988 479.212Z" fill="#70D4E1"/>
<path d="M352.59 222.176L309.458 209.494C274.881 199.327 238.108 199.327 203.53 209.494C157.185 221.514 113.612 233.509 94.6875 282.799L133.268 318.211C139.683 324.099 148.766 326.086 157.053 323.415L198.886 309.929C236.343 297.854 276.645 297.854 314.101 309.929L355.934 323.415C364.221 326.086 373.304 324.099 379.719 318.211L418.299 282.799C406.374 253.952 382.914 230.794 352.59 222.176Z" fill="#6BD9E7"/>
<path d="M352.597 222.177L309.464 209.495C287.303 202.979 264.239 200.647 241.43 202.484C270.993 204.594 300.587 212.973 328.127 222.178C354.524 229.679 375.72 248.2 388.634 271.9C391.966 278.014 390.789 285.598 385.66 290.306L355.256 318.212C353.779 319.569 352.155 320.707 350.436 321.641L355.943 323.416C364.229 326.087 373.312 324.1 379.727 318.212L418.308 282.8C406.38 253.952 382.92 230.794 352.597 222.177Z" fill="#29C8D9"/>
<path d="M113.273 454.166H176.506C166.07 454.166 157.128 460.543 153.368 469.619H113.273C109.008 469.619 105.547 466.157 105.547 461.892C105.547 457.627 109.008 454.166 113.273 454.166Z" fill="#70D4E1"/>
<path d="M407.451 461.892C407.451 466.157 403.99 469.619 399.725 469.619H359.63C355.87 460.543 346.928 454.166 336.492 454.166H399.725C403.99 454.166 407.451 457.627 407.451 461.892Z" fill="#70D4E1"/>
</g>
<defs>
<clipPath id="clip0_1304_508">
<rect width="512" height="512" fill="white" transform="translate(0.5)"/>
</clipPath>
</defs>
</svg>
