<svg width="64" height="64" viewBox="0 0 64 64" fill="none" xmlns="http://www.w3.org/2000/svg">
<g clip-path="url(#clip0_2374_91021)">
<path d="M22.1438 62.3268C18.2891 60.6126 16.7202 57.7727 16.3599 54.7204L36.9658 41.1719H43.9664C43.9664 41.1719 45.224 43.2239 46.2837 46.0994L40.7463 58.3034L22.1438 62.3268Z" fill="#B2DBFF"/>
<path d="M24.4637 49.392L16.3599 54.7203C16.7202 57.7726 18.2891 60.6124 22.1438 62.3266L32.6715 60.0496C29.4461 57.0543 26.6592 53.3908 24.4637 49.392Z" fill="#9DD1FF"/>
<path d="M36.9659 41.1719C32.6732 45.8157 25.9325 51.3977 16.36 54.7204C15.6078 48.3994 20.0339 41.1719 20.0339 41.1719H36.9659Z" fill="#C9E6FF"/>
<path d="M32.0001 64C27.6994 64 24.4953 63.3732 22.1438 62.3268C34.1815 58.6121 41.9989 51.2854 46.2838 46.0994C48.7606 52.8096 50.1673 64 32.0001 64Z" fill="#C9E6FF"/>
<path d="M38.2669 0.309981C35.5956 1.33244 34.407 2.90127 34.407 2.90127L36.2148 10.4113H42.5007C44.0125 8.42253 44.5283 6.44522 44.5692 4.72868C44.6474 1.44524 41.3343 -0.86391 38.2669 0.309981Z" fill="#5FB3FD"/>
<path d="M25.7333 0.309981C28.4047 1.33244 29.5933 2.90127 29.5933 2.90127L27.7854 10.4113H21.4995C19.9877 8.42253 19.472 6.44522 19.431 4.72868C19.3529 1.44524 22.6659 -0.86391 25.7333 0.309981Z" fill="#5FB3FD"/>
<path d="M32.0001 2.14563C29.6724 2.14563 27.7854 4.03253 27.7854 6.36023V10.2635H36.2147V6.36036C36.2149 4.03266 34.3278 2.14563 32.0001 2.14563Z" fill="#74BEFF"/>
<path d="M51.0677 31.7638C54.0699 31.7638 56.5036 29.3301 56.5036 26.328C56.5036 23.3258 54.0699 20.8921 51.0677 20.8921C48.0656 20.8921 45.6318 23.3258 45.6318 26.328C45.6318 29.3301 48.0656 31.7638 51.0677 31.7638Z" fill="#FFCABD"/>
<path d="M20.9456 41.1718H20.0336C20.0336 41.1718 15.6076 48.3994 16.3597 54.7203C19.6259 53.5866 22.5618 52.1895 25.1839 50.6568C23.4131 47.6616 21.9781 44.4504 20.9456 41.1718Z" fill="#B2DBFF"/>
<path d="M32 45.3956C42.5308 45.3956 51.0676 36.8588 51.0676 26.328C51.0676 15.7972 42.5308 7.26038 32 7.26038C21.4692 7.26038 12.9324 15.7972 12.9324 26.328C12.9324 36.8588 21.4692 45.3956 32 45.3956Z" fill="#FFDCCE"/>
<path d="M27.8739 7.70941C21.0794 9.20845 15.6456 14.331 13.7028 20.9474C13.451 20.9116 13.1941 20.892 12.9325 20.892C9.93026 20.892 7.49658 23.3257 7.49658 26.3279C7.49658 29.3301 9.93038 31.7638 12.9325 31.7638C13.1943 31.7638 13.4515 31.7442 13.7036 31.7084C14.9557 35.9723 17.6571 39.6163 21.2391 42.0696C19.8492 37.9652 19.0861 33.7328 19.0861 29.6667C19.0861 21.1531 22.4291 13.4203 27.8739 7.70941Z" fill="#FFCABD"/>
<path d="M25.6978 25.0289C25.1645 25.0289 24.7321 24.5965 24.7321 24.0631C24.7321 23.594 24.3504 23.2125 23.8814 23.2125C23.4124 23.2125 23.0307 23.594 23.0307 24.0631C23.0307 24.5965 22.5983 25.0289 22.0649 25.0289C21.5315 25.0289 21.0991 24.5965 21.0991 24.0631C21.0991 22.5289 22.3472 21.2809 23.8814 21.2809C25.4156 21.2809 26.6636 22.5289 26.6636 24.0631C26.6636 24.5965 26.2312 25.0289 25.6978 25.0289Z" fill="#423E4F"/>
<path d="M41.9352 25.0289C41.4018 25.0289 40.9694 24.5965 40.9694 24.0631C40.9694 23.594 40.5878 23.2125 40.1187 23.2125C39.6496 23.2125 39.268 23.594 39.268 24.0631C39.268 24.5965 38.8356 25.0289 38.3022 25.0289C37.7688 25.0289 37.3364 24.5965 37.3364 24.0631C37.3364 22.5289 38.5845 21.2809 40.1187 21.2809C41.6529 21.2809 42.9009 22.5289 42.9009 24.0631C42.9009 24.5965 42.4687 25.0289 41.9352 25.0289Z" fill="#423E4F"/>
<path d="M32.0001 28.0298C30.9825 28.0298 30.0148 27.5892 29.3452 26.8208C28.9946 26.4186 29.0366 25.8086 29.4387 25.4581C29.8407 25.1076 30.4508 25.1495 30.8013 25.5516C31.1041 25.8989 31.5411 26.0983 32.0002 26.0983C32.4593 26.0983 32.8962 25.899 33.1989 25.5517C33.5493 25.1495 34.1595 25.1077 34.5616 25.4581C34.9638 25.8085 35.0056 26.4186 34.6552 26.8208C33.9854 27.5891 33.0176 28.0298 32.0001 28.0298Z" fill="#423E4F"/>
<path d="M31.1477 58.5518C28.4567 60.0038 25.4615 61.3029 22.1438 62.3267C24.4953 63.3731 27.6994 64 32.0001 64C33.9651 64 35.7002 63.8685 37.2307 63.6266C35.0553 62.2108 33.0163 60.4944 31.1477 58.5518Z" fill="#B2DBFF"/>
</g>
<defs>
<clipPath id="clip0_2374_91021">
<rect width="64" height="64" fill="white"/>
</clipPath>
</defs>
</svg>
