<svg width="429" height="430" viewBox="0 0 429 430" fill="none" xmlns="http://www.w3.org/2000/svg">
<g clip-path="url(#clip0_2372_90959)">
<path d="M429 206.954C429 181.613 409.139 160.913 384.134 159.565C381.997 153.737 379.804 148.59 377.738 144.625C350.973 81.7629 288.647 37.5047 216.639 37.0221C216.559 37.0196 216.481 37.0104 216.399 37.0087C215.764 36.9986 215.134 37.0188 214.499 37.0154C213.865 37.0188 213.235 36.9986 212.599 37.0087C212.518 37.0104 212.44 37.0196 212.359 37.0221C140.351 37.5047 77.0382 75.8567 50.2743 138.719C48.2072 142.684 45.5201 158.095 44.8649 159.565C19.8614 160.913 0 181.613 0 206.954C0 231.353 18.4152 251.443 42.1032 254.106C52.7268 298.202 66.1221 334.348 117.616 362.085C125.514 366.339 136.42 372.664 142.929 378.838C158.341 393.458 181.799 398.894 213.511 398.894C213.84 398.894 214.17 398.843 214.501 398.769C214.832 398.843 215.162 398.894 215.49 398.894C247.203 398.894 270.66 389.136 286.073 374.516C292.581 368.342 303.864 362.652 311.385 357.763C348.714 333.503 376.275 298.202 386.899 254.106C410.585 251.443 429 231.353 429 206.954Z" fill="#FFDBBD"/>
<path d="M384.131 159.565C381.994 153.737 379.801 148.59 377.735 144.625C350.97 81.7629 288.644 37.5039 216.636 37.0221C216.556 37.0196 216.478 37.0104 216.396 37.0087C215.76 36.9986 215.131 37.0188 214.496 37.0154C213.862 37.0188 213.232 36.9986 212.596 37.0087C212.515 37.0104 212.436 37.0196 212.356 37.0221C205.267 37.0699 198.264 37.4896 191.371 38.2588C254.906 45.8409 308.495 87.5687 332.788 144.626C334.855 148.591 337.047 153.738 339.184 159.566C339.184 159.566 354.086 201.961 341.948 254.107C331.324 298.203 303.763 333.504 266.434 357.764C258.913 362.652 247.63 368.343 241.122 374.518C228.976 386.04 211.826 394.538 189.583 397.623C196.958 398.493 204.927 398.895 213.506 398.895C213.835 398.895 214.165 398.844 214.496 398.769C214.827 398.843 215.157 398.895 215.486 398.895C247.198 398.895 270.656 389.137 286.068 374.517C292.576 368.343 303.859 362.652 311.38 357.763C348.709 333.503 376.27 298.202 386.894 254.106C410.582 251.443 428.997 231.353 428.997 206.954C428.997 181.613 409.135 160.913 384.131 159.565Z" fill="#F4CAAE"/>
<path d="M231.707 37.7759C227.894 31.1457 219.034 27.04 201.775 37.372C197.691 40.4077 192.649 44.908 188.199 51.0774C179.688 62.8774 171.734 83.1787 182.175 112.877C183.112 115.543 185.616 117.211 188.29 117.211C189.003 117.211 189.73 117.092 190.44 116.843C193.818 115.656 195.593 111.954 194.406 108.578C179.036 64.8574 210.305 46.7095 214.752 44.3869C212.644 50.6518 211.174 59.1865 213.388 68.7653C216.996 84.3827 229.084 97.8485 249.316 108.79C250.297 109.321 251.353 109.572 252.394 109.571C254.698 109.571 256.93 108.341 258.102 106.171C259.805 103.022 258.633 99.0885 255.483 97.386C238.749 88.3351 228.848 77.7802 226.058 66.0137C222.847 52.47 230.355 41.3839 230.532 41.1258C231.257 40.1044 231.637 38.9422 231.707 37.7759Z" fill="#5C576B"/>
<path d="M42.8683 229.753C32.1014 227.616 24.2051 218.142 24.2051 206.955C24.2051 195.727 32.1717 186.282 42.8683 184.15C42.8683 184.15 40.9579 227.843 42.8683 229.753Z" fill="#D3AA8C"/>
<path d="M386.143 229.753C396.909 227.616 404.806 218.142 404.806 206.955C404.806 195.727 396.839 186.282 386.143 184.15V229.753Z" fill="#D3AA8C"/>
<path d="M156.845 211.198C156.845 214.779 159.748 217.681 163.328 217.681C166.908 217.681 169.811 214.78 169.811 211.198C169.811 196.572 157.912 184.673 143.286 184.673C128.66 184.673 116.761 196.572 116.761 211.198C116.761 214.779 119.663 217.681 123.244 217.681C126.824 217.681 129.726 214.78 129.726 211.198C129.726 203.722 135.809 197.638 143.287 197.638C150.762 197.638 156.845 203.721 156.845 211.198Z" fill="#BC8E82"/>
<path d="M285.727 184.673C271.101 184.673 259.202 196.572 259.202 211.198C259.202 214.779 262.105 217.681 265.685 217.681C269.265 217.681 272.168 214.78 272.168 211.198C272.168 203.722 278.251 197.638 285.727 197.638C293.205 197.638 299.288 203.721 299.288 211.198C299.288 214.779 302.19 217.681 305.77 217.681C309.351 217.681 312.253 214.78 312.253 211.198C312.252 196.572 300.353 184.673 285.727 184.673Z" fill="#BC8E82"/>
<path d="M245.045 277.014C239.198 277.014 232.331 278.191 225.319 280.315C218.258 282.455 210.734 282.455 203.673 280.315C196.661 278.19 189.794 277.014 183.946 277.014C160.532 277.014 141.551 295.847 141.551 319.079C141.551 342.31 160.532 361.143 183.946 361.143C189.794 361.143 196.661 359.967 203.673 357.841C210.734 355.701 218.258 355.701 225.319 357.841C232.331 359.967 239.198 361.143 245.045 361.143C268.46 361.143 287.441 342.31 287.441 319.079C287.441 295.847 268.46 277.014 245.045 277.014Z" fill="#48E5FF"/>
<path d="M245.046 277.014C239.199 277.014 232.332 278.191 225.32 280.316C223.43 280.889 221.507 281.303 219.569 281.569C233.342 288.516 242.784 302.699 242.784 319.079C242.784 335.459 233.342 349.641 219.569 356.589C221.507 356.855 223.43 357.269 225.319 357.842C232.331 359.968 239.198 361.143 245.045 361.143C268.459 361.143 287.441 342.31 287.441 319.079C287.442 295.847 268.461 277.014 245.046 277.014Z" fill="#1AD8E2"/>
<path d="M225.37 389.508H203.625C184.315 389.508 168.604 373.797 168.604 354.486V344.903C168.604 328.052 182.314 314.342 199.165 314.342H229.83C246.681 314.342 260.39 328.052 260.39 344.903V354.486C260.39 373.797 244.68 389.508 225.37 389.508ZM199.165 327.307C189.463 327.307 181.569 335.2 181.569 344.903V354.486C181.569 366.648 191.464 376.542 203.625 376.542H225.37C237.531 376.542 247.425 366.648 247.425 354.486V344.903C247.425 335.2 239.532 327.307 229.83 327.307H199.165Z" fill="#FF9F40"/>
<path d="M214.497 336.479C223.803 336.479 231.347 328.935 231.347 319.629C231.347 310.323 223.803 302.779 214.497 302.779C205.191 302.779 197.647 310.323 197.647 319.629C197.647 328.935 205.191 336.479 214.497 336.479Z" fill="#F77FA4"/>
<path d="M214.531 302.779V336.475C223.82 336.456 231.345 328.921 231.345 319.628C231.345 310.334 223.82 302.799 214.531 302.779Z" fill="#DD6FA1"/>
</g>
<defs>
<clipPath id="clip0_2372_90959">
<rect width="429" height="429" fill="white" transform="translate(0 0.5)"/>
</clipPath>
</defs>
</svg>
