<svg width="513" height="512" viewBox="0 0 513 512" fill="none" xmlns="http://www.w3.org/2000/svg">
<g clip-path="url(#clip0_1304_570)">
<path d="M453.516 225.453V181.621H77.0664C66.8594 181.621 58.5859 189.895 58.5859 200.098V235.137C58.5859 300.742 111.77 353.926 177.375 353.926H334.723C334.781 353.926 334.836 353.926 334.895 353.922C366.012 353.578 397.457 338.199 421.164 311.727C444.023 286.203 456.078 254.02 453.516 225.453Z" fill="#65ECE5"/>
<path d="M453.52 181.621H257.047V353.926H334.73H334.898C366.016 353.582 397.461 338.199 421.172 311.727C444.027 286.207 456.082 254.02 453.52 225.457V181.621Z" fill="#00BDA7"/>
<path d="M138.281 403.816H374.086V434.211H138.281V403.816Z" fill="#275FA8"/>
<path d="M257.047 403.816H374.09V434.211H257.047V403.816Z" fill="#143170"/>
<path d="M113.332 512C111.789 512 110.226 511.765 108.683 511.269C100.691 508.707 96.2925 500.144 98.855 492.156L176.222 251.046C178.789 243.054 187.347 238.656 195.336 241.218C203.328 243.785 207.726 252.343 205.164 260.335L127.796 501.441C125.726 507.89 119.757 512 113.332 512Z" fill="#4A7CF0"/>
<path d="M399.127 512C392.705 512 386.736 507.898 384.662 501.457L307.041 260.347C304.466 252.359 308.861 243.796 316.849 241.226C324.841 238.648 333.4 243.043 335.974 251.035L413.595 492.14C416.17 500.132 411.775 508.691 403.787 511.265C402.24 511.761 400.67 512 399.127 512Z" fill="#275FA8"/>
<path d="M449.828 270.891H62.6289C53.7188 270.891 46.5 264.086 46.5 255.691C46.5 247.297 53.7227 240.492 62.6289 240.492H449.828C458.738 240.492 465.957 247.297 465.957 255.691C465.957 264.086 458.738 270.891 449.828 270.891Z" fill="#275FA8"/>
<path d="M449.828 240.492H257.047V270.891H449.828C458.738 270.891 465.957 264.086 465.957 255.691C465.957 247.297 458.738 240.492 449.828 240.492Z" fill="#143170"/>
</g>
<defs>
<clipPath id="clip0_1304_570">
<rect width="512" height="512" fill="white" transform="translate(0.5)"/>
</clipPath>
</defs>
</svg>
