<svg width="512" height="512" viewBox="0 0 512 512" fill="none" xmlns="http://www.w3.org/2000/svg">
<path d="M369.437 438.338H142.563C129.274 438.338 118.5 427.565 118.5 414.275V405.422H393.5V414.275C393.5 427.565 382.727 438.338 369.437 438.338Z" fill="#B0ED94"/>
<path d="M161.469 414.275V405.423H118.5V414.275C118.5 427.565 129.273 438.339 142.562 438.339H185.531C172.242 438.338 161.469 427.565 161.469 414.275Z" fill="#97DA7B"/>
<path d="M407.25 80.8379C414.844 80.8379 421 74.6818 421 67.0879C421 59.4939 414.844 53.3379 407.25 53.3379C399.656 53.3379 393.5 59.4939 393.5 67.0879C393.5 74.6818 399.656 80.8379 407.25 80.8379Z" fill="#EAF6FF"/>
<path d="M384.934 142.305C395.391 142.305 403.867 133.828 403.867 123.371C403.867 112.914 395.391 104.437 384.934 104.437C374.477 104.437 366 112.914 366 123.371C366 133.828 374.477 142.305 384.934 142.305Z" fill="#EAF6FF"/>
<path d="M385.676 414.275H126.324C105.94 414.275 88.5439 399.539 85.1932 379.433L63.5 249.275H448.5L426.807 379.433C423.456 399.539 406.06 414.275 385.676 414.275Z" fill="#97DA7B"/>
<path d="M448.5 249.275H63.5L85.1932 379.432C88.5439 399.538 105.94 414.275 126.324 414.275H160.699C140.315 414.275 122.919 399.539 119.568 379.433L105.533 295.224C104.223 287.366 110.283 280.214 118.248 280.214H443.344L448.5 249.275Z" fill="#79CF59"/>
<path d="M455.375 263.025H56.625C45.234 263.025 36 253.791 36 242.4C36 231.009 45.234 221.775 56.625 221.775H455.375C466.766 221.775 476 231.009 476 242.4C476 253.791 466.766 263.025 455.375 263.025Z" fill="#B0ED94"/>
<path d="M70.375 242.401C70.375 231.01 79.609 221.776 91 221.776H56.625C45.234 221.776 36 231.01 36 242.401C36 253.792 45.234 263.026 56.625 263.026H91C79.609 263.025 70.375 253.791 70.375 242.401Z" fill="#97DA7B"/>
<path d="M445.895 221.775C444.217 194.298 421.4 172.532 393.5 172.532C384.767 172.532 376.532 174.665 369.287 178.437C364.968 162.979 350.78 151.638 333.944 151.638C333.557 151.638 333.171 151.645 332.787 151.657C328.713 135.832 314.347 124.138 297.25 124.138C287.225 124.138 278.14 128.159 271.518 134.674C262.454 118.935 245.461 108.338 225.995 108.338C221.292 108.338 216.733 108.957 212.397 110.117C203.397 94.1366 186.272 83.3438 166.625 83.3438C137.633 83.3438 114.131 106.846 114.131 135.838C114.131 136.015 114.132 136.192 114.134 136.369C85.5412 140.235 63.5 164.738 63.5 194.39V221.776H92.1043C102.885 221.776 111.625 230.516 111.625 241.297V284.21C111.625 295.394 120.321 304.918 131.498 305.316C143.231 305.733 152.875 296.344 152.875 284.704V241.297C152.875 230.516 161.615 221.776 172.396 221.776L445.895 221.775Z" fill="#EAF6FF"/>
<path d="M237.938 109.705C238.017 109.843 238.095 109.98 238.173 110.118C238.408 110.055 238.644 109.994 238.881 109.934C238.567 109.855 238.253 109.778 237.938 109.705Z" fill="#CBE2FF"/>
<path d="M137.403 284.209V241.296C137.403 230.515 128.663 221.775 117.883 221.775H92.1016C102.883 221.775 111.622 230.515 111.622 241.296V284.209C111.622 295.393 120.318 304.917 131.495 305.315C136.7 305.5 141.492 303.756 145.215 300.742C140.434 296.833 137.403 290.811 137.403 284.209Z" fill="#D8ECFE"/>
<path d="M139.915 136.369C139.913 136.192 139.912 136.015 139.912 135.838C139.912 111.294 156.757 90.6837 179.516 84.9379C175.392 83.8963 171.073 83.3438 166.626 83.3438C137.634 83.3438 114.132 106.847 114.132 135.838C114.132 136.015 114.133 136.192 114.134 136.369C85.5412 140.235 63.5 164.738 63.5 194.39V221.776H89.2812C89.2812 221.776 89.2812 202.497 89.2812 194.39C89.2812 164.738 111.322 140.235 139.915 136.369Z" fill="#D8ECFE"/>
<path d="M204.244 359.275H188.109C176.244 359.275 166.625 349.656 166.625 337.791C166.625 334.469 169.318 331.775 172.641 331.775H204.244V359.275Z" fill="#FFD064"/>
<path d="M306.34 379.9H267.052C281.37 371.272 290.831 355.4 290.358 337.356C289.669 311.119 268.496 290.525 242.249 290.525C215.671 290.525 194.125 312.072 194.125 338.65C194.125 357.898 205.424 374.506 221.751 382.204C205.664 387.831 194.125 403.143 194.125 421.15C194.125 443.932 212.593 462.4 235.375 462.4H262.875C317.875 462.4 345.375 440.336 345.375 379.9V366.498C345.375 362.761 340.689 361.157 338.346 364.07C332.319 371.563 322.078 379.9 306.34 379.9Z" fill="#FFF39F"/>
<path d="M219.906 421.15C219.906 403.143 231.445 387.831 247.533 382.204C231.205 374.506 219.906 357.898 219.906 338.65C219.906 316.518 234.846 297.876 255.192 292.257C251.077 291.128 246.738 290.525 242.249 290.525C215.671 290.525 194.125 312.072 194.125 338.65C194.125 357.898 205.424 374.506 221.751 382.204C205.664 387.831 194.125 403.142 194.125 421.15C194.125 443.932 212.593 462.4 235.375 462.4H261.156C238.374 462.401 219.906 443.932 219.906 421.15Z" fill="#FFE07D"/>
<path d="M221.624 352.166C217.956 352.166 214.984 349.193 214.984 345.526V338.651C214.984 334.983 217.957 332.012 221.624 332.012C225.291 332.012 228.263 334.984 228.263 338.651V345.526C228.263 349.193 225.291 352.166 221.624 352.166Z" fill="#A87567"/>
<path d="M324.749 70.8279C321.081 70.8279 318.109 67.8553 318.109 64.1884V56.2391C318.109 52.5713 321.082 49.5996 324.749 49.5996C328.416 49.5996 331.388 52.5722 331.388 56.2391V64.1884C331.388 67.8553 328.416 70.8279 324.749 70.8279Z" fill="#D8ECFE"/>
<path d="M324.749 112.077C321.081 112.077 318.109 109.104 318.109 105.438V97.4891C318.109 93.8213 321.082 90.8496 324.749 90.8496C328.416 90.8496 331.388 93.8222 331.388 97.4891V105.438C331.388 109.104 328.416 112.077 324.749 112.077Z" fill="#D8ECFE"/>
<path d="M308.096 87.4783H300.147C296.48 87.4783 293.508 84.5057 293.508 80.8388C293.508 77.1718 296.48 74.1992 300.147 74.1992H308.096C311.763 74.1992 314.735 77.1718 314.735 80.8388C314.735 84.5057 311.763 87.4783 308.096 87.4783Z" fill="#D8ECFE"/>
<path d="M349.347 87.4783H341.397C337.73 87.4783 334.758 84.5057 334.758 80.8388C334.758 77.1718 337.73 74.1992 341.397 74.1992H349.347C353.014 74.1992 355.986 77.1718 355.986 80.8388C355.986 84.5057 353.014 87.4783 349.347 87.4783Z" fill="#D8ECFE"/>
<path d="M284.223 431.835H249.124C245.456 431.835 242.484 428.863 242.484 425.196C242.484 421.529 245.457 418.556 249.124 418.556H284.223C290.374 418.556 295.377 413.553 295.377 407.402C295.377 403.734 298.35 400.763 302.017 400.763C305.684 400.763 308.656 403.735 308.656 407.402C308.657 420.874 297.697 431.835 284.223 431.835Z" fill="#FFD064"/>
</svg>
