<svg width="512" height="512" viewBox="0 0 512 512" fill="none" xmlns="http://www.w3.org/2000/svg">
<mask id="mask0_1216_561" style="mask-type:luminance" maskUnits="userSpaceOnUse" x="43" y="43" width="426" height="426">
<path d="M469 43H43V469H469V43Z" fill="white"/>
</mask>
<g mask="url(#mask0_1216_561)">
<path d="M189.344 127.702C189.344 106.026 232.093 98.3788 232.093 81.8032C232.093 70.0637 230.815 58.3244 239.583 49.757C248.804 40.7477 263.826 40.7477 273.047 49.757C281.816 58.3244 280.539 70.0637 280.539 81.8032C280.539 98.3788 323.287 106.026 323.287 127.702L258.372 148.69" fill="#FFE785"/>
<path d="M256.312 43C254.157 43 251.999 45.2523 250.358 49.7538C247.238 58.3276 247.69 70.0637 247.69 81.7999C247.69 98.3788 232.475 106.023 232.475 127.705H189.344C189.344 106.023 232.093 98.3788 232.093 81.7999C232.093 70.0637 230.815 58.3276 239.587 49.7538C244.192 45.2523 250.254 43 256.312 43Z" fill="#F2A755"/>
<path d="M357.42 162.881V168.331H155.211V162.881C155.211 143.449 170.955 127.705 190.388 127.705H322.248C341.677 127.705 357.42 143.449 357.42 162.881Z" fill="#3598BA"/>
<path d="M357.414 162.881V168.331H193.422V162.881C193.422 143.449 209.175 127.705 228.608 127.705H322.24C341.67 127.705 357.414 143.449 357.414 162.881Z" fill="#61B4D8"/>
<path d="M380.615 206.644V425.757C380.615 449.639 361.255 469 337.373 469H175.267C151.385 469 132.023 449.639 132.023 425.757V206.644C132.023 182.755 151.385 163.394 175.267 163.394H337.373C361.255 163.394 380.615 182.755 380.615 206.644Z" fill="#93CAD8"/>
<path d="M380.619 206.644V425.757C380.619 449.639 361.258 469 337.376 469H226.251C202.369 469 183.008 449.639 183.008 425.757V206.644C183.008 182.755 202.369 163.394 226.251 163.394H337.376C361.258 163.394 380.619 182.755 380.619 206.644Z" fill="#C0E5F2"/>
<path d="M257.234 260.504C312.743 240.893 351.271 265.386 351.271 288.744L309.357 356.022L264.037 300.507L257.234 260.504Z" fill="#93CAD8"/>
<path d="M351.268 288.744V406.968C351.268 425.019 336.636 439.651 318.589 439.651H194.05C175.999 439.651 161.367 425.019 161.367 406.968V271.077C161.367 244.159 187.953 225.075 213.33 234.048C263.658 251.846 317.886 331.793 351.268 288.744Z" fill="white"/>
<path d="M233.131 393.012H196.16C192.559 393.012 189.641 390.093 189.641 386.492C189.641 382.891 192.559 379.973 196.16 379.973H233.131C236.732 379.973 239.65 382.891 239.65 386.492C239.65 390.093 236.732 393.012 233.131 393.012Z" fill="#93CAD8"/>
<path d="M233.131 310.933H196.16C192.559 310.933 189.641 308.015 189.641 304.414C189.641 300.812 192.559 297.891 196.16 297.891H233.131C236.732 297.891 239.65 300.812 239.65 304.414C239.65 308.015 236.732 310.933 233.131 310.933Z" fill="#93CAD8"/>
<path d="M233.131 228.855H196.16C192.559 228.855 189.641 225.933 189.641 222.332C189.641 218.731 192.559 215.812 196.16 215.812H233.131C236.732 215.812 239.65 218.731 239.65 222.332C239.65 225.933 236.732 228.855 233.131 228.855Z" fill="#93CAD8"/>
</g>
</svg>
