<svg id="Layer_1" height="512" viewBox="0 0 512 512" width="512" xmlns="http://www.w3.org/2000/svg" data-name="Layer 1"><path d="m393.28 95.107h27.2v17.227h-27.2z" fill="#4a5160" transform="matrix(.443 -.896 .896 .443 133.508 422.431)"/><path d="m393.13 112.09-19.03 38.48 15.44 7.63 19.03-38.47z" fill="#6d7486"/><path d="m302.02 206.446a12.178 12.178 0 0 0 -15.146-8.194l6.951 23.34a12.19 12.19 0 0 0 8.195-15.146z" fill="#5fa8ed"/><path d="m159.708 23.105-15.461-2.463a4.322 4.322 0 0 0 -4.771 2.881 10.242 10.242 0 0 0 6.18 12.843l9.739 3.516 2.933-8.127-.6-.216.619.1z" fill="#d1c44b"/><path d="m219.38 136.53-77.71-26.32a19.525 19.525 0 0 0 -24.75 12.23l114.69 38.84a19.53 19.53 0 0 0 -12.23-24.75z" fill="#e1b7a3"/><path d="m450.92 207.36c6.91 2.44 10.53 9.2 9.4 17.25-1.78 11.97-13.98 24.48-37.4 25.56a2.629 2.629 0 0 1 -.7-.11 2.44 2.44 0 0 1 -.62-.36c-17.56-15.31-19.25-32.8-13.07-43.37 4.14-7.13 11.2-10.12 18.12-7.68 3.89 1.37 7.48 4.42 10.54 8.98 5.13-1.52 9.9-1.62 13.73-.27z" fill="#eb7288"/><path d="m282.071 233.311-144.981 50.039 145.02 72.41 145.02-72.41z" fill="#996b5c"/><path d="m424.12 284.72-142.01 71.04v145.24l142.14-68.73v-147.31z" fill="#c99783"/><path d="m359.09 20.55c6.92 2.44 10.54 9.2 9.4 17.24-1.78 11.97-13.97 24.49-37.39 25.56a2.39 2.39 0 0 1 -.71-.1 2.511 2.511 0 0 1 -.61-.36c-17.57-15.31-19.25-32.8-13.08-43.37 4.15-7.13 11.2-10.12 18.12-7.68 3.89 1.37 7.48 4.42 10.54 8.98 5.13-1.53 9.91-1.62 13.73-.27z" fill="#eb7288"/><path d="m342.14 118a34.742 34.742 0 0 1 .16 8.51 29.821 29.821 0 0 0 -32.23 31.3 34.925 34.925 0 0 1 -27.31-10.14l.01-.01 49.48-49.48a34.759 34.759 0 0 1 9.89 19.82z" fill="#87c4c2"/><path d="m319.06 134.85a29.761 29.761 0 0 1 23.24-8.34 34.983 34.983 0 0 1 -29.9 31.05c-.78.11-1.55.2-2.33.25a29.8 29.8 0 0 1 8.99-22.96z" fill="#eb7288"/><path d="m332.25 98.18-49.48 49.48-.01.01a34.861 34.861 0 0 1 -10.17-27.21 29.8 29.8 0 0 0 24.67-8.17 29.376 29.376 0 0 0 8.88-24.35 34.951 34.951 0 0 1 26.11 10.24z" fill="#a0eaea"/><path d="m306.14 87.94a29.376 29.376 0 0 1 -8.88 24.35 29.8 29.8 0 0 1 -24.67 8.17 34.984 34.984 0 0 1 29.99-32.2 33.143 33.143 0 0 1 3.56-.32z" fill="#ef95a8"/><path d="m139.98 284.65-.01.03v147.59l142.14 68.73v-145.24z" fill="#e1b7a3"/><path d="m153.65 37.94a25.414 25.414 0 0 1 1.35-8.49 24.1 24.1 0 0 1 1.37-3.26 25.535 25.535 0 1 1 40.52 29.86 3.849 3.849 0 0 0 1.4 6.45l53.93 18.27-4.24 12.52a49.712 49.712 0 1 1 -94.17-31.89l3.55-10.5a25.607 25.607 0 0 1 -3.71-12.96z" fill="#eadf53"/><path d="m199.13 204.7a31.336 31.336 0 0 1 -1.4 41.96c-.74.76-1.52 1.5-2.35 2.2s-1.69 1.35-2.56 1.94a31.329 31.329 0 0 1 -41.6-5.7 30.679 30.679 0 0 1 -4.89-7.97 41.9 41.9 0 0 0 45.77-38.61 31.54 31.54 0 0 1 7.03 6.18z" fill="#604af3"/><path d="m192.1 198.52a41.883 41.883 0 0 1 -45.77 38.61 31.338 31.338 0 0 1 45.77-38.61z" fill="#867af4"/><path d="m101.7 186.12c7.21 9.72 7.44 27.19-8.37 44.51a2.311 2.311 0 0 1 -.57.43 2.594 2.594 0 0 1 -.69.18c-23.25 1.59-36.8-9.58-39.91-21.42-2.11-7.97.76-15.08 7.38-18.25 3.72-1.78 8.41-2.16 13.8-1.1 2.55-4.71 5.86-8.15 9.52-9.9 6.62-3.16 13.96-.94 18.84 5.55z" fill="#eb7288"/><path d="m188.34 78.81 39.25 13.29a25.052 25.052 0 0 1 -31.79 15.71l-15.5-5.25z" fill="#edb740"/><path d="m131.05 127.23a10.914 10.914 0 0 1 20.66 6.99c-.04.14-.08.28-.13.42a10.921 10.921 0 0 1 -20.69-7c.05-.14.1-.27.16-.41z" fill="#c79a83"/><path d="m217.43 156.48c-.04.14-.08.28-.13.42a10.923 10.923 0 0 1 -20.69-7.01c.05-.14.1-.27.16-.41a10.915 10.915 0 0 1 20.66 7z" fill="#c79a83"/><path d="m294.97 215.86a39.361 39.361 0 0 1 -27.86 43.06l-2.67-16.52.06-.01c18.64-6.19 31.26-19.26 29.71-30.56a38.06 38.06 0 0 1 .76 4.03z" fill="#4ca987"/><path d="m294.21 211.83c1.55 11.3-11.07 24.37-29.71 30.56l-.06.01-1.73-10.75a93.1 93.1 0 0 0 -6.89-23.15l-4.43-9.95c19.02-5.05 36.76-1.01 41.64 9.33.23.64.44 1.29.64 1.95s.38 1.33.54 2z" fill="#5fcda4"/><path d="m291.45 204.07a37.65 37.65 0 0 1 1.58 3.81c-4.88-10.34-22.62-14.38-41.64-9.33l-6.81-15.28a39.3 39.3 0 0 1 46.87 20.8z" fill="#4ca987"/><path d="m262.71 231.65a93.1 93.1 0 0 0 -6.89-23.15l-11.24-25.23-15.5 4.61a5.7 5.7 0 0 0 -3.31 8.3l10.64 18.5a50.736 50.736 0 0 1 6.68 22.41l.6 10.52.61 10.79a5.7 5.7 0 0 0 7.31 5.14l15.5-4.62z" fill="#5fa8ed"/><path d="m399.99 161.87-17.33-8.57-.05.1-56.12 113.9 7.11 32.07a6.242 6.242 0 0 0 3.33-3.06l64.45-130.33a3.07 3.07 0 0 0 -1.39-4.11z" fill="#efc597"/><path d="m365.66 144.9a3.067 3.067 0 0 0 -4.11 1.39l-64.45 130.32a6.317 6.317 0 0 0 -.42 4.48l.13-.03 29.68-13.76 56.12-113.9.05-.1z" fill="#ffd8b7"/><path d="m326.49 267.3 7.11 32.07a6.269 6.269 0 0 1 -5.08-.22l-28.57-14.13a6.265 6.265 0 0 1 -3.27-3.93l.13-.03z" fill="#d3ab84"/><path d="m427.13 283.35-145.02 72.41 30.2 60.41 144.3-76.73z" fill="#d19e88"/><path d="m139.98 284.65-.01.03v147.59l30 14.506.008-147.117z" fill="#cca596"/><path d="m137.09 283.35-29.48 56.09 144.3 76.73 30.2-60.41z" fill="#c79a83"/><path d="m107.61 339.44 30.02 15.963 30.181-56.714-30.721-15.339z" fill="#b58a78"/><path d="m245.868 282.587a16.891 16.891 0 0 0 -2.639-2.52 265.449 265.449 0 0 1 -27.739-24l-13.49-13.63a6 6 0 0 0 -8.581.052 25.568 25.568 0 0 1 -3.978 3.356 6 6 0 0 0 -1.5 8.45l10.293 14.381a226.426 226.426 0 0 1 19.616 32.165 17.014 17.014 0 0 0 2.992 4.279 16.848 16.848 0 0 0 25.03-22.533z" fill="#6d7486"/><path d="m175.356 42.29a8.042 8.042 0 1 1 7.625-5.464v.005a8.057 8.057 0 0 1 -7.625 5.459z" fill="#edb740"/></svg>