<svg width="513" height="513" viewBox="0 0 513 513" fill="none" xmlns="http://www.w3.org/2000/svg">
<g clip-path="url(#clip0_1218_1027)">
<path d="M197.736 92.8244C205.976 80.6321 220.506 88.9217 220.506 105.804C220.506 79.693 234.511 57.7102 252.864 55.4093C255.128 55.1255 257.42 54.9617 259.737 54.9207C308.143 54.0811 347.132 108.624 348.448 175.456C348.669 186.659 343.064 196.403 335.268 198.291L324.096 200.997C284.05 210.697 243.694 186.371 220.85 138.76C212.125 172.725 199.787 195.522 187.472 210.96C182.528 217.16 174.699 212.537 174.214 203.208L173.505 189.57C171.559 152.08 181.033 117.537 197.736 92.8244Z" fill="#D09080"/>
<path d="M217.114 81.3744C228.052 71.0111 240.569 82.5837 236.732 99.4985C242.667 73.337 261.545 54.4606 280.259 56.2818C282.567 56.5065 284.876 56.8576 287.182 57.3376C335.352 67.3802 361.599 130.795 347.714 198.053C345.386 209.328 337.616 217.83 329.46 217.969L317.772 218.169C275.874 218.883 241.404 185.436 229.582 132.596C213.216 164.665 195.805 184.733 180.089 197.432C173.78 202.532 167.071 196.14 168.711 186.683L171.108 172.86C177.7 134.86 194.941 102.379 217.114 81.3744Z" fill="#D09080"/>
<path d="M285.341 76.1148C273.802 66.8029 262.427 79.132 267.511 95.4249C259.648 70.2253 239.656 53.1821 221.44 56.4296C219.194 56.8301 216.957 57.3547 214.732 58.0056C168.264 71.6169 147.467 135.872 166.338 200.764C169.501 211.642 177.787 219.376 185.799 218.876L197.28 218.159C238.435 215.59 269.637 180.089 277.109 127.334C295.667 157.514 314.312 175.84 330.719 187.07C337.307 191.58 343.389 184.787 341.042 175.638L337.612 162.265C328.179 125.504 308.731 94.9884 285.341 76.1148Z" fill="#D09080"/>
<path d="M193.244 40.1748C201.931 31.1047 217.249 37.2715 217.249 49.8304C217.249 30.406 232.013 14.0525 251.363 12.3408C253.749 12.1297 256.165 12.0078 258.608 11.9773C309.64 11.3527 350.744 51.9285 352.131 101.646C352.364 109.981 346.455 117.229 338.236 118.634L326.458 120.647C284.239 127.863 241.695 109.766 217.611 74.3476C208.414 99.6146 195.406 116.574 182.423 128.059C177.211 132.671 168.958 129.232 168.446 122.292L167.699 112.146C165.647 84.2568 175.635 58.5589 193.244 40.1748Z" fill="#D09080"/>
<path d="M345.05 447.177C356.515 435.713 361.699 420.347 360.604 405.353C375.597 406.448 390.964 401.264 402.429 389.8C412.882 379.347 418.114 365.649 418.126 351.948V306.349C418.126 291.182 412.047 277.433 402.192 267.41C392.114 257.159 378.089 250.803 362.579 250.803H339.665L259.152 286.194L173.335 250.803H150.421C134.911 250.803 120.886 257.16 110.81 267.41C100.955 277.434 94.875 291.182 94.875 306.349V349.305L158.671 419.067C158.671 419.627 158.97 420.145 159.455 420.425L248.138 512.477H259.153C272.323 512.08 285.373 506.857 295.425 496.805L345.05 447.177Z" fill="#8993DA"/>
<path d="M291.678 505.653L385.051 451.744C405.52 439.926 418.131 418.084 418.131 394.448V351.947C418.12 365.648 363.268 394.112 348.273 393.018C348.273 393.018 272.326 512.079 259.156 512.476H264.881C273.967 512.716 283.229 510.53 291.678 505.653Z" fill="#FFDDCE"/>
<path d="M150.654 357.712C146.01 357.712 142.246 353.948 142.246 349.305V309.608C142.246 304.964 146.01 301.201 150.654 301.201C155.297 301.201 159.061 304.965 159.061 309.608V349.305C159.062 353.948 155.297 357.712 150.654 357.712Z" fill="#707DD3"/>
<path d="M311.593 250.801C307.203 250.801 303.644 247.243 303.644 242.852V216.513H209.358V242.852C209.358 247.242 205.799 250.801 201.408 250.801H173.336L202.697 281.139C232.123 311.544 280.879 311.544 310.304 281.139L339.664 250.801H311.593Z" fill="#FFECE4"/>
<path d="M353.827 104.457H340.862L325.758 108.239L334.903 157.572H337.492C355.865 157.572 370.758 142.678 370.758 124.306V121.389C370.758 112.037 363.178 104.457 353.827 104.457Z" fill="#FFCBBE"/>
<path d="M159.181 104.457H164.75L186.699 119.407L178.105 157.571H175.516C157.143 157.571 142.25 142.677 142.25 124.305V121.388C142.25 112.037 149.83 104.457 159.181 104.457Z" fill="#FFDDCE"/>
<path d="M214.347 55.2744L338.732 105.556L334.21 166.96C331.212 207.662 281.034 235.868 256.504 235.868C231.972 235.868 181.795 207.662 178.797 166.96L175.195 118.051L214.347 55.2744Z" fill="#FFECE4"/>
<path d="M323.192 101.027L291.948 109.487L289.367 144.539C286.369 185.241 236.191 213.447 211.66 213.447C209.55 213.447 207.248 213.234 204.805 212.827C221.707 227.312 242.992 235.868 256.502 235.868C281.032 235.868 331.21 207.662 334.208 166.96L338.731 105.556L323.192 101.027Z" fill="#FFDDCE"/>
<path d="M257.785 512.5C271.414 512.435 285.025 507.204 295.424 496.804L345.051 447.178C356.515 435.713 361.699 420.347 360.604 405.353C348.225 404.448 336.1 399.264 326.635 389.799C317.17 380.334 311.986 368.209 311.082 355.83C296.088 354.735 280.722 359.919 269.256 371.383L219.63 421.01C217.614 423.026 215.792 425.164 214.164 427.398L248.138 512.475L257.785 512.5Z" fill="#E28086"/>
<path d="M360.603 405.352C348.224 404.448 311.985 368.209 311.08 355.83C299.871 355.011 288.455 357.705 278.615 363.905C279.616 365.097 280.672 366.257 281.793 367.378C285.351 370.936 289.285 373.889 293.468 376.238C311.031 386.1 314.667 410.042 300.55 424.411C300.437 424.527 300.323 424.642 300.208 424.756L267.038 457.927L248.137 512.476L257.784 512.5C271.413 512.435 285.024 507.204 295.423 496.804L345.05 447.178C356.514 435.713 361.699 420.347 360.603 405.352Z" fill="#DD636E"/>
<path d="M291.001 486.984C294.641 480.678 292.48 472.615 286.175 468.975L159.847 396.04C159.362 395.76 159.063 395.242 159.063 394.682V349.305H94.875V394.45C94.875 418.087 107.485 439.927 127.954 451.746L221.327 505.654C228.938 510.048 237.211 512.257 245.418 512.477H248.137C265.284 512.02 281.797 502.926 291.001 486.984Z" fill="#FFECE4"/>
<path d="M189.978 28.2046C198.666 19.1344 213.983 25.3013 213.983 37.8602C213.983 18.4358 228.748 2.08232 248.097 0.370575C250.484 0.159464 252.899 0.037586 255.342 0.00711638C306.375 -0.617511 347.478 39.9583 348.866 89.676C349.099 98.0106 343.19 105.259 334.97 106.664L323.193 108.677C280.974 115.893 238.43 97.7962 214.345 62.3774C205.148 87.6444 192.141 104.604 179.157 116.089C173.945 120.701 165.692 117.262 165.18 110.321L164.433 100.176C162.382 72.2866 172.369 46.5887 189.978 28.2046Z" fill="#D09080"/>
<path d="M364.531 405.496C394.131 405.496 418.125 381.501 418.125 351.902C418.125 322.303 394.131 298.308 364.531 298.308C334.932 298.308 310.938 322.303 310.938 351.902C310.938 381.501 334.932 405.496 364.531 405.496Z" fill="#FFECE4"/>
<path d="M364.297 381.94C357.659 381.94 351.021 379.413 345.967 374.361C342.683 371.078 342.683 365.754 345.966 362.47C349.249 359.186 354.573 359.185 357.857 362.469C361.409 366.021 367.186 366.022 370.738 362.469C374.288 358.918 374.288 353.141 370.737 349.589C367.454 346.306 367.454 340.982 370.737 337.698C374.02 334.416 379.343 334.415 382.628 337.699C392.734 347.806 392.734 364.251 382.628 374.359C377.574 379.413 370.935 381.94 364.297 381.94Z" fill="#FFDDCE"/>
</g>
<defs>
<clipPath id="clip0_1218_1027">
<rect width="512" height="512" fill="white" transform="translate(0.5 0.5)"/>
</clipPath>
</defs>
</svg>
