<svg width="512" height="512" viewBox="0 0 512 512" fill="none" xmlns="http://www.w3.org/2000/svg">
<path d="M269.664 53.7293V97.4537C269.664 104.996 263.542 111.118 256 111.118C248.458 111.118 242.336 104.996 242.336 97.4537V53.7293C242.336 46.1868 248.458 40.0654 256 40.0654C263.542 40.0654 269.664 46.1868 269.664 53.7293Z" fill="#535E7E"/>
<path d="M269.664 53.7293V97.4537C269.664 104.996 263.543 111.118 256 111.118V40.0654C263.543 40.0654 269.664 46.1868 269.664 53.7293Z" fill="#424765"/>
<path d="M437.947 222.742C427.717 185.239 405.828 151.38 375.53 126.521C341.963 98.9655 299.504 83.7896 255.998 83.7896C212.493 83.7896 170.034 98.9655 136.467 126.521C106.169 151.38 84.28 185.239 74.0503 222.742C49.7469 226.185 31 247.118 31 272.351C31 297.583 49.7469 318.516 74.0503 321.96C84.28 359.462 106.169 393.322 136.467 418.181C170.034 445.737 212.493 460.912 255.998 460.912C299.504 460.912 341.963 445.737 375.53 418.181C405.828 393.322 427.717 359.462 437.947 321.96C462.25 318.516 480.997 297.583 480.997 272.351C480.997 247.118 462.25 226.185 437.947 222.742Z" fill="#F2CDBE"/>
<path d="M480.999 272.351C480.999 297.583 462.252 318.516 437.949 321.96C427.719 359.462 405.828 393.322 375.532 418.181C341.964 445.737 299.506 460.912 256 460.912V83.7896C299.506 83.7896 341.964 98.9655 375.532 126.521C405.828 151.38 427.719 185.239 437.949 222.742C462.252 226.185 480.999 247.118 480.999 272.351Z" fill="#EFBEAA"/>
<path d="M255.998 301.051C226.367 301.051 202.258 326.007 202.258 356.677V357.263C202.258 366.948 209.872 374.829 219.229 374.829H292.767C302.124 374.829 309.737 366.948 309.737 357.263V356.677C309.737 326.007 285.628 301.051 255.998 301.051Z" fill="#E19480"/>
<path d="M309.74 356.677V357.263C309.74 366.948 302.126 374.829 292.769 374.829H256V301.051C285.631 301.051 309.74 326.007 309.74 356.677Z" fill="#D37F6C"/>
<path d="M275.133 239.547C275.133 237.493 275.597 235.409 276.578 233.448L298.44 189.723C300.618 185.366 304.95 182.499 309.812 182.197C314.673 181.893 319.328 184.201 322.029 188.254L351.179 231.978C355.365 238.256 353.668 246.741 347.389 250.926C341.111 255.113 332.627 253.416 328.442 247.137L312.353 223.004L301.02 245.669C297.646 252.418 289.438 255.154 282.688 251.779C277.901 249.385 275.133 244.559 275.133 239.547Z" fill="#E6947A"/>
<path d="M236.867 239.547C236.868 244.559 234.1 249.385 229.31 251.779C222.562 255.153 214.353 252.418 210.98 245.668L199.646 223.003L183.558 247.137C179.372 253.416 170.889 255.112 164.609 250.926C158.329 246.741 156.634 238.257 160.82 231.978L189.969 188.254C192.672 184.2 197.326 181.892 202.187 182.196C207.048 182.498 211.382 185.365 213.559 189.723L235.421 233.447C236.403 235.408 236.867 237.494 236.867 239.547Z" fill="#EBAD94"/>
</svg>
