<svg id="Capa_1" enable-background="new 0 0 511.977 511.977" height="512" viewBox="0 0 511.977 511.977" width="512" xmlns="http://www.w3.org/2000/svg"><g><path d="m300.977 165.988h-210v300c0 8.284 6.716 15 15 15h195 196c8.284 0 15-6.716 15-15v-300z" fill="#d5e8fe"/><path d="m511.977 465.988v-300h-211v315h196c8.283 0 15-6.716 15-15z" fill="#b5dbff"/><path d="m496.977 60.988h-196-195c-8.284 0-15 6.716-15 15v75l30 30h180 181l30-30v-75c0-8.283-6.717-15-15-15z" fill="#ff7b4a"/><path d="m511.977 150.988v-75c0-8.284-6.716-15-15-15h-196v120h181z" fill="#ff435b"/><g><path d="m195.977 120.988c-8.291 0-15-6.709-15-15v-60c0-8.291 6.709-15 15-15s15 6.709 15 15v60c0 8.291-6.709 15-15 15z" fill="#47568c"/></g><g><path d="m405.977 120.988c-8.291 0-15-6.709-15-15v-60c0-8.291 6.709-15 15-15s15 6.709 15 15v60c0 8.291-6.709 15-15 15z" fill="#29376d"/></g><path d="m300.977 150.988h-210v15c0 155.259-84.789 227.798-85.639 228.501-4.819 4.072-6.592 10.723-4.424 16.641 2.153 5.903 7.764 9.858 14.063 9.858h286 105c3.516 0 6.914-1.23 9.609-3.472 3.882-3.252 96.391-81.46 96.391-251.528v-15z" fill="#edf5ff"/><path d="m415.586 417.517c3.882-3.252 96.391-81.46 96.391-251.528v-15h-211v270h105c3.515-.001 6.914-1.231 9.609-3.472z" fill="#d5e8fe"/><path d="m300.977 30.988c-8.291 0-15 6.709-15 15v60c0 8.291 6.709 15 15 15s15-6.709 15-15v-60c0-8.291-6.709-15-15-15z" fill="#47568c"/><path d="m315.977 105.988v-60c0-8.291-6.709-15-15-15v90c8.291 0 15-6.709 15-15z" fill="#29376d"/></g></svg>