<svg width="512" height="512" viewBox="0 0 512 512" fill="none" xmlns="http://www.w3.org/2000/svg">
<g clip-path="url(#clip0_1310_368)">
<path d="M387.104 400.075H125.679L88.8542 326.425C81.6002 311.916 78.8022 295.585 80.8142 279.49L129.817 73.68C133.14 58.877 143.878 48.439 158.41 48.439H192.064L208.047 54.463H303.948L319.931 48.439H351.898C366.626 48.439 377.117 59.167 380.876 74.02L431.181 281.561C433.03 296.357 430.819 311.377 424.783 325.012L387.104 400.075Z" fill="#8AC9FE"/>
<path d="M343.55 512H168.444C152.188 512 140.42 503.954 133.65 489.874L112.391 440.333H399.61L378.344 489.874C372.191 502.795 359.806 512 343.55 512Z" fill="#8AC9FE"/>
<path d="M183.65 489.874L162.391 440.333H112.391L133.65 489.874C140.419 503.954 152.188 512 168.444 512H218.444C202.188 512 190.42 503.954 183.65 489.874Z" fill="#60B7FF"/>
<path d="M329.113 400.075H182.229L134.252 303.122C129.624 293.866 127.84 283.448 129.123 273.18L149.169 118.947C151.252 105.973 162.447 96.431 175.588 96.431H336.183C348.752 96.431 359.481 105.513 361.558 117.909L382.869 274.502C384.049 283.941 382.638 293.523 378.787 302.221L329.113 400.075Z" fill="#EAF6FF"/>
<path d="M129.124 273.18L149.17 118.947C151.189 106.368 161.775 97.0149 174.393 96.4569L179.816 73.6809C182.005 63.9279 187.413 56.0699 195.003 51.8439C195.863 51.3649 196.75 50.9329 197.664 50.5499L192.062 48.4399H158.408C143.876 48.4399 133.138 58.8779 129.815 73.6809L80.8142 279.49C78.8022 295.586 81.6002 311.917 88.8542 326.425L125.679 400.075H175.679L138.854 326.425C133.495 315.706 130.569 303.993 130.217 292.114C128.711 285.953 128.329 279.538 129.124 273.18Z" fill="#60B7FF"/>
<path d="M130.814 279.49L174.394 96.457C161.775 97.015 151.19 106.368 149.171 118.947L129.124 273.18C128.329 279.538 128.711 285.953 130.216 292.114C130.091 287.914 130.288 283.694 130.814 279.49Z" fill="#D8ECFE"/>
<path d="M208.047 54.463H303.948V96.43H208.047V54.463Z" fill="#FFE07D"/>
<path d="M208.047 54.463H258.047V96.43H208.047V54.463Z" fill="#FFD064"/>
<path d="M249.19 273.251L222.606 300.069L175.984 96.4301H208.147L249.19 273.251Z" fill="#7880B5"/>
<path d="M261.637 273.251L288.221 300.069L336.11 96.4301H303.947L261.637 273.251Z" fill="#7880B5"/>
<path d="M367.884 405.372H140.422V375.161C140.422 353.611 157.892 336.141 179.442 336.141H328.864C350.414 336.141 367.884 353.611 367.884 375.161V405.372Z" fill="#C4E2FF"/>
<path d="M229.442 336.141H179.442C157.892 336.141 140.422 353.611 140.422 375.161V405.372H190.422V375.161C190.423 353.611 207.892 336.141 229.442 336.141Z" fill="#AEDAFC"/>
<path d="M370.258 363.563L351.966 400.075H160.022L141.714 363.55C134.141 348.442 115.715 342.388 100.658 350.061C85.7414 357.662 79.7564 375.879 87.2594 390.846L109.655 435.526C118.406 452.984 136.262 464.008 155.791 464.008H356.216C375.745 464.008 393.601 452.985 402.352 435.526L424.739 390.863C432.246 375.887 426.255 357.66 411.327 350.058C396.262 342.388 377.831 348.448 370.258 363.563Z" fill="#7880B5"/>
<path d="M400.257 363.563C403.076 357.936 407.401 353.564 412.496 350.688C412.112 350.471 411.722 350.261 411.326 350.06C396.261 342.388 377.83 348.448 370.257 363.564L351.965 400.076H381.965L400.257 363.563Z" fill="#67739E"/>
<path d="M139.654 435.527L117.258 390.847C109.955 376.277 115.432 358.629 129.489 350.69C120.898 345.839 110.114 345.243 100.658 350.062C85.7414 357.663 79.7564 375.88 87.2594 390.847L109.655 435.527C118.406 452.985 136.262 464.009 155.791 464.009H185.791C166.261 464.009 148.405 452.986 139.654 435.527Z" fill="#67739E"/>
<path d="M240.016 300.346H271.983V368.109H240.016V300.346Z" fill="#7880B5"/>
<path d="M269.307 304.174H242.687C214.728 304.174 192.062 281.509 192.062 253.55C192.062 246.199 198.022 240.24 205.373 240.24H306.619C313.97 240.24 319.93 246.199 319.93 253.55C319.931 281.509 297.266 304.174 269.307 304.174Z" fill="#FFE07D"/>
<path d="M271.982 279.926H240.015C235.752 279.926 232.297 276.471 232.297 272.208C232.297 267.945 235.752 264.49 240.015 264.49H271.982C276.245 264.49 279.7 267.945 279.7 272.208C279.7 276.471 276.245 279.926 271.982 279.926Z" fill="#7880B5"/>
<path d="M249.469 279.926H240.013C235.75 279.926 232.295 276.471 232.295 272.208C232.295 267.945 235.75 264.489 240.013 264.489H243.248C242.472 260.966 242.062 257.306 242.062 253.551C242.062 246.2 248.022 240.241 255.373 240.241H205.373C198.022 240.241 192.062 246.2 192.062 253.551C192.062 281.51 214.728 304.175 242.687 304.175H269.308C273.332 304.175 277.245 303.705 280.998 302.818C267.687 299.671 256.408 291.27 249.469 279.926Z" fill="#FFD064"/>
<path d="M232.297 272.208C232.297 276.471 235.752 279.926 240.015 279.926H249.471C246.599 275.23 244.47 270.03 243.25 264.489H240.015C235.752 264.489 232.297 267.944 232.297 272.208Z" fill="#67739E"/>
<path d="M287.965 375.827H224.031C219.768 375.827 216.312 372.372 216.312 368.109C216.312 363.846 219.768 360.391 224.031 360.391H287.965C292.228 360.391 295.682 363.846 295.682 368.109C295.683 372.371 292.228 375.827 287.965 375.827Z" fill="#8AC9FE"/>
<path d="M312.93 64.463H199.062C195.197 64.463 192.062 61.329 192.062 57.463V33.109C192.062 14.823 206.886 0 225.172 0H286.822C305.107 0 319.932 14.823 319.932 33.109V57.464C319.931 61.329 316.796 64.463 312.93 64.463Z" fill="#7880B5"/>
<path d="M242.062 57.463V33.109C242.062 14.823 256.885 0 275.171 0H225.172C206.887 0 192.062 14.823 192.062 33.109V57.464C192.062 61.33 195.197 64.464 199.062 64.464H249.062C245.196 64.463 242.062 61.329 242.062 57.463Z" fill="#67739E"/>
</g>
<defs>
<clipPath id="clip0_1310_368">
<rect width="512" height="512" fill="white"/>
</clipPath>
</defs>
</svg>
