<svg width="512" height="512" viewBox="0 0 512 512" fill="none" xmlns="http://www.w3.org/2000/svg">
<mask id="mask0_1216_602" style="mask-type:luminance" maskUnits="userSpaceOnUse" x="30" y="30" width="452" height="452">
<path d="M481.279 30.7197H30.7188V481.28H481.279V30.7197Z" fill="white"/>
</mask>
<g mask="url(#mask0_1216_602)">
<path d="M269.2 69.854V112.098C269.2 119.385 263.285 125.299 255.998 125.299C248.711 125.299 242.797 119.385 242.797 112.098V69.854C242.797 62.5669 248.711 56.6528 255.998 56.6528C263.285 56.6528 269.2 62.5669 269.2 69.854Z" fill="#535E7E"/>
<path d="M269.201 69.854V112.098C269.201 119.385 263.287 125.299 256 125.299V56.6528C263.287 56.6528 269.201 62.5669 269.201 69.854Z" fill="#424765"/>
<path d="M431.783 233.144C421.9 196.911 400.752 164.199 371.48 140.182C339.05 113.559 298.028 98.897 255.996 98.897C213.964 98.897 172.943 113.559 140.513 140.182C111.241 164.199 90.0929 196.911 80.2096 233.144C56.7292 236.47 38.6172 256.695 38.6172 281.073C38.6172 305.451 56.7292 325.675 80.2096 329.002C90.0929 365.235 111.241 397.947 140.513 421.965C172.943 448.587 213.964 463.249 255.996 463.249C298.028 463.249 339.05 448.587 371.48 421.965C400.752 397.947 421.9 365.235 431.783 329.002C455.263 325.675 473.375 305.451 473.375 281.073C473.375 256.695 455.263 236.47 431.783 233.144Z" fill="#F2CDBE"/>
<path d="M473.379 281.073C473.379 305.451 455.267 325.675 431.787 329.002C421.904 365.235 400.755 397.947 371.484 421.965C339.053 448.587 298.032 463.249 256 463.249V98.897C298.032 98.897 339.053 113.559 371.484 140.182C400.755 164.199 421.904 196.911 431.787 233.144C455.267 236.47 473.379 256.695 473.379 281.073Z" fill="#EFBEAA"/>
<path d="M255.999 288.993C209.9 288.993 172.391 326.502 172.391 372.601V373.481C172.391 388.037 184.236 399.883 198.793 399.883H313.203C327.76 399.883 339.606 388.037 339.606 373.481V372.601C339.606 326.502 302.096 288.993 255.999 288.993Z" fill="#E19480"/>
<path d="M339.607 372.601V373.481C339.607 388.037 327.761 399.883 313.205 399.883H256V288.993C302.099 288.993 339.607 326.502 339.607 372.601Z" fill="#D37F6C"/>
<path d="M269.2 358.519V399.883H242.797V358.519C242.797 351.233 248.711 345.318 255.998 345.318C263.285 345.318 269.2 351.233 269.2 358.519Z" fill="#CF5C8F"/>
<path d="M269.201 358.519V399.883H256V345.318C263.287 345.318 269.201 351.233 269.201 358.519Z" fill="#C74179"/>
<path d="M333.435 266.114C331.45 266.114 329.436 265.664 327.542 264.717L285.298 243.595C281.089 241.491 278.318 237.305 278.026 232.608C277.733 227.912 279.963 223.415 283.879 220.805L326.122 192.642C332.188 188.598 340.384 190.238 344.429 196.304C348.473 202.369 346.834 210.566 340.767 214.609L317.451 230.154L339.348 241.103C345.87 244.362 348.513 252.293 345.252 258.813C342.94 263.439 338.277 266.114 333.435 266.114Z" fill="#E6947A"/>
<path d="M178.558 266.114C173.715 266.115 169.054 263.44 166.741 258.813C163.48 252.293 166.122 244.363 172.644 241.103L194.541 230.153L171.225 214.61C165.158 210.566 163.519 202.37 167.565 196.303C171.608 190.236 179.804 188.598 185.87 192.643L228.115 220.805C232.03 223.415 234.26 227.912 233.967 232.609C233.675 237.305 230.905 241.492 226.695 243.595L184.451 264.717C182.556 265.666 180.542 266.114 178.558 266.114Z" fill="#EBAD94"/>
<path d="M432.034 428.046C424.743 428.046 418.828 422.135 418.828 414.844C418.828 407.554 424.735 401.644 432.025 401.644H432.034C439.325 401.644 445.235 407.554 445.235 414.844C445.235 422.135 439.325 428.046 432.034 428.046Z" fill="#8BC8DE"/>
<path d="M453.151 195.705C445.861 195.705 439.945 189.795 439.945 182.504C439.945 175.213 445.852 169.302 453.143 169.302H453.151C460.442 169.302 466.352 175.213 466.352 182.504C466.352 189.795 460.442 195.705 453.151 195.705Z" fill="#8BC8DE"/>
<path d="M403.856 139.38C400.368 139.38 397.007 137.998 394.523 135.513C391.805 132.795 390.406 129.026 390.693 125.192C391.558 113.631 395.451 74.8422 409.188 61.1043C425.661 44.6336 452.461 44.6345 468.931 61.1034L468.932 61.1043C485.402 77.5758 485.402 104.375 468.932 120.846C455.194 134.584 416.404 138.477 404.844 139.343C404.514 139.368 404.185 139.38 403.856 139.38Z" fill="#8BC8DE"/>
<path d="M87.0415 428.046C79.7509 428.046 73.8359 422.135 73.8359 414.844C73.8359 407.554 79.7421 401.644 87.0327 401.644H87.0415C94.3329 401.644 100.243 407.554 100.243 414.844C100.243 422.135 94.3329 428.046 87.0415 428.046Z" fill="#9EDEE2"/>
<path d="M58.8774 195.705C51.5869 195.705 45.6719 189.795 45.6719 182.504C45.6719 175.213 51.5781 169.302 58.8686 169.302H58.8774C66.1688 169.302 72.0786 175.213 72.0786 182.504C72.0786 189.795 66.1688 195.705 58.8774 195.705Z" fill="#9EDEE2"/>
<path d="M108.147 139.38C107.819 139.38 107.49 139.368 107.161 139.343C95.5991 138.478 56.8107 134.585 43.0726 120.847C26.6011 104.376 26.6011 77.5768 43.0709 61.1052C59.5432 44.6346 86.3434 44.6354 102.814 61.1043L102.815 61.1052C116.551 74.8432 120.444 113.633 121.31 125.193C121.597 129.026 120.199 132.796 117.48 135.514C114.996 137.998 111.634 139.38 108.147 139.38Z" fill="#9EDEE2"/>
</g>
</svg>
