<svg width="512" height="512" viewBox="0 0 512 512" fill="none" xmlns="http://www.w3.org/2000/svg">
<path d="M45 126.063V281.968C45 378.023 122.868 455.891 218.923 455.891H293.077C389.132 455.89 467 378.022 467 281.968V126.063H45Z" fill="#EDEDED"/>
<path d="M467.004 125.989C467.004 139.178 372.491 149.869 256.004 149.869C139.517 149.869 45.0078 139.255 45.0078 126.067C45.0078 112.878 139.517 102.108 256.004 102.108C372.491 102.108 467.004 112.8 467.004 125.989Z" fill="#EDEDED"/>
<path d="M256 149.87C139.513 149.87 45.0041 139.256 45.0041 126.067C45.0041 126.065 45.0049 126.064 45.0049 126.062H45V268.812C182.141 268.812 181.941 429.345 171.083 449.225C186.283 453.565 202.331 455.891 218.923 455.891H293.077C309.669 455.891 325.717 453.565 340.917 449.225C330.059 429.344 329.859 268.812 467 268.812V126.063H466.992C466.641 139.218 372.271 149.87 256 149.87Z" fill="#FAF9F3"/>
<path d="M466.997 126.062C466.854 131.431 451.045 136.383 424.484 140.364V243.566C288.742 243.566 288.298 431.913 298.851 455.786C298.865 455.785 298.879 455.785 298.892 455.784C299.359 455.769 299.826 455.751 300.292 455.732C314.476 455.138 328.22 452.848 341.33 449.056C330.089 432.505 328.164 268.812 467.005 268.812V126.062H466.997Z" fill="#E8E8E8"/>
<path d="M359.633 210.745C359.633 192.804 372.974 177.61 390.78 175.418C396.145 174.758 401.33 174.025 406.313 173.213C432.688 168.916 454.31 163.313 467 159.655V233.35C455.56 234.038 430.944 237.214 405.388 244.872C382.575 251.707 359.633 234.56 359.633 210.745Z" fill="#73E7E6"/>
<path d="M424.484 239.872C442.604 235.762 458.471 233.863 467.005 233.35V159.655C457.371 162.432 442.585 166.33 424.484 169.926V239.872Z" fill="#65D1CB"/>
<path d="M152.368 210.745C152.368 192.804 139.027 177.61 121.22 175.418C115.856 174.758 110.67 174.025 105.687 173.213C79.3122 168.916 57.6905 163.313 45 159.655V233.35C56.4402 234.038 81.0563 237.214 106.613 244.872C129.426 251.707 152.368 234.56 152.368 210.745Z" fill="#73E7E6"/>
<path d="M112.885 223.48C120.687 223.48 127.012 217.156 127.012 209.353C127.012 201.551 120.687 195.226 112.885 195.226C105.083 195.226 98.7578 201.551 98.7578 209.353C98.7578 217.156 105.083 223.48 112.885 223.48Z" fill="#FAF9F3"/>
<path d="M399.104 223.48C406.907 223.48 413.231 217.156 413.231 209.353C413.231 201.551 406.907 195.226 399.104 195.226C391.302 195.226 384.977 201.551 384.977 209.353C384.977 217.156 391.302 223.48 399.104 223.48Z" fill="#FAF9F3"/>
<path d="M171.086 449.222C180.052 432.788 181.743 320.437 104.802 281.817C88.4668 273.674 68.7408 268.812 45 268.812V281.969C45 283.637 45.0288 285.298 45.0758 286.955C156.055 287.776 174.082 398.308 167.836 448.259C168.915 448.591 169.998 448.911 171.086 449.222Z" fill="#DDDCDB"/>
<path d="M340.916 449.222C342.004 448.911 343.087 448.591 344.165 448.26C337.92 398.309 355.946 287.777 466.925 286.956C466.972 285.299 467.001 283.637 467.001 281.97V268.813C443.261 268.813 423.534 273.675 407.199 281.818C330.259 320.438 331.95 432.788 340.916 449.222Z" fill="#DDDCDB"/>
</svg>
