<svg width="512" height="512" viewBox="0 0 512 512" fill="none" xmlns="http://www.w3.org/2000/svg">
<mask id="mask0_1216_635" style="mask-type:luminance" maskUnits="userSpaceOnUse" x="53" y="53" width="406" height="406">
<path d="M459 53H53V459H459V53Z" fill="white"/>
</mask>
<g mask="url(#mask0_1216_635)">
<path d="M256 53C368.107 53 459 143.893 459 256C459 368.094 368.107 459 256 459C143.893 459 53 368.106 53 256C53 143.894 143.88 53 256 53Z" fill="#EBEBEB"/>
<path d="M167.177 217.975H218.118V167.175C218.118 160.172 223.79 154.486 230.793 154.486H281.491C288.482 154.486 294.152 160.17 294.152 167.175V217.963H344.826C351.843 217.963 357.514 223.635 357.514 230.65V281.413C357.514 288.442 351.843 294.125 344.826 294.125H294.152V344.773C294.152 351.789 288.48 357.46 281.491 357.46H230.793C223.79 357.46 218.118 351.789 218.118 344.773V294.125H167.177C160.161 294.125 154.477 288.442 154.477 281.413V230.65C154.477 223.646 160.161 217.975 167.177 217.975Z" fill="#E2574C"/>
</g>
</svg>
