<svg width="430" height="429" viewBox="0 0 430 429" fill="none" xmlns="http://www.w3.org/2000/svg">
<g clip-path="url(#clip0_2372_90975)">
<path d="M364.518 6.50036C364.517 2.91083 361.607 0 358.018 0H71.9905C68.4001 0 65.4893 2.91083 65.4893 6.50119V158.11V231.96L91.494 250.422L178.345 312.056H178.471L215.015 286.052L251.66 312.056L338.512 250.422L364.517 231.96V158.11L364.518 6.50036Z" fill="#E6E9ED"/>
<path d="M13.4766 195.036L65.4861 231.962V149.443C65.4861 149.443 13.4766 179.685 13.4766 195.036Z" fill="#F6BB42"/>
<path d="M332.012 26.0059H97.9963C94.4059 26.0059 91.4951 28.9167 91.4951 32.5071V250.423L178.346 312.057H178.472L215.016 286.053L251.661 312.057L338.513 250.423V32.5071C338.514 28.9167 335.603 26.0059 332.012 26.0059Z" fill="#F5F7FA"/>
<path d="M273.496 214.537H156.501C152.895 214.537 150 217.433 150 221.039C150 224.621 152.895 227.541 156.501 227.541H273.498C277.104 227.541 279.999 224.621 279.999 221.039C279.997 217.434 277.102 214.537 273.496 214.537Z" fill="#656D78"/>
<path d="M247.52 240.542H182.507C178.901 240.542 176.006 243.437 176.006 247.044C176.006 250.625 178.901 253.545 182.507 253.545H247.52C251.101 253.545 254.021 250.625 254.021 247.044C254.021 243.437 251.099 240.542 247.52 240.542Z" fill="#656D78"/>
<path d="M364.514 232.008L338.509 250.47L251.684 312.103H178.468H178.342L91.4909 250.47L65.4861 232.008L13.4766 195.082V403.12C13.4766 410.941 17.0066 417.874 22.4663 422.624H22.4412C22.4663 422.649 22.4923 422.649 22.5174 422.675C26.7588 426.332 32.0911 428.719 38.0343 428.998H392.221C395.217 428.872 397.935 428.084 400.55 427.043H400.678C410.023 423.158 416.524 413.913 416.524 403.12V195.083L364.514 232.008Z" fill="#FFCE54"/>
<path d="M414.899 411.786L262.96 304.034L251.685 312.059H178.469H178.343L167.067 304.059L15.1533 411.735C16.6774 415.95 19.1408 419.684 22.4673 422.553L22.4421 422.578C22.4673 422.578 22.4932 422.603 22.5184 422.629C26.7598 426.287 32.0921 428.674 38.0353 428.953H392.221C395.217 428.825 397.935 428.039 400.55 426.997H400.678C407.357 424.204 412.462 418.643 414.899 411.786Z" fill="#F6BB42"/>
<path d="M390.522 213.549V403.125C390.522 413.918 384.021 423.161 374.676 427.047H374.548C371.933 428.088 369.216 428.876 366.219 429.003H392.223C395.219 428.876 397.937 428.089 400.552 427.047H400.68C410.025 423.162 416.526 413.918 416.526 403.125V195.087L390.522 213.549Z" fill="#F6BB42"/>
<path d="M358.009 0H338.505V250.421L364.51 231.959V158.11V6.50119C364.509 2.91167 361.599 0 358.009 0Z" fill="#DADDE1"/>
<path d="M39.4824 213.498L65.4864 231.962V149.443C65.4864 149.443 52.484 157.003 39.4824 166.483V213.498Z" fill="#DCA746"/>
<path d="M416.519 195.141L364.511 232.067V149.548C364.511 149.548 416.519 179.79 416.519 195.141Z" fill="#F6BB42"/>
<path d="M390.515 213.603L364.511 232.067V149.548C364.511 149.548 377.513 157.108 390.515 166.587V213.603Z" fill="#DCA746"/>
<path d="M251.66 312.053L219.875 289.735C218.685 288.384 216.944 287.527 215.001 287.527C213.058 287.527 211.32 288.385 210.128 289.735H210.121L178.471 312.053H178.345L22.4424 422.574C26.6075 426.205 32.0672 428.542 38.0355 428.948H392.222C395.218 428.821 397.936 428.034 400.551 426.993H400.679C403.142 425.824 405.478 424.378 407.56 422.574L251.66 312.053Z" fill="#FFCE54"/>
<path d="M263.493 88.2754C250.109 74.8926 228.397 74.8926 215.013 88.2754C201.605 74.8926 179.892 74.8926 166.509 88.2754C153.1 101.672 153.1 123.399 166.509 136.781L210.532 180.705H210.54C211.705 181.806 213.271 182.485 215.001 182.485C216.718 182.485 218.274 181.814 219.437 180.727H219.455L263.494 136.782C276.902 123.397 276.902 101.672 263.493 88.2754Z" fill="#ED5565"/>
<path d="M263.495 88.2739C253.429 78.2083 238.653 75.7156 226.251 80.7907C230.339 82.4639 234.169 84.9567 237.487 88.2739C250.896 101.67 250.896 123.397 237.487 136.779L202.002 172.191L210.534 180.703H210.542C211.706 181.804 213.273 182.484 215.003 182.484C216.72 182.484 218.276 181.813 219.439 180.726H219.457L263.496 136.78C276.904 123.396 276.904 101.67 263.495 88.2739Z" fill="#DA4453"/>
</g>
<defs>
<clipPath id="clip0_2372_90975">
<rect width="429" height="429" fill="white" transform="translate(0.5)"/>
</clipPath>
</defs>
</svg>
