<svg width="512" height="512" viewBox="0 0 512 512" fill="none" xmlns="http://www.w3.org/2000/svg">
<mask id="mask0_1216_642" style="mask-type:luminance" maskUnits="userSpaceOnUse" x="57" y="57" width="398" height="398">
<path d="M455 57H57V455H455V57Z" fill="white"/>
</mask>
<g mask="url(#mask0_1216_642)">
<path d="M436.154 308.367C411.029 333.492 370.292 333.492 345.167 308.367L280.32 242.805L291.759 163.256L371.308 151.818L436.154 217.38C461.28 242.505 461.28 283.241 436.154 308.367Z" fill="#D4CFC2"/>
<path d="M280.322 242.806L203.633 166.832C178.508 141.707 178.508 100.97 203.633 75.845C228.758 50.7196 269.495 50.7196 294.62 75.845L371.309 151.818L280.322 242.806Z" fill="#F05467"/>
<path d="M329.409 193.721L252.72 117.747C252.281 117.308 251.837 116.877 251.388 116.453C223.575 90.1742 260.605 47.2352 290.05 71.6741C291.615 72.9739 293.142 74.363 294.623 75.8446L371.311 151.819L329.409 193.721Z" fill="#BD445A"/>
<path d="M436.163 217.38C461.288 242.505 461.288 283.242 436.163 308.367C428.605 315.925 419.629 321.193 410.096 324.203C417.095 302.044 411.828 276.849 394.261 259.283L329.414 193.721L371.316 151.818L436.163 217.38Z" fill="#B2AEA6"/>
<path d="M75.844 436.156C50.7187 411.031 50.7187 370.294 75.844 345.169L141.406 280.322L220.955 291.761L232.394 371.31L166.831 436.156C141.706 461.281 100.97 461.281 75.844 436.156Z" fill="#F1EBDE"/>
<path d="M141.406 280.321L217.38 203.633C242.505 178.507 283.242 178.507 308.367 203.633C333.493 228.758 333.493 269.495 308.367 294.62L232.394 371.309L141.406 280.321Z" fill="#FF6473"/>
<path d="M190.492 329.406L266.466 252.717C284.033 235.15 289.301 209.955 282.302 187.796C291.835 190.807 300.811 196.074 308.369 203.633C333.494 228.759 333.494 269.495 308.369 294.621L232.394 371.309L190.492 329.406Z" fill="#F05467"/>
<path d="M166.831 436.156C141.706 461.282 100.969 461.282 75.8439 436.156C68.2858 428.598 63.0185 419.623 60.0078 410.091C82.1668 417.089 107.362 411.822 124.928 394.255L190.49 329.408L232.393 371.31L166.831 436.156Z" fill="#D4CFC2"/>
</g>
</svg>
