<svg width="512" height="512" viewBox="0 0 512 512" fill="none" xmlns="http://www.w3.org/2000/svg">
<path d="M305.321 206.679L263.268 164.625L229.625 198.268L271.679 240.321L313.732 282.375L347.375 248.733L305.321 206.679Z" fill="#DFE7F4"/>
<path d="M271.633 240.33L305.271 206.692L347.318 248.739L313.68 282.377L271.633 240.33Z" fill="#C7CFE1"/>
<path d="M280.089 231.911L221.214 173.037L170.75 223.5V257.144L137.107 290.786H103.465L53 341.251L111.875 400.125L170.75 459L338.964 290.786L280.089 231.911Z" fill="#F0F7FF"/>
<path d="M111.844 400.104L280.032 231.916L338.898 290.782L170.71 458.971L111.844 400.104Z" fill="#DFE7F4"/>
<path d="M360.141 197.808L459.003 85.4768L442.765 69.2384L426.526 53L314.194 151.862C300.108 164.059 278.761 163.295 265.586 150.12L280.091 181.447L305.323 206.679L330.555 231.911L361.882 246.416C348.708 233.242 347.944 211.894 360.141 197.808Z" fill="#A8EBFA"/>
<path d="M361.879 246.416C348.704 233.242 347.94 211.894 360.137 197.808L458.999 85.4767L442.761 69.2383L305.32 206.679L330.553 231.911L361.879 246.416Z" fill="#7CC8F0"/>
<path d="M229.629 282.375L170.754 223.5L103.469 290.786L162.344 349.661L170.754 358.072L238.04 290.786L229.629 282.375Z" fill="#A8EBFA"/>
<path d="M162.297 349.643L229.572 282.368L237.982 290.777L170.706 358.052L162.297 349.643Z" fill="#7CC8F0"/>
<path d="M313.729 198.268L238.032 122.572L221.211 139.393L296.907 215.09L372.604 290.786L389.425 273.965L313.729 198.268Z" fill="#7CC8F0"/>
<path d="M296.867 215.105L313.686 198.286L389.371 273.971L372.552 290.79L296.867 215.105Z" fill="#3AAAFF"/>
</svg>
