<svg width="512" height="512" viewBox="0 0 512 512" fill="none" xmlns="http://www.w3.org/2000/svg">
<mask id="mask0_2117_93434" style="mask-type:luminance" maskUnits="userSpaceOnUse" x="1" y="68" width="511" height="376">
<path d="M512 68.2158H1V443.784H512V68.2158Z" fill="white"/>
</mask>
<g mask="url(#mask0_2117_93434)">
<path d="M478.396 199.805L495.386 192.377C496.788 191.757 496.788 189.755 495.386 189.136L478.396 181.705C477.996 181.525 477.668 181.196 477.486 180.796L470.057 163.806C469.437 162.404 467.434 162.404 466.815 163.806L459.386 180.796C459.204 181.196 458.876 181.525 458.474 181.705L441.486 189.136C440.084 189.755 440.084 191.757 441.486 192.377L458.474 199.805C458.876 199.987 459.204 200.316 459.386 200.717L466.815 217.706C467.434 219.108 469.437 219.108 470.057 217.706L477.486 200.717C477.65 200.298 477.978 199.987 478.396 199.805Z" fill="#DAB600"/>
<path d="M396.323 119.432C399.238 119.432 401.603 117.066 401.603 114.15C401.603 111.233 399.238 108.869 396.323 108.869C393.406 108.869 391.041 111.233 391.041 114.15C391.041 117.066 393.406 119.432 396.323 119.432Z" fill="#C7A600"/>
<path d="M95.4765 91.1878L105.837 86.6534C106.693 86.2716 106.693 85.0511 105.837 84.6869L95.4765 80.1526C95.2216 80.0433 95.0207 79.8436 94.9303 79.6063L90.3959 69.2453C90.0129 68.3896 88.7936 68.3896 88.4294 69.2453L83.895 79.6063C83.7858 79.8612 83.5849 80.0621 83.3488 80.1526L72.9878 84.6869C72.1317 85.0687 72.1317 86.2892 72.9878 86.6534L83.3488 91.1878C83.6037 91.297 83.8034 91.4968 83.895 91.734L88.4294 102.095C88.8112 102.951 90.0317 102.951 90.3959 102.095L94.9303 91.7517C95.0395 91.4968 95.2392 91.297 95.4765 91.1878Z" fill="#DAB600"/>
<path d="M48.2561 176.281C55.7283 176.281 61.7857 170.223 61.7857 162.75C61.7857 155.278 55.7283 149.221 48.2561 149.221C40.7839 149.221 34.7266 155.278 34.7266 162.75C34.7266 170.223 40.7839 176.281 48.2561 176.281Z" fill="#C7A600"/>
<path d="M319.197 142.902H264.204C238.966 142.902 218.08 123.237 216.569 98.0355C216.041 89.3133 207.191 83.5772 198.924 86.3988C128.29 110.49 136.921 195.582 136.921 195.582C136.921 224.681 160.502 248.262 189.601 248.262H322.219C353.102 248.262 377.776 221.676 374.626 190.156C371.859 162.715 346.747 142.902 319.197 142.902Z" fill="#DAB600"/>
<path d="M374.658 190.082C377.754 221.584 353.171 248.17 322.215 248.17H285.797C316.753 248.17 341.335 221.584 338.239 190.082C335.508 162.767 310.379 142.919 282.701 142.919H319.12C346.798 142.919 371.926 162.767 374.658 190.082Z" fill="#C7A600"/>
<path d="M385.616 351.672H126.242C90.6437 351.672 61.7812 322.811 61.7812 287.212C61.7812 251.613 90.6437 222.751 126.242 222.751H385.598C421.198 222.751 450.059 251.613 450.059 287.212C450.059 322.811 421.216 351.672 385.616 351.672Z" fill="#DAB600"/>
<path d="M450.039 287.139C450.039 304.984 442.756 321.189 431.101 332.843C419.448 344.498 403.423 351.599 385.578 351.599H343.879C361.542 351.599 377.748 344.498 389.401 332.843C401.056 321.189 408.34 304.984 408.34 287.139C408.34 251.631 379.387 222.678 343.879 222.678H385.578C421.269 222.678 450.039 251.631 450.039 287.139Z" fill="#C7A600"/>
<path d="M198.84 115.608C196.71 112.475 192.467 111.656 189.353 113.787C178.883 120.888 170.779 130.923 165.262 143.613C163.751 147.074 165.335 151.097 168.795 152.591C169.669 152.973 170.597 153.155 171.508 153.155C174.147 153.155 176.661 151.626 177.771 149.04C182.25 138.771 188.716 130.703 197.001 125.095C200.151 122.964 200.952 118.721 198.84 115.608Z" fill="#FFD70F"/>
<path d="M165.764 164.353C161.958 163.808 158.589 166.466 158.098 170.217C157.552 174.223 157.278 177.938 157.134 181.142C156.969 184.912 159.882 188.098 163.652 188.262H163.961C167.585 188.262 170.609 185.404 170.772 181.743C170.899 178.884 171.155 175.589 171.627 172.02C172.119 168.287 169.497 164.845 165.764 164.353Z" fill="#FFD70F"/>
<path d="M126.246 243.236C109.729 243.236 94.7432 252.378 87.1499 267.11C85.4196 270.459 86.7305 274.575 90.082 276.305C91.0828 276.833 92.1577 277.069 93.195 277.069C95.6713 277.069 98.0571 275.723 99.2588 273.374C104.522 263.212 114.846 256.894 126.227 256.894C129.996 256.894 133.055 253.835 133.055 250.066C133.055 246.295 130.015 243.236 126.246 243.236Z" fill="#FFD70F"/>
<path d="M452.246 443.412H59.6159C27.2397 443.412 1 417.154 1 384.796C1 352.419 27.2397 326.18 59.6159 326.18H452.264C484.64 326.18 510.881 352.419 510.881 384.796C510.862 417.154 484.622 443.412 452.246 443.412Z" fill="#DAB600"/>
<path d="M510.861 384.741C510.861 400.946 504.306 415.514 493.744 426.258C483.184 436.819 468.434 443.375 452.228 443.375H378.661C394.867 443.375 409.617 436.819 420.178 426.258C430.741 415.514 437.296 400.946 437.296 384.741C437.296 352.509 411.074 326.105 378.661 326.105H452.228C484.64 326.105 510.861 352.509 510.861 384.741Z" fill="#C7A600"/>
</g>
</svg>
