<svg width="512" height="512" viewBox="0 0 512 512" fill="none" xmlns="http://www.w3.org/2000/svg">
<mask id="mask0_1216_696" style="mask-type:luminance" maskUnits="userSpaceOnUse" x="39" y="96" width="435" height="320">
<path d="M474 96.1445H39V415.855H474V96.1445Z" fill="white"/>
</mask>
<g mask="url(#mask0_1216_696)">
<path d="M445.394 208.163L459.857 201.839C461.05 201.312 461.05 199.607 459.857 199.08L445.394 192.755C445.053 192.601 444.774 192.321 444.619 191.981L438.295 177.518C437.767 176.324 436.062 176.324 435.535 177.518L429.211 191.981C429.056 192.321 428.777 192.601 428.435 192.755L413.973 199.08C412.78 199.607 412.78 201.312 413.973 201.839L428.435 208.163C428.777 208.318 429.056 208.598 429.211 208.939L435.535 223.401C436.062 224.595 437.767 224.595 438.295 223.401L444.619 208.939C444.759 208.582 445.038 208.318 445.394 208.163Z" fill="#A55E55"/>
<path d="M375.527 139.743C378.009 139.743 380.022 137.729 380.022 135.247C380.022 132.764 378.009 130.751 375.527 130.751C373.044 130.751 371.031 132.764 371.031 135.247C371.031 137.729 373.044 139.743 375.527 139.743Z" fill="#934D48"/>
<path d="M119.425 115.7L128.245 111.84C128.973 111.515 128.973 110.476 128.245 110.166L119.425 106.306C119.208 106.213 119.037 106.043 118.96 105.841L115.1 97.021C114.774 96.2925 113.736 96.2925 113.426 97.021L109.566 105.841C109.473 106.058 109.302 106.229 109.101 106.306L100.281 110.166C99.5522 110.491 99.5522 111.53 100.281 111.84L109.101 115.7C109.318 115.793 109.488 115.963 109.566 116.165L113.426 124.985C113.751 125.714 114.79 125.714 115.1 124.985L118.96 116.18C119.053 115.963 119.223 115.793 119.425 115.7Z" fill="#A55E55"/>
<path d="M79.2282 188.137C85.5891 188.137 90.7456 182.98 90.7456 176.619C90.7456 170.258 85.5891 165.102 79.2282 165.102C72.8673 165.102 67.7109 170.258 67.7109 176.619C67.7109 182.98 72.8673 188.137 79.2282 188.137Z" fill="#934D48"/>
<path d="M309.872 159.723H263.058C241.573 159.723 223.794 142.982 222.507 121.529C222.058 114.104 214.524 109.221 207.487 111.623C147.358 132.131 154.705 204.568 154.705 204.568C154.705 229.339 174.779 249.413 199.55 249.413H312.444C338.734 249.413 359.738 226.781 357.057 199.949C354.701 176.589 333.324 159.723 309.872 159.723Z" fill="#A55E55"/>
<path d="M357.085 199.886C359.721 226.703 338.794 249.335 312.442 249.335H281.44C307.792 249.335 328.718 226.703 326.083 199.886C323.758 176.634 302.366 159.738 278.805 159.738H309.807C333.369 159.738 354.76 176.634 357.085 199.886Z" fill="#934D48"/>
<path d="M366.414 337.443H145.616C115.312 337.443 90.7422 312.874 90.7422 282.57C90.7422 252.265 115.312 227.696 145.616 227.696H366.398C396.704 227.696 421.272 252.265 421.272 282.57C421.272 312.874 396.719 337.443 366.414 337.443Z" fill="#A55E55"/>
<path d="M421.254 282.508C421.254 297.699 415.054 311.494 405.133 321.415C395.213 331.336 381.571 337.381 366.38 337.381H330.883C345.919 337.381 359.715 331.336 369.635 321.415C379.556 311.494 385.757 297.699 385.757 282.508C385.757 252.281 361.11 227.634 330.883 227.634H366.38C396.763 227.634 421.254 252.281 421.254 282.508Z" fill="#934D48"/>
<path d="M207.415 136.488C205.602 133.821 201.99 133.124 199.339 134.938C190.426 140.983 183.528 149.525 178.831 160.328C177.545 163.274 178.893 166.699 181.839 167.971C182.583 168.296 183.373 168.451 184.148 168.451C186.395 168.451 188.535 167.149 189.48 164.948C193.293 156.206 198.797 149.338 205.85 144.564C208.531 142.75 209.213 139.138 207.415 136.488Z" fill="#C1827E"/>
<path d="M179.259 177.983C176.019 177.519 173.151 179.782 172.733 182.975C172.268 186.385 172.035 189.548 171.912 192.275C171.772 195.485 174.252 198.197 177.461 198.336H177.724C180.809 198.336 183.383 195.903 183.522 192.787C183.63 190.353 183.848 187.548 184.25 184.51C184.669 181.332 182.437 178.402 179.259 177.983Z" fill="#C1827E"/>
<path d="M145.618 245.135C131.558 245.135 118.801 252.917 112.337 265.458C110.864 268.309 111.98 271.813 114.833 273.285C115.685 273.735 116.6 273.936 117.483 273.936C119.591 273.936 121.622 272.79 122.645 270.79C127.125 262.14 135.914 256.761 145.602 256.761C148.811 256.761 151.415 254.157 151.415 250.949C151.415 247.739 148.827 245.135 145.618 245.135Z" fill="#C1827E"/>
<path d="M423.133 415.539H88.8981C61.3371 415.539 39 393.186 39 365.64C39 338.079 61.3371 315.742 88.8981 315.742H423.148C450.709 315.742 473.047 338.079 473.047 365.64C473.031 393.186 450.694 415.539 423.133 415.539Z" fill="#A55E55"/>
<path d="M473.03 365.594C473.03 379.389 467.45 391.79 458.459 400.936C449.469 409.926 436.913 415.507 423.117 415.507H360.492C374.288 415.507 386.844 409.926 395.834 400.936C404.826 391.79 410.406 379.389 410.406 365.594C410.406 338.156 388.084 315.679 360.492 315.679H423.117C450.709 315.679 473.03 338.156 473.03 365.594Z" fill="#934D48"/>
</g>
</svg>
