<svg width="32" height="32" viewBox="0 0 32 32" fill="none" xmlns="http://www.w3.org/2000/svg">
<path d="M26.1072 19.2616H25.9441C26.2028 18.7506 26.3453 18.1806 26.3453 17.6031C26.3453 15.5791 24.6991 13.9328 22.675 13.9328H22.2831C22.4397 13.51 22.5062 13.0497 22.4622 12.5716C22.3084 11.0322 20.8994 9.82656 19.2531 9.82656H16.4219C15.3109 9.82656 14.3903 8.95937 14.3256 7.85406C14.2984 7.31875 13.8334 6.88281 13.2906 6.88281C13.165 6.88281 13.0516 6.9025 12.9531 6.93906C9.09531 8.25062 9.51531 12.8763 9.51719 12.8875C9.51719 13.2513 9.58656 13.6028 9.70844 13.9328H9.325C8.34813 13.9328 7.42844 14.3153 6.73281 15.0109C6.0475 15.6963 5.65469 16.6412 5.65469 17.6031C5.65469 18.1806 5.79719 18.7506 6.05594 19.2616H5.89281C4.03562 19.2616 2.52344 20.7728 2.52344 22.6309C2.52344 24.4891 4.03469 26.0003 5.89281 26.0003H26.1081C27.9653 26.0003 29.4775 24.4891 29.4775 22.6309C29.4775 20.7728 27.9653 19.2616 26.1072 19.2616ZM10.2184 12.8528C10.2016 12.685 9.85375 8.73531 13.1884 7.60094C13.3206 7.55125 13.6122 7.65812 13.6234 7.89156C13.7097 9.37094 14.9388 10.5287 16.4219 10.5287H19.2531C20.5422 10.5287 21.6437 11.4559 21.7619 12.6372C21.8041 13.1031 21.7141 13.5447 21.5144 13.9319H10.4875C10.3234 13.6141 10.2203 13.2578 10.2184 12.8528ZM6.35781 17.6031C6.35781 16.8259 6.67562 16.0628 7.22969 15.5078C7.79219 14.9453 8.53656 14.6359 9.325 14.6359H22.675C24.3109 14.6359 25.6422 15.9672 25.6422 17.6031C25.6422 18.1956 25.4547 18.775 25.1247 19.2616H6.87531C6.54531 18.775 6.35781 18.1956 6.35781 17.6031ZM26.1072 25.2972H5.89281C4.42281 25.2972 3.22656 24.1009 3.22656 22.6309C3.22656 21.1609 4.42281 19.9647 5.89281 19.9647H26.1081C27.5781 19.9647 28.7744 21.1609 28.7744 22.6309C28.7744 24.1009 27.5772 25.2972 26.1072 25.2972Z" fill="white"/>
</svg>
