<svg width="32" height="32" viewBox="0 0 32 32" fill="none" xmlns="http://www.w3.org/2000/svg">
<mask id="mask0_2070_16588" style="mask-type:luminance" maskUnits="userSpaceOnUse" x="2" y="6" width="28" height="21">
<path d="M29.625 6.36499H2.4375V26.3469H29.625V6.36499Z" fill="white"/>
</mask>
<g mask="url(#mask0_2070_16588)">
<path d="M27.8371 13.3663L28.7411 12.9711C28.8156 12.9381 28.8156 12.8316 28.7411 12.7986L27.8371 12.4033C27.8158 12.3937 27.7984 12.3762 27.7887 12.3549L27.3934 11.451C27.3604 11.3764 27.2539 11.3764 27.2209 11.451L26.8257 12.3549C26.816 12.3762 26.7986 12.3937 26.7772 12.4033L25.8733 12.7986C25.7987 12.8316 25.7987 12.9381 25.8733 12.9711L26.7772 13.3663C26.7986 13.376 26.816 13.3935 26.8257 13.4148L27.2209 14.3187C27.2539 14.3933 27.3604 14.3933 27.3934 14.3187L27.7887 13.4148C27.7974 13.3925 27.8149 13.376 27.8371 13.3663Z" fill="white"/>
<path d="M23.4705 9.09008C23.6256 9.09008 23.7514 8.9642 23.7514 8.80908C23.7514 8.65389 23.6256 8.52808 23.4705 8.52808C23.3153 8.52808 23.1895 8.65389 23.1895 8.80908C23.1895 8.9642 23.3153 9.09008 23.4705 9.09008Z" fill="white"/>
<path d="M7.46406 7.58733L8.01531 7.34608C8.06081 7.32577 8.06081 7.26083 8.01531 7.24145L7.46406 7.0002C7.4505 6.99439 7.43981 6.98377 7.435 6.97114L7.19375 6.41989C7.17337 6.37436 7.1085 6.37436 7.08912 6.41989L6.84787 6.97114C6.84206 6.9847 6.83137 6.99539 6.81881 7.0002L6.26756 7.24145C6.22201 7.26177 6.22201 7.3267 6.26756 7.34608L6.81881 7.58733C6.83237 7.59314 6.843 7.60377 6.84787 7.61639L7.08912 8.16764C7.10944 8.2132 7.17437 8.2132 7.19375 8.16764L7.435 7.61733C7.44081 7.60377 7.45144 7.59314 7.46406 7.58733Z" fill="white"/>
<path d="M4.95177 12.1147C5.34932 12.1147 5.6716 11.7924 5.6716 11.3949C5.6716 10.9973 5.34932 10.675 4.95177 10.675C4.55421 10.675 4.23193 10.9973 4.23193 11.3949C4.23193 11.7924 4.55421 12.1147 4.95177 12.1147Z" fill="white"/>
<path d="M19.367 10.3388H16.4411C15.0983 10.3388 13.9871 9.29246 13.9067 7.95164C13.8786 7.48758 13.4078 7.18239 12.968 7.33252C9.20989 8.61427 9.66908 13.1416 9.66908 13.1416C9.66908 14.6898 10.9237 15.9444 12.4719 15.9444H19.5278C21.1709 15.9444 22.4836 14.5299 22.3161 12.8529C22.1688 11.3929 20.8328 10.3388 19.367 10.3388Z" fill="white"/>
<path d="M22.3178 12.8488C22.4825 14.5249 21.1746 15.9394 19.5276 15.9394H17.59C19.237 15.9394 20.5449 14.5249 20.3802 12.8488C20.2349 11.3956 18.8979 10.3396 17.4253 10.3396H19.3629C20.8355 10.3396 22.1725 11.3956 22.3178 12.8488Z" fill="white"/>
<path d="M22.9009 21.4463H9.101C7.207 21.4463 5.67139 19.9108 5.67139 18.0168C5.67139 16.1227 7.207 14.5872 9.101 14.5872H22.8999C24.794 14.5872 26.3295 16.1227 26.3295 18.0168C26.3295 19.9108 24.7949 21.4463 22.9009 21.4463Z" fill="white"/>
<path d="M26.3284 18.0129C26.3284 18.9623 25.9409 19.8245 25.3208 20.4446C24.7008 21.0646 23.8482 21.4424 22.8987 21.4424H20.6802C21.6199 21.4424 22.4822 21.0646 23.1022 20.4446C23.7222 19.8245 24.1098 18.9623 24.1098 18.0129C24.1098 16.1237 22.5694 14.5833 20.6802 14.5833H22.8987C24.7977 14.5833 26.3284 16.1237 26.3284 18.0129Z" fill="white"/>
<path d="M12.9634 8.88656C12.8501 8.71987 12.6244 8.67631 12.4587 8.78969C11.9016 9.1675 11.4705 9.70137 11.1769 10.3766C11.0966 10.5607 11.1808 10.7747 11.3649 10.8542C11.4114 10.8746 11.4608 10.8842 11.5092 10.8842C11.6497 10.8842 11.7834 10.8029 11.8425 10.6653C12.0808 10.1189 12.4248 9.68968 12.8656 9.39131C13.0332 9.27793 13.0758 9.05219 12.9634 8.88656Z" fill="white"/>
<path d="M11.2037 11.4801C11.0012 11.4511 10.8219 11.5925 10.7958 11.7921C10.7667 12.0052 10.7522 12.2029 10.7445 12.3733C10.7357 12.574 10.8907 12.7435 11.0913 12.7522H11.1077C11.3006 12.7522 11.4614 12.6001 11.4701 12.4053C11.4769 12.2532 11.4905 12.0779 11.5156 11.888C11.5418 11.6894 11.4023 11.5063 11.2037 11.4801Z" fill="white"/>
<path d="M9.10114 15.677C8.22239 15.677 7.42507 16.1634 7.02107 16.9472C6.92901 17.1254 6.99876 17.3444 7.17707 17.4364C7.23032 17.4645 7.28751 17.4771 7.3427 17.4771C7.47445 17.4771 7.60139 17.4054 7.66532 17.2804C7.94532 16.7398 8.49464 16.4036 9.10014 16.4036C9.3007 16.4036 9.46345 16.2409 9.46345 16.0404C9.46345 15.8398 9.3017 15.677 9.10114 15.677Z" fill="white"/>
<path d="M26.4458 26.3272H5.55613C3.83357 26.3272 2.4375 24.9301 2.4375 23.2085C2.4375 21.4859 3.83357 20.0898 5.55613 20.0898H26.4468C28.1693 20.0898 29.5654 21.4859 29.5654 23.2085C29.5644 24.9301 28.1684 26.3272 26.4458 26.3272Z" fill="white"/>
<path d="M29.5644 23.2056C29.5644 24.0678 29.2156 24.8429 28.6537 25.4145C28.0918 25.9764 27.3071 26.3252 26.4448 26.3252H22.5308C23.393 26.3252 24.1778 25.9764 24.7396 25.4145C25.3016 24.8429 25.6504 24.0678 25.6504 23.2056C25.6504 21.4908 24.2553 20.0859 22.5308 20.0859H26.4448C28.1693 20.0859 29.5644 21.4908 29.5644 23.2056Z" fill="white"/>
</g>
</svg>
