<svg width="512" height="512" viewBox="0 0 512 512" fill="none" xmlns="http://www.w3.org/2000/svg">
<g clip-path="url(#clip0_2201_93396)">
<path d="M478.397 199.805L495.386 192.376C496.789 191.757 496.789 189.754 495.386 189.135L478.397 181.705C477.996 181.523 477.669 181.195 477.487 180.795L470.057 163.805C469.438 162.403 467.435 162.403 466.816 163.805L459.387 180.795C459.204 181.195 458.877 181.523 458.476 181.705L441.487 189.135C440.085 189.754 440.085 191.757 441.487 192.376L458.476 199.805C458.877 199.987 459.204 200.315 459.387 200.716L466.816 217.705C467.435 219.107 469.438 219.107 470.057 217.705L477.487 200.716C477.651 200.297 477.978 199.987 478.397 199.805Z" fill="#96746E"/>
<path d="M396.325 119.429C399.241 119.429 401.605 117.065 401.605 114.149C401.605 111.232 399.241 108.868 396.325 108.868C393.408 108.868 391.044 111.232 391.044 114.149C391.044 117.065 393.408 119.429 396.325 119.429Z" fill="#795D58"/>
<path d="M95.4753 91.1869L105.836 86.6527C106.692 86.2703 106.692 85.0503 105.836 84.6861L95.4753 80.152C95.2204 80.0427 95.0201 79.8425 94.9291 79.6057L90.3949 69.2446C90.0125 68.3888 88.7925 68.3888 88.4283 69.2446L83.8942 79.6057C83.7849 79.8607 83.5846 80.061 83.3479 80.152L72.9868 84.6861C72.1309 85.0685 72.1309 86.2886 72.9868 86.6527L83.3479 91.1869C83.6028 91.2961 83.8031 91.4964 83.8942 91.7332L88.4283 102.094C88.8107 102.95 90.0307 102.95 90.3949 102.094L94.9291 91.7514C95.0383 91.4964 95.2386 91.2961 95.4753 91.1869Z" fill="#96746E"/>
<path d="M48.2548 176.279C55.7269 176.279 61.7843 170.222 61.7843 162.749C61.7843 155.277 55.7269 149.22 48.2548 149.22C40.7826 149.22 34.7252 155.277 34.7252 162.749C34.7252 170.222 40.7826 176.279 48.2548 176.279Z" fill="#795D58"/>
<path d="M319.193 142.902H264.2C238.962 142.902 218.076 123.236 216.565 98.0339C216.037 89.3116 207.187 83.5757 198.92 86.3981C128.286 110.489 136.917 195.581 136.917 195.581C136.917 224.68 160.498 248.261 189.597 248.261H322.215C353.099 248.261 377.772 221.675 374.622 190.155C371.854 162.714 346.743 142.902 319.193 142.902Z" fill="#96746E"/>
<path d="M374.661 190.082C377.756 221.584 353.173 248.169 322.218 248.169H285.799C316.755 248.169 341.337 221.584 338.242 190.082C335.51 162.768 310.381 142.919 282.703 142.919H319.122C346.8 142.919 371.929 162.768 374.661 190.082Z" fill="#795D58"/>
<path d="M385.617 351.672H126.243C90.6433 351.672 61.7814 322.81 61.7814 287.211C61.7814 251.612 90.6433 222.75 126.243 222.75H385.598C421.198 222.75 450.059 251.612 450.059 287.211C450.059 322.81 421.216 351.672 385.617 351.672Z" fill="#96746E"/>
<path d="M450.045 287.138C450.045 304.983 442.761 321.189 431.107 332.843C419.453 344.497 403.429 351.599 385.584 351.599H343.884C361.547 351.599 377.754 344.497 389.408 332.843C401.062 321.189 408.345 304.983 408.345 287.138C408.345 251.629 379.393 222.677 343.884 222.677H385.584C421.274 222.677 450.045 251.629 450.045 287.138Z" fill="#795D58"/>
<path d="M198.841 115.606C196.711 112.474 192.468 111.655 189.354 113.785C178.884 120.887 170.781 130.92 165.263 143.612C163.752 147.072 165.336 151.096 168.796 152.59C169.67 152.972 170.598 153.154 171.509 153.154C174.149 153.154 176.662 151.624 177.773 149.039C182.252 138.769 188.717 130.702 197.002 125.093C200.152 122.963 200.953 118.72 198.841 115.606Z" fill="#AB908C"/>
<path d="M165.761 164.352C161.956 163.806 158.587 166.464 158.095 170.216C157.549 174.222 157.276 177.936 157.13 181.141C156.966 184.911 159.88 188.097 163.649 188.261H163.959C167.582 188.261 170.605 185.402 170.769 181.742C170.896 178.883 171.151 175.587 171.625 172.018C172.116 168.285 169.494 164.844 165.761 164.352Z" fill="#AB908C"/>
<path d="M126.243 243.236C109.727 243.236 94.741 252.377 87.1477 267.108C85.4178 270.459 86.7289 274.574 90.0794 276.304C91.0809 276.832 92.1553 277.069 93.1932 277.069C95.6697 277.069 98.0551 275.721 99.2569 273.372C104.519 263.211 114.844 256.893 126.225 256.893C129.994 256.893 133.053 253.834 133.053 250.064C133.053 246.295 130.013 243.236 126.243 243.236Z" fill="#AB908C"/>
<path d="M452.247 443.411H59.617C27.2408 443.411 1.0011 417.153 1.0011 384.795C1.0011 352.418 27.2408 326.179 59.617 326.179H452.265C484.642 326.179 510.881 352.418 510.881 384.795C510.863 417.153 484.623 443.411 452.247 443.411Z" fill="#96746E"/>
<path d="M510.867 384.74C510.867 400.946 504.312 415.513 493.75 426.257C483.189 436.818 468.439 443.374 452.233 443.374H378.667C394.873 443.374 409.623 436.818 420.184 426.257C430.746 415.513 437.301 400.946 437.301 384.74C437.301 352.509 411.08 326.105 378.667 326.105H452.233C484.646 326.105 510.867 352.509 510.867 384.74Z" fill="#795D58"/>
</g>
<defs>
<clipPath id="clip0_2201_93396">
<rect width="511" height="375.568" fill="white" transform="translate(1.00006 68.2157)"/>
</clipPath>
</defs>
</svg>
