<svg width="472" height="512" viewBox="0 0 472 512" fill="none" xmlns="http://www.w3.org/2000/svg">
<path d="M248.414 33.3178V73.63C248.414 80.5839 242.771 86.2276 235.817 86.2276C228.863 86.2276 223.219 80.5839 223.219 73.63V33.3178C223.219 26.3639 228.863 20.7202 235.817 20.7202C242.771 20.7202 248.414 26.3639 248.414 33.3178Z" fill="#535E7E"/>
<path d="M248.411 33.3178V73.63C248.411 80.5839 242.767 86.2276 235.812 86.2276V20.7202C242.767 20.7202 248.411 26.3639 248.411 33.3178Z" fill="#424765"/>
<path d="M403.556 189.141C394.124 154.565 373.943 123.348 346.01 100.429C315.062 75.0235 275.917 61.0317 235.807 61.0317C195.696 61.0317 156.551 75.0235 125.603 100.429C97.6705 123.348 77.4892 154.565 68.0579 189.141C45.651 192.315 28.3672 211.615 28.3672 234.879C28.3672 258.142 45.651 277.442 68.0579 280.616C77.4892 315.192 97.6705 346.409 125.603 369.328C156.551 394.733 195.696 408.725 235.807 408.725C275.917 408.725 315.062 394.733 346.01 369.328C373.943 346.409 394.124 315.192 403.556 280.616C425.962 277.442 443.246 258.142 443.246 234.879C443.246 211.615 425.962 192.315 403.556 189.141Z" fill="#F2CDBE"/>
<path d="M443.253 234.879C443.253 258.142 425.968 277.442 403.562 280.616C394.13 315.192 373.949 346.409 346.016 369.328C315.069 394.733 275.924 408.725 235.812 408.725V61.0317C275.924 61.0317 315.069 75.0235 346.016 100.429C373.949 123.348 394.13 154.565 403.562 189.141C425.968 192.315 443.253 211.615 443.253 234.879Z" fill="#EFBEAA"/>
<path d="M235.808 242.438C191.817 242.438 156.023 278.232 156.023 322.223V323.063C156.023 336.954 167.328 348.258 181.219 348.258H290.397C304.288 348.258 315.592 336.954 315.592 323.063V322.223C315.592 278.232 279.799 242.438 235.808 242.438Z" fill="#E19480"/>
<path d="M315.597 322.223V323.063C315.597 336.954 304.293 348.258 290.402 348.258H235.812V242.438C279.804 242.438 315.597 278.232 315.597 322.223Z" fill="#D37F6C"/>
<path d="M248.414 308.786V348.258H223.219V308.786C223.219 301.832 228.863 296.188 235.817 296.188C242.771 296.188 248.414 301.832 248.414 308.786Z" fill="#CF5C8F"/>
<path d="M248.411 308.786V348.258H235.812V296.188C242.767 296.188 248.411 301.832 248.411 308.786Z" fill="#C74179"/>
<path d="M278.278 224.27C276.939 222.931 275.883 221.269 275.244 219.351L260.991 176.594C259.57 172.333 260.526 167.639 263.497 164.273C266.469 160.906 271.009 159.377 275.411 160.257L322.92 169.759C329.741 171.123 334.166 177.76 332.803 184.582C331.438 191.405 324.801 195.829 317.979 194.464L291.757 189.22L299.145 211.384C301.346 217.984 297.778 225.119 291.178 227.318C286.496 228.879 281.545 227.538 278.278 224.27Z" fill="#E6947A"/>
<path d="M193.343 224.271C190.075 227.54 185.124 228.88 180.442 227.319C173.842 225.119 170.274 217.985 172.475 211.385L179.862 189.221L153.64 194.465C146.818 195.83 140.182 191.405 138.818 184.583C137.452 177.76 141.877 171.124 148.7 169.76L196.208 160.258C200.612 159.377 205.151 160.908 208.122 164.273C211.094 167.64 212.05 172.334 210.629 176.594L196.376 219.352C195.738 221.27 194.681 222.932 193.343 224.271Z" fill="#EBAD94"/>
<path d="M386.125 420.055H360.931C360.931 406.166 349.627 394.861 335.739 394.861H285.353V319.282C285.353 291.494 262.756 268.897 234.968 268.897C207.179 268.897 184.582 291.494 184.582 319.282V369.668L209.774 382.265L184.582 394.861C159.853 394.861 132.681 394.861 134.196 394.861C120.308 394.861 109.003 406.166 109.003 420.055H83.8101C69.9221 420.055 58.6172 431.359 58.6172 445.247C58.6172 459.135 69.9221 471.28 83.8101 471.28H234.968H386.125C400.013 471.28 411.317 459.135 411.317 445.247C411.317 431.359 400.013 420.055 386.125 420.055Z" fill="#FAFAE0"/>
<path d="M411.311 445.247C411.311 431.359 400.006 420.055 386.118 420.055H360.926C360.926 406.166 349.62 394.861 335.732 394.861H285.347V319.282C285.347 291.494 262.749 268.897 234.961 268.897V471.28H386.118C400.006 471.28 411.311 459.135 411.311 445.247Z" fill="#EFEBC8"/>
<path d="M184.578 369.669H222.367V394.863H184.578V369.669Z" fill="#EFEBC8"/>
</svg>
