<svg width="512" height="512" viewBox="0 0 512 512" fill="none" xmlns="http://www.w3.org/2000/svg">
<path d="M58.9057 359.924L359.74 59.0897C362.771 56.0592 367.65 56.0593 370.681 59.0898L452.726 141.135C455.756 144.165 455.756 149.045 452.726 152.075L151.891 452.91C148.861 455.94 143.981 455.94 140.951 452.91L58.9057 370.865C55.8751 367.834 55.8752 362.955 58.9057 359.924Z" fill="#FDA35D"/>
<path d="M91.6797 327.148C92.6271 328.109 93.8093 328.805 95.1089 329.168L138.44 340.748C139.746 341.09 141.12 341.084 142.423 340.731C143.727 340.378 144.915 339.69 145.87 338.735C146.825 337.779 147.513 336.591 147.867 335.288C148.22 333.984 148.226 332.61 147.883 331.304L136.303 287.974C135.95 286.668 135.261 285.479 134.305 284.523L91.6797 327.148ZM161.761 257.067L185.723 281.029C187.171 282.471 189.13 283.282 191.174 283.285C193.218 283.287 195.18 282.48 196.63 281.04C198.07 279.59 198.877 277.628 198.875 275.584C198.872 273.54 198.061 271.581 196.619 270.133L172.657 246.171L161.761 257.067ZM216.426 202.402L240.388 226.364C241.109 227.082 241.964 227.65 242.904 228.038C243.845 228.424 244.852 228.622 245.87 228.619C246.887 228.616 247.894 228.412 248.832 228.02C249.77 227.628 250.622 227.054 251.338 226.332C252.782 224.882 253.593 222.919 253.593 220.873C253.593 218.827 252.782 216.864 251.338 215.414L227.376 191.452L216.426 202.402ZM271.144 147.683L295.107 171.646C296.554 173.088 298.515 173.899 300.558 173.901C302.602 173.902 304.563 173.096 306.014 171.656C306.736 170.94 307.31 170.088 307.703 169.15C308.094 168.211 308.298 167.205 308.301 166.188C308.304 165.17 308.106 164.163 307.72 163.222C307.332 162.282 306.764 161.427 306.047 160.706L282.084 136.744L271.144 147.683ZM325.853 92.9753L349.815 116.937C351.263 118.38 353.222 119.191 355.266 119.192C357.31 119.194 359.272 118.388 360.722 116.948C362.162 115.497 362.969 113.536 362.967 111.492C362.964 109.449 362.153 107.489 360.711 106.041L336.749 82.0786L325.853 92.9753ZM366.202 172.746C365.247 173.708 364.563 174.905 364.216 176.215C363.869 177.526 363.872 178.905 364.226 180.214L375.817 223.534C376.169 224.833 376.854 226.019 377.804 226.973L377.815 226.984L420.451 184.348L420.44 184.337C419.486 183.387 418.301 182.701 417 182.35L373.68 170.759C372.37 170.405 370.988 170.401 369.675 170.75C368.363 171.099 367.165 171.788 366.202 172.746ZM150.918 395.061C149.48 396.51 148.673 398.468 148.673 400.509C148.673 402.55 149.48 404.509 150.918 405.957L174.879 429.92L185.819 418.98L161.857 395.018C161.136 394.302 160.281 393.736 159.34 393.351C158.401 392.966 157.394 392.77 156.378 392.773C155.363 392.777 154.358 392.982 153.421 393.374C152.483 393.766 151.633 394.34 150.918 395.061ZM205.625 340.353C204.905 341.068 204.331 341.919 203.938 342.856C203.547 343.793 203.342 344.798 203.338 345.813C203.334 346.829 203.53 347.836 203.916 348.776C204.301 349.716 204.867 350.571 205.582 351.292L229.545 375.254L240.495 364.304L216.533 340.342C215.082 338.902 213.12 338.096 211.077 338.097C209.033 338.1 207.073 338.91 205.625 340.353ZM260.344 285.634C259.623 286.35 259.05 287.2 258.657 288.137C258.265 289.074 258.061 290.079 258.057 291.094C258.053 292.111 258.249 293.117 258.634 294.058C259.02 294.997 259.586 295.852 260.301 296.574L284.263 320.535L295.202 309.596L271.241 285.634C269.792 284.196 267.833 283.39 265.792 283.39C263.751 283.39 261.793 284.196 260.344 285.634ZM315.01 230.969C313.572 232.418 312.765 234.376 312.765 236.417C312.765 238.458 313.572 240.416 315.01 241.865L338.971 265.828L349.911 254.888L325.949 230.926C325.228 230.21 324.373 229.644 323.432 229.258C322.493 228.874 321.486 228.678 320.47 228.681C319.455 228.685 318.45 228.89 317.513 229.282C316.575 229.674 315.725 230.248 315.01 230.969Z" fill="#D06A3B"/>
</svg>
