<svg width="512" height="512" viewBox="0 0 512 512" fill="none" xmlns="http://www.w3.org/2000/svg">
<path d="M355.971 183.383L363.887 275.956L355.971 343.576L308.188 327.579L321.055 234.28L326.651 193.721C327.465 187.79 332.526 183.383 338.505 183.383H355.971Z" fill="#98D3F3"/>
<path d="M390.573 234.288L384.897 193.697C384.067 187.782 379.014 183.383 373.035 183.383H355.969V343.576L403.624 327.579L390.573 234.288Z" fill="#83B3F1"/>
<path d="M355.967 327.579L366.544 387.711L355.967 460.351C339.3 460.351 323.463 453.151 312.519 440.587C301.583 428.046 296.618 411.395 298.893 394.919L308.184 327.579H355.967Z" fill="#FFDD54"/>
<path d="M399.457 440.547C388.505 453.135 372.66 460.351 355.969 460.351V327.579H403.624L413.027 394.815C415.334 411.307 410.393 427.974 399.457 440.547Z" fill="#F7BE48"/>
<path d="M355.97 51.6484L370.634 140.406L355.97 238.271H355.827C312.17 238.271 276.648 201.04 276.648 155.277C276.648 133.333 284.775 108.196 298.385 88.0405C314.23 64.5721 334.633 51.6484 355.827 51.6484H355.97Z" fill="#ADF2F5"/>
<path d="M435.003 155.277C435.003 200.993 399.561 238.191 355.969 238.271V51.6484C377.122 51.7043 397.462 64.6279 413.267 88.0405C426.877 108.196 435.003 133.333 435.003 155.277Z" fill="#98D3F3"/>
<path d="M155.221 183.383L163.137 275.956L155.221 343.576L107.438 327.579L120.305 234.28L125.901 193.721C126.715 187.79 131.776 183.383 137.755 183.383H155.221Z" fill="#98D3F3"/>
<path d="M189.823 234.288L184.147 193.697C183.317 187.782 178.264 183.383 172.285 183.383H155.219V343.576L202.874 327.579L189.823 234.288Z" fill="#83B3F1"/>
<path d="M155.22 51.7124L163.137 167.394L155.22 234.288H120.896C120.696 234.288 120.505 234.288 120.305 234.28C96.3657 233.968 76.9922 214.403 76.9922 190.416V63.6861C76.9922 57.0766 82.3564 51.7124 88.9659 51.7124C95.5754 51.7124 100.94 57.0766 100.94 63.6861V152.523H143.247V63.6861C143.247 57.0766 148.611 51.7124 155.22 51.7124Z" fill="#ADF2F5"/>
<path d="M233.447 63.6861V190.416C233.447 214.507 213.906 234.136 189.823 234.288H155.219V51.7124C161.828 51.7124 167.192 57.0766 167.192 63.6861V152.523H209.5V63.6861C209.5 57.0766 214.864 51.7124 221.473 51.7124C228.083 51.7124 233.447 57.0766 233.447 63.6861Z" fill="#98D3F3"/>
<path d="M155.217 327.579L165.794 387.711L155.217 460.351C138.55 460.351 122.713 453.151 111.769 440.587C100.833 428.046 95.8677 411.395 98.1427 394.919L107.434 327.579H155.217Z" fill="#FFDD54"/>
<path d="M198.707 440.547C187.755 453.135 171.91 460.351 155.219 460.351V327.579H202.874L212.277 394.815C214.584 411.307 209.643 427.974 198.707 440.547Z" fill="#F7BE48"/>
</svg>
