<svg id="Layer_1" enable-background="new 0 0 512 512" height="512" viewBox="0 0 512 512" width="512" xmlns="http://www.w3.org/2000/svg"><g><path d="m450.48 273.755-171.51 171.52v-118.46l28.17-60.82h73.35v-20h-86.12l-15.4 33.25v-177c47.36-47.36 124.15-47.36 171.51 0s47.36 124.15 0 171.51z" fill="#ea4335"/><path d="m278.97 102.245v177l-5.51 11.89-42.44-114.58-64.47 106.62h-49.68l-9.42-9.42c-47.36-47.36-47.36-124.15 0-171.51s124.15-47.36 171.52 0z" fill="#ef6d63"/><path d="m278.97 326.815v118.46l-142.1-142.1h40.96l48.84-80.78 44.73 120.76z" fill="#ef6d63"/><path d="m278.97 279.245v47.57l-7.57 16.34-44.73-120.76-48.84 80.78h-151.83v-20h140.55l64.47-106.62 42.44 114.58z" fill="#f9bc15"/><path d="m380.49 245.995v20h-73.35l-28.17 60.82v-47.57l15.4-33.25z" fill="#e2ab25"/></g></svg>