<svg width="512" height="512" viewBox="0 0 512 512" fill="none" xmlns="http://www.w3.org/2000/svg">
<mask id="mask0_1216_785" style="mask-type:luminance" maskUnits="userSpaceOnUse" x="36" y="36" width="440" height="440">
<path d="M476 36H36V476H476V36Z" fill="white"/>
</mask>
<g mask="url(#mask0_1216_785)">
<path d="M329.782 81.5175C316.142 81.5175 302.646 84.2864 290.106 89.6575C268.334 98.9963 243.678 98.9963 221.906 89.6575C209.366 84.2864 195.87 81.5175 182.23 81.5175C126.616 81.5097 81.5311 126.595 81.5234 182.21C81.5234 182.217 81.5234 182.217 81.5234 182.225C81.5234 225.482 93.6767 267.873 116.602 304.553L119.454 309.105L152.493 454.472C155.353 467.063 166.549 476 179.468 476C193.002 476.008 204.556 466.229 206.778 452.884L229.537 316.378C231.692 303.436 242.882 293.946 256.005 293.93C269.137 293.93 280.342 303.42 282.504 316.378L305.263 452.884C307.485 466.221 319.024 475.992 332.543 476C345.462 476 356.659 467.063 359.519 454.47L392.557 309.103L395.409 304.551C418.335 267.872 430.488 225.48 430.488 182.223C430.496 126.609 385.411 81.5243 329.796 81.5166C329.789 81.5175 329.789 81.5175 329.782 81.5175Z" fill="#E6E6E6"/>
<path d="M355.529 84.9692C310.853 236.807 189.998 305.462 124.711 332.272L152.484 454.463C155.875 469.362 170.706 478.686 185.605 475.295C196.544 472.807 204.897 463.954 206.748 452.885L229.507 316.379C231.942 301.745 245.779 291.852 260.413 294.288C271.74 296.169 280.623 305.052 282.504 316.379L305.263 452.885C307.782 467.959 322.044 478.132 337.117 475.606C348.185 473.755 357.039 465.403 359.527 454.464L392.55 309.105L395.402 304.553C418.328 267.874 430.481 225.482 430.481 182.225C430.45 136.555 399.68 96.6292 355.529 84.9692Z" fill="#DEDEDE"/>
<path d="M66.3445 96.6899C63.7501 81.1301 51.559 68.939 36 66.3445C51.559 63.7501 63.7501 51.559 66.3445 36C68.939 51.559 81.1301 63.7501 96.6891 66.3445C81.1301 68.939 68.939 81.1301 66.3445 96.6899Z" fill="#F9BC61"/>
<path d="M127.031 180.137H111.859C111.859 139.209 140.687 122.642 155.859 119.6L158.832 134.468L157.376 127.034L158.893 134.461C157.604 134.742 127.031 141.667 127.031 180.137Z" fill="#F2F2F2"/>
<path d="M187.719 119.447H172.547V134.62H187.719V119.447Z" fill="#F2F2F2"/>
<path d="M445.657 415.31C443.063 399.751 430.871 387.56 415.312 384.966C430.871 382.371 443.063 370.18 445.657 354.621C448.251 370.18 460.443 382.371 476.002 384.966C460.443 387.56 448.251 399.751 445.657 415.31Z" fill="#F9BC61"/>
</g>
</svg>
