<svg width="32" height="32" viewBox="0 0 32 32" fill="none" xmlns="http://www.w3.org/2000/svg">
<mask id="mask0_2070_16606" style="mask-type:luminance" maskUnits="userSpaceOnUse" x="2" y="2" width="28" height="28">
<path d="M29.5626 2.50537H2.4375V29.6304H29.5626V2.50537Z" fill="white"/>
</mask>
<g mask="url(#mask0_2070_16606)">
<path d="M22.3204 4.24081L12.4467 6.445C11.7959 6.59025 11.7064 7.45787 12.3049 7.751L14.1662 8.6625C18.1636 10.6202 20.5657 13.6603 20.56 13.6549C23.1614 16.7411 28.2849 15.7624 29.3783 11.3882C30.4525 7.20812 26.6674 3.27035 22.3204 4.24081Z" fill="white"/>
<path d="M22.4511 9.72733C22.4584 9.73027 19.1017 7.79502 14.6636 7.45577L12.5972 7.29783C12.2755 7.27321 12.0543 7.06383 11.9736 6.81177C11.8189 7.13121 11.9178 7.56133 12.3051 7.75102L14.1663 8.66252C18.1638 10.6201 20.5659 13.6603 20.5602 13.6548C23.1616 16.7411 28.2852 15.7623 29.3785 11.3881C29.6985 10.1431 29.5872 8.91958 29.1584 7.84077C27.8502 10.0833 24.9449 11.0618 22.4511 9.72733Z" fill="white"/>
<path d="M25.0152 20.3064L19.0128 17.0454C18.4925 16.7627 17.9168 17.2668 18.1123 17.8283L18.4637 18.8374C19.5249 21.8856 19.5408 24.5131 19.5353 24.3937C19.6683 27.2819 22.9018 29.0546 25.3892 27.4182C27.9964 25.6792 27.77 21.8031 25.0152 20.3064Z" fill="white"/>
<path d="M21.7648 23.76C21.7998 23.8743 21.1302 21.3336 19.3435 18.6455L18.7519 17.7557C18.5722 17.4853 18.6197 17.1746 18.7931 16.9714C18.3464 16.9056 17.9442 17.3455 18.1123 17.8283L18.4636 18.8375C19.5249 21.8857 19.5407 24.5132 19.5352 24.3937C19.6682 27.2819 22.9018 29.0546 25.3892 27.4183C25.857 27.1062 26.2331 26.725 26.5203 26.3015C24.6169 26.886 22.4076 25.8556 21.7648 23.76Z" fill="white"/>
<path d="M12.3677 17.8368C10.0721 15.8914 7.50806 13.9227 5.23936 9.77559C4.79567 9.1279 3.80057 9.3579 3.71013 10.138L2.48108 20.7351C1.93731 25.4238 6.58137 28.9542 10.8761 27.336C14.8644 25.8337 15.6705 20.5302 12.3677 17.8368Z" fill="white"/>
<path d="M5.93799 20.4706L4.48251 9.90216C4.4565 9.71316 4.49056 9.54254 4.56511 9.3996C4.16374 9.38685 3.76576 9.6581 3.71008 10.1379L2.48108 20.7351C1.93731 25.4238 6.58137 28.9542 10.8761 27.336C11.7707 26.999 12.5045 26.4705 13.0685 25.8234C9.82269 26.2943 6.44031 24.1177 5.93799 20.4706Z" fill="white"/>
</g>
</svg>
