<svg width="32" height="32" viewBox="0 0 32 32" fill="none" xmlns="http://www.w3.org/2000/svg">
<path d="M26.9835 5.92963C26.8249 5.79135 26.5843 5.80786 26.446 5.96645C26.3077 6.12504 26.3243 6.36564 26.4828 6.50392C29.8991 9.48249 27.9511 15.0596 23.8108 15.0419C22.5443 15.0351 21.3503 14.4763 20.5347 13.5087C17.2676 9.6327 13.7211 8.50043 12.729 7.91823C12.5839 7.84718 12.5206 7.66422 12.6056 7.5331C12.7268 7.34597 12.3339 7.55946 21.9645 5.36555C23.0236 5.12927 24.1001 5.21986 25.0774 5.62814C25.2715 5.70904 25.4947 5.61758 25.5758 5.42344C25.6568 5.22931 25.5652 5.00617 25.3711 4.92508C24.2475 4.45581 23.0121 4.35089 21.7985 4.62201L12.6105 6.67317C11.6556 6.88625 11.5152 8.17203 12.3939 8.6024C13.3653 9.17135 16.8132 10.2758 19.9521 13.9998C20.9176 15.1452 22.3339 15.8039 23.8339 15.8039C28.6471 15.8037 30.9356 9.37549 26.9835 5.92963Z" fill="white"/>
<path d="M12.8613 17.3504C12.5791 17.1203 12.2932 16.8779 12.0116 16.6302C11.4626 16.144 10.2896 15.2731 8.88314 13.648C8.74537 13.4889 8.50477 13.4716 8.34583 13.6093C8.18673 13.747 8.16936 13.9875 8.30708 14.1466C9.04981 15.0047 9.96031 15.9673 12.3799 17.9408C13.732 19.0434 14.3707 20.7333 14.0884 22.4613C13.4543 26.3432 8.80159 27.6783 5.78914 25.2492C4.32659 24.07 3.58265 22.2521 3.79897 20.3866L4.94257 10.5252C4.96857 10.3004 5.16382 10.1415 5.39046 10.1794C5.81037 10.2488 5.61638 10.5887 7.1806 12.7307C7.30466 12.9007 7.54302 12.9378 7.71284 12.8137C7.8828 12.6896 7.91992 12.4513 7.79581 12.2814C6.87002 11.0136 6.34388 9.9906 6.30142 9.9289C5.69967 9.05039 4.31232 9.34517 4.18572 10.4375L3.04208 20.2988C2.79543 22.4257 3.64353 24.4981 5.31083 25.8424C8.78569 28.6443 14.1144 27.0268 14.8402 22.5843C15.167 20.584 14.4272 18.6274 12.8613 17.3504Z" fill="white"/>
<path d="M24.5718 19.6091L18.9862 16.5746C18.1945 16.1445 17.3114 16.9157 17.6066 17.763C17.7739 18.3475 18.7595 20.4989 18.9099 23.7649C18.9417 24.4565 19.1526 25.1255 19.5198 25.6996C19.6332 25.8769 19.8688 25.9286 20.046 25.8152C20.2232 25.7019 20.275 25.4663 20.1616 25.2891C19.8621 24.8208 19.697 24.2962 19.6709 23.7299C19.5146 20.3367 18.4908 18.0895 18.326 17.5125C18.2595 17.3218 18.4405 17.1455 18.6223 17.244L24.208 20.2786C26.6022 21.5794 26.6675 24.9319 24.4379 26.3014C23.4841 26.8888 22.3215 26.9157 21.3277 26.3736C21.143 26.2729 20.9117 26.3408 20.8109 26.5255C20.7102 26.7102 20.7781 26.9416 20.9629 27.0424C22.1956 27.715 23.6918 27.7069 24.9493 26.8788C27.6042 25.108 27.398 21.1445 24.5718 19.6091Z" fill="white"/>
</svg>
