<svg width="512" height="512" viewBox="0 0 512 512" fill="none" xmlns="http://www.w3.org/2000/svg">
<mask id="mask0_1216_796" style="mask-type:luminance" maskUnits="userSpaceOnUse" x="58" y="58" width="396" height="396">
<path d="M454 58H58V454H454V58Z" fill="white"/>
</mask>
<g mask="url(#mask0_1216_796)">
<path d="M384.177 133.69C382.676 133.69 381.176 133.118 380.03 131.972C377.74 129.682 377.74 125.969 380.03 123.679L443.991 59.7176C446.281 57.4275 449.995 57.4275 452.285 59.7176C454.575 62.0078 454.575 65.721 452.285 68.0112L388.324 131.972C387.18 133.118 385.679 133.69 384.177 133.69Z" fill="#B8F0FF"/>
<path d="M386.859 162.272L349.734 125.147L375.081 106.739C378.482 104.269 383.172 104.639 386.145 107.611L404.394 125.86C407.366 128.831 407.735 133.523 405.266 136.924L386.859 162.272Z" fill="#BAC5E2"/>
<path d="M143.619 410.527L110.484 376.584L159.25 325.648L189.788 364.358L143.619 410.527Z" fill="#E9EFFF"/>
<path d="M217.037 337.116L174.888 294.966L101.477 368.378L111.356 378.258L154.002 335.612C155.948 333.666 159.104 333.666 161.05 335.612C162.996 337.558 162.996 340.714 161.05 342.66L117.955 385.755C115.665 388.045 115.665 391.758 117.955 394.048C119.099 395.193 120.601 395.766 122.102 395.766C123.603 395.766 125.104 395.194 126.249 394.048L164.643 355.654C169.186 351.112 176.55 351.112 181.093 355.654L189.796 364.358L217.037 337.116Z" fill="#D3DCFB"/>
<path d="M346.526 120.276C337.352 111.102 326.565 118.421 317.391 127.595L255.461 197.97L256.302 202.59L324.851 228.372L393.704 202.261L397.65 198.315C406.825 189.14 406.825 174.265 397.65 165.091L358.619 126.059L346.526 120.276Z" fill="#E9EFFF"/>
<path d="M233.925 215.8L165.641 270.196L245.705 350.26L270.318 325.647L269.489 315.92L278.611 317.354L294.027 301.938L293.674 292.802L302.321 293.645L317.828 278.137L318.622 270.493L326.121 269.844L393.703 202.262L256.301 202.592L233.925 215.8Z" fill="#42C3FC"/>
<path d="M346.911 114.35C337.736 105.176 322.861 105.176 313.687 114.35L225.445 202.591L234.006 209.995L256.304 202.591L329.116 129.779C338.291 120.605 353.165 120.605 362.34 129.779L346.911 114.35Z" fill="#D3DCFB"/>
<path d="M177.164 281.724L256.296 202.591H225.438L161.734 266.294L177.164 281.724Z" fill="#1AA9E8"/>
<path d="M165.898 423.691L103.377 361.171C97.9903 355.784 82.2369 349.799 76.8499 355.185L70.0893 361.946C64.7023 367.333 72.2859 382.615 77.6721 388.002L139.63 449.96C145.017 455.347 153.75 455.347 159.136 449.96L165.897 443.199C171.285 437.812 171.285 429.078 165.898 423.691Z" fill="#BAC5E2"/>
<path d="M81.2168 366.89L82.8311 365.276C89.6389 358.468 100.677 358.468 107.484 365.276L88.3078 346.099C82.9208 340.713 74.1871 340.713 68.8009 346.099L62.0402 352.86C56.6533 358.247 56.6533 366.981 62.0402 372.367L81.2168 391.543C74.409 384.736 74.409 373.698 81.2168 366.89Z" fill="#A7B4D1"/>
<path d="M269.87 360.895L167.061 258.085L150.511 247.141C144.262 240.892 141.184 242.956 134.935 249.206L129.398 254.085C123.149 260.335 118.269 260.503 124.52 266.753L137.149 289.124L239.395 391.37C245.645 397.62 255.778 397.62 262.028 391.37L269.871 383.527C276.12 377.277 276.12 367.144 269.87 360.895Z" fill="#BAC5E2"/>
<path d="M140.213 263.594L142.086 261.722C149.983 253.824 162.788 253.824 170.687 261.72L151.1 242.134C144.851 235.884 134.718 235.884 128.468 242.134L120.625 249.977C114.375 256.227 114.375 266.359 120.625 272.61L140.213 292.198C132.315 284.299 132.315 271.493 140.213 263.594Z" fill="#A7B4D1"/>
<path d="M308.269 252.039C305.979 249.749 302.266 249.749 299.975 252.039C297.685 254.33 297.685 258.043 299.975 260.333L317.836 278.138L326.129 269.845L308.269 252.039Z" fill="#1C8AE5"/>
<path d="M284.488 275.811C282.198 273.521 278.484 273.521 276.194 275.811C273.904 278.102 273.904 281.815 276.194 284.105L294.027 301.938L302.321 293.645L284.488 275.811Z" fill="#1C8AE5"/>
<path d="M260.714 299.585C258.424 297.295 254.711 297.295 252.421 299.585C250.131 301.875 250.131 305.588 252.421 307.878L270.317 325.648L278.61 317.355L260.714 299.585Z" fill="#1C8AE5"/>
</g>
</svg>
