<svg width="472" height="512" viewBox="0 0 472 512" fill="none" xmlns="http://www.w3.org/2000/svg">
<path d="M248.328 33.3178V73.63C248.328 80.5839 242.685 86.2276 235.73 86.2276C228.776 86.2276 223.133 80.5839 223.133 73.63V33.3178C223.133 26.3639 228.776 20.7202 235.73 20.7202C242.685 20.7202 248.328 26.3639 248.328 33.3178Z" fill="#535E7E"/>
<path d="M248.332 33.3178V73.63C248.332 80.5839 242.688 86.2276 235.734 86.2276V20.7202C242.688 20.7202 248.332 26.3639 248.332 33.3178Z" fill="#424765"/>
<path d="M403.477 189.142C394.046 154.566 373.865 123.349 345.932 100.43C314.984 75.0244 275.839 61.0327 235.728 61.0327C195.618 61.0327 156.473 75.0244 125.525 100.43C97.5923 123.349 77.411 154.566 67.9796 189.142C45.5729 192.316 28.2891 211.616 28.2891 234.879C28.2891 258.143 45.5729 277.443 67.9796 280.617C77.411 315.193 97.5923 346.41 125.525 369.329C156.473 394.734 195.618 408.725 235.728 408.725C275.839 408.725 314.984 394.734 345.932 369.329C373.865 346.41 394.046 315.193 403.477 280.617C425.884 277.443 443.168 258.143 443.168 234.879C443.168 211.616 425.884 192.316 403.477 189.142Z" fill="#F2CDBE"/>
<path d="M443.166 234.879C443.166 258.143 425.882 277.443 403.475 280.617C394.043 315.193 373.862 346.41 345.929 369.329C314.982 394.734 275.837 408.725 235.727 408.725V61.0327C275.837 61.0327 314.982 75.0244 345.929 100.43C373.862 123.349 394.043 154.566 403.475 189.142C425.882 192.316 443.166 211.616 443.166 234.879Z" fill="#EFBEAA"/>
<path d="M235.73 242.438C191.739 242.438 155.945 278.232 155.945 322.223V323.063C155.945 336.954 167.25 348.258 181.14 348.258H290.319C304.211 348.258 315.514 336.954 315.514 323.063V322.223C315.514 278.232 279.72 242.438 235.73 242.438Z" fill="#E19480"/>
<path d="M315.511 322.223V323.063C315.511 336.954 304.206 348.258 290.315 348.258H235.727V242.438C279.717 242.438 315.511 278.232 315.511 322.223Z" fill="#D37F6C"/>
<path d="M248.328 308.786V348.258H223.133V308.786C223.133 301.832 228.776 296.188 235.73 296.188C242.685 296.188 248.328 301.832 248.328 308.786Z" fill="#CF5C8F"/>
<path d="M248.332 308.786V348.258H235.734V296.188C242.688 296.188 248.332 301.832 248.332 308.786Z" fill="#C74179"/>
<path d="M278.191 224.27C276.852 222.931 275.797 221.27 275.158 219.351L260.905 176.595C259.484 172.334 260.44 167.64 263.412 164.273C266.383 160.907 270.922 159.377 275.325 160.258L322.834 169.76C329.655 171.124 334.08 177.761 332.716 184.582C331.352 191.406 324.715 195.83 317.893 194.465L291.671 189.221L299.059 211.385C301.26 217.985 297.692 225.12 291.092 227.319C286.41 228.88 281.459 227.538 278.191 224.27Z" fill="#E6947A"/>
<path d="M193.265 224.271C189.997 227.539 185.047 228.88 180.363 227.32C173.764 225.119 170.196 217.985 172.397 211.386L179.784 189.221L153.562 194.465C146.74 195.83 140.104 191.406 138.74 184.583C137.374 177.76 141.799 171.124 148.622 169.761L196.13 160.258C200.534 159.378 205.073 160.908 208.044 164.274C211.016 167.641 211.972 172.334 210.55 176.595L196.298 219.352C195.66 221.271 194.603 222.933 193.265 224.271Z" fill="#EBAD94"/>
<path d="M386.046 420.055H360.853C360.853 406.167 349.549 394.862 335.661 394.862H285.275V319.283C285.275 291.494 262.677 268.897 234.889 268.897C207.1 268.897 184.504 291.494 184.504 319.283V369.669L209.696 382.265L184.504 394.862C159.775 394.862 132.603 394.862 134.118 394.862C120.229 394.862 108.925 406.167 108.925 420.055H83.7319C69.8439 420.055 58.5391 431.36 58.5391 445.248C58.5391 459.136 69.8439 471.281 83.7319 471.281H234.889H386.046C399.934 471.281 411.239 459.136 411.239 445.248C411.239 431.36 399.934 420.055 386.046 420.055Z" fill="#A0E65C"/>
<path d="M411.241 445.248C411.241 431.36 399.936 420.055 386.048 420.055H360.855C360.855 406.167 349.551 394.862 335.663 394.862H285.277V319.283C285.277 291.494 262.679 268.897 234.891 268.897V471.281H386.048C399.936 471.281 411.241 459.136 411.241 445.248Z" fill="#79CC52"/>
<path d="M184.5 369.669H222.289V394.863H184.5V369.669Z" fill="#79CC52"/>
</svg>
