<svg width="512" height="512" viewBox="0 0 512 512" fill="none" xmlns="http://www.w3.org/2000/svg">
<path d="M353.998 142.034H416.004C443.818 142.034 465.542 166.059 462.756 193.735L439.414 425.673C436.992 449.681 416.782 467.962 392.653 467.962H119.344C95.215 467.962 75.005 449.681 72.5915 425.673L49.2409 193.735C46.4548 166.059 68.1875 142.034 96.0024 142.034H158.008" fill="#55B5E0"/>
<path d="M256.004 240.03C310.125 240.03 353.999 196.156 353.999 142.034C353.999 87.9128 310.125 44.0386 256.004 44.0386C201.881 44.0386 158.008 87.9128 158.008 142.034C158.008 196.156 201.881 240.03 256.004 240.03Z" fill="#FCE381"/>
<path d="M327.413 142.033C327.413 160.314 320.543 176.985 309.244 189.616C303.284 182.954 296.111 177.418 288.048 173.369C278.411 168.524 267.527 165.79 256.003 165.79C234.842 165.79 215.826 174.996 202.753 189.617C191.463 176.985 184.594 160.314 184.594 142.034C184.594 108.112 208.238 79.7178 239.955 72.4416C240.11 72.3985 240.275 72.3637 240.431 72.329C245.44 71.2129 250.657 70.625 256.003 70.625C295.437 70.6242 327.413 102.591 327.413 142.033Z" fill="#CAF1FC"/>
<path d="M295.288 142.034C295.288 153.281 292.693 163.914 288.056 173.369C278.418 168.525 267.535 165.791 256.011 165.791C234.85 165.791 215.834 174.996 202.761 189.617C191.47 176.986 184.602 160.315 184.602 142.035C184.602 108.111 208.246 79.7176 239.962 72.4414C271.652 79.7342 295.288 108.12 295.288 142.034Z" fill="#A7E6FC"/>
<path d="M309.248 196.105C307.401 196.105 305.642 195.318 304.411 193.942C292.102 180.175 274.459 172.28 256.007 172.28C237.549 172.28 219.903 180.175 207.594 193.942C206.363 195.318 204.604 196.105 202.757 196.105C200.909 196.105 199.151 195.318 197.919 193.941C185.145 179.648 178.109 161.214 178.109 142.034C178.109 99.0812 213.055 64.1357 256.008 64.1357C298.96 64.1357 333.906 99.0812 333.906 142.034C333.906 161.219 326.867 179.653 314.085 193.943C312.853 195.319 311.094 196.105 309.248 196.105ZM256.007 159.302C275.607 159.302 294.443 166.723 308.752 179.884C316.645 168.901 320.927 155.697 320.927 142.034C320.927 106.237 291.804 77.1142 256.007 77.1142C220.209 77.1142 191.086 106.237 191.086 142.034C191.086 155.694 195.367 168.898 203.255 179.884C217.565 166.723 236.404 159.302 256.007 159.302Z" fill="#E29F33"/>
<path d="M256.005 148.524C253.472 148.524 251.066 147.032 250.021 144.551L236.182 111.676C234.792 108.373 236.342 104.568 239.645 103.177C242.949 101.786 246.753 103.337 248.143 106.641L261.982 139.516C263.372 142.819 261.822 146.624 258.519 148.015C257.698 148.359 256.844 148.524 256.005 148.524Z" fill="#595C63"/>
<path d="M391.825 297.761H118.438C107.448 297.761 98.5391 288.853 98.5391 277.862C98.5391 266.872 107.447 257.963 118.438 257.963H391.825C402.815 257.963 411.724 266.872 411.724 277.862C411.724 288.852 402.815 297.761 391.825 297.761Z" fill="#188EB7"/>
<path d="M380.398 365.242H129.876C118.886 365.242 109.977 356.334 109.977 345.344C109.977 334.354 118.885 325.445 129.876 325.445H380.397C391.387 325.445 400.296 334.353 400.296 345.344C400.297 356.334 391.388 365.242 380.398 365.242Z" fill="#188EB7"/>
<path d="M372.5 432.724H137.774C126.784 432.724 117.875 423.815 117.875 412.825C117.875 401.835 126.783 392.926 137.774 392.926H372.5C383.49 392.926 392.399 401.834 392.399 412.825C392.399 423.815 383.49 432.724 372.5 432.724Z" fill="#188EB7"/>
</svg>
