<svg height="512" viewBox="0 0 128 128" width="512" xmlns="http://www.w3.org/2000/svg"><g><path d="m61.646 109.29c13.444.056 26.175-.372 38.106-1.13 9.989-.634 17.752-8.063 17.752-17.066 0-9-7.76-16.431-17.748-17.066-11.838-.752-24.465-1.178-37.8-1.13-11.845.043-23.122.456-33.772 1.134-9.967.634-17.692 8.08-17.692 17.065 0 8.982 7.722 16.43 17.688 17.064 10.563.667 21.736 1.08 33.466 1.129z" fill="#a07360"/><path d="m37.322 77.181c7.865.557 16.187.9 24.925.939 10.014.047 19.5-.308 28.384-.936a14.188 14.188 0 0 0 13.222-14.138 14.187 14.187 0 0 0 -13.219-14.146c-8.819-.623-18.224-.977-28.153-.937-8.824.036-17.224.378-25.156.94a14.172 14.172 0 0 0 0 28.274z" fill="#b4846b"/><path d="m64.006 33.065v.013h-.979c-5.661.012-11.033.238-16.117.6a9.079 9.079 0 0 0 0 18.113c5.034.351 10.368.577 15.967.6 6.414.026 12.489-.2 18.188-.6a9.092 9.092 0 0 0 8.472-9.063v-.063c0-.276-.012-.552-.037-.815-.214-3.64-2.134-17.712-18.54-23.147 0-.003 8.473 13.872-6.954 14.362z" fill="#d1a183"/></g></svg>