<?xml version="1.0" encoding="iso-8859-1"?>
<!-- Generator: Adobe Illustrator 19.0.0, SVG Export Plug-In . SVG Version: 6.00 Build 0)  -->
<svg version="1.1" id="Capa_1" xmlns="http://www.w3.org/2000/svg" xmlns:xlink="http://www.w3.org/1999/xlink" x="0px" y="0px"
	 viewBox="0 0 512 512" style="enable-background:new 0 0 512 512;" xml:space="preserve">
<g>
	<path style="fill:#EDEDED;" d="M0,70.446v189.155c0,116.541,94.475,211.016,211.016,211.016h89.968
		C417.525,470.616,512,376.141,512,259.601V70.446H0z"/>
	<path style="fill:#EDEDED;" d="M512,70.357c0,16.001-114.67,28.973-256,28.973S0.005,86.452,0.005,70.451S114.67,41.383,256,41.383
		S512,54.355,512,70.357z"/>
</g>
<path style="fill:#FAF9F3;" d="M256,99.33C114.67,99.33,0.005,86.452,0.005,70.45c0-0.002,0.001-0.003,0.001-0.005H0v173.194
	c166.389,0,166.147,194.77,152.973,218.89c18.441,5.265,37.912,8.087,58.043,8.087h89.968c20.131,0,39.602-2.822,58.043-8.087
	c-13.174-24.121-13.416-218.89,152.973-218.89V70.446h-0.01C511.565,86.406,397.068,99.33,256,99.33z"/>
<path style="fill:#E8E8E8;" d="M511.99,70.445c-0.173,6.514-19.353,12.521-51.579,17.352v125.212
	c-164.692,0-165.23,228.515-152.427,257.48c0.017-0.001,0.034-0.001,0.05-0.002c0.567-0.019,1.133-0.041,1.698-0.064
	c17.209-0.72,33.885-3.499,49.79-8.099C345.884,442.243,343.549,243.639,512,243.639V70.445H511.99z"/>
<path style="fill:#73E7E6;" d="M381.734,173.188c0-21.767,16.186-40.201,37.79-42.861c6.509-0.801,12.8-1.69,18.846-2.675
	c32-5.214,58.233-12.011,73.63-16.45v89.412c-13.88,0.835-43.746,4.688-74.753,13.979
	C409.569,222.886,381.734,202.082,381.734,173.188L381.734,173.188z"/>
<path style="fill:#65D1CB;" d="M460.411,208.527c21.984-4.986,41.235-7.29,51.589-7.913v-89.412
	c-11.689,3.37-29.628,8.099-51.589,12.462V208.527z"/>
<path style="fill:#73E7E6;" d="M130.266,173.188c0-21.767-16.186-40.201-37.79-42.861c-6.509-0.801-12.8-1.69-18.846-2.675
	c-32-5.214-58.233-12.011-73.63-16.45v89.412c13.88,0.835,43.746,4.688,74.753,13.979
	C102.431,222.886,130.266,202.082,130.266,173.188L130.266,173.188z"/>
<g>
	<circle style="fill:#FAF9F3;" cx="82.37" cy="171.5" r="17.14"/>
	<circle style="fill:#FAF9F3;" cx="429.63" cy="171.5" r="17.14"/>
</g>
<g>
	<path style="fill:#DDDCDB;" d="M152.976,462.525c10.878-19.939,12.93-156.251-80.42-203.107
		C52.737,249.538,28.804,243.639,0,243.639v15.963c0,2.024,0.035,4.039,0.092,6.049c134.648,0.996,156.519,135.102,148.941,195.706
		C150.342,461.759,151.656,462.148,152.976,462.525z"/>
	<path style="fill:#DDDCDB;" d="M359.025,462.525c1.319-0.377,2.633-0.766,3.942-1.167c-7.577-60.604,14.293-194.71,148.941-195.706
		c0.057-2.01,0.092-4.026,0.092-6.049V243.64c-28.804,0-52.737,5.899-72.556,15.779
		C346.095,306.275,348.146,442.586,359.025,462.525z"/>
</g>
<g>
</g>
<g>
</g>
<g>
</g>
<g>
</g>
<g>
</g>
<g>
</g>
<g>
</g>
<g>
</g>
<g>
</g>
<g>
</g>
<g>
</g>
<g>
</g>
<g>
</g>
<g>
</g>
<g>
</g>
</svg>
