<?xml version="1.0" encoding="iso-8859-1"?>
<!-- Generator: Adobe Illustrator 19.0.0, SVG Export Plug-In . SVG Version: 6.00 Build 0)  -->
<svg xmlns="http://www.w3.org/2000/svg" xmlns:xlink="http://www.w3.org/1999/xlink" version="1.1" id="Layer_1" x="0px" y="0px" viewBox="0 0 512 512" style="enable-background:new 0 0 512 512;" xml:space="preserve" width="512" height="512">
<g id="XMLID_1195_">
	<g id="XMLID_1196_">
		<rect id="XMLID_1197_" y="199.718" style="fill:#FAB03C;" width="395.878" height="119.243"/>
		<path id="XMLID_1198_" style="fill:#6D6D6D;" d="M362.109,276.087v30.05h-15.453v-30.05c0-4.265,3.461-7.726,7.726-7.726    S362.109,271.822,362.109,276.087z"/>
		<path id="XMLID_1199_" style="fill:#6D6D6D;" d="M306.994,286.132v20.006h-15.453v-20.006c0-4.265,3.461-7.726,7.726-7.726    C303.533,278.405,306.994,281.867,306.994,286.132z"/>
		<path id="XMLID_1200_" style="fill:#6D6D6D;" d="M252.909,292.313v13.825h-15.453v-13.825c0-0.628,0.072-1.247,0.227-1.823    c0.814-3.389,3.863-5.903,7.5-5.903c3.915,0,7.149,2.915,7.654,6.696C252.889,291.622,252.909,291.962,252.909,292.313z"/>
		<path id="XMLID_1201_" style="fill:#FD8F3E;" d="M97.383,260.385c-0.093,0.165-0.175,0.412-0.196,0.608    c0.051,0.031,0.123,0.062,0.206,0.093c49.541,19.769,112.959,30.648,178.572,30.648c42.134,0,82.981-4.409,119.913-12.754v39.981    H0V199.718h395.878v25.322c-10.972,10.189-29.216,18.904-54.62,26.074c-38.436,10.848-89.337,16.823-143.319,16.823    c-35.201,0-69.867-2.596-100.237-7.51C97.558,260.395,97.455,260.395,97.383,260.385z"/>
		<path id="XMLID_1202_" style="fill:#565656;" d="M252.837,291.283c0.052,0.34,0.072,0.68,0.072,1.03v13.825h-15.453v-13.825    c0-0.628,0.072-1.247,0.227-1.823C242.711,290.819,247.759,291.087,252.837,291.283z"/>
		<path id="XMLID_1203_" style="fill:#565656;" d="M291.541,291.53c5.182-0.134,10.333-0.33,15.453-0.598v15.205h-15.453V291.53z"/>
		<path id="XMLID_1204_" style="fill:#565656;" d="M362.109,285.349v20.789h-15.453v-18.657    C351.858,286.842,357.009,286.132,362.109,285.349z"/>
		<path id="XMLID_1205_" style="fill:#F6CB43;" d="M512,296.402v64.469c0,10.889-5.8,20.933-15.195,26.445    c-22.51,13.207-50.355,24.364-82.013,32.729c-19.563,5.182-40.579,9.303-62.707,12.187c-5.089,0.67-10.24,1.267-15.453,1.803    c-19.543,1.999-39.837,3.049-60.667,3.049h-0.834c-5.182-0.01-10.333-0.082-15.453-0.227c-21.212-0.556-41.805-2.215-61.502-4.852    c-5.223-0.69-10.374-1.453-15.453-2.287c-21.86-3.575-42.485-8.365-61.502-14.206c-5.274-1.617-10.436-3.317-15.453-5.099    c-23.715-8.375-44.493-18.471-61.502-29.886c-5.563-3.74-10.724-7.613-15.453-11.62c-11.517-9.756-20.459-20.264-26.403-31.328    C0.814,334.602,0,331.274,0,327.895V199.72c0-13.434,16.813-25.765,44.833-35.407c36.304-12.486,91.408-20.449,153.106-20.449    c61.708,0,116.823,7.963,153.116,20.459c28.021,9.632,44.823,21.963,44.823,35.397c0,30.854-88.616,55.856-197.939,55.856    c-35.758,0-69.3-2.668-98.259-7.355c-14.989-2.421-20.964,18.729-6.861,24.353c49.274,19.656,113.238,31.524,183.146,31.524    c50.479,0,97.846-6.191,138.827-17.029c19.687-5.202,37.9-11.486,54.27-18.667C489.305,259.522,512,274.305,512,296.402z"/>
		<path id="XMLID_1206_" style="fill:#FAB03C;" d="M351.055,164.321v22.19c0,16.349-16.988,29.02-50.5,37.674    c-27.568,7.119-64.005,11.044-102.616,11.044c-38.611,0-75.049-3.925-102.616-11.044c-33.502-8.654-50.489-21.325-50.489-37.674    v-22.2c36.304-12.486,91.408-20.449,153.106-20.449C259.647,143.861,314.762,151.825,351.055,164.321z"/>
		<path id="XMLID_1207_" style="fill:#FAB03C;" d="M512,296.402v64.469c0,10.889-5.8,20.933-15.195,26.445    c-22.51,13.207-50.355,24.364-82.013,32.729V287.069c19.687-5.202,37.9-11.486,54.27-18.667    C489.305,259.522,512,274.305,512,296.402z"/>
		<path id="XMLID_1208_" style="fill:#82807F;" d="M512,296.398v64.467c0,10.912-5.832,20.956-15.245,26.476    c-19.526,11.449-43.051,21.349-69.6,29.24V283.605c15.027-4.466,29.085-9.577,41.997-15.247    C489.353,259.488,512,274.335,512,296.398z"/>
		<ellipse id="XMLID_1627_" style="fill:#565656;" cx="469.577" cy="334.898" rx="13.774" ry="25.395"/>
		<path id="XMLID_1209_" style="fill:#FD8F3E;" d="M92.82,271.814c-0.941,0-1.896-0.173-2.824-0.538    c-1.659-0.651-40.835-16.288-59.864-44.492c-2.387-3.537-1.455-8.34,2.082-10.726c3.536-2.387,8.34-1.455,10.726,2.083    c16.373,24.266,52.346,38.611,52.707,38.754c3.972,1.561,5.926,6.046,4.365,10.017C98.817,269.955,95.903,271.814,92.82,271.814z"/>
		<g id="XMLID_1210_">
			<path id="XMLID_1211_" style="fill:#F6CB43;" d="M338.693,111.269v75.244c0,8.18-10.446,15.731-28.093,21.788     c-4.667,1.617-9.838,3.121-15.453,4.502c-10.838,2.678-23.313,4.904-37.014,6.583c-4.996,0.608-10.147,1.143-15.453,1.607     c-11.724,1.01-24.137,1.638-37.014,1.813c-2.555,0.041-5.13,0.062-7.726,0.062c-2.596,0-5.172-0.021-7.726-0.062     c-12.877-0.175-25.291-0.804-37.014-1.813c-5.295-0.464-10.456-0.999-15.453-1.607c-13.701-1.679-26.177-3.915-37.014-6.593     c-5.614-1.37-10.786-2.874-15.453-4.492c-17.637-6.068-28.083-13.609-28.083-21.788v-75.244H338.693z"/>
			<g id="XMLID_1212_">
				<ellipse id="XMLID_1624_" style="fill:#F8E98E;" cx="197.941" cy="111.272" rx="140.748" ry="36.356"/>
			</g>
			<g id="XMLID_1213_">
				<ellipse id="XMLID_1622_" style="fill:#FAB03C;" cx="197.941" cy="113.085" rx="92.347" ry="13.617"/>
			</g>
		</g>
	</g>
	<path id="XMLID_1214_" style="fill:#82807F;" d="M44.267,305.097v75.43c-5.563-3.74-10.724-7.613-15.453-11.62v-63.809   c0-4.265,3.451-7.726,7.726-7.726C40.805,297.371,44.267,300.832,44.267,305.097z"/>
	<path id="XMLID_1215_" style="fill:#82807F;" d="M121.221,341.154v74.359c-5.274-1.617-10.436-3.317-15.453-5.099v-69.259   c0-4.265,3.451-7.726,7.726-7.726C117.76,333.427,121.221,336.889,121.221,341.154z"/>
	<path id="XMLID_1216_" style="fill:#82807F;" d="M198.176,358.667v73.339c-5.223-0.69-10.374-1.453-15.453-2.287v-71.052   c0-4.265,3.461-7.726,7.726-7.726S198.176,354.402,198.176,358.667z"/>
	<path id="XMLID_1217_" style="fill:#82807F;" d="M275.131,365.826v71.258c-5.182-0.01-10.333-0.082-15.453-0.227v-71.031   c0-4.265,3.461-7.726,7.726-7.726C271.669,358.1,275.131,361.561,275.131,365.826z"/>
	<path id="XMLID_1218_" style="fill:#82807F;" d="M352.085,362.736v69.496c-5.089,0.67-10.24,1.267-15.453,1.803v-71.299   c0-4.265,3.461-7.726,7.726-7.726C348.624,355.01,352.085,358.471,352.085,362.736z"/>
	<g id="XMLID_1219_">
		<path id="XMLID_1220_" style="fill:#82807F;" d="M100.731,173.296v39.497c-5.614-1.37-10.786-2.874-15.453-4.492v-35.006    c0-4.265,3.461-7.726,7.726-7.726C97.28,165.57,100.731,169.031,100.731,173.296z"/>
		<path id="XMLID_1221_" style="fill:#82807F;" d="M153.198,184.144v36.85c-5.295-0.464-10.456-0.999-15.453-1.607v-35.243    c0-4.275,3.462-7.726,7.726-7.726C149.737,176.417,153.198,179.868,153.198,184.144z"/>
		<path id="XMLID_1222_" style="fill:#82807F;" d="M205.665,188.388v34.418c-2.555,0.041-5.13,0.062-7.726,0.062    c-2.596,0-5.172-0.021-7.726-0.062v-34.418c0-4.265,3.461-7.726,7.726-7.726S205.665,184.123,205.665,188.388z"/>
		<path id="XMLID_1223_" style="fill:#82807F;" d="M258.133,189.356v30.03c-4.996,0.608-10.147,1.143-15.453,1.607v-31.637    c0-4.265,3.461-7.726,7.726-7.726C254.671,181.63,258.133,185.091,258.133,189.356z"/>
		<path id="XMLID_1224_" style="fill:#82807F;" d="M310.6,183.732v24.57c-4.667,1.617-9.838,3.121-15.453,4.502v-29.072    c0-4.275,3.461-7.726,7.726-7.726C307.138,176.005,310.6,179.456,310.6,183.732z"/>
	</g>
</g>















</svg>
