<?xml version="1.0" encoding="iso-8859-1"?>
<!-- Generator: Adobe Illustrator 19.0.0, SVG Export Plug-In . SVG Version: 6.00 Build 0)  -->
<svg version="1.1" id="Capa_1" xmlns="http://www.w3.org/2000/svg" xmlns:xlink="http://www.w3.org/1999/xlink" x="0px" y="0px"
	 viewBox="0 0 512 512" style="enable-background:new 0 0 512 512;" xml:space="preserve">
<path style="fill:#55B5E0;" d="M374.361,118.355h74.888c33.594,0,59.831,29.017,56.466,62.443l-28.191,280.127
	C474.598,489.921,450.189,512,421.047,512H90.953c-29.142,0-53.551-22.079-56.466-51.075L6.285,180.798
	c-3.365-33.426,22.883-62.443,56.477-62.443h74.888"/>
<circle style="fill:#FCE381;" cx="256.001" cy="118.356" r="118.356"/>
<path style="fill:#CAF1FC;" d="M342.251,118.355c0,22.079-8.297,42.214-21.943,57.469c-7.199-8.046-15.862-14.733-25.6-19.623
	c-11.64-5.851-24.785-9.153-38.703-9.153c-25.558,0-48.525,11.118-64.314,28.777c-13.636-15.256-21.932-35.391-21.932-57.469
	c0-40.971,28.557-75.264,66.863-84.052c0.188-0.052,0.387-0.094,0.575-0.136c6.05-1.348,12.351-2.058,18.808-2.058
	C303.632,32.109,342.251,70.718,342.251,118.355z"/>
<path style="fill:#A7E6FC;" d="M303.444,118.355c0,13.584-3.135,26.426-8.735,37.846c-11.64-5.851-24.785-9.153-38.703-9.153
	c-25.558,0-48.525,11.118-64.314,28.777c-13.636-15.256-21.932-35.391-21.932-57.469c0-40.971,28.557-75.264,66.863-84.052
	C274.897,43.112,303.444,77.395,303.444,118.355z"/>
<path style="fill:#E29F33;" d="M320.309,183.661C320.309,183.661,320.308,183.661,320.309,183.661c-2.231,0-4.355-0.951-5.842-2.613
	c-14.867-16.627-36.175-26.163-58.461-26.163c-22.293,0-43.605,9.536-58.472,26.163c-1.486,1.662-3.611,2.613-5.842,2.613l0,0
	c-2.231,0-4.355-0.951-5.842-2.614c-15.429-17.262-23.926-39.526-23.926-62.692c0-51.877,42.206-94.083,94.083-94.083
	s94.083,42.206,94.083,94.083c0,23.171-8.501,45.436-23.939,62.694C324.663,182.711,322.538,183.661,320.309,183.661z
	 M256.006,139.211c23.672,0,46.422,8.963,63.704,24.859c9.533-13.265,14.705-29.213,14.705-45.714
	c0-43.235-35.174-78.409-78.409-78.409s-78.409,35.174-78.409,78.409c0,16.498,5.17,32.445,14.697,45.713
	C209.577,148.174,232.33,139.211,256.006,139.211z"/>
<path style="fill:#595C63;" d="M256.006,126.194c-3.059,0-5.965-1.802-7.227-4.798l-16.715-39.706
	c-1.679-3.989,0.193-8.584,4.183-10.264c3.99-1.68,8.584,0.193,10.263,4.183l16.715,39.706c1.679,3.989-0.193,8.584-4.183,10.264
	C258.05,125.995,257.019,126.194,256.006,126.194z"/>
<g>
	<path style="fill:#188EB7;" d="M420.054,306.437H89.866c-13.273,0-24.033-10.759-24.033-24.033l0,0
		c0-13.273,10.759-24.033,24.033-24.033h330.188c13.273,0,24.033,10.759,24.033,24.033l0,0
		C444.087,295.677,433.328,306.437,420.054,306.437z"/>
	<path style="fill:#188EB7;" d="M406.247,387.939H103.674c-13.273,0-24.033-10.759-24.033-24.033l0,0
		c0-13.273,10.759-24.033,24.033-24.033h302.572c13.273,0,24.033,10.759,24.033,24.033l0,0
		C430.28,377.18,419.52,387.939,406.247,387.939z"/>
	<path style="fill:#188EB7;" d="M396.708,469.441H113.213c-13.273,0-24.033-10.759-24.033-24.033l0,0
		c0-13.273,10.759-24.033,24.033-24.033h283.495c13.273,0,24.033,10.759,24.033,24.033l0,0
		C420.741,458.682,409.981,469.441,396.708,469.441z"/>
</g>
<g>
</g>
<g>
</g>
<g>
</g>
<g>
</g>
<g>
</g>
<g>
</g>
<g>
</g>
<g>
</g>
<g>
</g>
<g>
</g>
<g>
</g>
<g>
</g>
<g>
</g>
<g>
</g>
<g>
</g>
</svg>
