<svg id="Capa_1" enable-background="new 0 0 512 512" height="512" viewBox="0 0 512 512" width="512" xmlns="http://www.w3.org/2000/svg"><g><path d="m332.946 287.024c-94.742.151-172.515-76.968-173.128-171.707-.158-24.42 4.749-47.677 13.731-68.781 4.7-11.042-7.305-21.805-17.626-15.681-59.401 35.244-99.42 99.716-100.225 173.606-1.231 113.025 91.335 206.649 204.366 206.649 92.319 0 170.338-61.212 195.692-145.262 3.441-11.407-9.803-20.582-19.327-13.422-28.827 21.671-64.654 34.537-103.483 34.598z" fill="#eec06b"/><path d="m448.053 250.672c-31.199 72.961-103.617 124.091-187.988 124.092-106.141.001-194.229-82.558-203.556-186.212-.463 5.251-.751 10.552-.81 15.909-1.231 113.025 91.335 206.649 204.366 206.649 92.319 0 170.337-61.212 195.692-145.262 2.099-6.96-2.016-13.081-7.704-15.176z" fill="#e9a52d"/><path d="m270.357 281.167v129.677c66.699-3.31 124.979-38.588 159.835-90.836-.487-19.691-8.512-37.501-21.314-50.659-22.912 11.275-48.681 17.632-75.932 17.676-22.188.035-43.445-4.168-62.998-11.842.261 1.971.409 3.967.409 5.984z" fill="#e9a52d"/><path d="m208.627 234.258c5.39 5.569 11.152 10.779 17.244 15.59 11.104 8.767 17.677 22.059 17.677 36.207v211.44c0 8.011 6.494 14.505 14.505 14.505h36.263c28.952 0 52.423-23.471 52.423-52.423v-13.835h17.361c21.722 0 39.331-17.609 39.331-39.331v-79.621c0-41.636-33.753-75.389-75.389-75.389h-31.558v-2.701c0-22.962-22.945-38.848-44.438-30.767z" fill="#ddebfd"/><g fill="#bed9fd"><path d="m328.041 251.401h-25.944c41.636 0 75.389 33.753 75.389 75.389v79.621c0 21.722-17.609 39.331-39.331 39.331h-3.525c-7.641 0-13.835 6.194-13.835 13.835 0 28.952-23.471 52.423-52.423 52.423h25.944c28.952 0 52.423-23.47 52.423-52.423v-13.835h17.361c21.722 0 39.331-17.609 39.331-39.331v-79.621c0-41.636-33.753-75.389-75.39-75.389z"/><path d="m303.588 325.051c3.924 0 7.104-3.18 7.104-7.104v-66.546h-14.208v66.546c0 3.924 3.18 7.104 7.104 7.104z"/><path d="m353.844 367.201c-3.924 0-7.104 3.18-7.104 7.104v71.437h14.208v-71.437c0-3.924-3.181-7.104-7.104-7.104z"/></g><path d="m340.139 184.891h-28.883c-3.735 0-7.179-2.031-8.987-5.299-1.809-3.269-1.699-7.265.286-10.43l23.819-37.94h-19.928c-4.204 0-7.611-3.408-7.611-7.611s3.407-7.611 7.611-7.611h28.884c3.736 0 7.18 2.031 8.988 5.301s1.697 7.267-.29 10.431l-23.817 37.937h19.928c4.204 0 7.611 3.408 7.611 7.611s-3.407 7.611-7.611 7.611zm-4.809-53.669h.01z" fill="#8c818f"/><path d="m296.932 68.892h-28.883c-3.735 0-7.179-2.031-8.987-5.299-1.809-3.269-1.699-7.266.286-10.43l23.819-37.94h-19.928c-4.204 0-7.611-3.408-7.611-7.611s3.407-7.612 7.611-7.612h28.884c3.736 0 7.18 2.031 8.988 5.301s1.697 7.267-.29 10.431l-23.817 37.937h19.928c4.204 0 7.612 3.408 7.612 7.611s-3.408 7.612-7.612 7.612zm-4.809-53.669h.01z" fill="#8c818f"/><path d="m430.24 120.148h-28.883c-3.736 0-7.181-2.031-8.989-5.301s-1.697-7.266.29-10.431l23.817-37.937h-19.928c-4.204 0-7.612-3.408-7.612-7.611s3.407-7.611 7.612-7.611h28.884c3.736 0 7.18 2.031 8.988 5.301s1.697 7.267-.29 10.431l-23.817 37.937h19.928c4.204 0 7.612 3.408 7.612 7.611s-3.408 7.611-7.612 7.611zm-4.809-53.669h.01z" fill="#8c818f"/></g></svg>