<svg width="512" height="512" viewBox="0 0 512 512" fill="none" xmlns="http://www.w3.org/2000/svg">
<path d="M340.689 449.531C351.652 438.568 356.609 423.873 355.563 409.534C369.901 410.581 384.596 405.624 395.56 394.66C405.556 384.664 410.56 371.565 410.571 358.463V314.856C410.571 300.352 404.757 287.204 395.333 277.619C385.696 267.816 372.284 261.737 357.451 261.737H335.538L258.544 295.582L176.477 261.737H154.564C139.732 261.737 126.32 267.817 116.684 277.619C107.259 287.205 101.445 300.352 101.445 314.856V355.935L162.453 422.649C162.453 423.185 162.74 423.68 163.204 423.947L248.011 511.977H258.545C271.139 511.597 283.619 506.602 293.232 496.99L340.689 449.531Z" fill="#8993DA"/>
<path d="M289.648 505.452L378.941 453.898C398.515 442.596 410.574 421.709 410.574 399.106V358.462C410.564 371.565 358.109 398.785 343.77 397.738C343.77 397.738 271.141 511.597 258.547 511.976H264.022C272.71 512.205 281.568 510.116 289.648 505.452Z" fill="#FFDDCE"/>
<path d="M154.79 363.976C150.35 363.976 146.75 360.376 146.75 355.936V317.974C146.75 313.532 150.35 309.934 154.79 309.934C159.231 309.934 162.83 313.533 162.83 317.974V355.936C162.831 360.376 159.231 363.976 154.79 363.976Z" fill="#707DD3"/>
<path d="M308.692 261.737C304.494 261.737 301.09 258.334 301.09 254.135V228.947H210.924V254.135C210.924 258.333 207.521 261.737 203.322 261.737H176.477L204.554 290.749C232.695 319.825 279.32 319.825 307.459 290.749L335.537 261.737H308.692Z" fill="#FFECE4"/>
<path d="M349.085 142.6H336.686L322.242 146.216L330.988 193.394H333.463C351.034 193.394 365.276 179.15 365.276 161.581V158.792C365.276 149.849 358.027 142.6 349.085 142.6Z" fill="#FFCBBE"/>
<path d="M288.528 48.8772C290.381 44.6126 291.408 39.9079 291.408 34.9617C291.408 15.6524 275.755 0 256.446 0C237.137 0 221.484 15.6524 221.484 34.9617C221.484 41.5115 223.287 47.6409 226.42 52.8816L288.528 48.8772Z" fill="#C67D66"/>
<path d="M162.941 142.6H168.266L189.256 156.896L181.038 193.393H178.563C160.992 193.393 146.75 179.149 146.75 161.58V158.791C146.75 149.849 153.999 142.6 162.941 142.6Z" fill="#FFDDCE"/>
<path d="M215.698 95.5664L334.649 143.651L330.324 202.371C327.457 241.295 279.471 268.268 256.013 268.268C232.554 268.268 184.569 241.295 181.702 202.371L178.258 155.599L215.698 95.5664Z" fill="#FFECE4"/>
<path d="M319.785 139.319L289.906 147.409L287.437 180.93C284.57 219.853 236.585 246.827 213.126 246.827C211.109 246.827 208.907 246.623 206.57 246.234C222.734 260.086 243.089 268.268 256.008 268.268C279.467 268.268 327.452 241.295 330.319 202.371L334.644 143.651L319.785 139.319Z" fill="#FFDDCE"/>
<path d="M257.23 511.999C270.264 511.937 283.28 506.934 293.225 496.989L340.683 449.531C351.646 438.568 356.604 423.873 355.557 409.534C343.718 408.669 332.124 403.711 323.072 394.66C314.02 385.608 309.063 374.013 308.198 362.175C293.86 361.128 279.165 366.086 268.201 377.049L220.743 424.507C218.814 426.435 217.072 428.48 215.516 430.616L248.005 511.975L257.23 511.999Z" fill="#E28086"/>
<path d="M355.568 409.534C343.729 408.669 309.074 374.013 308.209 362.175C297.489 361.392 286.572 363.968 277.162 369.898C278.12 371.037 279.129 372.146 280.201 373.218C283.604 376.621 287.366 379.445 291.366 381.691C308.162 391.123 311.639 414.018 298.139 427.76C298.03 427.87 297.921 427.98 297.812 428.09L266.091 459.811L248.016 511.976L257.241 511.999C270.275 511.937 283.291 506.934 293.236 496.989L340.694 449.531C351.657 438.568 356.616 423.873 355.568 409.534Z" fill="#DD636E"/>
<path d="M289.001 487.598C292.481 481.568 290.416 473.858 284.386 470.377L163.578 400.628C163.114 400.361 162.828 399.865 162.828 399.33V355.936H101.445V399.108C101.445 421.712 113.504 442.598 133.079 453.9L222.372 505.453C229.65 509.655 237.561 511.768 245.41 511.978H248.01C264.408 511.541 280.199 502.844 289.001 487.598Z" fill="#FFECE4"/>
<path d="M192.386 69.6791C200.693 61.0053 215.341 66.9027 215.341 78.9128C215.341 60.3372 229.461 44.6984 247.965 43.0614C250.247 42.8595 252.557 42.743 254.893 42.7138C303.696 42.1165 343.003 80.9192 344.33 128.464C344.553 136.435 338.902 143.366 331.042 144.71L319.779 146.635C279.405 153.536 238.72 136.23 215.688 102.359C206.892 126.521 194.454 142.74 182.038 153.723C177.053 158.133 169.161 154.845 168.671 148.208L167.956 138.506C165.995 111.835 175.546 87.2599 192.386 69.6791Z" fill="#D09080"/>
<path d="M359.322 409.672C387.628 409.672 410.574 386.726 410.574 358.42C410.574 330.114 387.628 307.168 359.322 307.168C331.017 307.168 308.07 330.114 308.07 358.42C308.07 386.726 331.017 409.672 359.322 409.672Z" fill="#FFECE4"/>
<path d="M359.095 387.144C352.747 387.144 346.399 384.728 341.567 379.896C338.426 376.757 338.426 371.666 341.566 368.525C344.705 365.384 349.796 365.383 352.937 368.524C356.333 371.921 361.858 371.922 365.255 368.524C368.649 365.128 368.649 359.604 365.254 356.207C362.114 353.067 362.114 347.976 365.254 344.836C368.393 341.697 373.484 341.696 376.625 344.837C386.29 354.502 386.29 370.229 376.625 379.894C371.792 384.728 365.443 387.144 359.095 387.144Z" fill="#FFDDCE"/>
</svg>
