<svg width="512" height="512" viewBox="0 0 512 512" fill="none" xmlns="http://www.w3.org/2000/svg">
<path d="M271.003 44.4701V92.4743C271.003 100.755 264.282 107.476 256.001 107.476C247.721 107.476 241 100.755 241 92.4743V44.4701C241 36.1893 247.721 29.4688 256.001 29.4688C264.282 29.4688 271.003 36.1893 271.003 44.4701Z" fill="#535E7E"/>
<path d="M271.001 44.4701V92.4743C271.001 100.755 264.281 107.476 256 107.476V29.4688C264.281 29.4688 271.001 36.1893 271.001 44.4701Z" fill="#424765"/>
<path d="M455.756 230.026C444.525 188.852 420.493 151.679 387.23 124.387C350.377 94.1341 303.762 77.4727 255.998 77.4727C208.234 77.4727 161.62 94.1341 124.767 124.387C91.5038 151.679 67.4717 188.852 56.2407 230.026C29.5584 233.806 8.97656 256.788 8.97656 284.491C8.97656 312.193 29.5584 335.175 56.2407 338.956C67.4717 380.129 91.5038 417.303 124.767 444.595C161.62 474.848 208.234 491.509 255.998 491.509C303.762 491.509 350.377 474.848 387.23 444.595C420.493 417.303 444.525 380.129 455.756 338.956C482.438 335.175 503.02 312.193 503.02 284.491C503.02 256.788 482.438 233.806 455.756 230.026Z" fill="#F2CDBE"/>
<path d="M503.022 284.491C503.022 312.193 482.44 335.175 455.758 338.956C444.527 380.129 420.494 417.303 387.232 444.595C350.378 474.848 303.764 491.509 256 491.509V77.4727C303.764 77.4727 350.378 94.1341 387.232 124.387C420.494 151.679 444.527 188.852 455.758 230.026C482.44 233.806 503.022 256.788 503.022 284.491Z" fill="#EFBEAA"/>
<path d="M256 316C223.469 316 197 343.399 197 377.071V377.714C197 388.347 205.359 397 215.632 397H296.368C306.641 397 315 388.347 315 377.714V377.071C315 343.399 288.531 316 256 316Z" fill="#E19480"/>
<path d="M315 377.071V377.714C315 388.347 306.641 397 296.368 397H256V316C288.531 316 315 343.399 315 377.071Z" fill="#D37F6C"/>
<path d="M277.005 248.476C277.005 246.221 277.515 243.933 278.592 241.78L302.594 193.775C304.985 188.992 309.741 185.844 315.079 185.512C320.415 185.179 325.526 187.713 328.492 192.162L360.495 240.166C365.09 247.059 363.227 256.374 356.334 260.969C349.441 265.566 340.127 263.703 335.532 256.809L317.868 230.314L305.426 255.197C301.722 262.607 292.71 265.611 285.3 261.905C280.044 259.277 277.005 253.979 277.005 248.476Z" fill="#EAA58F"/>
<path d="M234.996 248.476C234.997 253.979 231.958 259.277 226.7 261.905C219.291 265.61 210.279 262.607 206.575 255.196L194.132 230.313L176.469 256.809C171.873 263.703 162.56 265.565 155.666 260.969C148.771 256.374 146.91 247.06 151.506 240.166L183.508 192.162C186.475 187.712 191.585 185.178 196.922 185.511C202.259 185.843 207.017 188.991 209.407 193.775L233.409 241.779C234.487 243.932 234.996 246.222 234.996 248.476Z" fill="#EFBEAA"/>
</svg>
