<svg width="512" height="512" viewBox="0 0 512 512" fill="none" xmlns="http://www.w3.org/2000/svg">
<g clip-path="url(#clip0_1211_675)">
<path d="M271.003 44.4701V92.4743C271.003 100.755 264.282 107.476 256.001 107.476C247.721 107.476 241 100.755 241 92.4743V44.4701C241 36.1893 247.721 29.4688 256.001 29.4688C264.282 29.4688 271.003 36.1893 271.003 44.4701Z" fill="#535E7E"/>
<path d="M271.001 44.4701V92.4743C271.001 100.755 264.281 107.476 256 107.476V29.4688C264.281 29.4688 271.001 36.1893 271.001 44.4701Z" fill="#424765"/>
<path d="M455.756 230.027C444.525 188.853 420.493 151.68 387.23 124.388C350.377 94.1351 303.762 77.4736 255.998 77.4736C208.234 77.4736 161.62 94.1351 124.767 124.388C91.5038 151.68 67.4717 188.853 56.2407 230.027C29.5584 233.807 8.97656 256.789 8.97656 284.492C8.97656 312.194 29.5584 335.176 56.2407 338.957C67.4717 380.13 91.5038 417.303 124.767 444.596C161.62 474.849 208.234 491.51 255.998 491.51C303.762 491.51 350.377 474.849 387.23 444.596C420.493 417.303 444.525 380.13 455.756 338.957C482.438 335.176 503.02 312.194 503.02 284.492C503.02 256.789 482.438 233.807 455.756 230.027Z" fill="#F2CDBE"/>
<path d="M503.022 284.492C503.022 312.194 482.44 335.176 455.758 338.957C444.527 380.13 420.494 417.303 387.232 444.596C350.378 474.849 303.764 491.51 256 491.51V77.4736C303.764 77.4736 350.378 94.1351 387.232 124.388C420.494 151.68 444.527 188.853 455.758 230.027C482.44 233.807 503.022 256.789 503.022 284.492Z" fill="#EFBEAA"/>
<path d="M256.001 293.492C203.616 293.492 160.992 336.116 160.992 388.501V389.501C160.992 406.042 174.453 419.503 190.995 419.503H321.006C337.548 419.503 351.009 406.042 351.009 389.501V388.501C351.009 336.116 308.385 293.492 256.001 293.492Z" fill="#E19480"/>
<path d="M351.008 388.501V389.501C351.008 406.042 337.547 419.503 321.006 419.503H256V293.492C308.385 293.492 351.008 336.116 351.008 388.501Z" fill="#D37F6C"/>
<path d="M271.003 372.499V419.503H241V372.499C241 364.219 247.721 357.498 256.001 357.498C264.282 357.498 271.003 364.219 271.003 372.499Z" fill="#CF5C8F"/>
<path d="M271.001 372.499V419.503H256V357.498C264.281 357.498 271.001 364.219 271.001 372.499Z" fill="#C74179"/>
<path d="M343.994 267.493C341.739 267.493 339.45 266.982 337.297 265.905L289.293 241.903C284.51 239.512 281.361 234.756 281.029 229.418C280.696 224.082 283.23 218.971 287.68 216.005L335.684 184.002C342.577 179.407 351.891 181.27 356.487 188.163C361.083 195.056 359.22 204.37 352.326 208.965L325.831 226.629L350.714 239.071C358.125 242.775 361.128 251.787 357.423 259.197C354.795 264.453 349.496 267.493 343.994 267.493Z" fill="#EAA58F"/>
<path d="M168.001 267.493C162.497 267.494 157.2 264.455 154.572 259.197C150.866 251.788 153.869 242.776 161.28 239.072L186.163 226.629L159.668 208.966C152.773 204.371 150.911 195.057 155.508 188.163C160.103 181.268 169.417 179.407 176.31 184.003L224.315 216.006C228.764 218.972 231.298 224.082 230.965 229.419C230.633 234.756 227.486 239.514 222.702 241.904L174.697 265.906C172.544 266.984 170.255 267.493 168.001 267.493Z" fill="#EFBEAA"/>
<path d="M456.038 451.507C447.753 451.507 441.031 444.79 441.031 436.505C441.031 428.22 447.743 421.504 456.028 421.504H456.038C464.323 421.504 471.039 428.22 471.039 436.505C471.039 444.79 464.323 451.507 456.038 451.507Z" fill="#8BC8DE"/>
<path d="M480.038 187.483C471.753 187.483 465.031 180.767 465.031 172.482C465.031 164.197 471.743 157.48 480.028 157.48H480.038C488.323 157.48 495.039 164.197 495.039 172.482C495.039 180.767 488.323 187.483 480.038 187.483Z" fill="#8BC8DE"/>
<path d="M424.016 123.477C420.052 123.477 416.233 121.907 413.41 119.083C410.321 115.994 408.731 111.711 409.058 107.355C410.041 94.2167 414.465 50.1388 430.075 34.5275C448.794 15.8108 479.249 15.8118 497.965 34.5265C497.965 34.5275 497.965 34.5275 497.966 34.5275C516.682 53.2451 516.682 83.6988 497.966 102.416C482.354 118.027 438.275 122.451 425.138 123.435C424.763 123.464 424.389 123.477 424.016 123.477Z" fill="#8BC8DE"/>
<path d="M64.0063 451.507C55.7216 451.507 49 444.79 49 436.505C49 428.22 55.7116 421.504 63.9963 421.504H64.0063C72.292 421.504 79.0076 428.22 79.0076 436.505C79.0076 444.79 72.292 451.507 64.0063 451.507Z" fill="#9EDEE2"/>
<path d="M31.9985 187.483C23.7138 187.483 16.9922 180.767 16.9922 172.482C16.9922 164.197 23.7038 157.48 31.9885 157.48H31.9985C40.2842 157.48 46.9998 164.197 46.9998 172.482C46.9998 180.767 40.2842 187.483 31.9985 187.483Z" fill="#9EDEE2"/>
<path d="M87.987 123.477C87.6139 123.477 87.2399 123.463 86.8659 123.435C73.7277 122.452 29.6499 118.028 14.0385 102.417C-4.67916 83.6998 -4.67916 53.2461 14.0365 34.5284C32.7551 15.8118 63.2098 15.8128 81.9264 34.5274L81.9274 34.5284C97.5368 50.1398 101.961 94.2187 102.945 107.356C103.271 111.711 101.682 115.995 98.5929 119.084C95.7697 121.907 91.9493 123.477 87.987 123.477Z" fill="#9EDEE2"/>
</g>
<defs>
<clipPath id="clip0_1211_675">
<rect width="512" height="512" fill="white"/>
</clipPath>
</defs>
</svg>
