<svg width="512" height="512" viewBox="0 0 512 512" fill="none" xmlns="http://www.w3.org/2000/svg">
<path d="M0 70.4463V259.601C0 376.142 94.475 470.617 211.016 470.617H300.984C417.525 470.616 512 376.141 512 259.601V70.4463H0Z" fill="#EDEDED"/>
<path d="M512.003 70.3568C512.003 86.3578 397.333 99.3298 256.003 99.3298C114.673 99.3298 0.0078125 86.4518 0.0078125 70.4508C0.0078125 54.4498 114.673 41.3828 256.003 41.3828C397.333 41.3828 512.003 54.3548 512.003 70.3568Z" fill="#EDEDED"/>
<path d="M256 99.3303C114.67 99.3303 0.005 86.4523 0.005 70.4503C0.005 70.4483 0.006 70.4473 0.006 70.4453H0V243.639C166.389 243.639 166.147 438.409 152.973 462.529C171.414 467.794 190.885 470.616 211.016 470.616H300.984C321.115 470.616 340.586 467.794 359.027 462.529C345.853 438.408 345.611 243.639 512 243.639V70.4463H511.99C511.565 86.4063 397.068 99.3303 256 99.3303Z" fill="#FAF9F3"/>
<path d="M511.993 70.4453C511.82 76.9593 492.64 82.9663 460.414 87.7973V213.009C295.722 213.009 295.184 441.524 307.987 470.489C308.004 470.488 308.021 470.488 308.037 470.487C308.604 470.468 309.17 470.446 309.735 470.423C326.944 469.703 343.62 466.924 359.525 462.324C345.887 442.243 343.552 243.639 512.003 243.639V70.4453H511.993Z" fill="#E8E8E8"/>
<path d="M381.734 173.188C381.734 151.421 397.92 132.987 419.524 130.327C426.033 129.526 432.324 128.637 438.37 127.652C470.37 122.438 496.603 115.641 512 111.202V200.614C498.12 201.449 468.254 205.302 437.247 214.593C409.569 222.886 381.734 202.082 381.734 173.188Z" fill="#73E7E6"/>
<path d="M460.414 208.527C482.398 203.541 501.649 201.237 512.003 200.614V111.202C500.314 114.572 482.375 119.301 460.414 123.664V208.527Z" fill="#65D1CB"/>
<path d="M130.266 173.188C130.266 151.421 114.08 132.987 92.476 130.327C85.967 129.526 79.676 128.637 73.63 127.652C41.63 122.438 15.397 115.641 0 111.202V200.614C13.88 201.449 43.746 205.302 74.753 214.593C102.431 222.886 130.266 202.082 130.266 173.188Z" fill="#73E7E6"/>
<path d="M82.3666 188.64C91.8327 188.64 99.5066 180.967 99.5066 171.5C99.5066 162.034 91.8327 154.36 82.3666 154.36C72.9004 154.36 65.2266 162.034 65.2266 171.5C65.2266 180.967 72.9004 188.64 82.3666 188.64Z" fill="#FAF9F3"/>
<path d="M429.624 188.64C439.091 188.64 446.764 180.967 446.764 171.5C446.764 162.034 439.091 154.36 429.624 154.36C420.158 154.36 412.484 162.034 412.484 171.5C412.484 180.967 420.158 188.64 429.624 188.64Z" fill="#FAF9F3"/>
<path d="M152.976 462.525C163.854 442.586 165.906 306.274 72.556 259.418C52.737 249.538 28.804 243.639 0 243.639V259.602C0 261.626 0.035 263.641 0.092 265.651C134.74 266.647 156.611 400.753 149.033 461.357C150.342 461.759 151.656 462.148 152.976 462.525Z" fill="#DDDCDB"/>
<path d="M359.022 462.525C360.341 462.148 361.655 461.759 362.964 461.358C355.387 400.754 377.257 266.648 511.905 265.652C511.962 263.642 511.997 261.626 511.997 259.603V243.64C483.193 243.64 459.26 249.539 439.441 259.419C346.092 306.275 348.143 442.586 359.022 462.525Z" fill="#DDDCDB"/>
</svg>
