<svg width="48" height="48" viewBox="0 0 48 48" fill="none" xmlns="http://www.w3.org/2000/svg">
<g clip-path="url(#clip0_1319_381)">
<path d="M38.8986 14.8965C38.8986 23.5199 30.1179 24.422 24.002 29.4868C17.8862 24.422 9.10547 23.5199 9.10547 14.8965C9.10685 9.19456 12.3629 3.99366 17.4914 1.50161C22.6199 -0.990443 28.721 -0.336378 33.2048 3.18615L38.4931 11.4372C38.7632 12.5704 38.8993 13.7315 38.8986 14.8965Z" fill="#84B5CB"/>
<path d="M32.5559 24.2566C31.8151 23.263 30.8242 22.4835 29.6842 21.9973H18.3131C17.1698 22.4818 16.1779 23.2651 15.4414 24.2649L15.7228 33.9311H32.2745L32.5559 24.2566Z" fill="#2980BA"/>
<path d="M24.0021 29.4868C17.8862 24.422 9.10555 23.5199 9.10547 14.8965L9.10555 33.1034C9.10317 33.8263 9.15574 34.5484 9.26279 35.2634L12.9207 43.051C15.7446 46.1987 19.7733 47.9979 24.0021 47.9999C27.9529 47.9999 31.7419 46.4305 34.5355 43.6368C37.3292 40.8432 38.8986 37.0542 38.8986 33.1034V14.8965C38.8986 23.5199 30.118 24.422 24.0021 29.4868Z" fill="#90BAE1"/>
<path d="M38.8967 14.8965V33.1034C38.8983 38.0969 36.3971 42.7588 32.2357 45.5187C28.0742 48.2785 22.8065 48.769 18.207 46.8248V43.0344C18.207 36.1075 20.7229 32.2013 24.0001 29.4868C30.116 24.422 38.8967 23.5199 38.8967 14.8965Z" fill="#B0D3F0"/>
<path d="M35.5865 14.8965C35.5865 16.2677 34.4749 17.3793 33.1037 17.3793C32.9902 17.3792 32.8768 17.3709 32.7644 17.3544C31.661 21.2818 28.0797 23.9956 24.0003 23.9956C19.9209 23.9956 16.3395 21.2818 15.2361 17.3544C15.1238 17.3709 15.0104 17.3792 14.8968 17.3793C13.5256 17.3793 12.4141 16.2677 12.4141 14.8965C12.4141 13.5253 13.5256 12.4138 14.8968 12.4138C15.0104 12.4138 15.1238 12.4221 15.2361 12.4386C16.3172 8.55979 19.8251 5.85731 23.8513 5.80134C23.9006 5.79446 23.9505 5.79169 24.0003 5.79307C24.9447 5.78935 25.8835 5.93745 26.781 6.23169C29.6948 7.15877 31.9447 9.4927 32.7644 12.4386C32.8768 12.4221 32.9902 12.4138 33.1037 12.4138C33.7622 12.4138 34.3937 12.6753 34.8593 13.1409C35.3249 13.6065 35.5865 14.238 35.5865 14.8965Z" fill="#FDD7AD"/>
<path d="M7.44828 37.0013C8.20381 35.6459 9.62104 34.7924 11.1724 34.7585C13.3771 34.7585 14.8966 36.6943 14.8966 38.9883C14.8966 42.1605 11.8659 43.9944 7.44828 47.9999C3.03062 43.9944 0 42.1605 0 38.9883C0 36.6943 1.51945 34.7585 3.72414 34.7585C5.27551 34.7924 6.69274 35.6459 7.44828 37.0013Z" fill="#DF4D60"/>
<path d="M12.1274 34.8976C11.8701 37.2744 10.3895 43.8885 2.09214 43.1983C1.96335 43.0747 1.84125 42.9443 1.72634 42.8077C0.673553 41.8097 0.0537949 40.4388 0 38.9892C0 36.6959 1.51697 34.7586 3.72414 34.7586C5.27576 34.7931 6.69292 35.6472 7.44828 37.003C8.20364 35.6472 9.62079 34.7931 11.1724 34.7586C11.229 34.7575 11.2857 34.7597 11.3421 34.7652C11.6087 34.7736 11.8729 34.8181 12.1274 34.8976Z" fill="#FF5364"/>
<path d="M40.5537 2.24276C41.3093 0.887369 42.7265 0.0338813 44.2779 0C46.4826 0 48.002 1.93572 48.002 4.22979C48.002 7.40193 44.9714 9.23586 40.5537 13.2414C36.1361 9.23586 33.1055 7.40193 33.1055 4.22979C33.1055 1.93572 34.6249 0 36.8296 0C38.381 0.0338813 39.7982 0.887369 40.5537 2.24276Z" fill="#DF4D60"/>
<path d="M45.2329 0.138995C44.9755 2.51582 43.495 9.12989 35.1976 8.43969C35.0688 8.31607 34.9467 8.18568 34.8318 8.04906C33.779 7.05107 33.1593 5.68023 33.1055 4.23058C33.1055 1.93734 34.6224 -3.91342e-05 36.8296 -3.91342e-05C38.3812 0.0345156 39.7984 0.888589 40.5537 2.24437C41.3091 0.888589 42.7263 0.0345156 44.2779 -3.91342e-05C44.3331 -0.000964947 44.3884 0.0012455 44.4434 0.00658156C44.7114 0.0145721 44.977 0.0591217 45.2329 0.138995Z" fill="#FF5364"/>
<path d="M27.3132 8.27582C27.3132 9.64701 26.2016 10.7586 24.8304 10.7586C23.4592 10.7586 22.3477 9.64701 22.3477 8.27582C22.3477 7.81876 22.7182 7.44824 23.1752 7.44824C23.6323 7.44824 24.0028 7.81876 24.0028 8.27582C24.0028 8.73289 24.3734 9.10341 24.8304 9.10341C25.2875 9.10341 25.658 8.73289 25.658 8.27582C25.6076 7.16371 24.8973 6.18944 23.8539 5.80134C23.9032 5.79446 23.953 5.79169 24.0028 5.79307C24.9472 5.78935 25.8861 5.93745 26.7835 6.23169C27.1393 6.85361 27.3222 7.55939 27.3132 8.27582Z" fill="#805333"/>
<g clip-path="url(#clip1_1319_381)">
<path d="M35.8125 14.7931C35.8125 13.4031 34.7231 12.2677 33.3516 12.1937C33.2343 11.8741 33.114 11.5917 33.0007 11.3742C31.5326 7.92618 28.114 5.49856 24.1642 5.47208C24.1598 5.47194 24.1555 5.47144 24.1511 5.47135C24.1162 5.4708 24.0817 5.4719 24.0468 5.47171C24.012 5.4719 23.9775 5.4708 23.9426 5.47135C23.9382 5.47144 23.9339 5.47194 23.9294 5.47208C19.9797 5.49856 16.5069 7.60221 15.0389 11.0503C14.9255 11.2678 14.7781 12.1131 14.7421 12.1937C13.3707 12.2677 12.2812 13.4031 12.2812 14.7931C12.2812 16.1314 13.2913 17.2334 14.5907 17.3794C15.1734 19.7982 15.9081 21.7808 18.7327 23.3022C19.1659 23.5356 19.7641 23.8825 20.1211 24.2212C20.9665 25.0231 22.2532 25.3213 23.9926 25.3213C24.0107 25.3213 24.0288 25.3185 24.0469 25.3144C24.0651 25.3185 24.0832 25.3213 24.1012 25.3213C25.8407 25.3213 27.1274 24.786 27.9727 23.9841C28.3297 23.6455 28.9486 23.3333 29.3612 23.0652C31.4087 21.7345 32.9205 19.7982 33.5032 17.3794C34.8024 17.2334 35.8125 16.1314 35.8125 14.7931Z" fill="#FFDBBD"/>
<path d="M33.3509 12.1937C33.2337 11.8741 33.1134 11.5917 33.0001 11.3742C31.532 7.92618 28.1133 5.49851 24.1636 5.47208C24.1592 5.47194 24.1549 5.47144 24.1504 5.47135C24.1156 5.4708 24.081 5.4719 24.0462 5.47171C24.0114 5.4719 23.9768 5.4708 23.942 5.47135C23.9376 5.47144 23.9332 5.47194 23.9288 5.47208C23.54 5.4747 23.1559 5.49773 22.7778 5.53992C26.2627 5.95581 29.2022 8.24463 30.5347 11.3743C30.648 11.5918 30.7683 11.8741 30.8855 12.1938C30.8855 12.1938 31.7029 14.5192 31.0371 17.3795C30.4544 19.7982 28.9426 21.7345 26.8951 23.0652C26.4825 23.3334 25.8637 23.6455 25.5067 23.9842C24.8404 24.6162 23.8998 25.0823 22.6797 25.2516C23.0842 25.2993 23.5213 25.3213 23.9919 25.3213C24.0099 25.3213 24.028 25.3185 24.0462 25.3144C24.0644 25.3185 24.0825 25.3213 24.1005 25.3213C25.84 25.3213 27.1266 24.7861 27.972 23.9841C28.329 23.6455 28.9479 23.3334 29.3604 23.0652C31.408 21.7345 32.9197 19.7982 33.5025 17.3794C34.8018 17.2334 35.8119 16.1314 35.8119 14.7931C35.8119 13.4031 34.7224 12.2677 33.3509 12.1937Z" fill="#F4CAAE"/>
<path d="M24.9896 5.51342C24.7805 5.14975 24.2945 4.92455 23.3478 5.49127C23.1238 5.65778 22.8472 5.90463 22.6031 6.24303C22.1363 6.89028 21.7 8.00383 22.2727 9.63282C22.3241 9.77906 22.4614 9.87057 22.6082 9.87057C22.6473 9.87057 22.6871 9.86404 22.7261 9.85034C22.9113 9.78527 23.0087 9.58222 22.9436 9.397C22.1005 6.99888 23.8157 6.00344 24.0596 5.87604C23.944 6.21968 23.8633 6.68783 23.9848 7.21324C24.1827 8.06987 24.8457 8.80849 25.9555 9.40863C26.0093 9.43777 26.0672 9.45155 26.1243 9.45151C26.2507 9.45151 26.3731 9.38399 26.4374 9.265C26.5308 9.09229 26.4665 8.87651 26.2938 8.78312C25.3759 8.28666 24.8328 7.70771 24.6798 7.0623C24.5037 6.31942 24.9155 5.71133 24.9252 5.69717C24.965 5.64115 24.9858 5.5774 24.9896 5.51342Z" fill="#5C576B"/>
<path d="M14.6331 16.0436C14.0425 15.9264 13.6094 15.4068 13.6094 14.7931C13.6094 14.1773 14.0464 13.6592 14.6331 13.5422C14.6331 13.5422 14.5283 15.9388 14.6331 16.0436Z" fill="#D3AA8C"/>
<path d="M33.4609 16.0436C34.0515 15.9264 34.4846 15.4068 34.4846 14.7931C34.4846 14.1773 34.0477 13.6592 33.4609 13.5422V16.0436Z" fill="#D3AA8C"/>
<path d="M20.8862 15.026C20.8862 15.2224 21.0454 15.3816 21.2418 15.3816C21.4382 15.3816 21.5974 15.2224 21.5974 15.026C21.5974 14.2237 20.9447 13.571 20.1424 13.571C19.3402 13.571 18.6875 14.2237 18.6875 15.026C18.6875 15.2224 18.8467 15.3816 19.0431 15.3816C19.2395 15.3816 19.3987 15.2224 19.3987 15.026C19.3987 14.6159 19.7323 14.2822 20.1425 14.2822C20.5525 14.2822 20.8862 14.6158 20.8862 15.026Z" fill="#BC8E82"/>
<path d="M27.9549 13.571C27.1527 13.571 26.5 14.2237 26.5 15.026C26.5 15.2224 26.6592 15.3816 26.8556 15.3816C27.052 15.3816 27.2112 15.2224 27.2112 15.026C27.2112 14.6159 27.5448 14.2822 27.9549 14.2822C28.3651 14.2822 28.6987 14.6158 28.6987 15.026C28.6987 15.2224 28.858 15.3816 29.0543 15.3816C29.2507 15.3816 29.4099 15.2224 29.4099 15.026C29.4099 14.2237 28.7572 13.571 27.9549 13.571Z" fill="#BC8E82"/>
<path d="M25.7237 18.636C25.4029 18.636 25.0263 18.7005 24.6417 18.8171C24.2544 18.9344 23.8417 18.9344 23.4544 18.8171C23.0697 18.7005 22.6931 18.636 22.3723 18.636C21.088 18.636 20.0469 19.669 20.0469 20.9433C20.0469 22.2176 21.088 23.2506 22.3723 23.2506C22.6931 23.2506 23.0697 23.1861 23.4544 23.0695C23.8417 22.9521 24.2544 22.9521 24.6417 23.0695C25.0263 23.1861 25.4029 23.2506 25.7237 23.2506C27.008 23.2506 28.0492 22.2176 28.0492 20.9433C28.0492 19.669 27.008 18.636 25.7237 18.636Z" fill="#48E5FF"/>
<path d="M25.7256 18.636C25.4048 18.636 25.0282 18.7005 24.6435 18.8171C24.5399 18.8485 24.4344 18.8713 24.3281 18.8858C25.0836 19.2669 25.6015 20.0448 25.6015 20.9433C25.6015 21.8418 25.0836 22.6197 24.3281 23.0008C24.4344 23.0154 24.5399 23.0381 24.6435 23.0695C25.0281 23.1861 25.4048 23.2506 25.7255 23.2506C27.0098 23.2506 28.051 22.2176 28.051 20.9433C28.051 19.669 27.0099 18.636 25.7256 18.636Z" fill="#1AD8E2"/>
<path d="M24.641 24.8065H23.4483C22.3891 24.8065 21.5273 23.9448 21.5273 22.8856V22.3599C21.5273 21.4356 22.2793 20.6836 23.2036 20.6836H24.8856C25.8099 20.6836 26.5619 21.4356 26.5619 22.3599V22.8856C26.5619 23.9448 25.7002 24.8065 24.641 24.8065ZM23.2036 21.3947C22.6715 21.3947 22.2385 21.8277 22.2385 22.3599V22.8856C22.2385 23.5526 22.7812 24.0953 23.4483 24.0953H24.641C25.3081 24.0953 25.8508 23.5526 25.8508 22.8856V22.3599C25.8508 21.8277 25.4178 21.3947 24.8856 21.3947H23.2036Z" fill="#FF9F40"/>
<path d="M24.0453 21.8976C24.5558 21.8976 24.9696 21.4838 24.9696 20.9733C24.9696 20.4629 24.5558 20.0491 24.0453 20.0491C23.5349 20.0491 23.1211 20.4629 23.1211 20.9733C23.1211 21.4838 23.5349 21.8976 24.0453 21.8976Z" fill="#F77FA4"/>
<path d="M24.0469 20.0491V21.8973C24.5564 21.8963 24.9691 21.483 24.9691 20.9732C24.9691 20.4634 24.5564 20.0502 24.0469 20.0491Z" fill="#DD6FA1"/>
</g>
</g>
<defs>
<clipPath id="clip0_1319_381">
<rect width="48" height="48" fill="white"/>
</clipPath>
<clipPath id="clip1_1319_381">
<rect width="23.5312" height="23.5312" fill="white" transform="translate(12.2812 3.46875)"/>
</clipPath>
</defs>
</svg>
