<svg xmlns="http://www.w3.org/2000/svg" version="1.1" xmlns:xlink="http://www.w3.org/1999/xlink" xmlns:svgjs="http://svgjs.com/svgjs" width="512" height="512"><svg version="1.1" id="SvgjsSvg1000" xmlns="http://www.w3.org/2000/svg" xmlns:xlink="http://www.w3.org/1999/xlink" x="0px" y="0px" viewBox="0 0 512 512" style="enable-background:new 0 0 512 512;" xml:space="preserve">
<path style="fill:#FFDBBD;" d="M512,246.398c0-30.244-23.704-54.948-53.546-56.557c-2.551-6.956-5.168-13.099-7.634-17.831
	C418.877,96.986,344.493,44.165,258.553,43.589c-0.096-0.003-0.189-0.014-0.286-0.016c-0.759-0.012-1.51,0.012-2.268,0.008
	c-0.757,0.004-1.509-0.02-2.268-0.008c-0.096,0.002-0.19,0.013-0.286,0.016c-85.94,0.576-161.502,46.348-193.444,121.373
	c-2.467,4.732-5.674,23.124-6.456,24.879C23.704,191.45,0,216.154,0,246.398c0,29.12,21.978,53.097,50.249,56.275
	c12.679,52.627,28.666,95.766,90.123,128.87c9.426,5.077,22.442,12.626,30.21,19.994c18.394,17.449,46.39,23.937,84.238,23.937
	c0.392,0,0.786-0.061,1.181-0.15c0.395,0.089,0.789,0.15,1.181,0.15c37.848,0,65.844-11.646,84.238-29.095
	c7.767-7.368,21.233-14.16,30.21-19.994c44.551-28.954,77.444-71.085,90.123-123.712C490.022,299.495,512,275.518,512,246.398z"></path>
<path style="fill:#F4CAAE;" d="M458.454,189.841c-2.551-6.956-5.168-13.099-7.634-17.831
	C418.877,96.986,344.493,44.164,258.553,43.589c-0.096-0.003-0.189-0.014-0.286-0.016c-0.759-0.012-1.51,0.012-2.268,0.008
	c-0.757,0.004-1.509-0.02-2.268-0.008c-0.096,0.002-0.19,0.013-0.286,0.016c-8.46,0.057-16.818,0.558-25.045,1.476
	c75.827,9.049,139.784,58.85,168.777,126.946c2.467,4.732,5.083,10.875,7.634,17.831c0,0,17.785,50.597,3.298,112.832
	c-12.679,52.627-45.572,94.758-90.123,123.712c-8.977,5.834-22.442,12.626-30.21,19.995c-14.496,13.752-34.963,23.894-61.51,27.576
	c8.802,1.038,18.313,1.518,28.552,1.518c0.392,0,0.786-0.061,1.181-0.151c0.395,0.089,0.789,0.151,1.181,0.151
	c37.848,0,65.844-11.646,84.238-29.095c7.767-7.368,21.233-14.16,30.21-19.995c44.551-28.954,77.444-71.085,90.123-123.712
	C490.022,299.495,512,275.518,512,246.398C512,216.154,488.296,191.45,458.454,189.841z"></path>
<path style="fill:#5C576B;" d="M276.539,44.488c-4.55-7.913-15.124-12.813-35.723-0.482c-4.873,3.623-10.891,8.994-16.202,16.357
	c-10.158,14.083-19.651,38.312-7.19,73.756c1.119,3.182,4.107,5.173,7.299,5.173c0.851,0,1.718-0.142,2.566-0.44
	c4.031-1.416,6.15-5.834,4.733-9.864c-18.344-52.179,18.975-73.838,24.282-76.61c-2.516,7.477-4.27,17.663-1.628,29.095
	c4.307,18.639,18.733,34.71,42.88,47.768c1.17,0.634,2.43,0.934,3.673,0.933c2.75,0,5.413-1.469,6.812-4.058
	c2.033-3.758,0.634-8.453-3.125-10.485c-19.972-10.802-31.788-23.399-35.118-37.442c-3.832-16.164,5.128-29.395,5.339-29.703
	C276.003,47.267,276.456,45.88,276.539,44.488z"></path>
<g>
	<path style="fill:#D3AA8C;" d="M51.158,273.606c-12.85-2.55-22.274-13.857-22.274-27.209c0-13.4,9.508-24.672,22.274-27.217
		C51.158,219.181,48.878,271.326,51.158,273.606z"></path>
	<path style="fill:#D3AA8C;" d="M460.842,273.606c12.85-2.55,22.274-13.857,22.274-27.209c0-13.4-9.508-24.672-22.274-27.217
		V273.606z"></path>
</g>
<g>
	<path style="fill:#BC8E82;" d="M187.185,251.464c0,4.273,3.464,7.737,7.737,7.737s7.737-3.463,7.737-7.737
		c0-17.456-14.201-31.657-31.657-31.657s-31.657,14.201-31.657,31.657c0,4.273,3.464,7.737,7.737,7.737s7.737-3.463,7.737-7.737
		c0-8.923,7.26-16.184,16.184-16.184C179.925,235.28,187.185,242.54,187.185,251.464z"></path>
	<path style="fill:#BC8E82;" d="M340.998,219.807c-17.456,0-31.657,14.201-31.657,31.657c0,4.273,3.464,7.737,7.737,7.737
		s7.737-3.463,7.737-7.737c0-8.923,7.26-16.184,16.183-16.184c8.924,0,16.184,7.26,16.184,16.184c0,4.273,3.464,7.737,7.737,7.737
		s7.737-3.463,7.737-7.737C372.655,234.008,358.454,219.807,340.998,219.807z"></path>
</g>
<path style="fill:#48E5FF;" d="M292.46,330.012c-6.979,0-15.174,1.404-23.543,3.94c-8.427,2.554-17.407,2.554-25.834,0
	c-8.369-2.537-16.564-3.94-23.543-3.94c-27.944,0-50.598,22.476-50.598,50.203c0,27.726,22.654,50.203,50.598,50.203
	c6.979,0,15.174-1.404,23.543-3.941c8.427-2.554,17.407-2.554,25.834,0c8.369,2.537,16.564,3.941,23.543,3.941
	c27.945,0,50.598-22.477,50.598-50.203C343.058,352.489,320.405,330.012,292.46,330.012z"></path>
<path style="fill:#1AD8E2;" d="M292.46,330.012c-6.979,0-15.174,1.404-23.543,3.941c-2.255,0.683-4.55,1.178-6.863,1.495
	c16.437,8.291,27.706,25.218,27.706,44.767s-11.269,36.475-27.706,44.767c2.313,0.318,4.608,0.812,6.862,1.496
	c8.369,2.537,16.564,3.94,23.543,3.94c27.944,0,50.598-22.477,50.598-50.203C343.058,352.489,320.405,330.012,292.46,330.012z"></path>
<path style="fill:#FF9F40;" d="M268.976,464.271h-25.952c-23.046,0-41.796-18.75-41.796-41.797v-11.438
	c0-20.111,16.362-36.473,36.473-36.473h36.598c20.111,0,36.472,16.362,36.472,36.473v11.438
	C310.772,445.521,292.022,464.271,268.976,464.271z M237.701,390.036c-11.579,0-21,9.42-21,21v11.438
	c0,14.514,11.809,26.323,26.323,26.323h25.952c14.514,0,26.322-11.809,26.322-26.323v-11.438c0-11.58-9.42-21-20.999-21H237.701z"></path>
<circle style="fill:#F77FA4;" cx="256" cy="380.87" r="20.11"></circle>
<path style="fill:#DD6FA1;" d="M256.043,360.76v40.215c11.086-0.023,20.067-9.016,20.067-20.107
	C276.11,369.776,267.129,360.784,256.043,360.76z"></path>
<g>
</g>
<g>
</g>
<g>
</g>
<g>
</g>
<g>
</g>
<g>
</g>
<g>
</g>
<g>
</g>
<g>
</g>
<g>
</g>
<g>
</g>
<g>
</g>
<g>
</g>
<g>
</g>
<g>
</g>
</svg><style>@media (prefers-color-scheme: light) { :root { filter: none; } }
@media (prefers-color-scheme: dark) { :root { filter: none; } }
</style></svg>