<svg width="512" height="512" viewBox="0 0 512 512" fill="none" xmlns="http://www.w3.org/2000/svg">
<g clip-path="url(#clip0_1211_672)">
<path d="M256 0C397.376 0 512 114.624 512 256C512 397.36 397.376 512 256 512C114.624 512 0 397.375 0 256C0 114.625 114.607 0 256 0Z" fill="#EBEBEB"/>
<path d="M143.985 208.047H208.226V143.984C208.226 135.153 215.379 127.983 224.21 127.983H288.145C296.961 127.983 304.112 135.151 304.112 143.984V208.032H368.016C376.864 208.032 384.016 215.185 384.016 224.032V288.048C384.016 296.912 376.864 304.079 368.016 304.079H304.112V367.95C304.112 376.798 296.959 383.95 288.145 383.95H224.21C215.379 383.95 208.226 376.798 208.226 367.95V304.079H143.985C135.138 304.079 127.969 296.912 127.969 288.048V224.032C127.969 215.199 135.138 208.047 143.985 208.047Z" fill="#E2574C"/>
</g>
<defs>
<clipPath id="clip0_1211_672">
<rect width="512" height="512" fill="white"/>
</clipPath>
</defs>
</svg>
