<svg width="512" height="512" viewBox="0 0 512 512" fill="none" xmlns="http://www.w3.org/2000/svg">
<mask id="mask0_1216_655" style="mask-type:luminance" maskUnits="userSpaceOnUse" x="34" y="34" width="444" height="444">
<path d="M478 34H34V478H478V34Z" fill="white"/>
</mask>
<g mask="url(#mask0_1216_655)">
<path d="M259.109 89.5L232.968 80.8281H175.859V125.922H259.109V89.5Z" fill="#8AC9FE"/>
<path d="M175.859 80.8281H219.219V125.922H175.859V80.8281Z" fill="#60B7FF"/>
<path d="M259.817 478H175.164C159.692 478 146.626 466.512 144.645 451.167L122.27 277.854C121.604 272.697 122.759 267.469 125.535 263.072L147.517 228.25H286.859L309.37 262.993C312.249 267.436 313.455 272.758 312.775 278.007L290.335 451.182C288.347 466.52 275.283 478 259.817 478Z" fill="#EAF6FF"/>
<path d="M188.005 451.167L165.63 277.854C164.964 272.697 166.119 267.469 168.895 263.072L190.877 228.25H147.518L125.534 263.072C122.759 267.469 121.604 272.697 122.27 277.854L144.645 451.167C146.627 466.512 159.693 478 175.165 478H218.525C203.052 478 189.986 466.512 188.005 451.167Z" fill="#D8ECFE"/>
<path d="M294.957 242.125H140.086C136.733 242.125 134.016 239.407 134.016 236.055V206.57C134.016 203.218 136.733 200.5 140.086 200.5H148.108L175.858 191.828H259.108L286.858 200.5H294.958C298.31 200.5 301.028 203.218 301.028 206.57V236.055C301.027 239.407 298.309 242.125 294.957 242.125Z" fill="#FFE07D"/>
<path d="M177.375 236.055V206.57C177.375 203.218 180.093 200.5 183.445 200.5H191.468L219.218 191.828H175.858L148.108 200.5H140.086C136.733 200.5 134.016 203.218 134.016 206.57V236.055C134.016 239.407 136.733 242.125 140.086 242.125H183.445C180.093 242.125 177.375 239.407 177.375 236.055Z" fill="#FFD064"/>
<path d="M280.789 117.25H154.18C150.827 117.25 148.109 119.968 148.109 123.32V153.672H286.859V123.32C286.859 119.968 284.142 117.25 280.789 117.25Z" fill="#FFE07D"/>
<path d="M197.539 117.25H154.18C150.827 117.25 148.109 119.968 148.109 123.32V153.672H191.469V123.32C191.469 119.968 194.187 117.25 197.539 117.25Z" fill="#FFD064"/>
<path d="M224.228 359.825H245.278C248.979 359.825 251.978 356.825 251.978 353.125C251.978 349.424 248.978 346.425 245.278 346.425H224.228V304.325H245.278C248.979 304.325 251.978 301.326 251.978 297.626C251.978 293.925 248.978 290.926 245.278 290.926H224.228V269.875C224.228 266.174 221.228 263.175 217.528 263.175C213.828 263.175 210.828 266.174 210.828 269.875V318.674H189.778C186.077 318.674 183.078 321.674 183.078 325.374C183.078 329.074 186.078 332.074 189.778 332.074H210.828V374.174H189.778C186.077 374.174 183.078 377.174 183.078 380.874C183.078 384.574 186.078 387.574 189.778 387.574H210.828V436.375C210.828 440.076 213.828 443.075 217.528 443.075C221.228 443.075 224.228 440.075 224.228 436.375V414.829H245.278C248.979 414.829 251.978 411.829 251.978 408.129C251.978 404.428 248.978 401.429 245.278 401.429H224.228V359.825Z" fill="#8AC9FE"/>
<path d="M148.109 145C132.784 145 120.359 157.424 120.359 172.75C120.359 188.076 132.784 200.5 148.109 200.5H300.734L310.198 172.75L300.734 145H148.109Z" fill="#8AC9FE"/>
<path d="M163.719 172.75C163.719 157.424 176.143 145 191.469 145H148.109C132.784 145 120.359 157.424 120.359 172.75C120.359 188.076 132.784 200.5 148.109 200.5H191.469C176.143 200.5 163.719 188.076 163.719 172.75Z" fill="#60B7FF"/>
<path d="M93.316 42.7803C75.5395 54.6313 64.8618 74.5826 64.8618 95.9484V256L46.0916 293.54C41.9663 301.791 47.9664 311.5 57.1916 311.5C61.8926 311.5 66.1895 308.844 68.2916 304.64L92.6118 256V115.425C92.6118 114.991 92.6204 114.558 92.6386 114.127C93.2153 100.27 104.981 89.5 118.85 89.5H259.112V71.6307C259.112 50.8477 242.264 34 221.481 34H122.316C111.994 34 101.904 37.0551 93.316 42.7803Z" fill="#C4E2FF"/>
<path d="M63.4353 293.54L82.2056 256V95.9484C82.2056 74.5835 92.8833 54.6321 110.66 42.7811C119.247 37.0551 129.338 34 139.659 34H122.316C111.994 34 101.904 37.0551 93.316 42.7803C75.5395 54.6313 64.8618 74.5826 64.8618 95.9484V256L46.0916 293.54C41.9663 301.791 47.9664 311.5 57.1916 311.5C60.4843 311.5 63.5784 310.197 65.8591 307.971C62.2282 304.4 60.8624 298.686 63.4353 293.54Z" fill="#AEDAFC"/>
<path d="M328.484 200.5H300.734V145H328.484L334.479 172.75L328.484 200.5Z" fill="#C4E2FF"/>
<path d="M453.359 283.75L328.484 200.5V145L453.359 61.75V283.75Z" fill="#8AC9FE"/>
<path d="M453.359 283.75C445.696 283.75 439.484 277.538 439.484 269.875V75.625C439.484 67.9617 445.696 61.75 453.359 61.75C461.023 61.75 467.234 67.9617 467.234 75.625V269.875C467.234 277.538 461.023 283.75 453.359 283.75Z" fill="#C4E2FF"/>
</g>
</svg>
