<svg width="512" height="512" viewBox="0 0 512 512" fill="none" xmlns="http://www.w3.org/2000/svg">
<g clip-path="url(#clip0_1211_666)">
<path d="M259.586 64L229.441 54H163.586V106H259.586V64Z" fill="#8AC9FE"/>
<path d="M163.586 54H213.586V106H163.586V54Z" fill="#60B7FF"/>
<path d="M260.403 512H162.785C144.943 512 129.876 498.753 127.592 481.058L101.79 281.201C101.022 275.254 102.354 269.225 105.555 264.155L130.904 224H291.587L317.545 264.064C320.865 269.188 322.256 275.324 321.472 281.378L295.595 481.075C293.302 498.762 278.238 512 260.403 512Z" fill="#EAF6FF"/>
<path d="M177.593 481.058L151.791 281.201C151.023 275.254 152.355 269.225 155.556 264.155L180.905 224H130.905L105.555 264.155C102.354 269.226 101.023 275.254 101.79 281.201L127.592 481.058C129.878 498.753 144.945 512 162.787 512H212.787C194.945 512 179.878 498.753 177.593 481.058Z" fill="#D8ECFE"/>
<path d="M300.926 240H122.336C118.47 240 115.336 236.866 115.336 233V199C115.336 195.134 118.47 192 122.336 192H131.587L163.587 182H259.587L291.587 192H300.927C304.793 192 307.927 195.134 307.927 199V233C307.926 236.866 304.792 240 300.926 240Z" fill="#FFE07D"/>
<path d="M165.336 233V199C165.336 195.134 168.47 192 172.336 192H181.587L213.587 182H163.587L131.587 192H122.336C118.47 192 115.336 195.134 115.336 199V233C115.336 236.866 118.47 240 122.336 240H172.336C168.47 240 165.336 236.866 165.336 233Z" fill="#FFD064"/>
<path d="M284.586 96H138.586C134.72 96 131.586 99.134 131.586 103V138H291.586V103C291.586 99.134 288.452 96 284.586 96Z" fill="#FFE07D"/>
<path d="M188.586 96H138.586C134.72 96 131.586 99.134 131.586 103V138H181.586V103C181.586 99.134 184.72 96 188.586 96Z" fill="#FFD064"/>
<path d="M219.358 375.726H243.632C247.9 375.726 251.358 372.267 251.358 368C251.358 363.733 247.899 360.274 243.632 360.274H219.358V311.727H243.632C247.9 311.727 251.358 308.268 251.358 304.001C251.358 299.734 247.899 296.275 243.632 296.275H219.358V272C219.358 267.732 215.899 264.274 211.632 264.274C207.365 264.274 203.906 267.733 203.906 272V328.273H179.632C175.364 328.273 171.906 331.732 171.906 335.999C171.906 340.266 175.365 343.725 179.632 343.725H203.906V392.273H179.632C175.364 392.273 171.906 395.732 171.906 399.999C171.906 404.266 175.365 407.725 179.632 407.725H203.906V464C203.906 468.268 207.365 471.726 211.632 471.726C215.899 471.726 219.358 468.267 219.358 464V439.154H243.632C247.9 439.154 251.358 435.695 251.358 431.428C251.358 427.161 247.899 423.702 243.632 423.702H219.358V375.726Z" fill="#8AC9FE"/>
<path d="M131.586 128C113.913 128 99.5859 142.327 99.5859 160C99.5859 177.673 113.913 192 131.586 192H307.586L318.499 160L307.586 128H131.586Z" fill="#8AC9FE"/>
<path d="M149.586 160C149.586 142.327 163.913 128 181.586 128H131.586C113.913 128 99.5859 142.327 99.5859 160C99.5859 177.673 113.913 192 131.586 192H181.586C163.913 192 149.586 177.673 149.586 160Z" fill="#60B7FF"/>
<path d="M68.4001 10.125C47.9011 23.791 35.5881 46.798 35.5881 71.436V256L13.9431 299.289C9.18606 308.804 16.1051 320 26.7431 320C32.1641 320 37.1191 316.937 39.5431 312.089L67.5881 256V93.896C67.5881 93.395 67.598 92.896 67.619 92.399C68.284 76.419 81.8511 64 97.8451 64H259.588V43.394C259.588 19.428 240.16 0 216.194 0H101.841C89.939 0 78.3031 3.523 68.4001 10.125Z" fill="#C4E2FF"/>
<path d="M33.9431 299.289L55.5881 256V71.436C55.5881 46.799 67.9011 23.792 88.4001 10.126C98.3031 3.523 109.939 0 121.841 0H101.841C89.939 0 78.3031 3.523 68.4001 10.125C47.9011 23.791 35.5881 46.798 35.5881 71.436V256L13.9431 299.289C9.18606 308.804 16.1051 320 26.7431 320C30.5401 320 34.1081 318.497 36.7381 315.931C32.5511 311.813 30.9761 305.224 33.9431 299.289Z" fill="#AEDAFC"/>
<path d="M339.586 192H307.586V128H339.586L346.499 160L339.586 192Z" fill="#C4E2FF"/>
<path d="M483.586 288L339.586 192V128L483.586 32V288Z" fill="#8AC9FE"/>
<path d="M483.586 288C474.749 288 467.586 280.837 467.586 272V48C467.586 39.163 474.749 32 483.586 32C492.423 32 499.586 39.163 499.586 48V272C499.586 280.837 492.423 288 483.586 288Z" fill="#C4E2FF"/>
</g>
<defs>
<clipPath id="clip0_1211_666">
<rect width="512" height="512" fill="white"/>
</clipPath>
</defs>
</svg>
