<svg width="512" height="512" viewBox="0 0 512 512" fill="none" xmlns="http://www.w3.org/2000/svg">
<g clip-path="url(#clip0_1211_669)">
<path d="M128 256V44.3709C128 19.866 147.866 0 172.371 0H339.629C364.134 0 384 19.866 384 44.3709V256L256 300.371L128 256Z" fill="#81DDFD"/>
<path d="M194.274 102.733C194.274 65.9635 202.57 31.1341 217.374 0H172.371C147.866 0 128 19.865 128 44.3709V263.138C128 287.644 147.866 307.509 172.371 307.509H249.737C215.113 265.974 194.274 161.035 194.274 102.733Z" fill="#5BD6FD"/>
<path d="M211.629 256H44.3709C19.866 256 0 275.866 0 300.371V467.629C0 492.134 19.866 512 44.3709 512H211.629C236.134 512 256 492.134 256 467.629L282.118 384L256 300.371C256 275.866 236.135 256 211.629 256Z" fill="#FF6F7F"/>
<path d="M61.1217 358.733C61.1217 321.964 69.4177 287.134 84.2224 256H44.3709C19.866 256 0 275.865 0 300.371V467.629C0 492.134 19.866 512 44.3709 512H116.586C81.9612 470.465 61.1217 417.036 61.1217 358.733Z" fill="#FC5C70"/>
<path d="M50.1641 306.162H205.838V461.836H50.1641V306.162Z" fill="#F9F097"/>
<path d="M146.721 378.697C149.627 374.679 151.348 369.748 151.348 364.422C151.348 350.959 140.394 340.005 126.93 340.005H105.859C101.592 340.005 98.1328 343.464 98.1328 347.731V381.134V381.187V420.27C98.1328 422.326 98.9518 424.296 100.407 425.746C101.856 427.187 103.816 427.997 105.859 427.997H105.893C105.893 427.997 125.27 427.91 130.609 427.91C145.635 427.91 157.862 415.685 157.862 400.659C157.862 391.655 153.471 383.662 146.721 378.697ZM126.929 355.457C131.872 355.457 135.894 359.478 135.894 364.421C135.894 369.365 131.872 373.386 126.929 373.386C125.382 373.386 122.472 373.394 119.296 373.406H113.584V355.457H126.929ZM130.609 412.456C127.497 412.456 119.629 412.485 113.586 412.51V388.88C115.431 388.873 117.411 388.865 119.301 388.858H130.61C137.116 388.858 142.41 394.151 142.41 400.657C142.41 407.162 137.116 412.456 130.609 412.456Z" fill="#FF6F7F"/>
<path d="M178.164 50.1631H333.838V205.837H178.164V50.1631Z" fill="white"/>
<path d="M194.274 102.733C194.274 84.6711 196.286 67.0807 200.078 50.1631H178.164V205.837H207.686C199.001 168.814 194.274 130.489 194.274 102.733Z" fill="#EAEAEA"/>
<path d="M264.87 90.0212C264.844 89.9501 264.816 89.879 264.787 89.809C263.336 86.2816 259.936 84.0039 256.122 84.0039C256.118 84.0039 256.115 84.0039 256.111 84.0039C252.293 84.008 248.892 86.294 247.448 89.8275C247.425 89.8852 247.401 89.9429 247.38 90.0016L220.141 161.519C218.622 165.507 220.623 169.97 224.611 171.489C225.515 171.833 226.446 171.997 227.359 171.997C230.472 171.997 233.407 170.101 234.581 167.018L239.469 154.183H272.568L277.403 166.996C278.91 170.988 283.37 173.004 287.36 171.497C291.352 169.991 293.367 165.533 291.86 161.54L264.87 90.0212ZM245.354 138.731L256.094 110.533L266.736 138.731H245.354Z" fill="#5BD6FD"/>
<path d="M300.371 256H467.629C492.134 256 512 275.866 512 300.371V467.629C512 492.134 492.135 512 467.629 512H300.371C275.866 512 256 492.134 256 467.629V300.371C256 275.866 275.866 256 300.371 256Z" fill="#F9F097"/>
<path d="M317.123 358.733C317.123 321.964 325.419 287.134 340.223 256H300.371C275.866 256 256 275.865 256 300.371V467.629C256 492.135 275.866 512 300.371 512H372.586C337.962 470.465 317.123 417.036 317.123 358.733Z" fill="#F9D888"/>
<path d="M461.836 461.838H306.162V306.164H461.836V461.838Z" fill="#81DDFD"/>
<path d="M418.524 404.112C415.254 401.369 410.381 401.796 407.639 405.065C406.965 405.869 406.237 406.621 405.477 407.297C401.567 410.778 396.598 412.543 390.708 412.543C374.97 412.543 362.165 399.738 362.165 384C362.165 368.261 374.97 355.457 390.708 355.457C396.429 355.457 401.945 357.141 406.661 360.327C410.198 362.715 415 361.786 417.389 358.249C419.777 354.714 418.847 349.911 415.311 347.522C408.03 342.604 399.523 340.004 390.707 340.004C366.447 340.004 346.711 359.74 346.711 384C346.711 408.26 366.447 427.996 390.707 427.996C400.363 427.996 409.024 424.829 415.754 418.836C417.071 417.662 418.324 416.37 419.477 414.996C422.22 411.727 421.793 406.854 418.524 404.112Z" fill="white"/>
<path d="M61.1231 358.732C61.1231 340.67 63.1361 323.081 66.9251 306.162H50.1641V461.836H84.397C69.482 430.608 61.1231 395.648 61.1231 358.732Z" fill="#F9D888"/>
<path d="M317.123 358.732C317.123 340.67 319.136 323.081 322.925 306.162H306.164V461.836H340.397C325.482 430.608 317.123 395.648 317.123 358.732Z" fill="#5BD6FD"/>
</g>
<defs>
<clipPath id="clip0_1211_669">
<rect width="512" height="512" fill="white"/>
</clipPath>
</defs>
</svg>
