<svg width="512" height="512" viewBox="0 0 512 512" fill="none" xmlns="http://www.w3.org/2000/svg">
<mask id="mask0_1216_676" style="mask-type:luminance" maskUnits="userSpaceOnUse" x="51" y="51" width="410" height="410">
<path d="M461 51H51V461H461V51Z" fill="white"/>
</mask>
<g mask="url(#mask0_1216_676)">
<path d="M153.5 256V86.5314C153.5 66.9083 169.408 51 189.031 51H322.969C342.592 51 358.5 66.9083 358.5 86.5314V256L256 291.531L153.5 256Z" fill="#81DDFD"/>
<path d="M206.571 133.267C206.571 103.822 213.214 75.9316 225.069 51H189.031C169.408 51 153.5 66.9075 153.5 86.5314V261.716C153.5 281.34 169.408 297.247 189.031 297.247H250.985C223.258 263.987 206.571 179.954 206.571 133.267Z" fill="#5BD6FD"/>
<path d="M220.469 256H86.5314C66.9083 256 51 271.908 51 291.531V425.469C51 445.092 66.9083 461 86.5314 461H220.469C240.092 461 256 445.092 256 425.469L276.915 358.5L256 291.531C256 271.908 240.092 256 220.469 256Z" fill="#FF6F7F"/>
<path d="M99.9451 338.267C99.9451 308.823 106.588 280.932 118.444 256H86.5314C66.9083 256 51 271.908 51 291.531V425.469C51 445.092 66.9083 461 86.5314 461H144.36C116.633 427.74 99.9451 384.955 99.9451 338.267Z" fill="#FC5C70"/>
<path d="M91.1719 296.169H215.833V420.83H91.1719V296.169Z" fill="#F9F097"/>
<path d="M168.494 354.254C170.822 351.036 172.2 347.088 172.2 342.823C172.2 332.042 163.428 323.27 152.646 323.27H135.773C132.356 323.27 129.586 326.04 129.586 329.457V356.205V356.248V387.545C129.586 389.191 130.242 390.769 131.407 391.93C132.567 393.084 134.137 393.732 135.773 393.732H135.8C135.8 393.732 151.317 393.663 155.592 393.663C167.625 393.663 177.416 383.873 177.416 371.841C177.416 364.63 173.9 358.23 168.494 354.254ZM152.645 335.644C156.604 335.644 159.824 338.864 159.824 342.822C159.824 346.781 156.604 350.001 152.645 350.001C151.407 350.001 149.076 350.007 146.533 350.017H141.959V335.644H152.645ZM155.592 381.287C153.1 381.287 146.8 381.311 141.961 381.331V362.408C143.438 362.403 145.024 362.396 146.537 362.391H155.593C160.803 362.391 165.042 366.629 165.042 371.839C165.042 377.048 160.803 381.287 155.592 381.287Z" fill="#FF6F7F"/>
<path d="M193.672 91.1694H318.333V215.83H193.672V91.1694Z" fill="white"/>
<path d="M206.572 133.266C206.572 118.803 208.184 104.717 211.22 91.1694H193.672V215.83H217.313C210.358 186.183 206.572 155.493 206.572 133.266Z" fill="#EAEAEA"/>
<path d="M263.108 123.087C263.087 123.03 263.065 122.973 263.041 122.917C261.88 120.092 259.157 118.269 256.103 118.269C256.099 118.269 256.097 118.269 256.094 118.269C253.036 118.272 250.313 120.102 249.157 122.932C249.138 122.978 249.119 123.024 249.102 123.071L227.29 180.341C226.073 183.535 227.676 187.109 230.869 188.325C231.593 188.6 232.339 188.732 233.07 188.732C235.563 188.732 237.913 187.214 238.853 184.745L242.767 174.467H269.272L273.144 184.727C274.351 187.924 277.922 189.538 281.117 188.331C284.314 187.125 285.928 183.556 284.721 180.358L263.108 123.087ZM247.48 162.093L256.08 139.513L264.602 162.093H247.48Z" fill="#5BD6FD"/>
<path d="M291.531 256H425.469C445.092 256 461 271.908 461 291.531V425.469C461 445.092 445.092 461 425.469 461H291.531C271.908 461 256 445.092 256 425.469V291.531C256 271.908 271.908 256 291.531 256Z" fill="#F9F097"/>
<path d="M304.946 338.267C304.946 308.823 311.589 280.932 323.444 256H291.531C271.908 256 256 271.908 256 291.531V425.469C256 445.092 271.908 461 291.531 461H349.36C321.634 427.74 304.946 384.955 304.946 338.267Z" fill="#F9D888"/>
<path d="M420.833 420.831H296.172V296.17H420.833V420.831Z" fill="#81DDFD"/>
<path d="M386.147 374.605C383.529 372.408 379.626 372.75 377.431 375.368C376.891 376.012 376.308 376.614 375.699 377.156C372.568 379.943 368.589 381.356 363.873 381.356C351.27 381.356 341.016 371.102 341.016 358.5C341.016 345.896 351.27 335.643 363.873 335.643C368.454 335.643 372.871 336.992 376.647 339.543C379.48 341.455 383.325 340.711 385.238 337.879C387.151 335.048 386.406 331.202 383.574 329.289C377.744 325.351 370.931 323.269 363.872 323.269C344.445 323.269 328.641 339.073 328.641 358.5C328.641 377.927 344.445 393.731 363.872 393.731C371.604 393.731 378.54 391.195 383.929 386.396C384.984 385.456 385.987 384.421 386.91 383.321C389.107 380.703 388.765 376.801 386.147 374.605Z" fill="white"/>
<path d="M99.9476 338.266C99.9476 323.802 101.56 309.717 104.594 296.169H91.1719V420.83H118.585C106.641 395.823 99.9476 367.828 99.9476 338.266Z" fill="#F9D888"/>
<path d="M304.948 338.266C304.948 323.802 306.56 309.717 309.594 296.169H296.172V420.83H323.585C311.641 395.823 304.948 367.828 304.948 338.266Z" fill="#5BD6FD"/>
</g>
</svg>
