<svg width="512" height="512" viewBox="0 0 512 512" fill="none" xmlns="http://www.w3.org/2000/svg">
<path d="M381.235 165.03L391.152 281L381.235 365.71L321.375 345.67L337.495 228.79L344.505 177.98C345.525 170.55 351.865 165.03 359.355 165.03H381.235Z" fill="#98D3F3"/>
<path d="M424.584 228.8L417.474 177.95C416.434 170.54 410.104 165.03 402.614 165.03H381.234V365.71L440.934 345.67L424.584 228.8Z" fill="#83B3F1"/>
<path d="M381.233 345.67L394.483 421L381.233 512C360.353 512 340.513 502.98 326.803 487.24C313.103 471.53 306.883 450.67 309.733 430.03L321.373 345.67H381.233Z" fill="#FFDD54"/>
<path d="M435.714 487.19C421.994 502.96 402.144 512 381.234 512V345.67H440.934L452.714 429.9C455.604 450.56 449.414 471.44 435.714 487.19Z" fill="#F7BE48"/>
<path d="M381.237 0L399.607 111.191L381.237 233.79H381.057C326.367 233.79 281.867 187.15 281.867 129.82C281.867 102.33 292.047 70.84 309.097 45.59C328.947 16.19 354.507 0 381.057 0L381.237 0Z" fill="#ADF2F5"/>
<path d="M480.244 129.82C480.244 187.09 435.844 233.69 381.234 233.79V0C407.734 0.07 433.214 16.26 453.014 45.59C470.064 70.84 480.244 102.33 480.244 129.82Z" fill="#98D3F3"/>
<path d="M129.751 165.03L139.668 281L129.751 365.71L69.8906 345.67L86.0106 228.79L93.0206 177.98C94.0406 170.55 100.381 165.03 107.871 165.03H129.751Z" fill="#98D3F3"/>
<path d="M173.1 228.8L165.99 177.95C164.95 170.54 158.62 165.03 151.13 165.03H129.75V365.71L189.45 345.67L173.1 228.8Z" fill="#83B3F1"/>
<path d="M129.75 0.0800781L139.667 145L129.75 228.8H86.75C86.5 228.8 86.26 228.8 86.01 228.79C56.02 228.4 31.75 203.89 31.75 173.84V15.0801C31.75 6.80008 38.47 0.0800781 46.75 0.0800781C55.03 0.0800781 61.75 6.80008 61.75 15.0801V126.37H114.75V15.0801C114.75 6.80008 121.47 0.0800781 129.75 0.0800781Z" fill="#ADF2F5"/>
<path d="M227.75 15.0801V173.84C227.75 204.02 203.27 228.61 173.1 228.8H129.75V0.0800781C138.03 0.0800781 144.75 6.80008 144.75 15.0801V126.37H197.75V15.0801C197.75 6.80008 204.47 0.0800781 212.75 0.0800781C221.03 0.0800781 227.75 6.80008 227.75 15.0801Z" fill="#98D3F3"/>
<path d="M129.748 345.67L142.998 421L129.748 512C108.868 512 89.0283 502.98 75.3183 487.24C61.6183 471.53 55.3983 450.67 58.2483 430.03L69.8883 345.67H129.748Z" fill="#FFDD54"/>
<path d="M184.23 487.19C170.51 502.96 150.66 512 129.75 512V345.67H189.45L201.23 429.9C204.12 450.56 197.93 471.44 184.23 487.19Z" fill="#F7BE48"/>
</svg>
