<svg width="512" height="512" viewBox="0 0 512 512" fill="none" xmlns="http://www.w3.org/2000/svg">
<mask id="mask0_1216_759" style="mask-type:luminance" maskUnits="userSpaceOnUse" x="49" y="49" width="414" height="414">
<path d="M463 49H49V463H463V49Z" fill="white"/>
</mask>
<g mask="url(#mask0_1216_759)">
<path d="M421.879 211.105L315.588 317.396C293.661 339.323 266.001 354.128 235.592 360.207C209.897 365.35 186.522 377.857 167.991 396.39L167.918 396.462L147.292 416.756L110.981 401.022C91.0558 354.025 96.967 367.967 95.8367 365.301L116.567 344.901C135.083 326.378 147.583 303.011 152.717 277.332C158.797 246.923 173.602 219.264 195.529 197.336L301.819 91.0459L356.986 121.633C347.663 130.955 347.517 145.962 356.541 155.462C363.521 164.183 380.553 166.678 391.292 155.939L421.879 211.105Z" fill="#E6F5FA"/>
<path d="M421.883 211.105L315.592 317.396C293.665 339.323 266.005 354.127 235.596 360.208C209.901 365.349 186.526 377.858 167.994 396.39L167.921 396.462L147.296 416.757L110.984 401.022L356.545 155.462C363.525 164.183 380.556 166.678 391.295 155.939L421.883 211.105Z" fill="#C8E1E6"/>
<path d="M436.126 196.868L421.88 211.106L379.003 168.23C368.549 178.684 351.909 176.759 344.252 167.752C335.229 158.243 335.383 143.238 344.697 133.923L301.82 91.0464L318.978 73.8893C351.99 40.8768 405.353 40.6828 438.568 73.4366C473.133 107.322 469.818 163.168 436.126 196.868Z" fill="#FF637B"/>
<path d="M436.124 196.867L421.877 211.105L379.001 168.229C368.547 178.683 351.907 176.758 344.25 167.751L438.565 73.436C473.13 107.322 469.816 163.168 436.124 196.867Z" fill="#E63950"/>
<path d="M147.295 416.757L111.081 452.381C97.0202 466.401 74.0173 466.692 59.6658 452.34C45.476 438.15 45.476 415.075 59.6658 400.886L59.7386 400.813L95.8397 365.302L147.295 416.757Z" fill="#C8E1E6"/>
<path d="M147.293 416.756L111.079 452.381C97.0184 466.401 74.0155 466.692 59.6641 452.34L121.274 390.738L147.293 416.756Z" fill="#AAC8D2"/>
<path d="M318.511 193.496L293.244 168.229L241.789 219.685L267.056 244.951L293.244 271.14L344.7 219.685L318.511 193.496Z" fill="#76E2F8"/>
<path d="M267.023 244.957L318.471 193.509L344.656 219.693L293.208 271.141L267.023 244.957Z" fill="#4BB9EC"/>
<path d="M207.453 253.981L224.603 236.832L241.751 253.981L224.603 271.13L207.453 253.981Z" fill="#596C76"/>
<path d="M241.75 288.286L258.899 271.137L276.048 288.286L258.899 305.435L241.75 288.286Z" fill="#465A61"/>
</g>
</svg>
