<svg width="512" height="512" viewBox="0 0 512 512" fill="none" xmlns="http://www.w3.org/2000/svg">
<g clip-path="url(#clip0_1211_660)">
<path d="M375.299 32.7583L188.93 74.3633C176.644 77.1053 174.956 93.4823 186.253 99.0143L221.385 116.22C296.838 153.172 342.18 210.556 342.072 210.453C391.174 268.708 487.884 250.233 508.521 167.669C528.797 88.7683 457.352 14.4403 375.299 32.7583Z" fill="#F2FD51"/>
<path d="M377.764 136.318C377.902 136.374 314.543 99.8451 230.771 93.4421L191.767 90.4601C185.696 89.9961 181.52 86.0431 179.997 81.2861C177.078 87.3151 178.944 95.4341 186.254 99.0141L221.386 116.219C296.839 153.171 342.181 210.555 342.073 210.452C391.176 268.707 487.886 250.232 508.523 167.667C514.563 144.166 512.462 121.072 504.369 100.709C479.675 143.037 424.836 161.506 377.764 136.318Z" fill="#F9DC5C"/>
<path d="M426.165 336.005L312.867 274.451C303.046 269.116 292.181 278.63 295.87 289.229L302.502 308.277C322.533 365.813 322.833 415.408 322.729 413.154C325.24 467.67 386.275 501.13 433.225 470.244C482.437 437.419 478.163 364.255 426.165 336.005Z" fill="#F2FD51"/>
<path d="M364.813 401.193C365.474 403.35 352.836 355.393 319.11 304.655L307.944 287.858C304.552 282.755 305.448 276.89 308.721 273.055C300.288 271.813 292.697 280.116 295.87 289.23L302.502 308.278C322.533 365.814 322.833 415.409 322.729 413.155C325.24 467.671 386.275 501.131 433.225 470.245C442.056 464.354 449.155 457.16 454.575 449.165C418.648 460.197 376.947 440.749 364.813 401.193Z" fill="#F9DC5C"/>
<path d="M187.437 289.391C144.107 252.67 95.7096 215.509 52.8866 137.232C44.5116 125.006 25.7286 129.347 24.0216 144.072L0.822596 344.098C-9.4414 432.6 78.2176 499.237 159.283 468.692C234.564 440.337 249.779 340.23 187.437 289.391Z" fill="#F2FD51"/>
<path d="M66.0736 339.104L38.6006 139.619C38.1096 136.052 38.7526 132.832 40.1596 130.133C32.5836 129.893 25.0716 135.013 24.0206 144.07L0.822596 344.097C-9.4414 432.599 78.2176 499.236 159.283 468.691C176.168 462.332 190.02 452.355 200.665 440.141C139.399 449.029 75.5556 407.944 66.0736 339.104Z" fill="#F9DC5C"/>
</g>
<defs>
<clipPath id="clip0_1211_660">
<rect width="511.999" height="511.999" fill="white"/>
</clipPath>
</defs>
</svg>
