<svg width="512" height="512" viewBox="0 0 512 512" fill="none" xmlns="http://www.w3.org/2000/svg">
<mask id="mask0_1216_774" style="mask-type:luminance" maskUnits="userSpaceOnUse" x="39" y="38" width="434" height="435">
<path d="M473.001 38.999H39V473H473.001V38.999Z" fill="white"/>
</mask>
<g mask="url(#mask0_1216_774)">
<path d="M357.126 66.767L199.148 102.034C188.734 104.358 187.303 118.24 196.879 122.93L226.659 137.514C290.617 168.837 329.052 217.479 328.96 217.392C370.582 266.772 452.559 251.112 470.053 181.125C487.24 114.244 426.679 51.2396 357.126 66.767Z" fill="#F2FD51"/>
<path d="M359.217 154.551C359.334 154.598 305.627 123.634 234.617 118.206L201.555 115.679C196.408 115.285 192.869 111.935 191.578 107.902C189.103 113.013 190.685 119.895 196.881 122.93L226.661 137.514C290.62 168.836 329.055 217.478 328.963 217.391C370.586 266.772 452.563 251.111 470.056 181.124C475.176 161.203 473.395 141.627 466.535 124.366C445.603 160.246 399.118 175.902 359.217 154.551Z" fill="#F9DC5C"/>
<path d="M400.242 323.817L304.204 271.64C295.879 267.118 286.669 275.183 289.796 284.167L295.418 300.313C312.398 349.084 312.652 391.124 312.564 389.213C314.692 435.424 366.429 463.787 406.227 437.606C447.942 409.782 444.319 347.763 400.242 323.817Z" fill="#F2FD51"/>
<path d="M348.237 379.074C348.797 380.903 338.084 340.252 309.496 297.243L300.031 283.005C297.156 278.679 297.916 273.708 300.69 270.457C293.542 269.404 287.107 276.442 289.797 284.168L295.418 300.314C312.398 349.085 312.652 391.125 312.564 389.214C314.692 435.425 366.429 463.788 406.227 437.607C413.713 432.613 419.73 426.515 424.325 419.738C393.871 429.09 358.522 412.604 348.237 379.074Z" fill="#F9DC5C"/>
<path d="M197.883 284.304C161.154 253.178 120.129 221.678 83.8298 155.325C76.7307 144.962 60.8091 148.642 59.3621 161.123L39.6973 330.677C30.9969 405.697 105.302 462.183 174.018 436.291C237.83 412.255 250.728 327.399 197.883 284.304Z" fill="#F2FD51"/>
<path d="M95.0079 326.444L71.7202 157.349C71.304 154.325 71.849 151.595 73.0417 149.308C66.6198 149.104 60.2522 153.444 59.3613 161.121L39.6973 330.676C30.9969 405.696 105.302 462.181 174.018 436.29C188.331 430.899 200.072 422.442 209.096 412.089C157.163 419.623 103.045 384.797 95.0079 326.444Z" fill="#F9DC5C"/>
</g>
</svg>
