<svg width="472" height="512" viewBox="0 0 472 512" fill="none" xmlns="http://www.w3.org/2000/svg">
<path d="M250.045 14.3154V60.1248C250.045 68.0269 243.632 74.4402 235.729 74.4402C227.827 74.4402 221.414 68.0269 221.414 60.1248V14.3154C221.414 6.41331 227.827 0 235.729 0C243.632 0 250.045 6.41331 250.045 14.3154Z" fill="#535E7E"/>
<path d="M250.05 14.3154V60.1248C250.05 68.0269 243.636 74.4402 235.734 74.4402V0C243.636 0 250.05 6.41331 250.05 14.3154Z" fill="#424765"/>
<path d="M426.352 191.388C415.634 152.097 392.701 116.623 360.959 90.5787C325.791 61.7092 281.308 45.8096 235.727 45.8096C190.147 45.8096 145.664 61.7092 110.496 90.5787C78.754 116.623 55.8206 152.097 45.1031 191.388C19.6408 194.995 0 216.927 0 243.362C0 269.798 19.6408 291.73 45.1031 295.337C55.8206 334.628 78.754 370.102 110.496 396.146C145.664 425.016 190.147 440.915 235.727 440.915C281.308 440.915 325.791 425.016 360.959 396.146C392.701 370.102 415.634 334.628 426.352 295.337C451.814 291.73 471.455 269.798 471.455 243.362C471.455 216.927 451.814 194.995 426.352 191.388Z" fill="#F2CDBE"/>
<path d="M471.454 243.362C471.454 269.798 451.813 291.73 426.351 295.337C415.633 334.628 392.7 370.102 360.958 396.146C325.79 425.016 281.307 440.915 235.727 440.915V45.8096C281.307 45.8096 325.79 61.7092 360.958 90.5787C392.7 116.623 415.633 152.097 426.351 191.388C451.813 194.995 471.454 216.927 471.454 243.362Z" fill="#EFBEAA"/>
<path d="M235.727 251.952C185.737 251.952 145.062 292.627 145.062 342.617V343.571C145.062 359.356 157.908 372.202 173.693 372.202H297.76C313.546 372.202 326.391 359.356 326.391 343.571V342.617C326.391 292.627 285.716 251.952 235.727 251.952Z" fill="#E19480"/>
<path d="M326.391 342.617V343.571C326.391 359.356 313.545 372.202 297.76 372.202H235.727V251.952C285.716 251.952 326.391 292.627 326.391 342.617Z" fill="#D37F6C"/>
<path d="M250.045 327.347V372.202H221.414V327.347C221.414 319.445 227.827 313.031 235.729 313.031C243.632 313.031 250.045 319.445 250.045 327.347Z" fill="#CF5C8F"/>
<path d="M250.05 327.347V372.202H235.734V313.031C243.636 313.031 250.05 319.445 250.05 327.347Z" fill="#C74179"/>
<path d="M319.699 227.141C317.547 227.141 315.364 226.654 313.309 225.626L267.5 202.722C262.935 200.44 259.931 195.901 259.614 190.807C259.296 185.715 261.714 180.838 265.96 178.008L311.77 147.468C318.347 143.083 327.236 144.861 331.621 151.438C336.008 158.017 334.23 166.905 327.651 171.29L302.367 188.146L326.113 200.019C333.185 203.554 336.051 212.154 332.515 219.225C330.007 224.241 324.95 227.141 319.699 227.141Z" fill="#EAA58F"/>
<path d="M151.752 227.142C146.5 227.142 141.445 224.242 138.936 219.225C135.401 212.154 138.267 203.554 145.338 200.02L169.084 188.146L143.8 171.29C137.221 166.905 135.444 158.017 139.83 151.439C144.215 144.859 153.103 143.083 159.681 147.469L205.491 178.008C209.737 180.839 212.155 185.716 211.837 190.808C211.52 195.901 208.517 200.441 203.951 202.722L158.142 225.627C156.087 226.656 153.903 227.142 151.752 227.142Z" fill="#EFBEAA"/>
<path d="M406.543 453.79H377.915C377.915 438.008 365.069 425.161 349.287 425.161H292.03V339.276C292.03 307.698 266.351 282.02 234.773 282.02C203.195 282.02 177.517 307.698 177.517 339.276V396.533L206.145 410.847L177.517 425.161C149.416 425.161 118.539 425.161 120.26 425.161C104.478 425.161 91.6317 438.008 91.6317 453.79H63.0033C47.2215 453.79 34.375 466.636 34.375 482.418C34.375 498.2 47.2215 512.001 63.0033 512.001H234.773H406.543C422.325 512.001 435.172 498.2 435.172 482.418C435.172 466.636 422.325 453.79 406.543 453.79Z" fill="#E6E65C"/>
<path d="M435.172 482.418C435.172 466.636 422.325 453.79 406.543 453.79H377.915C377.915 438.008 365.069 425.161 349.287 425.161H292.03V339.276C292.03 307.698 266.351 282.02 234.773 282.02V512.001H406.543C422.325 512.001 435.172 498.2 435.172 482.418Z" fill="#CCC052"/>
<path d="M177.516 396.533H220.458V425.162H177.516V396.533Z" fill="#CCC052"/>
</svg>
