<svg width="512" height="512" viewBox="0 0 512 512" fill="none" xmlns="http://www.w3.org/2000/svg">
<mask id="mask0_1216_840" style="mask-type:luminance" maskUnits="userSpaceOnUse" x="50" y="50" width="412" height="412">
<path d="M462 50H50V462H462V50Z" fill="white"/>
</mask>
<g mask="url(#mask0_1216_840)">
<path d="M325.998 404.052C325.998 410.715 320.59 416.121 313.927 416.121H249.555C242.892 416.121 237.484 410.715 237.484 404.052C237.484 397.389 242.892 391.981 249.555 391.981H313.927C320.59 391.981 325.998 397.389 325.998 404.052Z" fill="#F7BE48"/>
<path d="M325.999 404.052C325.999 410.715 320.592 416.121 313.929 416.121H281.742V391.981H313.929C320.592 391.981 325.999 397.389 325.999 404.052Z" fill="#F99E49"/>
<path d="M353.455 357.718L331.568 303.009C329.092 296.82 322.067 293.809 315.879 296.285C309.69 298.762 306.679 305.786 309.156 311.975L331.043 366.684C333.512 372.856 340.528 375.891 346.732 373.408C352.921 370.932 355.931 363.907 353.455 357.718Z" fill="#F99E49"/>
<path d="M247.599 296.286C241.41 293.81 234.386 296.82 231.909 303.009L210.023 357.718C206.846 365.659 212.726 374.274 221.225 374.274C226.015 374.274 230.547 371.404 232.436 366.685L254.322 311.976C256.798 305.787 253.789 298.762 247.599 296.286Z" fill="#F7BE48"/>
<path d="M358.991 346.921C327.489 346.921 301.859 372.55 301.859 404.052C301.859 419.307 307.766 433.759 318.49 444.748C340.935 467.748 377.04 467.754 399.492 444.748C410.215 433.76 416.122 419.307 416.122 404.052C416.122 372.55 390.492 346.921 358.991 346.921Z" fill="#2B4478"/>
<path d="M391.178 404.632C391.178 422.449 376.758 437.269 358.991 437.269C341.245 437.269 326.805 422.467 326.805 404.632C326.805 386.88 341.241 372.445 358.991 372.445C376.742 372.445 391.178 386.88 391.178 404.632Z" fill="#83B3F1"/>
<path d="M261.63 404.052C261.63 435.738 235.966 461.988 204.498 461.988C173.062 461.988 147.367 435.766 147.367 404.052C147.367 372.549 172.996 346.921 204.498 346.921C236.001 346.921 261.63 372.549 261.63 404.052Z" fill="#554FB2"/>
<path d="M236.678 404.632C236.678 422.449 222.258 437.269 204.491 437.269C186.745 437.269 172.305 422.467 172.305 404.632C172.305 386.88 186.741 372.445 204.491 372.445C222.242 372.445 236.678 386.88 236.678 404.632Z" fill="#98D3F3"/>
<path d="M114.373 229.44C109.376 229.44 104.749 226.325 103.003 221.425C103.003 221.417 102.995 221.409 102.995 221.401C102.939 221.24 102.883 221.079 102.834 220.918L98.0304 205.3L84.6568 161.848C81.7922 152.522 72.2892 145.754 62.07 145.754C55.4073 145.754 50 140.347 50 133.685C50 127.022 55.4073 121.615 62.07 121.615C82.951 121.615 101.732 135.238 107.735 154.743L123.289 205.3L125.912 213.821C128.294 221.578 122.476 229.44 114.373 229.44Z" fill="#F7BE48"/>
<path d="M307.489 50H288.177C282.975 50 278.358 53.3329 276.721 58.2711L225.223 213.571C222.636 221.373 228.451 229.44 236.68 229.44H449.915C456.581 229.44 461.985 224.036 461.985 217.37C461.984 123.83 390.971 50 307.489 50Z" fill="#98D3F3"/>
<path d="M461.987 217.37C461.987 218.819 461.73 220.203 461.263 221.49C461.255 221.514 461.247 221.53 461.239 221.555L461.191 221.675C459.461 226.214 455.067 229.44 449.917 229.44H281.742V51.8668C283.625 50.6759 285.846 50 288.18 50H307.491C387.346 50 455.799 117.56 461.593 205.3C461.851 209.283 461.987 213.307 461.987 217.37Z" fill="#83B3F1"/>
<path d="M461.24 221.554L437.8 284.929C430.365 305.649 407.062 319.562 379.8 319.562H183.687C156.393 319.562 133.074 305.617 125.663 284.857L103.004 221.426C103.004 221.418 102.996 221.41 102.996 221.402C102.94 221.241 102.883 221.08 102.835 220.919L98.0312 205.3H449.919C458.303 205.3 464.153 213.669 461.24 221.554Z" fill="#ADF2F5"/>
<path d="M461.987 217.37C461.987 218.819 461.73 220.203 461.263 221.49C461.255 221.514 461.247 221.53 461.239 221.554L461.191 221.675L437.798 284.929C430.364 305.649 407.061 319.562 379.799 319.562H281.742V205.3H461.593C461.851 209.283 461.987 213.306 461.987 217.37Z" fill="#98D3F3"/>
</g>
</svg>
