<svg width="512" height="512" viewBox="0 0 512 512" fill="none" xmlns="http://www.w3.org/2000/svg">
<path d="M374.359 118.355H449.247C482.841 118.355 509.078 147.372 505.713 180.798L477.522 460.925C474.596 489.921 450.187 512 421.045 512H90.9512C61.8092 512 37.4002 489.921 34.4852 460.925L6.28319 180.798C2.91819 147.372 29.1662 118.355 62.7602 118.355H137.648" fill="#55B5E0"/>
<path d="M256.001 236.712C321.367 236.712 374.357 183.722 374.357 118.356C374.357 52.9898 321.367 0 256.001 0C190.634 0 137.645 52.9898 137.645 118.356C137.645 183.722 190.634 236.712 256.001 236.712Z" fill="#FCE381"/>
<path d="M342.25 118.355C342.25 140.434 333.953 160.569 320.307 175.824C313.108 167.778 304.445 161.091 294.707 156.201C283.067 150.35 269.922 147.048 256.004 147.048C230.446 147.048 207.479 158.166 191.69 175.825C178.054 160.569 169.758 140.434 169.758 118.356C169.758 77.3854 198.315 43.0924 236.621 34.3044C236.809 34.2524 237.008 34.2104 237.196 34.1684C243.246 32.8204 249.547 32.1104 256.004 32.1104C303.631 32.1094 342.25 70.7184 342.25 118.355Z" fill="#CAF1FC"/>
<path d="M303.446 118.355C303.446 131.939 300.311 144.781 294.711 156.201C283.071 150.35 269.926 147.048 256.008 147.048C230.45 147.048 207.483 158.166 191.694 175.825C178.058 160.569 169.762 140.434 169.762 118.356C169.762 77.3847 198.319 43.0917 236.625 34.3037C274.899 43.1117 303.446 77.3947 303.446 118.355Z" fill="#A7E6FC"/>
<path d="M320.311 183.661C318.08 183.661 315.956 182.71 314.469 181.048C299.602 164.421 278.294 154.885 256.008 154.885C233.715 154.885 212.403 164.421 197.536 181.048C196.05 182.71 193.925 183.661 191.694 183.661C189.463 183.661 187.339 182.71 185.852 181.047C170.423 163.785 161.926 141.521 161.926 118.355C161.926 66.4785 204.132 24.2725 256.009 24.2725C307.886 24.2725 350.092 66.4785 350.092 118.355C350.092 141.526 341.591 163.791 326.153 181.049C324.665 182.711 322.54 183.661 320.311 183.661ZM256.008 139.211C279.68 139.211 302.43 148.174 319.712 164.07C329.245 150.805 334.417 134.857 334.417 118.356C334.417 75.1215 299.243 39.9475 256.008 39.9475C212.773 39.9475 177.599 75.1215 177.599 118.356C177.599 134.854 182.769 150.801 192.296 164.069C209.579 148.174 232.332 139.211 256.008 139.211Z" fill="#E29F33"/>
<path d="M256.007 126.194C252.948 126.194 250.042 124.392 248.78 121.396L232.065 81.6898C230.386 77.7008 232.258 73.1058 236.248 71.4258C240.238 69.7458 244.832 71.6188 246.511 75.6088L263.226 115.315C264.905 119.304 263.033 123.899 259.043 125.579C258.051 125.995 257.02 126.194 256.007 126.194Z" fill="#595C63"/>
<path d="M420.053 306.437H89.865C76.592 306.437 65.832 295.678 65.832 282.404C65.832 269.131 76.591 258.371 89.865 258.371H420.053C433.326 258.371 444.086 269.13 444.086 282.404C444.086 295.677 433.327 306.437 420.053 306.437Z" fill="#188EB7"/>
<path d="M406.247 387.939H103.674C90.4006 387.939 79.6406 377.18 79.6406 363.906C79.6406 350.633 90.3996 339.873 103.674 339.873H406.246C419.519 339.873 430.279 350.632 430.279 363.906C430.28 377.18 419.52 387.939 406.247 387.939Z" fill="#188EB7"/>
<path d="M396.708 469.441H113.213C99.9397 469.441 89.1797 458.682 89.1797 445.408C89.1797 432.135 99.9387 421.375 113.213 421.375H396.708C409.981 421.375 420.741 432.134 420.741 445.408C420.741 458.682 409.981 469.441 396.708 469.441Z" fill="#188EB7"/>
</svg>
